<svg width="144" height="41" viewBox="0 0 144 41" fill="none" xmlns="http://www.w3.org/2000/svg">
<path d="M120.001 27.2796V6.47961H116.201V0.599609H126.921V27.2796H120.001Z" fill="#6B8A2E"/>
<path d="M107.814 28.0397C106.934 28.0397 105.854 27.7597 104.894 26.7997C104.374 26.2797 103.654 25.3197 103.654 23.8797C103.654 22.4397 104.374 21.4797 104.894 20.9597C105.854 19.9997 106.934 19.7197 107.814 19.7197C108.814 19.7197 109.894 20.1197 110.774 20.9997C111.454 21.6797 111.934 22.5597 111.934 23.8797C111.934 25.1997 111.454 26.0797 110.734 26.7997C109.894 27.6397 108.854 28.0397 107.814 28.0397Z" fill="#6B8A2E"/>
<path d="M100.124 0.599609V6.47961H91.8841V10.9196H99.6841V16.7996H91.8841V21.3996H100.124V27.2796H84.9641V0.599609H100.124Z" fill="#6B8A2E"/>
<path d="M60.9126 24.88L63.8726 19.28C65.3526 20.68 67.5926 22 69.9926 22C71.3926 22 72.2326 21.56 72.6726 21.08C73.0726 20.68 73.3526 20.08 73.3526 19.4C73.3526 18.88 73.1526 18.28 72.5926 17.8C71.9126 17.2 70.8726 16.92 69.1526 16.4L67.3526 15.84C66.2326 15.48 64.5926 14.88 63.5126 13.68C62.1526 12.2 61.9926 10.32 61.9926 8.96C61.9926 5.68 63.2726 3.68 64.4326 2.52C65.7926 1.16 68.0326 0 71.2726 0C73.9126 0 76.9926 0.840001 79.5126 2.16L76.7526 7.56C74.6726 5.92 73.1126 5.76 72.1926 5.76C71.5126 5.76 70.5926 5.92 69.9126 6.56C69.5126 6.96 69.2326 7.4 69.2326 8C69.2326 8.48 69.3126 8.84 69.5926 9.2C69.7926 9.44 70.2726 9.92 71.9126 10.4L74.0326 11.04C75.7126 11.56 77.4726 12.16 78.8726 13.68C80.2326 15.12 80.5926 16.6 80.5926 18.44C80.5926 20.88 79.9926 23.24 78.0726 25.16C75.7926 27.44 73.0326 27.88 70.1926 27.88C68.5126 27.88 66.9126 27.72 64.9526 27C64.5126 26.84 62.8326 26.2 60.9126 24.88Z" fill="#6B8A2E"/>
<path d="M52.6497 27.2796L51.0097 22.7996H41.3297L39.5297 27.2796H32.2097L42.4497 0.599609H50.0097L60.0497 27.2796H52.6497ZM43.2497 17.5196H49.1697L46.1697 8.87961L43.2497 17.5196Z" fill="#6B8A2E"/>
<path d="M30.3351 18.3597V26.5597C27.5751 27.5597 26.0551 27.8797 24.3351 27.8797C19.6951 27.8797 16.2151 26.0397 14.0151 23.8797C11.4151 21.2797 9.9751 17.6397 9.9751 14.1597C9.9751 10.3597 11.6151 6.75967 14.0151 4.31967C16.3751 1.91967 19.9351 0.159668 24.0951 0.159668C25.3751 0.159668 27.4551 0.359668 30.3351 1.51967V9.79967C28.0951 7.03967 25.4551 6.87967 24.2951 6.87967C22.2951 6.87967 20.7751 7.47967 19.4951 8.63967C17.8551 10.1597 17.1751 12.2397 17.1751 14.1197C17.1751 15.9597 17.9351 17.9997 19.3351 19.3197C20.4951 20.3997 22.3351 21.1597 24.2951 21.1597C25.3351 21.1597 27.8951 21.0397 30.3351 18.3597Z" fill="#6B8A2E"/>
<g clip-path="url(#clip0_100_2096)">
<path d="M140.18 36.5396V37.5396H3.57007V36.5396H140.18Z" fill="#6B8A2E"/>
<path d="M3.76 40.7998C5.83659 40.7998 7.52 39.1164 7.52 37.0398C7.52 34.9632 5.83659 33.2798 3.76 33.2798C1.68341 33.2798 0 34.9632 0 37.0398C0 39.1164 1.68341 40.7998 3.76 40.7998Z" fill="#6B8A2E"/>
<path d="M139.99 40.7998C142.067 40.7998 143.75 39.1164 143.75 37.0398C143.75 34.9632 142.067 33.2798 139.99 33.2798C137.913 33.2798 136.23 34.9632 136.23 37.0398C136.23 39.1164 137.913 40.7998 139.99 40.7998Z" fill="#6B8A2E"/>
</g>
<defs>
<clipPath id="clip0_100_2096">
<rect width="143.75" height="7.52" fill="white" transform="translate(0 33.2798)"/>
</clipPath>
</defs>
</svg>
