<svg width="144" height="41" viewBox="0 0 144 41" fill="none" xmlns="http://www.w3.org/2000/svg">
<path d="M28.2334 18.3598V26.5598C25.4734 27.5598 23.9534 27.8798 22.2334 27.8798C17.5934 27.8798 14.1134 26.0398 11.9134 23.8798C9.31344 21.2798 7.87344 17.6398 7.87344 14.1598C7.87344 10.3598 9.51344 6.75978 11.9134 4.31979C14.2734 1.91979 17.8334 0.159784 21.9934 0.159784C23.2734 0.159784 25.3534 0.359784 28.2334 1.51978V9.79978C25.9934 7.03978 23.3534 6.87978 22.1934 6.87978C20.1934 6.87978 18.6734 7.47978 17.3934 8.63978C15.7534 10.1598 15.0734 12.2398 15.0734 14.1198C15.0734 15.9598 15.8334 17.9998 17.2334 19.3198C18.3934 20.3998 20.2334 21.1598 22.1934 21.1598C23.2334 21.1598 25.7934 21.0398 28.2334 18.3598ZM50.5481 27.2798L48.9081 22.7998H39.2281L37.4281 27.2798H30.1081L40.3481 0.599783H47.9081L57.9481 27.2798H50.5481ZM41.1481 17.5198H47.0681L44.0681 8.87978L41.1481 17.5198ZM58.8109 24.8798L61.7709 19.2798C63.2509 20.6798 65.4909 21.9998 67.8909 21.9998C69.2909 21.9998 70.1309 21.5598 70.5709 21.0798C70.9709 20.6798 71.2509 20.0798 71.2509 19.3998C71.2509 18.8798 71.0509 18.2798 70.4909 17.7998C69.8109 17.1998 68.7709 16.9198 67.0509 16.3998L65.2509 15.8398C64.1309 15.4798 62.4909 14.8798 61.4109 13.6798C60.0509 12.1998 59.8909 10.3198 59.8909 8.95978C59.8909 5.67978 61.1709 3.67978 62.3309 2.51978C63.6909 1.15978 65.9309 -0.000216484 69.1709 -0.000216484C71.8109 -0.000216484 74.8909 0.839785 77.4109 2.15978L74.6509 7.55978C72.5709 5.91978 71.0109 5.75978 70.0909 5.75978C69.4109 5.75978 68.4909 5.91978 67.8109 6.55978C67.4109 6.95978 67.1309 7.39978 67.1309 7.99978C67.1309 8.47978 67.2109 8.83978 67.4909 9.19978C67.6909 9.43978 68.1709 9.91978 69.8109 10.3998L71.9309 11.0398C73.6109 11.5598 75.3709 12.1598 76.7709 13.6798C78.1309 15.1198 78.4909 16.5998 78.4909 18.4398C78.4909 20.8798 77.8909 23.2398 75.9709 25.1598C73.6909 27.4398 70.9309 27.8798 68.0909 27.8798C66.4109 27.8798 64.8109 27.7198 62.8509 26.9998C62.4109 26.8398 60.7309 26.1998 58.8109 24.8798ZM98.0225 0.599783V6.47978H89.7825V10.9198H97.5825V16.7998H89.7825V21.3998H98.0225V27.2798H82.8625V0.599783H98.0225ZM105.713 28.0398C104.833 28.0398 103.753 27.7598 102.793 26.7998C102.273 26.2798 101.553 25.3198 101.553 23.8798C101.553 22.4398 102.273 21.4798 102.793 20.9598C103.753 19.9998 104.833 19.7198 105.713 19.7198C106.713 19.7198 107.793 20.1198 108.673 20.9998C109.353 21.6798 109.833 22.5598 109.833 23.8798C109.833 25.1998 109.353 26.0798 108.633 26.7998C107.793 27.6398 106.753 28.0398 105.713 28.0398ZM134.182 21.3998V27.2798H112.782L119.542 20.1998C121.942 17.6798 123.742 15.4798 125.022 13.4398C125.742 12.3198 126.462 10.9998 126.462 9.27978C126.462 8.99978 126.462 7.59978 125.662 6.71979C125.262 6.27978 124.582 5.91978 123.702 5.91978C122.582 5.91978 121.822 6.43978 121.382 6.99978C120.742 7.83978 120.462 9.35978 120.422 10.2798H113.262C113.302 6.79978 114.822 4.27978 116.222 2.87978C118.022 1.07978 120.462 -0.000216484 123.782 -0.000216484C127.782 -0.000216484 130.102 1.55978 131.302 2.75978C132.382 3.83978 133.902 5.87978 133.902 9.31978C133.902 12.6798 132.342 14.9998 129.942 17.2398L125.462 21.3998H134.182Z" fill="#6B8A2E"/>
<g clip-path="url(#clip0_100_2105)">
<path d="M3.57007 37.0396H140.18" stroke="#6B8A2E" stroke-miterlimit="10"/>
<path d="M3.76 40.7998C5.83659 40.7998 7.52 39.1164 7.52 37.0398C7.52 34.9632 5.83659 33.2798 3.76 33.2798C1.68341 33.2798 0 34.9632 0 37.0398C0 39.1164 1.68341 40.7998 3.76 40.7998Z" fill="#6B8A2E"/>
<path d="M139.99 40.7998C142.067 40.7998 143.75 39.1164 143.75 37.0398C143.75 34.9632 142.067 33.2798 139.99 33.2798C137.913 33.2798 136.23 34.9632 136.23 37.0398C136.23 39.1164 137.913 40.7998 139.99 40.7998Z" fill="#6B8A2E"/>
</g>
<defs>
<clipPath id="clip0_100_2105">
<rect width="143.75" height="7.52" fill="white" transform="translate(0 33.2798)"/>
</clipPath>
</defs>
</svg>
