<svg width="344" height="97" viewBox="0 0 344 97" fill="none" xmlns="http://www.w3.org/2000/svg">
<path d="M64.4797 83.0397L62.2797 80.6797C59.9197 82.0797 57.6397 82.5997 54.6797 82.5997C46.2797 82.5997 40.4397 76.8397 40.4397 68.6797C40.4397 60.5597 46.2797 54.7197 54.6797 54.7197C63.0797 54.7197 68.9197 60.5597 68.9197 68.6797C68.9197 73.6797 66.8397 76.5597 65.3997 78.1597L69.7197 82.5197L64.4797 83.0397ZM58.7197 71.2797L61.7997 74.4397C62.6397 73.3197 63.5597 71.6397 63.5597 68.6797C63.5597 63.2797 59.8797 59.4397 54.6797 59.4397C49.4797 59.4397 45.7997 63.2797 45.7997 68.6797C45.7997 74.0397 49.4397 77.8797 54.7997 77.8797C56.5997 77.8797 57.7997 77.4797 58.7597 76.9997L53.3197 71.7197L58.7197 71.2797Z" fill="#F29800"/>
<path d="M33.8641 82.0003L31.5041 76.4003H20.7441L18.3841 82.0003H12.7441L24.2241 55.3203H28.3041L39.4641 82.0003H33.8641ZM22.3841 72.1603H29.9841L26.1841 62.5603L22.3841 72.1603Z" fill="#F29800"/>
<path d="M14.2 55.3203V59.8003H5.24004V65.7603H13.64V70.2403H5.24004V82.0003H0.0400391V55.3203H14.2Z" fill="#F29800"/>
<path d="M180.664 76.1124H186.072V81.1684H180.664V79.6004H184.264V77.6964H180.664V76.1124ZM179.832 76.1124H181.608V82.0804H179.832V76.1124ZM177.224 71.3444H181.224V72.6404H177.224V71.3444ZM184.648 71.3444H188.68V72.6404H184.648V71.3444ZM187.88 69.0244H189.832V81.1364C189.832 81.6697 189.768 82.0857 189.64 82.3844C189.512 82.6831 189.283 82.9124 188.952 83.0724C188.611 83.2324 188.184 83.3337 187.672 83.3764C187.16 83.4191 186.531 83.4404 185.784 83.4404C185.773 83.2484 185.731 83.0351 185.656 82.8004C185.581 82.5657 185.501 82.3257 185.416 82.0804C185.331 81.8457 185.235 81.6431 185.128 81.4724C185.448 81.4937 185.768 81.5097 186.088 81.5204C186.408 81.5204 186.691 81.5204 186.936 81.5204C187.192 81.5097 187.373 81.5044 187.48 81.5044C187.629 81.5044 187.731 81.4777 187.784 81.4244C187.848 81.3604 187.88 81.2537 187.88 81.1044V69.0244ZM177.368 69.0244H182.44V75.0084H177.368V73.5524H180.632V70.4804H177.368V69.0244ZM188.92 69.0244V70.4804H185.336V73.5844H188.92V75.0244H183.512V69.0244H188.92ZM176.28 69.0244H178.184V83.4404H176.28V69.0244Z" fill="#5F161E"/>
<path d="M165.464 68.416L166.632 69.552C166.184 69.68 165.683 69.7973 165.128 69.904C164.584 70.0107 164.029 70.096 163.464 70.16C162.899 70.224 162.355 70.272 161.832 70.304C161.8 70.144 161.741 69.952 161.656 69.728C161.581 69.4933 161.496 69.3013 161.4 69.152C161.891 69.0987 162.381 69.04 162.872 68.976C163.373 68.9013 163.848 68.816 164.296 68.72C164.755 68.624 165.144 68.5227 165.464 68.416ZM172.392 68.432L173.56 69.552C173.08 69.7013 172.547 69.8293 171.96 69.936C171.373 70.032 170.771 70.112 170.152 70.176C169.544 70.24 168.957 70.2933 168.392 70.336C168.36 70.1653 168.301 69.968 168.216 69.744C168.131 69.5093 168.051 69.312 167.976 69.152C168.499 69.1093 169.032 69.0507 169.576 68.976C170.12 68.9013 170.637 68.816 171.128 68.72C171.629 68.624 172.051 68.528 172.392 68.432ZM160.872 68.768L162.936 69.28C162.925 69.408 162.797 69.4933 162.552 69.536V70.32C162.552 70.736 162.504 71.216 162.408 71.76C162.312 72.2933 162.136 72.832 161.88 73.376C161.635 73.9093 161.267 74.4053 160.776 74.864C160.691 74.736 160.573 74.5973 160.424 74.448C160.275 74.288 160.12 74.1387 159.96 74C159.8 73.8507 159.651 73.7387 159.512 73.664C159.917 73.312 160.211 72.9387 160.392 72.544C160.584 72.1493 160.712 71.7547 160.776 71.36C160.84 70.9547 160.872 70.576 160.872 70.224V68.768ZM167.512 68.784L169.56 69.248C169.549 69.3973 169.421 69.488 169.176 69.52V70.336C169.176 70.7093 169.123 71.136 169.016 71.616C168.909 72.0853 168.707 72.5547 168.408 73.024C168.109 73.4827 167.677 73.8933 167.112 74.256C167.048 74.128 166.947 73.984 166.808 73.824C166.669 73.6533 166.525 73.4933 166.376 73.344C166.227 73.184 166.083 73.0667 165.944 72.992C166.392 72.7147 166.723 72.4213 166.936 72.112C167.16 71.8027 167.309 71.488 167.384 71.168C167.469 70.848 167.512 70.5387 167.512 70.24V68.784ZM161.624 70.8H166.952V72.192H161.624V70.8ZM168.216 70.8H174.2V72.192H168.216V70.8ZM163.736 71.264H165.432V73.856H163.736V71.264ZM170.456 71.264H172.168V73.872H170.456V71.264ZM163.576 77.088V77.792H170.552V77.088H163.576ZM163.576 78.88V79.584H170.552V78.88H163.576ZM163.576 75.312V76H170.552V75.312H163.576ZM161.72 74.16H172.488V80.72H161.72V74.16ZM167.896 81.568L169.496 80.656C170.072 80.8587 170.653 81.0773 171.24 81.312C171.837 81.536 172.403 81.7653 172.936 82C173.48 82.224 173.939 82.4267 174.312 82.608L172.072 83.472C171.773 83.3013 171.4 83.104 170.952 82.88C170.504 82.656 170.019 82.4267 169.496 82.192C168.984 81.968 168.451 81.76 167.896 81.568ZM164.36 80.592L166.104 81.392C165.677 81.6693 165.176 81.9413 164.6 82.208C164.024 82.4747 163.432 82.7147 162.824 82.928C162.216 83.152 161.64 83.3387 161.096 83.488C160.979 83.36 160.835 83.2053 160.664 83.024C160.504 82.8533 160.333 82.6774 160.152 82.496C159.971 82.3253 159.811 82.1867 159.672 82.08C160.237 81.9733 160.808 81.8453 161.384 81.696C161.971 81.5467 162.52 81.376 163.032 81.184C163.555 80.992 163.997 80.7947 164.36 80.592Z" fill="#5F161E"/>
<path d="M146.136 70.5282C146.723 70.6028 147.384 70.6562 148.12 70.6882C148.856 70.7202 149.645 70.7362 150.488 70.7362C151.021 70.7362 151.565 70.7255 152.12 70.7042C152.675 70.6828 153.213 70.6562 153.736 70.6242C154.259 70.5815 154.723 70.5442 155.128 70.5122V72.6402C154.755 72.6615 154.301 72.6882 153.768 72.7202C153.245 72.7522 152.696 72.7788 152.12 72.8002C151.555 72.8215 151.016 72.8322 150.504 72.8322C149.672 72.8322 148.899 72.8162 148.184 72.7842C147.469 72.7415 146.787 72.6988 146.136 72.6562V70.5282ZM147.48 77.3122C147.405 77.5895 147.341 77.8615 147.288 78.1282C147.235 78.3948 147.208 78.6615 147.208 78.9282C147.208 79.4508 147.464 79.8775 147.976 80.2082C148.499 80.5282 149.336 80.6882 150.488 80.6882C151.213 80.6882 151.912 80.6615 152.584 80.6082C153.267 80.5548 153.907 80.4855 154.504 80.4002C155.101 80.3042 155.635 80.1922 156.104 80.0642L156.12 82.3042C155.661 82.4108 155.139 82.5068 154.552 82.5922C153.976 82.6775 153.352 82.7415 152.68 82.7842C152.019 82.8375 151.315 82.8642 150.568 82.8642C149.341 82.8642 148.323 82.7255 147.512 82.4482C146.701 82.1815 146.088 81.7975 145.672 81.2962C145.267 80.7842 145.064 80.1602 145.064 79.4242C145.064 78.9655 145.101 78.5442 145.176 78.1602C145.251 77.7655 145.315 77.4188 145.368 77.1202L147.48 77.3122ZM155.544 68.8802C155.683 69.0722 155.827 69.3015 155.976 69.5682C156.136 69.8348 156.291 70.1015 156.44 70.3682C156.589 70.6348 156.717 70.8695 156.824 71.0722L155.528 71.6322C155.368 71.3015 155.171 70.9228 154.936 70.4962C154.712 70.0695 154.493 69.7015 154.28 69.3922L155.544 68.8802ZM157.448 68.1602C157.587 68.3628 157.736 68.5975 157.896 68.8642C158.056 69.1308 158.211 69.3975 158.36 69.6642C158.52 69.9202 158.648 70.1442 158.744 70.3362L157.464 70.8802C157.293 70.5495 157.091 70.1762 156.856 69.7602C156.621 69.3335 156.392 68.9708 156.168 68.6722L157.448 68.1602Z" fill="#5F161E"/>
<path d="M130.52 69.8084C130.744 69.8404 130.984 69.8617 131.24 69.8724C131.496 69.883 131.741 69.8884 131.976 69.8884C132.147 69.8884 132.403 69.8884 132.744 69.8884C133.085 69.8777 133.469 69.867 133.896 69.8564C134.333 69.8457 134.765 69.835 135.192 69.8244C135.619 69.8137 136.003 69.803 136.344 69.7924C136.696 69.771 136.968 69.755 137.16 69.7444C137.491 69.7124 137.752 69.6857 137.944 69.6644C138.136 69.6324 138.28 69.6004 138.376 69.5684L139.416 70.9924C139.235 71.1097 139.048 71.227 138.856 71.3444C138.664 71.4617 138.477 71.5897 138.296 71.7284C138.083 71.8777 137.827 72.075 137.528 72.3204C137.229 72.555 136.909 72.8057 136.568 73.0724C136.237 73.339 135.912 73.6004 135.592 73.8564C135.283 74.1124 135 74.3417 134.744 74.5444C135.011 74.4804 135.267 74.4377 135.512 74.4164C135.757 74.3844 136.008 74.3684 136.264 74.3684C137.171 74.3684 137.981 74.5444 138.696 74.8964C139.421 75.2484 139.992 75.7284 140.408 76.3364C140.835 76.9337 141.048 77.6217 141.048 78.4004C141.048 79.243 140.835 80.0057 140.408 80.6884C139.981 81.371 139.336 81.915 138.472 82.3204C137.619 82.7257 136.547 82.9284 135.256 82.9284C134.52 82.9284 133.853 82.8217 133.256 82.6084C132.669 82.395 132.205 82.091 131.864 81.6964C131.523 81.3017 131.352 80.8377 131.352 80.3044C131.352 79.867 131.469 79.4617 131.704 79.0884C131.949 78.7044 132.285 78.395 132.712 78.1604C133.149 77.9257 133.651 77.8084 134.216 77.8084C134.952 77.8084 135.571 77.9577 136.072 78.2564C136.584 78.5444 136.973 78.9337 137.24 79.4244C137.517 79.915 137.661 80.4537 137.672 81.0404L135.8 81.2964C135.789 80.7097 135.64 80.2404 135.352 79.8884C135.075 79.5257 134.701 79.3444 134.232 79.3444C133.933 79.3444 133.693 79.4244 133.512 79.5844C133.331 79.7337 133.24 79.9097 133.24 80.1124C133.24 80.411 133.389 80.651 133.688 80.8324C133.987 81.0137 134.376 81.1044 134.856 81.1044C135.763 81.1044 136.52 80.9977 137.128 80.7844C137.736 80.5604 138.189 80.2457 138.488 79.8404C138.797 79.4244 138.952 78.9337 138.952 78.3684C138.952 77.8884 138.803 77.467 138.504 77.1044C138.216 76.7417 137.821 76.459 137.32 76.2564C136.819 76.0537 136.253 75.9524 135.624 75.9524C135.005 75.9524 134.44 76.0324 133.928 76.1924C133.416 76.3417 132.931 76.5604 132.472 76.8484C132.024 77.1257 131.581 77.467 131.144 77.8724C130.717 78.267 130.291 78.7097 129.864 79.2004L128.408 77.6964C128.696 77.4617 129.021 77.2004 129.384 76.9124C129.747 76.6137 130.115 76.3044 130.488 75.9844C130.872 75.6644 131.229 75.3657 131.56 75.0884C131.901 74.8004 132.189 74.5604 132.424 74.3684C132.648 74.187 132.909 73.9737 133.208 73.7284C133.507 73.483 133.816 73.2324 134.136 72.9764C134.456 72.7097 134.76 72.459 135.048 72.2244C135.336 71.979 135.576 71.771 135.768 71.6004C135.608 71.6004 135.4 71.6057 135.144 71.6164C134.888 71.627 134.605 71.6377 134.296 71.6484C133.997 71.659 133.693 71.6697 133.384 71.6804C133.085 71.691 132.803 71.707 132.536 71.7284C132.28 71.739 132.067 71.7497 131.896 71.7604C131.683 71.771 131.459 71.787 131.224 71.8084C130.989 71.8297 130.776 71.8564 130.584 71.8884L130.52 69.8084Z" fill="#5F161E"/>
<path d="M118.936 69.1203C118.893 69.2696 118.851 69.4189 118.808 69.5683C118.776 69.7069 118.744 69.8403 118.712 69.9683C118.616 70.4696 118.525 71.0456 118.44 71.6963C118.355 72.3363 118.285 73.0083 118.232 73.7123C118.179 74.4056 118.152 75.0883 118.152 75.7603C118.152 76.5923 118.195 77.3603 118.28 78.0643C118.365 78.7576 118.483 79.4029 118.632 80.0003C118.792 80.5869 118.963 81.1469 119.144 81.6803L117.304 82.2403C117.144 81.7603 116.989 81.1896 116.84 80.5283C116.701 79.8669 116.584 79.1576 116.488 78.4003C116.392 77.6323 116.344 76.8589 116.344 76.0803C116.344 75.5469 116.36 75.0136 116.392 74.4803C116.435 73.9363 116.477 73.4029 116.52 72.8803C116.563 72.3469 116.611 71.8403 116.664 71.3603C116.728 70.8696 116.781 70.4269 116.824 70.0323C116.835 69.8829 116.845 69.7229 116.856 69.5523C116.867 69.3709 116.867 69.2109 116.856 69.0723L118.936 69.1203ZM116.088 70.8963C117.101 70.8963 118.051 70.8749 118.936 70.8323C119.832 70.7896 120.691 70.7149 121.512 70.6083C122.344 70.5016 123.171 70.3469 123.992 70.1443L124.008 72.0003C123.453 72.0963 122.84 72.1869 122.168 72.2723C121.507 72.3469 120.813 72.4109 120.088 72.4643C119.373 72.5176 118.669 72.5603 117.976 72.5923C117.283 72.6136 116.632 72.6243 116.024 72.6243C115.747 72.6243 115.432 72.6189 115.08 72.6083C114.739 72.5976 114.397 72.5869 114.056 72.5763C113.725 72.5549 113.437 72.5389 113.192 72.5283L113.144 70.6723C113.325 70.6936 113.587 70.7256 113.928 70.7683C114.269 70.8003 114.632 70.8323 115.016 70.8643C115.411 70.8856 115.768 70.8963 116.088 70.8963ZM122.984 73.2323C122.952 73.3283 122.904 73.4616 122.84 73.6323C122.776 73.8029 122.712 73.9789 122.648 74.1603C122.595 74.3416 122.552 74.4856 122.52 74.5923C122.211 75.5523 121.832 76.4323 121.384 77.2323C120.947 78.0216 120.472 78.7149 119.96 79.3123C119.448 79.8989 118.941 80.3789 118.44 80.7523C117.917 81.1469 117.32 81.4936 116.648 81.7923C115.976 82.0803 115.299 82.2243 114.616 82.2243C114.232 82.2243 113.875 82.1443 113.544 81.9843C113.213 81.8243 112.947 81.5736 112.744 81.2323C112.552 80.8803 112.456 80.4376 112.456 79.9043C112.456 79.3283 112.573 78.7629 112.808 78.2083C113.043 77.6536 113.368 77.1256 113.784 76.6243C114.2 76.1229 114.685 75.6803 115.24 75.2963C115.795 74.9016 116.392 74.5923 117.032 74.3683C117.555 74.1763 118.125 74.0216 118.744 73.9043C119.373 73.7869 119.992 73.7283 120.6 73.7283C121.592 73.7283 122.477 73.9096 123.256 74.2723C124.045 74.6349 124.664 75.1309 125.112 75.7603C125.56 76.3896 125.784 77.1256 125.784 77.9683C125.784 78.5336 125.693 79.0883 125.512 79.6323C125.331 80.1656 125.032 80.6616 124.616 81.1203C124.211 81.5789 123.672 81.9736 123 82.3043C122.328 82.6349 121.501 82.8749 120.52 83.0243L119.464 81.3443C120.488 81.2269 121.32 80.9976 121.96 80.6563C122.6 80.3043 123.064 79.8829 123.352 79.3923C123.651 78.9016 123.8 78.3949 123.8 77.8723C123.8 77.4029 123.672 76.9816 123.416 76.6083C123.171 76.2349 122.797 75.9363 122.296 75.7123C121.805 75.4776 121.197 75.3603 120.472 75.3603C119.747 75.3603 119.096 75.4403 118.52 75.6003C117.955 75.7603 117.48 75.9309 117.096 76.1123C116.563 76.3683 116.088 76.6936 115.672 77.0883C115.256 77.4723 114.931 77.8776 114.696 78.3043C114.461 78.7309 114.344 79.1256 114.344 79.4883C114.344 79.7443 114.403 79.9416 114.52 80.0803C114.637 80.2083 114.824 80.2723 115.08 80.2723C115.464 80.2723 115.907 80.1496 116.408 79.9043C116.909 79.6483 117.405 79.2909 117.896 78.8323C118.472 78.2989 119.016 77.6589 119.528 76.9123C120.04 76.1656 120.461 75.2376 120.792 74.1283C120.824 74.0216 120.856 73.8829 120.888 73.7123C120.92 73.5416 120.947 73.3709 120.968 73.2003C121 73.0189 121.021 72.8749 121.032 72.7683L122.984 73.2323Z" fill="#5F161E"/>
<path d="M106.744 70.4644C106.488 70.6457 106.237 70.8377 105.992 71.0404C105.747 71.2324 105.533 71.4084 105.352 71.5684C105.085 71.7711 104.765 72.0217 104.392 72.3204C104.029 72.6084 103.645 72.9124 103.24 73.2324C102.845 73.5417 102.461 73.8457 102.088 74.1444C101.715 74.4431 101.395 74.7097 101.128 74.9444C100.851 75.1897 100.664 75.3924 100.568 75.5524C100.472 75.7017 100.472 75.8511 100.568 76.0004C100.675 76.1497 100.872 76.3524 101.16 76.6084C101.395 76.8111 101.693 77.0617 102.056 77.3604C102.429 77.6591 102.829 77.9897 103.256 78.3524C103.693 78.7044 104.136 79.0724 104.584 79.4564C105.043 79.8297 105.48 80.2031 105.896 80.5764C106.323 80.9391 106.701 81.2804 107.032 81.6004L105.16 83.3124C104.712 82.8111 104.248 82.3151 103.768 81.8244C103.523 81.5791 103.203 81.2804 102.808 80.9284C102.424 80.5657 102.003 80.1871 101.544 79.7924C101.096 79.3977 100.648 79.0084 100.2 78.6244C99.7519 78.2297 99.3466 77.8777 98.9839 77.5684C98.4506 77.1204 98.1039 76.7097 97.9439 76.3364C97.7946 75.9631 97.8159 75.5951 98.0079 75.2324C98.2106 74.8591 98.5786 74.4537 99.1119 74.0164C99.4319 73.7711 99.7946 73.4831 100.2 73.1524C100.605 72.8111 101.021 72.4644 101.448 72.1124C101.875 71.7497 102.28 71.4031 102.664 71.0724C103.048 70.7311 103.373 70.4324 103.64 70.1764C103.875 69.9417 104.109 69.7017 104.344 69.4564C104.579 69.2111 104.755 68.9977 104.872 68.8164L106.744 70.4644Z" fill="#5F161E"/>
<path d="M88.12 69.168C88.0987 69.3173 88.0774 69.504 88.056 69.728C88.0347 69.9413 88.0187 70.1653 88.008 70.4C87.9974 70.624 87.9867 70.8373 87.976 71.04C87.9654 71.424 87.96 71.84 87.96 72.288C87.9707 72.736 87.976 73.1893 87.976 73.648C87.976 74.096 87.9867 74.624 88.008 75.232C88.04 75.8293 88.0774 76.448 88.12 77.088C88.1627 77.728 88.1947 78.3253 88.216 78.88C88.248 79.424 88.264 79.8666 88.264 80.208C88.264 80.56 88.2107 80.9013 88.104 81.232C87.9974 81.5626 87.816 81.856 87.56 82.112C87.304 82.3786 86.9574 82.5866 86.52 82.736C86.0827 82.896 85.528 82.976 84.856 82.976C84.0987 82.976 83.4 82.88 82.76 82.688C82.1307 82.5066 81.6294 82.2026 81.256 81.776C80.8827 81.3493 80.696 80.7733 80.696 80.048C80.696 79.4933 80.856 78.992 81.176 78.544C81.496 78.0853 81.976 77.7226 82.616 77.456C83.2667 77.1893 84.0827 77.056 85.064 77.056C85.896 77.056 86.7014 77.152 87.48 77.344C88.2694 77.536 89.0054 77.7866 89.688 78.096C90.3814 78.3946 91.0054 78.736 91.56 79.12C92.1254 79.4933 92.6107 79.872 93.016 80.256L91.784 82.16C91.3894 81.7653 90.936 81.3706 90.424 80.976C89.9227 80.5813 89.3734 80.224 88.776 79.904C88.1787 79.584 87.5387 79.328 86.856 79.136C86.184 78.9333 85.4854 78.832 84.76 78.832C84.1414 78.832 83.6507 78.9333 83.288 79.136C82.936 79.328 82.76 79.6 82.76 79.952C82.76 80.3466 82.9414 80.624 83.304 80.784C83.6667 80.944 84.1307 81.024 84.696 81.024C85.1974 81.024 85.5547 80.9066 85.768 80.672C85.9814 80.4266 86.088 80.0373 86.088 79.504C86.088 79.2266 86.0774 78.8426 86.056 78.352C86.0347 77.8506 86.0134 77.312 85.992 76.736C85.9707 76.1493 85.9494 75.584 85.928 75.04C85.9067 74.496 85.896 74.032 85.896 73.648C85.896 73.328 85.896 73.0133 85.896 72.704C85.896 72.3946 85.896 72.096 85.896 71.808C85.896 71.52 85.8907 71.264 85.88 71.04C85.8694 70.7733 85.8534 70.5226 85.832 70.288C85.8214 70.0533 85.8054 69.84 85.784 69.648C85.7734 69.456 85.7467 69.296 85.704 69.168H88.12ZM86.888 72.224C87.1227 72.224 87.4587 72.224 87.896 72.224C88.3334 72.2133 88.8134 72.1973 89.336 72.176C89.8694 72.1546 90.4027 72.128 90.936 72.096C91.48 72.0533 91.9814 72.0106 92.44 71.968L92.504 73.872C92.056 73.9146 91.56 73.952 91.016 73.984C90.472 74.016 89.9334 74.0426 89.4 74.064C88.8667 74.0746 88.376 74.0853 87.928 74.096C87.4907 74.1066 87.1494 74.112 86.904 74.112L86.888 72.224Z" fill="#5F161E"/>
<path d="M339.966 62.1907C337.986 56.9607 333.606 53.1107 327.956 52.0007C333.456 48.1007 335.106 42.1907 334.036 35.7607C333.456 31.9607 331.926 28.4806 329.506 25.4806C329.586 22.8706 328.986 16.5406 328.056 14.2706C327.466 12.8106 325.996 12.0806 324.486 12.5406C323.536 12.7606 322.716 13.2106 321.836 13.6406C319.776 14.6507 317.816 15.7806 316.006 17.2006C309.586 15.0106 302.806 14.3606 296.016 15.3306C294.586 13.7206 293.016 12.3307 291.306 11.0307C290.416 10.3506 289.586 9.67065 288.586 9.20065C287.626 8.76065 286.606 8.69065 285.696 9.23065L284.426 5.99065C285.486 5.70065 286.126 4.79065 286.016 3.83065C285.906 2.80065 285.166 2.10065 284.096 2.02065L257.986 0.0106493C257.256 -0.0493507 256.706 0.140649 256.236 0.670649L238.446 20.4406C237.756 21.2006 237.936 22.3006 238.516 22.9806C239.146 23.7306 240.166 23.8706 241.076 23.3706L248.926 43.0007C249.816 45.2107 252.406 45.8907 254.466 45.0707L269.176 39.1607L272.036 46.4007C271.196 47.2906 270.696 48.3107 270.386 49.4807C269.596 52.8607 271.046 56.4007 274.006 58.2006C275.536 59.1306 276.196 58.6507 277.156 59.3507L283.876 76.2106L282.666 79.1406C282.276 80.0807 283.496 80.4807 284.206 81.0807C283.066 83.4007 281.646 86.7607 281.806 89.4007C281.936 91.5306 283.276 93.2307 285.336 93.7506C286.776 94.1207 288.226 93.9407 289.656 93.3906C293.586 91.8606 296.666 88.7307 298.396 84.8807C298.846 84.5107 299.476 85.0207 300.026 84.2707C300.576 83.5207 301.066 82.7806 301.696 82.0006L302.256 84.6307C302.446 85.5007 303.666 85.4906 304.506 85.8606C303.546 88.4606 302.406 92.0407 304.456 94.3807C306.316 96.5007 309.296 96.3206 311.746 95.2307C316.016 93.3407 319.166 89.6406 320.546 85.2106C321.606 84.7506 322.656 84.4307 323.546 83.7707C323.866 83.3907 323.786 82.7406 323.906 82.2206C325.336 81.7206 326.616 80.9606 327.836 80.1106C328.036 80.0306 327.966 80.1806 327.866 80.2106C327.796 80.5406 327.676 80.8407 327.806 81.1207C327.886 81.2807 328.046 81.5407 328.366 81.5607C329.946 81.6107 331.416 81.0006 332.696 79.9706C332.916 80.1607 332.946 80.4407 333.076 80.7007C333.296 81.1107 333.806 81.2906 334.216 80.9807C340.016 76.5907 342.606 69.2007 339.966 62.2206V62.1907Z" fill="#601818"/>
<path d="M275.916 44.8106C274.636 42.7906 273.926 40.6407 273.736 38.3307C273.706 38.0006 273.636 37.7306 273.436 37.4506L270.576 38.6007L273.306 45.4407C274.176 44.9706 274.976 44.8307 275.916 44.8007V44.8106Z" fill="#E0BC7C"/>
<path d="M276.436 26.9306C276.076 27.1606 275.686 27.3707 275.226 27.5507C272.286 28.7007 269.456 27.4606 268.346 24.5906C267.246 21.7306 268.496 18.8806 271.446 17.7306C274.386 16.5906 277.226 17.8506 278.326 20.7006C278.806 21.9406 278.776 22.9406 278.616 23.7006C279.416 22.7206 280.286 21.8006 281.256 20.9806C281.706 18.4506 282.386 16.0807 283.236 13.6706C283.626 12.5506 283.986 11.5106 284.576 10.4606L282.986 6.56065L242.506 22.7906L250.206 42.2006C250.796 43.7006 252.486 44.2807 253.916 43.6306L273.706 35.7006C273.996 32.6106 274.946 29.6107 276.436 26.9207V26.9306ZM258.056 33.9807L256.236 34.6907L252.616 25.3007L257.576 23.3707L258.186 24.9506L255.046 26.1707L255.856 28.2706L258.796 27.1207L259.406 28.7006L256.466 29.8507L258.056 33.9907V33.9807ZM268.226 30.0307L266.636 28.3806L262.866 29.8507L262.796 32.1407L260.816 32.9107L261.216 21.9506L262.646 21.3906L270.176 29.2607L268.216 30.0206L268.226 30.0307Z" fill="#E0BC7C"/>
<path d="M272.086 19.3906C270.266 20.1006 269.496 21.9507 270.226 23.8507C270.956 25.7407 272.746 26.5907 274.626 25.8607C275.256 25.6107 275.626 25.3106 275.896 25.0107L273.276 23.8906L275.106 23.0007L276.616 23.6907C276.756 23.1807 276.856 22.4706 276.456 21.4207C275.726 19.5207 273.916 18.6707 272.086 19.3807V19.3906Z" fill="#E0BC7C"/>
<path d="M262.906 24.2306L262.876 28.1306L265.536 27.0906L262.906 24.2306Z" fill="#E0BC7C"/>
<path d="M284.506 3.91065C284.466 3.71065 284.326 3.57065 284.016 3.55065L257.526 1.49065L239.716 21.2807C239.516 21.5007 239.476 21.7007 239.606 21.9107C239.736 22.1107 239.906 22.2206 240.286 22.0707L284.226 4.46065C284.496 4.35065 284.556 4.11065 284.506 3.91065Z" fill="#F29800"/>
<path d="M276.346 30.7006C275.686 32.5606 275.246 34.3907 275.176 36.3707C274.856 43.0807 279.176 47.5807 284.846 50.3606C285.846 47.9106 287.886 47.1007 290.426 47.3606C288.836 45.5406 288.366 43.1707 289.296 40.9107C290.516 37.9407 292.706 35.3806 295.466 33.7906C299.586 31.4106 304.626 32.3906 307.596 36.1106C309.436 38.4106 310.576 41.2707 310.826 44.2507C310.986 46.2207 310.226 47.9807 308.726 49.3007C311.146 50.4706 311.666 52.5406 311.596 55.0307C319.976 54.7407 330.666 52.1207 332.536 42.5206C332.946 40.4907 332.916 38.5406 332.636 36.4907C332.106 32.6007 330.566 29.0707 328.026 26.0406C328.046 23.1606 327.806 20.4006 327.336 17.5606C327.176 16.6106 327.056 15.7106 326.676 14.8606C325.996 13.0406 323.686 14.4306 322.426 15.0506C320.436 16.0306 318.546 17.1206 316.816 18.5206C316.486 18.7906 316.196 18.8706 315.776 18.7206C309.376 16.4906 302.556 15.8706 295.856 16.8906C295.566 16.9306 295.316 16.8307 295.146 16.6306C293.736 14.9806 292.166 13.5706 290.436 12.2606C289.246 11.3606 286.976 9.29065 285.966 11.1006C285.466 11.8306 285.196 12.6406 284.886 13.4906C283.886 16.2206 283.126 18.9506 282.616 21.8006C279.696 24.2006 277.586 27.2006 276.346 30.7106V30.7006ZM319.646 18.9206C320.906 18.0806 322.276 17.6206 323.726 17.1706C323.976 17.0906 324.506 16.9106 324.646 17.2806C325.306 19.0906 325.446 21.0406 325.216 22.9406C325.086 24.0006 322.916 22.6806 322.506 22.4206C321.366 21.7006 320.396 20.8306 319.466 19.8506C319.326 19.7006 319.296 19.5406 319.316 19.3406C319.326 19.1806 319.466 19.0406 319.656 18.9206H319.646ZM317.236 26.7706C317.696 27.0406 317.966 27.5006 317.996 27.9406C318.096 29.6306 315.086 30.5306 313.116 29.4006C312.646 29.1306 312.356 28.6706 312.326 28.2106C312.206 26.5606 315.206 25.5706 317.246 26.7706H317.236ZM311.386 35.7906C312.746 35.3406 314.106 34.9907 315.526 34.7706C315.846 34.7206 316.076 34.9706 316.116 35.2107C316.166 35.5307 315.956 35.7807 315.616 35.8407C314.686 36.0107 313.796 36.1607 312.856 36.5007C313.706 37.0107 314.546 37.3907 315.466 37.7507C315.796 37.8807 315.876 38.1407 315.826 38.3907C315.766 38.6807 315.446 38.8807 315.116 38.7507C313.746 38.2507 312.486 37.5807 311.266 36.7906C311.056 36.6606 310.986 36.4507 311.006 36.2307C311.026 36.0507 311.146 35.8807 311.386 35.8007V35.7906ZM289.266 35.0206C288.326 35.2206 287.406 34.6507 287.166 33.7006C286.926 32.7506 287.476 31.7506 288.526 31.5306C289.546 31.3207 290.426 31.9807 290.626 32.8907C290.836 33.8607 290.206 34.8106 289.266 35.0107V35.0206ZM293.216 24.5906C293.546 24.9906 293.656 25.5306 293.496 26.0306C293.006 27.5006 289.866 27.4406 288.396 25.6006C288.056 25.1806 287.946 24.6506 288.126 24.1506C288.646 22.7106 291.736 22.7806 293.216 24.5906ZM287.146 13.8106C287.346 13.4806 287.816 13.7106 288.056 13.8406C288.576 14.1206 292.886 16.3506 291.866 17.1906C290.796 18.0706 289.606 18.7106 288.366 19.2406C287.856 19.4606 285.476 20.3506 285.566 19.1706C285.706 17.2806 286.186 15.4406 287.146 13.8206V13.8106Z" fill="#FFDA8F"/>
<path d="M324.216 22.1406C324.336 20.8006 324.186 19.5506 323.846 18.2706C322.736 18.6306 321.656 18.9306 320.656 19.5706C321.726 20.6206 322.826 21.5406 324.206 22.1406H324.216Z" fill="#F77272"/>
<path d="M287.766 14.9106C287.206 16.0707 286.796 17.3006 286.716 18.6406C288.236 18.2606 289.506 17.5906 290.646 16.7306C289.686 15.9006 288.776 15.4306 287.766 14.9007V14.9106Z" fill="#F77272"/>
<path d="M290.646 16.7306V16.7406H290.656L290.646 16.7306Z" fill="#F77272"/>
<path d="M313.546 28.6606C315.136 29.5506 317.256 28.7407 317.136 27.9606C317.116 27.8207 316.996 27.6206 316.816 27.5106C315.256 26.6206 313.166 27.3706 313.196 28.1306C313.196 28.3106 313.336 28.5406 313.556 28.6606H313.546Z" fill="#FFFEFE"/>
<path d="M288.936 24.4706C288.876 24.6806 288.916 24.9106 289.076 25.0906C290.306 26.5306 292.606 26.4106 292.696 25.6606C292.716 25.4706 292.656 25.2406 292.506 25.0806C291.276 23.7206 289.106 23.8306 288.926 24.4706H288.936Z" fill="#FFFEFE"/>
<path d="M309.766 44.2906C309.516 41.5306 308.456 38.8806 306.736 36.7406C304.026 33.3606 299.426 32.5806 295.736 34.8506C293.256 36.3806 291.296 38.7106 290.216 41.4306C288.846 44.9106 291.556 47.8006 294.716 48.9006C297.116 49.7306 299.586 50.1106 302.136 50.1606C303.756 49.0706 305.516 48.6706 307.356 48.9306C308.976 47.9606 309.926 46.2306 309.756 44.2906H309.766ZM303.566 40.6106C303.376 42.8806 303.336 45.7606 301.026 46.7906C299.976 47.2606 298.846 46.9606 298.086 46.1206C296.626 44.5106 297.026 41.9506 297.076 39.9706C296.566 39.4806 295.816 38.9506 295.746 38.1106C295.716 37.7706 295.786 37.4906 296.146 37.4306C297.056 37.2606 296.526 38.9606 298.186 39.1506C298.766 39.2206 299.646 38.7906 299.666 38.1606C299.356 37.7206 298.196 36.5106 298.636 35.9306C298.766 35.7606 298.996 35.7206 299.226 35.7706C299.856 35.9206 300.146 36.7406 300.536 36.8206C300.966 36.9106 301.976 35.7106 302.556 36.3506C303.146 37.0006 301.386 38.0606 301.006 38.3706C300.896 38.9606 301.646 39.5006 302.096 39.6206C303.886 40.1206 303.726 38.2006 304.656 38.6506C305.486 39.0506 304.196 40.3406 303.576 40.6006L303.566 40.6106Z" fill="white"/>
<path d="M300.176 39.4207C299.616 39.9807 298.976 40.2307 298.196 40.2107C297.996 41.7607 297.796 44.1707 298.896 45.4107C299.356 45.9207 300.036 46.1007 300.706 45.7706C301.336 45.4506 301.766 44.9007 301.966 44.2407C302.296 43.1106 302.466 41.9806 302.506 40.7906C301.506 40.7006 300.726 40.2307 300.176 39.4207Z" fill="#F77272"/>
<path d="M286.136 51.1906C285.716 52.5406 285.586 53.9806 285.696 55.4006C285.776 56.4906 286.466 57.3106 287.456 57.7206C290.256 58.8506 292.976 57.1006 295.306 55.6806C295.146 54.8406 295.306 54.1507 295.746 53.5006C294.236 51.1006 292.336 48.7806 289.256 48.8206C287.746 48.8406 286.586 49.7406 286.136 51.1906Z" fill="#F29800"/>
<path d="M279.776 52.5507C279.076 52.8207 276.236 53.4507 276.376 52.3007C276.416 52.0107 276.656 51.8207 277.006 51.8507C277.946 51.9506 278.876 51.8106 279.716 51.3907C279.676 50.9707 279.626 50.6707 279.516 50.3007C278.596 50.4807 277.696 50.6007 276.756 50.5507C276.416 50.5307 276.256 50.2407 276.286 49.9506C276.366 49.1406 278.046 49.7107 279.166 49.2607C278.826 48.3707 278.266 47.6007 277.536 47.0206C276.496 46.2006 275.166 46.1207 274.006 46.7807C273.156 47.2607 272.546 47.9907 272.156 48.9207C270.866 52.0507 272.276 55.7906 275.336 57.1806C276.816 57.8506 278.326 57.3107 279.036 55.9107C279.556 54.8807 279.776 53.7607 279.766 52.5606L279.776 52.5507Z" fill="#FFDA8F"/>
<path d="M300.856 56.5707C303.716 56.1007 307.066 55.5807 309.936 56.2407C310.276 53.9207 310.256 51.1707 307.496 50.4907C304.386 49.8207 302.146 51.7506 300.146 53.9007C300.956 55.6806 299.526 56.1407 300.856 56.5807V56.5707Z" fill="#F29800"/>
<path d="M280.886 64.2206C280.776 62.6406 281.216 61.0807 282.396 59.9407L280.726 55.8007C280.256 57.0507 279.546 57.9307 278.486 58.5507L280.776 64.4306C280.866 64.4007 280.886 64.3106 280.886 64.2206Z" fill="#E0BC7C"/>
<path d="M300.736 51.1806C298.996 51.0506 297.316 50.7407 295.566 50.3106C295.566 50.3106 295.566 50.3106 295.556 50.3106C295.486 50.3206 295.336 50.3107 295.366 50.4107C295.896 51.0907 296.426 51.7707 296.926 52.5907C297.686 52.4207 298.406 52.4207 299.116 52.8007L300.736 51.1806Z" fill="#FFDA8F"/>
<path d="M284.406 51.8606C284.156 51.7006 283.926 51.5406 283.626 51.4907C283.946 54.0406 283.946 56.4607 283.726 58.9907C284.366 58.6806 284.936 58.5006 285.566 58.3307C283.676 56.5906 284.126 54.0706 284.396 51.8606H284.406Z" fill="#FEFDFD"/>
<path d="M282.376 55.7206C282.416 54.0107 282.246 52.2906 281.986 50.5307C281.686 50.3207 281.436 50.1107 281.106 49.9807C281.096 50.0307 281.086 50.0707 281.076 50.1907C281.216 51.1207 281.346 52.0506 281.276 53.0406L282.376 55.7006V55.7206Z" fill="#FED98E"/>
<path d="M298.216 56.0807C298.796 55.8507 299.046 55.2206 298.846 54.6806C298.636 54.1206 298.006 53.7907 297.396 54.0507C296.776 54.3106 296.626 55.0107 296.806 55.4607C297.066 56.0907 297.696 56.2807 298.216 56.0807Z" fill="#6EB72B"/>
<path d="M294.246 58.2706L296.766 57.5007C296.546 57.2807 296.336 57.1707 296.056 57.0107L294.056 58.1707C294.106 58.2307 294.176 58.2507 294.246 58.2607V58.2706Z" fill="#FAF8F8"/>
<path d="M280.886 64.2206C280.946 64.3906 280.966 64.5206 280.776 64.4306C280.846 64.5006 280.856 64.5906 280.926 64.7506C281.026 64.6106 281.016 64.4007 280.876 64.2307L280.886 64.2206Z" fill="#92583F"/>
<path d="M280.886 64.2206C280.886 64.3007 280.866 64.4007 280.776 64.4306C280.966 64.5206 280.946 64.3906 280.886 64.2206Z" fill="#92583F"/>
<path d="M281.106 49.9907C281.026 49.8007 280.966 49.9706 280.976 50.0507C280.996 50.1407 280.976 50.2507 281.066 50.2107C280.996 50.1407 281.016 50.0307 281.096 50.0007L281.106 49.9907Z" fill="#D6A770"/>
<path d="M281.076 50.2006C281.086 50.0807 281.096 50.0307 281.106 49.9907C281.016 50.0206 281.006 50.1306 281.076 50.2006Z" fill="#D6A770"/>
<path d="M327.846 80.1006L327.876 80.2007C327.876 80.2007 327.896 80.1206 327.846 80.1006Z" fill="#27AEC5"/>
<path d="M327.846 80.1006C327.896 80.1206 327.896 80.1507 327.876 80.2007C327.976 80.1707 328.046 80.0206 327.846 80.1006Z" fill="#27AEC5"/>
<path d="M325.826 53.2706C324.216 54.1306 322.576 54.7006 320.786 55.2206C323.606 60.0307 325.226 65.3307 325.616 70.8606C325.666 71.2806 325.526 71.6007 325.176 71.7707L323.806 72.5406C324.246 75.1806 324.316 77.7807 324.116 80.4907C326.126 79.6707 327.796 78.2906 329.206 76.6507C329.476 76.3307 329.826 76.1806 330.206 76.3506C330.536 76.5006 330.716 76.9007 330.556 77.3407L329.666 79.8506C330.756 79.6006 331.676 78.9507 332.396 78.1207C332.606 77.8707 332.856 77.8007 333.186 77.8606C333.726 77.9606 333.756 78.7206 334.086 79.1307C339.236 74.6507 341.016 67.8606 338.056 61.5807C335.756 56.7506 331.136 53.6007 325.806 53.2807L325.826 53.2706Z" fill="#FFDA8F"/>
<path d="M319.266 55.6007L315.006 56.2906L312.576 58.3307C313.796 60.5807 313.976 63.2906 312.966 65.6507C311.956 68.0107 308.866 69.4507 306.596 70.3107C302.506 71.8407 298.216 72.1006 293.846 71.6006C292.016 71.3906 290.306 71.6406 288.536 71.1207C288.596 71.4706 288.626 71.8207 288.856 71.9507C300.136 77.2607 313.236 76.7406 324.106 70.6406C323.666 65.2806 322.056 60.1907 319.266 55.5907V55.6007Z" fill="#6EB82B"/>
<path d="M289.596 73.9507L292.546 81.4507C292.766 81.9307 292.786 82.3907 292.816 82.9207C294.846 83.3207 296.826 83.3906 298.906 83.2106L301.606 79.5006C301.826 79.1907 302.176 79.0907 302.496 79.2007C302.816 79.3007 302.966 79.6107 302.996 79.9907C303.106 81.3607 303.386 82.6507 303.696 83.9807C309.826 86.1307 316.496 85.7007 322.316 82.7707C322.846 79.6207 322.916 76.4007 322.396 73.2307C311.996 78.1407 300.216 78.4107 289.606 73.9507H289.596Z" fill="#F29800"/>
<path d="M311.226 59.0406C310.776 58.2706 310.126 57.7607 309.246 57.6407C308.216 57.3807 307.226 57.4706 306.136 57.4407C302.296 57.6707 298.576 58.4306 294.906 59.6707C297.286 62.8007 297.516 66.8606 295.626 70.2607C299.646 70.6106 303.566 70.0006 307.196 68.4706C308.336 67.9807 309.346 67.4306 310.336 66.6406C312.566 64.8806 312.536 61.2907 311.226 59.0507V59.0406Z" fill="white"/>
<path d="M282.426 64.3206C282.536 65.2307 282.906 65.9907 283.426 66.7007C284.476 68.0707 285.906 68.9407 287.586 69.4007C289.686 69.9807 291.816 70.1406 294.006 70.0306C296.086 66.9407 295.836 62.8806 293.306 60.1106C290.636 60.1106 287.906 59.1707 285.386 59.9506C284.626 60.1907 283.916 60.5107 283.386 61.1207C284.116 61.5507 285.546 61.0707 285.416 62.0007C285.286 62.9307 283.416 62.2307 282.736 62.0807C282.576 62.3406 282.356 62.7607 282.486 63.0307C283.446 64.0307 284.736 63.2007 284.816 64.0907C284.906 65.0807 283.026 64.5906 282.426 64.3206Z" fill="#FFDA8F"/>
<path d="M306.006 86.2106C305.296 88.1006 304.226 90.9706 305.246 92.8407C305.606 92.2206 306.506 90.4407 307.236 91.0507C307.416 91.2007 307.486 91.5807 307.286 91.7806C306.726 92.3506 306.276 92.9906 306.086 93.7806C306.366 94.0206 306.686 94.1907 307.036 94.2506C307.256 93.5507 308.686 91.2806 309.296 92.3206C309.676 92.9706 308.416 93.3407 308.126 94.4706C309.226 94.5507 310.216 94.2106 311.256 93.7906C314.666 92.2206 317.336 89.3807 318.736 85.8007C314.486 87.0207 310.216 87.1406 306.006 86.2106Z" fill="#FFDA8F"/>
<path d="M289.516 85.7106C288.496 85.6406 287.516 85.0306 287.016 84.0406C286.446 82.9007 286.576 82.0707 285.476 81.9207C284.446 84.0807 282.436 88.5306 283.726 90.7806C284.126 90.0606 284.476 89.4007 285.096 88.9407C285.336 88.7707 285.706 88.9106 285.816 89.1006C285.926 89.3206 285.916 89.5807 285.726 89.7806C285.176 90.3307 284.756 90.9706 284.566 91.7206C284.856 91.9507 285.136 92.1107 285.516 92.2007C285.676 91.6007 287.186 89.2307 287.766 90.2307C288.196 90.9706 286.886 91.2507 286.636 92.4207C287.646 92.4507 288.496 92.2407 289.376 91.8707C292.606 90.5207 295.196 88.0006 296.746 84.8206C295.186 84.7806 293.786 84.6507 292.306 84.3506C291.626 85.2906 290.636 85.7906 289.516 85.7106Z" fill="#FFDA8F"/>
<path d="M290.256 84.1307C291.046 83.8507 291.536 82.9507 291.186 82.0907L286.666 70.6907C284.926 70.1106 283.406 69.1306 282.326 67.7106C282.276 67.7406 282.236 67.7806 282.196 67.8206L288.266 83.2007C288.606 84.0406 289.466 84.4106 290.256 84.1406V84.1307Z" fill="#E0BC7C"/>
<path d="M284.286 79.2607C284.636 79.5306 284.956 79.8007 285.336 79.9207C285.136 79.2507 284.946 78.8307 284.716 78.3206C284.476 78.6306 284.406 78.9206 284.296 79.2506L284.286 79.2607Z" fill="#EC9301"/>
<path d="M311.476 56.5606C311.336 56.7807 311.376 56.9907 311.626 57.1407C311.896 56.9607 312.116 56.8207 312.316 56.5307C312.016 56.4706 311.766 56.4907 311.476 56.5606Z" fill="#F7F3F3"/>
<path d="M293.646 58.4706C293.866 58.5206 294.016 58.3406 294.246 58.2706C294.046 58.3206 293.976 58.2906 294.056 58.1806C293.906 58.2407 293.766 58.3307 293.566 58.3806L293.646 58.4706Z" fill="#D0BBBB"/>
<path d="M294.246 58.2706C294.176 58.2607 294.106 58.2306 294.056 58.1806C293.986 58.3006 294.056 58.3307 294.246 58.2706Z" fill="#D0BBBB"/>
<path d="M282.326 67.7007C282.246 67.6007 282.166 67.5107 282.106 67.4007H282.006C281.986 67.5706 282.146 67.6907 282.196 67.8206C282.106 67.6406 282.166 67.5906 282.326 67.7106V67.7007Z" fill="#B5855A"/>
<path d="M282.326 67.7007C282.166 67.5807 282.106 67.6307 282.196 67.8107C282.236 67.7707 282.276 67.7307 282.326 67.7007Z" fill="#B5855A"/>
<path d="M293.556 58.3806C293.506 58.3906 293.456 58.4107 293.416 58.4407C293.336 58.4907 293.296 58.5406 293.366 58.6007C293.496 58.7107 293.576 58.4607 293.636 58.4706C293.486 58.5507 293.456 58.5307 293.556 58.3806Z" fill="#B69595"/>
<path d="M293.566 58.3806L293.646 58.4706C293.496 58.5507 293.466 58.5307 293.566 58.3806Z" fill="#B69595"/>
<path d="M282.106 67.3906C282.116 67.3307 282.076 67.3106 282.056 67.2906C282.016 67.2307 281.936 67.1507 281.896 67.2407C281.846 67.3707 281.966 67.3707 281.996 67.3906C282.026 67.3206 282.056 67.3206 282.096 67.3906H282.106Z" fill="#894D38"/>
<path d="M282.006 67.3906H282.106C282.066 67.3206 282.036 67.3206 282.006 67.3906Z" fill="#894D38"/>
<path d="M288.526 31.5306C287.476 31.7506 286.926 32.7506 287.166 33.7006C287.406 34.6507 288.326 35.2206 289.266 35.0206C290.206 34.8206 290.826 33.8707 290.626 32.9007C290.436 31.9907 289.546 31.3307 288.526 31.5406V31.5306Z" fill="#601818"/>
<path d="M315.116 38.7406C315.446 38.8606 315.766 38.6706 315.826 38.3806C315.876 38.1306 315.796 37.8706 315.466 37.7406C314.536 37.3806 313.706 37.0006 312.856 36.4906C313.796 36.1606 314.686 36.0106 315.616 35.8306C315.956 35.7706 316.166 35.5206 316.116 35.2006C316.076 34.9606 315.846 34.7106 315.526 34.7606C314.106 34.9806 312.746 35.3306 311.386 35.7806C311.146 35.8606 311.026 36.0306 311.006 36.2106C310.976 36.4306 311.056 36.6306 311.266 36.7706C312.486 37.5606 313.746 38.2306 315.116 38.7306V38.7406Z" fill="#601818"/>
<path d="M322.496 22.4307C322.906 22.6907 325.086 24.0207 325.206 22.9507C325.436 21.0407 325.296 19.0907 324.636 17.2907C324.496 16.9207 323.976 17.1007 323.716 17.1807C322.266 17.6307 320.896 18.0907 319.636 18.9307C319.456 19.0507 319.316 19.2007 319.296 19.3507C319.276 19.5407 319.306 19.7107 319.446 19.8607C320.366 20.8407 321.346 21.7107 322.486 22.4307H322.496ZM323.856 18.2607C324.196 19.5407 324.346 20.7907 324.226 22.1307C322.846 21.5307 321.746 20.6106 320.676 19.5606C321.676 18.9207 322.756 18.6207 323.866 18.2607H323.856Z" fill="#601818"/>
<path d="M288.366 19.2306C289.606 18.7006 290.796 18.0606 291.866 17.1806C292.886 16.3406 288.566 14.1106 288.056 13.8406C287.816 13.7106 287.346 13.4806 287.146 13.8106C286.186 15.4406 285.706 17.2806 285.566 19.1606C285.476 20.3406 287.856 19.4406 288.366 19.2306ZM287.766 14.9106C288.776 15.4306 289.686 15.9106 290.646 16.7406C289.506 17.6006 288.236 18.2606 286.716 18.6506C286.796 17.3106 287.206 16.0707 287.766 14.9206V14.9106Z" fill="#601818"/>
<path d="M313.116 29.4006C315.086 30.5306 318.096 29.6306 317.996 27.9406C317.966 27.5006 317.696 27.0406 317.236 26.7706C315.196 25.5806 312.196 26.5606 312.316 28.2106C312.346 28.6706 312.646 29.1306 313.106 29.4006H313.116ZM316.806 27.5106C316.986 27.6106 317.106 27.8207 317.126 27.9606C317.246 28.7407 315.136 29.5506 313.536 28.6606C313.316 28.5406 313.186 28.3106 313.176 28.1306C313.146 27.3706 315.236 26.6206 316.796 27.5106H316.806Z" fill="#601818"/>
<path d="M288.126 24.1506C287.946 24.6506 288.056 25.1706 288.396 25.6006C289.866 27.4306 293.006 27.4907 293.496 26.0306C293.666 25.5406 293.546 24.9906 293.216 24.5906C291.726 22.7806 288.646 22.7106 288.126 24.1506ZM292.696 25.6606C292.606 26.4106 290.306 26.5206 289.076 25.0906C288.916 24.9006 288.876 24.6806 288.936 24.4706C289.116 23.8306 291.286 23.7206 292.516 25.0806C292.666 25.2406 292.726 25.4706 292.706 25.6606H292.696Z" fill="#601818"/>
<path d="M304.646 38.6607C303.716 38.2107 303.876 40.1306 302.086 39.6306C301.636 39.5006 300.886 38.9706 300.996 38.3806C301.376 38.0706 303.126 37.0107 302.546 36.3606C301.956 35.7106 300.956 36.9207 300.526 36.8307C300.136 36.7506 299.846 35.9207 299.216 35.7807C298.986 35.7307 298.756 35.7607 298.626 35.9407C298.196 36.5207 299.356 37.7307 299.656 38.1707C299.636 38.7906 298.756 39.2207 298.176 39.1607C296.516 38.9707 297.046 37.2707 296.136 37.4407C295.786 37.5107 295.716 37.7906 295.736 38.1207C295.806 38.9607 296.556 39.4907 297.066 39.9807C297.016 41.9607 296.616 44.5107 298.076 46.1306C298.836 46.9706 299.966 47.2707 301.016 46.8007C303.326 45.7707 303.366 42.9007 303.556 40.6306C304.176 40.3707 305.476 39.0807 304.636 38.6806L304.646 38.6607ZM301.956 44.2407C301.766 44.9007 301.336 45.4506 300.696 45.7706C300.026 46.1106 299.346 45.9207 298.886 45.4107C297.786 44.1707 297.996 41.7607 298.186 40.2107C298.976 40.2307 299.606 39.9807 300.166 39.4207C300.716 40.2307 301.486 40.7006 302.496 40.7906C302.456 41.9806 302.286 43.1106 301.956 44.2407Z" fill="#601818"/>
<path d="M258.796 27.1207L255.856 28.2606L255.046 26.1606L258.186 24.9406L257.576 23.3707L252.616 25.3007L256.236 34.6907L258.056 33.9807L256.466 29.8406L259.406 28.6906L258.796 27.1207Z" fill="#601818"/>
<path d="M261.236 21.9506L260.836 32.9107L262.816 32.1407L262.886 29.8506L266.656 28.3806L268.246 30.0306L270.206 29.2706L262.676 21.4006L261.246 21.9606L261.236 21.9506ZM262.906 24.2306L265.536 27.0906L262.876 28.1206L262.906 24.2206V24.2306Z" fill="#601818"/>
</svg>
