<svg width="179" height="34" viewBox="0 0 179 34" fill="none" xmlns="http://www.w3.org/2000/svg">
<path d="M1.69199 27.7561C27.052 16.6061 56.082 15.2661 83.362 17.0061C90.112 17.5361 97.452 18.1761 103.052 22.4761C103.582 22.9161 104.072 23.3161 104.372 24.0661C104.792 25.0661 104.272 26.3561 103.252 26.8261C102.712 27.1261 102.052 27.2261 101.582 27.4161C101.542 27.4361 101.542 27.4361 101.582 27.3961C101.632 27.3561 101.742 27.2361 101.822 27.0561C101.922 26.8261 101.912 26.6061 101.872 26.4961C102.092 26.9661 102.582 27.4361 103.022 27.8861L101.322 27.4761C126.222 20.7461 152.292 19.3661 177.932 20.6161C178.412 20.6461 178.782 21.0561 178.762 21.5361C178.742 22.0161 178.332 22.3761 177.862 22.3661C158.752 21.8361 139.572 22.9061 120.782 26.4061C114.542 27.5761 108.352 29.0361 102.302 30.8561C100.902 31.2561 100.092 29.9261 99.242 28.9761C97.462 26.7461 98.372 24.4461 101.062 23.7661L101.422 23.6461C101.512 23.6161 101.582 23.5861 101.542 23.5961C101.502 23.6161 101.462 23.6361 101.322 23.7561C100.952 24.0761 100.762 24.7261 100.902 25.2161C100.912 25.3361 101.052 25.5761 101.072 25.5961C101.102 25.6461 101.072 25.6061 101.032 25.5661C95.932 21.7461 89.292 21.4961 83.112 21.0961C56.752 19.9661 28.392 21.7961 4.20199 33.0161C2.75199 33.7261 0.991991 33.1261 0.291991 31.6761C-0.418009 30.2061 0.211991 28.4361 1.69199 27.7561Z" fill="#FFFDE9"/>
<path d="M137.864 11.496H154.064V14.304H137.864V11.496ZM137.864 18.408H154.04V21.24H137.864V18.408ZM136.424 4.56H155.672V22.512H152.648V7.464H139.304V22.536H136.424V4.56ZM144.392 0H147.368V19.896H144.392V0Z" fill="#571C1C"/>
<path d="M122.336 7.72806V9.76806H129.584V7.72806H122.336ZM122.336 3.43206V5.44806H129.584V3.43206H122.336ZM119.72 1.00806H132.344V12.2161H119.72V1.00806ZM119.576 14.2801H132.584V16.8721H119.576V14.2801ZM117.896 19.1521H133.4V21.7681H117.896V19.1521ZM110.864 1.36806H118.832V4.03206H110.864V1.36806ZM111.08 8.28006H118.424V10.9201H111.08V8.28006ZM110.576 17.4001C111.28 17.2081 112.064 16.9921 112.928 16.7521C113.808 16.4961 114.736 16.2161 115.712 15.9121C116.688 15.5921 117.648 15.2801 118.592 14.9761L119.096 17.7121C117.752 18.1601 116.392 18.6161 115.016 19.0801C113.64 19.5441 112.376 19.9601 111.224 20.3281L110.576 17.4001ZM113.504 2.42406H116.264V17.1601L113.504 17.6161V2.42406ZM124.808 2.04006H127.232V11.0641H127.496V20.3761H124.544V11.0641H124.808V2.04006Z" fill="#571C1C"/>
<path d="M91.2801 2.08803C91.6161 2.13603 91.9761 2.16803 92.3601 2.18403C92.7441 2.20003 93.1121 2.20803 93.4641 2.20803C93.7201 2.20803 94.1041 2.20803 94.6161 2.20803C95.1281 2.19203 95.7041 2.17603 96.3441 2.16003C97.0001 2.14403 97.6481 2.12803 98.2881 2.11203C98.9281 2.09603 99.5041 2.08003 100.016 2.06403C100.544 2.03203 100.952 2.00803 101.24 1.99203C101.736 1.94403 102.128 1.90403 102.416 1.87203C102.704 1.82403 102.92 1.77603 103.064 1.72803L104.624 3.86403C104.352 4.04003 104.072 4.21603 103.784 4.39203C103.496 4.56803 103.216 4.76003 102.944 4.96803C102.624 5.19203 102.24 5.48803 101.792 5.85603C101.344 6.20803 100.864 6.58403 100.352 6.98403C99.8561 7.38403 99.3681 7.77603 98.8881 8.16003C98.4241 8.54403 98.0001 8.88803 97.6161 9.19203C98.0161 9.09603 98.4001 9.03203 98.7681 9.00003C99.1361 8.95203 99.5121 8.92803 99.8961 8.92803C101.256 8.92803 102.472 9.19203 103.544 9.72003C104.632 10.248 105.488 10.968 106.112 11.88C106.752 12.776 107.072 13.808 107.072 14.976C107.072 16.24 106.752 17.384 106.112 18.408C105.472 19.432 104.504 20.248 103.208 20.856C101.928 21.464 100.32 21.768 98.3841 21.768C97.2801 21.768 96.2801 21.608 95.3841 21.288C94.5041 20.968 93.8081 20.512 93.2961 19.92C92.7841 19.328 92.5281 18.632 92.5281 17.832C92.5281 17.176 92.7041 16.568 93.0561 16.008C93.4241 15.432 93.9281 14.968 94.5681 14.616C95.2241 14.264 95.9761 14.088 96.8241 14.088C97.9281 14.088 98.8561 14.312 99.6081 14.76C100.376 15.192 100.96 15.776 101.36 16.512C101.776 17.248 101.992 18.056 102.008 18.936L99.2001 19.32C99.1841 18.44 98.9601 17.736 98.5281 17.208C98.1121 16.664 97.5521 16.392 96.8481 16.392C96.4001 16.392 96.0401 16.512 95.7681 16.752C95.4961 16.976 95.3601 17.24 95.3601 17.544C95.3601 17.992 95.5841 18.352 96.0321 18.624C96.4801 18.896 97.0641 19.032 97.7841 19.032C99.1441 19.032 100.28 18.872 101.192 18.552C102.104 18.216 102.784 17.744 103.232 17.136C103.696 16.512 103.928 15.776 103.928 14.928C103.928 14.208 103.704 13.576 103.256 13.032C102.824 12.488 102.232 12.064 101.48 11.76C100.728 11.456 99.8801 11.304 98.9361 11.304C98.0081 11.304 97.1601 11.424 96.3921 11.664C95.6241 11.888 94.8961 12.216 94.2081 12.648C93.5361 13.064 92.8721 13.576 92.2161 14.184C91.5761 14.776 90.9361 15.44 90.2961 16.176L88.1121 13.92C88.5441 13.568 89.0321 13.176 89.5761 12.744C90.1201 12.296 90.6721 11.832 91.2321 11.352C91.8081 10.872 92.3441 10.424 92.8401 10.008C93.3521 9.57603 93.7841 9.21603 94.1361 8.92803C94.4721 8.65603 94.8641 8.33603 95.3121 7.96803C95.7601 7.60003 96.2241 7.22403 96.7041 6.84003C97.1841 6.44003 97.6401 6.06403 98.0721 5.71203C98.5041 5.34403 98.8641 5.03203 99.1521 4.77603C98.9121 4.77603 98.6001 4.78403 98.2161 4.80003C97.8321 4.81603 97.4081 4.83203 96.9441 4.84803C96.4961 4.86403 96.0401 4.88003 95.5761 4.89603C95.1281 4.91203 94.7041 4.93603 94.3041 4.96803C93.9201 4.98403 93.6001 5.00003 93.3441 5.01603C93.0241 5.03203 92.6881 5.05603 92.3361 5.08803C91.9841 5.12003 91.6641 5.16003 91.3761 5.20803L91.2801 2.08803Z" fill="#571C1C"/>
<path d="M85.3999 19.1279C84.8399 19.6399 84.1919 20.0639 83.4559 20.3999C82.7199 20.7359 81.8639 20.9039 80.8879 20.9039C79.9919 20.9039 79.2639 20.5919 78.7039 19.9679C78.1599 19.3439 77.8879 18.4479 77.8879 17.2799C77.8879 16.6399 77.9279 15.9519 78.0079 15.2159C78.1039 14.4639 78.2079 13.7119 78.3199 12.9599C78.4319 12.2079 78.5279 11.4959 78.6079 10.8239C78.7039 10.1359 78.7519 9.51987 78.7519 8.97587C78.7519 8.38387 78.6079 7.94387 78.3199 7.65587C78.0319 7.35187 77.6319 7.19987 77.1199 7.19987C76.5599 7.19987 75.9359 7.39987 75.2479 7.79987C74.5599 8.18387 73.8559 8.67987 73.1359 9.28787C72.4159 9.89587 71.7279 10.5439 71.0719 11.2319C70.4319 11.9199 69.8719 12.5759 69.3919 13.1999L69.3679 9.50387C69.6559 9.18387 70.0319 8.80787 70.4959 8.37587C70.9759 7.94387 71.5119 7.49587 72.1039 7.03187C72.7119 6.56787 73.3439 6.13587 73.9999 5.73587C74.6719 5.31987 75.3439 4.98387 76.0159 4.72787C76.7039 4.47187 77.3679 4.34387 78.0079 4.34387C78.8719 4.34387 79.5759 4.50387 80.1199 4.82387C80.6799 5.12787 81.0959 5.55187 81.3679 6.09587C81.6399 6.62387 81.7759 7.22387 81.7759 7.89587C81.7759 8.51987 81.7359 9.19987 81.6559 9.93587C81.5759 10.6559 81.4799 11.3919 81.3679 12.1439C81.2559 12.8959 81.1599 13.6399 81.0799 14.3759C81.0159 15.1119 80.9839 15.7839 80.9839 16.3919C80.9839 16.7119 81.0639 16.9759 81.2239 17.1839C81.3839 17.3759 81.6079 17.4719 81.8959 17.4719C82.3439 17.4719 82.8399 17.3279 83.3839 17.0399C83.9279 16.7359 84.4719 16.3039 85.0159 15.7439L85.3999 19.1279ZM68.8159 7.67987C68.5599 7.71187 68.2319 7.75187 67.8319 7.79987C67.4319 7.84787 66.9999 7.90387 66.5359 7.96787C66.0879 8.03187 65.6319 8.09587 65.1679 8.15987C64.7039 8.22387 64.2719 8.27987 63.8719 8.32787L63.5599 5.25587C63.9119 5.27187 64.2399 5.27987 64.5439 5.27987C64.8639 5.26387 65.2319 5.24787 65.6479 5.23187C66.0319 5.19987 66.4879 5.15987 67.0159 5.11187C67.5599 5.04787 68.1039 4.97587 68.6479 4.89587C69.2079 4.81587 69.7279 4.72787 70.2079 4.63187C70.6879 4.53587 71.0639 4.43987 71.3359 4.34387L72.2959 5.56787C72.1519 5.75987 71.9839 5.99987 71.7919 6.28787C71.6159 6.57587 71.4319 6.87187 71.2399 7.17587C71.0479 7.46387 70.8799 7.71987 70.7359 7.94387L69.3199 12.4559C69.0639 12.8239 68.7439 13.2879 68.3599 13.8479C67.9919 14.4079 67.5999 14.9999 67.1839 15.6239C66.7679 16.2479 66.3599 16.8479 65.9599 17.4239C65.5599 17.9999 65.1999 18.5039 64.8799 18.9359L62.9839 16.3199C63.2879 15.9359 63.6319 15.4959 64.0159 14.9999C64.4159 14.4879 64.8319 13.9519 65.2639 13.3919C65.6959 12.8159 66.1199 12.2479 66.5359 11.6879C66.9519 11.1119 67.3359 10.5759 67.6879 10.0799C68.0559 9.56787 68.3599 9.12787 68.5999 8.75987L68.6479 8.13587L68.8159 7.67987ZM68.5279 3.07187C68.5279 2.71987 68.5279 2.36787 68.5279 2.01587C68.5279 1.64787 68.4959 1.27987 68.4319 0.911865L71.9359 1.03187C71.8399 1.39987 71.7359 1.93587 71.6239 2.63987C71.5279 3.32787 71.4239 4.11987 71.3119 5.01587C71.2159 5.91187 71.1199 6.85587 71.0239 7.84787C70.9439 8.82387 70.8719 9.79987 70.8079 10.7759C70.7599 11.7519 70.7359 12.6639 70.7359 13.5119C70.7359 14.1679 70.7359 14.8319 70.7359 15.5039C70.7519 16.1759 70.7679 16.8639 70.7839 17.5679C70.7999 18.2719 70.8319 18.9999 70.8799 19.7519C70.8959 19.9599 70.9199 20.2479 70.9519 20.6159C70.9839 20.9999 71.0159 21.3279 71.0479 21.5999H67.7359C67.7679 21.3119 67.7839 20.9919 67.7839 20.6399C67.7999 20.2879 67.8079 20.0159 67.8079 19.8239C67.8239 19.0399 67.8399 18.3119 67.8559 17.6399C67.8719 16.9679 67.8799 16.2559 67.8799 15.5039C67.8959 14.7519 67.9199 13.8799 67.9519 12.8879C67.9679 12.5199 67.9919 12.0559 68.0239 11.4959C68.0559 10.9199 68.0879 10.2959 68.1199 9.62387C68.1679 8.93587 68.2159 8.23987 68.2639 7.53587C68.3119 6.83187 68.3519 6.17587 68.3839 5.56787C68.4319 4.94387 68.4639 4.41587 68.4799 3.98387C68.5119 3.53587 68.5279 3.23187 68.5279 3.07187Z" fill="#571C1C"/>
<path d="M46.712 5.92804C47.4 5.99204 48.088 6.04004 48.776 6.07204C49.48 6.10404 50.192 6.12004 50.912 6.12004C52.384 6.12004 53.848 6.05604 55.304 5.92804C56.76 5.80004 58.112 5.61604 59.36 5.37604V8.32804C58.096 8.52004 56.736 8.66404 55.28 8.76004C53.824 8.85604 52.368 8.91204 50.912 8.92804C50.208 8.92804 49.512 8.92004 48.824 8.90404C48.136 8.87204 47.44 8.83204 46.736 8.78404L46.712 5.92804ZM55.832 1.87204C55.8 2.09604 55.768 2.34404 55.736 2.61604C55.72 2.88804 55.704 3.15204 55.688 3.40804C55.672 3.66404 55.656 4.01604 55.64 4.46404C55.624 4.89604 55.608 5.38404 55.592 5.92804C55.592 6.45604 55.592 7.00804 55.592 7.58404C55.592 8.68804 55.608 9.71204 55.64 10.656C55.688 11.6 55.736 12.48 55.784 13.296C55.848 14.096 55.896 14.84 55.928 15.528C55.96 16.2 55.976 16.824 55.976 17.4C55.976 18.024 55.888 18.608 55.712 19.152C55.552 19.68 55.288 20.136 54.92 20.52C54.552 20.92 54.064 21.224 53.456 21.432C52.864 21.656 52.136 21.768 51.272 21.768C49.608 21.768 48.296 21.432 47.336 20.76C46.376 20.088 45.896 19.12 45.896 17.856C45.896 17.04 46.112 16.32 46.544 15.696C46.992 15.072 47.608 14.592 48.392 14.256C49.192 13.904 50.136 13.728 51.224 13.728C52.36 13.728 53.392 13.856 54.32 14.112C55.248 14.352 56.088 14.672 56.84 15.072C57.608 15.472 58.296 15.904 58.904 16.368C59.512 16.832 60.048 17.28 60.512 17.712L58.904 20.232C57.976 19.368 57.072 18.624 56.192 18C55.328 17.376 54.472 16.896 53.624 16.56C52.776 16.224 51.896 16.056 50.984 16.056C50.312 16.056 49.76 16.192 49.328 16.464C48.912 16.72 48.704 17.072 48.704 17.52C48.704 18.016 48.92 18.376 49.352 18.6C49.784 18.824 50.312 18.936 50.936 18.936C51.432 18.936 51.824 18.848 52.112 18.672C52.4 18.496 52.608 18.248 52.736 17.928C52.864 17.608 52.928 17.216 52.928 16.752C52.928 16.336 52.912 15.792 52.88 15.12C52.848 14.432 52.808 13.68 52.76 12.864C52.712 12.032 52.672 11.168 52.64 10.272C52.608 9.36004 52.592 8.47204 52.592 7.60804C52.592 6.69604 52.592 5.86404 52.592 5.11204C52.592 4.36004 52.584 3.80804 52.568 3.45604C52.568 3.26404 52.552 3.01604 52.52 2.71204C52.488 2.39204 52.448 2.11204 52.4 1.87204H55.832ZM44.12 2.11204C44.072 2.27204 44.008 2.49604 43.928 2.78404C43.848 3.07204 43.768 3.36004 43.688 3.64804C43.624 3.92004 43.576 4.12804 43.544 4.27204C43.464 4.59204 43.376 5.04004 43.28 5.61604C43.2 6.19204 43.104 6.84004 42.992 7.56004C42.88 8.26404 42.784 8.98404 42.704 9.72004C42.624 10.456 42.552 11.16 42.488 11.832C42.44 12.504 42.416 13.08 42.416 13.56C42.416 13.784 42.424 14.04 42.44 14.328C42.456 14.616 42.48 14.88 42.512 15.12C42.624 14.832 42.736 14.552 42.848 14.28C42.976 14.008 43.096 13.736 43.208 13.464C43.336 13.192 43.456 12.928 43.568 12.672L45.056 13.824C44.848 14.48 44.624 15.168 44.384 15.888C44.144 16.608 43.928 17.296 43.736 17.952C43.56 18.592 43.424 19.128 43.328 19.56C43.296 19.72 43.264 19.912 43.232 20.136C43.2 20.36 43.192 20.536 43.208 20.664C43.208 20.792 43.208 20.944 43.208 21.12C43.208 21.312 43.216 21.496 43.232 21.672L40.544 21.864C40.288 21.032 40.064 19.952 39.872 18.624C39.68 17.296 39.584 15.824 39.584 14.208C39.584 13.296 39.624 12.352 39.704 11.376C39.784 10.4 39.88 9.45604 39.992 8.54404C40.104 7.61604 40.208 6.77604 40.304 6.02404C40.416 5.27204 40.504 4.66404 40.568 4.20004C40.616 3.86404 40.664 3.48004 40.712 3.04804C40.76 2.61604 40.792 2.21604 40.808 1.84804L44.12 2.11204ZM57.8 0.912043C57.96 1.21604 58.112 1.56804 58.256 1.96804C58.416 2.35204 58.568 2.74404 58.712 3.14404C58.856 3.52804 58.976 3.87204 59.072 4.17604L57.392 4.72804C57.28 4.37604 57.152 4.00804 57.008 3.62404C56.88 3.24004 56.744 2.85604 56.6 2.47204C56.472 2.08804 56.328 1.73604 56.168 1.41604L57.8 0.912043ZM60.272 0.144043C60.432 0.448043 60.592 0.800043 60.752 1.20004C60.912 1.58404 61.064 1.96804 61.208 2.35204C61.368 2.73604 61.496 3.08804 61.592 3.40804L59.936 3.93604C59.76 3.42404 59.56 2.87204 59.336 2.28004C59.112 1.67204 58.88 1.12804 58.64 0.648044L60.272 0.144043Z" fill="#571C1C"/>
<path d="M20.0721 9.336V18.192H17.3841V12H14.8881V9.336H20.0721ZM20.0721 17.064C20.5361 17.88 21.2001 18.48 22.0641 18.864C22.9441 19.248 24.0001 19.464 25.2321 19.512C25.9841 19.544 26.8801 19.568 27.9201 19.584C28.9601 19.584 30.0561 19.576 31.2081 19.56C32.3601 19.544 33.4801 19.52 34.5681 19.488C35.6721 19.44 36.6481 19.376 37.4961 19.296C37.4001 19.52 37.2881 19.792 37.1601 20.112C37.0481 20.416 36.9441 20.736 36.8481 21.072C36.7521 21.424 36.6801 21.736 36.6321 22.008C35.8641 22.04 34.9841 22.064 33.9921 22.08C33.0001 22.112 31.9681 22.128 30.8961 22.128C29.8401 22.144 28.8241 22.144 27.8481 22.128C26.8721 22.112 26.0001 22.088 25.2321 22.056C23.7761 21.992 22.5361 21.76 21.5121 21.36C20.5041 20.96 19.6321 20.288 18.8961 19.344C18.4481 19.824 17.9761 20.304 17.4801 20.784C17.0001 21.264 16.4721 21.768 15.8961 22.296L14.5281 19.56C15.0241 19.208 15.5441 18.816 16.0881 18.384C16.6321 17.952 17.1521 17.512 17.6481 17.064H20.0721ZM14.7201 1.968L17.0001 0.552002C17.4321 0.920002 17.8641 1.344 18.2961 1.824C18.7441 2.288 19.1521 2.752 19.5201 3.216C19.8881 3.68 20.1761 4.112 20.3841 4.512L17.9361 6.12C17.7601 5.736 17.4961 5.304 17.1441 4.824C16.7921 4.328 16.4001 3.832 15.9681 3.336C15.5521 2.84 15.1361 2.384 14.7201 1.968ZM21.5121 9.816H36.2481V11.904H21.5121V9.816ZM20.8161 13.512H36.9921V15.624H20.8161V13.512ZM24.7281 8.52H27.4161V14.544H24.7281V8.52ZM30.2001 8.52H32.9361V14.544H30.2001V8.52ZM22.1841 3.528H25.6881V2.544H21.1041V0.720001H28.1121V5.376H22.1841V3.528ZM21.4641 3.528H23.8161V5.856C23.8161 6.112 23.8641 6.28 23.9601 6.36C24.0561 6.424 24.2481 6.456 24.5361 6.456C24.6161 6.456 24.7361 6.456 24.8961 6.456C25.0561 6.456 25.2321 6.456 25.4241 6.456C25.6321 6.456 25.8241 6.456 26.0001 6.456C26.1761 6.456 26.3041 6.456 26.3841 6.456C26.6401 6.456 26.8081 6.4 26.8881 6.288C26.9681 6.176 27.0241 5.928 27.0561 5.544C27.2801 5.688 27.5841 5.832 27.9681 5.976C28.3681 6.104 28.7361 6.2 29.0721 6.264C28.9441 7.08 28.6961 7.632 28.3281 7.92C27.9761 8.208 27.4321 8.352 26.6961 8.352C26.5841 8.352 26.4081 8.352 26.1681 8.352C25.9441 8.352 25.7041 8.352 25.4481 8.352C25.1921 8.352 24.9441 8.352 24.7041 8.352C24.4801 8.352 24.3121 8.352 24.2001 8.352C23.4801 8.352 22.9201 8.288 22.5201 8.16C22.1361 8.016 21.8641 7.76 21.7041 7.392C21.5441 7.024 21.4641 6.52 21.4641 5.88V3.528ZM30.0561 3.528H33.5841V2.544H28.9281V0.720001H36.0321V5.376H30.0561V3.528ZM29.3601 3.528H31.7121V5.856C31.7121 6.112 31.7601 6.28 31.8561 6.36C31.9521 6.424 32.1521 6.456 32.4561 6.456C32.5361 6.456 32.6561 6.456 32.8161 6.456C32.9921 6.456 33.1841 6.456 33.3921 6.456C33.6001 6.456 33.7921 6.456 33.9681 6.456C34.1601 6.456 34.3041 6.456 34.4001 6.456C34.6561 6.456 34.8161 6.4 34.8801 6.288C34.9601 6.176 35.0241 5.912 35.0721 5.496C35.2961 5.656 35.6001 5.808 35.9841 5.952C36.3841 6.08 36.7521 6.176 37.0881 6.24C36.9601 7.072 36.7121 7.632 36.3441 7.92C35.9921 8.208 35.4481 8.352 34.7121 8.352C34.5841 8.352 34.4001 8.352 34.1601 8.352C33.9201 8.352 33.6641 8.352 33.3921 8.352C33.1361 8.352 32.8881 8.352 32.6481 8.352C32.4081 8.352 32.2321 8.352 32.1201 8.352C31.4001 8.352 30.8401 8.288 30.4401 8.16C30.0401 8.016 29.7601 7.76 29.6001 7.392C29.4401 7.024 29.3601 6.52 29.3601 5.88V3.528ZM29.8161 16.656L31.9281 15.456C32.5041 15.712 33.1041 16.008 33.7281 16.344C34.3521 16.664 34.9441 16.992 35.5041 17.328C36.0641 17.648 36.5441 17.944 36.9441 18.216L33.9921 19.296C33.5441 18.912 32.9281 18.48 32.1441 18C31.3761 17.504 30.6001 17.056 29.8161 16.656ZM25.5921 15.48L28.1121 16.344C27.5041 16.92 26.7441 17.472 25.8321 18C24.9201 18.528 24.0481 18.96 23.2161 19.296C23.0561 19.12 22.8481 18.928 22.5921 18.72C22.3521 18.496 22.0961 18.28 21.8241 18.072C21.5521 17.864 21.3201 17.688 21.1281 17.544C21.9601 17.288 22.7841 16.984 23.6001 16.632C24.4161 16.264 25.0801 15.88 25.5921 15.48Z" fill="#571C1C"/>
</svg>
