<svg width="312" height="77" viewBox="0 0 312 77" fill="none" xmlns="http://www.w3.org/2000/svg">
<g clip-path="url(#clip0_100_1160)">
<path d="M312 0H0V77H312V0Z" fill="#6B8A2E"/>
<path d="M36.1599 63.74C29.4199 63.74 23.0799 61.12 18.3199 56.35C13.5499 51.58 10.9299 45.24 10.9299 38.5C10.9299 31.76 13.5599 25.42 18.3199 20.65C23.0799 15.88 29.4299 13.26 36.1699 13.26C42.9099 13.26 49.2499 15.89 54.0199 20.65C62.7299 29.36 63.8999 42.94 56.8299 53C56.1799 54.64 56.2499 55.77 57.0999 57.59C57.2999 58.03 57.2699 58.52 57.0199 58.92C56.7599 59.32 56.3299 59.56 55.8499 59.56C55.6499 59.56 55.4499 59.52 55.2599 59.43C54.2099 58.94 53.4099 58.72 52.6499 58.72C52.0499 58.72 51.4099 58.86 50.6699 59.15C46.4099 62.14 41.3999 63.73 36.1599 63.73V63.74Z" fill="#FFFBC7"/>
<path d="M36.1699 14.02C42.4299 14.02 48.6999 16.41 53.4799 21.19C62.0399 29.75 62.9299 43.07 56.1599 52.63C55.3899 54.53 55.4699 55.89 56.4099 57.92C56.6199 58.36 56.2799 58.81 55.8499 58.81C55.7599 58.81 55.6699 58.79 55.5799 58.75C54.4699 58.23 53.5599 57.97 52.6499 57.97C51.8999 57.97 51.1599 58.14 50.2999 58.49C46.0799 61.48 41.1199 62.98 36.1599 62.98C29.8999 62.98 23.6399 60.59 18.8599 55.81C9.29991 46.25 9.29991 30.75 18.8599 21.19C23.6399 16.41 29.8999 14.02 36.1699 14.02ZM36.1699 12.49C29.2199 12.49 22.6899 15.2 17.7799 20.11C12.8699 25.02 10.1599 31.55 10.1599 38.5C10.1599 45.45 12.8699 51.98 17.7799 56.89C22.6899 61.8 29.2199 64.5 36.1599 64.5C41.5199 64.5 46.6599 62.89 51.0299 59.84C51.6499 59.6 52.1699 59.49 52.6499 59.49C53.2899 59.49 53.9999 59.69 54.9399 60.12C55.2299 60.26 55.5399 60.33 55.8599 60.33C56.5999 60.33 57.2699 59.96 57.6699 59.33C58.0699 58.71 58.1099 57.94 57.7999 57.26C57.0499 55.65 56.9799 54.75 57.5099 53.35C64.7299 43 63.5099 29.05 54.5599 20.1C49.6499 15.19 43.1199 12.48 36.1699 12.48V12.49Z" fill="#6B8A2E"/>
<path d="M28.78 20.99C28.91 21 29.04 21.01 29.18 21.02C29.31 21.02 29.45 21.02 29.61 21.02C29.69 21.02 29.82 21.02 30 21.02C30.18 21.02 30.39 21.01 30.62 21C30.85 21 31.09 20.98 31.33 20.97C31.57 20.96 31.79 20.94 31.99 20.93C32.19 20.91 32.34 20.9 32.45 20.89C32.58 20.88 32.7 20.86 32.79 20.84C32.89 20.82 32.96 20.8 33.02 20.78L33.62 21.47C33.54 21.52 33.44 21.59 33.32 21.67C33.2 21.75 33.09 21.83 33.02 21.9C32.88 22.01 32.73 22.14 32.55 22.28C32.38 22.42 32.2 22.57 32.01 22.72C31.82 22.87 31.64 23.03 31.45 23.18C31.26 23.33 31.08 23.48 30.91 23.62C30.74 23.76 30.58 23.89 30.43 24C30.88 23.95 31.36 23.91 31.86 23.87C32.36 23.83 32.85 23.8 33.34 23.78C33.83 23.76 34.28 23.74 34.7 23.74V24.63C34.25 24.6 33.8 24.59 33.37 24.6C32.94 24.6 32.58 24.62 32.29 24.66C32.07 24.69 31.86 24.76 31.65 24.86C31.45 24.96 31.26 25.09 31.1 25.23C30.94 25.37 30.81 25.55 30.71 25.74C30.62 25.93 30.57 26.13 30.57 26.34C30.57 26.62 30.64 26.85 30.78 27.03C30.92 27.21 31.11 27.34 31.34 27.43C31.58 27.52 31.84 27.59 32.12 27.62C32.39 27.65 32.65 27.67 32.89 27.66C33.13 27.66 33.34 27.65 33.51 27.64L33.31 28.62C32.13 28.66 31.22 28.51 30.59 28.15C29.95 27.79 29.63 27.24 29.63 26.49C29.63 26.25 29.68 26.03 29.77 25.81C29.86 25.59 29.98 25.41 30.12 25.24C30.26 25.07 30.4 24.93 30.54 24.83C30.07 24.87 29.55 24.92 28.99 24.99C28.43 25.06 27.89 25.14 27.36 25.23L27.28 24.33C27.54 24.31 27.82 24.27 28.12 24.24C28.42 24.2 28.69 24.17 28.93 24.15C29.17 23.99 29.43 23.8 29.7 23.59C29.97 23.37 30.25 23.15 30.52 22.92C30.79 22.69 31.05 22.48 31.28 22.28C31.51 22.08 31.7 21.92 31.85 21.78C31.77 21.78 31.66 21.79 31.51 21.8C31.36 21.8 31.19 21.82 31 21.83C30.81 21.84 30.63 21.85 30.45 21.86C30.27 21.86 30.1 21.87 29.95 21.88C29.8 21.88 29.69 21.9 29.6 21.9C29.48 21.9 29.35 21.92 29.21 21.93C29.07 21.95 28.94 21.96 28.81 21.97L28.76 21.01L28.78 20.99Z" fill="#5F161E"/>
<path d="M41.95 21.66C41.89 22.15 41.81 22.66 41.71 23.2C41.61 23.74 41.48 24.27 41.32 24.8C41.13 25.44 40.92 25.99 40.68 26.43C40.44 26.87 40.19 27.21 39.91 27.45C39.63 27.68 39.34 27.8 39.03 27.8C38.72 27.8 38.42 27.69 38.15 27.47C37.88 27.25 37.66 26.95 37.49 26.55C37.32 26.16 37.23 25.7 37.23 25.17C37.23 24.64 37.34 24.14 37.56 23.67C37.78 23.2 38.08 22.78 38.46 22.41C38.84 22.04 39.29 21.76 39.8 21.55C40.31 21.34 40.86 21.24 41.45 21.24C42.04 21.24 42.53 21.33 42.99 21.51C43.45 21.69 43.84 21.95 44.16 22.27C44.49 22.59 44.73 22.97 44.9 23.41C45.07 23.84 45.16 24.31 45.16 24.8C45.16 25.46 45.02 26.05 44.75 26.56C44.48 27.07 44.07 27.49 43.54 27.82C43.01 28.14 42.36 28.36 41.59 28.48L41.03 27.59C41.19 27.57 41.35 27.55 41.48 27.53C41.61 27.51 41.75 27.48 41.87 27.46C42.17 27.39 42.46 27.28 42.74 27.14C43.01 26.99 43.26 26.81 43.47 26.59C43.68 26.37 43.85 26.1 43.98 25.8C44.1 25.5 44.16 25.16 44.16 24.78C44.16 24.4 44.1 24.05 43.98 23.73C43.86 23.41 43.68 23.12 43.45 22.88C43.22 22.64 42.93 22.45 42.59 22.32C42.25 22.18 41.87 22.12 41.44 22.12C40.92 22.12 40.46 22.21 40.06 22.39C39.66 22.57 39.31 22.81 39.03 23.11C38.75 23.41 38.54 23.73 38.39 24.08C38.24 24.43 38.17 24.76 38.17 25.08C38.17 25.44 38.21 25.74 38.3 25.97C38.39 26.21 38.5 26.38 38.63 26.49C38.76 26.6 38.9 26.66 39.04 26.66C39.18 26.66 39.32 26.59 39.46 26.45C39.61 26.31 39.75 26.08 39.9 25.77C40.05 25.46 40.19 25.07 40.34 24.59C40.49 24.14 40.61 23.65 40.7 23.14C40.79 22.63 40.87 22.12 40.91 21.63L41.92 21.65L41.95 21.66Z" fill="#5F161E"/>
<path d="M29.5901 55.1599V51.4499H34.5301V37.6499H30.3601V34.8099C31.5101 34.5799 32.5101 34.3199 33.3401 34.0099C34.1701 33.6999 34.9501 33.3299 35.6701 32.8999H39.0401V51.4599H43.3301V55.1699H29.5901V55.1599Z" fill="#6B8A2E"/>
<path d="M66.9099 33.9799V31.8199H69.7899V23.4099H67.3599V21.7499C68.0299 21.6299 68.6099 21.4799 69.0999 21.3099C69.5899 21.1399 70.0399 20.9099 70.4599 20.6399H72.4199V31.8199H74.9199V33.9799H66.9099Z" fill="white"/>
<path d="M78.01 29.2599L79.79 29.5799C79.69 30.4399 79.55 31.2999 79.36 32.1399C79.17 32.9799 78.95 33.6899 78.69 34.2599C78.57 34.1799 78.41 34.0799 78.2 33.9799C77.99 33.8799 77.79 33.7799 77.58 33.6799C77.37 33.5799 77.19 33.5099 77.03 33.4599C77.29 32.9199 77.5 32.2699 77.66 31.5199C77.82 30.7699 77.93 30.0099 78 29.2399L78.01 29.2599ZM77.22 26.6199C78.05 26.5999 79.04 26.5599 80.2 26.5099C81.36 26.4599 82.53 26.4099 83.72 26.3699L83.7 28.0799C82.58 28.1599 81.48 28.2399 80.38 28.3099C79.28 28.3799 78.29 28.4499 77.4 28.5099L77.22 26.6199ZM77.24 22.9599L78.28 21.4799C78.59 21.7599 78.91 22.0599 79.24 22.3899C79.57 22.7199 79.88 23.0499 80.16 23.3799C80.44 23.7099 80.66 24.0099 80.8 24.2699L79.7 25.9399C79.56 25.6499 79.35 25.3299 79.08 24.9899C78.81 24.6399 78.51 24.2899 78.19 23.9299C77.87 23.5699 77.55 23.2499 77.24 22.9599ZM82.08 20.8399L83.84 21.6299C83.41 22.3099 82.93 23.0299 82.42 23.7799C81.9 24.5299 81.39 25.2499 80.87 25.9399C80.35 26.6299 79.87 27.2299 79.41 27.7499L78.15 27.0499C78.49 26.6399 78.83 26.1799 79.19 25.6699C79.55 25.1599 79.91 24.6299 80.26 24.0699C80.61 23.5099 80.95 22.9499 81.26 22.3999C81.57 21.8399 81.84 21.3199 82.07 20.8399H82.08ZM80.01 18.6999L81.88 19.3999C81.64 19.8599 81.39 20.3299 81.12 20.8199C80.86 21.3099 80.6 21.7799 80.35 22.2199C80.1 22.6599 79.86 23.0499 79.63 23.3699L78.19 22.7599C78.41 22.3899 78.63 21.9699 78.86 21.4999C79.09 21.0299 79.3 20.5499 79.51 20.0599C79.71 19.5699 79.88 19.1099 80.01 18.6899V18.6999ZM80.03 27.5699H81.92V35.5999H80.03V27.5699ZM81.79 25.1199L83.21 24.5299C83.45 24.9399 83.68 25.3699 83.89 25.8399C84.1 26.3099 84.3 26.7499 84.46 27.1899C84.62 27.6299 84.73 28.0199 84.79 28.3699L83.26 29.0499C83.21 28.6999 83.11 28.2999 82.95 27.8499C82.79 27.3999 82.61 26.9299 82.41 26.4499C82.21 25.9699 82 25.5299 81.78 25.1199H81.79ZM82.01 29.5899L83.52 29.0999C83.75 29.5699 83.96 30.0899 84.15 30.6599C84.34 31.2299 84.49 31.7199 84.58 32.1399L82.98 32.7199C82.9 32.2899 82.76 31.7799 82.57 31.1999C82.38 30.6199 82.19 30.0799 82 29.5899H82.01ZM85.43 21.0599H87.3V24.4399C87.3 25.2299 87.26 26.1099 87.19 27.0599C87.12 28.0099 86.97 28.9899 86.76 29.9899C86.55 30.9899 86.22 31.9699 85.8 32.9099C85.37 33.8599 84.8 34.7299 84.08 35.5199C83.97 35.3999 83.83 35.2699 83.64 35.1199C83.45 34.9799 83.26 34.8299 83.06 34.6999C82.86 34.5599 82.68 34.4499 82.52 34.3699C83.19 33.6499 83.72 32.8599 84.1 31.9999C84.48 31.1399 84.77 30.2699 84.96 29.3699C85.15 28.4799 85.28 27.5999 85.34 26.7399C85.4 25.8799 85.43 25.1099 85.43 24.4099V21.0399V21.0599ZM83.93 19.7199H90.59V21.6999H83.93V19.7199ZM87.3 22.4399C87.5 23.8099 87.78 25.0999 88.13 26.2999C88.48 27.5099 88.93 28.5999 89.49 29.5899C90.05 30.5799 90.74 31.4399 91.55 32.1599C92.37 32.8899 93.33 33.4499 94.45 33.8599C94.31 33.9899 94.15 34.1599 93.98 34.3599C93.81 34.5599 93.65 34.7699 93.5 34.9899C93.35 35.2099 93.23 35.4199 93.13 35.6099C91.94 35.1099 90.93 34.4399 90.1 33.6199C89.27 32.7999 88.56 31.8399 87.99 30.7299C87.42 29.6299 86.96 28.3999 86.6 27.0399C86.24 25.6799 85.95 24.2199 85.72 22.6499L87.3 22.4299V22.4399ZM92.05 24.2199H92.45L92.79 24.1699L94.09 24.6399C93.75 26.4799 93.26 28.0999 92.6 29.5199C91.94 30.9399 91.16 32.1399 90.25 33.1499C89.34 34.1499 88.32 34.9499 87.21 35.5499C87.11 35.3899 86.98 35.2099 86.8 35.0099C86.62 34.8099 86.45 34.6099 86.26 34.4199C86.07 34.2299 85.9 34.0799 85.75 33.9699C86.83 33.4399 87.79 32.7499 88.64 31.8799C89.49 31.0199 90.2 29.9799 90.78 28.7799C91.36 27.5799 91.78 26.1999 92.05 24.6499V24.2399V24.2199ZM89.69 19.7199H89.92L90.24 19.6499L91.68 19.8299C91.58 20.5399 91.47 21.2999 91.33 22.1099C91.19 22.9199 91.04 23.7299 90.88 24.5499C90.72 25.3699 90.56 26.1299 90.4 26.8499L88.47 26.6499C88.59 26.0999 88.71 25.5099 88.83 24.8999C88.95 24.2799 89.06 23.6699 89.17 23.0599C89.28 22.4499 89.38 21.8699 89.47 21.3399C89.56 20.8099 89.63 20.3399 89.68 19.9399V19.7199H89.69ZM90 24.2199H92.77V26.1599H89.42L90 24.2199Z" fill="white"/>
<path d="M99.6799 24.7801H100.08L100.46 24.7301L101.72 25.0201C101.49 27.7301 101.03 29.9601 100.33 31.7201C99.6299 33.4701 98.6999 34.7901 97.5399 35.6601C97.4299 35.5301 97.2799 35.3601 97.0799 35.1701C96.8799 34.9701 96.6799 34.7901 96.4699 34.6101C96.2599 34.4401 96.0799 34.3101 95.9199 34.2201C97.0399 33.4401 97.8999 32.3101 98.5099 30.8301C99.1199 29.3501 99.5099 27.4601 99.6799 25.1701V24.7901V24.7801ZM96.0799 19.6901H99.8799V21.5801H96.0799V19.6901ZM99.1299 19.6901H99.3999L99.7199 19.6001L101.2 20.0101C100.94 20.7101 100.63 21.4701 100.27 22.3001C99.9199 23.1301 99.5499 23.9701 99.1699 24.8001C98.7899 25.6301 98.4199 26.4301 98.0599 27.1801L96.1199 26.6801C96.3799 26.1201 96.6599 25.5301 96.9599 24.9101C97.2499 24.2901 97.5399 23.6701 97.8099 23.0601C98.0799 22.4401 98.3299 21.8601 98.5599 21.3101C98.7899 20.7601 98.9799 20.2901 99.1399 19.9001V19.6801L99.1299 19.6901ZM98.0099 27.6801C98.3699 28.8601 98.8399 29.8001 99.4299 30.5101C100.02 31.2201 100.7 31.7701 101.47 32.1401C102.24 32.5101 103.1 32.7601 104.03 32.9001C104.96 33.0301 105.96 33.1001 107.03 33.1001H109.26C109.74 33.1001 110.22 33.1001 110.71 33.1001C111.2 33.1001 111.65 33.0901 112.08 33.0801C112.51 33.0801 112.85 33.0701 113.12 33.0501C113 33.2101 112.89 33.4101 112.78 33.6601C112.67 33.9101 112.58 34.1701 112.49 34.4401C112.4 34.7101 112.33 34.9501 112.27 35.1501H106.98C105.67 35.1501 104.47 35.0601 103.38 34.8901C102.29 34.7201 101.3 34.3901 100.41 33.9001C99.5199 33.4101 98.7399 32.7201 98.0599 31.8101C97.3799 30.9001 96.7999 29.7301 96.3199 28.2701L98.0099 27.6801ZM97.8999 24.7801H100.53V26.6701H97.8499L97.8999 24.7801ZM101.12 22.2101H112.89V23.8701H101.12V22.2101ZM101.38 29.4201H112.5V31.1101H101.38V29.4201ZM102.17 27.0301H111.67V28.6001H102.17V27.0301ZM102.35 19.8501H111.53V26.2401H102.26V24.6001H109.42V21.4701H102.35V19.8501ZM105.68 18.8201H107.77V32.5701H105.68V18.8201Z" fill="white"/>
<path d="M117.36 18.54L119.36 19.1C119.01 19.88 118.57 20.65 118.04 21.4C117.51 22.15 116.97 22.78 116.45 23.28C116.33 23.16 116.16 23.03 115.95 22.87C115.73 22.72 115.52 22.58 115.29 22.44C115.07 22.3 114.87 22.19 114.71 22.09C115.26 21.66 115.77 21.13 116.25 20.5C116.72 19.87 117.1 19.22 117.37 18.55L117.36 18.54ZM121.54 30.69L123.16 31.39C122.75 31.82 122.28 32.23 121.74 32.62C121.2 33.01 120.62 33.37 119.99 33.69C119.37 34.01 118.72 34.3 118.05 34.54C117.38 34.78 116.71 34.99 116.03 35.16C115.87 34.9 115.67 34.59 115.41 34.24C115.15 33.89 114.91 33.61 114.7 33.39C115.35 33.28 116 33.14 116.67 32.96C117.34 32.78 117.97 32.57 118.58 32.34C119.19 32.11 119.74 31.85 120.25 31.57C120.76 31.29 121.19 30.99 121.54 30.67V30.69ZM115.04 29.69H131.42V31.38H115.04V29.69ZM115.06 27.14C115.65 27.06 116.32 26.97 117.07 26.87C117.82 26.77 118.62 26.67 119.46 26.55C120.31 26.43 121.14 26.31 121.97 26.19L122.06 27.81C120.87 27.99 119.68 28.17 118.5 28.35C117.31 28.53 116.25 28.69 115.31 28.84L115.06 27.15V27.14ZM115.49 23.47H121.97V24.96H115.49V23.47ZM117.27 19.96H122.96V21.65H117.27V19.96ZM117.76 23.92H119.72V27.56H117.76V23.92ZM117.96 21.33L119.6 20.88C119.82 21.17 120.02 21.49 120.22 21.85C120.42 22.21 120.57 22.52 120.68 22.79L118.93 23.29C118.85 23.03 118.71 22.71 118.53 22.34C118.35 21.97 118.16 21.63 117.95 21.33H117.96ZM122.78 23.38H124.74V25.23C124.74 25.76 124.66 26.28 124.51 26.79C124.36 27.3 124.08 27.78 123.66 28.23C123.24 28.68 122.63 29.06 121.82 29.37C121.74 29.24 121.6 29.08 121.42 28.89C121.24 28.7 121.05 28.52 120.86 28.35C120.67 28.18 120.51 28.04 120.37 27.95C121.08 27.7 121.6 27.43 121.95 27.13C122.29 26.84 122.51 26.52 122.62 26.19C122.72 25.85 122.77 25.52 122.77 25.18V23.38H122.78ZM124.69 18.54L126.74 19.04C126.4 19.86 125.97 20.64 125.43 21.39C124.89 22.14 124.36 22.77 123.82 23.27C123.66 23.16 123.47 23.04 123.24 22.91C123.01 22.78 122.78 22.65 122.54 22.52C122.3 22.39 122.09 22.29 121.91 22.22C122.51 21.79 123.05 21.24 123.54 20.58C124.03 19.92 124.41 19.24 124.68 18.53L124.69 18.54ZM122.15 28.62H124.26V35.53H122.15V28.62ZM124.8 30.79C125.18 31.09 125.63 31.37 126.14 31.63C126.65 31.89 127.21 32.13 127.83 32.34C128.45 32.56 129.09 32.74 129.75 32.9C130.41 33.06 131.08 33.18 131.75 33.28C131.59 33.42 131.43 33.61 131.25 33.83C131.07 34.05 130.9 34.28 130.75 34.5C130.6 34.73 130.47 34.93 130.36 35.11C129.7 34.97 129.04 34.78 128.37 34.54C127.7 34.3 127.06 34.03 126.44 33.71C125.82 33.39 125.24 33.04 124.7 32.66C124.16 32.28 123.68 31.86 123.26 31.42L124.79 30.79H124.8ZM123.5 23.38H128.4V24.78H123.5V23.38ZM124.36 26.29L125.6 25.21C125.84 25.37 126.1 25.55 126.37 25.76C126.64 25.97 126.89 26.17 127.12 26.37C127.35 26.57 127.53 26.76 127.68 26.94L126.37 28.15C126.17 27.87 125.87 27.56 125.49 27.21C125.11 26.86 124.73 26.56 124.37 26.29H124.36ZM124.56 19.96H131.54V21.65H124.56V19.96ZM125.98 21.31L127.73 20.84C127.98 21.12 128.24 21.43 128.5 21.79C128.76 22.15 128.95 22.47 129.07 22.74L127.23 23.26C127.12 23 126.95 22.68 126.72 22.31C126.49 21.94 126.24 21.6 125.99 21.3L125.98 21.31ZM127.37 23.38H129.4V26.93C129.4 27.03 129.41 27.09 129.44 27.11C129.46 27.16 129.52 27.18 129.62 27.18H129.89C129.89 27.18 129.98 27.18 130.02 27.18C130.06 27.18 130.09 27.16 130.13 27.15C130.18 27.11 130.22 26.99 130.26 26.79C130.28 26.69 130.3 26.54 130.3 26.31C130.3 26.08 130.31 25.83 130.33 25.53C130.49 25.67 130.7 25.82 130.98 25.95C131.26 26.09 131.51 26.2 131.74 26.28C131.72 26.62 131.68 26.95 131.64 27.28C131.6 27.61 131.55 27.85 131.51 28.01C131.38 28.33 131.17 28.56 130.9 28.69C130.78 28.76 130.63 28.81 130.45 28.84C130.27 28.87 130.1 28.88 129.95 28.88H129.05C128.83 28.88 128.61 28.84 128.39 28.77C128.17 28.7 127.98 28.59 127.82 28.45C127.66 28.29 127.55 28.09 127.49 27.85C127.43 27.61 127.39 27.2 127.39 26.63V23.37L127.37 23.38Z" fill="white"/>
<path d="M133.78 24.1H150.18V26.22H133.78V24.1ZM134.77 32.61H149.21V34.77H134.77V32.61ZM140.74 18.71H143.06V34.12H140.74V18.71Z" fill="white"/>
<path d="M156.87 20.19C156.82 20.31 156.77 20.48 156.71 20.69C156.65 20.91 156.59 21.12 156.54 21.32C156.49 21.52 156.45 21.68 156.42 21.79C156.38 22.04 156.33 22.37 156.25 22.77C156.17 23.17 156.09 23.62 156.02 24.12C155.95 24.62 155.87 25.13 155.8 25.64C155.73 26.16 155.67 26.65 155.63 27.13C155.59 27.61 155.57 28.03 155.57 28.39C155.57 28.56 155.57 28.75 155.57 28.97C155.57 29.19 155.6 29.38 155.63 29.56C155.71 29.36 155.8 29.15 155.9 28.95C156 28.75 156.09 28.54 156.19 28.33C156.29 28.12 156.37 27.92 156.44 27.73L157.56 28.61C157.39 29.1 157.22 29.63 157.05 30.19C156.88 30.75 156.72 31.29 156.58 31.78C156.44 32.28 156.34 32.69 156.26 33.01C156.24 33.14 156.22 33.29 156.2 33.46C156.18 33.63 156.17 33.76 156.17 33.86C156.17 33.96 156.17 34.07 156.17 34.21C156.17 34.35 156.19 34.48 156.2 34.6L154.11 34.74C153.93 34.12 153.77 33.29 153.62 32.25C153.48 31.21 153.4 30.08 153.4 28.86C153.4 28.19 153.43 27.5 153.49 26.81C153.55 26.11 153.62 25.45 153.71 24.8C153.8 24.15 153.88 23.57 153.95 23.05C154.03 22.52 154.1 22.08 154.16 21.74C154.18 21.49 154.22 21.2 154.26 20.89C154.3 20.57 154.33 20.27 154.34 19.98L156.86 20.2L156.87 20.19ZM161.08 29.08C161.01 29.38 160.95 29.65 160.92 29.88C160.88 30.11 160.87 30.35 160.87 30.59C160.87 30.78 160.92 30.96 161.01 31.12C161.11 31.28 161.25 31.42 161.45 31.53C161.65 31.64 161.91 31.73 162.22 31.78C162.54 31.83 162.92 31.86 163.38 31.86C164.18 31.86 164.94 31.82 165.65 31.74C166.36 31.66 167.11 31.55 167.9 31.39L167.94 33.82C167.36 33.93 166.7 34.01 165.95 34.07C165.2 34.13 164.32 34.16 163.29 34.16C161.74 34.16 160.59 33.9 159.83 33.38C159.07 32.86 158.7 32.14 158.7 31.21C158.7 30.86 158.73 30.5 158.78 30.12C158.83 29.74 158.91 29.33 159 28.87L161.07 29.07L161.08 29.08ZM159.64 21.4C160.19 21.47 160.81 21.52 161.5 21.55C162.19 21.58 162.89 21.59 163.61 21.59C164.32 21.59 165.01 21.56 165.67 21.52C166.33 21.48 166.9 21.43 167.38 21.38V23.7C166.83 23.75 166.22 23.79 165.56 23.82C164.9 23.85 164.22 23.86 163.53 23.86C162.84 23.86 162.15 23.85 161.49 23.82C160.82 23.79 160.21 23.75 159.65 23.7V21.4H159.64Z" fill="white"/>
<path d="M179.57 19.54C179.55 19.71 179.52 19.92 179.5 20.16C179.48 20.41 179.46 20.66 179.45 20.92C179.44 21.18 179.43 21.42 179.41 21.65C179.4 22.08 179.4 22.55 179.41 23.05C179.41 23.55 179.41 24.06 179.41 24.58C179.41 25.1 179.43 25.68 179.45 26.35C179.48 27.03 179.52 27.73 179.57 28.45C179.62 29.17 179.66 29.84 179.69 30.46C179.72 31.08 179.73 31.58 179.73 31.96C179.73 32.34 179.67 32.74 179.55 33.11C179.43 33.48 179.23 33.82 178.94 34.11C178.65 34.4 178.26 34.64 177.77 34.81C177.28 34.98 176.65 35.07 175.9 35.07C175.05 35.07 174.27 34.96 173.55 34.76C172.84 34.55 172.27 34.2 171.85 33.72C171.43 33.24 171.22 32.59 171.22 31.78C171.22 31.16 171.4 30.59 171.76 30.08C172.12 29.57 172.66 29.16 173.39 28.87C174.12 28.57 175.03 28.42 176.14 28.42C177.08 28.42 177.98 28.53 178.87 28.74C179.75 28.96 180.58 29.23 181.35 29.58C182.12 29.92 182.83 30.31 183.46 30.73C184.09 31.16 184.63 31.58 185.09 32.02L183.7 34.16C183.26 33.72 182.75 33.27 182.18 32.83C181.61 32.39 180.99 31.98 180.32 31.62C179.65 31.26 178.93 30.97 178.17 30.75C177.41 30.53 176.62 30.42 175.8 30.42C175.1 30.42 174.55 30.53 174.15 30.75C173.75 30.97 173.55 31.28 173.55 31.68C173.55 32.12 173.75 32.44 174.16 32.62C174.57 32.8 175.09 32.89 175.73 32.89C176.29 32.89 176.7 32.76 176.94 32.49C177.18 32.22 177.3 31.78 177.3 31.18C177.3 30.87 177.29 30.43 177.26 29.88C177.24 29.32 177.21 28.72 177.19 28.06C177.17 27.41 177.14 26.77 177.12 26.16C177.1 25.55 177.08 25.03 177.08 24.59V22.52C177.08 22.2 177.08 21.91 177.06 21.66C177.05 21.36 177.03 21.08 177.02 20.81C177 20.55 176.98 20.31 176.97 20.09C176.95 19.87 176.92 19.69 176.87 19.55H179.59L179.57 19.54ZM178.18 22.98C178.44 22.98 178.82 22.98 179.31 22.98C179.8 22.98 180.35 22.96 180.94 22.94C181.53 22.92 182.13 22.88 182.74 22.84C183.35 22.8 183.91 22.75 184.42 22.7L184.49 24.84C183.99 24.89 183.43 24.93 182.82 24.97C182.21 25.01 181.6 25.03 181 25.05C180.4 25.07 179.85 25.08 179.35 25.09C178.85 25.1 178.47 25.11 178.19 25.11L178.17 22.99L178.18 22.98Z" fill="white"/>
<path d="M189.51 20.26C189.76 20.3 190.03 20.32 190.32 20.33C190.61 20.34 190.88 20.35 191.15 20.35C191.34 20.35 191.63 20.35 192.01 20.35C192.39 20.35 192.83 20.33 193.31 20.32C193.8 20.31 194.28 20.3 194.76 20.28C195.24 20.27 195.68 20.25 196.07 20.24C196.46 20.22 196.76 20.21 196.98 20.2C197.35 20.16 197.65 20.13 197.86 20.1C198.08 20.07 198.24 20.04 198.35 20L199.52 21.6C199.32 21.73 199.11 21.86 198.89 22C198.67 22.13 198.46 22.28 198.26 22.43C198.02 22.6 197.73 22.82 197.4 23.09C197.07 23.36 196.71 23.65 196.33 23.94C195.95 24.24 195.59 24.53 195.23 24.82C194.88 25.11 194.56 25.37 194.27 25.59C194.57 25.52 194.86 25.47 195.13 25.44C195.41 25.41 195.69 25.4 195.98 25.4C197 25.4 197.92 25.6 198.73 25.99C199.54 26.38 200.18 26.92 200.66 27.6C201.13 28.28 201.37 29.06 201.37 29.93C201.37 30.88 201.13 31.74 200.65 32.5C200.17 33.27 199.45 33.88 198.48 34.34C197.51 34.8 196.31 35.02 194.85 35.02C194.02 35.02 193.27 34.9 192.61 34.66C191.94 34.42 191.42 34.08 191.03 33.63C190.64 33.18 190.45 32.66 190.45 32.06C190.45 31.57 190.58 31.11 190.85 30.68C191.12 30.25 191.5 29.91 191.98 29.65C192.47 29.39 193.03 29.25 193.66 29.25C194.49 29.25 195.19 29.42 195.76 29.74C196.33 30.07 196.77 30.51 197.07 31.06C197.38 31.61 197.53 32.22 197.55 32.88L195.44 33.17C195.43 32.51 195.26 31.98 194.94 31.58C194.62 31.18 194.2 30.98 193.67 30.98C193.33 30.98 193.06 31.07 192.86 31.24C192.66 31.41 192.55 31.62 192.55 31.84C192.55 32.18 192.72 32.45 193.05 32.65C193.38 32.85 193.82 32.96 194.36 32.96C195.38 32.96 196.23 32.84 196.92 32.59C197.6 32.34 198.12 31.99 198.46 31.53C198.8 31.07 198.97 30.52 198.97 29.88C198.97 29.34 198.8 28.87 198.47 28.46C198.14 28.05 197.69 27.73 197.13 27.51C196.57 27.28 195.93 27.17 195.22 27.17C194.51 27.17 193.89 27.26 193.31 27.43C192.73 27.6 192.19 27.85 191.68 28.17C191.17 28.49 190.67 28.87 190.19 29.32C189.7 29.77 189.22 30.27 188.74 30.82L187.1 29.13C187.42 28.87 187.79 28.57 188.2 28.24C188.61 27.91 189.03 27.56 189.45 27.2C189.87 26.84 190.28 26.5 190.66 26.18C191.04 25.86 191.36 25.6 191.62 25.38C191.87 25.18 192.17 24.94 192.5 24.66C192.83 24.38 193.18 24.1 193.54 23.81C193.9 23.52 194.24 23.23 194.57 22.96C194.89 22.69 195.16 22.46 195.38 22.27C195.2 22.27 194.97 22.27 194.68 22.29C194.39 22.3 194.08 22.31 193.73 22.33C193.39 22.34 193.05 22.35 192.7 22.37C192.36 22.38 192.04 22.4 191.75 22.41C191.46 22.43 191.21 22.44 191.02 22.45C190.78 22.46 190.53 22.48 190.26 22.5C189.99 22.52 189.76 22.55 189.54 22.59L189.47 20.25L189.51 20.26Z" fill="white"/>
<path d="M68.22 43.6399H74.2V45.5799H70.37V55.1399H68.23V43.6399H68.22Z" fill="white"/>
<path d="M75.49 55.2299C75.95 54.9899 76.5 54.6699 77.16 54.2799C77.82 53.8799 78.5 53.4799 79.19 53.0599L79.87 54.8399C79.32 55.2999 78.75 55.7499 78.16 56.2099C77.57 56.6699 77 57.0899 76.45 57.4899L75.48 55.2399L75.49 55.2299ZM75.64 46.6299L77.4 45.8599C77.63 46.2699 77.85 46.7099 78.07 47.1799C78.29 47.6499 78.48 48.1099 78.65 48.5599C78.82 49.0099 78.95 49.4099 79.04 49.7699L77.13 50.6499C77.07 50.2899 76.96 49.8799 76.8 49.4199C76.64 48.9599 76.46 48.4799 76.26 47.9999C76.06 47.5099 75.85 47.0599 75.64 46.6399V46.6299ZM78.71 43.6799H80.82V60.5799H78.71V43.6799ZM90.23 43.6599L91.69 45.3299C90.77 45.5899 89.75 45.8299 88.65 46.0199C87.55 46.2199 86.41 46.3899 85.25 46.5199C84.09 46.6599 82.96 46.7699 81.88 46.8499C81.84 46.5999 81.77 46.2999 81.65 45.9699C81.54 45.6299 81.43 45.3599 81.32 45.1399C82.11 45.0599 82.92 44.9699 83.74 44.8699C84.56 44.7699 85.37 44.6599 86.15 44.5399C86.94 44.4099 87.67 44.2799 88.36 44.1299C89.05 43.9799 89.67 43.8199 90.22 43.6499L90.23 43.6599ZM81.38 52.2099H92.61V54.1899H81.38V52.2099ZM81.65 47.8599L83.38 47.2299C83.57 47.5699 83.76 47.9199 83.96 48.2999C84.15 48.6799 84.32 49.0499 84.46 49.4199C84.6 49.7899 84.71 50.1199 84.78 50.4199L82.93 51.1399C82.85 50.7099 82.68 50.1899 82.43 49.5699C82.18 48.9599 81.92 48.3899 81.65 47.8599ZM82.49 55.2299L84.24 54.3099C84.53 54.6199 84.82 54.9599 85.1 55.3199C85.39 55.6799 85.65 56.0399 85.89 56.3999C86.13 56.7599 86.32 57.0899 86.47 57.3899L84.58 58.4299C84.46 58.1299 84.29 57.7899 84.07 57.4199C83.85 57.0499 83.6 56.6699 83.32 56.2899C83.04 55.9099 82.77 55.5499 82.49 55.2299ZM85.09 47.1199L86.96 46.6499C87.16 47.1399 87.36 47.6899 87.54 48.2799C87.72 48.8699 87.83 49.3799 87.86 49.7999L85.88 50.3199C85.86 49.8999 85.77 49.3899 85.62 48.7999C85.47 48.2099 85.29 47.6499 85.09 47.1199ZM88.11 51.0799H90.25V58.2399C90.25 58.7799 90.18 59.2099 90.05 59.5199C89.92 59.8299 89.67 60.0699 89.29 60.2199C88.93 60.3899 88.49 60.4899 87.97 60.5299C87.45 60.5699 86.84 60.5799 86.14 60.5799C86.09 60.2799 86.01 59.9299 85.88 59.5299C85.75 59.1299 85.62 58.7799 85.47 58.4799C85.78 58.4899 86.09 58.4999 86.4 58.5199C86.71 58.5299 86.98 58.5399 87.22 58.5199C87.46 58.5199 87.63 58.5199 87.72 58.5199C87.86 58.5099 87.96 58.4799 88.02 58.4499C88.08 58.4199 88.1 58.3399 88.1 58.2199V51.0899L88.11 51.0799ZM90.31 46.4299L92.33 47.3699C92.02 47.8999 91.68 48.4199 91.32 48.9399C90.96 49.4599 90.6 49.9599 90.24 50.4299C89.88 50.8999 89.54 51.3299 89.21 51.6999L87.52 50.8199C87.83 50.4399 88.16 49.9899 88.51 49.4999C88.86 48.9999 89.19 48.4899 89.51 47.9499C89.83 47.4199 90.09 46.9099 90.31 46.4299Z" fill="#FFFBC7"/>
<path d="M101.38 52.3899L103.13 53.0899C102.71 53.7999 102.23 54.4899 101.68 55.1499C101.13 55.8099 100.54 56.4499 99.9 57.0399C99.26 57.6299 98.59 58.1799 97.91 58.6799C97.23 59.1799 96.53 59.5999 95.82 59.9499C95.71 59.7699 95.57 59.5699 95.39 59.3399C95.21 59.1099 95.02 58.8899 94.83 58.6699C94.64 58.4499 94.46 58.2799 94.29 58.1499C94.99 57.8499 95.68 57.4899 96.36 57.0799C97.04 56.6699 97.7 56.1999 98.32 55.6899C98.94 55.1799 99.52 54.6499 100.04 54.0899C100.56 53.5299 101.01 52.9699 101.38 52.3899ZM94.79 51.5399H110.97V53.6099H94.79V51.5399ZM95.63 45.6399H110.26V47.7099H95.63V45.6399ZM96.84 48.4299L98.77 47.6899C99 48.0099 99.21 48.3699 99.42 48.7399C99.63 49.1099 99.81 49.4899 99.97 49.8599C100.13 50.2299 100.25 50.5599 100.32 50.8599L98.25 51.6899C98.19 51.3899 98.09 51.0499 97.95 50.6799C97.81 50.3099 97.65 49.9199 97.45 49.5199C97.26 49.1199 97.05 48.7499 96.84 48.4299ZM101.74 43.6799H104.03V60.5799H101.74V43.6799ZM104.46 52.4099C104.82 52.9899 105.25 53.5599 105.76 54.1199C106.27 54.6799 106.83 55.2199 107.45 55.7199C108.07 56.2199 108.72 56.6899 109.39 57.1099C110.07 57.5299 110.75 57.8799 111.43 58.1699C111.27 58.3099 111.1 58.4899 110.9 58.7099C110.7 58.9299 110.52 59.1499 110.34 59.3799C110.16 59.6099 110.03 59.8099 109.92 59.9899C109.21 59.6399 108.52 59.2199 107.84 58.7299C107.16 58.2399 106.51 57.6899 105.88 57.0899C105.25 56.4899 104.67 55.8499 104.13 55.1799C103.59 54.5099 103.11 53.8199 102.69 53.1099L104.45 52.4099H104.46ZM107.08 47.6599L109.35 48.3299C109.13 48.7399 108.91 49.1499 108.68 49.5499C108.45 49.9599 108.23 50.3399 108.01 50.6999C107.79 51.0599 107.59 51.3799 107.4 51.6499L105.53 51.0199C105.71 50.7199 105.9 50.3699 106.1 49.9799C106.3 49.5899 106.48 49.1899 106.66 48.7799C106.83 48.3699 106.97 47.9899 107.08 47.6499V47.6599Z" fill="#FFFBC7"/>
<path d="M121.16 44.5401C121.1 44.8601 121 45.2801 120.87 45.8001C120.74 46.3201 120.55 46.9001 120.29 47.5501C120.1 47.9901 119.88 48.4501 119.63 48.9301C119.38 49.4001 119.14 49.8301 118.88 50.2001C119.04 50.1301 119.23 50.0701 119.47 50.0101C119.71 49.9601 119.96 49.9101 120.22 49.8801C120.48 49.8501 120.71 49.8401 120.91 49.8401C121.67 49.8401 122.29 50.0601 122.79 50.4901C123.29 50.9201 123.54 51.5601 123.54 52.4201C123.54 52.6601 123.54 52.9501 123.54 53.3001C123.54 53.6501 123.55 54.0101 123.57 54.3901C123.59 54.7701 123.59 55.1401 123.61 55.5001C123.62 55.8601 123.63 56.1801 123.63 56.4701H121.47C121.49 56.2701 121.51 56.0201 121.51 55.7401C121.51 55.4601 121.52 55.1601 121.53 54.8501C121.53 54.5401 121.54 54.2401 121.55 53.9401C121.55 53.6501 121.55 53.3801 121.55 53.1401C121.55 52.5601 121.4 52.1701 121.09 51.9401C120.78 51.7101 120.44 51.6101 120.07 51.6101C119.57 51.6101 119.06 51.7301 118.55 51.9801C118.04 52.2301 117.61 52.5201 117.26 52.8501C117 53.1101 116.73 53.4101 116.46 53.7301C116.19 54.0501 115.9 54.4201 115.59 54.8301L113.66 53.3901C114.44 52.6701 115.11 51.9701 115.68 51.3001C116.25 50.6301 116.73 49.9601 117.13 49.3001C117.53 48.6401 117.85 47.9801 118.1 47.3201C118.28 46.8401 118.43 46.3401 118.54 45.8201C118.65 45.3001 118.72 44.8101 118.75 44.3501L121.13 44.5501L121.16 44.5401ZM114.39 46.2001C114.85 46.2701 115.37 46.3301 115.97 46.3601C116.57 46.4001 117.1 46.4101 117.55 46.4101C118.34 46.4101 119.21 46.3901 120.15 46.3601C121.09 46.3201 122.05 46.2601 123.02 46.1701C123.99 46.0801 124.92 45.9601 125.79 45.8201L125.77 47.9101C125.13 47.9901 124.45 48.0701 123.71 48.1301C122.97 48.2001 122.22 48.2501 121.46 48.2901C120.7 48.3301 119.97 48.3601 119.27 48.3801C118.57 48.4001 117.96 48.4101 117.42 48.4101C117.18 48.4101 116.88 48.4101 116.53 48.4101C116.18 48.4101 115.81 48.3901 115.44 48.3701C115.07 48.3501 114.71 48.3301 114.38 48.3101V46.2001H114.39ZM128.65 51.3101C128.46 51.3701 128.23 51.4401 127.97 51.5401C127.71 51.6301 127.45 51.7201 127.2 51.8101C126.94 51.9001 126.71 51.9901 126.51 52.0701C125.93 52.3001 125.25 52.5701 124.47 52.9001C123.69 53.2301 122.87 53.6001 122.01 54.0301C121.47 54.3201 121.01 54.6001 120.64 54.8801C120.27 55.1601 119.99 55.4401 119.79 55.7201C119.6 56.0001 119.5 56.3101 119.5 56.6501C119.5 56.9001 119.55 57.1101 119.66 57.2701C119.77 57.4301 119.93 57.5601 120.15 57.6601C120.37 57.7601 120.64 57.8201 120.96 57.8601C121.28 57.9001 121.67 57.9101 122.11 57.9101C122.88 57.9101 123.72 57.8701 124.65 57.7801C125.57 57.6901 126.43 57.5701 127.22 57.4101L127.15 59.7301C126.77 59.7801 126.28 59.8301 125.69 59.8801C125.1 59.9301 124.49 59.9701 123.86 60.0001C123.23 60.0301 122.63 60.0401 122.05 60.0401C121.11 60.0401 120.27 59.9501 119.53 59.7701C118.79 59.5901 118.2 59.2801 117.78 58.8401C117.35 58.4001 117.14 57.8001 117.14 57.0301C117.14 56.4101 117.28 55.8401 117.56 55.3401C117.84 54.8401 118.22 54.3801 118.68 53.9701C119.15 53.5601 119.66 53.1901 120.22 52.8601C120.78 52.5301 121.33 52.2301 121.87 51.9501C122.42 51.6601 122.92 51.4201 123.36 51.2101C123.8 51.0001 124.22 50.8201 124.61 50.6601C125 50.5001 125.37 50.3301 125.73 50.1701C126.08 50.0101 126.41 49.8601 126.74 49.7101C127.06 49.5601 127.39 49.4001 127.73 49.2301L128.63 51.3201L128.65 51.3101Z" fill="#FFFBC7"/>
<path d="M136.01 54.17H138.31C138.24 54.99 138.11 55.73 137.92 56.41C137.73 57.09 137.43 57.7 137.02 58.24C136.61 58.78 136.02 59.25 135.27 59.65C134.51 60.05 133.53 60.39 132.32 60.67C132.26 60.47 132.16 60.25 132.02 60.01C131.88 59.78 131.73 59.54 131.57 59.31C131.41 59.08 131.25 58.89 131.09 58.74C132.13 58.55 132.97 58.31 133.59 58.03C134.21 57.75 134.69 57.42 135.02 57.05C135.35 56.68 135.58 56.26 135.71 55.78C135.84 55.31 135.94 54.77 136 54.17H136.01ZM133.72 44.25H145.55V54.87H133.72V44.25ZM135.81 46.13V47.25H143.35V46.13H135.81ZM135.81 48.99V50.11H143.35V48.99H135.81ZM135.81 51.87V53H143.35V51.87H135.81ZM140.4 53.44H142.61V57.74C142.61 58.03 142.65 58.21 142.74 58.29C142.83 58.37 143.04 58.41 143.38 58.41H145.27C145.47 58.41 145.63 58.36 145.74 58.25C145.85 58.14 145.93 57.91 145.97 57.57C146.01 57.23 146.05 56.69 146.08 55.99C146.24 56.11 146.43 56.23 146.66 56.35C146.89 56.47 147.14 56.57 147.4 56.66C147.66 56.75 147.88 56.82 148.06 56.88C147.99 57.83 147.86 58.56 147.68 59.09C147.5 59.62 147.24 59.97 146.89 60.18C146.54 60.38 146.07 60.49 145.47 60.49H143.08C142.37 60.49 141.82 60.41 141.43 60.24C141.04 60.07 140.77 59.79 140.62 59.39C140.47 58.99 140.4 58.46 140.4 57.79V53.47V53.44Z" fill="#FFFBC7"/>
<path d="M149.67 52.82C150.4 52.65 151.28 52.4399 152.31 52.1699C153.34 51.9099 154.37 51.63 155.42 51.34L155.69 53.2799C154.74 53.5599 153.78 53.8399 152.82 54.1199C151.85 54.3999 150.97 54.66 150.17 54.8899L149.68 52.82H149.67ZM149.96 47.0999H155.65V49.08H149.96V47.0999ZM151.85 43.7H153.83V58.08C153.83 58.57 153.78 58.96 153.68 59.25C153.58 59.54 153.39 59.77 153.11 59.93C152.85 60.1 152.51 60.2099 152.1 60.2599C151.69 60.3099 151.19 60.34 150.61 60.34C150.59 60.08 150.52 59.75 150.41 59.36C150.3 58.97 150.18 58.64 150.05 58.36C150.39 58.37 150.7 58.38 150.98 58.38C151.26 58.38 151.46 58.38 151.56 58.36C151.67 58.36 151.74 58.3399 151.79 58.2999C151.84 58.2599 151.85 58.18 151.85 58.06V43.7ZM156.17 44.4H158.26V49.93C158.26 50.71 158.23 51.57 158.18 52.5C158.13 53.43 158.02 54.38 157.87 55.36C157.71 56.34 157.48 57.2799 157.18 58.1899C156.87 59.0999 156.47 59.91 155.98 60.65C155.86 60.52 155.69 60.3699 155.48 60.2099C155.26 60.0499 155.04 59.8899 154.81 59.7299C154.58 59.57 154.39 59.4599 154.23 59.3899C154.67 58.7199 155.03 57.98 155.29 57.18C155.55 56.38 155.75 55.5599 155.87 54.7099C155.99 53.8599 156.07 53.0299 156.11 52.2099C156.15 51.3899 156.17 50.63 156.17 49.93V44.4ZM157.16 44.4H166.09V49.6399H157.22V47.7999H164.06V46.25H157.17V44.4H157.16ZM157.18 51.24H166.59V53.06H157.18V51.24ZM158.02 54.79H166.17V60.57H164.23V56.56H159.87V60.59H158.02V54.79ZM158.91 58.3499H165.16V60.06H158.91V58.3499ZM160.92 49.4799H162.94V55.58H160.92V49.4799Z" fill="#FFFBC7"/>
<path d="M180.34 50.1099C180.1 50.2799 179.88 50.4399 179.69 50.5899C179.5 50.7399 179.32 50.8899 179.17 51.0299C178.95 51.1999 178.71 51.4099 178.42 51.6799C178.14 51.9399 177.85 52.2099 177.55 52.4799C177.25 52.7499 176.98 52.9999 176.75 53.2299C176.52 53.4599 176.34 53.6299 176.24 53.7499C176.31 53.7399 176.42 53.7499 176.56 53.7699C176.7 53.7899 176.82 53.8299 176.92 53.8799C177.18 53.9599 177.4 54.0999 177.57 54.2999C177.74 54.4999 177.88 54.7699 178 55.0999C178.06 55.2599 178.12 55.4299 178.17 55.6299C178.22 55.8299 178.28 56.0199 178.34 56.2099C178.4 56.3999 178.46 56.5799 178.52 56.7299C178.6 57.0099 178.75 57.2199 178.95 57.3599C179.15 57.4999 179.43 57.5799 179.78 57.5799C180.25 57.5799 180.69 57.5599 181.11 57.5299C181.53 57.4999 181.93 57.4599 182.3 57.4099C182.67 57.3599 183.01 57.3099 183.31 57.2499L183.17 59.6099C182.93 59.6599 182.59 59.6999 182.15 59.7499C181.71 59.7899 181.26 59.8199 180.8 59.8499C180.34 59.8799 179.95 59.8899 179.64 59.8899C178.79 59.8899 178.12 59.7799 177.63 59.5599C177.14 59.3399 176.79 58.9299 176.56 58.3499C176.51 58.1699 176.45 57.9699 176.38 57.7399C176.31 57.5099 176.25 57.2899 176.19 57.0599C176.14 56.8399 176.08 56.6599 176.04 56.5099C175.94 56.1899 175.81 55.9599 175.63 55.8299C175.45 55.6999 175.27 55.6399 175.09 55.6399C174.9 55.6399 174.71 55.6999 174.51 55.8299C174.31 55.9599 174.11 56.1299 173.9 56.3599C173.78 56.4799 173.63 56.6399 173.46 56.8299C173.29 57.0199 173.09 57.2399 172.87 57.4799C172.65 57.7199 172.42 57.9799 172.19 58.2499C171.96 58.5299 171.71 58.8099 171.46 59.1099C171.21 59.4099 170.96 59.7199 170.7 60.0499L168.58 58.5599C168.74 58.4199 168.92 58.2499 169.14 58.0699C169.36 57.8899 169.58 57.6799 169.82 57.4499C169.98 57.2899 170.2 57.0699 170.49 56.7699C170.78 56.4799 171.11 56.1399 171.49 55.7699C171.87 55.3999 172.26 54.9999 172.68 54.5699C173.09 54.1399 173.51 53.7199 173.93 53.2999C174.35 52.8799 174.74 52.4799 175.11 52.0999C175.48 51.7199 175.8 51.3899 176.07 51.0999C175.82 51.1099 175.54 51.1299 175.22 51.1399C174.91 51.1599 174.58 51.1799 174.25 51.1899C173.92 51.1999 173.58 51.2299 173.26 51.2599C172.94 51.2899 172.64 51.3199 172.36 51.3399C172.08 51.3599 171.84 51.3899 171.62 51.4099C171.31 51.4299 171.02 51.4699 170.76 51.5099C170.5 51.5499 170.27 51.5899 170.08 51.6099L169.86 49.1299C170.06 49.1399 170.32 49.1599 170.63 49.1799C170.94 49.1999 171.26 49.1999 171.58 49.1799C171.75 49.1799 172.03 49.1799 172.42 49.1599C172.81 49.1499 173.26 49.1299 173.78 49.1099C174.3 49.0899 174.82 49.0599 175.36 49.0299C175.9 48.9999 176.4 48.9599 176.87 48.9199C177.34 48.8799 177.72 48.8399 178.01 48.7999C178.18 48.7799 178.37 48.7499 178.58 48.7099C178.79 48.6699 178.94 48.6399 179.04 48.5999L180.35 50.0899L180.34 50.1099ZM172.37 44.3799C172.87 44.4799 173.45 44.5699 174.1 44.6599C174.75 44.7499 175.42 44.8399 176.11 44.9199C176.8 44.9999 177.46 45.0699 178.09 45.1299C178.72 45.1799 179.26 45.2299 179.72 45.2699L179.43 47.3799C178.96 47.3399 178.41 47.2899 177.78 47.2299C177.15 47.1599 176.5 47.0899 175.82 47.0099C175.14 46.9299 174.47 46.8399 173.81 46.7599C173.15 46.6799 172.56 46.5899 172.03 46.4899L172.37 44.3999V44.3799Z" fill="#FFFBC7"/>
<path d="M192.96 44.6199C192.89 44.8599 192.82 45.1499 192.74 45.4999C192.67 45.8499 192.61 46.1199 192.58 46.3099C192.5 46.7199 192.39 47.2199 192.26 47.7999C192.13 48.3899 192 49.0099 191.85 49.6699C191.7 50.3299 191.55 50.9599 191.39 51.5599C191.23 52.1999 191.04 52.8799 190.81 53.6199C190.58 54.3599 190.34 55.1099 190.08 55.8699C189.82 56.6299 189.56 57.3599 189.3 58.0499C189.04 58.7399 188.78 59.3499 188.53 59.8899L186.03 59.0399C186.29 58.5799 186.58 58.0299 186.88 57.3799C187.18 56.7299 187.47 56.0199 187.75 55.2599C188.03 54.4999 188.29 53.7499 188.53 53.0099C188.77 52.2699 188.97 51.5799 189.14 50.9399C189.26 50.5199 189.37 50.0899 189.48 49.6399C189.59 49.1999 189.68 48.7599 189.77 48.3399C189.85 47.9199 189.93 47.5299 190 47.1599C190.07 46.7899 190.12 46.4699 190.15 46.1999C190.19 45.8599 190.21 45.5299 190.22 45.1899C190.23 44.8499 190.22 44.5799 190.2 44.3799L192.95 44.5999L192.96 44.6199ZM188.37 47.2999C189.1 47.2999 189.86 47.2599 190.66 47.1899C191.45 47.1199 192.25 47.0199 193.05 46.8799C193.85 46.7499 194.65 46.5899 195.44 46.4099V48.6599C194.7 48.8299 193.9 48.9699 193.06 49.0899C192.22 49.2099 191.39 49.2999 190.58 49.3699C189.76 49.4399 189.01 49.4699 188.33 49.4699C187.9 49.4699 187.51 49.4699 187.16 49.4399C186.81 49.4199 186.48 49.4099 186.15 49.3899L186.1 47.1399C186.57 47.1899 186.97 47.2199 187.31 47.2499C187.65 47.2799 188 47.2899 188.37 47.2899V47.2999ZM195 54.5899C194.93 54.8399 194.87 55.0999 194.82 55.3699C194.77 55.6399 194.75 55.8799 194.75 56.0799C194.75 56.2699 194.79 56.4499 194.88 56.6199C194.96 56.7899 195.1 56.9299 195.28 57.0599C195.46 57.1899 195.71 57.2899 196.03 57.3599C196.35 57.4299 196.75 57.4699 197.23 57.4699C197.84 57.4699 198.46 57.4399 199.07 57.3699C199.68 57.2999 200.32 57.2099 200.97 57.0899L200.88 59.3899C200.38 59.4499 199.82 59.5099 199.21 59.5599C198.6 59.6099 197.93 59.6399 197.21 59.6399C195.7 59.6399 194.54 59.3899 193.75 58.8899C192.95 58.3899 192.55 57.6899 192.55 56.7799C192.55 56.3699 192.59 55.9599 192.66 55.5399C192.73 55.1199 192.8 54.7299 192.88 54.3699L195.02 54.5899H195ZM194.02 50.0499C194.52 49.9999 195.08 49.9599 195.69 49.9199C196.3 49.8799 196.9 49.8699 197.47 49.8699C197.99 49.8699 198.51 49.8799 199.05 49.9099C199.59 49.9399 200.11 49.9799 200.64 50.0399L200.59 52.1999C200.15 52.1399 199.66 52.0899 199.12 52.0499C198.59 52.0099 198.04 51.9899 197.49 51.9899C196.88 51.9899 196.29 52.0099 195.72 52.0299C195.15 52.0599 194.58 52.1099 194.02 52.1799V50.0599V50.0499Z" fill="#FFFBC7"/>
<path d="M208.98 60.6299H203V58.6899H206.83V49.1299H208.97V60.6299H208.98Z" fill="white"/>
<path d="M213.27 57.79C213.88 57.75 214.57 57.71 215.32 57.65C216.08 57.6 216.87 57.54 217.71 57.47C218.55 57.4 219.4 57.33 220.25 57.26V59.02C219.04 59.13 217.83 59.24 216.64 59.35C215.45 59.46 214.37 59.56 213.43 59.65L213.27 57.78V57.79ZM213.43 50.48H229.52V52.19H213.43V50.48ZM214.85 51.08H216.81V58.44H214.85V51.08ZM215.55 44.25H227.45V49.83H215.55V44.25ZM216.2 52.91H220.29V54.4H216.2V52.91ZM216.2 55.18H220.29V56.67H216.2V55.18ZM217.62 45.66V46.38H225.29V45.66H217.62ZM217.62 47.69V48.43H225.29V47.69H217.62ZM219.19 51.04H221.24V60.6H219.19V51.04ZM226.93 52.86H227.33L227.69 52.81L229.02 53.31C228.66 54.56 228.15 55.65 227.49 56.6C226.83 57.54 226.05 58.34 225.16 58.99C224.27 59.64 223.28 60.18 222.2 60.58C222.08 60.32 221.91 60.02 221.68 59.69C221.45 59.36 221.24 59.09 221.03 58.89C221.73 58.67 222.39 58.39 223.02 58.03C223.65 57.67 224.22 57.24 224.74 56.75C225.26 56.26 225.7 55.71 226.08 55.11C226.46 54.51 226.74 53.87 226.93 53.18V52.86ZM221.69 52.86H227.58V54.52H221.69V52.86ZM223.88 54.35C224.38 55.45 225.16 56.4 226.19 57.19C227.22 57.98 228.47 58.55 229.91 58.88C229.78 59.01 229.63 59.18 229.46 59.37C229.29 59.57 229.14 59.78 228.99 59.99C228.85 60.21 228.73 60.4 228.63 60.57C227.08 60.1 225.77 59.38 224.7 58.41C223.63 57.44 222.78 56.24 222.15 54.83L223.88 54.34V54.35Z" fill="white"/>
<path d="M236 56.4799C236.35 57.0799 236.84 57.5199 237.48 57.7999C238.12 58.0799 238.89 58.2399 239.8 58.2799C240.34 58.2999 240.99 58.3199 241.75 58.3199C242.51 58.3199 243.31 58.3199 244.14 58.3199C244.97 58.3099 245.79 58.2899 246.59 58.2599C247.39 58.2299 248.1 58.1899 248.74 58.1299C248.66 58.2899 248.57 58.4899 248.48 58.7499C248.39 59.0099 248.31 59.2699 248.23 59.5299C248.15 59.7899 248.1 60.0299 248.06 60.2299C247.51 60.2699 246.87 60.2899 246.15 60.2999C245.43 60.3099 244.69 60.3199 243.92 60.3299C243.15 60.3299 242.41 60.3299 241.69 60.3299C240.97 60.3299 240.33 60.3099 239.78 60.2899C238.7 60.2399 237.78 60.0699 237.03 59.7699C236.27 59.4699 235.63 58.9699 235.09 58.2799C234.74 58.6399 234.37 58.9999 233.98 59.3499C233.59 59.6999 233.17 60.0699 232.71 60.4599L231.68 58.3199C232.06 58.0699 232.47 57.7899 232.89 57.4699C233.31 57.1499 233.73 56.8299 234.12 56.4999H235.99L236 56.4799ZM236 50.6999V57.3399H233.93V52.6999H231.9V50.6999H236ZM231.97 45.3699L233.61 44.1499C233.96 44.4099 234.32 44.7099 234.69 45.0499C235.06 45.3899 235.4 45.7199 235.72 46.0599C236.03 46.3999 236.28 46.7099 236.48 47.0099L234.7 48.3799C234.53 48.0799 234.3 47.7499 234.01 47.3999C233.72 47.0499 233.39 46.6899 233.03 46.3399C232.67 45.9899 232.32 45.6699 231.99 45.3799L231.97 45.3699ZM236.74 44.9199H248.33V46.5899H236.74V44.9199ZM237.21 47.8699H246.64V49.5099H239.15V57.5399H237.21V47.8699ZM238.81 46.6699L240.59 46.2599C240.75 46.4999 240.89 46.7799 241.01 47.0999C241.14 47.4199 241.22 47.6999 241.25 47.9399L239.38 48.3899C239.36 48.1599 239.29 47.8899 239.18 47.5599C239.07 47.2399 238.95 46.9399 238.8 46.6799L238.81 46.6699ZM239.62 50.4299H245.42V51.7399H239.62V50.4299ZM240.07 52.7499H241.55V56.7299H240.07V52.7499ZM240.89 52.7499H244.98V56.1499H240.89V54.9399H243.48V53.9299H240.89V52.7399V52.7499ZM241.34 43.6799H243.43V45.9299H241.34V43.6799ZM241.72 49.4199H243.27V53.0699H241.72V49.4199ZM244.22 46.1299L246.25 46.5599C246.07 46.9099 245.9 47.2399 245.75 47.5499C245.59 47.8599 245.45 48.1399 245.32 48.3799L243.59 47.9499C243.71 47.6699 243.83 47.3699 243.95 47.0199C244.07 46.6799 244.16 46.3799 244.22 46.1299ZM245.95 47.8699H247.93V55.6099C247.93 56.0499 247.88 56.4099 247.79 56.6599C247.69 56.9199 247.5 57.1299 247.21 57.2799C246.91 57.4199 246.56 57.5099 246.17 57.5499C245.77 57.5899 245.31 57.5999 244.78 57.5999C244.74 57.3399 244.67 57.0399 244.55 56.6999C244.43 56.3599 244.32 56.0799 244.2 55.8399C244.5 55.8499 244.79 55.8599 245.08 55.8599H245.67C245.78 55.8599 245.85 55.8399 245.89 55.7999C245.93 55.7599 245.94 55.6899 245.94 55.5899V47.8699H245.95Z" fill="white"/>
<path d="M264.94 47.2099C264.86 47.3799 264.78 47.5799 264.72 47.8099C264.66 48.0399 264.6 48.2599 264.54 48.4499C264.44 48.8899 264.32 49.3899 264.16 49.9299C264 50.4699 263.82 51.0399 263.6 51.6299C263.38 52.2199 263.13 52.7999 262.83 53.3799C262.54 53.9599 262.2 54.4999 261.83 54.9999C261.29 55.7199 260.66 56.3899 259.94 57.0199C259.22 57.6499 258.42 58.2099 257.53 58.7099C256.64 59.2099 255.66 59.6399 254.6 59.9899L252.64 57.8299C253.84 57.5399 254.87 57.1899 255.74 56.7699C256.61 56.3499 257.36 55.8699 258 55.3299C258.64 54.7899 259.21 54.2099 259.7 53.5999C260.1 53.0999 260.44 52.5499 260.72 51.9599C261 51.3699 261.24 50.7799 261.42 50.1899C261.61 49.5999 261.74 49.0399 261.81 48.5199H253.44C253.02 48.5199 252.61 48.5199 252.23 48.5399C251.84 48.5499 251.53 48.5699 251.3 48.5899V46.0499C251.48 46.0699 251.7 46.0999 251.96 46.1199C252.22 46.1399 252.48 46.1599 252.75 46.1699C253.02 46.1799 253.25 46.1899 253.44 46.1899H261.77C261.95 46.1899 262.17 46.1899 262.43 46.1699C262.69 46.1599 262.94 46.1199 263.18 46.0399L264.94 47.1899V47.2099ZM262.77 45.7899C262.77 45.3899 262.87 45.0299 263.07 44.6999C263.27 44.3699 263.53 44.1099 263.85 43.9199C264.17 43.7299 264.53 43.6299 264.91 43.6299C265.29 43.6299 265.67 43.7299 266 43.9199C266.33 44.1099 266.59 44.3699 266.78 44.6999C266.97 45.0299 267.07 45.3899 267.07 45.7899C267.07 46.1899 266.97 46.5299 266.78 46.8499C266.59 47.1699 266.33 47.4299 266 47.6299C265.67 47.8299 265.31 47.9299 264.91 47.9299C264.51 47.9299 264.17 47.8299 263.85 47.6299C263.53 47.4299 263.27 47.1699 263.07 46.8499C262.87 46.5299 262.77 46.1699 262.77 45.7899ZM263.88 45.7899C263.88 46.0799 263.98 46.3199 264.19 46.5199C264.39 46.7199 264.63 46.8199 264.91 46.8199C265.19 46.8199 265.44 46.7199 265.65 46.5199C265.85 46.3199 265.96 46.0799 265.96 45.7899C265.96 45.4999 265.86 45.2599 265.65 45.0499C265.45 44.8499 265.2 44.7399 264.91 44.7399C264.62 44.7399 264.39 44.8399 264.19 45.0499C263.99 45.2499 263.88 45.4999 263.88 45.7899Z" fill="white"/>
<path d="M282.49 50.3899C282.43 50.5099 282.37 50.6399 282.3 50.7899C282.23 50.9299 282.18 51.0499 282.15 51.1499C281.87 52.0099 281.53 52.8799 281.11 53.7299C280.7 54.5899 280.15 55.3899 279.48 56.1299C278.58 57.1399 277.57 57.9599 276.46 58.5899C275.34 59.2199 274.21 59.6999 273.06 60.0199L271.28 57.9899C272.64 57.6999 273.84 57.2799 274.9 56.7299C275.96 56.1799 276.83 55.5499 277.51 54.8399C277.99 54.3499 278.38 53.8299 278.67 53.2799C278.96 52.7299 279.19 52.2199 279.36 51.7199H270.67C270.45 51.7199 270.15 51.7199 269.75 51.7399C269.35 51.7499 268.96 51.7799 268.58 51.8099V49.4699C268.96 49.4899 269.34 49.5199 269.7 49.5399C270.07 49.5599 270.39 49.5799 270.66 49.5799H279.57C279.86 49.5799 280.12 49.5599 280.35 49.5299C280.58 49.4899 280.76 49.4499 280.88 49.3999L282.48 50.3899H282.49ZM270.23 45.1699C270.48 45.2099 270.78 45.2299 271.13 45.2399C271.48 45.2499 271.8 45.2599 272.1 45.2599H279.03C279.31 45.2599 279.64 45.2599 280.02 45.2399C280.4 45.2299 280.72 45.1999 280.97 45.1699V47.4899C280.73 47.4699 280.42 47.4499 280.04 47.4499C279.66 47.4499 279.31 47.4499 278.99 47.4499H272.1C271.81 47.4499 271.5 47.4499 271.16 47.4699C270.82 47.4799 270.51 47.4899 270.23 47.5099V45.1899V45.1699Z" fill="white"/>
<path d="M285.73 57.2901C286.67 57.1601 287.55 56.97 288.38 56.73C289.21 56.49 289.98 56.2101 290.68 55.9001C291.39 55.5901 292.04 55.26 292.62 54.93C293.64 54.3201 294.58 53.62 295.43 52.84C296.28 52.0601 297.03 51.2501 297.66 50.4001C298.3 49.5501 298.8 48.73 299.17 47.93L300.57 50.4701C300.11 51.2701 299.55 52.0801 298.89 52.8801C298.22 53.6801 297.47 54.45 296.63 55.17C295.79 55.9 294.88 56.55 293.91 57.12C293.3 57.49 292.64 57.84 291.93 58.17C291.22 58.5 290.47 58.79 289.69 59.05C288.91 59.31 288.09 59.5101 287.23 59.6501L285.72 57.2701L285.73 57.2901ZM287.98 45.3C288.29 45.52 288.66 45.78 289.08 46.09C289.5 46.4 289.94 46.7401 290.39 47.1101C290.84 47.4801 291.26 47.83 291.66 48.18C292.06 48.53 292.38 48.84 292.63 49.12L290.79 50.9901C290.56 50.7401 290.26 50.44 289.89 50.09C289.52 49.74 289.12 49.38 288.68 49.01C288.25 48.64 287.82 48.2801 287.4 47.9501C286.98 47.6101 286.61 47.33 286.28 47.1L287.97 45.3H287.98Z" fill="white"/>
</g>
<defs>
<clipPath id="clip0_100_1160">
<rect width="312" height="77" fill="white"/>
</clipPath>
</defs>
</svg>
