<svg width="312" height="77" viewBox="0 0 312 77" fill="none" xmlns="http://www.w3.org/2000/svg">
<g clip-path="url(#clip0_100_1190)">
<path d="M312 0H0V77H312V0Z" fill="#6B8A2E"/>
<path d="M36.1599 63.74C29.4199 63.74 23.0799 61.12 18.3199 56.35C13.5499 51.58 10.9299 45.24 10.9299 38.5C10.9299 31.76 13.5599 25.42 18.3199 20.65C23.0799 15.88 29.4299 13.26 36.1699 13.26C42.9099 13.26 49.2499 15.89 54.0199 20.65C62.7299 29.36 63.8999 42.94 56.8299 53C56.1799 54.64 56.2499 55.77 57.0999 57.59C57.2999 58.03 57.2699 58.52 57.0199 58.92C56.7599 59.32 56.3299 59.56 55.8499 59.56C55.6499 59.56 55.4499 59.52 55.2599 59.43C54.2099 58.94 53.4099 58.72 52.6499 58.72C52.0499 58.72 51.4099 58.86 50.6699 59.15C46.4099 62.14 41.3999 63.73 36.1599 63.73V63.74Z" fill="#FFFBC7"/>
<path d="M36.17 14.02C42.43 14.02 48.7001 16.41 53.48 21.19C62.0401 29.75 62.93 43.07 56.16 52.63C55.39 54.53 55.4701 55.89 56.41 57.92C56.62 58.36 56.28 58.81 55.85 58.81C55.76 58.81 55.6701 58.79 55.5801 58.75C54.4701 58.23 53.5601 57.97 52.6501 57.97C51.9001 57.97 51.16 58.14 50.3 58.49C46.08 61.48 41.12 62.98 36.16 62.98C29.9 62.98 23.64 60.59 18.86 55.81C9.30005 46.25 9.30005 30.75 18.86 21.19C23.64 16.41 29.9 14.02 36.17 14.02ZM36.17 12.49C29.22 12.49 22.69 15.2 17.78 20.11C7.64005 30.25 7.64005 46.75 17.78 56.89C22.69 61.8 29.22 64.5 36.16 64.5C41.52 64.5 46.66 62.89 51.03 59.84C51.65 59.6 52.1701 59.49 52.6501 59.49C53.2901 59.49 54 59.69 54.94 60.12C55.23 60.26 55.5401 60.33 55.8601 60.33C56.6001 60.33 57.27 59.96 57.67 59.33C58.07 58.71 58.1101 57.94 57.8 57.26C57.05 55.65 56.98 54.75 57.51 53.35C64.73 43 63.5101 29.05 54.5601 20.1C49.6501 15.19 43.12 12.48 36.17 12.48V12.49Z" fill="#6B8A2E"/>
<path d="M28.78 20.99C28.91 21 29.04 21.01 29.18 21.02C29.31 21.02 29.45 21.02 29.61 21.02C29.69 21.02 29.82 21.02 30 21.02C30.18 21.02 30.39 21.01 30.62 21C30.85 21 31.09 20.98 31.33 20.97C31.57 20.96 31.79 20.94 31.99 20.93C32.19 20.91 32.34 20.9 32.45 20.89C32.58 20.88 32.7 20.86 32.79 20.84C32.89 20.82 32.96 20.8 33.02 20.78L33.62 21.47C33.54 21.52 33.44 21.59 33.32 21.67C33.2 21.75 33.09 21.83 33.02 21.9C32.88 22.01 32.73 22.14 32.55 22.28C32.38 22.42 32.2 22.57 32.01 22.72C31.82 22.87 31.64 23.03 31.45 23.18C31.26 23.33 31.08 23.48 30.91 23.62C30.74 23.76 30.58 23.89 30.43 24C30.88 23.95 31.36 23.91 31.86 23.87C32.36 23.83 32.85 23.8 33.34 23.78C33.83 23.76 34.28 23.74 34.7 23.74V24.63C34.25 24.6 33.8 24.59 33.37 24.6C32.94 24.6 32.58 24.62 32.29 24.66C32.07 24.69 31.86 24.76 31.65 24.86C31.45 24.96 31.26 25.09 31.1 25.23C30.94 25.37 30.81 25.55 30.71 25.74C30.62 25.93 30.57 26.13 30.57 26.34C30.57 26.62 30.64 26.85 30.78 27.03C30.92 27.21 31.11 27.34 31.34 27.43C31.58 27.52 31.84 27.59 32.12 27.62C32.39 27.65 32.65 27.67 32.89 27.66C33.13 27.66 33.34 27.65 33.51 27.64L33.31 28.62C32.13 28.66 31.22 28.51 30.59 28.15C29.95 27.79 29.63 27.24 29.63 26.49C29.63 26.25 29.68 26.03 29.77 25.81C29.86 25.59 29.98 25.41 30.12 25.24C30.26 25.07 30.4 24.93 30.54 24.83C30.07 24.87 29.55 24.92 28.99 24.99C28.43 25.06 27.89 25.14 27.36 25.23L27.28 24.33C27.54 24.31 27.82 24.27 28.12 24.24C28.42 24.2 28.69 24.17 28.93 24.15C29.17 23.99 29.43 23.8 29.7 23.59C29.97 23.37 30.25 23.15 30.52 22.92C30.79 22.69 31.05 22.48 31.28 22.28C31.51 22.08 31.7 21.92 31.85 21.78C31.77 21.78 31.66 21.79 31.51 21.8C31.36 21.8 31.19 21.82 31 21.83C30.81 21.84 30.63 21.85 30.45 21.86C30.27 21.86 30.1 21.87 29.95 21.88C29.8 21.88 29.69 21.9 29.6 21.9C29.48 21.9 29.35 21.92 29.21 21.93C29.07 21.95 28.94 21.96 28.81 21.97L28.76 21.01L28.78 20.99Z" fill="#5F161E"/>
<path d="M41.95 21.66C41.89 22.15 41.81 22.66 41.71 23.2C41.61 23.74 41.48 24.27 41.32 24.8C41.13 25.44 40.92 25.99 40.68 26.43C40.44 26.87 40.19 27.21 39.91 27.45C39.63 27.68 39.34 27.8 39.03 27.8C38.72 27.8 38.42 27.69 38.15 27.47C37.88 27.25 37.66 26.95 37.49 26.55C37.32 26.16 37.23 25.7 37.23 25.17C37.23 24.64 37.34 24.14 37.56 23.67C37.78 23.2 38.08 22.78 38.46 22.41C38.84 22.04 39.29 21.76 39.8 21.55C40.31 21.34 40.86 21.24 41.45 21.24C42.04 21.24 42.53 21.33 42.99 21.51C43.45 21.69 43.84 21.95 44.16 22.27C44.49 22.59 44.73 22.97 44.9 23.41C45.07 23.84 45.16 24.31 45.16 24.8C45.16 25.46 45.02 26.05 44.75 26.56C44.48 27.07 44.07 27.49 43.54 27.82C43.01 28.14 42.36 28.36 41.59 28.48L41.03 27.59C41.19 27.57 41.35 27.55 41.48 27.53C41.61 27.51 41.75 27.48 41.87 27.46C42.17 27.39 42.46 27.28 42.74 27.14C43.01 26.99 43.26 26.81 43.47 26.59C43.68 26.37 43.85 26.1 43.98 25.8C44.1 25.5 44.16 25.16 44.16 24.78C44.16 24.4 44.1 24.05 43.98 23.73C43.86 23.41 43.68 23.12 43.45 22.88C43.22 22.64 42.93 22.45 42.59 22.32C42.25 22.18 41.87 22.12 41.44 22.12C40.92 22.12 40.46 22.21 40.06 22.39C39.66 22.57 39.31 22.81 39.03 23.11C38.75 23.41 38.54 23.73 38.39 24.08C38.24 24.43 38.17 24.76 38.17 25.08C38.17 25.44 38.21 25.74 38.3 25.97C38.39 26.21 38.5 26.38 38.63 26.49C38.76 26.6 38.9 26.66 39.04 26.66C39.18 26.66 39.32 26.59 39.46 26.45C39.61 26.31 39.75 26.08 39.9 25.77C40.05 25.46 40.19 25.07 40.34 24.59C40.49 24.14 40.61 23.65 40.7 23.14C40.79 22.63 40.87 22.12 40.91 21.63L41.92 21.65L41.95 21.66Z" fill="#5F161E"/>
<path d="M28.3899 55.16V52.54C30.3699 50.65 32.0999 48.93 33.5799 47.4C35.0599 45.87 36.2099 44.47 37.0399 43.2C37.8599 41.93 38.2699 40.76 38.2699 39.67C38.2699 38.91 38.1399 38.26 37.8699 37.72C37.5999 37.18 37.2199 36.77 36.7099 36.49C36.2099 36.2 35.5799 36.06 34.8399 36.06C34.0199 36.06 33.2599 36.3 32.5699 36.77C31.8799 37.24 31.2499 37.79 30.6699 38.41L28.1399 35.94C29.2099 34.81 30.3099 33.95 31.4299 33.36C32.5499 32.77 33.8799 32.48 35.4299 32.48C36.8699 32.48 38.1299 32.77 39.2099 33.34C40.2899 33.92 41.1299 34.72 41.7299 35.76C42.3299 36.8 42.6299 38.02 42.6299 39.42C42.6299 40.7 42.2699 42 41.5599 43.34C40.8499 44.68 39.9099 46.03 38.7499 47.4C37.5899 48.77 36.3199 50.17 34.9399 51.61C35.5199 51.53 36.1499 51.46 36.8499 51.41C37.5499 51.36 38.1699 51.33 38.6999 51.33H43.6999V55.16H28.3899Z" fill="#6B8A2E"/>
<path d="M68.22 18.6399H74.2V20.5799H70.37V30.1399H68.23V18.6399H68.22Z" fill="white"/>
<path d="M83.93 28.99L85.41 30.09C84.93 30.55 84.36 30.9999 83.71 31.4599C83.06 31.9199 82.35 32.35 81.6 32.77C80.85 33.19 80.09 33.5599 79.32 33.91C78.55 34.26 77.81 34.55 77.11 34.79C76.98 34.51 76.81 34.21 76.6 33.86C76.39 33.52 76.18 33.23 75.98 32.99C76.69 32.82 77.42 32.59 78.18 32.31C78.94 32.02 79.67 31.7 80.39 31.34C81.11 30.98 81.78 30.6 82.39 30.2C83 29.8 83.52 29.4 83.94 29L83.93 28.99ZM83.88 23.68L85.66 24.44C85.02 25.09 84.26 25.67 83.36 26.19C82.46 26.71 81.5 27.17 80.49 27.57C79.48 27.9699 78.47 28.2999 77.48 28.5599C77.41 28.4199 77.31 28.24 77.17 28.03C77.04 27.82 76.9 27.61 76.76 27.3899C76.62 27.1699 76.48 27 76.36 26.87C77.33 26.68 78.29 26.4299 79.25 26.1299C80.2 25.8299 81.08 25.4699 81.89 25.0599C82.69 24.65 83.36 24.19 83.89 23.68H83.88ZM76.52 20.12H91.86V24.17H89.65V22.08H78.65V24.17H76.53V20.12H76.52ZM82.48 27.27L83.87 28.24C83.38 28.62 82.78 29.02 82.07 29.43C81.36 29.84 80.63 30.2199 79.86 30.5599C79.1 30.91 78.38 31.2 77.71 31.44C77.59 31.2 77.43 30.92 77.22 30.59C77.02 30.27 76.82 29.9999 76.63 29.7999C77.11 29.6799 77.62 29.53 78.17 29.34C78.72 29.15 79.26 28.9499 79.79 28.7199C80.32 28.49 80.83 28.26 81.29 28.01C81.76 27.76 82.15 27.51 82.48 27.26V27.27ZM79.27 23.2099H88.99V25.0499H79.27V23.2099ZM81.02 26.44L82.69 25.4699C83.54 26.0599 84.23 26.72 84.74 27.44C85.25 28.16 85.63 28.9 85.87 29.65C86.11 30.4 86.22 31.12 86.21 31.8099C86.2 32.4999 86.08 33.11 85.87 33.65C85.65 34.18 85.35 34.59 84.95 34.88C84.61 35.17 84.28 35.37 83.95 35.47C83.62 35.57 83.22 35.63 82.74 35.63C82.52 35.64 82.28 35.64 82.02 35.63C81.76 35.62 81.49 35.61 81.21 35.59C81.2 35.29 81.14 34.9399 81.05 34.5499C80.95 34.1599 80.8 33.8199 80.6 33.5099C80.94 33.5299 81.25 33.5599 81.55 33.57C81.84 33.59 82.1 33.5999 82.33 33.5999C82.56 33.5999 82.76 33.5799 82.94 33.5299C83.12 33.4799 83.28 33.38 83.43 33.22C83.65 33.05 83.81 32.7899 83.91 32.4399C84.01 32.0899 84.05 31.67 84.02 31.18C83.99 30.69 83.87 30.1799 83.66 29.6299C83.45 29.0799 83.13 28.54 82.71 27.9799C82.28 27.4299 81.72 26.91 81.03 26.41L81.02 26.44ZM83.02 18.7H85.25V21.27H83.02V18.7ZM86.65 23.99C86.95 25.25 87.36 26.43 87.87 27.54C88.39 28.64 89.03 29.6199 89.81 30.4599C90.58 31.2999 91.5 31.9599 92.57 32.4399C92.41 32.5799 92.24 32.7599 92.05 32.9799C91.86 33.2 91.67 33.42 91.5 33.66C91.33 33.9 91.18 34.12 91.06 34.31C89.93 33.7 88.97 32.9 88.16 31.92C87.35 30.94 86.69 29.81 86.16 28.54C85.63 27.26 85.19 25.87 84.85 24.37L86.65 23.99ZM90.18 25.16L91.85 26.62C91.44 26.93 91 27.2499 90.54 27.5599C90.07 27.8799 89.61 28.17 89.15 28.44C88.69 28.71 88.27 28.95 87.87 29.17L86.5 27.86C86.87 27.64 87.28 27.38 87.73 27.08C88.18 26.7699 88.62 26.45 89.05 26.12C89.48 25.78 89.85 25.47 90.17 25.17L90.18 25.16Z" fill="white"/>
<path d="M94.4099 21.67H101.81V23.38H94.4099V21.67ZM95.2399 29.15H97.1099V35.34H95.2399V29.15ZM95.2899 24.21H101.1V25.85H95.2899V24.21ZM95.2899 26.67H101.1V28.29H95.2899V26.67ZM95.3999 19.26H101.12V20.88H95.3999V19.26ZM96.2799 29.15H101.05V34.64H96.2799V32.93H99.1399V30.86H96.2799V29.15ZM101.74 24.75H111.5V26.89H101.74V24.75ZM105.54 18.77H107.72V35.6H105.54V18.77Z" fill="white"/>
<path d="M123.21 21.6499C123.09 22.5599 122.93 23.5299 122.74 24.5699C122.55 25.5999 122.29 26.6499 121.97 27.6999C121.62 28.9099 121.21 29.9599 120.75 30.8299C120.29 31.6999 119.77 32.3799 119.21 32.8499C118.65 33.3199 118.04 33.5599 117.38 33.5599C116.72 33.5599 116.11 33.3299 115.55 32.8899C114.99 32.4399 114.55 31.8199 114.22 31.0299C113.89 30.2399 113.72 29.3399 113.72 28.3299C113.72 27.3199 113.93 26.2999 114.35 25.3799C114.77 24.4599 115.35 23.6399 116.1 22.9199C116.85 22.2099 117.73 21.6499 118.73 21.2399C119.73 20.8299 120.81 20.6299 121.98 20.6299C123.15 20.6299 124.1 20.8099 124.99 21.1699C125.88 21.5299 126.65 22.0299 127.28 22.6599C127.92 23.2999 128.4 24.0399 128.74 24.8899C129.08 25.7399 129.24 26.6599 129.24 27.6399C129.24 28.8999 128.98 30.0299 128.47 31.0199C127.95 32.0199 127.19 32.8399 126.18 33.4899C125.17 34.1399 123.9 34.5799 122.39 34.8199L121.04 32.6799C121.39 32.6399 121.69 32.5999 121.96 32.5499C122.22 32.4999 122.48 32.4499 122.72 32.3899C123.3 32.2499 123.83 32.0399 124.33 31.7699C124.83 31.4999 125.26 31.1599 125.64 30.7599C126.01 30.3599 126.3 29.8899 126.51 29.3499C126.72 28.8099 126.82 28.2199 126.82 27.5699C126.82 26.8599 126.71 26.2099 126.5 25.6299C126.28 25.0399 125.97 24.5299 125.55 24.0899C125.13 23.6499 124.62 23.3199 124.02 23.0799C123.42 22.8499 122.73 22.7299 121.95 22.7299C120.99 22.7299 120.14 22.8999 119.41 23.2399C118.68 23.5799 118.06 24.0199 117.56 24.5599C117.06 25.0999 116.67 25.6799 116.42 26.3099C116.17 26.9399 116.03 27.5299 116.03 28.0899C116.03 28.6899 116.1 29.1899 116.25 29.5899C116.39 29.9899 116.57 30.2899 116.78 30.4899C116.99 30.6899 117.21 30.7899 117.45 30.7899C117.69 30.7899 117.95 30.6599 118.2 30.3999C118.45 30.1399 118.69 29.7499 118.93 29.2199C119.17 28.6899 119.41 28.0299 119.65 27.2199C119.93 26.3599 120.16 25.4299 120.35 24.4499C120.54 23.4699 120.68 22.5099 120.76 21.5699L123.21 21.6399V21.6499Z" fill="white"/>
<path d="M132.17 20.2501H134.15V32.5101H132.17V20.2501ZM133.29 20.2501H137.61V31.0701H133.29V28.9601H135.67V22.3401H133.29V20.2501ZM141.77 26.9401L143.46 27.4601C143.1 28.4301 142.66 29.3701 142.13 30.2601C141.6 31.1501 141.01 31.9601 140.35 32.6701C139.69 33.3801 138.98 33.9901 138.21 34.4801C138.1 34.3101 137.96 34.1201 137.8 33.9101C137.63 33.7001 137.45 33.4901 137.27 33.2901C137.08 33.0901 136.91 32.9101 136.76 32.7701C137.48 32.3901 138.16 31.8901 138.81 31.2801C139.46 30.6701 140.04 29.9901 140.55 29.2501C141.06 28.5101 141.47 27.7401 141.78 26.9501L141.77 26.9401ZM138.1 25.6801H148.43V27.7301H138.1V25.6801ZM138.67 21.4001H147.87V23.4501H138.67V21.4001ZM141.97 18.8401H144.15V35.5401H141.97V18.8401ZM144.32 26.8901C144.62 27.6301 145 28.3701 145.44 29.1101C145.89 29.8501 146.39 30.5301 146.94 31.1501C147.49 31.7701 148.06 32.3001 148.65 32.7301C148.49 32.8601 148.31 33.0301 148.11 33.2401C147.9 33.4501 147.71 33.6701 147.52 33.8901C147.33 34.1101 147.18 34.3201 147.04 34.5101C146.44 33.9701 145.87 33.3201 145.33 32.5701C144.79 31.8101 144.3 30.9901 143.85 30.1001C143.41 29.2101 143.02 28.3101 142.7 27.3801L144.3 26.8801L144.32 26.8901Z" fill="white"/>
<path d="M155.83 22.8001H158.24C158.19 23.7601 158.12 24.7301 158.02 25.7101C157.92 26.6901 157.75 27.6501 157.51 28.6101C157.27 29.5701 156.92 30.4701 156.47 31.3401C156.02 32.2101 155.41 33.0101 154.67 33.7501C153.93 34.4901 152.98 35.1501 151.84 35.7301C151.68 35.4301 151.46 35.1101 151.17 34.7601C150.88 34.4101 150.59 34.1201 150.32 33.9001C151.36 33.4201 152.22 32.8601 152.88 32.2201C153.54 31.5801 154.07 30.8801 154.46 30.1301C154.84 29.3801 155.13 28.6001 155.31 27.7801C155.5 26.9601 155.62 26.1401 155.69 25.3001C155.76 24.4601 155.81 23.6301 155.84 22.8201L155.83 22.8001ZM150.62 21.5801H166.95V23.6301H150.62V21.5801ZM156.64 25.9901H163.53V28.0201H156.64V25.9901ZM157.55 18.6101H159.8V22.3901H157.55V18.6101ZM162.72 25.9901H164.95C164.94 26.2201 164.93 26.4001 164.93 26.5501C164.93 26.7001 164.92 26.8201 164.89 26.9301C164.78 28.5701 164.66 29.9201 164.53 30.9601C164.4 32.0001 164.25 32.8201 164.08 33.4001C163.91 33.9801 163.71 34.4001 163.47 34.6701C163.19 34.9701 162.91 35.1701 162.61 35.2801C162.31 35.3901 161.95 35.4701 161.53 35.5101C161.18 35.5501 160.73 35.5601 160.16 35.5601C159.6 35.5601 159.01 35.5401 158.41 35.5101C158.4 35.2001 158.32 34.8401 158.18 34.4401C158.04 34.0401 157.86 33.6901 157.64 33.3901C158.26 33.4501 158.86 33.4901 159.44 33.5001C160.02 33.5101 160.43 33.5201 160.68 33.5201C160.88 33.5201 161.06 33.5001 161.19 33.4701C161.33 33.4401 161.45 33.3801 161.56 33.2801C161.75 33.1201 161.92 32.7801 162.06 32.2501C162.2 31.7201 162.32 30.9701 162.43 30.0001C162.54 29.0301 162.63 27.8001 162.72 26.3101V25.9901Z" fill="white"/>
<path d="M174.71 35.6299H168.73V33.6899H172.56V24.1299H174.7V35.6299H174.71Z" fill="white"/>
<path d="M183.44 20.19C183.39 20.31 183.34 20.48 183.28 20.69C183.22 20.91 183.16 21.12 183.11 21.32C183.06 21.52 183.02 21.68 182.99 21.79C182.95 22.04 182.9 22.37 182.82 22.77C182.74 23.17 182.66 23.62 182.59 24.12C182.52 24.62 182.44 25.13 182.37 25.64C182.3 26.16 182.24 26.65 182.2 27.13C182.16 27.61 182.14 28.03 182.14 28.39C182.14 28.56 182.14 28.75 182.14 28.97C182.14 29.19 182.17 29.38 182.2 29.56C182.28 29.36 182.37 29.15 182.47 28.95C182.57 28.75 182.66 28.54 182.76 28.33C182.86 28.12 182.94 27.92 183.01 27.73L184.13 28.61C183.96 29.1 183.79 29.63 183.62 30.19C183.45 30.75 183.29 31.29 183.15 31.78C183.01 32.28 182.91 32.69 182.83 33.01C182.81 33.14 182.79 33.29 182.77 33.46C182.75 33.63 182.74 33.76 182.74 33.86C182.74 33.96 182.74 34.07 182.74 34.21C182.74 34.35 182.76 34.48 182.77 34.6L180.68 34.74C180.5 34.12 180.34 33.29 180.19 32.25C180.05 31.21 179.97 30.08 179.97 28.86C179.97 28.19 180 27.5 180.06 26.81C180.12 26.11 180.19 25.45 180.28 24.8C180.37 24.15 180.45 23.57 180.52 23.05C180.6 22.52 180.67 22.08 180.73 21.74C180.75 21.49 180.79 21.2 180.83 20.89C180.87 20.57 180.9 20.27 180.91 19.98L183.43 20.2L183.44 20.19ZM187.65 29.08C187.58 29.38 187.52 29.65 187.49 29.88C187.45 30.11 187.44 30.35 187.44 30.59C187.44 30.78 187.49 30.96 187.58 31.12C187.68 31.28 187.82 31.42 188.02 31.53C188.22 31.64 188.48 31.73 188.79 31.78C189.11 31.83 189.49 31.86 189.95 31.86C190.75 31.86 191.51 31.82 192.22 31.74C192.93 31.66 193.68 31.55 194.47 31.39L194.51 33.82C193.93 33.93 193.27 34.01 192.52 34.07C191.77 34.13 190.89 34.16 189.86 34.16C188.31 34.16 187.16 33.9 186.4 33.38C185.64 32.86 185.27 32.14 185.27 31.21C185.27 30.86 185.3 30.5 185.35 30.12C185.4 29.74 185.48 29.33 185.57 28.87L187.64 29.07L187.65 29.08ZM186.21 21.4C186.76 21.47 187.38 21.52 188.07 21.55C188.76 21.58 189.46 21.59 190.18 21.59C190.89 21.59 191.58 21.56 192.24 21.52C192.9 21.48 193.47 21.43 193.95 21.38V23.7C193.4 23.75 192.79 23.79 192.13 23.82C191.47 23.85 190.79 23.86 190.1 23.86C189.41 23.86 188.72 23.85 188.06 23.82C187.39 23.79 186.78 23.75 186.22 23.7V21.4H186.21Z" fill="white"/>
<path d="M204.84 19.49C204.77 19.79 204.67 20.18 204.55 20.66C204.43 21.14 204.3 21.64 204.14 22.17C203.99 22.7 203.83 23.22 203.66 23.74C203.4 24.6 203.05 25.52 202.62 26.49C202.19 27.46 201.72 28.41 201.22 29.33C200.72 30.25 200.21 31.08 199.69 31.8L197.51 30.68C197.92 30.18 198.32 29.62 198.72 29.01C199.12 28.4 199.49 27.77 199.84 27.12C200.19 26.47 200.5 25.85 200.78 25.24C201.06 24.63 201.29 24.08 201.46 23.59C201.69 22.95 201.89 22.24 202.06 21.46C202.23 20.67 202.33 19.93 202.36 19.24L204.84 19.49ZM197.84 22.19C198.22 22.24 198.63 22.27 199.07 22.29C199.51 22.31 199.9 22.32 200.23 22.32C200.97 22.32 201.73 22.28 202.49 22.19C203.25 22.11 203.99 22 204.69 21.86C205.4 21.72 206.04 21.56 206.62 21.38L206.69 23.47C206.17 23.6 205.56 23.74 204.85 23.88C204.14 24.02 203.38 24.13 202.59 24.22C201.8 24.31 201.02 24.36 200.25 24.36C199.89 24.36 199.52 24.36 199.15 24.34C198.78 24.33 198.39 24.31 198 24.29L197.84 22.2V22.19ZM209.05 25.09C209.03 25.47 209.02 25.86 209.02 26.23C209.02 26.6 209.04 27 209.05 27.39C209.06 27.67 209.08 28.02 209.09 28.44C209.11 28.87 209.13 29.32 209.15 29.79C209.17 30.26 209.19 30.71 209.21 31.14C209.23 31.57 209.24 31.91 209.24 32.16C209.24 32.71 209.13 33.21 208.9 33.66C208.67 34.11 208.31 34.47 207.81 34.73C207.31 34.99 206.63 35.13 205.77 35.13C205.03 35.13 204.35 35.02 203.75 34.8C203.15 34.58 202.67 34.25 202.31 33.81C201.95 33.37 201.77 32.82 201.77 32.16C201.77 31.57 201.93 31.04 202.24 30.57C202.55 30.1 203 29.72 203.6 29.45C204.19 29.18 204.91 29.04 205.75 29.04C206.81 29.04 207.78 29.19 208.67 29.48C209.56 29.77 210.36 30.15 211.06 30.6C211.77 31.06 212.37 31.51 212.88 31.97L211.67 33.9C211.35 33.61 210.98 33.29 210.56 32.93C210.15 32.57 209.68 32.23 209.17 31.92C208.66 31.61 208.11 31.35 207.51 31.15C206.92 30.95 206.28 30.84 205.59 30.84C205.07 30.84 204.66 30.94 204.35 31.15C204.04 31.35 203.88 31.62 203.88 31.94C203.88 32.26 204.02 32.55 204.29 32.75C204.56 32.95 204.94 33.06 205.43 33.06C205.84 33.06 206.16 32.99 206.4 32.85C206.64 32.71 206.81 32.51 206.9 32.26C207 32 207.04 31.71 207.04 31.39C207.04 31.11 207.03 30.72 207 30.22C206.98 29.72 206.95 29.16 206.92 28.55C206.89 27.94 206.86 27.33 206.84 26.71C206.82 26.1 206.79 25.56 206.77 25.09H209.02H209.05ZM212.15 26.04C211.8 25.75 211.37 25.45 210.85 25.12C210.33 24.8 209.8 24.49 209.26 24.19C208.71 23.9 208.24 23.66 207.83 23.48L208.98 21.7C209.3 21.84 209.67 22.02 210.09 22.23C210.5 22.44 210.92 22.66 211.35 22.89C211.78 23.12 212.17 23.34 212.54 23.56C212.91 23.78 213.2 23.98 213.43 24.14L212.15 26.03V26.04Z" fill="white"/>
<path d="M218.13 20.26C218.38 20.3 218.65 20.32 218.94 20.33C219.23 20.34 219.5 20.35 219.77 20.35C219.96 20.35 220.25 20.35 220.63 20.35C221.01 20.35 221.45 20.33 221.93 20.32C222.42 20.31 222.9 20.3 223.38 20.28C223.86 20.27 224.3 20.25 224.69 20.24C225.08 20.22 225.38 20.21 225.6 20.2C225.97 20.16 226.27 20.13 226.48 20.1C226.7 20.07 226.86 20.04 226.97 20L228.14 21.6C227.94 21.73 227.73 21.86 227.51 22C227.29 22.13 227.08 22.28 226.88 22.43C226.64 22.6 226.35 22.82 226.02 23.09C225.69 23.36 225.33 23.65 224.95 23.94C224.57 24.24 224.21 24.53 223.85 24.82C223.5 25.11 223.18 25.37 222.89 25.59C223.19 25.52 223.48 25.47 223.75 25.44C224.03 25.41 224.31 25.4 224.6 25.4C225.62 25.4 226.54 25.6 227.35 25.99C228.16 26.38 228.8 26.92 229.28 27.6C229.75 28.28 229.99 29.06 229.99 29.93C229.99 30.88 229.75 31.74 229.27 32.5C228.79 33.27 228.07 33.88 227.1 34.34C226.13 34.8 224.93 35.02 223.47 35.02C222.64 35.02 221.89 34.9 221.23 34.66C220.56 34.42 220.04 34.08 219.65 33.63C219.26 33.18 219.07 32.66 219.07 32.06C219.07 31.57 219.2 31.11 219.47 30.68C219.74 30.25 220.12 29.91 220.6 29.65C221.09 29.39 221.65 29.25 222.28 29.25C223.11 29.25 223.81 29.42 224.38 29.74C224.95 30.07 225.39 30.51 225.69 31.06C226 31.61 226.15 32.22 226.17 32.88L224.06 33.17C224.05 32.51 223.88 31.98 223.56 31.58C223.24 31.18 222.82 30.98 222.29 30.98C221.95 30.98 221.68 31.07 221.48 31.24C221.28 31.41 221.17 31.62 221.17 31.84C221.17 32.18 221.34 32.45 221.67 32.65C222 32.85 222.44 32.96 222.98 32.96C224 32.96 224.85 32.84 225.54 32.59C226.22 32.34 226.74 31.99 227.08 31.53C227.42 31.07 227.59 30.52 227.59 29.88C227.59 29.34 227.42 28.87 227.09 28.46C226.76 28.05 226.31 27.73 225.75 27.51C225.19 27.28 224.55 27.17 223.84 27.17C223.13 27.17 222.51 27.26 221.93 27.43C221.35 27.6 220.81 27.85 220.3 28.17C219.79 28.49 219.29 28.87 218.81 29.32C218.32 29.77 217.84 30.27 217.36 30.82L215.72 29.13C216.04 28.87 216.41 28.57 216.82 28.24C217.23 27.91 217.65 27.56 218.07 27.2C218.49 26.84 218.9 26.5 219.28 26.18C219.66 25.86 219.98 25.6 220.24 25.38C220.49 25.18 220.79 24.94 221.12 24.66C221.45 24.38 221.8 24.1 222.16 23.81C222.52 23.52 222.86 23.23 223.19 22.96C223.51 22.69 223.78 22.46 224 22.27C223.82 22.27 223.59 22.27 223.3 22.29C223.01 22.3 222.7 22.31 222.35 22.33C222.01 22.34 221.67 22.35 221.32 22.37C220.98 22.38 220.66 22.4 220.37 22.41C220.08 22.43 219.83 22.44 219.64 22.45C219.4 22.46 219.15 22.48 218.88 22.5C218.61 22.52 218.38 22.55 218.16 22.59L218.09 20.25L218.13 20.26Z" fill="white"/>
<path d="M70.36 46.97H70.76L71.12 46.9L72.24 47.62C71.88 48.77 71.41 49.9 70.83 51C70.25 52.1 69.61 53.11 68.9 54.03C68.2 54.95 67.49 55.73 66.78 56.35C66.72 56.16 66.63 55.93 66.5 55.67C66.37 55.41 66.24 55.16 66.11 54.91C65.98 54.66 65.86 54.49 65.75 54.38C66.4 53.88 67.02 53.24 67.63 52.47C68.24 51.7 68.78 50.88 69.25 49.99C69.72 49.11 70.09 48.23 70.36 47.35V46.95V46.97ZM66.24 46.97H71.05V48.9H66.24V46.97ZM68.27 43.73H70.25V47.98H68.27V43.73ZM68.29 53.17L70.27 50.81V60.58H68.29V53.16V53.17ZM70.04 50.97C70.17 51.09 70.36 51.3 70.62 51.61C70.87 51.92 71.15 52.25 71.44 52.62C71.73 52.99 72 53.32 72.23 53.63C72.46 53.94 72.64 54.15 72.74 54.29L71.5 55.71C71.36 55.45 71.17 55.14 70.95 54.79C70.73 54.44 70.49 54.08 70.25 53.72C70 53.35 69.76 53.01 69.53 52.68C69.3 52.35 69.1 52.08 68.95 51.86L70.05 50.98L70.04 50.97ZM71.96 50.43L73.22 51.35C72.93 51.72 72.64 52.1 72.36 52.49C72.07 52.88 71.81 53.21 71.57 53.47L70.58 52.71C70.81 52.4 71.06 52.02 71.33 51.59C71.6 51.15 71.81 50.77 71.97 50.43H71.96ZM72.47 46.18H82.86V48.09H72.47V46.18ZM73.03 49.26H80.99V51.08H75.01V60.57H73.03V49.27V49.26ZM74.13 52.34H81.08V54.01H74.13V52.34ZM74.13 55.31H81.04V57.04H74.13V55.31ZM76.66 43.73H78.69V60.49H76.66V43.73ZM80.39 49.26H82.44V58.57C82.44 58.99 82.39 59.34 82.3 59.61C82.2 59.88 82.02 60.09 81.76 60.25C81.51 60.42 81.21 60.52 80.87 60.57C80.53 60.61 80.14 60.63 79.71 60.63C79.67 60.37 79.59 60.05 79.46 59.68C79.33 59.31 79.2 59.01 79.06 58.77C79.29 58.78 79.51 58.79 79.72 58.79H80.18C80.26 58.79 80.32 58.77 80.35 58.74C80.38 58.7 80.39 58.64 80.39 58.54V49.27V49.26ZM79.07 44.87L80.26 43.75C80.67 43.98 81.1 44.25 81.56 44.55C82.02 44.86 82.39 45.14 82.65 45.4L81.39 46.64C81.15 46.38 80.81 46.08 80.36 45.74C79.92 45.4 79.48 45.11 79.06 44.86L79.07 44.87Z" fill="#FFFBC7"/>
<path d="M84.5801 56.6199C85.2801 56.4899 86.0801 56.33 86.9801 56.16C87.8801 55.99 88.8501 55.79 89.8801 55.58C90.9101 55.36 91.9201 55.15 92.9101 54.93L93.1301 56.86C92.1801 57.1 91.2201 57.34 90.2501 57.57C89.2801 57.7999 88.3401 58.03 87.4401 58.24C86.5401 58.45 85.7101 58.65 84.9601 58.84L84.5801 56.63V56.6199ZM85.8601 44.4399H92.1401V56.1899H90.1401V46.38H87.7601V57.32H85.8501V44.43L85.8601 44.4399ZM86.8501 48.2H91.1501V50.09H86.8501V48.2ZM86.8501 51.9199H91.1501V53.81H86.8501V51.9199ZM95.0001 43.7H97.1201C97.1201 45.2 97.1001 46.64 97.0701 48.02C97.0401 49.4 96.9401 50.7099 96.7901 51.9399C96.6401 53.1699 96.3901 54.32 96.0501 55.3899C95.7101 56.4599 95.2301 57.43 94.6201 58.31C94.0101 59.19 93.2201 59.95 92.2401 60.61C92.0801 60.35 91.8601 60.05 91.5701 59.74C91.2801 59.42 91.0001 59.17 90.7301 58.97C91.6301 58.38 92.3501 57.6999 92.9001 56.9399C93.4501 56.1799 93.8701 55.3099 94.1701 54.3699C94.4701 53.4199 94.6801 52.3899 94.7901 51.2799C94.9001 50.1699 94.9701 48.98 94.9801 47.72C94.9901 46.46 95.0001 45.1199 95.0001 43.7099V43.7ZM92.6301 47.57H99.8301V49.6199H92.6301V47.57ZM98.9601 47.57H101.01V48.54C100.96 50.4 100.92 51.98 100.88 53.27C100.84 54.56 100.79 55.63 100.73 56.47C100.67 57.32 100.59 57.9699 100.48 58.4399C100.37 58.9099 100.25 59.25 100.1 59.47C99.9001 59.77 99.6801 59.99 99.4401 60.1199C99.2101 60.2499 98.9301 60.34 98.6001 60.3899C98.3001 60.4399 97.9301 60.47 97.4901 60.47C97.0501 60.47 96.6101 60.4699 96.1501 60.4399C96.1401 60.1499 96.0701 59.81 95.9501 59.4C95.8301 58.99 95.6801 58.66 95.5001 58.38C95.9401 58.4 96.3501 58.42 96.7201 58.43C97.0901 58.44 97.3701 58.45 97.5701 58.45C97.7301 58.45 97.8601 58.4299 97.9601 58.3899C98.0601 58.3499 98.1501 58.27 98.2401 58.15C98.3501 58.02 98.4401 57.74 98.5101 57.31C98.5801 56.88 98.6401 56.28 98.7001 55.49C98.7501 54.7 98.8001 53.7 98.8401 52.47C98.8801 51.24 98.9201 49.7599 98.9601 48.0099V47.56V47.57Z" fill="#FFFBC7"/>
<path d="M111.8 45.7501C111.31 46.4301 110.69 47.1401 109.94 47.8701C109.19 48.6001 108.36 49.3001 107.46 49.9801C106.55 50.6501 105.61 51.2501 104.63 51.7801C104.53 51.6001 104.41 51.4001 104.26 51.1901C104.11 50.9801 103.95 50.7601 103.77 50.5601C103.59 50.3601 103.43 50.1801 103.28 50.0201C104.31 49.5301 105.3 48.9201 106.25 48.1901C107.2 47.4601 108.05 46.7101 108.8 45.9101C109.55 45.1101 110.15 44.3601 110.59 43.6201H112.84C113.33 44.3001 113.87 44.9601 114.46 45.5801C115.05 46.2001 115.68 46.7801 116.35 47.3101C117.02 47.8401 117.71 48.3101 118.42 48.7301C119.13 49.1501 119.84 49.5001 120.56 49.7901C120.28 50.0701 120.03 50.3801 119.79 50.7301C119.55 51.0801 119.33 51.4101 119.12 51.7401C118.44 51.3801 117.74 50.9701 117.04 50.5001C116.34 50.0301 115.66 49.5301 115.01 49.0001C114.36 48.4701 113.76 47.9201 113.21 47.3701C112.66 46.8201 112.19 46.2801 111.81 45.7501H111.8ZM104.24 58.2201H119.54V60.0701H104.24V58.2201ZM105.14 52.7501H118.48V54.6201H105.14V52.7501ZM106.27 55.3101L108 54.5901C108.23 54.8901 108.45 55.2201 108.67 55.5801C108.89 55.9401 109.09 56.2901 109.27 56.6401C109.45 56.9901 109.58 57.3001 109.67 57.5801L107.82 58.4101C107.75 58.1301 107.63 57.8101 107.46 57.4501C107.29 57.0801 107.11 56.7201 106.9 56.3401C106.7 55.9701 106.49 55.6301 106.27 55.3101ZM107.3 49.0801H116.35V50.9701H107.3V49.0801ZM110.63 49.8401H112.92V59.1601H110.63V49.8401ZM115.42 54.6101L117.49 55.3701C117.13 55.9201 116.76 56.4701 116.37 57.0201C115.99 57.5701 115.63 58.0301 115.31 58.4201L113.69 57.7401C113.89 57.4501 114.1 57.1301 114.32 56.7801C114.54 56.4301 114.74 56.0601 114.93 55.6801C115.12 55.3001 115.28 54.9501 115.42 54.6301V54.6101Z" fill="#FFFBC7"/>
<path d="M136.48 46.9901C136.4 47.1601 136.32 47.3601 136.26 47.5901C136.19 47.8201 136.14 48.0401 136.09 48.2501C135.99 48.6801 135.87 49.1701 135.71 49.7301C135.55 50.2801 135.37 50.8501 135.15 51.4401C134.93 52.0301 134.68 52.6101 134.39 53.1901C134.1 53.7701 133.76 54.3101 133.39 54.8101C132.85 55.5201 132.22 56.1901 131.5 56.8201C130.78 57.4501 129.98 58.0101 129.09 58.5101C128.2 59.0101 127.22 59.4301 126.16 59.7801L124.2 57.6401C125.39 57.3501 126.42 56.9901 127.29 56.5701C128.16 56.1501 128.92 55.6601 129.57 55.1301C130.22 54.6001 130.78 54.0201 131.26 53.4101C131.66 52.9101 132 52.3601 132.28 51.7701C132.56 51.1801 132.8 50.5901 132.98 49.9901C133.17 49.3901 133.29 48.8401 133.37 48.3301H124.98C124.57 48.3301 124.17 48.3301 123.78 48.3501C123.39 48.3601 123.07 48.3801 122.83 48.4001V45.8601C123.02 45.8701 123.24 45.8901 123.5 45.9101C123.76 45.9301 124.02 45.9501 124.29 45.9701C124.56 45.9901 124.8 46.0001 124.99 46.0001H133.31C133.49 46.0001 133.71 46.0001 133.98 45.9701C134.24 45.9501 134.49 45.9101 134.72 45.8501L136.5 46.9801L136.48 46.9901Z" fill="#FFFBC7"/>
<path d="M138.58 58.31C139.37 57.76 140.02 57.09 140.52 56.31C141.02 55.53 141.4 54.76 141.64 54.01C141.77 53.61 141.87 53.12 141.94 52.54C142.01 51.96 142.06 51.33 142.09 50.67C142.13 50 142.15 49.34 142.15 48.69C142.15 48.04 142.15 47.43 142.15 46.88C142.15 46.52 142.14 46.21 142.11 45.95C142.08 45.69 142.04 45.45 141.99 45.22H144.64C144.64 45.22 144.61 45.34 144.6 45.52C144.58 45.69 144.56 45.9 144.55 46.13C144.53 46.36 144.52 46.61 144.52 46.86C144.52 47.39 144.52 48 144.5 48.7C144.49 49.4 144.46 50.12 144.43 50.85C144.39 51.58 144.34 52.28 144.27 52.93C144.2 53.58 144.1 54.14 143.98 54.6C143.7 55.62 143.29 56.57 142.75 57.43C142.2 58.3 141.55 59.08 140.78 59.76L138.58 58.3V58.31ZM146.92 58.58C146.96 58.4 146.99 58.19 147.02 57.96C147.05 57.73 147.06 57.49 147.06 57.25V46.76C147.06 46.35 147.04 46 147 45.7C146.96 45.4 146.93 45.24 146.92 45.21H149.6C149.6 45.21 149.56 45.4 149.53 45.71C149.49 46.02 149.48 46.37 149.48 46.78V56.19C149.97 55.97 150.48 55.68 151.01 55.31C151.54 54.94 152.06 54.5 152.57 54C153.08 53.5 153.53 52.96 153.93 52.39L155.32 54.37C154.83 55.02 154.23 55.65 153.53 56.28C152.83 56.9 152.1 57.47 151.36 57.99C150.62 58.51 149.9 58.94 149.22 59.29C149.03 59.4 148.87 59.5 148.75 59.59C148.63 59.68 148.53 59.76 148.44 59.83L146.93 58.59L146.92 58.58Z" fill="#FFFBC7"/>
<path d="M157.01 50.4599L158.18 48.8599C158.52 48.9999 158.9 49.1799 159.33 49.3999C159.76 49.6199 160.18 49.8299 160.59 50.0399C161 50.2499 161.33 50.4399 161.58 50.6099L160.37 52.4099C160.13 52.2299 159.81 52.0299 159.42 51.7999C159.03 51.5699 158.62 51.3399 158.19 51.0999C157.76 50.8599 157.36 50.6499 157 50.4699L157.01 50.4599ZM157.29 58.9199C157.61 58.4599 157.97 57.9299 158.36 57.3099C158.75 56.6899 159.15 56.0299 159.56 55.3299C159.97 54.6299 160.35 53.9299 160.71 53.2299L162.29 54.6699C161.98 55.2899 161.64 55.9399 161.29 56.5999C160.94 57.2599 160.58 57.9099 160.21 58.5399C159.84 59.1799 159.47 59.7899 159.1 60.3799L157.28 58.9199H157.29ZM157.88 45.4799L159.1 43.9099C159.44 44.0799 159.81 44.2699 160.23 44.4899C160.65 44.7099 161.06 44.9199 161.46 45.1399C161.86 45.3599 162.19 45.5499 162.44 45.7199L161.16 47.4699C160.92 47.2899 160.61 47.0899 160.22 46.8599C159.84 46.6299 159.43 46.3999 159.01 46.1499C158.59 45.8999 158.21 45.6799 157.86 45.4899L157.88 45.4799ZM162.33 48.9399H173.8V50.9899H162.33V48.9399ZM171.45 43.6799L173.11 45.3699C172.23 45.7099 171.26 45.9999 170.19 46.2399C169.12 46.4899 168.03 46.6899 166.91 46.8399C165.79 46.9999 164.69 47.1199 163.62 47.2199C163.58 46.9699 163.5 46.6599 163.38 46.2899C163.25 45.9199 163.13 45.6199 163.01 45.3799C163.78 45.2999 164.55 45.1999 165.34 45.0899C166.13 44.9799 166.89 44.8599 167.63 44.7099C168.37 44.5599 169.07 44.4099 169.72 44.2299C170.37 44.0599 170.94 43.8699 171.45 43.6599V43.6799ZM163.44 53.2899H172.89V60.4899H170.82V55.2499H165.42V60.5799H163.44V53.2899ZM164.86 57.8799H171.68V59.8399H164.86V57.8799ZM167.13 45.7099H169.18V54.4199H167.13V45.7099Z" fill="#FFFBC7"/>
<path d="M177.66 44.8801H179.78V51.3601C179.78 52.0701 179.75 52.8401 179.69 53.6801C179.63 54.5201 179.51 55.3601 179.34 56.2101C179.17 57.0601 178.91 57.8601 178.57 58.6301C178.23 59.4001 177.78 60.0801 177.23 60.6801C177.12 60.5401 176.96 60.3701 176.74 60.1901C176.52 60.0101 176.31 59.8401 176.08 59.6701C175.86 59.5001 175.67 59.3701 175.51 59.2701C176 58.7301 176.39 58.1301 176.68 57.4801C176.97 56.8301 177.18 56.1501 177.32 55.4501C177.46 54.7501 177.55 54.0501 177.59 53.3401C177.63 52.6301 177.65 51.9701 177.65 51.3301V44.8701L177.66 44.8801ZM178.87 53.2901H190.05V55.3201H178.87V53.2901ZM178.9 44.8801H189.93V46.9501H178.9V44.8801ZM178.9 49.0401H189.97V51.0601H178.9V49.0401ZM183.2 45.7101H185.38V60.3601H183.2V45.7101ZM189.18 44.8801H191.34V58.0401C191.34 58.6201 191.27 59.0601 191.12 59.3801C190.98 59.7001 190.72 59.9401 190.35 60.1101C189.99 60.2801 189.53 60.3901 188.96 60.4301C188.4 60.4801 187.7 60.5001 186.87 60.4801C186.83 60.1901 186.74 59.8401 186.6 59.4401C186.46 59.0301 186.31 58.6901 186.17 58.4101C186.52 58.4201 186.87 58.4301 187.21 58.4401C187.56 58.4401 187.87 58.4401 188.14 58.4401H188.72C188.89 58.4401 189.01 58.4101 189.07 58.3501C189.14 58.2901 189.17 58.1801 189.17 58.0101V44.8701L189.18 44.8801Z" fill="#FFFBC7"/>
<path d="M194.71 48.0499C194.83 48.0599 194.99 48.0799 195.18 48.1099C195.37 48.1399 195.59 48.1599 195.85 48.1799C196.11 48.1999 196.38 48.2099 196.68 48.2099H208.49C208.97 48.2099 209.36 48.1999 209.66 48.1699C209.96 48.1399 210.23 48.1199 210.47 48.0799V50.4699C210.28 50.4499 210.02 50.4299 209.7 50.4299C209.38 50.4299 208.97 50.4299 208.49 50.4299H196.68C196.38 50.4299 196.11 50.4299 195.86 50.4299C195.61 50.4299 195.4 50.4499 195.21 50.4599C195.02 50.4699 194.86 50.4799 194.71 50.4999V48.0499ZM200.65 44.8099C200.63 44.9799 200.6 45.1999 200.58 45.4799C200.56 45.7599 200.54 46.0799 200.54 46.4299V52.8699C200.54 53.1299 200.54 53.3899 200.56 53.6399C200.58 53.8899 200.58 54.0999 200.59 54.2899C200.59 54.4799 200.6 54.6399 200.62 54.7699H198.1C198.12 54.6399 198.14 54.4799 198.15 54.2899C198.16 54.0999 198.17 53.8899 198.19 53.6399C198.21 53.3899 198.21 53.1399 198.21 52.8699V46.4299C198.21 46.1699 198.21 45.8999 198.18 45.6199C198.16 45.3399 198.14 45.0699 198.1 44.8099H200.66H200.65ZM207.14 51.0199C207.14 52.1399 207.06 53.1499 206.9 54.0499C206.74 54.9499 206.46 55.7799 206.06 56.5199C205.66 57.2599 205.11 57.9199 204.4 58.5099C203.69 59.0999 202.8 59.6299 201.72 60.1099L199.79 58.2899C200.65 57.9899 201.4 57.6499 202.03 57.2799C202.66 56.9099 203.18 56.4499 203.59 55.8999C204 55.3499 204.3 54.6899 204.5 53.9199C204.7 53.1499 204.8 52.2099 204.8 51.0999V46.3099C204.8 45.9399 204.79 45.6099 204.76 45.3299C204.74 45.0499 204.71 44.8199 204.69 44.6399H207.26C207.24 44.8199 207.21 45.0499 207.18 45.3299C207.15 45.6099 207.14 45.9399 207.14 46.3099V51.0099V51.0199Z" fill="white"/>
<path d="M218.03 52.5199C217.83 52.9299 217.58 53.3699 217.29 53.8299C217 54.2999 216.69 54.7699 216.36 55.2299C216.03 55.6999 215.71 56.1299 215.4 56.5399C215.09 56.9399 214.81 57.2799 214.55 57.5399L212.61 56.2099C212.91 55.9299 213.22 55.6099 213.54 55.2299C213.86 54.8499 214.17 54.4499 214.48 54.0299C214.79 53.6099 215.07 53.1899 215.33 52.7699C215.59 52.3499 215.81 51.9499 216 51.5599L218.03 52.5099V52.5199ZM213.44 47.6399C213.72 47.6799 214 47.7099 214.3 47.7399C214.6 47.7699 214.89 47.7899 215.18 47.7899H226.29C226.54 47.7899 226.84 47.7799 227.18 47.7499C227.52 47.7199 227.82 47.6999 228.07 47.6599V50.0199C227.79 49.9999 227.49 49.9799 227.17 49.9799C226.85 49.9799 226.56 49.9799 226.31 49.9799H215.19C214.93 49.9799 214.64 49.9799 214.32 49.9999C214 50.0099 213.71 50.0299 213.45 50.0499V47.6599L213.44 47.6399ZM222.26 44.7799C222.25 44.8599 222.23 44.9999 222.21 45.1899C222.19 45.3799 222.16 45.5799 222.14 45.7899C222.12 45.9999 222.1 46.1799 222.1 46.3399V58.3299C222.1 58.8499 221.95 59.2599 221.64 59.5599C221.33 59.8599 220.86 60.0199 220.23 60.0199C219.91 60.0199 219.58 60.0199 219.24 59.9999C218.9 59.9899 218.57 59.9699 218.25 59.9499C217.93 59.9299 217.61 59.8999 217.3 59.8599L217.08 57.6299C217.46 57.6999 217.84 57.7599 218.2 57.7899C218.56 57.8199 218.86 57.8399 219.07 57.8399C219.31 57.8399 219.48 57.7899 219.57 57.6899C219.67 57.5899 219.72 57.4199 219.73 57.1899C219.73 57.0799 219.73 56.8499 219.73 56.4899C219.73 56.1299 219.73 55.6999 219.73 55.2099V46.3399C219.73 46.0999 219.71 45.8199 219.68 45.4899C219.64 45.1599 219.61 44.9199 219.57 44.7799H222.23H222.26ZM225.77 51.5099C226 51.7999 226.25 52.1399 226.53 52.5399C226.81 52.9399 227.1 53.3599 227.39 53.8099C227.68 54.2599 227.95 54.6999 228.2 55.1199C228.45 55.5399 228.67 55.9199 228.85 56.2399L226.73 57.3899C226.54 57.0099 226.32 56.5899 226.07 56.1499C225.82 55.7099 225.57 55.2599 225.31 54.8199C225.05 54.3799 224.78 53.9599 224.53 53.5699C224.27 53.1799 224.03 52.8499 223.82 52.5699L225.78 51.5099H225.77ZM224.75 45.4799C224.75 45.0999 224.84 44.7499 225.03 44.4399C225.22 44.1299 225.47 43.8799 225.79 43.6799C226.11 43.4899 226.46 43.3899 226.84 43.3899C227.22 43.3899 227.57 43.4899 227.88 43.6799C228.19 43.8699 228.44 44.1199 228.63 44.4399C228.82 44.7499 228.91 45.0999 228.91 45.4799C228.91 45.8599 228.82 46.2199 228.63 46.5299C228.44 46.8499 228.19 47.0999 227.88 47.2899C227.57 47.4799 227.22 47.5699 226.84 47.5699C226.46 47.5699 226.1 47.4799 225.79 47.2899C225.47 47.0999 225.22 46.8499 225.03 46.5299C224.84 46.2099 224.75 45.8599 224.75 45.4799ZM225.85 45.4799C225.85 45.7599 225.95 45.9899 226.14 46.1699C226.33 46.3599 226.57 46.4499 226.84 46.4499C227.11 46.4499 227.33 46.3599 227.52 46.1699C227.71 45.9799 227.81 45.7499 227.81 45.4799C227.81 45.2099 227.71 44.9899 227.52 44.7999C227.33 44.6099 227.1 44.5099 226.84 44.5099C226.58 44.5099 226.33 44.6099 226.14 44.7999C225.95 44.9899 225.85 45.2199 225.85 45.4799Z" fill="white"/>
<path d="M231.41 50.6499C231.63 50.6599 231.9 50.6799 232.24 50.6899C232.57 50.7099 232.93 50.7199 233.29 50.7299C233.66 50.7399 234 50.7499 234.31 50.7499H243.98C244.4 50.7499 244.8 50.7399 245.17 50.7099C245.54 50.6799 245.85 50.6599 246.09 50.6499V53.4799C245.89 53.4699 245.58 53.4499 245.17 53.4299C244.76 53.4099 244.37 53.3899 243.98 53.3899H234.31C233.79 53.3899 233.27 53.3899 232.73 53.4199C232.19 53.4399 231.75 53.4599 231.42 53.4799V50.6499H231.41Z" fill="white"/>
<path d="M251.88 57.25V46.9C251.88 46.59 251.86 46.23 251.84 45.82C251.81 45.41 251.76 45.05 251.7 44.74H254.51C254.47 45.05 254.44 45.4 254.4 45.77C254.36 46.14 254.35 46.52 254.35 46.89V57.24C254.35 57.41 254.35 57.64 254.37 57.95C254.39 58.26 254.41 58.57 254.44 58.9C254.48 59.22 254.5 59.51 254.51 59.76H251.7C251.75 59.4 251.79 58.98 251.83 58.5C251.87 58.02 251.88 57.6 251.88 57.24V57.25ZM253.8 49.4C254.4 49.56 255.07 49.76 255.82 50C256.56 50.25 257.31 50.51 258.07 50.78C258.83 51.06 259.54 51.33 260.2 51.6C260.86 51.87 261.42 52.12 261.87 52.35L260.84 54.83C260.34 54.57 259.78 54.3 259.17 54.03C258.56 53.76 257.94 53.5 257.31 53.25C256.68 53 256.06 52.76 255.46 52.55C254.85 52.33 254.31 52.14 253.81 51.97V49.4H253.8Z" fill="white"/>
</g>
<defs>
<clipPath id="clip0_100_1190">
<rect width="312" height="77" fill="white"/>
</clipPath>
</defs>
</svg>
