<svg width="312" height="77" viewBox="0 0 312 77" fill="none" xmlns="http://www.w3.org/2000/svg">
<g clip-path="url(#clip0_100_1222)">
<path d="M312 0H0V77H312V0Z" fill="#6B8A2E"/>
<path d="M36.1599 63.74C29.4199 63.74 23.0799 61.12 18.3199 56.35C13.5499 51.58 10.9299 45.24 10.9299 38.5C10.9299 31.76 13.5599 25.42 18.3199 20.65C23.0799 15.88 29.4299 13.26 36.1699 13.26C42.9099 13.26 49.2499 15.89 54.0199 20.65C62.7299 29.36 63.8999 42.94 56.8299 53C56.1799 54.64 56.2499 55.77 57.0999 57.59C57.2999 58.03 57.2699 58.52 57.0199 58.92C56.7599 59.32 56.3299 59.56 55.8499 59.56C55.6499 59.56 55.4499 59.52 55.2599 59.43C54.2099 58.94 53.4099 58.72 52.6499 58.72C52.0499 58.72 51.4099 58.86 50.6699 59.15C46.4099 62.14 41.3999 63.73 36.1599 63.73V63.74Z" fill="#FFFBC7"/>
<path d="M36.17 14.02C42.43 14.02 48.7001 16.41 53.48 21.19C62.0401 29.75 62.93 43.07 56.16 52.63C55.39 54.53 55.4701 55.89 56.41 57.92C56.62 58.36 56.28 58.81 55.85 58.81C55.76 58.81 55.6701 58.79 55.5801 58.75C54.4701 58.23 53.5601 57.97 52.6501 57.97C51.9001 57.97 51.15 58.14 50.3 58.49C46.08 61.48 41.12 62.98 36.16 62.98C29.9 62.98 23.64 60.59 18.86 55.81C9.30005 46.25 9.30005 30.75 18.86 21.19C23.64 16.41 29.9 14.02 36.17 14.02ZM36.17 12.49C29.22 12.49 22.69 15.2 17.78 20.11C7.64005 30.25 7.64005 46.75 17.78 56.89C22.69 61.8 29.22 64.5 36.16 64.5C41.52 64.5 46.66 62.89 51.03 59.84C51.65 59.6 52.1701 59.49 52.6501 59.49C53.2901 59.49 54 59.69 54.94 60.12C55.23 60.26 55.5401 60.33 55.8601 60.33C56.6001 60.33 57.27 59.96 57.67 59.33C58.07 58.71 58.1101 57.94 57.8 57.26C57.05 55.65 56.98 54.75 57.51 53.35C64.73 43 63.5101 29.05 54.5601 20.1C49.6501 15.19 43.12 12.48 36.17 12.48V12.49Z" fill="#6B8A2E"/>
<path d="M28.78 20.99C28.91 21 29.04 21.01 29.18 21.02C29.31 21.02 29.45 21.02 29.61 21.02C29.69 21.02 29.82 21.02 30 21.02C30.18 21.02 30.39 21.01 30.62 21C30.85 21 31.09 20.98 31.33 20.97C31.57 20.96 31.79 20.94 31.99 20.93C32.19 20.91 32.34 20.9 32.45 20.89C32.58 20.88 32.7 20.86 32.79 20.84C32.89 20.82 32.96 20.8 33.02 20.78L33.62 21.47C33.54 21.52 33.44 21.59 33.32 21.67C33.2 21.75 33.09 21.83 33.02 21.9C32.88 22.01 32.73 22.14 32.55 22.28C32.38 22.42 32.2 22.57 32.01 22.72C31.82 22.87 31.64 23.03 31.45 23.18C31.26 23.33 31.08 23.48 30.91 23.62C30.74 23.76 30.58 23.89 30.43 24C30.88 23.95 31.36 23.91 31.86 23.87C32.36 23.83 32.85 23.8 33.34 23.78C33.83 23.76 34.28 23.74 34.7 23.74V24.63C34.25 24.6 33.8 24.59 33.37 24.6C32.94 24.6 32.58 24.62 32.29 24.66C32.07 24.69 31.86 24.76 31.65 24.86C31.45 24.96 31.26 25.09 31.1 25.23C30.94 25.37 30.81 25.55 30.71 25.74C30.62 25.93 30.57 26.13 30.57 26.34C30.57 26.62 30.64 26.85 30.78 27.03C30.92 27.21 31.11 27.34 31.34 27.43C31.58 27.52 31.84 27.59 32.12 27.62C32.39 27.65 32.65 27.67 32.89 27.66C33.13 27.66 33.34 27.65 33.51 27.64L33.31 28.62C32.13 28.66 31.22 28.51 30.59 28.15C29.95 27.79 29.63 27.24 29.63 26.49C29.63 26.25 29.68 26.03 29.77 25.81C29.86 25.59 29.98 25.41 30.12 25.24C30.26 25.07 30.4 24.93 30.54 24.83C30.07 24.87 29.55 24.92 28.99 24.99C28.43 25.06 27.89 25.14 27.36 25.23L27.28 24.33C27.54 24.31 27.82 24.27 28.12 24.24C28.42 24.2 28.69 24.17 28.93 24.15C29.17 23.99 29.43 23.8 29.7 23.59C29.97 23.37 30.25 23.15 30.52 22.92C30.79 22.69 31.05 22.48 31.28 22.28C31.51 22.08 31.7 21.92 31.85 21.78C31.77 21.78 31.66 21.79 31.51 21.8C31.36 21.8 31.19 21.82 31 21.83C30.81 21.84 30.63 21.85 30.45 21.86C30.27 21.86 30.1 21.87 29.95 21.88C29.8 21.88 29.69 21.9 29.6 21.9C29.48 21.9 29.35 21.92 29.21 21.93C29.07 21.95 28.94 21.96 28.81 21.97L28.76 21.01L28.78 20.99Z" fill="#5F161E"/>
<path d="M41.95 21.66C41.89 22.15 41.81 22.66 41.71 23.2C41.61 23.74 41.48 24.27 41.32 24.8C41.13 25.44 40.92 25.99 40.68 26.43C40.44 26.87 40.19 27.21 39.91 27.45C39.63 27.68 39.34 27.8 39.03 27.8C38.72 27.8 38.42 27.69 38.15 27.47C37.88 27.25 37.66 26.95 37.49 26.55C37.32 26.16 37.23 25.7 37.23 25.17C37.23 24.64 37.34 24.14 37.56 23.67C37.78 23.2 38.08 22.78 38.46 22.41C38.84 22.04 39.29 21.76 39.8 21.55C40.31 21.34 40.86 21.24 41.45 21.24C42.04 21.24 42.53 21.33 42.99 21.51C43.45 21.69 43.84 21.95 44.16 22.27C44.49 22.59 44.73 22.97 44.9 23.41C45.07 23.84 45.16 24.31 45.16 24.8C45.16 25.46 45.02 26.05 44.75 26.56C44.48 27.07 44.07 27.49 43.54 27.82C43.01 28.14 42.36 28.36 41.59 28.48L41.03 27.59C41.19 27.57 41.35 27.55 41.48 27.53C41.61 27.51 41.75 27.48 41.87 27.46C42.17 27.39 42.46 27.28 42.74 27.14C43.01 26.99 43.26 26.81 43.47 26.59C43.68 26.37 43.85 26.1 43.98 25.8C44.1 25.5 44.16 25.16 44.16 24.78C44.16 24.4 44.1 24.05 43.98 23.73C43.86 23.41 43.68 23.12 43.45 22.88C43.22 22.64 42.93 22.45 42.59 22.32C42.25 22.18 41.87 22.12 41.44 22.12C40.92 22.12 40.46 22.21 40.06 22.39C39.66 22.57 39.31 22.81 39.03 23.11C38.75 23.41 38.54 23.73 38.39 24.08C38.24 24.43 38.17 24.76 38.17 25.08C38.17 25.44 38.21 25.74 38.3 25.97C38.39 26.21 38.5 26.38 38.63 26.49C38.76 26.6 38.9 26.66 39.04 26.66C39.18 26.66 39.32 26.59 39.46 26.45C39.61 26.31 39.75 26.08 39.9 25.77C40.05 25.46 40.19 25.07 40.34 24.59C40.49 24.14 40.61 23.65 40.7 23.14C40.79 22.63 40.87 22.12 40.91 21.63L41.92 21.65L41.95 21.66Z" fill="#5F161E"/>
<path d="M35.4901 55.59C34.3001 55.59 33.2301 55.45 32.2801 55.17C31.3301 54.89 30.4901 54.51 29.7601 54.03C29.0301 53.55 28.4001 53.01 27.8601 52.41L29.9901 49.54C30.6901 50.18 31.4601 50.73 32.2901 51.19C33.1201 51.65 34.0501 51.88 35.0801 51.88C35.8601 51.88 36.5501 51.76 37.1301 51.52C37.7201 51.28 38.1701 50.94 38.4901 50.49C38.8101 50.04 38.9701 49.49 38.9701 48.85C38.9701 48.13 38.7901 47.51 38.4301 46.98C38.0701 46.45 37.4401 46.05 36.5301 45.78C35.6201 45.5 34.3501 45.36 32.7001 45.36V42.09C34.1001 42.09 35.2001 41.95 36.0001 41.66C36.8001 41.37 37.3701 40.98 37.7101 40.49C38.0501 40 38.2201 39.43 38.2201 38.79C38.2201 37.91 37.9501 37.23 37.4201 36.75C36.8801 36.28 36.1301 36.04 35.1701 36.04C34.3701 36.04 33.6201 36.22 32.9301 36.58C32.2401 36.94 31.5601 37.44 30.8801 38.08L28.5301 35.3C29.5401 34.44 30.6001 33.75 31.7101 33.23C32.8201 32.72 34.0501 32.46 35.3801 32.46C36.8401 32.46 38.1301 32.69 39.2601 33.15C40.3801 33.61 41.2501 34.29 41.8701 35.19C42.4901 36.09 42.8001 37.17 42.8001 38.45C42.8001 39.64 42.4701 40.66 41.8101 41.49C41.1501 42.32 40.2101 42.99 39.0001 43.48V43.63C39.8401 43.86 40.6101 44.22 41.3001 44.71C41.9901 45.2 42.5401 45.82 42.9401 46.55C43.3401 47.28 43.5401 48.14 43.5401 49.13C43.5401 50.49 43.1701 51.65 42.4401 52.62C41.7101 53.59 40.7301 54.32 39.5101 54.83C38.2801 55.33 36.9401 55.59 35.4801 55.59H35.4901Z" fill="#6B8A2E"/>
<path d="M66.21 32.79C66.82 32.75 67.51 32.71 68.26 32.65C69.02 32.6 69.81 32.54 70.65 32.47C71.49 32.4 72.34 32.33 73.19 32.26V34.02C71.98 34.13 70.77 34.24 69.58 34.35C68.39 34.46 67.31 34.56 66.37 34.65L66.21 32.78V32.79ZM66.37 25.48H82.46V27.19H66.37V25.48ZM67.79 26.08H69.75V33.44H67.79V26.08ZM68.49 19.26H80.39V24.84H68.49V19.26ZM69.14 27.91H73.23V29.4H69.14V27.91ZM69.14 30.18H73.23V31.67H69.14V30.18ZM70.56 20.66V21.38H78.23V20.66H70.56ZM70.56 22.69V23.43H78.23V22.69H70.56ZM72.13 26.04H74.18V35.6H72.13V26.04ZM79.87 27.86H80.27L80.63 27.81L81.96 28.31C81.6 29.56 81.09 30.65 80.43 31.6C79.77 32.54 78.99 33.34 78.1 33.99C77.21 34.64 76.22 35.18 75.14 35.58C75.02 35.32 74.85 35.02 74.62 34.69C74.39 34.36 74.18 34.09 73.97 33.89C74.67 33.67 75.33 33.39 75.96 33.03C76.59 32.67 77.16 32.24 77.68 31.75C78.2 31.26 78.64 30.71 79.02 30.11C79.4 29.51 79.68 28.87 79.87 28.18V27.86ZM74.63 27.86H80.52V29.52H74.63V27.86ZM76.82 29.35C77.32 30.45 78.1 31.4 79.13 32.19C80.16 32.98 81.41 33.55 82.85 33.88C82.72 34.01 82.57 34.18 82.4 34.37C82.23 34.57 82.08 34.78 81.93 34.99C81.79 35.21 81.67 35.4 81.57 35.57C80.02 35.1 78.71 34.38 77.64 33.41C76.57 32.44 75.72 31.24 75.09 29.83L76.82 29.34V29.35Z" fill="white"/>
<path d="M89.77 21.8799H90.18L90.54 21.79L91.75 22.6C91.32 23.74 90.77 24.8599 90.11 25.9699C89.45 27.0799 88.73 28.08 87.94 28.99C87.15 29.9 86.36 30.6799 85.57 31.3099C85.51 31.12 85.41 30.8899 85.27 30.6399C85.13 30.3899 84.99 30.1299 84.85 29.8799C84.71 29.6299 84.57 29.45 84.45 29.3099C85.18 28.8099 85.9 28.17 86.59 27.41C87.29 26.65 87.91 25.82 88.46 24.93C89.01 24.04 89.44 23.16 89.76 22.29V21.8799H89.77ZM84.96 21.8799H90.34V23.82H84.96V21.8799ZM87.3 18.7H89.42V22.93H87.3V18.7ZM87.3 27.9699L89.42 25.43V35.5999H87.3V27.9699ZM89.21 26.62C89.37 26.73 89.59 26.91 89.87 27.17C90.15 27.43 90.45 27.71 90.78 28.02C91.1 28.33 91.4 28.61 91.67 28.87C91.94 29.13 92.13 29.32 92.25 29.44L90.97 31.08C90.8 30.85 90.59 30.58 90.35 30.26C90.11 29.94 89.84 29.62 89.56 29.29C89.28 28.96 89.01 28.65 88.76 28.35C88.51 28.06 88.29 27.81 88.09 27.62L89.21 26.6299V26.62ZM91.33 25.2999L92.72 26.45C92.34 26.82 91.98 27.2 91.64 27.57C91.3 27.9399 91 28.27 90.72 28.53L89.75 27.65C90 27.3499 90.28 26.97 90.59 26.52C90.9 26.06 91.15 25.6599 91.34 25.2999H91.33ZM94.23 21.02H96.43C96.41 22.14 96.36 23.25 96.3 24.37C96.24 25.49 96.13 26.5699 95.97 27.6299C95.81 28.6899 95.56 29.7 95.22 30.67C94.88 31.64 94.43 32.55 93.87 33.38C93.31 34.21 92.59 34.9599 91.73 35.6199C91.55 35.3299 91.31 35.03 91.01 34.7C90.71 34.38 90.42 34.11 90.13 33.91C90.92 33.3499 91.57 32.6999 92.08 31.9699C92.59 31.24 92.99 30.45 93.28 29.59C93.57 28.73 93.77 27.8399 93.89 26.8899C94.01 25.9399 94.09 24.9699 94.13 23.9799C94.17 22.99 94.2 22 94.23 21.02ZM91.58 20.07H99.82V22.1H91.58V20.07ZM99.04 20.07H101.25V20.76C101.25 20.93 101.25 21.07 101.23 21.17C101.19 23.44 101.15 25.36 101.1 26.93C101.05 28.5 100.99 29.7899 100.91 30.7999C100.83 31.8099 100.74 32.59 100.62 33.15C100.51 33.71 100.37 34.1099 100.2 34.3499C99.96 34.7099 99.71 34.9699 99.46 35.1199C99.21 35.2799 98.91 35.3799 98.58 35.4399C98.26 35.5099 97.86 35.5499 97.4 35.5499C96.94 35.5499 96.46 35.5499 95.97 35.5299C95.96 35.2199 95.89 34.85 95.75 34.41C95.62 33.9799 95.46 33.61 95.26 33.29C95.74 33.33 96.18 33.3499 96.57 33.3499C96.97 33.3499 97.27 33.3499 97.47 33.3499C97.77 33.3499 98 33.2399 98.17 33.0099C98.3 32.8399 98.41 32.5 98.5 31.9799C98.59 31.4599 98.67 30.71 98.73 29.74C98.8 28.7699 98.85 27.53 98.89 26.03C98.93 24.53 98.97 22.71 99.01 20.58V20.0599L99.04 20.07Z" fill="white"/>
<path d="M103.88 23.45C104.2 23.47 104.52 23.48 104.83 23.48C105.14 23.48 105.47 23.46 105.8 23.45C106.09 23.44 106.45 23.42 106.87 23.39C107.3 23.36 107.75 23.33 108.22 23.29C108.69 23.25 109.17 23.22 109.65 23.17C110.13 23.13 110.57 23.1 110.98 23.07C111.39 23.05 111.72 23.03 111.99 23.03C112.63 23.03 113.19 23.13 113.67 23.34C114.16 23.55 114.54 23.91 114.82 24.41C115.1 24.91 115.24 25.6 115.24 26.46C115.24 27.17 115.21 27.94 115.14 28.76C115.07 29.59 114.97 30.38 114.82 31.14C114.68 31.9 114.47 32.54 114.21 33.07C113.92 33.69 113.53 34.13 113.03 34.37C112.53 34.61 111.94 34.73 111.26 34.73C110.91 34.73 110.54 34.7 110.15 34.65C109.76 34.6 109.41 34.54 109.1 34.48L108.7 32.1C108.94 32.16 109.2 32.22 109.48 32.28C109.76 32.34 110.03 32.39 110.29 32.42C110.55 32.46 110.75 32.47 110.91 32.47C111.21 32.47 111.47 32.41 111.7 32.3C111.93 32.19 112.11 31.99 112.26 31.7C112.43 31.35 112.56 30.9 112.67 30.35C112.77 29.8 112.85 29.2 112.9 28.56C112.95 27.92 112.98 27.3 112.98 26.72C112.98 26.24 112.91 25.89 112.78 25.66C112.65 25.43 112.45 25.28 112.2 25.2C111.94 25.12 111.62 25.08 111.24 25.08C110.98 25.08 110.61 25.1 110.13 25.14C109.66 25.18 109.15 25.23 108.63 25.28C108.1 25.33 107.61 25.39 107.14 25.45C106.68 25.51 106.32 25.55 106.07 25.58C105.82 25.63 105.49 25.68 105.09 25.73C104.69 25.78 104.35 25.83 104.07 25.88L103.85 23.43L103.88 23.45ZM111.19 19.76C111.13 19.99 111.07 20.24 111.02 20.51C110.97 20.78 110.92 21.03 110.87 21.26C110.82 21.52 110.76 21.82 110.69 22.15C110.62 22.48 110.55 22.81 110.48 23.14C110.41 23.47 110.34 23.79 110.27 24.1C110.15 24.62 110 25.22 109.82 25.9C109.64 26.58 109.43 27.32 109.19 28.11C108.95 28.9 108.68 29.69 108.38 30.48C108.08 31.27 107.76 32.04 107.43 32.79C107.1 33.54 106.73 34.21 106.35 34.81L104.01 33.87C104.43 33.31 104.82 32.67 105.19 31.97C105.56 31.27 105.89 30.55 106.19 29.8C106.49 29.05 106.76 28.32 106.99 27.6C107.22 26.88 107.42 26.21 107.59 25.58C107.76 24.96 107.89 24.42 107.99 23.98C108.16 23.16 108.29 22.38 108.39 21.62C108.49 20.86 108.53 20.15 108.52 19.48L111.2 19.75L111.19 19.76ZM117.38 21.45C117.67 21.83 117.96 22.32 118.27 22.9C118.58 23.48 118.88 24.1 119.17 24.75C119.46 25.4 119.73 26.02 119.98 26.62C120.23 27.22 120.41 27.73 120.55 28.15L118.26 29.21C118.14 28.71 117.97 28.15 117.76 27.53C117.55 26.91 117.31 26.28 117.04 25.64C116.77 25 116.48 24.39 116.18 23.81C115.87 23.23 115.56 22.75 115.24 22.37L117.38 21.45Z" fill="white"/>
<path d="M126.36 23.11C126.3 23.35 126.24 23.66 126.17 24.04C126.1 24.42 126.04 24.81 125.98 25.22C125.92 25.63 125.86 26.02 125.81 26.39C125.76 26.76 125.71 27.07 125.67 27.33C126.49 26.74 127.34 26.31 128.24 26.03C129.13 25.75 130.05 25.62 130.99 25.62C132.05 25.62 132.95 25.81 133.69 26.2C134.43 26.58 135 27.09 135.39 27.71C135.78 28.33 135.97 29.01 135.97 29.74C135.97 30.56 135.8 31.31 135.45 32.01C135.1 32.71 134.53 33.3 133.74 33.79C132.95 34.28 131.91 34.63 130.63 34.83C129.35 35.03 127.77 35.06 125.9 34.9L125.22 32.54C127.02 32.78 128.53 32.81 129.76 32.64C130.99 32.47 131.91 32.12 132.54 31.6C133.17 31.08 133.49 30.44 133.49 29.68C133.49 29.28 133.38 28.93 133.15 28.63C132.92 28.32 132.6 28.08 132.2 27.91C131.79 27.74 131.33 27.65 130.81 27.65C129.8 27.65 128.86 27.83 127.98 28.2C127.1 28.57 126.37 29.09 125.81 29.78C125.65 29.97 125.52 30.15 125.42 30.31C125.32 30.47 125.22 30.64 125.14 30.82L123.07 30.3C123.14 29.95 123.21 29.54 123.29 29.07C123.36 28.6 123.43 28.09 123.51 27.54C123.58 26.99 123.65 26.45 123.71 25.89C123.77 25.34 123.82 24.79 123.87 24.25C123.92 23.71 123.95 23.22 123.98 22.77L126.39 23.11H126.36ZM126.25 19.49C126.68 19.62 127.22 19.76 127.87 19.9C128.52 20.04 129.2 20.19 129.9 20.32C130.61 20.46 131.28 20.57 131.91 20.67C132.54 20.77 133.05 20.84 133.45 20.89L132.91 23.09C132.55 23.04 132.12 22.97 131.61 22.88C131.1 22.79 130.56 22.69 129.99 22.58C129.42 22.47 128.86 22.36 128.31 22.25C127.76 22.14 127.25 22.02 126.8 21.92C126.35 21.82 125.97 21.72 125.68 21.65L126.26 19.49H126.25Z" fill="white"/>
<path d="M138.71 32.79C139.32 32.75 140.01 32.71 140.76 32.65C141.52 32.6 142.31 32.54 143.15 32.47C143.99 32.4 144.84 32.33 145.69 32.26V34.02C144.48 34.13 143.27 34.24 142.08 34.35C140.89 34.46 139.81 34.56 138.87 34.65L138.71 32.78V32.79ZM138.87 25.48H154.96V27.19H138.87V25.48ZM140.29 26.08H142.25V33.44H140.29V26.08ZM140.99 19.26H152.89V24.84H140.99V19.26ZM141.64 27.91H145.73V29.4H141.64V27.91ZM141.64 30.18H145.73V31.67H141.64V30.18ZM143.06 20.66V21.38H150.73V20.66H143.06ZM143.06 22.69V23.43H150.73V22.69H143.06ZM144.63 26.04H146.68V35.6H144.63V26.04ZM152.37 27.86H152.77L153.13 27.81L154.46 28.31C154.1 29.56 153.59 30.65 152.93 31.6C152.27 32.54 151.49 33.34 150.6 33.99C149.71 34.64 148.72 35.18 147.64 35.58C147.52 35.32 147.35 35.02 147.12 34.69C146.89 34.36 146.68 34.09 146.47 33.89C147.17 33.67 147.83 33.39 148.46 33.03C149.09 32.67 149.66 32.24 150.18 31.75C150.7 31.26 151.14 30.71 151.52 30.11C151.9 29.51 152.18 28.87 152.37 28.18V27.86ZM147.13 27.86H153.02V29.52H147.13V27.86ZM149.33 29.35C149.83 30.45 150.61 31.4 151.64 32.19C152.67 32.98 153.92 33.55 155.36 33.88C155.23 34.01 155.08 34.18 154.91 34.37C154.74 34.57 154.59 34.78 154.44 34.99C154.3 35.21 154.18 35.4 154.08 35.57C152.53 35.1 151.22 34.38 150.15 33.41C149.08 32.44 148.23 31.24 147.6 29.83L149.33 29.34V29.35Z" fill="white"/>
<path d="M160.97 22.5701L162.86 23.2701C162.48 23.9901 162.02 24.7201 161.5 25.4501C160.98 26.1801 160.42 26.8701 159.83 27.5201C159.24 28.1701 158.65 28.7301 158.07 29.2101C158.01 29.0501 157.91 28.8501 157.77 28.6001C157.63 28.3501 157.49 28.0901 157.34 27.8301C157.19 27.5701 157.05 27.3701 156.93 27.2101C157.43 26.8301 157.93 26.3901 158.43 25.9001C158.93 25.4101 159.4 24.8801 159.83 24.3101C160.27 23.7401 160.64 23.1601 160.95 22.5701H160.97ZM160.65 18.6801L162.56 19.4501C162.19 19.9701 161.76 20.4901 161.27 21.0301C160.78 21.5701 160.28 22.0901 159.77 22.5801C159.25 23.0701 158.74 23.5001 158.24 23.8601C158.14 23.7201 158.03 23.5501 157.89 23.3601C157.75 23.1701 157.61 22.9701 157.48 22.7801C157.34 22.5801 157.22 22.4201 157.11 22.3001C157.54 21.9901 157.98 21.6301 158.43 21.2201C158.88 20.8101 159.3 20.3901 159.69 19.9401C160.08 19.5001 160.4 19.0801 160.65 18.6801ZM159.48 26.4601L161.32 24.6201L161.5 24.6901V35.6201H159.48V26.4601ZM166.52 26.1701L168.45 26.7801C168.07 27.4801 167.6 28.1501 167.05 28.8101C166.5 29.4601 165.9 30.0601 165.26 30.6001C164.62 31.1401 163.97 31.6101 163.31 32.0001C163.23 31.8701 163.1 31.7001 162.93 31.5001C162.76 31.3001 162.59 31.0901 162.4 30.8901C162.21 30.6901 162.05 30.5201 161.92 30.4001C162.86 29.9301 163.74 29.3301 164.57 28.5901C165.4 27.8501 166.05 27.0501 166.53 26.1701H166.52ZM170.5 28.0601H170.9L171.26 27.9701L172.61 28.5801C172.2 29.5901 171.68 30.4801 171.03 31.2501C170.39 32.0201 169.65 32.7001 168.81 33.2701C167.97 33.8501 167.05 34.3301 166.06 34.7201C165.07 35.1101 164.03 35.4201 162.94 35.6601C162.84 35.4001 162.7 35.0801 162.5 34.7201C162.3 34.3501 162.11 34.0601 161.92 33.8501C162.9 33.6701 163.85 33.4301 164.75 33.1201C165.65 32.8101 166.48 32.4301 167.24 31.9701C168 31.5101 168.66 30.9701 169.22 30.3701C169.78 29.7601 170.21 29.0901 170.51 28.3501V28.0601H170.5ZM162.14 25.2701C163.02 25.2601 164.02 25.2501 165.16 25.2301C166.3 25.2201 167.51 25.2001 168.79 25.1801C170.07 25.1601 171.34 25.1301 172.62 25.1101L172.55 26.8401C171.34 26.8901 170.12 26.9301 168.89 26.9701C167.66 27.0101 166.48 27.0501 165.35 27.0801C164.22 27.1101 163.21 27.1401 162.33 27.1601L162.15 25.2701H162.14ZM162.52 21.9701L163.8 20.5801C164.24 20.8601 164.71 21.1601 165.19 21.5101C165.68 21.8501 166.14 22.2001 166.57 22.5501C167 22.9001 167.34 23.2401 167.6 23.5501L166.21 25.1201C165.97 24.8101 165.64 24.4701 165.23 24.0901C164.82 23.7101 164.37 23.3501 163.9 22.9701C163.43 22.6001 162.97 22.2601 162.52 21.9601V21.9701ZM170.1 19.9601L172.03 21.0001C171.39 21.6701 170.7 22.3701 169.96 23.0801C169.22 23.7901 168.47 24.4701 167.71 25.1101C166.95 25.7501 166.24 26.3101 165.57 26.7901L164.13 25.8501C164.63 25.4701 165.16 25.0401 165.7 24.5601C166.24 24.0801 166.78 23.5801 167.31 23.0501C167.84 22.5201 168.35 21.9901 168.83 21.4601C169.31 20.9301 169.74 20.4301 170.11 19.9501L170.1 19.9601ZM165.89 29.1401C166.39 29.9401 167.05 30.6601 167.87 31.2901C168.69 31.9201 169.64 32.4401 170.74 32.8601C171.84 33.2801 173.04 33.5901 174.35 33.8001C174.19 33.9601 174.03 34.1401 173.87 34.3601C173.71 34.5801 173.56 34.8001 173.41 35.0301C173.27 35.2601 173.15 35.4701 173.05 35.6601C171.68 35.3801 170.44 34.9801 169.31 34.4501C168.18 33.9201 167.2 33.2501 166.34 32.4601C165.48 31.6701 164.75 30.7401 164.15 29.6901L165.88 29.1501L165.89 29.1401ZM166.75 18.6101L168.62 19.5801C168.14 20.1401 167.64 20.7101 167.13 21.2801C166.61 21.8501 166.14 22.3301 165.71 22.7101L164.23 21.8601C164.51 21.5701 164.8 21.2401 165.11 20.8701C165.42 20.5001 165.72 20.1101 166.01 19.7201C166.3 19.3301 166.54 18.9501 166.75 18.6001V18.6101ZM166.34 28.0601H171.18V29.6601H164.92L166.34 28.0601ZM169.92 23.9901L171.58 23.0701C171.94 23.4701 172.3 23.9001 172.66 24.3701C173.02 24.8401 173.35 25.3001 173.65 25.7701C173.95 26.2401 174.18 26.6501 174.35 27.0401L172.53 28.0701C172.39 27.7001 172.18 27.2801 171.9 26.8001C171.62 26.3301 171.31 25.8401 170.96 25.3501C170.61 24.8601 170.26 24.4101 169.92 24.0001V23.9901Z" fill="white"/>
<path d="M185.24 19.4199C185.22 19.5999 185.2 19.7999 185.18 20.0199C185.16 20.2399 185.15 20.4699 185.14 20.6899C185.13 20.9299 185.12 21.2499 185.1 21.6499C185.09 22.0499 185.08 22.4899 185.08 22.9699V25.6699C185.08 26.1699 185.09 26.7299 185.12 27.3499C185.14 27.9699 185.18 28.5899 185.22 29.2199C185.26 29.8499 185.3 30.4399 185.33 30.9799C185.36 31.5299 185.37 31.9799 185.37 32.3399C185.37 32.8399 185.24 33.2999 184.97 33.7199C184.71 34.1299 184.31 34.4599 183.79 34.6999C183.27 34.9399 182.61 35.0599 181.82 35.0599C180.38 35.0599 179.29 34.7999 178.54 34.2699C177.79 33.7399 177.42 32.9999 177.42 32.0599C177.42 31.4499 177.6 30.9099 177.95 30.4499C178.3 29.9899 178.81 29.6299 179.48 29.3599C180.15 29.0999 180.94 28.9599 181.86 28.9599C182.84 28.9599 183.77 29.0599 184.62 29.2699C185.48 29.4799 186.26 29.7499 186.97 30.0899C187.68 30.4299 188.31 30.7799 188.86 31.1499C189.41 31.5199 189.88 31.8599 190.26 32.1599L188.96 34.1799C188.53 33.7699 188.04 33.3699 187.51 32.9699C186.98 32.5699 186.39 32.2099 185.76 31.8899C185.13 31.5699 184.46 31.3099 183.76 31.1099C183.06 30.9099 182.32 30.8099 181.54 30.8099C180.92 30.8099 180.43 30.9199 180.09 31.1299C179.75 31.3499 179.58 31.6099 179.58 31.9199C179.58 32.1499 179.65 32.3499 179.8 32.5099C179.94 32.6799 180.15 32.7999 180.43 32.8899C180.71 32.9799 181.05 33.0199 181.47 33.0199C181.79 33.0199 182.07 32.9799 182.31 32.9099C182.54 32.8399 182.73 32.7099 182.86 32.5099C182.99 32.3099 183.06 32.0499 183.06 31.6999C183.06 31.4399 183.06 31.0599 183.03 30.5699C183.01 30.0799 182.99 29.5299 182.97 28.9399C182.95 28.3499 182.92 27.7599 182.9 27.1899C182.88 26.6199 182.86 26.0999 182.86 25.6599C182.86 25.2199 182.86 24.7799 182.86 24.2999C182.86 23.8299 182.86 23.3599 182.86 22.8899C182.86 22.4199 182.86 21.9899 182.86 21.5999C182.86 21.2099 182.86 20.8899 182.86 20.6399C182.86 20.4699 182.86 20.2599 182.83 20.0199C182.81 19.7699 182.78 19.5699 182.75 19.3999H185.18L185.24 19.4199ZM177.68 24.9999C177.97 25.0499 178.31 25.0999 178.71 25.1399C179.11 25.1899 179.51 25.2199 179.92 25.2499C180.33 25.2799 180.73 25.2899 181.1 25.3099C181.47 25.3299 181.78 25.3399 182.02 25.3399C183.14 25.3399 184.15 25.3199 185.05 25.2699C185.95 25.2199 186.8 25.1599 187.6 25.0899C188.39 25.0199 189.15 24.9299 189.89 24.8399L189.87 26.9599C189.25 27.0299 188.64 27.0899 188.06 27.1399C187.48 27.1899 186.88 27.2299 186.28 27.2699C185.67 27.3099 185.02 27.3299 184.33 27.3399C183.63 27.3499 182.85 27.3599 181.99 27.3599C181.64 27.3599 181.21 27.3599 180.69 27.3299C180.17 27.3099 179.65 27.2899 179.11 27.2499C178.58 27.2099 178.1 27.1699 177.7 27.1199L177.68 24.9999ZM177.77 21.1099C178.09 21.1599 178.45 21.2099 178.85 21.2499C179.25 21.2999 179.65 21.3399 180.06 21.3899C180.47 21.4399 180.87 21.4599 181.24 21.4799C181.61 21.4999 181.94 21.5099 182.21 21.5099C183.43 21.5099 184.66 21.4699 185.87 21.3899C187.08 21.3099 188.35 21.1599 189.66 20.9499L189.64 23.0199C189.03 23.0999 188.32 23.1799 187.52 23.2499C186.72 23.3199 185.86 23.3799 184.95 23.4199C184.04 23.4599 183.13 23.4799 182.22 23.4799C181.85 23.4799 181.39 23.4699 180.84 23.4399C180.29 23.4099 179.75 23.3699 179.21 23.3099C178.67 23.2499 178.2 23.2099 177.81 23.1599L177.76 21.1099H177.77Z" fill="white"/>
<path d="M192.73 21.6301C193.09 21.6201 193.43 21.6001 193.76 21.5901C194.08 21.5701 194.33 21.5601 194.5 21.5501C194.87 21.5301 195.33 21.4901 195.88 21.4301C196.43 21.3801 197.04 21.3201 197.72 21.2601C198.4 21.2001 199.12 21.1401 199.89 21.0801C200.66 21.0201 201.46 20.9501 202.28 20.8801C202.9 20.8201 203.52 20.7701 204.14 20.7301C204.76 20.6901 205.35 20.6501 205.9 20.6201C206.46 20.5901 206.95 20.5701 207.37 20.5601L207.39 22.8601C207.07 22.8601 206.69 22.8601 206.27 22.8801C205.85 22.8901 205.43 22.9101 205.02 22.9401C204.61 22.9701 204.24 23.0301 203.91 23.1101C203.37 23.2501 202.87 23.5001 202.4 23.8401C201.93 24.1801 201.53 24.5801 201.19 25.0501C200.85 25.5101 200.58 26.0101 200.39 26.5401C200.2 27.0701 200.1 27.6101 200.1 28.1501C200.1 28.7401 200.21 29.2601 200.42 29.7101C200.63 30.1601 200.92 30.5401 201.28 30.8601C201.65 31.1801 202.07 31.4401 202.57 31.6501C203.06 31.8601 203.59 32.0201 204.16 32.1301C204.73 32.2401 205.32 32.3101 205.93 32.3501L205.08 34.8201C204.32 34.7701 203.59 34.6501 202.87 34.4601C202.15 34.2701 201.49 34.0001 200.86 33.6701C200.24 33.3301 199.69 32.9201 199.23 32.4401C198.77 31.9501 198.4 31.4001 198.13 30.7701C197.86 30.1401 197.72 29.4401 197.72 28.6501C197.72 27.7901 197.86 26.9901 198.13 26.2701C198.41 25.5401 198.75 24.9101 199.17 24.3601C199.58 23.8101 199.99 23.3901 200.4 23.0901C200.06 23.1401 199.66 23.1901 199.19 23.2301C198.72 23.2801 198.21 23.3401 197.66 23.4001C197.11 23.4601 196.56 23.5301 195.99 23.6101C195.43 23.6801 194.88 23.7601 194.36 23.8501C193.84 23.9401 193.37 24.0301 192.95 24.1101L192.72 21.6401L192.73 21.6301ZM204.81 24.6201C204.97 24.8401 205.13 25.0901 205.31 25.3801C205.48 25.6701 205.65 25.9701 205.82 26.2601C205.99 26.5501 206.13 26.8201 206.25 27.0601L204.88 27.6701C204.65 27.1701 204.43 26.7201 204.22 26.3401C204.01 25.9601 203.76 25.5701 203.47 25.1701L204.8 24.6101L204.81 24.6201ZM206.82 23.7901C206.98 24.0101 207.15 24.2601 207.33 24.5401C207.52 24.8201 207.7 25.1101 207.88 25.4001C208.06 25.6901 208.21 25.9601 208.33 26.1801L206.98 26.8301C206.74 26.3501 206.51 25.9201 206.29 25.5501C206.07 25.1801 205.81 24.7901 205.51 24.4001L206.82 23.7901Z" fill="white"/>
<path d="M210.58 24.1001H212.51V28.0601C212.51 28.5901 212.49 29.1601 212.45 29.7901C212.41 30.4101 212.34 31.0401 212.24 31.6701C212.14 32.3001 212 32.9201 211.82 33.5201C211.63 34.1201 211.4 34.6601 211.11 35.1401C211.01 35.0101 210.87 34.8501 210.69 34.6801C210.5 34.5101 210.31 34.3401 210.11 34.1801C209.91 34.0201 209.74 33.9001 209.62 33.8301C209.93 33.2701 210.15 32.6501 210.29 31.9801C210.42 31.3101 210.51 30.6301 210.54 29.9601C210.58 29.2801 210.59 28.6501 210.59 28.0601V24.1201L210.58 24.1001ZM210.28 20.3401H218.22V22.1201H210.28V20.3401ZM211.14 24.1001H218.29V25.8601H211.14V24.1001ZM211.5 22.3001L213.19 21.9601C213.3 22.2601 213.41 22.5901 213.51 22.9601C213.62 23.3301 213.68 23.6401 213.71 23.9001L211.95 24.3101C211.93 24.0501 211.87 23.7301 211.8 23.3501C211.73 22.9701 211.62 22.6201 211.5 22.3001ZM216.61 30.8701L218.39 31.4601C218.02 32.0501 217.57 32.5801 217.04 33.0601C216.51 33.5401 215.92 33.9701 215.28 34.3401C214.63 34.7101 213.94 35.0401 213.19 35.3301C213.06 35.1001 212.88 34.8501 212.67 34.5701C212.45 34.2901 212.24 34.0701 212.02 33.8901C212.98 33.6001 213.88 33.1901 214.71 32.6701C215.54 32.1401 216.18 31.5401 216.61 30.8701ZM215.79 25.9301L217.37 26.6001C217.05 26.9101 216.67 27.2101 216.25 27.5001C215.82 27.7901 215.38 28.0401 214.92 28.2701C214.46 28.5001 214 28.6901 213.54 28.8501C213.4 28.6601 213.21 28.4501 212.99 28.2301C212.77 28.0101 212.56 27.8201 212.35 27.6601C212.76 27.5301 213.18 27.3701 213.61 27.1901C214.04 27.0101 214.45 26.8101 214.83 26.6001C215.21 26.3801 215.53 26.1601 215.78 25.9301H215.79ZM216.23 28.3101L217.85 28.9601C217.5 29.3601 217.09 29.7301 216.62 30.0801C216.15 30.4301 215.65 30.7501 215.13 31.0301C214.61 31.3101 214.08 31.5601 213.55 31.7801C213.42 31.5901 213.24 31.3701 213.02 31.1401C212.8 30.9101 212.58 30.7001 212.36 30.5401C212.83 30.3801 213.3 30.1901 213.79 29.9601C214.28 29.7301 214.74 29.4701 215.17 29.1901C215.6 28.9101 215.96 28.6201 216.23 28.3201V28.3101ZM213.25 18.8101H215.36V21.4001H213.25V18.8101ZM215.53 21.8801L217.42 22.2401C217.28 22.6201 217.15 22.9901 217.03 23.3301C216.92 23.6701 216.81 23.9701 216.71 24.2201L214.96 23.8601C215.06 23.5701 215.16 23.2401 215.27 22.8701C215.38 22.5001 215.46 22.1701 215.52 21.8801H215.53ZM220.38 31.9301L222.13 33.0501C221.83 33.3601 221.47 33.6801 221.05 34.0001C220.63 34.3201 220.19 34.6301 219.74 34.9101C219.28 35.1901 218.84 35.4301 218.41 35.6401C218.24 35.4401 218.02 35.2001 217.74 34.9401C217.46 34.6801 217.2 34.4501 216.98 34.2701C217.4 34.0901 217.83 33.8701 218.26 33.6001C218.69 33.3401 219.1 33.0601 219.48 32.7601C219.86 32.4701 220.17 32.1901 220.41 31.9201L220.38 31.9301ZM218.38 19.4001H226.61V21.2001H218.38V19.4001ZM218.81 22.4001H226.26V31.9901H218.81V22.4001ZM220.68 24.0301V25.1501H224.33V24.0301H220.68ZM220.68 26.6301V27.7501H224.33V26.6301H220.68ZM220.68 29.2601V30.3901H224.33V29.2601H220.68ZM221.49 20.3701L223.74 20.6201C223.6 21.1701 223.44 21.7101 223.26 22.2301C223.08 22.7501 222.93 23.2101 222.8 23.5901L221.07 23.2801C221.12 23.0001 221.17 22.7001 221.23 22.3501C221.29 22.0101 221.34 21.6601 221.39 21.3201C221.44 20.9801 221.47 20.6501 221.48 20.3701H221.49ZM222.79 33.0801L224.39 32.0401C224.69 32.2701 225.01 32.5301 225.36 32.8101C225.71 33.1001 226.04 33.3801 226.35 33.6601C226.66 33.9401 226.92 34.1901 227.12 34.4301L225.43 35.5801C225.26 35.3501 225.03 35.0901 224.73 34.8001C224.43 34.5101 224.11 34.2101 223.77 33.9101C223.43 33.6101 223.1 33.3301 222.79 33.0801Z" fill="white"/>
<path d="M229 23.5799C229.32 23.5999 229.65 23.6099 229.96 23.6099C230.28 23.6099 230.6 23.5899 230.92 23.5799C231.22 23.5699 231.58 23.5499 232 23.5199C232.42 23.4899 232.87 23.4599 233.34 23.4199C233.81 23.3799 234.29 23.3499 234.77 23.2999C235.25 23.2599 235.69 23.2299 236.1 23.1999C236.51 23.1799 236.84 23.1599 237.11 23.1599C237.76 23.1599 238.32 23.2599 238.8 23.4699C239.28 23.6799 239.66 24.0399 239.94 24.5399C240.22 25.0399 240.36 25.7299 240.36 26.5899C240.36 27.2999 240.33 28.0699 240.27 28.8899C240.21 29.7199 240.1 30.5099 239.95 31.2699C239.8 32.0299 239.59 32.6699 239.33 33.1999C239.04 33.8199 238.65 34.2599 238.15 34.4999C237.65 34.7399 237.06 34.8599 236.38 34.8599C236.04 34.8599 235.68 34.8299 235.28 34.7799C234.88 34.7299 234.53 34.6699 234.22 34.6099L233.84 32.2299C234.07 32.2899 234.32 32.3499 234.6 32.4099C234.88 32.4699 235.15 32.5199 235.41 32.5499C235.67 32.5899 235.87 32.5999 236.03 32.5999C236.33 32.5999 236.59 32.5399 236.82 32.4299C237.05 32.3199 237.23 32.1199 237.38 31.8299C237.55 31.4799 237.69 31.0299 237.79 30.4799C237.9 29.9299 237.98 29.3299 238.03 28.6899C238.08 28.0499 238.11 27.4299 238.11 26.8499C238.11 26.3699 238.04 26.0199 237.9 25.7899C237.76 25.5599 237.56 25.4099 237.31 25.3299C237.06 25.2499 236.74 25.2099 236.37 25.2099C236.09 25.2099 235.72 25.2299 235.25 25.2699C234.78 25.3099 234.28 25.3599 233.75 25.4099C233.22 25.4599 232.72 25.5199 232.26 25.5799C231.8 25.6399 231.45 25.6799 231.2 25.7099C230.94 25.7599 230.6 25.8099 230.2 25.8599C229.8 25.9099 229.46 25.9599 229.18 26.0099L228.96 23.5599L229 23.5799ZM236.31 19.8799C236.26 20.1099 236.21 20.3599 236.15 20.6299C236.09 20.8999 236.04 21.1499 235.99 21.3799C235.94 21.6399 235.88 21.9399 235.81 22.2699C235.74 22.5999 235.67 22.9299 235.6 23.2599C235.53 23.5899 235.47 23.9099 235.39 24.2199C235.27 24.7399 235.12 25.3399 234.94 26.0199C234.76 26.6999 234.55 27.4399 234.31 28.2299C234.07 29.0199 233.8 29.8099 233.5 30.5999C233.2 31.3899 232.88 32.1599 232.55 32.9099C232.22 33.6599 231.85 34.3299 231.47 34.9299L229.13 33.9899C229.55 33.4299 229.94 32.7899 230.31 32.0899C230.68 31.3899 231.01 30.6699 231.31 29.9299C231.61 29.1899 231.88 28.4599 232.11 27.7299C232.34 26.9999 232.55 26.3299 232.72 25.6999C232.89 25.0799 233.03 24.5399 233.13 24.0999C233.3 23.2799 233.43 22.4999 233.53 21.7399C233.63 20.9799 233.66 20.2699 233.64 19.5999L236.32 19.8699L236.31 19.8799ZM242.5 21.6999C242.79 22.0999 243.08 22.5799 243.39 23.1499C243.7 23.7199 244 24.3199 244.3 24.9599C244.6 25.5999 244.87 26.2099 245.11 26.7999C245.35 27.3899 245.54 27.8999 245.67 28.3299L243.38 29.3699C243.27 28.8699 243.11 28.3099 242.9 27.6999C242.69 27.0899 242.45 26.4699 242.17 25.8399C241.89 25.2099 241.6 24.6099 241.3 24.0499C240.99 23.4899 240.68 23.0099 240.36 22.6299L242.5 21.7099V21.6999ZM242.17 19.1999C242.33 19.4199 242.49 19.6699 242.67 19.9699C242.85 20.2699 243.01 20.5699 243.18 20.8699C243.35 21.1699 243.49 21.4299 243.61 21.6599L242.15 22.2899C242.03 22.0399 241.89 21.7599 241.74 21.4599C241.59 21.1599 241.42 20.8599 241.25 20.5599C241.08 20.2599 240.91 19.9999 240.75 19.7899L242.17 19.1999ZM244.32 18.3899C244.48 18.6199 244.64 18.8799 244.82 19.1799C245 19.4799 245.18 19.7799 245.35 20.0799C245.52 20.3799 245.66 20.6299 245.75 20.8399L244.33 21.4499C244.14 21.0799 243.91 20.6599 243.65 20.1799C243.39 19.7099 243.13 19.2999 242.88 18.9599L244.32 18.3799V18.3899Z" fill="white"/>
<path d="M252.16 29.17H254.46C254.39 29.99 254.26 30.73 254.07 31.41C253.88 32.09 253.58 32.7 253.17 33.24C252.76 33.78 252.17 34.25 251.42 34.65C250.66 35.05 249.68 35.39 248.47 35.67C248.41 35.47 248.31 35.25 248.17 35.01C248.03 34.78 247.88 34.54 247.72 34.31C247.56 34.08 247.4 33.89 247.24 33.74C248.28 33.55 249.12 33.31 249.74 33.03C250.36 32.75 250.84 32.42 251.17 32.05C251.5 31.68 251.73 31.26 251.86 30.78C251.99 30.31 252.09 29.77 252.15 29.17H252.16ZM249.88 19.26H261.71V29.88H249.88V19.26ZM251.96 21.13V22.25H259.5V21.13H251.96ZM251.96 23.99V25.11H259.5V23.99H251.96ZM251.96 26.87V28H259.5V26.87H251.96ZM256.55 28.44H258.76V32.74C258.76 33.03 258.8 33.21 258.89 33.29C258.98 33.37 259.19 33.41 259.53 33.41H261.42C261.62 33.41 261.78 33.36 261.89 33.25C262 33.14 262.08 32.91 262.12 32.57C262.16 32.23 262.2 31.69 262.23 30.99C262.39 31.11 262.58 31.23 262.81 31.35C263.04 31.47 263.29 31.57 263.55 31.66C263.81 31.75 264.03 31.82 264.21 31.88C264.14 32.83 264.01 33.56 263.83 34.09C263.65 34.62 263.39 34.97 263.04 35.18C262.69 35.38 262.22 35.49 261.62 35.49H259.23C258.52 35.49 257.97 35.41 257.58 35.24C257.19 35.07 256.92 34.79 256.77 34.39C256.62 33.99 256.55 33.46 256.55 32.79V28.47V28.44Z" fill="white"/>
<path d="M277.78 25.1099C277.54 25.2799 277.32 25.4399 277.13 25.5899C276.94 25.7399 276.76 25.8899 276.61 26.0299C276.39 26.1999 276.15 26.4099 275.86 26.6799C275.58 26.9399 275.29 27.2099 274.99 27.4799C274.69 27.7499 274.42 27.9999 274.19 28.2299C273.96 28.4599 273.78 28.6299 273.68 28.7499C273.75 28.7399 273.86 28.7499 274 28.7699C274.14 28.7899 274.26 28.8299 274.36 28.8799C274.62 28.9599 274.84 29.0999 275.01 29.2999C275.18 29.4999 275.32 29.7699 275.44 30.0999C275.5 30.2599 275.56 30.4299 275.61 30.6299C275.66 30.8299 275.72 31.0199 275.78 31.2099C275.84 31.3999 275.9 31.5799 275.96 31.7299C276.04 32.0099 276.19 32.2199 276.39 32.3599C276.59 32.4999 276.87 32.5799 277.22 32.5799C277.69 32.5799 278.13 32.5599 278.55 32.5299C278.97 32.4999 279.37 32.4599 279.74 32.4099C280.11 32.3599 280.45 32.3099 280.75 32.2499L280.61 34.6099C280.37 34.6599 280.03 34.6999 279.59 34.7499C279.15 34.7899 278.7 34.8199 278.24 34.8499C277.78 34.8799 277.39 34.8899 277.08 34.8899C276.23 34.8899 275.56 34.7799 275.07 34.5599C274.58 34.3399 274.23 33.9299 274 33.3499C273.95 33.1699 273.89 32.9699 273.82 32.7399C273.75 32.5099 273.69 32.2899 273.63 32.0599C273.58 31.8399 273.52 31.6599 273.48 31.5099C273.38 31.1899 273.25 30.9599 273.07 30.8299C272.89 30.6999 272.71 30.6399 272.53 30.6399C272.34 30.6399 272.15 30.6999 271.95 30.8299C271.75 30.9599 271.55 31.1299 271.34 31.3599C271.22 31.4799 271.07 31.6399 270.9 31.8299C270.73 32.0199 270.53 32.2399 270.31 32.4799C270.09 32.7199 269.86 32.9799 269.63 33.2499C269.4 33.5299 269.15 33.8099 268.9 34.1099C268.65 34.4099 268.4 34.7199 268.14 35.0499L266.02 33.5599C266.18 33.4199 266.36 33.2499 266.58 33.0699C266.8 32.8899 267.02 32.6799 267.26 32.4499C267.42 32.2899 267.64 32.0699 267.93 31.7699C268.22 31.4799 268.55 31.1399 268.93 30.7699C269.31 30.3999 269.7 29.9999 270.12 29.5699C270.53 29.1399 270.95 28.7199 271.37 28.2999C271.79 27.8799 272.18 27.4799 272.55 27.0999C272.92 26.7199 273.24 26.3899 273.51 26.0999C273.26 26.1099 272.98 26.1299 272.66 26.1399C272.35 26.1599 272.02 26.1799 271.69 26.1899C271.36 26.1999 271.02 26.2299 270.7 26.2599C270.38 26.2899 270.08 26.3199 269.8 26.3399C269.52 26.3599 269.28 26.3899 269.06 26.4099C268.75 26.4299 268.46 26.4699 268.2 26.5099C267.94 26.5499 267.71 26.5899 267.52 26.6099L267.3 24.1299C267.5 24.1399 267.76 24.1599 268.07 24.1799C268.38 24.1999 268.7 24.1999 269.02 24.1799C269.19 24.1799 269.47 24.1799 269.86 24.1599C270.25 24.1499 270.7 24.1299 271.22 24.1099C271.74 24.0899 272.26 24.0599 272.8 24.0299C273.34 23.9999 273.84 23.9599 274.31 23.9199C274.78 23.8799 275.16 23.8399 275.45 23.7999C275.62 23.7799 275.81 23.7499 276.02 23.7099C276.23 23.6699 276.38 23.6399 276.48 23.5999L277.79 25.0899L277.78 25.1099ZM269.8 19.3799C270.3 19.4799 270.88 19.5699 271.53 19.6599C272.18 19.7499 272.85 19.8399 273.54 19.9199C274.23 19.9999 274.89 20.0699 275.52 20.1299C276.15 20.1799 276.69 20.2299 277.15 20.2699L276.86 22.3799C276.39 22.3399 275.84 22.2899 275.21 22.2299C274.58 22.1599 273.93 22.0899 273.25 22.0099C272.57 21.9299 271.9 21.8399 271.24 21.7599C270.58 21.6799 269.99 21.5899 269.46 21.4899L269.8 19.3999V19.3799Z" fill="white"/>
<path d="M285.16 20.26C285.41 20.3 285.68 20.32 285.97 20.33C286.26 20.34 286.53 20.35 286.8 20.35C286.99 20.35 287.28 20.35 287.66 20.35C288.04 20.35 288.48 20.33 288.96 20.32C289.45 20.31 289.93 20.3 290.41 20.28C290.89 20.27 291.33 20.25 291.72 20.24C292.11 20.22 292.41 20.21 292.63 20.2C293 20.16 293.3 20.13 293.51 20.1C293.73 20.07 293.89 20.04 294 20L295.17 21.6C294.97 21.73 294.76 21.86 294.54 22C294.32 22.13 294.11 22.28 293.91 22.43C293.67 22.6 293.38 22.82 293.05 23.09C292.72 23.36 292.36 23.65 291.98 23.94C291.6 24.24 291.24 24.53 290.88 24.82C290.53 25.11 290.21 25.37 289.92 25.59C290.22 25.52 290.51 25.47 290.78 25.44C291.06 25.41 291.34 25.4 291.63 25.4C292.65 25.4 293.57 25.6 294.38 25.99C295.19 26.38 295.83 26.92 296.31 27.6C296.78 28.28 297.02 29.06 297.02 29.93C297.02 30.88 296.78 31.74 296.3 32.5C295.82 33.27 295.1 33.88 294.13 34.34C293.16 34.8 291.96 35.02 290.5 35.02C289.67 35.02 288.92 34.9 288.26 34.66C287.59 34.42 287.07 34.08 286.68 33.63C286.29 33.18 286.1 32.66 286.1 32.06C286.1 31.57 286.23 31.11 286.5 30.68C286.77 30.25 287.15 29.91 287.63 29.65C288.12 29.39 288.68 29.25 289.31 29.25C290.14 29.25 290.84 29.42 291.41 29.74C291.98 30.07 292.42 30.51 292.72 31.06C293.03 31.61 293.18 32.22 293.2 32.88L291.09 33.17C291.08 32.51 290.91 31.98 290.59 31.58C290.27 31.18 289.85 30.98 289.32 30.98C288.98 30.98 288.71 31.07 288.51 31.24C288.31 31.41 288.2 31.62 288.2 31.84C288.2 32.18 288.37 32.45 288.7 32.65C289.03 32.85 289.47 32.96 290.01 32.96C291.03 32.96 291.88 32.84 292.57 32.59C293.25 32.34 293.77 31.99 294.11 31.53C294.45 31.07 294.62 30.52 294.62 29.88C294.62 29.34 294.45 28.87 294.12 28.46C293.79 28.05 293.34 27.73 292.78 27.51C292.22 27.28 291.58 27.17 290.87 27.17C290.16 27.17 289.54 27.26 288.96 27.43C288.38 27.6 287.84 27.85 287.33 28.17C286.82 28.49 286.32 28.87 285.84 29.32C285.35 29.77 284.87 30.27 284.39 30.82L282.75 29.13C283.07 28.87 283.44 28.57 283.85 28.24C284.26 27.91 284.68 27.56 285.1 27.2C285.52 26.84 285.93 26.5 286.31 26.18C286.69 25.86 287.01 25.6 287.27 25.38C287.52 25.18 287.82 24.94 288.15 24.66C288.48 24.38 288.83 24.1 289.19 23.81C289.55 23.52 289.89 23.23 290.22 22.96C290.54 22.69 290.81 22.46 291.03 22.27C290.85 22.27 290.62 22.27 290.33 22.29C290.04 22.3 289.73 22.31 289.38 22.33C289.04 22.34 288.7 22.35 288.35 22.37C288.01 22.38 287.69 22.4 287.4 22.41C287.11 22.43 286.86 22.44 286.67 22.45C286.43 22.46 286.18 22.48 285.91 22.5C285.64 22.52 285.41 22.55 285.19 22.59L285.12 20.25L285.16 20.26Z" fill="white"/>
<path d="M68.22 43.6399H74.2V45.5799H70.37V55.1399H68.23V43.6399H68.22Z" fill="white"/>
<path d="M75.96 54.59H92.36V56.41H75.96V54.59ZM76.39 44.88H91.91V46.66H76.39V44.88ZM77.69 47.4799H90.7V53.6399H77.69V47.4799ZM78.53 57.31L80.15 56.18C80.47 56.4 80.81 56.6499 81.15 56.9399C81.49 57.2299 81.82 57.51 82.12 57.79C82.43 58.07 82.67 58.34 82.85 58.59L81.1 59.8699C80.94 59.6199 80.72 59.34 80.43 59.04C80.14 58.74 79.83 58.44 79.5 58.13C79.17 57.82 78.84 57.55 78.52 57.31H78.53ZM79.72 48.9399V49.86H88.58V48.9399H79.72ZM79.72 51.24V52.16H88.58V51.24H79.72ZM83.02 43.7H85.14V52.86H83.02V43.7ZM86.33 53.45H88.45V58.5099C88.45 59.0299 88.38 59.42 88.24 59.7C88.1 59.98 87.85 60.19 87.48 60.33C87.11 60.46 86.65 60.5399 86.11 60.57C85.57 60.6 84.93 60.6199 84.2 60.6199C84.15 60.32 84.07 60 83.94 59.65C83.81 59.3 83.68 59 83.53 58.7299C83.85 58.7299 84.18 58.7299 84.51 58.75C84.84 58.76 85.13 58.77 85.39 58.77H85.92C86.08 58.76 86.18 58.7299 86.23 58.6899C86.28 58.6499 86.31 58.57 86.31 58.45V53.4599L86.33 53.45Z" fill="#FFFBC7"/>
<path d="M98.6601 43.75L100.78 44.42C100.37 45.48 99.8801 46.53 99.3001 47.58C98.7201 48.63 98.1101 49.62 97.4501 50.55C96.7901 51.48 96.1101 52.29 95.4001 52.99C95.3301 52.81 95.2101 52.58 95.0601 52.29C94.9001 52 94.7401 51.71 94.5701 51.43C94.4001 51.15 94.2501 50.91 94.1201 50.73C94.7201 50.17 95.3001 49.52 95.8701 48.78C96.4401 48.04 96.9601 47.24 97.4401 46.38C97.9101 45.52 98.3201 44.65 98.6501 43.77L98.6601 43.75ZM96.8801 48.94L98.9901 46.82L99.0301 46.86V60.58H96.8901V48.95L96.8801 48.94ZM99.6101 51.2H111.24V53.29H99.6101V51.2ZM109.21 43.93L110.79 45.77C110.08 46 109.32 46.21 108.5 46.41C107.68 46.61 106.84 46.79 105.96 46.95C105.08 47.11 104.21 47.26 103.33 47.38C102.45 47.5 101.6 47.62 100.76 47.71C100.71 47.45 100.62 47.13 100.49 46.77C100.36 46.41 100.23 46.1 100.11 45.85C100.93 45.75 101.75 45.64 102.58 45.5C103.41 45.36 104.23 45.21 105.03 45.04C105.83 44.87 106.58 44.7 107.29 44.51C108 44.32 108.63 44.13 109.2 43.93H109.21ZM100.35 57.9H111.04V59.97H100.35V57.9ZM104.51 46.6H106.71V58.55H104.51V46.6Z" fill="#FFFBC7"/>
<path d="M113.27 50.79H129.94V53.15H113.27V50.79Z" fill="#FFFBC7"/>
<path d="M137.34 57.4L139.3 58.3C138.82 58.61 138.26 58.92 137.61 59.22C136.96 59.52 136.3 59.79 135.61 60.04C134.93 60.29 134.28 60.49 133.67 60.66C133.54 60.52 133.38 60.35 133.19 60.15C133 59.95 132.81 59.75 132.61 59.56C132.41 59.36 132.23 59.2 132.07 59.08C132.71 58.96 133.35 58.82 134.01 58.65C134.66 58.48 135.28 58.29 135.86 58.07C136.44 57.85 136.94 57.63 137.35 57.4H137.34ZM132.12 46.06H135.7V46.24H144.57V46.06H148.51V47.77H144.57V47.59H135.7V47.77H132.12V46.06ZM134.39 50.21H146.49V57.54H134.39V50.21ZM135.05 44.26H146.32L145.89 49.59H134.41L135.06 44.26H135.05ZM136.48 51.49V52.26H144.31V51.49H136.48ZM136.48 53.49V54.25H144.31V53.49H136.48ZM136.48 55.47V56.26H144.31V55.47H136.48ZM136.94 45.52L136.6 48.33H143.85L144.07 45.52H136.94ZM139.55 44.85H141.51C141.47 45.31 141.43 45.78 141.38 46.27C141.33 46.76 141.27 47.24 141.22 47.69C141.17 48.15 141.11 48.55 141.05 48.9H139.07C139.14 48.54 139.2 48.13 139.26 47.67C139.31 47.21 139.37 46.73 139.42 46.24C139.47 45.75 139.52 45.29 139.55 44.85ZM141.32 58.49L143.03 57.41C143.68 57.63 144.34 57.87 145.01 58.13C145.68 58.39 146.32 58.65 146.93 58.9C147.54 59.15 148.06 59.38 148.51 59.59L146.17 60.63C145.82 60.43 145.39 60.2 144.87 59.96C144.35 59.71 143.78 59.46 143.18 59.2C142.57 58.94 141.96 58.7 141.34 58.49H141.32Z" fill="#FFFBC7"/>
<path d="M150.91 48.0499C151.03 48.0599 151.19 48.0799 151.38 48.1099C151.57 48.1399 151.79 48.1599 152.05 48.1799C152.31 48.1999 152.58 48.2099 152.88 48.2099H164.69C165.17 48.2099 165.56 48.1999 165.86 48.1699C166.16 48.1399 166.43 48.1199 166.67 48.0799V50.4699C166.48 50.4499 166.22 50.4299 165.9 50.4299C165.58 50.4299 165.17 50.4299 164.69 50.4299H152.88C152.58 50.4299 152.31 50.4299 152.06 50.4299C151.81 50.4299 151.6 50.4499 151.41 50.4599C151.22 50.4699 151.06 50.4799 150.91 50.4999V48.0499ZM156.85 44.8099C156.83 44.9799 156.8 45.1999 156.78 45.4799C156.76 45.7599 156.74 46.0799 156.74 46.4299V52.8699C156.74 53.1299 156.74 53.3899 156.76 53.6399C156.78 53.8899 156.78 54.0999 156.79 54.2899C156.79 54.4799 156.8 54.6399 156.82 54.7699H154.3C154.32 54.6399 154.34 54.4799 154.35 54.2899C154.36 54.0999 154.37 53.8899 154.39 53.6399C154.41 53.3899 154.41 53.1399 154.41 52.8699V46.4299C154.41 46.1699 154.41 45.8999 154.38 45.6199C154.36 45.3399 154.34 45.0699 154.3 44.8099H156.86H156.85ZM163.35 51.0199C163.35 52.1399 163.27 53.1499 163.11 54.0499C162.95 54.9499 162.67 55.7799 162.27 56.5199C161.87 57.2599 161.32 57.9199 160.61 58.5099C159.9 59.0999 159.01 59.6299 157.93 60.1099L156 58.2899C156.86 57.9899 157.61 57.6499 158.24 57.2799C158.87 56.9099 159.39 56.4499 159.8 55.8999C160.21 55.3499 160.51 54.6899 160.71 53.9199C160.91 53.1499 161.01 52.2099 161.01 51.0999V46.3099C161.01 45.9399 161 45.6099 160.97 45.3299C160.95 45.0499 160.92 44.8199 160.9 44.6399H163.47C163.45 44.8199 163.42 45.0499 163.39 45.3299C163.36 45.6099 163.35 45.9399 163.35 46.3099V51.0099V51.0199Z" fill="#FFFBC7"/>
<path d="M174.24 52.5199C174.04 52.9299 173.79 53.3699 173.5 53.8299C173.21 54.2999 172.9 54.7699 172.57 55.2299C172.24 55.6999 171.92 56.1299 171.61 56.5399C171.3 56.9399 171.02 57.2799 170.76 57.5399L168.82 56.2099C169.12 55.9299 169.43 55.6099 169.75 55.2299C170.07 54.8499 170.38 54.4499 170.69 54.0299C171 53.6099 171.28 53.1899 171.54 52.7699C171.8 52.3499 172.02 51.9499 172.21 51.5599L174.24 52.5099V52.5199ZM169.65 47.6399C169.93 47.6799 170.21 47.7099 170.51 47.7399C170.81 47.7699 171.1 47.7899 171.39 47.7899H182.5C182.75 47.7899 183.05 47.7799 183.39 47.7499C183.73 47.7199 184.03 47.6999 184.28 47.6599V50.0199C184 49.9999 183.7 49.9799 183.38 49.9799C183.06 49.9799 182.77 49.9799 182.52 49.9799H171.4C171.14 49.9799 170.85 49.9799 170.53 49.9999C170.21 50.0099 169.92 50.0299 169.66 50.0499V47.6599L169.65 47.6399ZM178.47 44.7799C178.46 44.8599 178.44 44.9999 178.42 45.1899C178.4 45.3799 178.37 45.5799 178.35 45.7899C178.33 45.9999 178.31 46.1799 178.31 46.3399V58.3299C178.31 58.8499 178.16 59.2599 177.85 59.5599C177.54 59.8599 177.07 60.0199 176.44 60.0199C176.12 60.0199 175.79 60.0199 175.45 59.9999C175.11 59.9899 174.78 59.9699 174.46 59.9499C174.14 59.9299 173.82 59.8999 173.51 59.8599L173.29 57.6299C173.67 57.6999 174.05 57.7599 174.41 57.7899C174.77 57.8199 175.07 57.8399 175.28 57.8399C175.52 57.8399 175.69 57.7899 175.78 57.6899C175.88 57.5899 175.93 57.4199 175.94 57.1899C175.94 57.0799 175.94 56.8499 175.94 56.4899C175.94 56.1299 175.94 55.6999 175.94 55.2099V46.3399C175.94 46.0999 175.92 45.8199 175.89 45.4899C175.85 45.1599 175.82 44.9199 175.78 44.7799H178.44H178.47ZM181.98 51.5099C182.21 51.7999 182.46 52.1399 182.74 52.5399C183.02 52.9399 183.31 53.3599 183.6 53.8099C183.89 54.2599 184.16 54.6999 184.41 55.1199C184.66 55.5399 184.88 55.9199 185.06 56.2399L182.94 57.3899C182.75 57.0099 182.53 56.5899 182.28 56.1499C182.03 55.7099 181.78 55.2599 181.52 54.8199C181.26 54.3799 180.99 53.9599 180.74 53.5699C180.48 53.1799 180.24 52.8499 180.03 52.5699L181.99 51.5099H181.98ZM180.95 45.4799C180.95 45.0999 181.04 44.7499 181.23 44.4399C181.42 44.1299 181.67 43.8799 181.99 43.6799C182.31 43.4899 182.66 43.3899 183.04 43.3899C183.42 43.3899 183.77 43.4899 184.08 43.6799C184.39 43.8699 184.64 44.1199 184.83 44.4399C185.02 44.7499 185.11 45.0999 185.11 45.4799C185.11 45.8599 185.02 46.2199 184.83 46.5299C184.64 46.8499 184.39 47.0999 184.08 47.2899C183.77 47.4799 183.42 47.5699 183.04 47.5699C182.66 47.5699 182.3 47.4799 181.99 47.2899C181.67 47.0999 181.42 46.8499 181.23 46.5299C181.04 46.2099 180.95 45.8599 180.95 45.4799ZM182.05 45.4799C182.05 45.7599 182.15 45.9899 182.34 46.1699C182.53 46.3599 182.77 46.4499 183.04 46.4499C183.31 46.4499 183.53 46.3599 183.72 46.1699C183.91 45.9799 184.01 45.7499 184.01 45.4799C184.01 45.2099 183.91 44.9899 183.72 44.7999C183.53 44.6099 183.3 44.5099 183.04 44.5099C182.78 44.5099 182.53 44.6099 182.34 44.7999C182.15 44.9899 182.05 45.2199 182.05 45.4799Z" fill="#FFFBC7"/>
<path d="M187.62 50.6499C187.84 50.6599 188.11 50.6799 188.45 50.6899C188.78 50.7099 189.14 50.7199 189.5 50.7299C189.87 50.7399 190.21 50.7499 190.52 50.7499H200.19C200.61 50.7499 201.01 50.7399 201.38 50.7099C201.75 50.6799 202.06 50.6599 202.3 50.6499V53.4799C202.1 53.4699 201.79 53.4499 201.38 53.4299C200.97 53.4099 200.58 53.3899 200.19 53.3899H190.52C190 53.3899 189.48 53.3899 188.94 53.4199C188.4 53.4399 187.96 53.4599 187.63 53.4799V50.6499H187.62Z" fill="#FFFBC7"/>
<path d="M208.08 57.25V46.9C208.08 46.59 208.06 46.23 208.04 45.82C208.01 45.41 207.96 45.05 207.9 44.74H210.71C210.67 45.05 210.64 45.4 210.6 45.77C210.56 46.14 210.55 46.52 210.55 46.89V57.24C210.55 57.41 210.55 57.64 210.57 57.95C210.59 58.26 210.61 58.57 210.64 58.9C210.68 59.22 210.7 59.51 210.71 59.76H207.9C207.95 59.4 207.99 58.98 208.03 58.5C208.07 58.02 208.08 57.6 208.08 57.24V57.25ZM210.01 49.4C210.61 49.56 211.28 49.76 212.03 50C212.77 50.25 213.52 50.51 214.28 50.78C215.04 51.06 215.75 51.33 216.41 51.6C217.07 51.87 217.63 52.12 218.08 52.35L217.05 54.83C216.55 54.57 215.99 54.3 215.38 54.03C214.77 53.76 214.15 53.5 213.52 53.25C212.89 53 212.27 52.76 211.67 52.55C211.06 52.33 210.52 52.14 210.02 51.97V49.4H210.01Z" fill="#FFFBC7"/>
<path d="M226.39 60.6299H220.41V58.6899H224.24V49.1299H226.38V60.6299H226.39Z" fill="white"/>
</g>
<defs>
<clipPath id="clip0_100_1222">
<rect width="312" height="77" fill="white"/>
</clipPath>
</defs>
</svg>
