<svg width="375" height="243" viewBox="0 0 375 243" fill="none" xmlns="http://www.w3.org/2000/svg">
<rect width="375" height="243" fill="white"/>
<path d="M45.7515 116.472C61.6159 105.035 79.6869 94.837 99.0756 85.7364C104.023 83.413 111.294 84.4014 114.834 87.0328C115.263 87.3473 115.623 87.681 115.945 88.0212C120.443 86.1278 124.941 84.2281 129.439 82.3348C139.451 78.1118 152.622 84.6581 148.246 91.2879C153.495 88.9004 158.739 86.5129 163.994 84.1319C168.481 82.0974 175.81 82.4183 179.551 84.7351C183.361 87.097 184.218 90.2995 182.345 93.4443C189.764 90.7616 197.686 88.8041 206.433 88.3292C213.338 87.9506 218.487 91.3585 218.895 95.2093C227.964 90.7809 237.733 86.4167 249.613 88.4255C255.227 89.3753 260.111 93.1427 258.873 96.9036C265.461 94.683 272.049 92.4624 278.632 90.2418C288.49 86.9173 298.65 91.2815 296.814 98.0268C296.703 98.4375 296.592 98.8547 296.486 99.2654C300.608 98.7713 304.731 98.2771 308.858 97.7829C318.404 96.6533 328.019 96.4159 337.597 95.4596C340.238 95.1964 342.566 96.6341 342.936 98.1102C343.365 99.8238 341.703 101.184 339.2 101.89C330.263 104.432 321.77 107.519 312.583 109.669C303.487 111.8 294.37 113.796 285.125 115.638C278.86 116.883 270.081 114.495 269.578 110.112C259.339 113.571 249.094 117.037 238.855 120.496C234.336 122.024 229.446 122.274 225.239 120.458C221.593 118.892 219.445 115.914 220.487 113.064C212.238 116.729 203.596 120.021 194.638 122.941C189.833 124.507 183.7 124.835 179.715 122.364C176.434 120.329 175.127 117.287 176.662 114.482C165.84 119.681 154.839 123.975 141.229 125.496C136.361 126.041 131.381 123.654 129.571 121.183C129.174 120.637 128.894 120.092 128.714 119.54C122.862 122.21 117.014 124.892 111.162 127.556C100.605 132.363 86.3914 124.244 93.1965 117.377L95.0433 115.509C88.1642 118.391 81.2903 121.279 74.4111 124.161C69.6751 126.144 64.7909 125.868 61.1291 124.398C60.9121 124.539 60.6951 124.681 60.4782 124.822C51.1702 130.912 36.9779 122.8 45.7515 116.478V116.472Z" fill="#FFFBC7"/>
<path d="M93.8176 73.64V80.072H110.714V73.64H93.8176ZM88.2496 68.12H116.57V85.544H88.2496V68.12ZM81.6256 89.576H100.01V111.032H94.2496V95.096H87.0976V111.32H81.6256V89.576ZM104.042 89.576H123.05V111.08H117.29V95.096H109.562V111.32H104.042V89.576ZM84.0256 103.352H96.6496V108.872H84.0256V103.352ZM106.682 103.352H120.122V108.872H106.682V103.352ZM145.658 66.248L149.162 69.656C147.818 70.04 146.314 70.392 144.65 70.712C143.018 71.032 141.354 71.288 139.658 71.48C137.962 71.672 136.33 71.816 134.762 71.912C134.666 71.432 134.49 70.856 134.234 70.184C134.01 69.48 133.754 68.904 133.466 68.456C134.938 68.296 136.41 68.12 137.882 67.928C139.386 67.704 140.81 67.448 142.154 67.16C143.53 66.872 144.698 66.568 145.658 66.248ZM166.442 66.296L169.946 69.656C168.506 70.104 166.906 70.488 165.146 70.808C163.386 71.096 161.578 71.336 159.722 71.528C157.898 71.72 156.138 71.88 154.442 72.008C154.346 71.496 154.17 70.904 153.914 70.232C153.658 69.528 153.418 68.936 153.194 68.456C154.762 68.328 156.362 68.152 157.994 67.928C159.626 67.704 161.178 67.448 162.65 67.16C164.154 66.872 165.418 66.584 166.442 66.296ZM131.882 67.304L138.074 68.84C138.042 69.224 137.658 69.48 136.922 69.608V71.96C136.922 73.208 136.778 74.648 136.49 76.28C136.202 77.88 135.674 79.496 134.906 81.128C134.17 82.728 133.066 84.216 131.594 85.592C131.338 85.208 130.986 84.792 130.538 84.344C130.09 83.864 129.626 83.416 129.146 83C128.666 82.552 128.218 82.216 127.802 81.992C129.018 80.936 129.898 79.816 130.442 78.632C131.018 77.448 131.402 76.264 131.594 75.08C131.786 73.864 131.882 72.728 131.882 71.672V67.304ZM151.802 67.352L157.946 68.744C157.914 69.192 157.53 69.464 156.794 69.56V72.008C156.794 73.128 156.634 74.408 156.314 75.848C155.994 77.256 155.386 78.664 154.49 80.072C153.594 81.448 152.298 82.68 150.602 83.768C150.41 83.384 150.106 82.952 149.69 82.472C149.274 81.96 148.842 81.48 148.394 81.032C147.946 80.552 147.514 80.2 147.098 79.976C148.442 79.144 149.434 78.264 150.074 77.336C150.746 76.408 151.194 75.464 151.418 74.504C151.674 73.544 151.802 72.616 151.802 71.72V67.352ZM134.138 73.4H150.122V77.576H134.138V73.4ZM153.914 73.4H171.866V77.576H153.914V73.4ZM140.474 74.792H145.562V82.568H140.474V74.792ZM160.634 74.792H165.77V82.616H160.634V74.792ZM139.994 92.264V94.376H160.922V92.264H139.994ZM139.994 97.64V99.752H160.922V97.64H139.994ZM139.994 86.936V89H160.922V86.936H139.994ZM134.426 83.48H166.73V103.16H134.426V83.48ZM152.954 105.704L157.754 102.968C159.482 103.576 161.226 104.232 162.986 104.936C164.778 105.608 166.474 106.296 168.074 107C169.706 107.672 171.082 108.28 172.202 108.824L165.482 111.416C164.586 110.904 163.466 110.312 162.122 109.64C160.778 108.968 159.322 108.28 157.754 107.576C156.218 106.904 154.618 106.28 152.954 105.704ZM142.346 102.776L147.578 105.176C146.298 106.008 144.794 106.824 143.066 107.624C141.338 108.424 139.562 109.144 137.738 109.784C135.914 110.456 134.186 111.016 132.554 111.464C132.202 111.08 131.77 110.616 131.258 110.072C130.778 109.56 130.266 109.032 129.722 108.488C129.178 107.976 128.698 107.56 128.282 107.24C129.978 106.92 131.69 106.536 133.418 106.088C135.178 105.64 136.826 105.128 138.362 104.552C139.93 103.976 141.258 103.384 142.346 102.776ZM209.03 66.2H214.742V111.272H209.03V66.2ZM204.854 75.704L209.03 76.28C208.966 77.656 208.822 79.16 208.598 80.792C208.406 82.424 208.15 84.04 207.83 85.64C207.542 87.208 207.206 88.6 206.822 89.816L202.55 88.328C202.934 87.24 203.27 85.976 203.558 84.536C203.878 83.064 204.15 81.56 204.374 80.024C204.598 78.488 204.758 77.048 204.854 75.704ZM213.446 75.8L217.382 74.168C217.862 75.128 218.342 76.168 218.822 77.288C219.334 78.408 219.782 79.496 220.166 80.552C220.582 81.608 220.886 82.536 221.078 83.336L216.902 85.304C216.742 84.472 216.47 83.512 216.086 82.424C215.734 81.336 215.334 80.216 214.886 79.064C214.438 77.88 213.958 76.792 213.446 75.8ZM220.31 73.496H244.886V90.632H239.27V78.824H220.31V73.496ZM218.15 87.656H247.91V93.128H218.15V87.656ZM235.142 88.808C235.846 91.432 236.79 93.88 237.974 96.152C239.19 98.392 240.694 100.36 242.486 102.056C244.31 103.752 246.47 105.08 248.966 106.04C248.486 106.424 247.99 106.936 247.478 107.576C246.966 108.216 246.47 108.872 245.99 109.544C245.51 110.216 245.126 110.856 244.838 111.464C242.118 110.152 239.798 108.456 237.878 106.376C235.99 104.264 234.406 101.816 233.126 99.032C231.846 96.248 230.79 93.16 229.958 89.768L235.142 88.808ZM228.662 66.2H234.47V83.24C234.47 85.192 234.358 87.192 234.134 89.24C233.91 91.288 233.51 93.336 232.934 95.384C232.39 97.432 231.574 99.416 230.486 101.336C229.43 103.256 228.038 105.096 226.31 106.856C224.614 108.584 222.534 110.152 220.07 111.56C219.814 111.112 219.446 110.616 218.966 110.072C218.486 109.528 217.974 108.968 217.43 108.392C216.886 107.848 216.39 107.416 215.942 107.096C218.342 105.912 220.326 104.6 221.894 103.16C223.462 101.688 224.694 100.136 225.59 98.504C226.518 96.872 227.19 95.192 227.606 93.464C228.054 91.736 228.342 90.008 228.47 88.28C228.598 86.52 228.662 84.84 228.662 83.24V66.2ZM262.502 84.92V102.632H256.982V90.248H251.558V84.92H262.502ZM262.502 100.328C263.43 101.928 264.742 103.112 266.438 103.88C268.134 104.616 270.198 105.032 272.63 105.128C274.07 105.192 275.798 105.24 277.814 105.272C279.862 105.272 281.99 105.256 284.198 105.224C286.438 105.192 288.614 105.144 290.726 105.08C292.87 104.984 294.79 104.856 296.486 104.696C296.262 105.112 296.022 105.672 295.766 106.376C295.542 107.048 295.318 107.736 295.094 108.44C294.902 109.144 294.758 109.768 294.662 110.312C293.19 110.408 291.494 110.472 289.574 110.504C287.654 110.536 285.67 110.552 283.622 110.552C281.574 110.584 279.59 110.584 277.67 110.552C275.75 110.552 274.054 110.52 272.582 110.456C269.702 110.328 267.254 109.864 265.238 109.064C263.222 108.264 261.494 106.936 260.054 105.08C259.126 106.04 258.134 106.984 257.078 107.912C256.054 108.872 254.934 109.864 253.718 110.888L250.982 105.176C252.006 104.504 253.078 103.752 254.198 102.92C255.35 102.088 256.454 101.224 257.51 100.328H262.502ZM251.75 70.712L256.118 67.448C257.046 68.152 258.006 68.952 258.998 69.848C259.99 70.744 260.902 71.64 261.734 72.536C262.566 73.432 263.238 74.28 263.75 75.08L258.998 78.728C258.55 77.928 257.926 77.064 257.126 76.136C256.358 75.176 255.494 74.232 254.534 73.304C253.574 72.344 252.646 71.48 251.75 70.712ZM264.47 69.512H295.382V73.976H264.47V69.512ZM272.15 84.2H287.606V87.704H272.15V84.2ZM276.758 66.2H282.326V72.2H276.758V66.2ZM277.766 81.512H281.894V91.256H277.766V81.512ZM265.718 77.384H290.87V81.752H270.902V103.16H265.718V77.384ZM273.35 90.392H277.286V101H273.35V90.392ZM275.558 90.392H286.454V99.464H275.558V96.248H282.47V93.56H275.558V90.392ZM289.046 77.384H294.326V98.024C294.326 99.208 294.198 100.152 293.942 100.856C293.686 101.528 293.174 102.072 292.406 102.488C291.606 102.872 290.678 103.112 289.622 103.208C288.566 103.304 287.334 103.352 285.926 103.352C285.83 102.648 285.622 101.848 285.302 100.952C285.014 100.056 284.71 99.288 284.39 98.648C285.19 98.68 285.974 98.696 286.742 98.696C287.51 98.696 288.038 98.696 288.326 98.696C288.614 98.696 288.806 98.648 288.902 98.552C288.998 98.424 289.046 98.232 289.046 97.976V77.384ZM284.438 72.728L289.862 73.88C289.382 74.808 288.934 75.688 288.518 76.52C288.102 77.352 287.718 78.088 287.366 78.728L282.758 77.576C283.078 76.84 283.398 76.024 283.718 75.128C284.038 74.2 284.278 73.4 284.438 72.728ZM269.99 74.168L274.742 73.064C275.158 73.704 275.526 74.456 275.846 75.32C276.198 76.152 276.422 76.888 276.518 77.528L271.526 78.728C271.462 78.12 271.286 77.384 270.998 76.52C270.71 75.656 270.374 74.872 269.99 74.168Z" fill="#6B8A2E"/>
<path d="M195.05 79.4L198.65 82.904L191.498 90.056L198.554 97.16L195.05 100.712L187.898 93.656L180.842 100.664L177.338 97.112L184.298 90.056L177.29 83L180.842 79.4L187.898 86.408L195.05 79.4Z" fill="#474747"/>
<path d="M119.063 143.9H137.583V146.52H119.063V143.9ZM146.263 137.16H153.663V139.36H146.263V137.16ZM152.663 137.16H152.923L153.283 137.08L154.883 137.28C154.776 138.067 154.643 138.913 154.483 139.82C154.336 140.713 154.169 141.613 153.983 142.52C153.809 143.427 153.636 144.28 153.463 145.08L151.323 144.86C151.456 144.247 151.589 143.6 151.723 142.92C151.856 142.227 151.983 141.54 152.103 140.86C152.223 140.18 152.329 139.547 152.423 138.96C152.529 138.36 152.609 137.84 152.663 137.4V137.16ZM153.003 142.16H156.083V144.32H152.363L153.003 142.16ZM155.283 142.16H155.723L156.103 142.1L157.543 142.62C157.169 144.66 156.616 146.467 155.883 148.04C155.163 149.613 154.296 150.96 153.283 152.08C152.269 153.187 151.143 154.073 149.903 154.74C149.796 154.567 149.643 154.367 149.443 154.14C149.256 153.913 149.056 153.693 148.843 153.48C148.643 153.267 148.456 153.1 148.283 152.98C149.483 152.393 150.549 151.62 151.483 150.66C152.429 149.7 153.223 148.553 153.863 147.22C154.516 145.873 154.989 144.34 155.283 142.62V142.16ZM150.003 140.18C150.229 141.7 150.536 143.133 150.923 144.48C151.309 145.813 151.809 147.033 152.423 148.14C153.049 149.233 153.816 150.187 154.723 151C155.629 151.8 156.703 152.427 157.943 152.88C157.783 153.027 157.609 153.207 157.423 153.42C157.236 153.647 157.056 153.88 156.883 154.12C156.723 154.373 156.589 154.607 156.483 154.82C155.163 154.26 154.036 153.527 153.103 152.62C152.183 151.7 151.403 150.627 150.763 149.4C150.136 148.173 149.623 146.807 149.223 145.3C148.823 143.793 148.496 142.167 148.243 140.42L150.003 140.18ZM141.903 136.02L143.983 136.8C143.716 137.307 143.436 137.833 143.143 138.38C142.849 138.927 142.563 139.447 142.283 139.94C142.003 140.433 141.736 140.86 141.483 141.22L139.883 140.54C140.123 140.127 140.369 139.66 140.623 139.14C140.876 138.62 141.116 138.087 141.343 137.54C141.569 136.993 141.756 136.487 141.903 136.02ZM144.203 138.4L146.163 139.28C145.683 140.04 145.156 140.84 144.583 141.68C144.009 142.507 143.436 143.307 142.863 144.08C142.289 144.84 141.749 145.507 141.243 146.08L139.843 145.3C140.216 144.847 140.603 144.34 141.003 143.78C141.403 143.207 141.796 142.613 142.183 142C142.583 141.373 142.956 140.753 143.303 140.14C143.649 139.513 143.949 138.933 144.203 138.4ZM138.823 140.76L139.983 139.12C140.329 139.427 140.683 139.767 141.043 140.14C141.416 140.5 141.756 140.867 142.063 141.24C142.383 141.6 142.623 141.927 142.783 142.22L141.563 144.08C141.403 143.76 141.169 143.407 140.863 143.02C140.569 142.633 140.243 142.24 139.883 141.84C139.523 141.44 139.169 141.08 138.823 140.76ZM143.883 143.16L145.463 142.5C145.729 142.953 145.983 143.44 146.223 143.96C146.463 144.467 146.669 144.967 146.843 145.46C147.029 145.94 147.156 146.373 147.223 146.76L145.523 147.52C145.469 147.133 145.356 146.693 145.183 146.2C145.009 145.693 144.809 145.173 144.583 144.64C144.356 144.107 144.123 143.613 143.883 143.16ZM138.803 144.82C139.723 144.793 140.823 144.753 142.103 144.7C143.396 144.647 144.703 144.593 146.023 144.54L146.003 146.44C144.763 146.533 143.529 146.62 142.303 146.7C141.089 146.78 139.989 146.853 139.003 146.92L138.803 144.82ZM144.123 148.12L145.803 147.58C146.056 148.1 146.289 148.68 146.503 149.32C146.716 149.947 146.876 150.493 146.983 150.96L145.203 151.6C145.109 151.12 144.956 150.56 144.743 149.92C144.543 149.267 144.336 148.667 144.123 148.12ZM139.683 147.76L141.663 148.12C141.556 149.08 141.396 150.027 141.183 150.96C140.969 151.893 140.723 152.68 140.443 153.32C140.309 153.227 140.129 153.12 139.903 153C139.676 152.893 139.443 152.787 139.203 152.68C138.976 152.573 138.776 152.493 138.603 152.44C138.896 151.84 139.129 151.127 139.303 150.3C139.476 149.46 139.603 148.613 139.683 147.76ZM141.923 145.88H144.023V154.8H141.923V145.88ZM147.923 138.64H150.003V142.4C150.003 143.28 149.963 144.253 149.883 145.32C149.803 146.373 149.643 147.46 149.403 148.58C149.163 149.687 148.803 150.767 148.323 151.82C147.856 152.873 147.223 153.84 146.423 154.72C146.303 154.587 146.136 154.44 145.923 154.28C145.723 154.12 145.509 153.96 145.283 153.8C145.056 153.653 144.856 153.533 144.683 153.44C145.429 152.64 146.016 151.767 146.443 150.82C146.869 149.86 147.189 148.887 147.403 147.9C147.616 146.9 147.756 145.927 147.823 144.98C147.889 144.02 147.923 143.153 147.923 142.38V138.64ZM164.563 139.92H177.643V141.76H164.563V139.92ZM165.723 145.28H176.283V147.02H165.723V145.28ZM164.843 147.94H177.203V149.82H164.843V147.94ZM169.623 136.16H171.943V151.44H169.623V136.16ZM165.923 137.3H176.123V144.4H165.823V142.58H173.783V139.1H165.923V137.3ZM158.963 137.12H163.183V139.22H158.963V137.12ZM162.343 137.12H162.643L163.003 137.02L164.643 137.48C164.349 138.253 164.003 139.107 163.603 140.04C163.216 140.96 162.809 141.887 162.383 142.82C161.969 143.74 161.563 144.62 161.163 145.46L159.003 144.9C159.296 144.273 159.603 143.62 159.923 142.94C160.256 142.247 160.569 141.56 160.863 140.88C161.169 140.187 161.449 139.54 161.703 138.94C161.956 138.327 162.169 137.8 162.343 137.36V137.12ZM160.983 142.78H163.903V144.88H160.923L160.983 142.78ZM162.963 142.78H163.403L163.823 142.72L165.223 143.04C164.969 146.053 164.456 148.533 163.683 150.48C162.909 152.427 161.876 153.887 160.583 154.86C160.463 154.713 160.289 154.527 160.063 154.3C159.849 154.087 159.623 153.88 159.383 153.68C159.156 153.493 158.956 153.353 158.783 153.26C160.023 152.393 160.983 151.14 161.663 149.5C162.343 147.847 162.776 145.747 162.963 143.2V142.78ZM161.103 146C161.503 147.307 162.029 148.36 162.683 149.16C163.336 149.947 164.089 150.547 164.943 150.96C165.809 151.373 166.756 151.653 167.783 151.8C168.823 151.947 169.936 152.02 171.123 152.02C171.363 152.02 171.703 152.02 172.143 152.02C172.583 152.02 173.069 152.02 173.603 152.02C174.136 152.02 174.669 152.02 175.203 152.02C175.749 152.007 176.256 152 176.723 152C177.203 151.987 177.589 151.973 177.883 151.96C177.749 152.133 177.623 152.36 177.503 152.64C177.383 152.92 177.276 153.207 177.183 153.5C177.089 153.807 177.009 154.073 176.943 154.3H175.883H171.063C169.609 154.3 168.276 154.2 167.063 154C165.849 153.813 164.749 153.453 163.763 152.92C162.776 152.373 161.903 151.6 161.143 150.6C160.396 149.587 159.756 148.273 159.223 146.66L161.103 146ZM179.723 141.32H186.923V142.98H179.723V141.32ZM182.243 141.82H184.423V145.86H182.243V141.82ZM179.243 145.4C179.896 145.307 180.636 145.207 181.463 145.1C182.303 144.993 183.189 144.873 184.123 144.74C185.069 144.607 186.003 144.473 186.923 144.34L187.023 146.14C185.703 146.34 184.383 146.54 183.063 146.74C181.743 146.94 180.563 147.12 179.523 147.28L179.243 145.4ZM187.823 141.22H190.003V143.28C190.003 143.867 189.916 144.447 189.743 145.02C189.583 145.58 189.269 146.113 188.803 146.62C188.336 147.113 187.656 147.533 186.763 147.88C186.669 147.733 186.523 147.56 186.323 147.36C186.123 147.147 185.916 146.947 185.703 146.76C185.489 146.56 185.309 146.407 185.163 146.3C185.949 146.02 186.529 145.72 186.903 145.4C187.289 145.067 187.536 144.713 187.643 144.34C187.763 143.967 187.823 143.593 187.823 143.22V141.22ZM192.923 141.22H195.183V144.76C195.183 144.92 195.183 145.053 195.183 145.16C195.183 145.267 195.196 145.333 195.223 145.36C195.249 145.413 195.316 145.44 195.423 145.44C195.463 145.44 195.509 145.44 195.563 145.44C195.629 145.44 195.683 145.44 195.723 145.44C195.776 145.44 195.823 145.44 195.863 145.44C195.903 145.427 195.943 145.413 195.983 145.4C196.036 145.36 196.083 145.227 196.123 145C196.149 144.893 196.163 144.72 196.163 144.48C196.176 144.227 196.189 143.933 196.203 143.6C196.376 143.76 196.616 143.92 196.923 144.08C197.229 144.227 197.509 144.347 197.763 144.44C197.736 144.813 197.696 145.187 197.643 145.56C197.603 145.92 197.556 146.187 197.503 146.36C197.356 146.72 197.129 146.973 196.823 147.12C196.689 147.2 196.523 147.26 196.323 147.3C196.123 147.327 195.936 147.34 195.763 147.34C195.603 147.34 195.429 147.34 195.243 147.34C195.056 147.34 194.896 147.34 194.763 147.34C194.523 147.34 194.276 147.3 194.023 147.22C193.783 147.14 193.576 147.02 193.403 146.86C193.229 146.687 193.103 146.467 193.023 146.2C192.956 145.92 192.923 145.467 192.923 144.84V141.22ZM179.223 148.24H197.423V150.12H179.223V148.24ZM187.123 147.04H189.463V154.72H187.123V147.04ZM186.443 149.34L188.243 150.12C187.789 150.6 187.263 151.06 186.663 151.5C186.063 151.927 185.416 152.32 184.723 152.68C184.029 153.04 183.309 153.353 182.563 153.62C181.816 153.9 181.069 154.133 180.323 154.32C180.149 154.027 179.916 153.687 179.623 153.3C179.343 152.913 179.083 152.6 178.843 152.36C179.563 152.24 180.289 152.08 181.023 151.88C181.769 151.68 182.476 151.453 183.143 151.2C183.823 150.933 184.443 150.647 185.003 150.34C185.576 150.033 186.056 149.7 186.443 149.34ZM190.063 149.46C190.489 149.793 190.983 150.107 191.543 150.4C192.116 150.68 192.743 150.94 193.423 151.18C194.116 151.42 194.829 151.627 195.563 151.8C196.296 151.973 197.036 152.113 197.783 152.22C197.609 152.38 197.423 152.587 197.223 152.84C197.023 153.08 196.836 153.327 196.663 153.58C196.503 153.833 196.363 154.06 196.243 154.26C195.509 154.1 194.769 153.887 194.023 153.62C193.289 153.367 192.576 153.067 191.883 152.72C191.203 152.36 190.563 151.967 189.963 151.54C189.363 151.113 188.829 150.653 188.363 150.16L190.063 149.46ZM181.703 137.42H188.023V139.3H181.703V137.42ZM189.803 137.42H197.563V139.3H189.803V137.42ZM181.803 135.84L184.023 136.46C183.636 137.327 183.143 138.18 182.543 139.02C181.956 139.847 181.369 140.54 180.783 141.1C180.649 140.967 180.463 140.82 180.223 140.66C179.983 140.487 179.736 140.327 179.483 140.18C179.243 140.02 179.029 139.887 178.843 139.78C179.456 139.3 180.023 138.713 180.543 138.02C181.076 137.313 181.496 136.587 181.803 135.84ZM189.943 135.84L192.223 136.4C191.849 137.307 191.363 138.18 190.763 139.02C190.176 139.847 189.583 140.54 188.983 141.1C188.809 140.98 188.596 140.847 188.343 140.7C188.089 140.553 187.829 140.413 187.563 140.28C187.296 140.133 187.063 140.02 186.863 139.94C187.529 139.46 188.129 138.853 188.663 138.12C189.209 137.387 189.636 136.627 189.943 135.84ZM182.463 138.94L184.283 138.44C184.523 138.76 184.749 139.12 184.963 139.52C185.189 139.92 185.363 140.267 185.483 140.56L183.543 141.12C183.449 140.827 183.303 140.473 183.103 140.06C182.903 139.647 182.689 139.273 182.463 138.94ZM191.383 138.92L193.323 138.4C193.603 138.707 193.883 139.06 194.163 139.46C194.456 139.86 194.669 140.213 194.803 140.52L192.763 141.1C192.643 140.807 192.449 140.453 192.183 140.04C191.929 139.627 191.663 139.253 191.383 138.92ZM189.583 144.46L190.963 143.26C191.229 143.433 191.509 143.64 191.803 143.88C192.109 144.107 192.389 144.333 192.643 144.56C192.896 144.773 193.103 144.98 193.263 145.18L191.803 146.52C191.576 146.213 191.249 145.867 190.823 145.48C190.396 145.093 189.983 144.753 189.583 144.46ZM188.623 141.22H194.063V142.78H188.623V141.22ZM200.343 151.48H216.383V153.88H200.343V151.48ZM199.243 142.02H217.463V144.38H199.243V142.02ZM206.983 136.04H209.563V153.16H206.983V136.04ZM227.263 139.02C227.876 139.1 228.563 139.16 229.323 139.2C230.096 139.227 230.876 139.24 231.663 139.24C232.463 139.227 233.229 139.2 233.963 139.16C234.696 139.107 235.329 139.053 235.863 139V141.58C235.249 141.633 234.576 141.68 233.843 141.72C233.109 141.747 232.356 141.76 231.583 141.76C230.809 141.76 230.049 141.747 229.303 141.72C228.569 141.68 227.889 141.633 227.263 141.58V139.02ZM228.863 147.56C228.783 147.893 228.723 148.193 228.683 148.46C228.643 148.713 228.623 148.973 228.623 149.24C228.623 149.453 228.676 149.653 228.783 149.84C228.889 150.013 229.049 150.167 229.263 150.3C229.489 150.42 229.776 150.513 230.123 150.58C230.483 150.633 230.916 150.66 231.423 150.66C232.316 150.66 233.156 150.62 233.943 150.54C234.729 150.447 235.563 150.313 236.443 150.14L236.483 152.84C235.843 152.96 235.103 153.053 234.263 153.12C233.436 153.187 232.456 153.22 231.323 153.22C229.603 153.22 228.323 152.933 227.483 152.36C226.643 151.773 226.223 150.967 226.223 149.94C226.223 149.553 226.249 149.153 226.303 148.74C226.369 148.313 226.456 147.847 226.563 147.34L228.863 147.56ZM224.183 137.68C224.129 137.813 224.069 138 224.003 138.24C223.936 138.48 223.869 138.713 223.803 138.94C223.749 139.167 223.709 139.34 223.683 139.46C223.643 139.74 223.576 140.107 223.483 140.56C223.403 141 223.316 141.5 223.223 142.06C223.143 142.607 223.063 143.167 222.983 143.74C222.903 144.313 222.836 144.867 222.783 145.4C222.743 145.933 222.723 146.4 222.723 146.8C222.723 146.987 222.723 147.2 222.723 147.44C222.736 147.68 222.763 147.9 222.803 148.1C222.896 147.873 222.996 147.647 223.103 147.42C223.209 147.193 223.316 146.967 223.423 146.74C223.529 146.5 223.623 146.273 223.703 146.06L224.943 147.04C224.756 147.587 224.563 148.173 224.363 148.8C224.176 149.427 224.003 150.02 223.843 150.58C223.696 151.127 223.583 151.58 223.503 151.94C223.476 152.087 223.449 152.253 223.423 152.44C223.409 152.627 223.403 152.773 223.403 152.88C223.403 152.987 223.403 153.113 223.403 153.26C223.416 153.42 223.429 153.567 223.443 153.7L221.123 153.86C220.923 153.167 220.743 152.247 220.583 151.1C220.423 149.94 220.343 148.68 220.343 147.32C220.343 146.573 220.376 145.813 220.443 145.04C220.509 144.267 220.589 143.527 220.683 142.82C220.776 142.1 220.863 141.447 220.943 140.86C221.036 140.273 221.116 139.787 221.183 139.4C221.209 139.12 221.243 138.807 221.283 138.46C221.336 138.1 221.369 137.76 221.383 137.44L224.183 137.68ZM249.703 136.96C249.676 137.147 249.649 137.38 249.623 137.66C249.596 137.927 249.576 138.207 249.563 138.5C249.549 138.78 249.536 139.047 249.523 139.3C249.509 139.78 249.503 140.3 249.503 140.86C249.516 141.42 249.523 141.987 249.523 142.56C249.523 143.12 249.536 143.78 249.563 144.54C249.603 145.287 249.649 146.06 249.703 146.86C249.756 147.66 249.796 148.407 249.823 149.1C249.863 149.78 249.883 150.333 249.883 150.76C249.883 151.2 249.816 151.627 249.683 152.04C249.549 152.453 249.323 152.82 249.003 153.14C248.683 153.473 248.249 153.733 247.703 153.92C247.156 154.12 246.463 154.22 245.623 154.22C244.676 154.22 243.803 154.1 243.003 153.86C242.216 153.633 241.589 153.253 241.123 152.72C240.656 152.187 240.423 151.467 240.423 150.56C240.423 149.867 240.623 149.24 241.023 148.68C241.423 148.107 242.023 147.653 242.823 147.32C243.636 146.987 244.656 146.82 245.883 146.82C246.923 146.82 247.929 146.94 248.903 147.18C249.889 147.42 250.809 147.733 251.663 148.12C252.529 148.493 253.309 148.92 254.003 149.4C254.709 149.867 255.316 150.34 255.823 150.82L254.283 153.2C253.789 152.707 253.223 152.213 252.583 151.72C251.956 151.227 251.269 150.78 250.523 150.38C249.776 149.98 248.976 149.66 248.123 149.42C247.283 149.167 246.409 149.04 245.503 149.04C244.729 149.04 244.116 149.167 243.663 149.42C243.223 149.66 243.003 150 243.003 150.44C243.003 150.933 243.229 151.28 243.683 151.48C244.136 151.68 244.716 151.78 245.423 151.78C246.049 151.78 246.496 151.633 246.763 151.34C247.029 151.033 247.163 150.547 247.163 149.88C247.163 149.533 247.149 149.053 247.123 148.44C247.096 147.813 247.069 147.14 247.043 146.42C247.016 145.687 246.989 144.98 246.963 144.3C246.936 143.62 246.923 143.04 246.923 142.56C246.923 142.16 246.923 141.767 246.923 141.38C246.923 140.993 246.923 140.62 246.923 140.26C246.923 139.9 246.916 139.58 246.903 139.3C246.889 138.967 246.869 138.653 246.843 138.36C246.829 138.067 246.809 137.8 246.783 137.56C246.769 137.32 246.736 137.12 246.683 136.96H249.703ZM248.163 140.78C248.456 140.78 248.876 140.78 249.423 140.78C249.969 140.767 250.569 140.747 251.223 140.72C251.889 140.693 252.556 140.66 253.223 140.62C253.903 140.567 254.529 140.513 255.103 140.46L255.183 142.84C254.623 142.893 254.003 142.94 253.323 142.98C252.643 143.02 251.969 143.053 251.303 143.08C250.636 143.093 250.023 143.107 249.463 143.12C248.916 143.133 248.489 143.14 248.183 143.14L248.163 140.78ZM262.097 137.76C262.377 137.8 262.677 137.827 262.997 137.84C263.317 137.853 263.624 137.86 263.917 137.86C264.131 137.86 264.451 137.86 264.877 137.86C265.304 137.847 265.784 137.833 266.317 137.82C266.864 137.807 267.404 137.793 267.937 137.78C268.471 137.767 268.951 137.753 269.377 137.74C269.817 137.713 270.157 137.693 270.397 137.68C270.811 137.64 271.137 137.607 271.377 137.58C271.617 137.54 271.797 137.5 271.917 137.46L273.217 139.24C272.991 139.387 272.757 139.533 272.517 139.68C272.277 139.827 272.044 139.987 271.817 140.16C271.551 140.347 271.231 140.593 270.857 140.9C270.484 141.193 270.084 141.507 269.657 141.84C269.244 142.173 268.837 142.5 268.437 142.82C268.051 143.14 267.697 143.427 267.377 143.68C267.711 143.6 268.031 143.547 268.337 143.52C268.644 143.48 268.957 143.46 269.277 143.46C270.411 143.46 271.424 143.68 272.317 144.12C273.224 144.56 273.937 145.16 274.457 145.92C274.991 146.667 275.257 147.527 275.257 148.5C275.257 149.553 274.991 150.507 274.457 151.36C273.924 152.213 273.117 152.893 272.037 153.4C270.971 153.907 269.631 154.16 268.017 154.16C267.097 154.16 266.264 154.027 265.517 153.76C264.784 153.493 264.204 153.113 263.777 152.62C263.351 152.127 263.137 151.547 263.137 150.88C263.137 150.333 263.284 149.827 263.577 149.36C263.884 148.88 264.304 148.493 264.837 148.2C265.384 147.907 266.011 147.76 266.717 147.76C267.637 147.76 268.411 147.947 269.037 148.32C269.677 148.68 270.164 149.167 270.497 149.78C270.844 150.393 271.024 151.067 271.037 151.8L268.697 152.12C268.684 151.387 268.497 150.8 268.137 150.36C267.791 149.907 267.324 149.68 266.737 149.68C266.364 149.68 266.064 149.78 265.837 149.98C265.611 150.167 265.497 150.387 265.497 150.64C265.497 151.013 265.684 151.313 266.057 151.54C266.431 151.767 266.917 151.88 267.517 151.88C268.651 151.88 269.597 151.747 270.357 151.48C271.117 151.2 271.684 150.807 272.057 150.3C272.444 149.78 272.637 149.167 272.637 148.46C272.637 147.86 272.451 147.333 272.077 146.88C271.717 146.427 271.224 146.073 270.597 145.82C269.971 145.567 269.264 145.44 268.477 145.44C267.704 145.44 266.997 145.54 266.357 145.74C265.717 145.927 265.111 146.2 264.537 146.56C263.977 146.907 263.424 147.333 262.877 147.84C262.344 148.333 261.811 148.887 261.277 149.5L259.457 147.62C259.817 147.327 260.224 147 260.677 146.64C261.131 146.267 261.591 145.88 262.057 145.48C262.537 145.08 262.984 144.707 263.397 144.36C263.824 144 264.184 143.7 264.477 143.46C264.757 143.233 265.084 142.967 265.457 142.66C265.831 142.353 266.217 142.04 266.617 141.72C267.017 141.387 267.397 141.073 267.757 140.78C268.117 140.473 268.417 140.213 268.657 140C268.457 140 268.197 140.007 267.877 140.02C267.557 140.033 267.204 140.047 266.817 140.06C266.444 140.073 266.064 140.087 265.677 140.1C265.304 140.113 264.951 140.133 264.617 140.16C264.297 140.173 264.031 140.187 263.817 140.2C263.551 140.213 263.271 140.233 262.977 140.26C262.684 140.287 262.417 140.32 262.177 140.36L262.097 137.76ZM114.363 167.48C114.349 167.76 114.329 168.067 114.303 168.4C114.289 168.72 114.283 169.08 114.283 169.48C114.283 169.827 114.283 170.247 114.283 170.74C114.283 171.233 114.283 171.727 114.283 172.22C114.283 172.7 114.283 173.107 114.283 173.44C114.283 174.507 114.229 175.44 114.123 176.24C114.029 177.04 113.883 177.74 113.683 178.34C113.483 178.94 113.236 179.473 112.943 179.94C112.663 180.393 112.336 180.827 111.963 181.24C111.523 181.72 111.016 182.153 110.443 182.54C109.869 182.913 109.289 183.227 108.703 183.48C108.129 183.747 107.596 183.96 107.103 184.12L105.003 181.92C106.003 181.693 106.903 181.38 107.703 180.98C108.516 180.567 109.223 180.04 109.823 179.4C110.169 179.013 110.449 178.627 110.663 178.24C110.876 177.853 111.036 177.427 111.143 176.96C111.263 176.48 111.343 175.94 111.383 175.34C111.436 174.74 111.463 174.053 111.463 173.28C111.463 172.933 111.463 172.52 111.463 172.04C111.463 171.56 111.463 171.087 111.463 170.62C111.463 170.153 111.463 169.773 111.463 169.48C111.463 169.08 111.449 168.72 111.423 168.4C111.409 168.067 111.383 167.76 111.343 167.48H114.363ZM105.083 167.64C105.069 167.88 105.056 168.12 105.043 168.36C105.029 168.587 105.023 168.86 105.023 169.18C105.023 169.327 105.023 169.567 105.023 169.9C105.023 170.233 105.023 170.627 105.023 171.08C105.023 171.52 105.023 171.987 105.023 172.48C105.023 172.96 105.023 173.427 105.023 173.88C105.023 174.333 105.023 174.747 105.023 175.12C105.023 175.48 105.023 175.753 105.023 175.94C105.023 176.193 105.029 176.487 105.043 176.82C105.056 177.153 105.069 177.44 105.083 177.68H102.183C102.196 177.493 102.216 177.227 102.243 176.88C102.269 176.533 102.283 176.213 102.283 175.92C102.283 175.733 102.283 175.46 102.283 175.1C102.283 174.74 102.283 174.333 102.283 173.88C102.283 173.413 102.283 172.94 102.283 172.46C102.283 171.967 102.283 171.5 102.283 171.06C102.283 170.62 102.283 170.233 102.283 169.9C102.283 169.567 102.283 169.327 102.283 169.18C102.283 168.993 102.276 168.753 102.263 168.46C102.249 168.153 102.229 167.88 102.203 167.64H105.083ZM136.083 169.68C135.989 169.867 135.903 170.093 135.823 170.36C135.756 170.613 135.696 170.853 135.643 171.08C135.536 171.56 135.396 172.107 135.223 172.72C135.049 173.333 134.843 173.967 134.603 174.62C134.363 175.273 134.076 175.92 133.743 176.56C133.423 177.2 133.056 177.8 132.643 178.36C132.043 179.147 131.343 179.893 130.543 180.6C129.743 181.293 128.849 181.92 127.863 182.48C126.876 183.027 125.789 183.493 124.603 183.88L122.423 181.5C123.743 181.18 124.883 180.787 125.843 180.32C126.816 179.84 127.663 179.307 128.383 178.72C129.103 178.12 129.729 177.48 130.263 176.8C130.703 176.24 131.076 175.633 131.383 174.98C131.703 174.327 131.963 173.667 132.163 173C132.376 172.333 132.523 171.72 132.603 171.16C132.403 171.16 132.069 171.16 131.603 171.16C131.149 171.16 130.609 171.16 129.983 171.16C129.369 171.16 128.723 171.16 128.043 171.16C127.376 171.16 126.729 171.16 126.103 171.16C125.476 171.16 124.909 171.16 124.403 171.16C123.909 171.16 123.536 171.16 123.283 171.16C122.829 171.16 122.383 171.167 121.943 171.18C121.516 171.193 121.169 171.213 120.903 171.24V168.42C121.116 168.433 121.363 168.453 121.643 168.48C121.923 168.507 122.216 168.533 122.523 168.56C122.829 168.573 123.089 168.58 123.303 168.58C123.503 168.58 123.803 168.58 124.203 168.58C124.603 168.58 125.063 168.58 125.583 168.58C126.103 168.58 126.643 168.58 127.203 168.58C127.776 168.58 128.343 168.58 128.903 168.58C129.463 168.58 129.989 168.58 130.483 168.58C130.976 168.58 131.403 168.58 131.763 168.58C132.136 168.58 132.396 168.58 132.543 168.58C132.743 168.58 132.989 168.573 133.283 168.56C133.576 168.533 133.849 168.487 134.103 168.42L136.083 169.68ZM151.763 170.56C151.736 170.8 151.716 171.073 151.703 171.38C151.689 171.673 151.683 171.953 151.683 172.22C151.696 172.66 151.703 173.153 151.703 173.7C151.716 174.247 151.729 174.827 151.743 175.44C151.769 176.053 151.789 176.687 151.803 177.34C151.829 177.98 151.843 178.62 151.843 179.26C151.856 179.9 151.869 180.527 151.883 181.14C151.896 181.74 151.903 182.307 151.903 182.84C151.916 183.36 151.743 183.78 151.383 184.1C151.023 184.433 150.549 184.6 149.963 184.6C149.643 184.6 149.296 184.593 148.923 184.58C148.563 184.58 148.203 184.567 147.843 184.54C147.483 184.527 147.156 184.513 146.863 184.5L146.703 182.22C147.116 182.273 147.536 182.32 147.963 182.36C148.389 182.387 148.736 182.4 149.003 182.4C149.189 182.4 149.323 182.347 149.403 182.24C149.483 182.133 149.523 181.98 149.523 181.78C149.523 181.407 149.516 180.973 149.503 180.48C149.503 179.973 149.496 179.44 149.483 178.88C149.483 178.307 149.476 177.727 149.463 177.14C149.463 176.54 149.456 175.947 149.443 175.36C149.429 174.773 149.416 174.213 149.403 173.68C149.389 173.147 149.369 172.66 149.343 172.22C149.329 171.98 149.309 171.713 149.283 171.42C149.256 171.113 149.223 170.827 149.183 170.56H151.763ZM142.123 173.32C142.363 173.347 142.656 173.373 143.003 173.4C143.363 173.427 143.676 173.44 143.943 173.44C144.103 173.44 144.389 173.44 144.803 173.44C145.216 173.44 145.709 173.44 146.283 173.44C146.869 173.44 147.489 173.44 148.143 173.44C148.796 173.44 149.443 173.44 150.083 173.44C150.736 173.44 151.343 173.44 151.903 173.44C152.463 173.44 152.936 173.44 153.323 173.44C153.709 173.44 153.956 173.44 154.063 173.44C154.316 173.44 154.609 173.427 154.943 173.4C155.276 173.36 155.529 173.333 155.703 173.32V175.74C155.463 175.727 155.196 175.72 154.903 175.72C154.623 175.707 154.376 175.7 154.163 175.7C154.069 175.7 153.836 175.7 153.463 175.7C153.089 175.7 152.616 175.7 152.043 175.7C151.469 175.7 150.849 175.7 150.183 175.7C149.516 175.7 148.843 175.7 148.163 175.7C147.496 175.7 146.869 175.7 146.283 175.7C145.709 175.7 145.216 175.7 144.803 175.7C144.389 175.7 144.123 175.7 144.003 175.7C143.723 175.7 143.409 175.707 143.063 175.72C142.729 175.733 142.416 175.753 142.123 175.78V173.32ZM141.283 181.08C142.083 180.707 142.869 180.273 143.643 179.78C144.416 179.287 145.136 178.76 145.803 178.2C146.483 177.64 147.076 177.08 147.583 176.52C148.103 175.96 148.496 175.44 148.763 174.96L150.063 174.98L150.103 176.92C149.836 177.387 149.449 177.9 148.943 178.46C148.449 179.007 147.869 179.567 147.203 180.14C146.549 180.713 145.863 181.253 145.143 181.76C144.423 182.267 143.716 182.707 143.023 183.08L141.283 181.08ZM160.143 173.74C160.383 173.753 160.689 173.773 161.063 173.8C161.436 173.813 161.823 173.827 162.223 173.84C162.636 173.853 163.016 173.86 163.363 173.86C163.696 173.86 164.109 173.86 164.603 173.86C165.096 173.86 165.629 173.86 166.203 173.86C166.789 173.86 167.389 173.86 168.003 173.86C168.629 173.86 169.249 173.86 169.863 173.86C170.476 173.86 171.056 173.86 171.603 173.86C172.149 173.86 172.636 173.86 173.063 173.86C173.503 173.86 173.849 173.86 174.103 173.86C174.569 173.86 175.009 173.847 175.423 173.82C175.836 173.78 176.176 173.753 176.443 173.74V176.88C176.216 176.867 175.876 176.847 175.423 176.82C174.969 176.793 174.529 176.78 174.103 176.78C173.849 176.78 173.503 176.78 173.063 176.78C172.623 176.78 172.129 176.78 171.583 176.78C171.036 176.78 170.456 176.78 169.843 176.78C169.243 176.78 168.629 176.78 168.003 176.78C167.376 176.78 166.769 176.78 166.183 176.78C165.609 176.78 165.076 176.78 164.583 176.78C164.103 176.78 163.696 176.78 163.363 176.78C162.789 176.78 162.203 176.793 161.603 176.82C161.003 176.833 160.516 176.853 160.143 176.88V173.74ZM188.797 167.92C188.664 168.213 188.524 168.547 188.377 168.92C188.231 169.28 188.084 169.687 187.937 170.14C187.817 170.513 187.664 170.993 187.477 171.58C187.291 172.153 187.084 172.787 186.857 173.48C186.631 174.16 186.391 174.867 186.137 175.6C185.897 176.32 185.664 177.02 185.437 177.7C185.211 178.38 184.997 179 184.797 179.56C184.597 180.107 184.424 180.553 184.277 180.9L181.317 181C181.504 180.573 181.711 180.053 181.937 179.44C182.164 178.827 182.404 178.16 182.657 177.44C182.911 176.707 183.157 175.96 183.397 175.2C183.651 174.44 183.884 173.707 184.097 173C184.324 172.293 184.524 171.64 184.697 171.04C184.884 170.44 185.031 169.953 185.137 169.58C185.271 169.06 185.371 168.633 185.437 168.3C185.517 167.953 185.577 167.607 185.617 167.26L188.797 167.92ZM192.377 174.38C192.737 174.913 193.124 175.54 193.537 176.26C193.951 176.98 194.357 177.733 194.757 178.52C195.171 179.293 195.551 180.04 195.897 180.76C196.244 181.48 196.531 182.127 196.757 182.7L194.057 183.9C193.831 183.287 193.551 182.593 193.217 181.82C192.897 181.047 192.544 180.26 192.157 179.46C191.784 178.66 191.397 177.907 190.997 177.2C190.611 176.48 190.237 175.88 189.877 175.4L192.377 174.38ZM181.137 180.12C181.591 180.093 182.137 180.06 182.777 180.02C183.431 179.967 184.131 179.907 184.877 179.84C185.624 179.76 186.384 179.68 187.157 179.6C187.944 179.52 188.711 179.44 189.457 179.36C190.217 179.267 190.924 179.18 191.577 179.1C192.231 179.02 192.784 178.947 193.237 178.88L193.837 181.44C193.344 181.507 192.751 181.58 192.057 181.66C191.377 181.74 190.644 181.827 189.857 181.92C189.071 182 188.271 182.087 187.457 182.18C186.644 182.273 185.851 182.36 185.077 182.44C184.304 182.52 183.591 182.593 182.937 182.66C182.284 182.713 181.731 182.767 181.277 182.82C181.024 182.847 180.724 182.887 180.377 182.94C180.044 182.98 179.717 183.02 179.397 183.06L178.937 180.14C179.271 180.14 179.637 180.14 180.037 180.14C180.451 180.14 180.817 180.133 181.137 180.12ZM209.517 169.3C209.384 170.313 209.211 171.393 208.997 172.54C208.784 173.687 208.497 174.847 208.137 176.02C207.751 177.367 207.297 178.527 206.777 179.5C206.257 180.473 205.684 181.227 205.057 181.76C204.444 182.28 203.771 182.54 203.037 182.54C202.304 182.54 201.624 182.293 200.997 181.8C200.384 181.293 199.891 180.6 199.517 179.72C199.157 178.84 198.977 177.84 198.977 176.72C198.977 175.56 199.211 174.467 199.677 173.44C200.144 172.413 200.791 171.507 201.617 170.72C202.457 169.92 203.431 169.293 204.537 168.84C205.657 168.387 206.864 168.16 208.157 168.16C209.397 168.16 210.511 168.36 211.497 168.76C212.497 169.16 213.351 169.713 214.057 170.42C214.764 171.127 215.304 171.953 215.677 172.9C216.051 173.847 216.237 174.867 216.237 175.96C216.237 177.36 215.951 178.613 215.377 179.72C214.804 180.827 213.951 181.74 212.817 182.46C211.697 183.18 210.297 183.673 208.617 183.94L207.117 181.56C207.504 181.52 207.844 181.473 208.137 181.42C208.431 181.367 208.711 181.307 208.977 181.24C209.617 181.08 210.211 180.853 210.757 180.56C211.317 180.253 211.804 179.88 212.217 179.44C212.631 178.987 212.951 178.46 213.177 177.86C213.417 177.26 213.537 176.6 213.537 175.88C213.537 175.093 213.417 174.373 213.177 173.72C212.937 173.067 212.584 172.5 212.117 172.02C211.651 171.527 211.084 171.153 210.417 170.9C209.751 170.633 208.984 170.5 208.117 170.5C207.051 170.5 206.111 170.693 205.297 171.08C204.484 171.453 203.797 171.94 203.237 172.54C202.677 173.14 202.251 173.787 201.957 174.48C201.677 175.173 201.537 175.833 201.537 176.46C201.537 177.127 201.617 177.687 201.777 178.14C201.937 178.58 202.131 178.913 202.357 179.14C202.597 179.353 202.851 179.46 203.117 179.46C203.397 179.46 203.671 179.32 203.937 179.04C204.217 178.747 204.491 178.307 204.757 177.72C205.024 177.133 205.291 176.393 205.557 175.5C205.864 174.54 206.124 173.513 206.337 172.42C206.551 171.327 206.704 170.26 206.797 169.22L209.517 169.3ZM223.397 170.46V171.28H231.917V170.46H223.397ZM223.397 168.2V169H231.917V168.2H223.397ZM221.097 166.64H234.317V172.84H221.097V166.64ZM218.737 173.56H236.617V175.46H218.737V173.56ZM227.917 176.2H234.457V178.04H227.917V176.2ZM221.817 176.26H226.357V177.92H221.817V176.26ZM221.817 178.78H226.357V180.44H221.817V178.78ZM230.357 177.86C230.917 179.087 231.771 180.14 232.917 181.02C234.077 181.9 235.457 182.527 237.057 182.9C236.911 183.047 236.744 183.227 236.557 183.44C236.371 183.667 236.197 183.9 236.037 184.14C235.877 184.38 235.744 184.593 235.637 184.78C233.917 184.26 232.457 183.46 231.257 182.38C230.071 181.3 229.131 179.973 228.437 178.4L230.357 177.86ZM233.737 176.2H234.177L234.577 176.14L236.057 176.7C235.657 178.087 235.091 179.307 234.357 180.36C233.624 181.4 232.757 182.28 231.757 183C230.771 183.733 229.677 184.327 228.477 184.78C228.344 184.487 228.151 184.153 227.897 183.78C227.644 183.42 227.404 183.127 227.177 182.9C227.951 182.66 228.684 182.34 229.377 181.94C230.084 181.54 230.724 181.067 231.297 180.52C231.871 179.973 232.364 179.367 232.777 178.7C233.204 178.033 233.524 177.32 233.737 176.56V176.2ZM218.557 181.68C219.237 181.64 219.997 181.593 220.837 181.54C221.677 181.473 222.564 181.407 223.497 181.34C224.431 181.26 225.371 181.18 226.317 181.1V183.06C224.971 183.18 223.631 183.3 222.297 183.42C220.977 183.553 219.791 183.667 218.737 183.76L218.557 181.68ZM225.137 174.18H227.417V184.8H225.137V174.18ZM220.317 174.22H222.497V182.4H220.317V174.22ZM243.017 173.8V181.18H240.717V176.02H238.457V173.8H243.017ZM243.017 180.22C243.404 180.887 243.951 181.38 244.657 181.7C245.364 182.007 246.224 182.18 247.237 182.22C247.837 182.247 248.557 182.267 249.397 182.28C250.251 182.28 251.137 182.273 252.057 182.26C252.991 182.247 253.897 182.227 254.777 182.2C255.671 182.16 256.471 182.107 257.177 182.04C257.084 182.213 256.984 182.447 256.877 182.74C256.784 183.02 256.691 183.307 256.597 183.6C256.517 183.893 256.457 184.153 256.417 184.38C255.804 184.42 255.097 184.447 254.297 184.46C253.497 184.473 252.671 184.48 251.817 184.48C250.964 184.493 250.137 184.493 249.337 184.48C248.537 184.48 247.831 184.467 247.217 184.44C246.017 184.387 244.997 184.193 244.157 183.86C243.317 183.527 242.597 182.973 241.997 182.2C241.611 182.6 241.197 182.993 240.757 183.38C240.331 183.78 239.864 184.193 239.357 184.62L238.217 182.24C238.644 181.96 239.091 181.647 239.557 181.3C240.037 180.953 240.497 180.593 240.937 180.22H243.017ZM238.537 167.88L240.357 166.52C240.744 166.813 241.144 167.147 241.557 167.52C241.971 167.893 242.351 168.267 242.697 168.64C243.044 169.013 243.324 169.367 243.537 169.7L241.557 171.22C241.371 170.887 241.111 170.527 240.777 170.14C240.457 169.74 240.097 169.347 239.697 168.96C239.297 168.56 238.911 168.2 238.537 167.88ZM243.837 167.38H256.717V169.24H243.837V167.38ZM247.037 173.5H253.477V174.96H247.037V173.5ZM248.957 166H251.277V168.5H248.957V166ZM249.377 172.38H251.097V176.44H249.377V172.38ZM244.357 170.66H254.837V172.48H246.517V181.4H244.357V170.66ZM247.537 176.08H249.177V180.5H247.537V176.08ZM248.457 176.08H252.997V179.86H248.457V178.52H251.337V177.4H248.457V176.08ZM254.077 170.66H256.277V179.26C256.277 179.753 256.224 180.147 256.117 180.44C256.011 180.72 255.797 180.947 255.477 181.12C255.144 181.28 254.757 181.38 254.317 181.42C253.877 181.46 253.364 181.48 252.777 181.48C252.737 181.187 252.651 180.853 252.517 180.48C252.397 180.107 252.271 179.787 252.137 179.52C252.471 179.533 252.797 179.54 253.117 179.54C253.437 179.54 253.657 179.54 253.777 179.54C253.897 179.54 253.977 179.52 254.017 179.48C254.057 179.427 254.077 179.347 254.077 179.24V170.66ZM252.157 168.72L254.417 169.2C254.217 169.587 254.031 169.953 253.857 170.3C253.684 170.647 253.524 170.953 253.377 171.22L251.457 170.74C251.591 170.433 251.724 170.093 251.857 169.72C251.991 169.333 252.091 169 252.157 168.72ZM246.137 169.32L248.117 168.86C248.291 169.127 248.444 169.44 248.577 169.8C248.724 170.147 248.817 170.453 248.857 170.72L246.777 171.22C246.751 170.967 246.677 170.66 246.557 170.3C246.437 169.94 246.297 169.613 246.137 169.32ZM260.537 171.16H266.097V172.92H260.537V171.16ZM260.537 174.42H266.097V176.12H260.537V174.42ZM260.537 177.78H266.097V179.54H260.537V177.78ZM269.217 175.5H276.737V177.52H269.217V175.5ZM261.537 167.86H264.697V169.68H261.537V167.86ZM267.697 167.02H275.137V169H267.697V167.02ZM267.717 179.34H277.137V181.4H267.717V179.34ZM271.437 173.7H273.717V184.72H271.437V173.7ZM262.717 172.08H264.297V178.44H262.717V172.08ZM274.497 167.02H276.617C276.617 167.02 276.611 167.12 276.597 167.32C276.597 167.507 276.591 167.667 276.577 167.8C276.551 168.853 276.511 169.727 276.457 170.42C276.404 171.113 276.331 171.66 276.237 172.06C276.144 172.46 276.024 172.747 275.877 172.92C275.717 173.12 275.537 173.267 275.337 173.36C275.137 173.453 274.911 173.527 274.657 173.58C274.431 173.607 274.137 173.627 273.777 173.64C273.417 173.64 273.031 173.633 272.617 173.62C272.604 173.313 272.551 172.98 272.457 172.62C272.364 172.247 272.237 171.933 272.077 171.68C272.397 171.707 272.684 171.727 272.937 171.74C273.191 171.753 273.384 171.76 273.517 171.76C273.637 171.76 273.737 171.753 273.817 171.74C273.911 171.713 273.991 171.653 274.057 171.56C274.137 171.467 274.204 171.273 274.257 170.98C274.311 170.673 274.357 170.227 274.397 169.64C274.437 169.053 274.471 168.28 274.497 167.32V167.02ZM268.797 173.84L270.757 174.24C270.584 175.147 270.337 176.033 270.017 176.9C269.711 177.767 269.364 178.493 268.977 179.08C268.844 178.987 268.671 178.88 268.457 178.76C268.244 178.64 268.024 178.527 267.797 178.42C267.571 178.313 267.377 178.227 267.217 178.16C267.604 177.627 267.931 176.973 268.197 176.2C268.464 175.427 268.664 174.64 268.797 173.84ZM261.057 165.98L263.197 166.46C262.944 167.367 262.644 168.26 262.297 169.14C261.951 170.02 261.564 170.84 261.137 171.6C260.724 172.36 260.277 173.027 259.797 173.6C259.677 173.48 259.511 173.333 259.297 173.16C259.084 172.973 258.871 172.793 258.657 172.62C258.444 172.433 258.251 172.293 258.077 172.2C258.757 171.453 259.357 170.533 259.877 169.44C260.397 168.333 260.791 167.18 261.057 165.98ZM259.657 171.16H261.577V176.46C261.577 177.1 261.551 177.787 261.497 178.52C261.457 179.253 261.377 180 261.257 180.76C261.151 181.507 260.984 182.233 260.757 182.94C260.531 183.633 260.231 184.267 259.857 184.84C259.751 184.72 259.591 184.587 259.377 184.44C259.177 184.307 258.964 184.173 258.737 184.04C258.524 183.92 258.337 183.827 258.177 183.76C258.631 183.067 258.964 182.3 259.177 181.46C259.391 180.607 259.524 179.747 259.577 178.88C259.631 178 259.657 177.187 259.657 176.44V171.16ZM265.437 171.16H267.417V182.48C267.417 182.96 267.364 183.353 267.257 183.66C267.151 183.967 266.944 184.207 266.637 184.38C266.331 184.553 265.964 184.66 265.537 184.7C265.111 184.753 264.584 184.78 263.957 184.78C263.931 184.487 263.844 184.14 263.697 183.74C263.564 183.34 263.424 183.007 263.277 182.74C263.677 182.753 264.051 182.767 264.397 182.78C264.744 182.78 264.984 182.78 265.117 182.78C265.237 182.78 265.317 182.76 265.357 182.72C265.411 182.667 265.437 182.573 265.437 182.44V171.16ZM270.117 167.68H272.257C272.177 168.653 272.017 169.553 271.777 170.38C271.551 171.193 271.171 171.92 270.637 172.56C270.104 173.2 269.344 173.74 268.357 174.18C268.237 173.927 268.051 173.633 267.797 173.3C267.557 172.967 267.324 172.713 267.097 172.54C267.897 172.207 268.497 171.8 268.897 171.32C269.311 170.84 269.597 170.293 269.757 169.68C269.931 169.067 270.051 168.4 270.117 167.68ZM264.117 167.86H264.577L264.877 167.78L266.257 168.62C266.031 169.26 265.744 169.94 265.397 170.66C265.051 171.367 264.724 171.973 264.417 172.48C264.217 172.333 263.971 172.173 263.677 172C263.397 171.827 263.151 171.687 262.937 171.58C263.097 171.26 263.251 170.907 263.397 170.52C263.557 170.12 263.697 169.72 263.817 169.32C263.951 168.907 264.051 168.547 264.117 168.24V167.86Z" fill="#474747"/>
<path d="M83.9796 225.118C83.5719 225.162 83.359 225.275 83.0448 225.315L79.5699 225.748C78.6967 227.044 77.5649 228.048 76.1388 228.617C73.8872 229.513 71.5401 228.796 70.1776 226.768L66.3845 227.217C60.4969 227.913 54.5616 227.728 49.0201 225.442C48.1171 227.124 46.5239 228.245 44.6164 228.191C42.7506 228.138 41.1375 227.233 39.9043 225.868C38.7089 224.566 37.593 222.477 36.9506 220.813C35.3275 219.259 34.2097 216.935 34.9337 214.709C33.3285 213.099 32.2326 211.173 31.614 208.992C30.0784 203.502 31.5026 196.736 34.9993 192.156C34.8661 189.56 35.0371 187.04 35.3474 184.45C35.4668 183.452 35.5801 182.514 35.9541 181.603C36.4275 180.28 37.7064 179.588 39.0868 179.88C40.0813 180.069 40.9605 180.476 41.8874 180.896C43.7849 181.725 45.5811 182.681 47.3016 183.909C53.2727 181.615 59.6098 180.745 65.9588 181.389C67.3233 179.729 68.8171 178.312 70.4521 176.99C71.2239 176.344 71.9618 175.732 72.8569 175.308C74.112 174.678 75.4963 175.036 76.3039 176.179C76.9165 176.996 77.2905 177.912 77.6763 178.882C78.647 181.238 79.4406 183.583 79.9995 186.068C81.8295 187.533 83.373 189.21 84.6459 191.204C87.8642 188.546 92.0114 187.509 96.0969 188.33C98.7423 188.853 101.145 190.053 103.076 191.916C103.285 192.116 103.313 192.399 103.255 192.645C103.114 193.245 101.664 193.355 100.988 193.73C102.416 194.792 103.584 196.094 104.226 197.728C104.322 197.97 104.125 198.244 104.009 198.37C103.866 198.525 103.57 198.533 103.295 198.586C104.373 199.9 104.926 201.534 104.721 203.216C104.67 203.635 104.409 203.929 103.979 203.929C103.759 203.929 103.564 203.884 103.339 203.909C103.347 205.168 103.118 206.354 102.565 207.473C102.366 207.877 101.945 207.978 101.493 207.803C101.31 208.487 101.075 209.089 100.694 209.727L104.707 210.799C105.428 210.992 106.068 211.272 106.663 211.695C107.888 212.568 108.312 214.027 107.773 215.446C106.744 218.151 102.929 219.481 100.264 219.924C100.234 220.34 100.109 220.612 99.7329 220.781C94.7404 223.031 89.4754 224.534 83.9836 225.12L83.9796 225.118Z" fill="#601818"/>
<path d="M84.9164 223.576C86.4778 221.564 87.7628 219.511 88.5405 217.092C90.0323 212.596 89.6782 207.763 87.5479 203.538C87.7568 202.335 87.725 201.232 87.7071 200.043C92.3217 201.876 96.1406 205.054 98.7821 209.161C98.6269 212.665 98.623 216.106 98.8 219.658C94.438 221.566 89.9129 222.946 84.9164 223.576Z" fill="#F29800"/>
<path d="M103.341 202.277C102.951 202.355 102.808 201.53 102.054 201.854C101.841 201.945 101.609 202.24 101.682 202.572C101.897 203.546 102.028 204.514 101.738 205.559C101.356 205.271 101.235 204.432 100.453 204.71C100.16 204.814 99.9337 205.16 100.039 205.543C100.248 206.428 100.27 207.356 99.8462 208.225C96.8587 203.687 92.5782 200.3 87.4724 198.465C87.0746 196.328 86.3426 194.366 85.3461 192.452C86.995 191.051 88.8786 190.121 90.9989 189.691C94.5653 189.031 98.2251 189.88 101.169 192.11C100.407 192.47 99.6334 192.613 98.8855 192.921C98.615 193.033 98.5076 193.311 98.5096 193.555C98.5116 193.842 98.6846 194.064 98.977 194.205C100.288 194.831 101.416 195.758 102.221 196.976C101.437 197.086 100.405 196.511 100.069 197.304C99.9775 197.519 99.9934 197.994 100.324 198.135C102.012 198.863 103.23 200.405 103.343 202.281L103.341 202.277Z" fill="#FFDA8F"/>
<path d="M81.6265 221.441L81.6106 220.797L82.8796 218.209C83.2914 217.179 83.5062 216.11 83.4167 215.001C83.3391 213.959 82.9353 213.023 82.2392 212.248C84.3655 210.503 85.9647 208.429 86.999 205.796C88.5325 209.773 88.3475 214.053 86.7563 217.879C85.7658 220.199 84.3714 222.218 82.5753 223.971L80.4649 224.2L81.6305 221.439L81.6265 221.441Z" fill="#6EB82B"/>
<path d="M106.372 214.999C105.626 215.072 104.001 214.227 103.894 215.11C103.862 215.368 104.019 215.615 104.312 215.671L105.788 215.953C104.676 217.275 101.887 218.268 100.149 218.497L100.107 211.061L104.383 212.176C105.054 212.351 105.656 212.639 106.148 213.116C105.573 213.259 104.371 212.661 104.232 213.393C104.18 213.663 104.326 213.957 104.662 213.999L106.543 214.225C106.599 214.442 106.551 214.838 106.37 214.999H106.372Z" fill="#FFDA8F"/>
<path d="M79.8265 221.017C77.183 222.196 74.1676 221.369 72.4789 219.024C72.7952 216.639 75.4486 212.93 78.0105 212.464C77.7897 213.168 76.4809 214.402 77.1691 214.82C77.3839 214.949 77.7002 214.933 77.8474 214.693L79.2715 212.383C79.8662 212.435 80.4112 212.608 80.8707 212.961C80.4828 213.951 79.8543 214.752 79.0806 215.45C78.8777 215.635 78.8996 215.955 79.0686 216.148C79.733 216.909 81.3342 214.335 81.6007 213.808C81.8712 214.14 81.915 214.504 82.0005 214.885C82.3008 217.012 80.8986 219.129 79.8265 221.015V221.017Z" fill="#FFDA8F"/>
<path d="M68.9344 223.804C66.1716 224.85 63.6277 222.92 61.5332 221.415C61.748 220.68 61.6505 220.018 61.2866 219.356C62.0205 218.39 62.7584 217.505 63.6913 216.762C64.8827 215.816 66.3228 215.311 67.8305 215.506C69.1115 215.671 70.1 216.547 70.3666 217.797C69.5411 219.678 68.5824 221.604 68.9344 223.804Z" fill="#F29800"/>
<path d="M56.9325 221.479C54.842 223.031 52.3935 225.015 49.5949 224.031C50.4423 221.393 49.5054 219.521 48.316 217.237C48.7456 216.36 49.5731 215.855 50.5377 215.708C53.404 215.273 55.5263 217.348 57.1374 219.415C56.7654 220.085 56.7098 220.741 56.9325 221.479Z" fill="#F29800"/>
<path d="M36.1927 215.559C36.7377 216.066 38.9814 217.962 39.3394 216.994C39.4389 216.728 39.3493 216.458 39.053 216.326C38.136 215.919 37.3404 215.347 36.6542 214.548C36.9565 214.043 37.4498 213.705 38.0167 213.5L39.9839 215.209C40.1927 215.39 40.4851 215.398 40.6701 215.245C40.8551 215.092 40.9306 214.746 40.7278 214.561L39.226 213.178C41.8058 212.912 45.0778 215.349 46.3568 217.459C45.0281 220.393 41.6984 221.745 38.683 220.588C37.3762 219.344 35.775 217.577 36.1887 215.561L36.1927 215.559Z" fill="#FFDA8F"/>
<path d="M43.8923 226.702C42.6412 226.426 41.6547 225.74 40.8511 224.822C40.1808 224.027 39.6358 223.184 39.1584 222.204C42.4602 222.952 45.6646 221.544 47.3891 218.571C47.9241 219.523 48.4055 220.534 48.497 221.652C48.6104 223.045 48.1151 224.444 47.2717 225.518C46.4284 226.591 45.215 226.996 43.8903 226.702H43.8923Z" fill="white"/>
<path d="M77.9886 225.522C76.4769 227.41 73.7181 228.539 71.7827 226.525C70.832 225.482 70.287 224.126 70.2432 222.693C70.3347 221.594 70.657 220.59 71.1423 219.566C73.0438 222.409 76.3973 223.605 79.6216 222.602C79.19 223.691 78.6668 224.631 77.9906 225.522H77.9886Z" fill="white"/>
<path d="M62.3348 223.713L59.4705 225.458L56.5387 223.514L57.7699 222.618C58.6928 223.262 59.8306 223.24 60.7276 222.576L62.3348 223.711V223.713Z" fill="white"/>
<path d="M66.7505 225.458C66.9792 225.48 67.0767 225.543 67.0448 225.649C64.9762 226.06 62.9713 226.358 60.8012 226.315L63.7569 224.532C64.7455 225.033 65.7201 225.394 66.7505 225.46V225.458Z" fill="#6EB72B"/>
<path d="M57.9668 226.186C56.3497 226.088 54.8361 225.786 53.2468 225.371C53.9549 225.015 54.5775 224.796 55.2279 224.377L57.9668 226.188V226.186Z" fill="#6EB72B"/>
<path d="M58.9375 219.682C59.5262 219.507 60.0653 219.871 60.2105 220.391C60.3557 220.912 60.0553 221.495 59.4765 221.654C58.9991 221.785 58.4541 221.516 58.2652 221.023C58.0663 220.503 58.3169 219.869 58.9375 219.684V219.682Z" fill="#6EB72B"/>
<path d="M53.4716 214.488L53.3821 214.585C53.1553 214.458 52.8689 214.575 52.7237 214.398C52.8232 214.383 52.9286 214.371 53.0081 214.303C53.215 214.094 53.4398 214.194 53.4736 214.488H53.4716Z" fill="#E5BB7C"/>
<path d="M67.0448 225.647L66.7505 225.456C67.0468 225.47 67.2577 225.406 67.5341 225.488C67.375 225.589 67.202 225.587 67.0448 225.647Z" fill="#677322"/>
<path d="M44.143 213.341C41.9689 211.916 39.6875 211.216 37.2728 212.274C35.4269 209.964 35.6338 206.68 37.9172 204.778C40.1748 202.898 43.594 203.257 45.406 205.557C47.218 207.857 46.7924 211.321 44.3458 213.077C44.2285 213.162 44.1449 213.226 44.143 213.341Z" fill="#F77272"/>
<path d="M54.2573 214.975C54.1439 214.83 54.1936 214.78 54.3607 214.854L54.7167 214.754C58.7207 215.512 65.0817 214.991 68.2263 212.194C71.371 209.397 70.4322 205.73 67.9916 202.536C62.844 195.801 54.7068 196.722 51.1981 204.438C49.5989 207.956 49.2349 211.866 52.9345 214.017L53.0042 214.303C53.038 214.482 52.8669 214.452 52.7197 214.398C50.5119 214.009 48.5606 214.373 47.23 216.243C46.3528 215.001 45.3046 214.102 44.141 213.339C44.0574 213.291 43.9679 213.176 44.0137 213.13C47.8406 210.544 46.7307 204.529 42.0465 203.816C37.4697 203.12 34.5577 208.284 37.2569 211.936L37.2728 212.27C36.6423 212.564 36.151 212.961 35.6776 213.44C34.3409 212.021 33.4618 210.359 32.9466 208.513C32.4036 206.547 32.3181 204.601 32.505 202.56C32.8432 198.87 34.1758 195.491 36.4354 192.571C36.2862 189.924 36.4095 187.419 36.7238 184.837C36.8352 183.925 36.9148 183.038 37.227 182.2C37.786 180.285 40.3319 181.75 41.6606 182.341C43.4687 183.144 45.1514 184.078 46.7446 185.249C46.9754 185.418 47.2379 185.449 47.5204 185.338C53.4457 182.993 59.8147 182.136 66.1617 182.828C66.4282 182.858 66.661 182.762 66.8062 182.579C68.1149 180.919 69.6008 179.496 71.2397 178.161C72.2999 177.296 74.2014 175.449 75.2099 177.071C75.729 177.787 76.0314 178.594 76.3755 179.431C77.374 181.86 78.1775 184.285 78.7325 186.871C81.6265 189.041 83.7767 191.866 85.0756 195.217C85.7737 197.02 86.2411 198.807 86.3147 200.753C86.5037 205.187 84.4609 208.712 81.0438 211.413C78.5893 210.371 76.28 211.198 74.4043 212.951C73.4695 213.826 72.7753 214.842 72.099 215.917C71.9538 216.148 71.5063 216.142 71.2437 216.213C69.4536 213.293 65.5272 213.631 63.019 215.516C62.0066 216.275 61.199 217.179 60.4233 218.177C60.0434 218.664 59.4745 217.907 58.1876 218.451C57.0439 217.082 55.8326 215.748 54.2592 214.975H54.2573Z" fill="#FFDA8F"/>
<path d="M77.0597 199.383C80.0134 199.008 82.5634 201.097 82.9333 203.905C83.3133 206.78 81.2645 209.415 78.4222 209.795C75.56 210.177 72.9324 208.175 72.5267 205.344C72.1209 202.514 74.0702 199.763 77.0597 199.383Z" fill="#F77272"/>
<path d="M74.7246 198.435C73.9747 200.403 68.5167 200.343 68.2124 198.445C68.1309 197.942 68.5048 197.479 68.9663 197.227C71.6117 195.778 75.2954 196.938 74.7226 198.435H74.7246Z" fill="#601818"/>
<path d="M50.0146 201.959C48.6243 203.806 44.3657 204.039 43.7969 202.532C43.1783 200.896 47.5044 199.214 49.6864 200.457C50.2633 200.785 50.4045 201.443 50.0146 201.961V201.959Z" fill="#601818"/>
<path d="M71.5023 191.162C69.8554 192.635 66.9414 192.2 66.6948 190.757C66.6112 190.274 66.8101 189.791 67.2119 189.455C68.831 188.103 71.6793 188.471 71.9478 189.908C72.0274 190.333 71.8941 190.81 71.5023 191.162Z" fill="#601818"/>
<path d="M71.1224 189.97C71.4367 190.715 69.5172 191.703 67.9081 191.057C67.6714 190.961 67.5182 190.777 67.4944 190.598C67.3969 189.848 69.2766 189.021 70.7365 189.63C70.9354 189.713 71.0707 189.852 71.1204 189.97H71.1224Z" fill="#FFFEFE"/>
<path d="M43.8864 186.493C42.7526 187.859 40.9485 189.506 39.224 190.015C38.9416 190.099 38.6194 189.946 38.5716 189.63C38.2991 187.874 38.3429 186.058 38.8998 184.362C39.0132 184.02 39.5443 184.181 39.769 184.241C41.1514 184.607 42.4423 184.972 43.6536 185.712C43.9082 185.867 44.125 186.203 43.8864 186.491V186.493Z" fill="#601818"/>
<path d="M42.7049 186.33C41.768 187.338 40.7934 188.214 39.5005 188.864C39.2857 187.678 39.421 186.501 39.6576 185.267C40.7357 185.507 41.7322 185.817 42.7049 186.33Z" fill="#F77272"/>
<path d="M74.9613 185.183C73.1254 185.114 71.1681 184.088 69.6565 183.09C69.3879 182.913 69.3163 182.599 69.4973 182.325C70.5277 181.164 71.8822 180.365 73.2387 179.596C73.4774 179.461 73.7857 179.532 73.9309 179.777C74.8121 181.265 75.3591 182.897 75.5341 184.633C75.5699 184.984 75.2795 185.193 74.9613 185.181V185.183Z" fill="#601818"/>
<path d="M74.464 184.148C73.1114 183.907 71.8862 183.321 70.6768 182.551C71.4924 181.754 72.3815 181.247 73.3163 180.713C73.8852 181.802 74.2711 182.875 74.464 184.148Z" fill="#F77272"/>
<path d="M47.946 194.337C46.315 195.815 43.3394 195.392 43.1246 193.903C43.0589 193.45 43.2379 192.989 43.6119 192.669C45.2469 191.264 48.0713 191.669 48.3756 193.041C48.4751 193.486 48.3478 193.971 47.946 194.335V194.337Z" fill="#601818"/>
<path d="M47.576 193.196C47.775 193.973 45.8138 194.895 44.308 194.219C44.1071 194.13 43.9719 193.965 43.944 193.832C43.8983 193.621 43.9838 193.388 44.1788 193.235C45.4816 192.21 47.4269 192.605 47.578 193.196H47.576Z" fill="#FFFEFE"/>
<path d="M54.3607 214.854C54.3229 214.891 54.2891 214.933 54.2573 214.975C53.9311 214.814 53.6426 214.73 53.3821 214.585C53.2508 214.464 53.3005 214.46 53.4716 214.488C53.6605 214.255 54.4343 214.532 54.3607 214.854Z" fill="#D4A66F"/>
<path d="M54.3607 214.854C54.0564 214.667 53.7421 214.621 53.4716 214.488C53.3025 214.404 53.1175 214.371 53.0061 214.303C52.5825 213.987 52.1787 213.76 51.7869 213.42C50.4085 212.228 49.6824 210.53 49.8674 208.646C50.1598 205.672 51.4587 202.84 53.4815 200.681C56.5606 197.394 61.4059 196.893 65.0976 199.485C67.3551 201.071 69.1254 203.353 70.1139 205.951C71.5321 209.682 68.7912 212.898 65.3024 214.09C62.2492 215.134 57.4437 215.774 54.3607 214.852L54.3607 214.854Z" fill="#601818"/>
<path d="M65.0498 213.126C62.2433 214.076 59.3333 214.452 56.4273 214.241C53.5213 214.031 50.488 211.999 50.858 208.662C51.1623 205.921 52.3557 203.325 54.2354 201.331C56.9007 198.505 61.0717 198.008 64.3198 200.166C66.5337 201.637 68.2343 203.83 69.187 206.314C70.3825 209.429 67.9379 212.148 65.0478 213.126H65.0498Z" fill="white"/>
<path d="M59.391 213.271C56.8172 212.248 55.5084 207.732 55.582 205.146C55.3035 204.828 54.486 204.017 55.1125 203.659C55.3572 203.518 55.6695 203.581 55.8326 203.868C56.1906 204.498 56.9007 204.849 57.6466 204.597C58.0404 204.464 58.6232 203.711 58.3726 203.337C58.0325 202.955 56.6441 202.238 57.0837 201.536C57.4795 200.908 58.6411 202.001 58.9653 201.967C59.3293 201.93 60.0732 200.556 60.6839 201.051C61.2945 201.546 60.1349 202.816 59.7232 203.247C59.9638 203.742 60.4591 204.146 61.0379 204.16C61.7699 204.178 62.3765 203.611 62.5436 202.935C62.6172 202.635 62.844 202.542 63.0807 202.56C63.3611 202.582 63.5461 202.818 63.5023 203.132C63.4268 203.661 63.1284 204.048 62.8002 204.47C63.4904 206.684 63.9081 210.801 62.295 212.596C61.5451 213.43 60.4432 213.689 59.391 213.271Z" fill="#601818"/>
<path d="M60.6699 212.441C58.2035 212.9 56.5785 207.757 56.6123 205.933C57.7242 205.869 58.6312 205.362 59.1762 204.464C59.9976 205.12 60.9424 205.38 61.9688 205.171C62.474 206.788 63.0469 211.997 60.6719 212.439L60.6699 212.441Z" fill="#F77272"/>
<path d="M326.584 72.0372C326.354 72.6374 326.17 73.207 325.92 73.7458C325.183 75.337 323.907 76.1268 322.175 76.1731C320.847 76.2081 319.64 75.8115 318.528 75.0977C317.509 74.4432 316.666 73.5951 315.885 72.6804C315.479 72.2059 315.085 71.7225 314.675 71.2307C313.534 71.613 312.551 71.373 311.728 70.4441C311.495 70.5321 311.257 70.6228 311.019 70.7128C309.896 71.1377 308.772 71.5558 307.584 71.7667C306.407 71.9754 305.239 71.977 304.089 71.6168C303.286 71.3653 302.555 70.9853 301.935 70.4032C301.03 69.5538 300.644 68.4995 300.689 67.2712C300.711 66.6726 300.811 66.0852 300.962 65.5061C300.994 65.3818 301.028 65.2581 301.067 65.1117C300.807 64.9646 300.559 64.8266 300.312 64.6863C298.198 63.4831 296.213 62.1013 294.449 60.4147C293.209 59.2303 292.123 57.9212 291.253 56.44C290.011 54.3273 289.336 52.0473 289.311 49.5857C289.3 48.4795 289.425 47.3861 289.657 46.3023C290.072 44.3602 290.813 42.5482 291.784 40.823C292.502 39.5469 293.315 38.3376 294.273 37.2315C295.51 35.805 296.918 34.5715 298.488 33.5262C298.719 33.3725 298.952 33.2204 299.191 33.0793C299.321 33.0033 299.39 32.8971 299.444 32.763C299.741 32.015 300.019 31.2582 300.351 30.5264C300.81 29.514 301.288 28.5085 301.8 27.5214C302.28 26.5962 302.803 25.6937 303.328 24.7928C303.694 24.1652 304.115 23.5728 304.668 23.0912C305.43 22.4277 306.299 22.2063 307.27 22.5047C307.807 22.6694 308.281 22.9671 308.689 23.3485C309.253 23.8754 309.806 24.4172 310.337 24.9768C311.403 26.0981 312.416 27.2681 313.303 28.5392C313.61 28.9786 313.9 29.4292 314.198 29.8744C314.226 29.9151 314.256 29.9546 314.301 30.0168C320.913 30.2186 327.149 31.8877 332.993 35.036C333.282 34.8926 333.565 34.7528 333.848 34.611C335.146 33.9605 336.491 33.4273 337.873 32.9909C338.751 32.7133 339.635 32.4494 340.524 32.2079C341.126 32.0442 341.743 31.9437 342.373 31.994C343.533 32.0865 344.336 32.6651 344.757 33.757C344.999 34.3856 345.069 35.0477 345.095 35.7142C345.154 37.1836 345.091 38.6522 345.018 40.1197C344.935 41.7781 344.732 43.4234 344.451 45.0534C344.704 45.5666 344.965 46.068 345.199 46.5814C346.294 48.9818 346.919 51.4994 347.044 54.1405C347.113 55.5916 347.068 57.0384 346.864 58.4774C346.644 60.0213 346.246 61.5178 345.614 62.945C344.546 65.3556 342.937 67.317 340.751 68.7976C339.207 69.8438 337.521 70.5732 335.736 71.0796C333.503 71.7136 331.218 71.9908 328.903 72.0343C328.201 72.0478 327.499 72.0314 326.797 72.0293C326.719 72.0289 326.641 72.0352 326.584 72.0372Z" fill="#621B1A"/>
<path d="M315.206 64.2471C313.886 63.8342 312.594 63.4526 311.385 62.8432C311.282 62.7916 311.183 62.7179 311.108 62.6311C310.428 61.8396 309.644 61.1837 308.692 60.7446C308.477 60.6454 308.322 60.494 308.189 60.3025C307.636 59.5059 307.251 58.647 307.195 57.6615C307.149 56.8606 307.302 56.0979 307.64 55.3741C308.23 54.1153 309.079 53.0448 310.057 52.074C311.138 51.0024 312.348 50.1123 313.737 49.4789C314.898 48.9492 316.11 48.6325 317.39 48.6675C319.974 48.7377 322.067 49.807 323.645 51.8574C324.761 53.3073 325.408 54.9732 325.808 56.7473C325.993 57.5728 326.107 58.4074 326.139 59.2529C326.171 60.1144 326.091 60.9575 325.758 61.7659C325.403 62.6299 324.827 63.3087 324.056 63.8224C323.785 64.0031 323.486 64.1411 323.203 64.3051C323.047 64.395 322.888 64.4049 322.716 64.3748C321.454 64.1574 320.231 64.3203 319.04 64.7682C318.822 64.8502 318.615 64.9029 318.378 64.8585C317.94 64.7765 317.495 64.732 317.059 64.6466C316.427 64.5224 315.8 64.3761 315.206 64.2466L315.206 64.2471Z" fill="#FDFDFD"/>
<path d="M312.005 67.0756C311.437 67.6244 311.199 68.2843 311.213 69.0732C310.991 69.1658 310.76 69.2758 310.521 69.3598C309.794 69.6143 309.068 69.8756 308.333 70.1032C307.509 70.3583 306.661 70.502 305.796 70.4538C305.155 70.4187 304.537 70.2808 303.946 70.0092C303.424 69.7699 302.973 69.4625 302.616 69.0063C302.233 68.5182 302.119 67.9559 302.134 67.3618C302.143 67.0285 302.199 66.6929 302.266 66.3649C302.378 65.8214 302.488 65.2742 302.654 64.7456C302.912 63.9234 303.234 63.1241 303.838 62.4805C304.531 61.7415 305.394 61.4541 306.386 61.558C307.961 61.723 309.174 62.532 310.143 63.7418C310.779 64.5345 311.258 65.4249 311.667 66.3539C311.77 66.5894 311.884 66.8201 312.004 67.0766L312.005 67.0756Z" fill="#F09700"/>
<path d="M315.79 70.2921C316.197 69.6348 316.312 68.9522 316.108 68.1974C316.182 68.1314 316.258 68.0559 316.342 67.9923C317.053 67.451 317.798 66.9615 318.587 66.5451C319.609 66.006 320.688 65.6826 321.854 65.7305C322.756 65.767 323.603 65.986 324.35 66.5242C324.867 66.8963 325.222 67.3871 325.407 67.9893C325.574 68.5322 325.597 69.0914 325.545 69.661C325.456 70.6489 325.155 71.5851 324.876 72.5252C324.745 72.9678 324.526 73.3845 324.244 73.7583C323.854 74.2745 323.325 74.5633 322.701 74.6736C321.988 74.7997 321.282 74.7256 320.599 74.503C319.929 74.2852 319.327 73.9334 318.769 73.5009C317.864 72.7992 317.133 71.9295 316.405 71.0558C316.203 70.8139 316.01 70.5648 315.79 70.2921Z" fill="#F09700"/>
<path d="M312.694 68.6115C312.826 68.075 313.421 67.698 313.986 67.8673C314.573 68.0432 314.888 68.5602 314.734 69.1884C314.599 69.7419 314.006 70.0941 313.408 69.9222C312.844 69.7598 312.524 69.1395 312.694 68.6107L312.694 68.6115Z" fill="#6DB42A"/>
<path d="M326.911 70.6018C326.948 70.0943 327.005 69.6413 327.009 69.1875C327.028 67.2676 326.224 65.8261 324.508 64.9291C324.482 64.9154 324.456 64.9005 324.407 64.8731C324.46 64.8229 324.499 64.7723 324.55 64.7384C325.408 64.1661 326.094 63.4388 326.553 62.5062C326.837 61.9295 327.015 61.3189 327.098 60.6859C327.294 59.1773 327.095 57.6975 326.746 56.231C326.527 55.3119 326.229 54.4193 325.843 53.5569C325.045 51.772 323.907 50.2598 322.284 49.1502C321.639 48.7083 320.936 48.3741 320.191 48.1171C319.341 47.8237 318.469 47.6644 317.576 47.6328C316.733 47.6034 315.899 47.7026 315.079 47.9137C313.808 48.2406 312.642 48.7935 311.552 49.5231C310.372 50.3127 309.333 51.2557 308.411 52.3332C307.829 53.0142 307.312 53.7433 306.899 54.5375C306.212 55.8586 305.946 57.2514 306.323 58.7173C306.431 59.1369 306.62 59.5353 306.771 59.9431C306.792 59.9974 306.817 60.05 306.851 60.1277C306.554 60.1161 306.28 60.094 306.006 60.0971C304.606 60.1107 303.457 60.654 302.564 61.7461C302.119 62.2912 301.808 62.9075 301.546 63.5539C301.536 63.5806 301.517 63.6035 301.484 63.6577C301.345 63.5913 301.202 63.5339 301.07 63.4582C299.343 62.4666 297.69 61.3678 296.191 60.0508C294.922 58.935 293.786 57.6992 292.857 56.2767C291.924 54.8474 291.269 53.307 290.954 51.6262C290.738 50.47 290.709 49.3051 290.824 48.1332C290.93 47.0594 291.172 46.0162 291.5 44.9925C291.726 44.2842 292.008 43.5965 292.324 42.9209C292.888 41.7136 293.565 40.5742 294.334 39.4903C295.275 38.1638 296.387 36.9945 297.638 35.9581C298.465 35.2724 299.344 34.6605 300.268 34.1156C300.524 33.9648 300.631 33.7302 300.72 33.4778C301.432 31.4626 302.333 29.5341 303.366 27.666C303.802 26.8773 304.247 26.0935 304.708 25.3196C304.977 24.8682 305.292 24.4464 305.708 24.1109C306.149 23.7555 306.615 23.7569 307.097 23.9993C307.554 24.2287 307.932 24.569 308.287 24.9268C309.319 25.968 310.317 27.0425 311.233 28.1891C311.84 28.9488 312.406 29.7384 312.919 30.5656C313.023 30.7339 313.142 30.8944 313.237 31.0686C313.386 31.3442 313.624 31.4541 313.919 31.4672C314.659 31.5004 315.4 31.5154 316.139 31.5686C316.848 31.6196 317.555 31.7015 318.261 31.785C318.85 31.8551 319.437 31.9431 320.023 32.032C320.316 32.0767 320.607 32.1385 320.898 32.1961C322.338 32.4825 323.76 32.8444 325.16 33.2825C326.169 33.598 327.165 33.9557 328.146 34.3559C329.658 34.9718 331.132 35.6622 332.558 36.4576C332.843 36.6168 333.121 36.6334 333.429 36.4631C334.978 35.6053 336.595 34.904 338.286 34.3835C339.25 34.0863 340.221 33.8063 341.197 33.5472C341.517 33.4624 341.861 33.4464 342.195 33.4383C342.803 33.4238 343.202 33.7169 343.412 34.2902C343.552 34.6759 343.606 35.0773 343.635 35.4842C343.714 36.6328 343.663 37.7811 343.626 38.9295C343.584 40.2577 343.498 41.5822 343.311 42.8986C343.211 43.6053 343.1 44.3105 342.983 45.0148C342.949 45.2226 342.986 45.405 343.077 45.5888C343.433 46.3089 343.813 47.0185 344.131 47.7558C344.742 49.1728 345.157 50.6495 345.394 52.1784C345.63 53.7029 345.689 55.2349 345.584 56.7716C345.539 57.4234 345.449 58.0729 345.35 58.7188C345.27 59.2376 345.176 59.7588 345.034 60.2636C344.565 61.939 343.872 63.511 342.81 64.9027C342.07 65.872 341.201 66.7097 340.207 67.4151C338.593 68.5611 336.803 69.3134 334.897 69.8071C333.078 70.2784 331.226 70.512 329.353 70.5801C328.546 70.609 327.736 70.596 326.911 70.6019L326.911 70.6018ZM310.284 30.5654C310.201 30.4344 310.108 30.258 309.988 30.1035C309.788 29.8459 309.578 29.5944 309.357 29.3536C308.585 28.5095 307.672 27.8302 306.772 27.1365C306.498 26.926 306.206 26.9663 305.99 27.2484C305.738 27.5783 305.501 27.9223 305.277 28.272C304.902 28.8569 304.597 29.4786 304.328 30.1204C304.074 30.7272 303.885 31.3534 303.73 31.99C303.653 32.3092 303.865 32.6033 304.187 32.6256C304.521 32.6482 304.86 32.6659 305.192 32.6388C306.865 32.5025 308.407 31.9236 309.904 31.196C310.142 31.0805 310.279 30.9134 310.284 30.5662L310.284 30.5654ZM340.936 41.5464C341.015 41.1238 341.107 40.6767 341.182 40.2267C341.374 39.0846 341.375 37.9382 341.233 36.7914C341.177 36.3318 340.972 36.1658 340.509 36.2278C339.922 36.3065 339.334 36.3893 338.749 36.4867C337.828 36.6404 336.933 36.8908 336.081 37.2799C335.707 37.4505 335.615 37.757 335.823 38.1096C335.849 38.1523 335.872 38.1968 335.902 38.2358C336.347 38.818 336.77 39.4195 337.244 39.9762C337.953 40.8077 338.746 41.5524 339.717 42.0796C339.864 42.1591 340.015 42.2385 340.173 42.289C340.418 42.3669 340.666 42.2473 340.764 42.0184C340.827 41.8731 340.873 41.7206 340.936 41.5464Z" fill="#FED98E"/>
<path d="M313.276 66.3673C312.966 65.7244 312.654 65.0765 312.312 64.3655C313.882 64.9617 315.436 65.3998 317.106 65.6969C316.47 66.1379 315.9 66.5345 315.347 66.9179C315.005 66.7651 314.694 66.5793 314.358 66.4898C314.021 66.3996 313.659 66.4063 313.276 66.3674L313.276 66.3673Z" fill="#FAD58C"/>
<path d="M333.092 66.6402C332.333 66.4648 331.638 66.1419 330.997 65.7174C330.288 65.248 329.67 64.6738 329.216 63.9365C328.988 63.567 328.785 63.1894 328.646 62.777C328.432 62.1436 328.369 61.5031 328.442 60.8329C328.555 59.7995 329.034 58.9698 329.762 58.2641C330.414 57.6305 331.203 57.2486 332.069 56.9948C332.866 56.7614 333.673 56.7354 334.486 56.7944C335.109 56.8397 335.719 57.0023 336.298 57.2201C337.523 57.6806 338.578 58.4069 339.343 59.4889C339.874 60.2401 340.228 61.0736 340.281 62.0124C340.313 62.579 340.267 63.1409 340.063 63.6705C339.848 64.2303 339.554 64.7423 339.129 65.1866C338.775 65.5559 338.381 65.8676 337.95 66.1148C337.552 66.3422 337.11 66.5055 336.671 66.6387C335.893 66.8736 335.088 66.9304 334.282 66.8554C333.882 66.818 333.489 66.7145 333.092 66.6402Z" fill="#F67272"/>
<path d="M298.425 57.3172C297.687 57.1827 297.001 56.8611 296.367 56.4464C295.766 56.0534 295.236 55.5679 294.805 54.9819C294.342 54.3535 293.995 53.6746 293.851 52.9012C293.755 52.3854 293.762 51.8735 293.841 51.3495C293.914 50.861 294.102 50.4299 294.325 50.0052C294.614 49.4553 295.03 49.0147 295.522 48.6409C296.128 48.1803 296.805 47.8828 297.537 47.6832C298.179 47.508 298.833 47.4716 299.488 47.4866C300.243 47.504 300.977 47.6884 301.679 47.9446C302.521 48.2511 303.283 48.7159 303.939 49.3393C304.355 49.7345 304.735 50.1634 305.01 50.6671C305.474 51.5202 305.731 52.424 305.629 53.4166C305.542 54.2685 305.225 55.0154 304.699 55.6781C304.314 56.164 303.835 56.5448 303.297 56.8446C302.62 57.2231 301.887 57.4376 301.121 57.5451C300.495 57.6335 299.87 57.5995 299.249 57.53C298.976 57.4996 298.712 57.3936 298.426 57.3168L298.425 57.3172Z" fill="#F67272"/>
<path d="M310.284 30.5654C310.279 30.9127 310.141 31.0796 309.903 31.1953C308.407 31.9236 306.865 32.5019 305.192 32.6381C304.859 32.6652 304.521 32.6475 304.187 32.6248C303.864 32.6032 303.652 32.3085 303.73 31.9893C303.884 31.3527 304.073 30.7265 304.327 30.1197C304.597 29.4779 304.901 28.8561 305.277 28.2713C305.501 27.9216 305.737 27.5775 305.989 27.2477C306.205 26.9656 306.498 26.9252 306.771 27.1358C307.672 27.8295 308.586 28.5089 309.357 29.3529C309.577 29.5935 309.787 29.845 309.987 30.1028C310.108 30.2574 310.2 30.4337 310.284 30.5647L310.284 30.5654ZM308.948 30.4622C308.249 29.5925 307.4 28.9291 306.529 28.2595C305.792 29.2975 305.249 30.3913 304.912 31.5861C305.592 31.7361 308.2 30.9606 308.948 30.4616L308.948 30.4622Z" fill="#631B1A"/>
<path d="M340.936 41.5464C340.873 41.7206 340.827 41.8731 340.764 42.0184C340.666 42.2473 340.417 42.3667 340.173 42.289C340.015 42.2385 339.864 42.1597 339.717 42.0796C338.746 41.553 337.953 40.8083 337.244 39.9762C336.77 39.4195 336.347 38.818 335.902 38.2358C335.872 38.1968 335.849 38.1523 335.823 38.1096C335.615 37.757 335.707 37.45 336.081 37.2799C336.933 36.8908 337.828 36.6404 338.749 36.4867C339.334 36.3889 339.922 36.3065 340.509 36.2278C340.972 36.1657 341.177 36.3318 341.233 36.7914C341.375 37.9388 341.374 39.0845 341.182 40.2267C341.107 40.6762 341.015 41.1233 340.936 41.5464ZM339.942 41.0216C340.241 40.4145 340.429 37.8677 340.201 37.3344C339.665 37.3615 339.133 37.4617 338.602 37.5649C337.675 37.7449 337.268 37.881 337.044 38.0695C337.864 39.1947 338.759 40.2417 339.941 41.0214L339.942 41.0216Z" fill="#631B1A"/>
<path d="M309.809 37.1617C310.547 37.3649 311.18 37.7243 311.677 38.3111C311.86 38.5277 311.981 38.7778 312.021 39.0567C312.099 39.6005 311.892 40.0265 311.442 40.3312C310.971 40.6494 310.438 40.7333 309.885 40.7249C309.117 40.7131 308.404 40.498 307.754 40.0914C307.303 39.8094 306.918 39.4582 306.733 38.9365C306.52 38.3356 306.721 37.7565 307.254 37.4068C307.767 37.0708 308.341 36.9971 308.932 37.0306C309.226 37.0469 309.517 37.1168 309.809 37.1629L309.809 37.1617ZM309.576 37.9795C309.149 37.8477 308.717 37.7986 308.282 37.8905C308.083 37.9328 307.882 38.0075 307.705 38.1091C307.461 38.2501 307.41 38.4714 307.538 38.7257C307.595 38.8392 307.671 38.9493 307.762 39.0372C308.359 39.6188 309.09 39.8721 309.912 39.8934C310.274 39.9027 310.625 39.8614 310.942 39.6686C311.214 39.5031 311.288 39.2566 311.121 38.9842C311.019 38.8191 310.882 38.6675 310.735 38.5398C310.401 38.2486 310.003 38.0735 309.576 37.9794L309.576 37.9795Z" fill="#641E1C"/>
<path d="M309.152 48.0591C309.083 48.3251 308.939 48.4461 308.684 48.466C308.466 48.483 308.256 48.3648 308.167 48.1445C308.019 47.7772 307.799 47.4692 307.487 47.2261C306.893 46.7629 306.254 46.7443 305.589 47.0426C305.437 47.1107 305.297 47.2117 305.161 47.3101C304.9 47.4985 304.602 47.4828 304.419 47.2607C304.226 47.0274 304.245 46.7253 304.496 46.5205C305.182 45.9603 305.964 45.7086 306.848 45.8522C307.916 46.0257 308.614 46.6777 309.078 47.6191C309.147 47.76 309.211 47.9119 309.152 48.0591Z" fill="#641D1B"/>
<path d="M330.619 52.1945C331.627 52.488 332.273 53.1117 332.646 54.0273C332.771 54.3367 332.646 54.6369 332.367 54.7444C332.093 54.8496 331.797 54.7147 331.691 54.4306C331.674 54.384 331.654 54.3389 331.633 54.2942C331.364 53.7259 330.945 53.3331 330.321 53.1942C329.788 53.0756 329.306 53.2283 328.853 53.5044C328.769 53.5559 328.691 53.6193 328.605 53.6686C328.348 53.8172 328.062 53.751 327.905 53.5093C327.758 53.2833 327.795 52.9804 328.019 52.8173C328.741 52.2927 329.531 52.0037 330.439 52.169C330.517 52.183 330.595 52.1911 330.619 52.1943L330.619 52.1945Z" fill="#631C1A"/>
<path d="M308.948 30.4622C308.2 30.9606 305.592 31.7367 304.912 31.5867C305.25 30.3921 305.792 29.298 306.529 28.2601C307.4 28.9297 308.249 29.593 308.948 30.4628L308.948 30.4622Z" fill="#F47070"/>
<path d="M339.942 41.0216C338.76 40.2413 337.864 39.1949 337.045 38.0697C337.268 37.8811 337.676 37.745 338.603 37.5651C339.134 37.4619 339.666 37.3616 340.202 37.3346C340.429 37.8678 340.242 40.4141 339.942 41.0217L339.942 41.0216Z" fill="#F47070"/>
<path d="M309.576 37.9795C310.004 38.0736 310.401 38.2488 310.736 38.5399C310.883 38.6677 311.02 38.8193 311.121 38.9843C311.289 39.2567 311.215 39.5026 310.942 39.6688C310.626 39.8615 310.274 39.9027 309.913 39.8936C309.091 39.8724 308.36 39.6191 307.762 39.0373C307.672 38.9495 307.595 38.8386 307.538 38.7258C307.411 38.4716 307.461 38.2503 307.705 38.1092C307.882 38.0075 308.083 37.933 308.283 37.8907C308.717 37.7987 309.15 37.8473 309.577 37.9797L309.576 37.9795Z" fill="#FBFAFA"/>
<path d="M313.82 53.743C313.62 53.4063 313.475 53.0609 313.425 52.6809C313.417 52.622 313.404 52.5627 313.403 52.5038C313.397 52.2197 313.589 51.9843 313.846 51.955C314.145 51.9207 314.401 52.1092 314.428 52.4206C314.464 52.8176 314.626 53.145 314.899 53.4221C315.591 54.1235 316.762 53.9625 317.236 53.0987C317.058 52.8292 316.87 52.5631 316.703 52.2842C316.592 52.0979 316.501 51.8968 316.421 51.6943C316.367 51.5573 316.335 51.4079 316.315 51.2616C316.256 50.8269 316.609 50.5383 317.037 50.7332C317.271 50.8397 317.445 51.0045 317.583 51.2194C317.689 51.3865 317.803 51.5493 317.924 51.7064C317.983 51.7835 318.066 51.8427 318.139 51.9118C318.414 51.9149 318.637 51.7819 318.872 51.6792C319.07 51.5926 319.273 51.5006 319.484 51.4636C319.742 51.4177 320.006 51.4409 320.161 51.7099C320.283 51.9218 320.233 52.1427 319.985 52.4057C319.631 52.7807 319.189 53.0269 318.726 53.2386C318.646 53.2757 318.564 53.3087 318.487 53.3413C318.451 53.951 318.876 54.6587 319.425 54.8411C320.002 55.0323 320.517 54.8612 320.963 54.4626C321.043 54.3902 321.104 54.2967 321.175 54.2135C321.37 53.9822 321.655 53.9417 321.892 54.1109C322.112 54.268 322.159 54.5767 321.992 54.8274C321.82 55.0866 321.601 55.3032 321.346 55.4808C321.281 55.5258 321.216 55.5701 321.138 55.6234C321.128 55.8067 321.117 55.993 321.107 56.1801C321.046 57.2873 320.73 58.3115 320.085 59.2196C319.217 60.4402 318.053 61.0845 316.542 60.9059C315.281 60.7571 314.2 60.2382 313.522 59.0909C313.024 58.2486 312.881 57.3248 312.972 56.3612C313.053 55.4887 313.318 54.6696 313.743 53.9027C313.767 53.8591 313.787 53.8137 313.821 53.7431L313.82 53.743Z" fill="#631C1C"/>
<path d="M314.578 54.5091C315.65 55.0974 316.641 55.0117 317.595 54.27C318.044 55.384 318.863 55.9472 320.072 55.9861C320.059 56.2082 320.071 56.4153 320.031 56.6123C319.889 57.3147 319.693 57.9996 319.265 58.5914C318.911 59.0796 318.495 59.4921 317.924 59.7242C317.481 59.9041 317.017 59.946 316.558 59.8762C315.948 59.783 315.372 59.5751 314.896 59.1557C314.489 58.7975 314.235 58.3432 314.109 57.8217C313.977 57.2803 313.958 56.7363 314.034 56.175C314.113 55.5935 314.331 55.0759 314.578 54.5085L314.578 54.5091Z" fill="#F57171"/>
<path d="M332.941 43.3835C333.778 43.6014 334.425 43.9356 334.909 44.5406C335.119 44.8025 335.248 45.0999 335.269 45.4367C335.305 46.0292 334.908 46.4693 334.468 46.6871C333.965 46.9361 333.425 46.9861 332.877 46.9407C332.008 46.8684 331.228 46.56 330.556 45.9961C330.317 45.7961 330.139 45.5474 330.01 45.2656C329.697 44.5823 329.967 43.9575 330.541 43.5983C330.958 43.3378 331.426 43.2617 331.904 43.249C332.291 43.2383 332.673 43.2876 332.941 43.3835ZM334.446 45.579C334.412 45.2237 334.288 45.0138 333.985 44.7708C333.381 44.2857 332.676 44.0955 331.919 44.0768C331.591 44.0687 331.268 44.1255 330.979 44.3008C330.698 44.4721 330.633 44.6909 330.786 44.9816C330.836 45.0765 330.903 45.1662 330.977 45.2435C331.457 45.7423 332.063 45.9877 332.731 46.0907C333.124 46.1507 333.519 46.1496 333.904 46.0234C334.136 45.9473 334.337 45.8318 334.446 45.5784L334.446 45.579Z" fill="#641D1C"/>
<path d="M334.446 45.579C334.337 45.8324 334.137 45.9475 333.903 46.0239C333.518 46.15 333.124 46.1512 332.731 46.0913C332.063 45.9888 331.456 45.7429 330.977 45.2441C330.903 45.1668 330.836 45.0771 330.786 44.9822C330.633 44.6916 330.698 44.4727 330.979 44.3014C331.268 44.1255 331.591 44.0687 331.919 44.0774C332.676 44.0961 333.381 44.2863 333.985 44.7714C334.288 45.0144 334.411 45.2243 334.445 45.5796L334.446 45.579Z" fill="#FBFAFA"/>
</svg>
