<svg width="375" height="243" viewBox="0 0 375 243" fill="none" xmlns="http://www.w3.org/2000/svg">
<mask id="mask0_121_2422" style="mask-type:luminance" maskUnits="userSpaceOnUse" x="43" y="81" width="300" height="48">
<path d="M343 81H43V129H343V81Z" fill="white"/>
</mask>
<g mask="url(#mask0_121_2422)">
<path d="M45.7515 116.472C61.6159 105.035 79.6869 94.837 99.0756 85.7364C104.023 83.413 111.294 84.4014 114.834 87.0328C115.263 87.3473 115.623 87.681 115.945 88.0212C120.443 86.1278 124.941 84.2281 129.439 82.3348C139.451 78.1118 152.622 84.6581 148.246 91.2879C153.495 88.9004 158.739 86.5129 163.994 84.1319C168.481 82.0974 175.81 82.4183 179.551 84.7351C183.361 87.097 184.218 90.2995 182.345 93.4443C189.764 90.7616 197.686 88.8041 206.433 88.3292C213.338 87.9506 218.487 91.3585 218.895 95.2093C227.964 90.7809 237.733 86.4167 249.613 88.4255C255.227 89.3753 260.111 93.1427 258.873 96.9036C265.461 94.683 272.049 92.4624 278.632 90.2418C288.49 86.9173 298.65 91.2815 296.814 98.0268C296.703 98.4375 296.592 98.8547 296.486 99.2654C300.608 98.7713 304.731 98.2771 308.858 97.7829C318.404 96.6533 328.019 96.4159 337.597 95.4596C340.238 95.1964 342.566 96.6341 342.936 98.1102C343.365 99.8238 341.703 101.184 339.2 101.89C330.263 104.432 321.77 107.519 312.583 109.669C303.487 111.8 294.37 113.796 285.125 115.638C278.86 116.883 270.081 114.495 269.578 110.112C259.339 113.571 249.094 117.037 238.855 120.496C234.336 122.024 229.446 122.274 225.239 120.458C221.593 118.892 219.445 115.914 220.487 113.064C212.238 116.729 203.596 120.021 194.638 122.941C189.833 124.507 183.7 124.835 179.715 122.364C176.434 120.329 175.127 117.287 176.662 114.482C165.84 119.681 154.839 123.975 141.229 125.496C136.361 126.041 131.381 123.654 129.571 121.183C129.175 120.637 128.894 120.092 128.714 119.54C122.862 122.21 117.014 124.892 111.162 127.556C100.605 132.363 86.3914 124.244 93.1965 117.377L95.0433 115.509C88.1641 118.391 81.2903 121.279 74.4111 124.161C69.6751 126.144 64.7909 125.868 61.1291 124.398C60.9121 124.539 60.6951 124.681 60.4782 124.822C51.1702 130.912 36.9779 122.8 45.7515 116.478V116.472Z" fill="#FFFBC7"/>
</g>
<path d="M93.8175 73.6399V80.0719H110.713V73.6399H93.8175ZM88.2495 68.1199H116.569V85.5439H88.2495V68.1199ZM81.6255 89.5759H100.009V111.032H94.2495V95.0959H87.0975V111.32H81.6255V89.5759ZM104.041 89.5759H123.049V111.08H117.289V95.0959H109.561V111.32H104.041V89.5759ZM84.0255 103.352H96.6495V108.872H84.0255V103.352ZM106.681 103.352H120.121V108.872H106.681V103.352ZM145.658 66.2479L149.162 69.6559C147.818 70.0399 146.314 70.3919 144.65 70.7119C143.018 71.0319 141.354 71.2879 139.658 71.4799C137.962 71.6719 136.33 71.8159 134.762 71.9119C134.666 71.4319 134.49 70.8559 134.234 70.1839C134.01 69.4799 133.754 68.9039 133.466 68.4559C134.938 68.2959 136.41 68.1199 137.882 67.9279C139.386 67.7039 140.81 67.4479 142.154 67.1599C143.53 66.8719 144.698 66.5679 145.658 66.2479ZM166.442 66.2959L169.946 69.6559C168.506 70.1039 166.906 70.4879 165.146 70.8079C163.386 71.0959 161.578 71.3359 159.722 71.5279C157.898 71.7199 156.138 71.8799 154.442 72.0079C154.346 71.4959 154.17 70.9039 153.914 70.2319C153.658 69.5279 153.418 68.9359 153.194 68.4559C154.762 68.3279 156.362 68.1519 157.994 67.9279C159.626 67.7039 161.178 67.4479 162.65 67.1599C164.154 66.8719 165.418 66.5839 166.442 66.2959ZM131.882 67.3039L138.074 68.8399C138.042 69.2239 137.658 69.4799 136.922 69.6079V71.9599C136.922 73.2079 136.778 74.6479 136.49 76.2799C136.202 77.8799 135.674 79.4959 134.906 81.1279C134.17 82.7279 133.066 84.216 131.594 85.5919C131.338 85.2079 130.985 84.7919 130.537 84.3439C130.089 83.8639 129.625 83.4159 129.145 82.9999C128.665 82.5519 128.217 82.216 127.801 81.9919C129.017 80.9359 129.897 79.8159 130.441 78.632C131.018 77.4479 131.402 76.2639 131.594 75.0799C131.786 73.8639 131.882 72.7279 131.882 71.6719V67.3039ZM151.802 67.352L157.946 68.7439C157.914 69.1919 157.53 69.4639 156.794 69.5599V72.0079C156.794 73.1279 156.634 74.4079 156.314 75.8479C155.994 77.2559 155.386 78.6639 154.49 80.0719C153.594 81.4479 152.298 82.6799 150.602 83.7679C150.41 83.3839 150.106 82.952 149.69 82.4719C149.274 81.9599 148.842 81.4799 148.394 81.0319C147.946 80.5519 147.514 80.1999 147.098 79.9759C148.442 79.1439 149.434 78.2639 150.074 77.3359C150.746 76.4079 151.194 75.4639 151.418 74.5039C151.674 73.5439 151.802 72.6159 151.802 71.7199V67.352ZM134.138 73.3999H150.122V77.5759H134.138V73.3999ZM153.914 73.3999H171.866V77.5759H153.914V73.3999ZM140.474 74.7919H145.562V82.5679H140.474V74.7919ZM160.634 74.7919H165.77V82.6159H160.634V74.7919ZM139.994 92.2639V94.3759H160.922V92.2639H139.994ZM139.994 97.6399V99.7519H160.922V97.6399H139.994ZM139.994 86.9359V88.9999H160.922V86.9359H139.994ZM134.426 83.4799H166.73V103.16H134.426V83.4799ZM152.954 105.704L157.754 102.968C159.482 103.576 161.226 104.232 162.986 104.936C164.778 105.608 166.474 106.296 168.074 107C169.706 107.672 171.082 108.28 172.202 108.824L165.482 111.416C164.586 110.904 163.466 110.312 162.122 109.64C160.778 108.968 159.322 108.28 157.754 107.576C156.218 106.904 154.618 106.28 152.954 105.704ZM142.346 102.776L147.578 105.176C146.298 106.008 144.794 106.824 143.066 107.624C141.338 108.424 139.562 109.144 137.738 109.784C135.914 110.456 134.186 111.016 132.554 111.464C132.202 111.08 131.77 110.616 131.258 110.072C130.777 109.56 130.265 109.032 129.721 108.488C129.177 107.976 128.697 107.56 128.281 107.24C129.977 106.92 131.69 106.536 133.418 106.088C135.178 105.64 136.826 105.128 138.362 104.552C139.93 103.976 141.258 103.384 142.346 102.776ZM209.03 66.2H214.742V111.272H209.03V66.2ZM204.854 75.7039L209.03 76.2799C208.966 77.6559 208.822 79.16 208.598 80.7919C208.406 82.424 208.15 84.0399 207.83 85.6399C207.542 87.2079 207.206 88.5999 206.822 89.8159L202.55 88.3279C202.934 87.2399 203.27 85.9759 203.558 84.5359C203.878 83.0639 204.15 81.5599 204.374 80.0239C204.598 78.4879 204.758 77.0479 204.854 75.7039ZM213.446 75.7999L217.382 74.1679C217.862 75.1279 218.342 76.1679 218.822 77.2879C219.334 78.4079 219.782 79.4959 220.166 80.5519C220.582 81.6079 220.886 82.5359 221.078 83.3359L216.902 85.3039C216.742 84.4719 216.47 83.5119 216.086 82.424C215.734 81.3359 215.334 80.216 214.886 79.0639C214.438 77.8799 213.958 76.7919 213.446 75.7999ZM220.31 73.4959H244.886V90.632H239.27V78.8239H220.31V73.4959ZM218.15 87.6559H247.91V93.1279H218.15V87.6559ZM235.142 88.8079C235.846 91.4319 236.79 93.8799 237.974 96.1519C239.19 98.3919 240.694 100.36 242.486 102.056C244.31 103.752 246.47 105.08 248.966 106.04C248.486 106.424 247.99 106.936 247.478 107.576C246.966 108.216 246.47 108.872 245.99 109.544C245.51 110.216 245.126 110.856 244.838 111.464C242.118 110.152 239.798 108.456 237.878 106.376C235.99 104.264 234.406 101.816 233.126 99.0319C231.846 96.2479 230.79 93.16 229.958 89.7679L235.142 88.8079ZM228.662 66.2H234.47V83.2399C234.47 85.1919 234.358 87.1919 234.134 89.2399C233.91 91.2879 233.51 93.3359 232.934 95.3839C232.39 97.4319 231.574 99.4159 230.486 101.336C229.43 103.256 228.038 105.096 226.31 106.856C224.614 108.584 222.534 110.152 220.07 111.56C219.814 111.112 219.446 110.616 218.966 110.072C218.486 109.528 217.974 108.968 217.43 108.392C216.886 107.848 216.39 107.416 215.942 107.096C218.342 105.912 220.326 104.6 221.894 103.16C223.462 101.688 224.694 100.136 225.59 98.5039C226.518 96.8719 227.19 95.1919 227.606 93.4639C228.054 91.7359 228.342 90.0079 228.47 88.2799C228.598 86.5199 228.662 84.8399 228.662 83.2399V66.2ZM262.502 84.9199V102.632H256.982V90.2479H251.558V84.9199H262.502ZM262.502 100.328C263.43 101.928 264.742 103.112 266.438 103.88C268.134 104.616 270.198 105.032 272.63 105.128C274.07 105.192 275.798 105.24 277.814 105.272C279.862 105.272 281.99 105.256 284.198 105.224C286.438 105.192 288.614 105.144 290.726 105.08C292.87 104.984 294.79 104.856 296.486 104.696C296.262 105.112 296.022 105.672 295.766 106.376C295.542 107.048 295.318 107.736 295.094 108.44C294.902 109.144 294.758 109.768 294.662 110.312C293.19 110.408 291.494 110.472 289.574 110.504C287.654 110.536 285.67 110.552 283.622 110.552C281.574 110.584 279.59 110.584 277.67 110.552C275.75 110.552 274.054 110.52 272.582 110.456C269.702 110.328 267.254 109.864 265.238 109.064C263.222 108.264 261.494 106.936 260.054 105.08C259.126 106.04 258.134 106.984 257.078 107.912C256.054 108.872 254.934 109.864 253.718 110.888L250.982 105.176C252.006 104.504 253.078 103.752 254.198 102.92C255.35 102.088 256.454 101.224 257.51 100.328H262.502ZM251.75 70.7119L256.118 67.448C257.046 68.152 258.006 68.952 258.998 69.8479C259.99 70.7439 260.902 71.6399 261.734 72.5359C262.566 73.4319 263.238 74.2799 263.75 75.0799L258.998 78.7279C258.55 77.9279 257.926 77.0639 257.126 76.1359C256.358 75.1759 255.494 74.2319 254.534 73.3039C253.574 72.3439 252.646 71.4799 251.75 70.7119ZM264.47 69.5119H295.382V73.9759H264.47V69.5119ZM272.15 84.1999H287.606V87.7039H272.15V84.1999ZM276.758 66.2H282.326V72.1999H276.758V66.2ZM277.766 81.5119H281.894V91.2559H277.766V81.5119ZM265.718 77.3839H290.87V81.7519H270.902V103.16H265.718V77.3839ZM273.35 90.3919H277.286V101H273.35V90.3919ZM275.558 90.3919H286.454V99.4639H275.558V96.2479H282.47V93.5599H275.558V90.3919ZM289.046 77.3839H294.326V98.0239C294.326 99.2079 294.198 100.152 293.942 100.856C293.686 101.528 293.174 102.072 292.406 102.488C291.606 102.872 290.678 103.112 289.622 103.208C288.566 103.304 287.334 103.352 285.926 103.352C285.83 102.648 285.622 101.848 285.302 100.952C285.014 100.056 284.71 99.2879 284.39 98.6479C285.19 98.6799 285.974 98.6959 286.742 98.6959H288.326C288.614 98.6959 288.806 98.6479 288.902 98.5519C288.998 98.424 289.046 98.2319 289.046 97.9759V77.3839ZM284.438 72.7279L289.862 73.8799C289.382 74.8079 288.934 75.688 288.518 76.5199C288.102 77.3519 287.718 78.0879 287.366 78.7279L282.758 77.5759C283.078 76.8399 283.398 76.0239 283.718 75.1279C284.038 74.1999 284.278 73.3999 284.438 72.7279ZM269.99 74.1679L274.742 73.0639C275.158 73.7039 275.526 74.4559 275.846 75.3199C276.198 76.1519 276.422 76.8879 276.518 77.5279L271.526 78.7279C271.462 78.1199 271.286 77.3839 270.998 76.5199C270.71 75.6559 270.374 74.8719 269.99 74.1679Z" fill="#6B8A2E"/>
<path d="M195.05 79.3999L198.65 82.9039L191.498 90.0559L198.554 97.1599L195.05 100.712L187.898 93.6559L180.842 100.664L177.338 97.1119L184.298 90.0559L177.29 82.9999L180.842 79.3999L187.898 86.4079L195.05 79.3999Z" fill="#474747"/>
<path d="M130.84 153H127.82V143.9C127.833 143.567 127.847 143.22 127.86 142.86C127.873 142.5 127.887 142.18 127.9 141.9C127.833 141.98 127.687 142.127 127.46 142.34C127.247 142.54 127.047 142.72 126.86 142.88L125.22 144.2L123.76 142.38L128.36 138.72H130.84V153ZM141.985 137.16H149.385V139.36H141.985V137.16ZM148.385 137.16H148.645L149.005 137.08L150.605 137.28C150.499 138.067 150.365 138.913 150.205 139.82C150.059 140.713 149.892 141.613 149.705 142.52C149.532 143.427 149.359 144.28 149.185 145.08L147.045 144.86C147.179 144.247 147.312 143.6 147.445 142.92C147.579 142.227 147.705 141.54 147.825 140.86C147.945 140.18 148.052 139.547 148.145 138.96C148.252 138.36 148.332 137.84 148.385 137.4V137.16ZM148.725 142.16H151.805V144.32H148.085L148.725 142.16ZM151.005 142.16H151.445L151.825 142.1L153.265 142.62C152.892 144.66 152.339 146.467 151.605 148.04C150.885 149.613 150.019 150.96 149.005 152.08C147.992 153.187 146.865 154.073 145.625 154.74C145.519 154.567 145.365 154.367 145.165 154.14C144.979 153.913 144.779 153.693 144.565 153.48C144.365 153.267 144.179 153.1 144.005 152.98C145.205 152.393 146.272 151.62 147.205 150.66C148.152 149.7 148.945 148.553 149.585 147.22C150.239 145.873 150.712 144.34 151.005 142.62V142.16ZM145.725 140.18C145.952 141.7 146.259 143.133 146.645 144.48C147.032 145.813 147.532 147.033 148.145 148.14C148.772 149.233 149.539 150.187 150.445 151C151.352 151.8 152.425 152.427 153.665 152.88C153.505 153.027 153.332 153.207 153.145 153.42C152.959 153.647 152.779 153.88 152.605 154.12C152.445 154.373 152.312 154.607 152.205 154.82C150.885 154.26 149.759 153.527 148.825 152.62C147.905 151.7 147.125 150.627 146.485 149.4C145.859 148.173 145.345 146.807 144.945 145.3C144.545 143.793 144.219 142.167 143.965 140.42L145.725 140.18ZM137.625 136.02L139.705 136.8C139.439 137.307 139.159 137.833 138.865 138.38C138.572 138.927 138.285 139.447 138.005 139.94C137.725 140.433 137.459 140.86 137.205 141.22L135.605 140.54C135.845 140.127 136.092 139.66 136.345 139.14C136.599 138.62 136.839 138.087 137.065 137.54C137.292 136.993 137.479 136.487 137.625 136.02ZM139.925 138.4L141.885 139.28C141.405 140.04 140.879 140.84 140.305 141.68C139.732 142.507 139.159 143.307 138.585 144.08C138.012 144.84 137.472 145.507 136.965 146.08L135.565 145.3C135.939 144.847 136.325 144.34 136.725 143.78C137.125 143.207 137.519 142.613 137.905 142C138.305 141.373 138.679 140.753 139.025 140.14C139.372 139.513 139.672 138.933 139.925 138.4ZM134.545 140.76L135.705 139.12C136.052 139.427 136.405 139.767 136.765 140.14C137.139 140.5 137.479 140.867 137.785 141.24C138.105 141.6 138.345 141.927 138.505 142.22L137.285 144.08C137.125 143.76 136.892 143.407 136.585 143.02C136.292 142.633 135.965 142.24 135.605 141.84C135.245 141.44 134.892 141.08 134.545 140.76ZM139.605 143.16L141.185 142.5C141.452 142.953 141.705 143.44 141.945 143.96C142.185 144.467 142.392 144.967 142.565 145.46C142.752 145.94 142.879 146.373 142.945 146.76L141.245 147.52C141.192 147.133 141.079 146.693 140.905 146.2C140.732 145.693 140.532 145.173 140.305 144.64C140.079 144.107 139.845 143.613 139.605 143.16ZM134.525 144.82C135.445 144.793 136.545 144.753 137.825 144.7C139.119 144.647 140.425 144.593 141.745 144.54L141.725 146.44C140.485 146.533 139.252 146.62 138.025 146.7C136.812 146.78 135.712 146.853 134.725 146.92L134.525 144.82ZM139.845 148.12L141.525 147.58C141.779 148.1 142.012 148.68 142.225 149.32C142.439 149.947 142.599 150.493 142.705 150.96L140.925 151.6C140.832 151.12 140.679 150.56 140.465 149.92C140.265 149.267 140.059 148.667 139.845 148.12ZM135.405 147.76L137.385 148.12C137.279 149.08 137.119 150.027 136.905 150.96C136.692 151.893 136.445 152.68 136.165 153.32C136.032 153.227 135.852 153.12 135.625 153C135.399 152.893 135.165 152.787 134.925 152.68C134.699 152.573 134.499 152.493 134.325 152.44C134.619 151.84 134.852 151.127 135.025 150.3C135.199 149.46 135.325 148.613 135.405 147.76ZM137.645 145.88H139.745V154.8H137.645V145.88ZM143.645 138.64H145.725V142.4C145.725 143.28 145.685 144.253 145.605 145.32C145.525 146.373 145.365 147.46 145.125 148.58C144.885 149.687 144.525 150.767 144.045 151.82C143.579 152.873 142.945 153.84 142.145 154.72C142.025 154.587 141.859 154.44 141.645 154.28C141.445 154.12 141.232 153.96 141.005 153.8C140.779 153.653 140.579 153.533 140.405 153.44C141.152 152.64 141.739 151.767 142.165 150.82C142.592 149.86 142.912 148.887 143.125 147.9C143.339 146.9 143.479 145.927 143.545 144.98C143.612 144.02 143.645 143.153 143.645 142.38V138.64ZM160.285 139.92H173.365V141.76H160.285V139.92ZM161.445 145.28H172.005V147.02H161.445V145.28ZM160.565 147.94H172.925V149.82H160.565V147.94ZM165.345 136.16H167.665V151.44H165.345V136.16ZM161.645 137.3H171.845V144.4H161.545V142.58H169.505V139.1H161.645V137.3ZM154.685 137.12H158.905V139.22H154.685V137.12ZM158.065 137.12H158.365L158.725 137.02L160.365 137.48C160.072 138.253 159.725 139.107 159.325 140.04C158.939 140.96 158.532 141.887 158.105 142.82C157.692 143.74 157.285 144.62 156.885 145.46L154.725 144.9C155.019 144.273 155.325 143.62 155.645 142.94C155.979 142.247 156.292 141.56 156.585 140.88C156.892 140.187 157.172 139.54 157.425 138.94C157.679 138.327 157.892 137.8 158.065 137.36V137.12ZM156.705 142.78H159.625V144.88H156.645L156.705 142.78ZM158.685 142.78H159.125L159.545 142.72L160.945 143.04C160.692 146.053 160.179 148.533 159.405 150.48C158.632 152.427 157.599 153.887 156.305 154.86C156.185 154.713 156.012 154.527 155.785 154.3C155.572 154.087 155.345 153.88 155.105 153.68C154.879 153.493 154.679 153.353 154.505 153.26C155.745 152.393 156.705 151.14 157.385 149.5C158.065 147.847 158.499 145.747 158.685 143.2V142.78ZM156.825 146C157.225 147.307 157.752 148.36 158.405 149.16C159.059 149.947 159.812 150.547 160.665 150.96C161.532 151.373 162.479 151.653 163.505 151.8C164.545 151.947 165.659 152.02 166.845 152.02H170.925C171.472 152.007 171.979 152 172.445 152C172.925 151.987 173.312 151.973 173.605 151.96C173.472 152.133 173.345 152.36 173.225 152.64C173.105 152.92 172.999 153.207 172.905 153.5C172.812 153.807 172.732 154.073 172.665 154.3H166.785C165.332 154.3 163.999 154.2 162.785 154C161.572 153.813 160.472 153.453 159.485 152.92C158.499 152.373 157.625 151.6 156.865 150.6C156.119 149.587 155.479 148.273 154.945 146.66L156.825 146ZM175.445 141.32H182.645V142.98H175.445V141.32ZM177.965 141.82H180.145V145.86H177.965V141.82ZM174.965 145.4C175.619 145.307 176.359 145.207 177.185 145.1C178.025 144.993 178.912 144.873 179.845 144.74C180.792 144.607 181.725 144.473 182.645 144.34L182.745 146.14C181.425 146.34 180.105 146.54 178.785 146.74C177.465 146.94 176.285 147.12 175.245 147.28L174.965 145.4ZM183.545 141.22H185.725V143.28C185.725 143.867 185.639 144.447 185.465 145.02C185.305 145.58 184.992 146.113 184.525 146.62C184.059 147.113 183.379 147.533 182.485 147.88C182.392 147.733 182.245 147.56 182.045 147.36C181.845 147.147 181.639 146.947 181.425 146.76C181.212 146.56 181.032 146.407 180.885 146.3C181.672 146.02 182.252 145.72 182.625 145.4C183.012 145.067 183.259 144.713 183.365 144.34C183.485 143.967 183.545 143.593 183.545 143.22V141.22ZM188.645 141.22H190.905V145.16C190.905 145.267 190.919 145.333 190.945 145.36C190.972 145.413 191.039 145.44 191.145 145.44H191.585C191.625 145.427 191.665 145.413 191.705 145.4C191.759 145.36 191.805 145.227 191.845 145C191.872 144.893 191.885 144.72 191.885 144.48C191.899 144.227 191.912 143.933 191.925 143.6C192.099 143.76 192.339 143.92 192.645 144.08C192.952 144.227 193.232 144.347 193.485 144.44C193.459 144.813 193.419 145.187 193.365 145.56C193.325 145.92 193.279 146.187 193.225 146.36C193.079 146.72 192.852 146.973 192.545 147.12C192.412 147.2 192.245 147.26 192.045 147.3C191.845 147.327 191.659 147.34 191.485 147.34H190.485C190.245 147.34 189.999 147.3 189.745 147.22C189.505 147.14 189.299 147.02 189.125 146.86C188.952 146.687 188.825 146.467 188.745 146.2C188.679 145.92 188.645 145.467 188.645 144.84V141.22ZM174.945 148.24H193.145V150.12H174.945V148.24ZM182.845 147.04H185.185V154.72H182.845V147.04ZM182.165 149.34L183.965 150.12C183.512 150.6 182.985 151.06 182.385 151.5C181.785 151.927 181.139 152.32 180.445 152.68C179.752 153.04 179.032 153.353 178.285 153.62C177.539 153.9 176.792 154.133 176.045 154.32C175.872 154.027 175.639 153.687 175.345 153.3C175.065 152.913 174.805 152.6 174.565 152.36C175.285 152.24 176.012 152.08 176.745 151.88C177.492 151.68 178.199 151.453 178.865 151.2C179.545 150.933 180.165 150.647 180.725 150.34C181.299 150.033 181.779 149.7 182.165 149.34ZM185.785 149.46C186.212 149.793 186.705 150.107 187.265 150.4C187.839 150.68 188.465 150.94 189.145 151.18C189.839 151.42 190.552 151.627 191.285 151.8C192.019 151.973 192.759 152.113 193.505 152.22C193.332 152.38 193.145 152.587 192.945 152.84C192.745 153.08 192.559 153.327 192.385 153.58C192.225 153.833 192.085 154.06 191.965 154.26C191.232 154.1 190.492 153.887 189.745 153.62C189.012 153.367 188.299 153.067 187.605 152.72C186.925 152.36 186.285 151.967 185.685 151.54C185.085 151.113 184.552 150.653 184.085 150.16L185.785 149.46ZM177.425 137.42H183.745V139.3H177.425V137.42ZM185.525 137.42H193.285V139.3H185.525V137.42ZM177.525 135.84L179.745 136.46C179.359 137.327 178.865 138.18 178.265 139.02C177.679 139.847 177.092 140.54 176.505 141.1C176.372 140.967 176.185 140.82 175.945 140.66C175.705 140.487 175.459 140.327 175.205 140.18C174.965 140.02 174.752 139.887 174.565 139.78C175.179 139.3 175.745 138.713 176.265 138.02C176.799 137.313 177.219 136.587 177.525 135.84ZM185.665 135.84L187.945 136.4C187.572 137.307 187.085 138.18 186.485 139.02C185.899 139.847 185.305 140.54 184.705 141.1C184.532 140.98 184.319 140.847 184.065 140.7C183.812 140.553 183.552 140.413 183.285 140.28C183.019 140.133 182.785 140.02 182.585 139.94C183.252 139.46 183.852 138.853 184.385 138.12C184.932 137.387 185.359 136.627 185.665 135.84ZM178.185 138.94L180.005 138.44C180.245 138.76 180.472 139.12 180.685 139.52C180.912 139.92 181.085 140.267 181.205 140.56L179.265 141.12C179.172 140.827 179.025 140.473 178.825 140.06C178.625 139.647 178.412 139.273 178.185 138.94ZM187.105 138.92L189.045 138.4C189.325 138.707 189.605 139.06 189.885 139.46C190.179 139.86 190.392 140.213 190.525 140.52L188.485 141.1C188.365 140.807 188.172 140.453 187.905 140.04C187.652 139.627 187.385 139.253 187.105 138.92ZM185.305 144.46L186.685 143.26C186.952 143.433 187.232 143.64 187.525 143.88C187.832 144.107 188.112 144.333 188.365 144.56C188.619 144.773 188.825 144.98 188.985 145.18L187.525 146.52C187.299 146.213 186.972 145.867 186.545 145.48C186.119 145.093 185.705 144.753 185.305 144.46ZM184.345 141.22H189.785V142.78H184.345V141.22ZM196.065 151.48H212.105V153.88H196.065V151.48ZM194.965 142.02H213.185V144.38H194.965V142.02ZM202.705 136.04H205.285V153.16H202.705V136.04ZM222.985 139.02C223.599 139.1 224.285 139.16 225.045 139.2C225.819 139.227 226.599 139.24 227.385 139.24C228.185 139.227 228.952 139.2 229.685 139.16C230.419 139.107 231.052 139.053 231.585 139V141.58C230.972 141.633 230.299 141.68 229.565 141.72C228.832 141.747 228.079 141.76 227.305 141.76C226.532 141.76 225.772 141.747 225.025 141.72C224.292 141.68 223.612 141.633 222.985 141.58V139.02ZM224.585 147.56C224.505 147.893 224.445 148.193 224.405 148.46C224.365 148.713 224.345 148.973 224.345 149.24C224.345 149.453 224.399 149.653 224.505 149.84C224.612 150.013 224.772 150.167 224.985 150.3C225.212 150.42 225.499 150.513 225.845 150.58C226.205 150.633 226.639 150.66 227.145 150.66C228.039 150.66 228.879 150.62 229.665 150.54C230.452 150.447 231.285 150.313 232.165 150.14L232.205 152.84C231.565 152.96 230.825 153.053 229.985 153.12C229.159 153.187 228.179 153.22 227.045 153.22C225.325 153.22 224.045 152.933 223.205 152.36C222.365 151.773 221.945 150.967 221.945 149.94C221.945 149.553 221.972 149.153 222.025 148.74C222.092 148.313 222.179 147.847 222.285 147.34L224.585 147.56ZM219.905 137.68C219.852 137.813 219.792 138 219.725 138.24C219.659 138.48 219.592 138.713 219.525 138.94C219.472 139.167 219.432 139.34 219.405 139.46C219.365 139.74 219.299 140.107 219.205 140.56C219.125 141 219.039 141.5 218.945 142.06C218.865 142.607 218.785 143.167 218.705 143.74C218.625 144.313 218.559 144.867 218.505 145.4C218.465 145.933 218.445 146.4 218.445 146.8V147.44C218.459 147.68 218.485 147.9 218.525 148.1C218.619 147.873 218.719 147.647 218.825 147.42C218.932 147.193 219.039 146.967 219.145 146.74C219.252 146.5 219.345 146.273 219.425 146.06L220.665 147.04C220.479 147.587 220.285 148.173 220.085 148.8C219.899 149.427 219.725 150.02 219.565 150.58C219.419 151.127 219.305 151.58 219.225 151.94C219.199 152.087 219.172 152.253 219.145 152.44C219.132 152.627 219.125 152.773 219.125 152.88V153.26C219.139 153.42 219.152 153.567 219.165 153.7L216.845 153.86C216.645 153.167 216.465 152.247 216.305 151.1C216.145 149.94 216.065 148.68 216.065 147.32C216.065 146.573 216.099 145.813 216.165 145.04C216.232 144.267 216.312 143.527 216.405 142.82C216.499 142.1 216.585 141.447 216.665 140.86C216.759 140.273 216.839 139.787 216.905 139.4C216.932 139.12 216.965 138.807 217.005 138.46C217.059 138.1 217.092 137.76 217.105 137.44L219.905 137.68ZM245.425 136.96C245.399 137.147 245.372 137.38 245.345 137.66C245.319 137.927 245.299 138.207 245.285 138.5C245.272 138.78 245.259 139.047 245.245 139.3C245.232 139.78 245.225 140.3 245.225 140.86C245.239 141.42 245.245 141.987 245.245 142.56C245.245 143.12 245.259 143.78 245.285 144.54C245.325 145.287 245.372 146.06 245.425 146.86C245.479 147.66 245.519 148.407 245.545 149.1C245.585 149.78 245.605 150.333 245.605 150.76C245.605 151.2 245.539 151.627 245.405 152.04C245.272 152.453 245.045 152.82 244.725 153.14C244.405 153.473 243.972 153.733 243.425 153.92C242.879 154.12 242.185 154.22 241.345 154.22C240.399 154.22 239.525 154.1 238.725 153.86C237.939 153.633 237.312 153.253 236.845 152.72C236.379 152.187 236.145 151.467 236.145 150.56C236.145 149.867 236.345 149.24 236.745 148.68C237.145 148.107 237.745 147.653 238.545 147.32C239.359 146.987 240.379 146.82 241.605 146.82C242.645 146.82 243.652 146.94 244.625 147.18C245.612 147.42 246.532 147.733 247.385 148.12C248.252 148.493 249.032 148.92 249.725 149.4C250.432 149.867 251.039 150.34 251.545 150.82L250.005 153.2C249.512 152.707 248.945 152.213 248.305 151.72C247.679 151.227 246.992 150.78 246.245 150.38C245.499 149.98 244.699 149.66 243.845 149.42C243.005 149.167 242.132 149.04 241.225 149.04C240.452 149.04 239.839 149.167 239.385 149.42C238.945 149.66 238.725 150 238.725 150.44C238.725 150.933 238.952 151.28 239.405 151.48C239.859 151.68 240.439 151.78 241.145 151.78C241.772 151.78 242.219 151.633 242.485 151.34C242.752 151.033 242.885 150.547 242.885 149.88C242.885 149.533 242.872 149.053 242.845 148.44C242.819 147.813 242.792 147.14 242.765 146.42C242.739 145.687 242.712 144.98 242.685 144.3C242.659 143.62 242.645 143.04 242.645 142.56V140.26C242.645 139.9 242.639 139.58 242.625 139.3C242.612 138.967 242.592 138.653 242.565 138.36C242.552 138.067 242.532 137.8 242.505 137.56C242.492 137.32 242.459 137.12 242.405 136.96H245.425ZM243.885 140.78H245.145C245.692 140.767 246.292 140.747 246.945 140.72C247.612 140.693 248.279 140.66 248.945 140.62C249.625 140.567 250.252 140.513 250.825 140.46L250.905 142.84C250.345 142.893 249.725 142.94 249.045 142.98C248.365 143.02 247.692 143.053 247.025 143.08C246.359 143.093 245.745 143.107 245.185 143.12C244.639 143.133 244.212 143.14 243.905 143.14L243.885 140.78ZM257.82 137.76C258.1 137.8 258.4 137.827 258.72 137.84C259.04 137.853 259.347 137.86 259.64 137.86H260.6C261.027 137.847 261.507 137.833 262.04 137.82C262.587 137.807 263.127 137.793 263.66 137.78C264.193 137.767 264.673 137.753 265.1 137.74C265.54 137.713 265.88 137.693 266.12 137.68C266.533 137.64 266.86 137.607 267.1 137.58C267.34 137.54 267.52 137.5 267.64 137.46L268.94 139.24C268.713 139.387 268.48 139.533 268.24 139.68C268 139.827 267.767 139.987 267.54 140.16C267.273 140.347 266.953 140.593 266.58 140.9C266.207 141.193 265.807 141.507 265.38 141.84C264.967 142.173 264.56 142.5 264.16 142.82C263.773 143.14 263.42 143.427 263.1 143.68C263.433 143.6 263.753 143.547 264.06 143.52C264.367 143.48 264.68 143.46 265 143.46C266.133 143.46 267.147 143.68 268.04 144.12C268.947 144.56 269.66 145.16 270.18 145.92C270.713 146.667 270.98 147.527 270.98 148.5C270.98 149.553 270.713 150.507 270.18 151.36C269.647 152.213 268.84 152.893 267.76 153.4C266.693 153.907 265.353 154.16 263.74 154.16C262.82 154.16 261.987 154.027 261.24 153.76C260.507 153.493 259.927 153.113 259.5 152.62C259.073 152.127 258.86 151.547 258.86 150.88C258.86 150.333 259.007 149.827 259.3 149.36C259.607 148.88 260.027 148.493 260.56 148.2C261.107 147.907 261.733 147.76 262.44 147.76C263.36 147.76 264.133 147.947 264.76 148.32C265.4 148.68 265.887 149.167 266.22 149.78C266.567 150.393 266.747 151.067 266.76 151.8L264.42 152.12C264.407 151.387 264.22 150.8 263.86 150.36C263.513 149.907 263.047 149.68 262.46 149.68C262.087 149.68 261.787 149.78 261.56 149.98C261.333 150.167 261.22 150.387 261.22 150.64C261.22 151.013 261.407 151.313 261.78 151.54C262.153 151.767 262.64 151.88 263.24 151.88C264.373 151.88 265.32 151.747 266.08 151.48C266.84 151.2 267.407 150.807 267.78 150.3C268.167 149.78 268.36 149.167 268.36 148.46C268.36 147.86 268.173 147.333 267.8 146.88C267.44 146.427 266.947 146.073 266.32 145.82C265.693 145.567 264.987 145.44 264.2 145.44C263.427 145.44 262.72 145.54 262.08 145.74C261.44 145.927 260.833 146.2 260.26 146.56C259.7 146.907 259.147 147.333 258.6 147.84C258.067 148.333 257.533 148.887 257 149.5L255.18 147.62C255.54 147.327 255.947 147 256.4 146.64C256.853 146.267 257.313 145.88 257.78 145.48C258.26 145.08 258.707 144.707 259.12 144.36C259.547 144 259.907 143.7 260.2 143.46C260.48 143.233 260.807 142.967 261.18 142.66C261.553 142.353 261.94 142.04 262.34 141.72C262.74 141.387 263.12 141.073 263.48 140.78C263.84 140.473 264.14 140.213 264.38 140C264.18 140 263.92 140.007 263.6 140.02C263.28 140.033 262.927 140.047 262.54 140.06C262.167 140.073 261.787 140.087 261.4 140.1C261.027 140.113 260.673 140.133 260.34 140.16C260.02 140.173 259.753 140.187 259.54 140.2C259.273 140.213 258.993 140.233 258.7 140.26C258.407 140.287 258.14 140.32 257.9 140.36L257.82 137.76ZM114.363 167.48C114.349 167.76 114.329 168.067 114.303 168.4C114.289 168.72 114.283 169.08 114.283 169.48V173.44C114.283 174.507 114.229 175.44 114.123 176.24C114.029 177.04 113.883 177.74 113.683 178.34C113.483 178.94 113.236 179.473 112.943 179.94C112.663 180.393 112.336 180.827 111.963 181.24C111.523 181.72 111.016 182.153 110.443 182.54C109.869 182.913 109.289 183.227 108.703 183.48C108.129 183.747 107.596 183.96 107.103 184.12L105.003 181.92C106.003 181.693 106.903 181.38 107.703 180.98C108.516 180.567 109.223 180.04 109.823 179.4C110.169 179.013 110.449 178.627 110.663 178.24C110.876 177.853 111.036 177.427 111.143 176.96C111.263 176.48 111.343 175.94 111.383 175.34C111.436 174.74 111.463 174.053 111.463 173.28V169.48C111.463 169.08 111.449 168.72 111.423 168.4C111.409 168.067 111.383 167.76 111.343 167.48H114.363ZM105.083 167.64C105.069 167.88 105.056 168.12 105.043 168.36C105.029 168.587 105.023 168.86 105.023 169.18V175.94C105.023 176.193 105.029 176.487 105.043 176.82C105.056 177.153 105.069 177.44 105.083 177.68H102.183C102.196 177.493 102.216 177.227 102.243 176.88C102.269 176.533 102.283 176.213 102.283 175.92V169.18C102.283 168.993 102.276 168.753 102.263 168.46C102.249 168.153 102.229 167.88 102.203 167.64H105.083ZM136.083 169.68C135.989 169.867 135.903 170.093 135.823 170.36C135.756 170.613 135.696 170.853 135.643 171.08C135.536 171.56 135.396 172.107 135.223 172.72C135.049 173.333 134.843 173.967 134.603 174.62C134.363 175.273 134.076 175.92 133.743 176.56C133.423 177.2 133.056 177.8 132.643 178.36C132.043 179.147 131.343 179.893 130.543 180.6C129.743 181.293 128.849 181.92 127.863 182.48C126.876 183.027 125.789 183.493 124.603 183.88L122.423 181.5C123.743 181.18 124.883 180.787 125.843 180.32C126.816 179.84 127.663 179.307 128.383 178.72C129.103 178.12 129.729 177.48 130.263 176.8C130.703 176.24 131.076 175.633 131.383 174.98C131.703 174.327 131.963 173.667 132.163 173C132.376 172.333 132.523 171.72 132.603 171.16H123.283C122.829 171.16 122.383 171.167 121.943 171.18C121.516 171.193 121.169 171.213 120.903 171.24V168.42C121.116 168.433 121.363 168.453 121.643 168.48C121.923 168.507 122.216 168.533 122.523 168.56C122.829 168.573 123.089 168.58 123.303 168.58H132.543C132.743 168.58 132.989 168.573 133.283 168.56C133.576 168.533 133.849 168.487 134.103 168.42L136.083 169.68ZM151.763 170.56C151.736 170.8 151.716 171.073 151.703 171.38C151.689 171.673 151.683 171.953 151.683 172.22C151.696 172.66 151.703 173.153 151.703 173.7C151.716 174.247 151.729 174.827 151.743 175.44C151.769 176.053 151.789 176.687 151.803 177.34C151.829 177.98 151.843 178.62 151.843 179.26C151.856 179.9 151.869 180.527 151.883 181.14C151.896 181.74 151.903 182.307 151.903 182.84C151.916 183.36 151.743 183.78 151.383 184.1C151.023 184.433 150.549 184.6 149.963 184.6C149.643 184.6 149.296 184.593 148.923 184.58C148.563 184.58 148.203 184.567 147.843 184.54C147.483 184.527 147.156 184.513 146.863 184.5L146.703 182.22C147.116 182.273 147.536 182.32 147.963 182.36C148.389 182.387 148.736 182.4 149.003 182.4C149.189 182.4 149.323 182.347 149.403 182.24C149.483 182.133 149.523 181.98 149.523 181.78C149.523 181.407 149.516 180.973 149.503 180.48C149.503 179.973 149.496 179.44 149.483 178.88C149.483 178.307 149.476 177.727 149.463 177.14C149.463 176.54 149.456 175.947 149.443 175.36C149.429 174.773 149.416 174.213 149.403 173.68C149.389 173.147 149.369 172.66 149.343 172.22C149.329 171.98 149.309 171.713 149.283 171.42C149.256 171.113 149.223 170.827 149.183 170.56H151.763ZM142.123 173.32C142.363 173.347 142.656 173.373 143.003 173.4C143.363 173.427 143.676 173.44 143.943 173.44H154.063C154.316 173.44 154.609 173.427 154.943 173.4C155.276 173.36 155.529 173.333 155.703 173.32V175.74C155.463 175.727 155.196 175.72 154.903 175.72C154.623 175.707 154.376 175.7 154.163 175.7H144.003C143.723 175.7 143.409 175.707 143.063 175.72C142.729 175.733 142.416 175.753 142.123 175.78V173.32ZM141.283 181.08C142.083 180.707 142.869 180.273 143.643 179.78C144.416 179.287 145.136 178.76 145.803 178.2C146.483 177.64 147.076 177.08 147.583 176.52C148.103 175.96 148.496 175.44 148.763 174.96L150.063 174.98L150.103 176.92C149.836 177.387 149.449 177.9 148.943 178.46C148.449 179.007 147.869 179.567 147.203 180.14C146.549 180.713 145.863 181.253 145.143 181.76C144.423 182.267 143.716 182.707 143.023 183.08L141.283 181.08ZM160.143 173.74C160.383 173.753 160.689 173.773 161.063 173.8C161.436 173.813 161.823 173.827 162.223 173.84C162.636 173.853 163.016 173.86 163.363 173.86H174.103C174.569 173.86 175.009 173.847 175.423 173.82C175.836 173.78 176.176 173.753 176.443 173.74V176.88C176.216 176.867 175.876 176.847 175.423 176.82C174.969 176.793 174.529 176.78 174.103 176.78H163.363C162.789 176.78 162.203 176.793 161.603 176.82C161.003 176.833 160.516 176.853 160.143 176.88V173.74ZM188.797 167.92C188.664 168.213 188.524 168.547 188.377 168.92C188.231 169.28 188.084 169.687 187.937 170.14C187.817 170.513 187.664 170.993 187.477 171.58C187.291 172.153 187.084 172.787 186.857 173.48C186.631 174.16 186.391 174.867 186.137 175.6C185.897 176.32 185.664 177.02 185.437 177.7C185.211 178.38 184.997 179 184.797 179.56C184.597 180.107 184.424 180.553 184.277 180.9L181.317 181C181.504 180.573 181.711 180.053 181.937 179.44C182.164 178.827 182.404 178.16 182.657 177.44C182.911 176.707 183.157 175.96 183.397 175.2C183.651 174.44 183.884 173.707 184.097 173C184.324 172.293 184.524 171.64 184.697 171.04C184.884 170.44 185.031 169.953 185.137 169.58C185.271 169.06 185.371 168.633 185.437 168.3C185.517 167.953 185.577 167.607 185.617 167.26L188.797 167.92ZM192.377 174.38C192.737 174.913 193.124 175.54 193.537 176.26C193.951 176.98 194.357 177.733 194.757 178.52C195.171 179.293 195.551 180.04 195.897 180.76C196.244 181.48 196.531 182.127 196.757 182.7L194.057 183.9C193.831 183.287 193.551 182.593 193.217 181.82C192.897 181.047 192.544 180.26 192.157 179.46C191.784 178.66 191.397 177.907 190.997 177.2C190.611 176.48 190.237 175.88 189.877 175.4L192.377 174.38ZM181.137 180.12C181.591 180.093 182.137 180.06 182.777 180.02C183.431 179.967 184.131 179.907 184.877 179.84C185.624 179.76 186.384 179.68 187.157 179.6C187.944 179.52 188.711 179.44 189.457 179.36C190.217 179.267 190.924 179.18 191.577 179.1C192.231 179.02 192.784 178.947 193.237 178.88L193.837 181.44C193.344 181.507 192.751 181.58 192.057 181.66C191.377 181.74 190.644 181.827 189.857 181.92C189.071 182 188.271 182.087 187.457 182.18C186.644 182.273 185.851 182.36 185.077 182.44C184.304 182.52 183.591 182.593 182.937 182.66C182.284 182.713 181.731 182.767 181.277 182.82C181.024 182.847 180.724 182.887 180.377 182.94C180.044 182.98 179.717 183.02 179.397 183.06L178.937 180.14H180.037C180.451 180.14 180.817 180.133 181.137 180.12ZM209.517 169.3C209.384 170.313 209.211 171.393 208.997 172.54C208.784 173.687 208.497 174.847 208.137 176.02C207.751 177.367 207.297 178.527 206.777 179.5C206.257 180.473 205.684 181.227 205.057 181.76C204.444 182.28 203.771 182.54 203.037 182.54C202.304 182.54 201.624 182.293 200.997 181.8C200.384 181.293 199.891 180.6 199.517 179.72C199.157 178.84 198.977 177.84 198.977 176.72C198.977 175.56 199.211 174.467 199.677 173.44C200.144 172.413 200.791 171.507 201.617 170.72C202.457 169.92 203.431 169.293 204.537 168.84C205.657 168.387 206.864 168.16 208.157 168.16C209.397 168.16 210.511 168.36 211.497 168.76C212.497 169.16 213.351 169.713 214.057 170.42C214.764 171.127 215.304 171.953 215.677 172.9C216.051 173.847 216.237 174.867 216.237 175.96C216.237 177.36 215.951 178.613 215.377 179.72C214.804 180.827 213.951 181.74 212.817 182.46C211.697 183.18 210.297 183.673 208.617 183.94L207.117 181.56C207.504 181.52 207.844 181.473 208.137 181.42C208.431 181.367 208.711 181.307 208.977 181.24C209.617 181.08 210.211 180.853 210.757 180.56C211.317 180.253 211.804 179.88 212.217 179.44C212.631 178.987 212.951 178.46 213.177 177.86C213.417 177.26 213.537 176.6 213.537 175.88C213.537 175.093 213.417 174.373 213.177 173.72C212.937 173.067 212.584 172.5 212.117 172.02C211.651 171.527 211.084 171.153 210.417 170.9C209.751 170.633 208.984 170.5 208.117 170.5C207.051 170.5 206.111 170.693 205.297 171.08C204.484 171.453 203.797 171.94 203.237 172.54C202.677 173.14 202.251 173.787 201.957 174.48C201.677 175.173 201.537 175.833 201.537 176.46C201.537 177.127 201.617 177.687 201.777 178.14C201.937 178.58 202.131 178.913 202.357 179.14C202.597 179.353 202.851 179.46 203.117 179.46C203.397 179.46 203.671 179.32 203.937 179.04C204.217 178.747 204.491 178.307 204.757 177.72C205.024 177.133 205.291 176.393 205.557 175.5C205.864 174.54 206.124 173.513 206.337 172.42C206.551 171.327 206.704 170.26 206.797 169.22L209.517 169.3ZM223.397 170.46V171.28H231.917V170.46H223.397ZM223.397 168.2V169H231.917V168.2H223.397ZM221.097 166.64H234.317V172.84H221.097V166.64ZM218.737 173.56H236.617V175.46H218.737V173.56ZM227.917 176.2H234.457V178.04H227.917V176.2ZM221.817 176.26H226.357V177.92H221.817V176.26ZM221.817 178.78H226.357V180.44H221.817V178.78ZM230.357 177.86C230.917 179.087 231.771 180.14 232.917 181.02C234.077 181.9 235.457 182.527 237.057 182.9C236.911 183.047 236.744 183.227 236.557 183.44C236.371 183.667 236.197 183.9 236.037 184.14C235.877 184.38 235.744 184.593 235.637 184.78C233.917 184.26 232.457 183.46 231.257 182.38C230.071 181.3 229.131 179.973 228.437 178.4L230.357 177.86ZM233.737 176.2H234.177L234.577 176.14L236.057 176.7C235.657 178.087 235.091 179.307 234.357 180.36C233.624 181.4 232.757 182.28 231.757 183C230.771 183.733 229.677 184.327 228.477 184.78C228.344 184.487 228.151 184.153 227.897 183.78C227.644 183.42 227.404 183.127 227.177 182.9C227.951 182.66 228.684 182.34 229.377 181.94C230.084 181.54 230.724 181.067 231.297 180.52C231.871 179.973 232.364 179.367 232.777 178.7C233.204 178.033 233.524 177.32 233.737 176.56V176.2ZM218.557 181.68C219.237 181.64 219.997 181.593 220.837 181.54C221.677 181.473 222.564 181.407 223.497 181.34C224.431 181.26 225.371 181.18 226.317 181.1V183.06C224.971 183.18 223.631 183.3 222.297 183.42C220.977 183.553 219.791 183.667 218.737 183.76L218.557 181.68ZM225.137 174.18H227.417V184.8H225.137V174.18ZM220.317 174.22H222.497V182.4H220.317V174.22ZM243.017 173.8V181.18H240.717V176.02H238.457V173.8H243.017ZM243.017 180.22C243.404 180.887 243.951 181.38 244.657 181.7C245.364 182.007 246.224 182.18 247.237 182.22C247.837 182.247 248.557 182.267 249.397 182.28C250.251 182.28 251.137 182.273 252.057 182.26C252.991 182.247 253.897 182.227 254.777 182.2C255.671 182.16 256.471 182.107 257.177 182.04C257.084 182.213 256.984 182.447 256.877 182.74C256.784 183.02 256.691 183.307 256.597 183.6C256.517 183.893 256.457 184.153 256.417 184.38C255.804 184.42 255.097 184.447 254.297 184.46C253.497 184.473 252.671 184.48 251.817 184.48C250.964 184.493 250.137 184.493 249.337 184.48C248.537 184.48 247.831 184.467 247.217 184.44C246.017 184.387 244.997 184.193 244.157 183.86C243.317 183.527 242.597 182.973 241.997 182.2C241.611 182.6 241.197 182.993 240.757 183.38C240.331 183.78 239.864 184.193 239.357 184.62L238.217 182.24C238.644 181.96 239.091 181.647 239.557 181.3C240.037 180.953 240.497 180.593 240.937 180.22H243.017ZM238.537 167.88L240.357 166.52C240.744 166.813 241.144 167.147 241.557 167.52C241.971 167.893 242.351 168.267 242.697 168.64C243.044 169.013 243.324 169.367 243.537 169.7L241.557 171.22C241.371 170.887 241.111 170.527 240.777 170.14C240.457 169.74 240.097 169.347 239.697 168.96C239.297 168.56 238.911 168.2 238.537 167.88ZM243.837 167.38H256.717V169.24H243.837V167.38ZM247.037 173.5H253.477V174.96H247.037V173.5ZM248.957 166H251.277V168.5H248.957V166ZM249.377 172.38H251.097V176.44H249.377V172.38ZM244.357 170.66H254.837V172.48H246.517V181.4H244.357V170.66ZM247.537 176.08H249.177V180.5H247.537V176.08ZM248.457 176.08H252.997V179.86H248.457V178.52H251.337V177.4H248.457V176.08ZM254.077 170.66H256.277V179.26C256.277 179.753 256.224 180.147 256.117 180.44C256.011 180.72 255.797 180.947 255.477 181.12C255.144 181.28 254.757 181.38 254.317 181.42C253.877 181.46 253.364 181.48 252.777 181.48C252.737 181.187 252.651 180.853 252.517 180.48C252.397 180.107 252.271 179.787 252.137 179.52C252.471 179.533 252.797 179.54 253.117 179.54H253.777C253.897 179.54 253.977 179.52 254.017 179.48C254.057 179.427 254.077 179.347 254.077 179.24V170.66ZM252.157 168.72L254.417 169.2C254.217 169.587 254.031 169.953 253.857 170.3C253.684 170.647 253.524 170.953 253.377 171.22L251.457 170.74C251.591 170.433 251.724 170.093 251.857 169.72C251.991 169.333 252.091 169 252.157 168.72ZM246.137 169.32L248.117 168.86C248.291 169.127 248.444 169.44 248.577 169.8C248.724 170.147 248.817 170.453 248.857 170.72L246.777 171.22C246.751 170.967 246.677 170.66 246.557 170.3C246.437 169.94 246.297 169.613 246.137 169.32ZM260.537 171.16H266.097V172.92H260.537V171.16ZM260.537 174.42H266.097V176.12H260.537V174.42ZM260.537 177.78H266.097V179.54H260.537V177.78ZM269.217 175.5H276.737V177.52H269.217V175.5ZM261.537 167.86H264.697V169.68H261.537V167.86ZM267.697 167.02H275.137V169H267.697V167.02ZM267.717 179.34H277.137V181.4H267.717V179.34ZM271.437 173.7H273.717V184.72H271.437V173.7ZM262.717 172.08H264.297V178.44H262.717V172.08ZM274.497 167.02H276.617C276.617 167.02 276.611 167.12 276.597 167.32C276.597 167.507 276.591 167.667 276.577 167.8C276.551 168.853 276.511 169.727 276.457 170.42C276.404 171.113 276.331 171.66 276.237 172.06C276.144 172.46 276.024 172.747 275.877 172.92C275.717 173.12 275.537 173.267 275.337 173.36C275.137 173.453 274.911 173.527 274.657 173.58C274.431 173.607 274.137 173.627 273.777 173.64C273.417 173.64 273.031 173.633 272.617 173.62C272.604 173.313 272.551 172.98 272.457 172.62C272.364 172.247 272.237 171.933 272.077 171.68C272.397 171.707 272.684 171.727 272.937 171.74C273.191 171.753 273.384 171.76 273.517 171.76C273.637 171.76 273.737 171.753 273.817 171.74C273.911 171.713 273.991 171.653 274.057 171.56C274.137 171.467 274.204 171.273 274.257 170.98C274.311 170.673 274.357 170.227 274.397 169.64C274.437 169.053 274.471 168.28 274.497 167.32V167.02ZM268.797 173.84L270.757 174.24C270.584 175.147 270.337 176.033 270.017 176.9C269.711 177.767 269.364 178.493 268.977 179.08C268.844 178.987 268.671 178.88 268.457 178.76C268.244 178.64 268.024 178.527 267.797 178.42C267.571 178.313 267.377 178.227 267.217 178.16C267.604 177.627 267.931 176.973 268.197 176.2C268.464 175.427 268.664 174.64 268.797 173.84ZM261.057 165.98L263.197 166.46C262.944 167.367 262.644 168.26 262.297 169.14C261.951 170.02 261.564 170.84 261.137 171.6C260.724 172.36 260.277 173.027 259.797 173.6C259.677 173.48 259.511 173.333 259.297 173.16C259.084 172.973 258.871 172.793 258.657 172.62C258.444 172.433 258.251 172.293 258.077 172.2C258.757 171.453 259.357 170.533 259.877 169.44C260.397 168.333 260.791 167.18 261.057 165.98ZM259.657 171.16H261.577V176.46C261.577 177.1 261.551 177.787 261.497 178.52C261.457 179.253 261.377 180 261.257 180.76C261.151 181.507 260.984 182.233 260.757 182.94C260.531 183.633 260.231 184.267 259.857 184.84C259.751 184.72 259.591 184.587 259.377 184.44C259.177 184.307 258.964 184.173 258.737 184.04C258.524 183.92 258.337 183.827 258.177 183.76C258.631 183.067 258.964 182.3 259.177 181.46C259.391 180.607 259.524 179.747 259.577 178.88C259.631 178 259.657 177.187 259.657 176.44V171.16ZM265.437 171.16H267.417V182.48C267.417 182.96 267.364 183.353 267.257 183.66C267.151 183.967 266.944 184.207 266.637 184.38C266.331 184.553 265.964 184.66 265.537 184.7C265.111 184.753 264.584 184.78 263.957 184.78C263.931 184.487 263.844 184.14 263.697 183.74C263.564 183.34 263.424 183.007 263.277 182.74C263.677 182.753 264.051 182.767 264.397 182.78H265.117C265.237 182.78 265.317 182.76 265.357 182.72C265.411 182.667 265.437 182.573 265.437 182.44V171.16ZM270.117 167.68H272.257C272.177 168.653 272.017 169.553 271.777 170.38C271.551 171.193 271.171 171.92 270.637 172.56C270.104 173.2 269.344 173.74 268.357 174.18C268.237 173.927 268.051 173.633 267.797 173.3C267.557 172.967 267.324 172.713 267.097 172.54C267.897 172.207 268.497 171.8 268.897 171.32C269.311 170.84 269.597 170.293 269.757 169.68C269.931 169.067 270.051 168.4 270.117 167.68ZM264.117 167.86H264.577L264.877 167.78L266.257 168.62C266.031 169.26 265.744 169.94 265.397 170.66C265.051 171.367 264.724 171.973 264.417 172.48C264.217 172.333 263.971 172.173 263.677 172C263.397 171.827 263.151 171.687 262.937 171.58C263.097 171.26 263.251 170.907 263.397 170.52C263.557 170.12 263.697 169.72 263.817 169.32C263.951 168.907 264.051 168.547 264.117 168.24V167.86Z" fill="#474747"/>
<path d="M83.9796 225.118C83.5719 225.162 83.359 225.275 83.0448 225.315L79.5699 225.748C78.6967 227.044 77.5649 228.048 76.1388 228.617C73.8872 229.513 71.5401 228.796 70.1776 226.768L66.3845 227.217C60.4969 227.913 54.5616 227.728 49.0201 225.442C48.1171 227.124 46.5239 228.245 44.6164 228.191C42.7506 228.138 41.1375 227.233 39.9043 225.868C38.7089 224.566 37.593 222.477 36.9506 220.813C35.3275 219.259 34.2097 216.935 34.9337 214.709C33.3285 213.099 32.2326 211.173 31.614 208.992C30.0784 203.502 31.5026 196.736 34.9993 192.156C34.8661 189.56 35.0371 187.04 35.3474 184.45C35.4667 183.452 35.5801 182.514 35.9541 181.603C36.4275 180.28 37.7064 179.588 39.0868 179.88C40.0813 180.069 40.9605 180.476 41.8874 180.896C43.7849 181.725 45.5811 182.681 47.3016 183.909C53.2727 181.615 59.6098 180.745 65.9588 181.389C67.3233 179.729 68.8171 178.312 70.4521 176.99C71.2239 176.344 71.9618 175.732 72.8569 175.308C74.112 174.678 75.4963 175.036 76.3039 176.179C76.9165 176.996 77.2904 177.912 77.6763 178.882C78.647 181.238 79.4406 183.583 79.9995 186.068C81.8295 187.533 83.373 189.21 84.6459 191.204C87.8642 188.546 92.0114 187.509 96.0969 188.33C98.7423 188.853 101.145 190.053 103.076 191.916C103.285 192.116 103.313 192.399 103.255 192.645C103.114 193.245 101.664 193.355 100.988 193.73C102.416 194.792 103.584 196.094 104.226 197.728C104.322 197.97 104.125 198.244 104.009 198.37C103.866 198.525 103.57 198.533 103.295 198.586C104.373 199.9 104.926 201.534 104.721 203.216C104.67 203.635 104.409 203.929 103.979 203.929C103.759 203.929 103.564 203.884 103.339 203.909C103.347 205.168 103.118 206.354 102.565 207.473C102.366 207.877 101.945 207.978 101.493 207.803C101.31 208.487 101.075 209.089 100.694 209.727L104.707 210.799C105.427 210.992 106.068 211.272 106.663 211.695C107.888 212.568 108.312 214.027 107.773 215.446C106.744 218.151 102.929 219.481 100.264 219.924C100.234 220.34 100.109 220.612 99.7329 220.781C94.7404 223.031 89.4754 224.534 83.9836 225.12L83.9796 225.118Z" fill="#601818"/>
<path d="M84.9165 223.576C86.4779 221.564 87.7628 219.511 88.5405 217.092C90.0323 212.596 89.6783 207.763 87.548 203.538C87.7569 202.335 87.725 201.232 87.7071 200.043C92.3217 201.876 96.1407 205.054 98.7822 209.161C98.627 212.665 98.623 216.106 98.8001 219.658C94.4381 221.566 89.913 222.946 84.9165 223.576Z" fill="#F29800"/>
<path d="M103.341 202.277C102.951 202.355 102.808 201.53 102.054 201.854C101.841 201.945 101.609 202.24 101.682 202.572C101.897 203.546 102.028 204.514 101.738 205.559C101.356 205.271 101.235 204.432 100.453 204.71C100.161 204.814 99.9339 205.16 100.039 205.543C100.248 206.428 100.27 207.356 99.8463 208.225C96.8588 203.687 92.5784 200.3 87.4725 198.465C87.0747 196.328 86.3427 194.366 85.3462 192.452C86.9951 191.051 88.8787 190.121 90.9991 189.691C94.5654 189.031 98.2253 189.88 101.169 192.11C100.407 192.47 99.6335 192.613 98.8856 192.921C98.6151 193.033 98.5077 193.311 98.5097 193.555C98.5117 193.842 98.6847 194.064 98.9771 194.205C100.288 194.831 101.416 195.758 102.221 196.976C101.438 197.085 100.405 196.511 100.069 197.304C99.9776 197.519 99.9935 197.994 100.324 198.135C102.012 198.863 103.23 200.405 103.343 202.281L103.341 202.277Z" fill="#FFDA8F"/>
<path d="M81.6264 221.441L81.6105 220.797L82.8795 218.209C83.2913 217.179 83.5061 216.11 83.4166 215.001C83.339 213.959 82.9352 213.023 82.2391 212.248C84.3654 210.503 85.9646 208.429 86.9989 205.796C88.5324 209.773 88.3474 214.053 86.7562 217.879C85.7657 220.199 84.3713 222.218 82.5752 223.971L80.4648 224.2L81.6304 221.439L81.6264 221.441Z" fill="#6EB82B"/>
<path d="M106.372 214.999C105.626 215.072 104.001 214.227 103.894 215.11C103.862 215.368 104.019 215.615 104.311 215.671L105.787 215.953C104.675 217.275 101.887 218.268 100.148 218.497L100.106 211.061L104.383 212.176C105.053 212.351 105.656 212.639 106.147 213.116C105.572 213.259 104.371 212.661 104.232 213.393C104.18 213.663 104.325 213.957 104.661 213.999L106.543 214.225C106.599 214.442 106.551 214.838 106.37 214.999H106.372Z" fill="#FFDA8F"/>
<path d="M79.8265 221.017C77.1831 222.196 74.1677 221.369 72.479 219.024C72.7953 216.638 75.4487 212.929 78.0105 212.464C77.7898 213.168 76.481 214.402 77.1692 214.82C77.384 214.949 77.7003 214.933 77.8474 214.693L79.2716 212.383C79.8663 212.434 80.4113 212.607 80.8708 212.961C80.4829 213.951 79.8544 214.752 79.0807 215.45C78.8778 215.635 78.8996 215.955 79.0687 216.148C79.7331 216.909 81.3342 214.335 81.6008 213.808C81.8713 214.14 81.915 214.504 82.0006 214.885C82.3009 217.012 80.8986 219.129 79.8265 221.015V221.017Z" fill="#FFDA8F"/>
<path d="M68.9345 223.804C66.1717 224.85 63.6277 222.92 61.5333 221.415C61.7481 220.68 61.6506 220.018 61.2866 219.356C62.0206 218.39 62.7585 217.505 63.6914 216.762C64.8828 215.816 66.3229 215.311 67.8306 215.506C69.1115 215.67 70.1001 216.547 70.3666 217.797C69.5412 219.678 68.5824 221.604 68.9345 223.804Z" fill="#F29800"/>
<path d="M56.9325 221.479C54.842 223.031 52.3935 225.015 49.5949 224.031C50.4422 221.393 49.5054 219.521 48.3159 217.237C48.7456 216.36 49.573 215.855 50.5377 215.708C53.4039 215.273 55.5262 217.348 57.1373 219.415C56.7654 220.085 56.7097 220.741 56.9325 221.479Z" fill="#F29800"/>
<path d="M36.1925 215.559C36.7375 216.066 38.9812 217.962 39.3392 216.994C39.4386 216.728 39.3491 216.458 39.0528 216.327C38.1358 215.919 37.3402 215.347 36.654 214.548C36.9563 214.043 37.4496 213.705 38.0165 213.5L39.9836 215.209C40.1925 215.39 40.4849 215.398 40.6699 215.245C40.8548 215.092 40.9304 214.746 40.7275 214.561L39.2258 213.178C41.8056 212.912 45.0776 215.349 46.3566 217.46C45.0279 220.393 41.6982 221.745 38.6828 220.588C37.376 219.344 35.7748 217.577 36.1885 215.561L36.1925 215.559Z" fill="#FFDA8F"/>
<path d="M43.8926 226.702C42.6415 226.426 41.6549 225.74 40.8514 224.822C40.1811 224.027 39.6361 223.184 39.1587 222.204C42.4605 222.951 45.6648 221.544 47.3893 218.571C47.9244 219.523 48.4057 220.534 48.4972 221.652C48.6106 223.045 48.1153 224.444 47.272 225.518C46.4286 226.591 45.2153 226.996 43.8906 226.702H43.8926Z" fill="white"/>
<path d="M77.9885 225.522C76.4768 227.41 73.718 228.539 71.7827 226.525C70.8319 225.482 70.2869 224.126 70.2432 222.693C70.3347 221.594 70.6569 220.59 71.1422 219.566C73.0437 222.409 76.3973 223.605 79.6215 222.602C79.1899 223.691 78.6668 224.631 77.9905 225.522H77.9885Z" fill="white"/>
<path d="M62.3347 223.713L59.4704 225.458L56.5386 223.514L57.7698 222.618C58.6927 223.262 59.8305 223.24 60.7275 222.576L62.3347 223.711V223.713Z" fill="white"/>
<path d="M66.7505 225.458C66.9793 225.48 67.0767 225.543 67.0449 225.649C64.9763 226.06 62.9713 226.358 60.8013 226.315L63.757 224.532C64.7456 225.033 65.7202 225.394 66.7505 225.46V225.458Z" fill="#6EB72B"/>
<path d="M57.9666 226.186C56.3495 226.088 54.8359 225.786 53.2466 225.371C53.9547 225.015 54.5773 224.796 55.2277 224.377L57.9666 226.188V226.186Z" fill="#6EB72B"/>
<path d="M58.9374 219.682C59.5262 219.507 60.0652 219.871 60.2104 220.391C60.3556 220.912 60.0553 221.495 59.4765 221.654C58.9991 221.785 58.4541 221.516 58.2651 221.024C58.0662 220.503 58.3169 219.869 58.9374 219.684V219.682Z" fill="#6EB72B"/>
<path d="M53.4715 214.488L53.382 214.585C53.1553 214.458 52.8688 214.575 52.7236 214.398C52.8231 214.383 52.9285 214.371 53.0081 214.303C53.2149 214.094 53.4397 214.194 53.4735 214.488H53.4715Z" fill="#E5BB7C"/>
<path d="M67.0449 225.647L66.7505 225.456C67.0469 225.47 67.2577 225.406 67.5342 225.488C67.375 225.589 67.202 225.587 67.0449 225.647Z" fill="#677322"/>
<path d="M44.1431 213.341C41.9691 211.916 39.6877 211.216 37.273 212.274C35.4271 209.964 35.634 206.68 37.9174 204.778C40.175 202.898 43.5941 203.257 45.4061 205.557C47.2182 207.857 46.7925 211.322 44.346 213.077C44.2286 213.162 44.1451 213.226 44.1431 213.341Z" fill="#F77272"/>
<path d="M54.2571 214.975C54.1437 214.83 54.1935 214.78 54.3605 214.854L54.7166 214.754C58.7205 215.512 65.0815 214.991 68.2262 212.194C71.3709 209.397 70.432 205.73 67.9915 202.536C62.8438 195.802 54.7066 196.722 51.198 204.438C49.5988 207.956 49.2348 211.866 52.9344 214.017L53.004 214.303C53.0378 214.482 52.8668 214.452 52.7196 214.399C50.5117 214.009 48.5605 214.373 47.2298 216.243C46.3526 215.001 45.3044 214.102 44.1408 213.339C44.0573 213.291 43.9678 213.176 44.0135 213.13C47.8404 210.544 46.7306 204.53 42.0464 203.816C37.4695 203.12 34.5576 208.284 37.2567 211.936L37.2726 212.27C36.6421 212.564 36.1508 212.961 35.6774 213.44C34.3407 212.021 33.4616 210.359 32.9464 208.513C32.4034 206.547 32.3179 204.601 32.5048 202.56C32.843 198.871 34.1757 195.491 36.4352 192.572C36.286 189.924 36.4093 187.419 36.7236 184.837C36.835 183.925 36.9146 183.038 37.2268 182.2C37.7858 180.286 40.3317 181.75 41.6605 182.341C43.4685 183.144 45.1513 184.078 46.7445 185.249C46.9752 185.418 47.2378 185.45 47.5202 185.338C53.4456 182.993 59.8145 182.136 66.1616 182.828C66.4281 182.858 66.6608 182.762 66.806 182.579C68.1148 180.92 69.6006 179.496 71.2396 178.161C72.2998 177.296 74.2013 175.449 75.2097 177.071C75.7289 177.787 76.0312 178.594 76.3753 179.431C77.3738 181.86 78.1774 184.285 78.7323 186.871C81.6264 189.041 83.7766 191.866 85.0754 195.217C85.7736 197.02 86.241 198.807 86.3146 200.753C86.5036 205.187 84.4608 208.712 81.0436 211.413C78.5891 210.371 76.2798 211.198 74.4042 212.951C73.4693 213.826 72.7751 214.842 72.0989 215.917C71.9537 216.148 71.5061 216.142 71.2436 216.213C69.4534 213.293 65.5271 213.631 63.0189 215.516C62.0064 216.275 61.1989 217.179 60.4232 218.177C60.0433 218.664 59.4744 217.907 58.1875 218.451C57.0438 217.082 55.8324 215.748 54.2591 214.975H54.2571Z" fill="#FFDA8F"/>
<path d="M77.0595 199.383C80.0133 199.008 82.5632 201.097 82.9332 203.905C83.3131 206.78 81.2644 209.415 78.422 209.795C75.5598 210.177 72.9323 208.175 72.5265 205.344C72.1207 202.514 74.07 199.763 77.0595 199.383Z" fill="#F77272"/>
<path d="M74.7245 198.435C73.9747 200.403 68.5167 200.343 68.2124 198.445C68.1309 197.942 68.5048 197.479 68.9663 197.227C71.6117 195.778 75.2954 196.938 74.7226 198.435H74.7245Z" fill="#601818"/>
<path d="M50.0149 201.959C48.6246 203.806 44.366 204.039 43.7972 202.532C43.1786 200.896 47.5047 199.214 49.6867 200.457C50.2636 200.785 50.4048 201.443 50.0149 201.961V201.959Z" fill="#601818"/>
<path d="M71.5022 191.162C69.8552 192.635 66.9413 192.2 66.6946 190.757C66.6111 190.274 66.81 189.791 67.2118 189.455C68.8309 188.103 71.6792 188.471 71.9477 189.908C72.0273 190.333 71.894 190.81 71.5022 191.162Z" fill="#601818"/>
<path d="M71.1224 189.969C71.4367 190.715 69.5172 191.703 67.9081 191.057C67.6714 190.961 67.5182 190.776 67.4944 190.598C67.3969 189.848 69.2765 189.021 70.7365 189.63C70.9354 189.713 71.0707 189.852 71.1204 189.969H71.1224Z" fill="#FFFEFE"/>
<path d="M43.8863 186.493C42.7525 187.859 40.9485 189.506 39.224 190.015C38.9415 190.099 38.6193 189.946 38.5716 189.63C38.2991 187.874 38.3428 186.058 38.8997 184.362C39.0131 184.02 39.5442 184.181 39.769 184.241C41.1514 184.607 42.4422 184.972 43.6536 185.712C43.9082 185.867 44.125 186.203 43.8863 186.491V186.493Z" fill="#601818"/>
<path d="M42.705 186.33C41.7681 187.338 40.7935 188.214 39.5006 188.864C39.2858 187.678 39.4211 186.501 39.6578 185.267C40.7358 185.507 41.7323 185.817 42.705 186.33Z" fill="#F77272"/>
<path d="M74.9614 185.183C73.1255 185.113 71.1683 184.088 69.6566 183.09C69.3881 182.913 69.3165 182.599 69.4975 182.325C70.5278 181.164 71.8823 180.365 73.2389 179.596C73.4775 179.46 73.7858 179.532 73.931 179.776C74.8122 181.265 75.3592 182.897 75.5342 184.632C75.57 184.984 75.2796 185.193 74.9614 185.181V185.183Z" fill="#601818"/>
<path d="M74.4639 184.148C73.1114 183.907 71.8861 183.321 70.6768 182.552C71.4923 181.754 72.3814 181.248 73.3162 180.713C73.8851 181.802 74.271 182.876 74.4639 184.148Z" fill="#F77272"/>
<path d="M47.9461 194.336C46.3151 195.815 43.3395 195.392 43.1247 193.903C43.059 193.45 43.238 192.989 43.612 192.669C45.247 191.263 48.0714 191.669 48.3757 193.04C48.4752 193.486 48.3479 193.971 47.9461 194.334V194.336Z" fill="#601818"/>
<path d="M47.5762 193.196C47.7751 193.973 45.8139 194.895 44.3082 194.219C44.1073 194.13 43.972 193.965 43.9442 193.832C43.8984 193.621 43.9839 193.388 44.1789 193.235C45.4817 192.21 47.427 192.605 47.5781 193.196H47.5762Z" fill="#FFFEFE"/>
<path d="M54.3608 214.854C54.323 214.891 54.2892 214.933 54.2573 214.975C53.9311 214.814 53.6427 214.73 53.3822 214.585C53.2509 214.464 53.3006 214.46 53.4717 214.488C53.6606 214.255 54.4344 214.532 54.3608 214.854Z" fill="#D4A66F"/>
<path d="M54.3606 214.854C54.0562 214.667 53.742 214.621 53.4715 214.488C53.3024 214.404 53.1174 214.371 53.006 214.303C52.5824 213.987 52.1786 213.76 51.7867 213.42C50.4083 212.228 49.6823 210.53 49.8673 208.646C50.1597 205.672 51.4586 202.84 53.4814 200.681C56.5605 197.394 61.4058 196.893 65.0974 199.485C67.355 201.071 69.1253 203.353 70.1138 205.951C71.532 209.682 68.7911 212.898 65.3023 214.09C62.2491 215.134 57.4436 215.774 54.3606 214.852V214.854Z" fill="#601818"/>
<path d="M65.0498 213.126C62.2432 214.076 59.3332 214.452 56.4272 214.241C53.5212 214.031 50.4879 211.999 50.8579 208.662C51.1622 205.921 52.3557 203.325 54.2353 201.331C56.9006 198.505 61.0717 198.008 64.3198 200.166C66.5336 201.637 68.2342 203.83 69.187 206.314C70.3824 209.429 67.9379 212.148 65.0478 213.126H65.0498Z" fill="white"/>
<path d="M59.3911 213.271C56.8172 212.248 55.5084 207.732 55.582 205.146C55.3036 204.828 54.4861 204.017 55.1126 203.659C55.3573 203.518 55.6696 203.581 55.8327 203.868C56.1907 204.498 56.9008 204.85 57.6467 204.597C58.0405 204.464 58.6233 203.711 58.3727 203.337C58.0325 202.955 56.6442 202.238 57.0838 201.536C57.4796 200.908 58.6412 202.001 58.9654 201.967C59.3294 201.93 60.0733 200.556 60.6839 201.051C61.2946 201.546 60.135 202.816 59.7232 203.247C59.9639 203.742 60.4592 204.146 61.038 204.16C61.77 204.178 62.3766 203.611 62.5437 202.935C62.6173 202.635 62.844 202.542 63.0807 202.56C63.3612 202.582 63.5462 202.818 63.5024 203.132C63.4268 203.661 63.1285 204.049 62.8003 204.47C63.4905 206.684 63.9082 210.801 62.2951 212.596C61.5452 213.43 60.4433 213.689 59.3911 213.271Z" fill="#601818"/>
<path d="M60.67 212.441C58.2036 212.9 56.5785 207.757 56.6123 205.933C57.7242 205.869 58.6312 205.362 59.1762 204.464C59.9977 205.12 60.9425 205.38 61.9688 205.171C62.4741 206.787 63.0469 211.997 60.672 212.439L60.67 212.441Z" fill="#F77272"/>
<path d="M326.584 72.0371C326.354 72.6373 326.17 73.2069 325.92 73.7457C325.183 75.3369 323.907 76.1267 322.175 76.173C320.847 76.208 319.64 75.8114 318.528 75.0976C317.509 74.4431 316.666 73.595 315.885 72.6803C315.479 72.2058 315.085 71.7224 314.675 71.2306C313.534 71.6129 312.551 71.3729 311.728 70.444C311.495 70.532 311.257 70.6227 311.019 70.7127C309.896 71.1376 308.772 71.5557 307.584 71.7666C306.407 71.9753 305.239 71.9769 304.089 71.6167C303.286 71.3652 302.555 70.9852 301.935 70.4031C301.03 69.5537 300.644 68.4994 300.689 67.2711C300.711 66.6725 300.811 66.0851 300.962 65.506C300.994 65.3817 301.028 65.258 301.067 65.1116C300.807 64.9645 300.559 64.8265 300.312 64.6862C298.198 63.483 296.213 62.1012 294.449 60.4146C293.209 59.2302 292.123 57.9211 291.253 56.4399C290.011 54.3272 289.336 52.0472 289.311 49.5856C289.3 48.4794 289.425 47.386 289.657 46.3022C290.072 44.3601 290.813 42.5481 291.784 40.8229C292.502 39.5468 293.315 38.3375 294.273 37.2314C295.51 35.8049 296.918 34.5714 298.488 33.5261C298.719 33.3724 298.952 33.2203 299.191 33.0792C299.321 33.0032 299.39 32.897 299.444 32.7629C299.741 32.0149 300.019 31.2581 300.351 30.5263C300.81 29.5139 301.288 28.5084 301.8 27.5213C302.28 26.5961 302.803 25.6936 303.328 24.7927C303.694 24.1651 304.115 23.5727 304.668 23.0911C305.43 22.4276 306.299 22.2062 307.27 22.5046C307.807 22.6693 308.281 22.967 308.689 23.3484C309.253 23.8753 309.806 24.4171 310.337 24.9767C311.403 26.098 312.416 27.268 313.303 28.5391C313.61 28.9785 313.9 29.4291 314.198 29.8743C314.226 29.915 314.256 29.9545 314.301 30.0167C320.913 30.2185 327.149 31.8876 332.993 35.0359C333.282 34.8925 333.565 34.7527 333.848 34.6109C335.146 33.9604 336.491 33.4272 337.873 32.9908C338.751 32.7132 339.635 32.4493 340.524 32.2078C341.126 32.0441 341.743 31.9436 342.373 31.9939C343.533 32.0864 344.336 32.665 344.757 33.7569C344.999 34.3855 345.069 35.0476 345.095 35.7141C345.154 37.1835 345.091 38.6521 345.018 40.1196C344.935 41.778 344.732 43.4233 344.451 45.0533C344.704 45.5665 344.965 46.0679 345.199 46.5813C346.294 48.9817 346.919 51.4993 347.044 54.1404C347.113 55.5915 347.068 57.0383 346.864 58.4773C346.644 60.0212 346.246 61.5177 345.614 62.9449C344.546 65.3555 342.937 67.3169 340.751 68.7975C339.207 69.8437 337.521 70.5731 335.736 71.0795C333.503 71.7135 331.218 71.9907 328.903 72.0342C328.201 72.0477 327.499 72.0313 326.797 72.0292C326.719 72.0288 326.641 72.0351 326.584 72.0371Z" fill="#621B1A"/>
<path d="M315.206 64.247C313.886 63.8341 312.594 63.4525 311.385 62.8431C311.282 62.7915 311.183 62.7178 311.108 62.631C310.428 61.8395 309.644 61.1836 308.692 60.7445C308.477 60.6453 308.322 60.4939 308.189 60.3024C307.636 59.5058 307.251 58.6469 307.195 57.6614C307.149 56.8605 307.302 56.0978 307.64 55.374C308.23 54.1152 309.079 53.0447 310.057 52.0739C311.138 51.0023 312.348 50.1122 313.737 49.4788C314.898 48.9491 316.11 48.6324 317.39 48.6674C319.974 48.7376 322.067 49.8069 323.645 51.8573C324.761 53.3072 325.408 54.9731 325.808 56.7472C325.993 57.5727 326.107 58.4073 326.139 59.2528C326.171 60.1143 326.091 60.9574 325.758 61.7658C325.403 62.6298 324.827 63.3086 324.056 63.8223C323.785 64.003 323.486 64.141 323.203 64.305C323.047 64.3949 322.888 64.4048 322.716 64.3747C321.454 64.1573 320.231 64.3202 319.04 64.7681C318.822 64.8501 318.615 64.9028 318.378 64.8584C317.94 64.7764 317.495 64.7319 317.059 64.6465C316.427 64.5223 315.8 64.3765 315.206 64.247Z" fill="#FDFDFD"/>
<path d="M312.005 67.0755C311.437 67.6243 311.199 68.2842 311.213 69.0731C310.991 69.1657 310.76 69.2757 310.521 69.3597C309.794 69.6142 309.068 69.8755 308.333 70.1031C307.509 70.3582 306.661 70.5019 305.796 70.4537C305.155 70.4186 304.537 70.2807 303.946 70.0091C303.424 69.7698 302.973 69.4624 302.616 69.0062C302.233 68.5181 302.119 67.9558 302.134 67.3617C302.143 67.0284 302.199 66.6928 302.266 66.3648C302.378 65.8213 302.488 65.2741 302.654 64.7455C302.912 63.9233 303.234 63.124 303.838 62.4804C304.531 61.7414 305.394 61.454 306.386 61.5579C307.961 61.7229 309.174 62.5319 310.143 63.7417C310.779 64.5344 311.258 65.4248 311.667 66.3538C311.77 66.5893 311.884 66.82 312.004 67.0765L312.005 67.0755Z" fill="#F09700"/>
<path d="M315.79 70.2921C316.197 69.6348 316.312 68.9522 316.108 68.1974C316.182 68.1314 316.258 68.0559 316.342 67.9923C317.053 67.451 317.798 66.9615 318.587 66.5451C319.609 66.006 320.688 65.6826 321.854 65.7305C322.756 65.767 323.603 65.986 324.35 66.5242C324.867 66.8963 325.222 67.3871 325.407 67.9893C325.574 68.5322 325.597 69.0914 325.545 69.661C325.456 70.6489 325.155 71.5851 324.876 72.5252C324.745 72.9678 324.526 73.3845 324.244 73.7583C323.854 74.2745 323.325 74.5633 322.701 74.6736C321.988 74.7997 321.282 74.7256 320.599 74.503C319.929 74.2852 319.327 73.9334 318.769 73.5009C317.864 72.7992 317.133 71.9295 316.405 71.0558C316.203 70.8139 316.01 70.5648 315.79 70.2921Z" fill="#F09700"/>
<path d="M312.694 68.6115C312.826 68.075 313.421 67.698 313.986 67.8673C314.573 68.0432 314.888 68.5602 314.734 69.1884C314.599 69.7419 314.006 70.0941 313.408 69.9222C312.844 69.7598 312.524 69.1403 312.694 68.6115Z" fill="#6DB42A"/>
<path d="M326.911 70.6016C326.948 70.0941 327.005 69.6411 327.009 69.1873C327.028 67.2674 326.224 65.826 324.508 64.9289C324.482 64.9152 324.456 64.9003 324.407 64.8729C324.46 64.8227 324.499 64.7721 324.55 64.7383C325.408 64.1659 326.094 63.4386 326.553 62.506C326.837 61.9293 327.015 61.3187 327.098 60.6857C327.294 59.1771 327.095 57.6973 326.746 56.2308C326.527 55.3117 326.229 54.4191 325.843 53.5567C325.045 51.7718 323.907 50.2596 322.284 49.15C321.639 48.7081 320.936 48.3739 320.191 48.1169C319.341 47.8235 318.469 47.6642 317.576 47.6326C316.733 47.6032 315.899 47.7024 315.079 47.9135C313.808 48.2404 312.642 48.7933 311.552 49.5229C310.372 50.3125 309.333 51.2555 308.411 52.333C307.829 53.014 307.312 53.7431 306.899 54.5373C306.212 55.8584 305.946 57.2512 306.323 58.7171C306.431 59.1367 306.62 59.5351 306.771 59.9429C306.792 59.9972 306.817 60.0498 306.851 60.1275C306.554 60.1159 306.28 60.0938 306.006 60.0969C304.606 60.1105 303.457 60.6538 302.564 61.7459C302.119 62.291 301.808 62.9073 301.546 63.5537C301.536 63.5804 301.517 63.6033 301.484 63.6575C301.345 63.5911 301.202 63.5337 301.07 63.458C299.343 62.4664 297.69 61.3676 296.191 60.0506C294.922 58.9348 293.786 57.699 292.857 56.2765C291.924 54.8472 291.269 53.3068 290.954 51.626C290.738 50.4698 290.709 49.3049 290.824 48.133C290.93 47.0592 291.172 46.016 291.5 44.9923C291.726 44.284 292.008 43.5963 292.324 42.9207C292.888 41.7134 293.565 40.574 294.334 39.4901C295.275 38.1636 296.387 36.9943 297.638 35.9579C298.465 35.2722 299.344 34.6603 300.268 34.1154C300.524 33.9646 300.631 33.73 300.72 33.4776C301.432 31.4624 302.333 29.5339 303.366 27.6658C303.802 26.8771 304.247 26.0933 304.708 25.3194C304.977 24.868 305.292 24.4462 305.708 24.1107C306.149 23.7553 306.615 23.7567 307.097 23.9991C307.554 24.2285 307.932 24.5688 308.287 24.9266C309.319 25.9678 310.317 27.0423 311.233 28.1889C311.84 28.9486 312.406 29.7382 312.919 30.5654C313.023 30.7337 313.142 30.8942 313.237 31.0684C313.386 31.344 313.624 31.4539 313.919 31.467C314.659 31.5002 315.4 31.5152 316.139 31.5684C316.848 31.6194 317.555 31.7013 318.261 31.7848C318.85 31.8549 319.437 31.9429 320.023 32.0318C320.316 32.0765 320.607 32.1383 320.898 32.1959C322.338 32.4823 323.76 32.8442 325.16 33.2823C326.169 33.5978 327.165 33.9555 328.146 34.3557C329.658 34.9716 331.132 35.662 332.558 36.4574C332.843 36.6166 333.121 36.6332 333.429 36.4629C334.978 35.6051 336.595 34.9038 338.286 34.3833C339.25 34.0861 340.221 33.8061 341.197 33.547C341.517 33.4622 341.861 33.4462 342.195 33.4381C342.803 33.4236 343.202 33.7167 343.412 34.29C343.552 34.6757 343.606 35.0771 343.635 35.484C343.714 36.6326 343.663 37.7809 343.626 38.9293C343.584 40.2575 343.498 41.582 343.311 42.8984C343.211 43.6051 343.1 44.3103 342.983 45.0146C342.949 45.2224 342.986 45.4048 343.077 45.5886C343.433 46.3087 343.813 47.0183 344.131 47.7556C344.742 49.1726 345.157 50.6493 345.394 52.1782C345.63 53.7027 345.689 55.2347 345.584 56.7714C345.539 57.4232 345.449 58.0727 345.35 58.7186C345.27 59.2374 345.176 59.7586 345.034 60.2634C344.565 61.9388 343.872 63.5108 342.81 64.9025C342.07 65.8718 341.201 66.7095 340.207 67.4149C338.593 68.5609 336.803 69.3132 334.897 69.8069C333.078 70.2782 331.226 70.5118 329.353 70.5799C328.546 70.6088 327.736 70.5957 326.911 70.6016ZM310.284 30.5652C310.201 30.4342 310.108 30.2578 309.988 30.1033C309.788 29.8457 309.578 29.5942 309.357 29.3534C308.585 28.5093 307.672 27.83 306.772 27.1363C306.498 26.9258 306.206 26.9661 305.99 27.2482C305.738 27.5781 305.501 27.9221 305.277 28.2718C304.902 28.8567 304.597 29.4784 304.328 30.1202C304.074 30.727 303.885 31.3532 303.73 31.9898C303.653 32.309 303.865 32.6031 304.187 32.6254C304.521 32.648 304.86 32.6657 305.192 32.6386C306.865 32.5023 308.407 31.9234 309.904 31.1958C310.142 31.0803 310.279 30.9124 310.284 30.5652ZM340.936 41.5462C341.015 41.1236 341.107 40.6765 341.182 40.2265C341.374 39.0844 341.375 37.938 341.233 36.7912C341.177 36.3316 340.972 36.1656 340.509 36.2276C339.922 36.3063 339.334 36.3891 338.749 36.4865C337.828 36.6402 336.933 36.8906 336.081 37.2797C335.707 37.4503 335.615 37.7568 335.823 38.1094C335.849 38.1521 335.872 38.1966 335.902 38.2356C336.347 38.8178 336.77 39.4193 337.244 39.976C337.953 40.8075 338.746 41.5522 339.717 42.0794C339.864 42.1589 340.015 42.2383 340.173 42.2888C340.418 42.3667 340.666 42.2471 340.764 42.0182C340.827 41.8729 340.873 41.7204 340.936 41.5462Z" fill="#FED98E"/>
<path d="M313.276 66.3673C312.966 65.7244 312.654 65.0765 312.312 64.3655C313.882 64.9617 315.436 65.3998 317.106 65.6969C316.47 66.1379 315.9 66.5345 315.347 66.9179C315.005 66.7651 314.694 66.5793 314.358 66.4898C314.021 66.3996 313.659 66.4062 313.276 66.3673Z" fill="#FAD58C"/>
<path d="M333.092 66.64C332.333 66.4646 331.638 66.1417 330.997 65.7172C330.288 65.2478 329.67 64.6736 329.216 63.9363C328.988 63.5668 328.785 63.1892 328.646 62.7768C328.432 62.1434 328.369 61.5029 328.442 60.8327C328.555 59.7993 329.034 58.9696 329.762 58.2639C330.414 57.6303 331.203 57.2484 332.069 56.9946C332.866 56.7612 333.673 56.7352 334.486 56.7942C335.109 56.8395 335.719 57.0021 336.298 57.2199C337.523 57.6804 338.578 58.4067 339.343 59.4887C339.874 60.2399 340.228 61.0734 340.281 62.0122C340.313 62.5788 340.267 63.1407 340.063 63.6703C339.848 64.2301 339.554 64.7421 339.129 65.1864C338.775 65.5557 338.381 65.8674 337.95 66.1146C337.552 66.342 337.11 66.5053 336.671 66.6385C335.893 66.8734 335.088 66.9302 334.282 66.8552C333.882 66.8178 333.489 66.7143 333.092 66.64Z" fill="#F67272"/>
<path d="M298.425 57.3171C297.687 57.1826 297.001 56.861 296.367 56.4463C295.766 56.0532 295.236 55.5678 294.805 54.9818C294.342 54.3534 293.995 53.6745 293.851 52.9011C293.755 52.3853 293.762 51.8734 293.841 51.3494C293.914 50.8609 294.102 50.4298 294.325 50.0051C294.614 49.4552 295.03 49.0146 295.522 48.6408C296.128 48.1802 296.805 47.8827 297.537 47.6831C298.179 47.5079 298.833 47.4715 299.488 47.4865C300.243 47.5039 300.977 47.6883 301.679 47.9445C302.521 48.251 303.283 48.7158 303.939 49.3391C304.355 49.7344 304.735 50.1633 305.01 50.667C305.474 51.5201 305.731 52.4239 305.629 53.4165C305.542 54.2684 305.225 55.0153 304.699 55.678C304.314 56.1639 303.835 56.5447 303.297 56.8445C302.62 57.2229 301.887 57.4375 301.121 57.545C300.495 57.6334 299.87 57.5993 299.249 57.5299C298.976 57.4995 298.712 57.3935 298.426 57.3167L298.425 57.3171Z" fill="#F67272"/>
<path d="M310.284 30.5653C310.279 30.9126 310.141 31.0795 309.903 31.1952C308.407 31.9235 306.865 32.5018 305.192 32.638C304.859 32.6651 304.521 32.6474 304.187 32.6247C303.864 32.6031 303.652 32.3084 303.73 31.9892C303.884 31.3526 304.073 30.7264 304.327 30.1196C304.597 29.4778 304.901 28.856 305.277 28.2712C305.501 27.9215 305.737 27.5774 305.989 27.2476C306.205 26.9655 306.498 26.9251 306.771 27.1357C307.672 27.8294 308.586 28.5088 309.357 29.3528C309.577 29.5934 309.787 29.8449 309.987 30.1027C310.108 30.2573 310.2 30.4343 310.284 30.5653ZM308.948 30.4621C308.249 29.5924 307.4 28.929 306.529 28.2594C305.792 29.2974 305.249 30.3912 304.912 31.586C305.592 31.736 308.2 30.9611 308.948 30.4621Z" fill="#631B1A"/>
<path d="M340.936 41.5464C340.873 41.7206 340.827 41.8731 340.764 42.0184C340.666 42.2473 340.417 42.3667 340.173 42.289C340.015 42.2385 339.864 42.1597 339.717 42.0796C338.746 41.553 337.953 40.8083 337.244 39.9762C336.77 39.4195 336.347 38.818 335.902 38.2358C335.872 38.1968 335.849 38.1523 335.823 38.1096C335.615 37.757 335.707 37.45 336.081 37.2799C336.933 36.8908 337.828 36.6404 338.749 36.4867C339.334 36.3889 339.922 36.3065 340.509 36.2278C340.972 36.1657 341.177 36.3318 341.233 36.7914C341.375 37.9388 341.374 39.0845 341.182 40.2267C341.107 40.6762 341.015 41.1233 340.936 41.5464ZM339.942 41.0216C340.241 40.4145 340.429 37.8677 340.201 37.3344C339.665 37.3615 339.133 37.4617 338.602 37.5649C337.675 37.7449 337.268 37.881 337.044 38.0695C337.864 39.1947 338.76 40.2419 339.942 41.0216Z" fill="#631B1A"/>
<path d="M309.809 37.1616C310.547 37.3648 311.18 37.7242 311.677 38.311C311.86 38.5276 311.981 38.7777 312.021 39.0566C312.099 39.6004 311.892 40.0264 311.442 40.3311C310.971 40.6493 310.438 40.7332 309.885 40.7248C309.117 40.713 308.404 40.4979 307.754 40.0913C307.303 39.8093 306.918 39.4581 306.733 38.9364C306.52 38.3355 306.721 37.7564 307.254 37.4067C307.767 37.0707 308.341 36.997 308.932 37.0305C309.226 37.0468 309.517 37.1167 309.809 37.1628V37.1616ZM309.576 37.9794C309.149 37.8476 308.717 37.7985 308.282 37.8904C308.083 37.9327 307.882 38.0074 307.705 38.109C307.461 38.25 307.41 38.4713 307.538 38.7256C307.595 38.8391 307.671 38.9492 307.762 39.0371C308.359 39.6187 309.09 39.872 309.912 39.8933C310.274 39.9026 310.625 39.8613 310.942 39.6685C311.214 39.503 311.288 39.2565 311.121 38.9841C311.019 38.819 310.882 38.6674 310.735 38.5397C310.401 38.2485 310.003 38.0735 309.576 37.9794Z" fill="#641E1C"/>
<path d="M309.152 48.0591C309.083 48.3251 308.939 48.4461 308.684 48.466C308.466 48.483 308.256 48.3648 308.167 48.1445C308.019 47.7772 307.799 47.4692 307.487 47.2261C306.893 46.7629 306.254 46.7443 305.589 47.0426C305.437 47.1107 305.297 47.2117 305.161 47.3101C304.9 47.4985 304.602 47.4828 304.419 47.2607C304.226 47.0274 304.245 46.7253 304.496 46.5205C305.182 45.9603 305.964 45.7086 306.848 45.8522C307.916 46.0257 308.614 46.6777 309.078 47.6191C309.147 47.76 309.211 47.9119 309.152 48.0591Z" fill="#641D1B"/>
<path d="M330.619 52.1943C331.627 52.4878 332.273 53.1115 332.646 54.0271C332.771 54.3365 332.646 54.6367 332.367 54.7442C332.093 54.8494 331.797 54.7145 331.691 54.4304C331.674 54.3838 331.654 54.3387 331.633 54.294C331.364 53.7257 330.945 53.3329 330.321 53.194C329.788 53.0754 329.306 53.2281 328.853 53.5042C328.769 53.5557 328.691 53.6191 328.605 53.6684C328.348 53.817 328.062 53.7508 327.905 53.5091C327.758 53.2831 327.795 52.9802 328.019 52.8171C328.741 52.2925 329.531 52.0035 330.439 52.1688C330.517 52.1828 330.595 52.1911 330.619 52.1943Z" fill="#631C1A"/>
<path d="M308.948 30.4621C308.2 30.9605 305.592 31.7366 304.912 31.5866C305.25 30.392 305.792 29.2979 306.529 28.26C307.4 28.9296 308.249 29.5923 308.948 30.4621Z" fill="#F47070"/>
<path d="M339.942 41.0215C338.76 40.2412 337.864 39.1948 337.045 38.0696C337.268 37.881 337.676 37.7449 338.603 37.565C339.134 37.4618 339.666 37.3615 340.202 37.3345C340.429 37.8677 340.242 40.4139 339.942 41.0215Z" fill="#F47070"/>
<path d="M309.576 37.9794C310.004 38.0735 310.401 38.2487 310.736 38.5398C310.883 38.6676 311.02 38.8192 311.121 38.9842C311.289 39.2566 311.215 39.5025 310.942 39.6687C310.626 39.8614 310.274 39.9026 309.913 39.8935C309.091 39.8723 308.36 39.619 307.762 39.0372C307.672 38.9494 307.595 38.8385 307.538 38.7257C307.411 38.4715 307.461 38.2502 307.705 38.1091C307.882 38.0074 308.083 37.9329 308.283 37.8906C308.717 37.7986 309.15 37.8472 309.577 37.9796L309.576 37.9794Z" fill="#FBFAFA"/>
<path d="M313.82 53.743C313.62 53.4063 313.475 53.0609 313.425 52.6809C313.417 52.622 313.404 52.5627 313.403 52.5038C313.397 52.2197 313.589 51.9843 313.846 51.955C314.145 51.9207 314.401 52.1092 314.428 52.4206C314.464 52.8176 314.626 53.145 314.899 53.4221C315.591 54.1235 316.762 53.9625 317.236 53.0987C317.058 52.8292 316.87 52.5631 316.703 52.2842C316.592 52.0979 316.501 51.8968 316.421 51.6943C316.367 51.5573 316.335 51.4079 316.315 51.2616C316.256 50.8269 316.609 50.5383 317.037 50.7332C317.271 50.8397 317.445 51.0045 317.583 51.2194C317.689 51.3865 317.803 51.5493 317.924 51.7064C317.983 51.7835 318.066 51.8427 318.139 51.9118C318.414 51.9149 318.637 51.7819 318.872 51.6792C319.07 51.5926 319.273 51.5006 319.484 51.4636C319.742 51.4177 320.006 51.4409 320.161 51.7099C320.283 51.9218 320.233 52.1427 319.985 52.4057C319.631 52.7807 319.189 53.0269 318.726 53.2386C318.646 53.2757 318.564 53.3087 318.487 53.3413C318.451 53.951 318.876 54.6587 319.425 54.8411C320.002 55.0323 320.517 54.8612 320.963 54.4626C321.043 54.3902 321.104 54.2967 321.175 54.2135C321.37 53.9822 321.655 53.9417 321.892 54.1109C322.112 54.268 322.159 54.5767 321.992 54.8274C321.82 55.0866 321.601 55.3032 321.346 55.4808C321.281 55.5258 321.216 55.5701 321.138 55.6234C321.128 55.8067 321.117 55.993 321.107 56.1801C321.046 57.2873 320.73 58.3115 320.085 59.2196C319.217 60.4402 318.053 61.0845 316.542 60.9059C315.281 60.7571 314.2 60.2382 313.522 59.0909C313.024 58.2486 312.881 57.3248 312.972 56.3612C313.053 55.4887 313.318 54.6696 313.743 53.9027C313.767 53.8591 313.787 53.8137 313.821 53.7431L313.82 53.743Z" fill="#631C1C"/>
<path d="M314.578 54.5091C315.65 55.0974 316.641 55.0117 317.595 54.27C318.044 55.384 318.863 55.9472 320.072 55.9861C320.059 56.2082 320.071 56.4153 320.031 56.6123C319.889 57.3147 319.693 57.9996 319.265 58.5914C318.911 59.0796 318.495 59.4921 317.924 59.7242C317.481 59.9041 317.017 59.946 316.558 59.8762C315.948 59.783 315.372 59.5751 314.896 59.1557C314.489 58.7975 314.235 58.3432 314.109 57.8217C313.977 57.2803 313.958 56.7363 314.034 56.175C314.113 55.5935 314.331 55.0765 314.578 54.5091Z" fill="#F57171"/>
<path d="M332.941 43.3835C333.778 43.6014 334.425 43.9356 334.909 44.5406C335.119 44.8025 335.248 45.0999 335.269 45.4367C335.305 46.0292 334.908 46.4693 334.468 46.6871C333.965 46.9361 333.425 46.9861 332.877 46.9407C332.008 46.8684 331.228 46.56 330.556 45.9961C330.317 45.7961 330.139 45.5474 330.01 45.2656C329.697 44.5823 329.967 43.9575 330.541 43.5983C330.958 43.3378 331.426 43.2617 331.904 43.249C332.291 43.2383 332.673 43.2876 332.941 43.3835ZM334.446 45.579C334.412 45.2237 334.288 45.0138 333.985 44.7708C333.381 44.2857 332.676 44.0955 331.919 44.0768C331.591 44.0687 331.268 44.1255 330.979 44.3008C330.698 44.4721 330.633 44.6909 330.786 44.9816C330.836 45.0765 330.903 45.1662 330.977 45.2435C331.457 45.7423 332.063 45.9877 332.731 46.0907C333.124 46.1507 333.519 46.1496 333.904 46.0234C334.136 45.9473 334.337 45.8324 334.446 45.579Z" fill="#641D1C"/>
<path d="M334.446 45.5789C334.337 45.8323 334.137 45.9474 333.903 46.0238C333.518 46.1499 333.124 46.1511 332.731 46.0912C332.063 45.9887 331.456 45.7428 330.977 45.244C330.903 45.1667 330.836 45.077 330.786 44.9821C330.633 44.6915 330.698 44.4726 330.979 44.3013C331.268 44.1254 331.591 44.0686 331.919 44.0773C332.676 44.096 333.381 44.2862 333.985 44.7713C334.288 45.0143 334.411 45.2242 334.445 45.5795L334.446 45.5789Z" fill="#FBFAFA"/>
</svg>
