<svg width="77" height="103" viewBox="0 0 77 103" fill="none" xmlns="http://www.w3.org/2000/svg">
<path d="M72.0231 67.2511C72.0231 67.2511 68.1783 62.7341 66.6391 60.9247L61.5749 58.381L62.6277 68.7851L69.431 69.0801L72.0298 67.2511H72.0231Z" fill="#611B19"/>
<path d="M72.7694 65.0745C72.1297 64.3927 71.0236 64.2813 70.2107 64.7533C70.0641 64.8385 69.9575 64.9172 69.8508 65.0024C68.9913 65.717 67.9451 65.9923 66.5658 65.8875C65.7062 65.8219 64.8 65.5531 63.7338 65.0614C63.6139 65.009 63.4873 64.9565 63.354 64.9041L63.2208 64.8516C63.0342 64.773 62.841 64.7402 62.6477 64.7205L62.2479 61.0034C62.1813 60.4264 62.1213 59.8495 62.0613 59.2726C63.2674 59.8561 64.9932 60.4789 67.5053 61.1869C67.6919 61.2394 67.8718 61.2656 68.0584 61.2656C68.8713 61.2656 69.6309 60.7739 69.9308 59.9872C71.8965 54.795 67.9584 48.7767 63.0275 46.2462C66.0794 43.2108 67.5786 39.4019 67.472 34.8849C67.4187 32.5773 66.9589 30.2565 66.066 27.7784C65.0066 24.848 63.3274 22.1863 61.0552 19.8524C61.0218 19.5705 60.9885 19.2952 60.9552 19.0133C60.8353 17.9512 60.7087 16.8498 60.4755 15.7419C60.1223 14.0308 59.6758 12.3394 59.2427 10.7005L59.0961 10.1498C58.9029 9.42209 58.5564 8.80584 58.3099 8.40594C57.4836 7.05544 56.0776 6.50475 54.5584 6.93743C53.7987 7.15377 53.1191 7.43567 52.5394 7.78313C51.4066 8.45183 50.3005 9.16641 49.2276 9.85478L48.7945 10.1301C48.7945 10.1301 48.7812 10.1367 48.7745 10.1432C48.7745 9.98589 48.7745 9.82855 48.7545 9.6581C48.5813 8.09781 47.9283 6.65553 46.8222 5.37714C43.8636 1.955 40.0588 0.152148 35.5011 0.00791982C32.276 -0.0969735 29.2841 0.84051 26.6121 2.79415C25.0262 3.95453 23.8668 5.23292 23.0672 6.70142C22.4875 7.76347 22.1676 8.85173 22.0877 9.94656C20.8616 9.0943 19.5689 8.29449 18.2229 7.55368C17.7698 7.30456 17.29 7.10133 16.7769 6.94399C15.0378 6.41297 13.4986 7.02266 12.6456 8.5895C12.3191 9.19919 12.0526 9.84166 11.8594 10.5038C10.8732 13.8669 10.2735 16.8957 10.0203 19.8065C10.0203 19.8065 10.0003 19.8393 9.93364 19.918C5.53581 24.5661 3.42351 30.1188 3.65007 36.4059C3.74335 39.0282 4.54962 41.4998 6.03556 43.755C6.64193 44.6793 7.34825 45.5316 8.16118 46.3249C3.39686 48.6587 -0.501226 53.969 0.891423 59.0038C1.1313 59.8758 1.93091 60.4527 2.81714 60.4527C2.94375 60.4527 3.07035 60.4396 3.19029 60.4199C5.46251 59.9938 7.12169 59.5807 8.34109 59.1612L5.809 68.4573C5.52248 69.4997 6.14884 70.5749 7.20832 70.8633L9.44721 71.4665L9.42056 71.7877C9.39391 72.0762 9.36725 72.3384 9.36059 72.6006C9.29396 75.2951 9.26064 78.8549 9.57382 82.4606C9.62046 82.9916 9.67377 83.5161 9.72708 84.0471L9.80037 84.7551C9.90033 85.8041 10.4734 86.6301 11.4129 87.0693C11.7727 87.2398 12.1259 87.4233 12.4857 87.6004C13.0721 87.8954 13.6718 88.2035 14.3182 88.4788C14.3448 88.492 14.3715 88.4985 14.3981 88.5116C14.3715 88.61 14.3515 88.7017 14.3381 88.787C14.005 91.0487 13.9317 93.1663 14.1183 95.2445C14.2049 96.1819 14.3981 97.5914 15.1111 98.9288C15.3043 99.296 15.7108 100.056 16.577 100.64C16.8103 100.797 17.0701 100.902 17.3367 100.948C17.6632 101.341 18.1429 101.604 18.6827 101.656L19.7355 101.761C19.8021 101.761 19.8688 101.768 19.9354 101.768C20.2686 101.768 20.6017 101.682 20.8949 101.525C21.1548 101.551 21.4147 101.525 21.6745 101.446C22.6474 101.158 23.5336 100.673 24.3799 99.9712C27.1918 97.6308 29.0442 94.5299 29.8772 90.7537C29.9171 90.5833 29.9371 90.4063 29.9505 90.1899L29.9638 90.0522C29.9638 90.0522 29.9638 89.9998 29.9638 89.9736C30.9766 89.7703 31.9162 89.5147 32.8091 89.2065C33.4887 88.9705 33.9885 88.3936 34.1151 87.6921L34.1484 87.5217C34.1817 87.3512 34.2084 87.1873 34.235 87.0169C34.3683 86.0925 34.4949 85.1616 34.6215 84.2372L34.8347 82.6638C35.4744 84.4273 36.1074 86.1909 36.7338 87.9609C37.0736 88.9181 37.8133 89.5474 38.8194 89.7441C39.3725 89.849 39.9189 89.9408 40.4653 90.026C40.4653 90.026 40.4653 90.026 40.4653 90.0326L40.4853 90.2227C40.5053 90.4325 40.5253 90.6095 40.5519 90.7865C41.1849 94.2217 42.7175 97.1981 45.1097 99.6434C46.3424 100.902 47.5152 101.754 48.7879 102.325C49.1077 102.469 49.4142 102.567 49.7074 102.672C49.8274 102.712 49.9606 102.757 50.0939 102.803C50.467 102.934 50.8602 102.954 51.2333 102.869C51.4599 102.954 51.7064 103 51.9596 103C52.1062 103 52.2595 102.987 52.4128 102.948L53.4189 102.718C53.8987 102.607 54.3118 102.318 54.585 101.925C54.9115 101.84 55.218 101.676 55.4712 101.44C56.1642 100.784 56.4974 100.07 56.704 99.5189C57.0705 98.5551 57.2504 97.5128 57.2504 96.3393C57.2504 95.015 57.1438 93.6645 56.9305 92.3074C56.9439 92.3074 56.9638 92.3074 56.9772 92.3074C57.3903 92.3402 57.8234 92.3664 58.2765 92.3664C58.3765 92.3664 58.4831 92.3664 58.5897 92.3664C60.5821 92.3009 62.3545 91.6781 63.8605 90.5243C65.0599 89.5999 66.0327 88.61 66.8523 87.4824C66.8656 87.4627 66.879 87.4496 66.8923 87.4299C67.2521 87.8364 67.7719 88.0986 68.3582 88.1117C68.8047 88.1379 69.2178 88.0461 69.571 87.8364C69.7376 87.738 69.9041 87.6331 70.0574 87.5151C70.6571 87.0497 71.1769 86.5121 71.6033 85.9089C71.9298 86.0728 72.2963 86.145 72.6628 86.1187C73.2892 86.0728 73.8555 85.7385 74.1954 85.2206C78.4066 78.7565 77.8269 70.4634 72.7827 65.0549L72.7694 65.0745ZM23.9867 46.5346C23.9867 46.5346 23.9867 46.5281 23.9801 46.5281C23.9801 46.5281 23.9801 46.5346 23.9867 46.5412V46.5346Z" fill="#611B19"/>
<path d="M9.83369 55.8898L12.1192 48.9996C12.1192 48.9996 12.5057 48.9996 10.4201 47.5246C5.99558 48.9996 1.56442 53.9427 2.82381 58.4925C10.5067 57.0502 9.83369 55.8898 9.83369 55.8898Z" fill="#FCFBFB"/>
<path d="M61.315 56.0668L59.6758 49.0062C59.6758 49.0062 59.296 48.9734 61.5083 47.6885C65.7795 49.5569 69.7309 54.8671 68.0584 59.2857C60.5354 57.1616 61.315 56.0668 61.315 56.0668Z" fill="#FCFBFB"/>
<path d="M50.9068 13.585C50.2205 13.1917 49.5875 12.8311 48.9345 12.4574C49.2343 12.2345 49.5408 11.9789 49.8807 11.7625C51.1067 10.9824 52.3261 10.1891 53.5722 9.44831C54.0453 9.16641 54.585 8.95663 55.1181 8.80584C55.7711 8.62228 56.2509 8.82551 56.604 9.40242C56.8372 9.78266 57.0571 10.1957 57.1704 10.6218C57.6502 12.4443 58.1433 14.2668 58.5231 16.109C58.8029 17.4595 58.9229 18.8428 59.0895 20.2195C59.1361 20.5867 59.2894 20.862 59.5426 21.1242C61.6149 23.2287 63.1808 25.6478 64.1803 28.4143C64.9399 30.5122 65.4197 32.6756 65.473 34.9046C65.5729 39.2839 63.9937 42.9486 60.5621 45.7938C58.3765 47.6032 55.8644 48.8161 53.1857 49.7273C52.0063 50.1272 50.8135 50.4747 49.5542 50.7435C49.5208 50.6124 49.4809 50.5075 49.4675 50.396C49.3609 49.5634 49.1544 48.7636 48.7479 48.0228C48.1349 46.9018 47.1953 46.1675 45.9626 45.7873C45.7827 45.7348 45.6028 45.6824 45.3762 45.6234C45.4362 45.525 45.4695 45.4464 45.5228 45.3874C46.9621 43.7353 47.3619 41.8276 46.8088 39.7559C45.9892 36.7009 44.4167 34.0786 41.9512 32.02C40.0855 30.4597 37.8999 29.6796 35.4478 29.7255C33.2289 29.7648 31.2432 30.5122 29.5173 31.8758C26.8986 33.9474 25.1728 36.6091 24.3332 39.8084C23.8068 41.8276 24.1933 43.6829 25.5593 45.3153C25.6126 45.3808 25.6592 45.4529 25.7059 45.525C25.7125 45.5382 25.7059 45.5578 25.7125 45.6234C24.4598 45.8266 23.3337 46.2986 22.5008 47.2951C21.6879 48.2588 21.3747 49.4192 21.2148 50.691C20.5284 50.5075 19.8821 50.3436 19.2491 50.16C16.7303 49.4127 14.3182 48.4227 12.1259 46.9739C10.3801 45.8266 8.87416 44.4433 7.7214 42.6995C6.44869 40.7655 5.74237 38.6414 5.65575 36.3469C5.44252 30.545 7.38823 25.5167 11.3996 21.2685C11.7661 20.8817 11.9726 20.5014 12.0193 19.9573C12.2858 16.9351 12.9322 13.9784 13.7851 11.061C13.9383 10.5366 14.1516 10.0121 14.4181 9.52698C14.8179 8.78618 15.3776 8.58294 16.1906 8.83207C16.557 8.94352 16.9169 9.0943 17.2567 9.27786C18.8226 10.1367 20.3352 11.0938 21.7745 12.1493C21.8544 12.2083 21.9344 12.2804 21.9944 12.3329C21.3547 12.7918 20.7283 13.2376 20.042 13.7293C19.9154 13.6572 19.7155 13.5129 19.4956 13.4146C18.5427 12.9688 17.5899 12.5296 16.6237 12.11C16.1572 11.9068 15.8974 12.0182 15.7041 12.4837C15.0111 14.1554 14.6713 15.8927 14.7246 17.7021C14.7379 18.22 15.0045 18.456 15.5042 18.3249C16.1306 18.161 16.757 17.9774 17.3433 17.7087C17.9764 17.4202 18.5627 17.0269 19.1691 16.6728C19.3157 16.5876 19.4623 16.4893 19.6289 16.3844C20.0953 17.5054 20.9882 18.1545 21.9944 18.692C23.5136 19.4984 25.1595 19.9311 26.8387 20.2392C28.8643 20.6129 30.9033 20.8358 32.9623 20.8882C34.295 20.921 35.6343 20.98 36.967 20.9407C40.0255 20.8489 43.0707 20.6063 46.0492 19.8327C46.5556 19.7016 47.0687 19.5508 47.5551 19.3673C49.0677 18.7969 50.4804 18.0758 51.3666 16.6073C51.5732 16.7318 51.7664 16.8498 51.953 16.9613C52.9258 17.5644 53.9253 18.0889 55.0648 18.3249C55.7311 18.4626 55.9843 18.2725 55.991 17.5907C56.0043 15.8599 55.6845 14.1816 55.0315 12.5754C54.8049 12.0182 54.5717 11.9068 54.012 12.1559C53.0058 12.6082 52.0129 13.0868 51.0134 13.5523C50.9535 13.5785 50.8868 13.6047 50.9068 13.5982V13.585Z" fill="#F8D58F"/>
<path d="M28.8777 74.6854C21.8478 72.7842 14.8246 70.8896 7.74805 68.9752C9.40057 62.9242 11.0398 56.9125 12.679 50.9008C12.7123 50.9008 12.7456 50.9008 12.7856 50.8943C12.9855 51.2548 13.1787 51.6154 13.3853 51.9694C14.3715 53.6674 15.371 55.3522 16.3438 57.0568C16.7436 57.7582 17.2234 57.7713 17.8364 57.4567C18.9425 56.8863 20.0553 56.3291 21.1615 55.7653C21.3147 55.6866 21.4746 55.6145 21.6479 55.5358C21.7345 55.6407 21.8211 55.7259 21.8811 55.8308C22.6074 57.0568 23.7535 57.673 25.1195 57.9352C26.7121 58.2434 28.238 57.9746 29.6773 57.2797C30.0904 57.083 30.3636 57.1289 30.7168 57.3977C32.1627 58.499 33.6287 59.5742 35.0879 60.6625C35.1612 60.7149 35.2345 60.7608 35.3012 60.8132C35.8009 61.1541 36.0075 61.1673 36.4872 60.8132C37.2335 60.2626 37.9665 59.6987 38.6995 59.1349C39.3792 58.617 40.0655 58.1057 40.7385 57.5681C40.9984 57.3649 41.2183 57.3124 41.5448 57.4567C42.3843 57.8303 43.2906 58.0073 44.2101 58.0139C45.3229 58.0205 46.409 57.8238 47.3886 57.2403C48.6679 56.4798 49.2543 55.3195 49.4609 53.9165C49.4675 53.8509 49.4742 53.7788 49.4875 53.7133C49.4875 53.7002 49.5008 53.6805 49.5342 53.6215C49.6474 53.6608 49.774 53.6936 49.894 53.7395C51.7198 54.5 53.5589 55.2473 55.3713 56.0472C55.911 56.2832 56.4041 56.1062 56.6373 55.621C57.3636 54.1066 58.1166 52.5988 58.8629 51.0909C58.9229 50.9664 58.9829 50.8484 59.0428 50.7238C59.0695 50.7238 59.1028 50.7238 59.1294 50.7238C59.1828 51.1368 59.2361 51.5499 59.2827 51.9694C59.416 53.2019 59.5559 54.441 59.6825 55.68C59.8024 56.8142 59.9091 57.9483 60.029 59.0825C60.1556 60.2494 60.2822 61.4164 60.4155 62.5833C60.4954 63.3372 60.5754 64.0977 60.6554 64.8516C60.7886 66.0907 60.9286 67.3232 61.0552 68.5622C61.1751 69.7161 61.2884 70.8633 61.4017 72.0172C61.4416 72.3908 61.4816 72.7711 61.5283 73.1972C61.295 73.2431 61.0951 73.3021 60.8886 73.3152C59.8891 73.4004 58.8962 73.466 57.8967 73.5512C56.4841 73.6758 55.0648 73.8135 53.6521 73.938C52.6926 74.0232 51.7264 74.0888 50.7669 74.174C49.7341 74.2658 48.7079 74.3641 47.6751 74.4559C46.8022 74.5346 45.9293 74.6067 45.0497 74.6788C43.5105 74.8099 41.9712 74.9476 40.432 75.0787C39.8523 75.1312 39.2725 75.1508 38.6995 75.2164C38.3863 75.2492 38.2264 75.1312 38.0798 74.8689C37.1269 73.171 36.1607 71.4861 35.1945 69.7947C35.1079 69.6439 35.028 69.4866 34.9147 69.3555C34.5948 68.9752 34.1151 68.9425 33.7686 69.2965C33.2488 69.8341 32.7558 70.3979 32.2493 70.9551C31.1299 72.1942 30.0171 73.4398 28.8777 74.705V74.6854Z" fill="#6CAF30"/>
<path d="M32.1427 87.3643C30.93 87.7839 29.7172 88.0593 28.4845 88.2559C27.0252 88.4919 25.5526 88.61 24.0734 88.5772C20.9616 88.5051 17.9697 87.8954 15.1111 86.6891C14.1449 86.2826 13.2254 85.7582 12.2792 85.3058C11.946 85.1485 11.826 84.9059 11.7927 84.5781C11.7194 83.8242 11.6395 83.0637 11.5728 82.3098C11.293 79.0975 11.2863 75.8785 11.3663 72.6662C11.3729 72.3384 11.4196 72.0172 11.4462 71.6304C11.6528 71.6631 11.8194 71.6697 11.9793 71.7156C16.3638 72.9022 20.755 74.0888 25.1395 75.2754C26.3389 75.6032 27.5516 75.9048 28.7444 76.2522C29.2175 76.3899 29.5507 76.2719 29.8638 75.9244C31.0433 74.5936 32.236 73.2759 33.4221 71.9516C33.6486 71.6959 33.8885 71.4534 34.1684 71.1518C34.4016 71.5386 34.5948 71.8598 34.7814 72.1876C35.5144 73.4725 36.2407 74.7575 36.967 76.0359C37.047 76.1736 37.1203 76.3047 37.2069 76.4358C37.3868 76.7111 37.6467 76.816 37.9732 76.7898C39.6324 76.6456 41.2982 76.4948 42.9574 76.3506C44.3567 76.2326 45.756 76.1277 47.1553 76.0097C48.5347 75.8917 49.9206 75.754 51.3 75.6294C52.1595 75.5507 53.0125 75.4852 53.872 75.4065C55.0448 75.3082 56.2175 75.2033 57.3903 75.1049C57.6368 75.0853 57.8767 75.0853 58.1366 75.0722C58.1633 75.164 58.2032 75.2295 58.2032 75.2885C58.1499 76.9996 58.1166 78.7107 58.0366 80.4217C57.99 81.4248 57.8967 82.4213 57.7901 83.4177C57.6968 84.3093 57.5702 85.2009 57.4703 86.0925C57.4436 86.3416 57.2637 86.3875 57.0838 86.4531C55.6378 86.9907 54.1519 87.4168 52.6393 87.738C50.0339 88.2953 47.3952 88.5444 44.7365 88.4592C42.8708 88.4002 41.025 88.1838 39.1926 87.8233C38.8927 87.7643 38.7195 87.6266 38.6129 87.325C37.7066 84.7617 36.7738 82.2049 35.8542 79.6481C35.5944 78.9336 35.3478 78.2124 35.0813 77.4978C35.0146 77.3274 34.9214 77.1373 34.7881 77.0193C34.3416 76.6259 33.6353 76.875 33.5287 77.4716C33.4021 78.219 33.3088 78.9794 33.2089 79.7268C33.0156 81.1494 32.8224 82.572 32.6358 83.9881C32.5092 84.9125 32.3826 85.8368 32.256 86.7612C32.2293 86.9644 32.1827 87.1611 32.1494 87.3643H32.1427Z" fill="#E79314"/>
<path d="M24.14 11.3364C23.9201 10.0187 24.2 8.79273 24.8263 7.63235C25.546 6.30807 26.5855 5.2657 27.7982 4.3741C30.0637 2.71548 32.6092 1.88289 35.4344 1.97467C39.4058 2.09923 42.7109 3.65296 45.2963 6.63586C46.0959 7.56024 46.6289 8.63539 46.7622 9.85478C46.8155 10.3465 46.7422 10.8447 46.7289 11.3429C46.489 11.4872 46.2225 11.461 45.9626 11.461C44.2434 11.461 42.5243 11.461 40.8051 11.461C40.0522 11.461 40.0255 11.4937 40.0188 12.2083C40.0144 12.877 40.3453 13.2114 41.0117 13.2114C42.4843 13.2114 43.9569 13.2114 45.4295 13.2114C45.6894 13.2114 45.9626 13.1786 46.1825 13.3753C46.4157 14.0308 46.6423 14.162 47.3219 14.044C47.9216 13.9391 48.528 13.9456 49.0611 14.2668C49.3343 14.4307 49.6008 14.6602 49.7807 14.9224C50.1139 15.401 50.0806 15.8206 49.6941 16.2533C49.4409 16.5352 49.141 16.7908 48.8278 17.0006C47.7151 17.7677 46.4357 18.1479 45.1297 18.456C43.4372 18.8559 41.7113 19.0723 39.9789 19.2165C37.8732 19.3935 35.7676 19.4591 33.6553 19.3804C30.6701 19.2689 27.6982 19.0133 24.813 18.161C23.9201 17.8988 23.0539 17.5579 22.2742 17.0465C21.9411 16.8302 21.6346 16.5614 21.3614 16.2729C21.0348 15.9255 20.9949 15.5059 21.2014 15.0667C21.3947 14.6602 21.6879 14.3521 22.0743 14.1226C22.5474 13.8407 23.0672 13.703 23.6069 13.5982C23.8401 13.5523 24.0667 13.4474 24.2932 13.3621C24.5465 13.2048 24.833 13.2179 25.1128 13.2179C26.872 13.2179 28.6311 13.2179 30.3902 13.2179C31.0966 13.2179 31.1299 13.1786 31.1365 12.4837C31.141 11.8062 30.8056 11.4675 30.1304 11.4675C28.3912 11.4675 26.6454 11.4675 24.9063 11.4675C24.6464 11.4675 24.3732 11.5068 24.14 11.3429V11.3364Z" fill="white"/>
<path d="M71.2968 66.4054C75.708 71.1321 76.261 78.4025 72.5029 84.1782C72.323 83.975 72.1564 83.7849 71.9831 83.5948C71.4501 83.0244 70.857 83.0965 70.5372 83.8045C70.1374 84.6765 69.5643 85.4042 68.8047 85.9942C68.7247 86.0597 68.6314 86.1122 68.5448 86.1646C68.5182 86.1777 68.4782 86.1646 68.3982 86.1646C68.3982 86.0728 68.3982 85.9811 68.3982 85.8827C68.4315 85.1223 68.4649 84.3618 68.4915 83.6013C68.5048 83.0834 68.3049 82.7949 67.8918 82.6966C67.4987 82.6048 67.1788 82.7949 66.9656 83.2801C66.4858 84.3618 65.9194 85.391 65.2198 86.3547C64.4868 87.3643 63.6139 88.2297 62.6211 88.9902C61.415 89.9211 60.029 90.3669 58.5164 90.4194C57.8367 90.439 57.1504 90.3604 56.4641 90.3276C56.1776 90.3145 56.0376 90.1834 55.9843 89.8883C55.9044 89.4491 55.7644 89.023 55.6378 88.5575C55.8311 88.4854 55.991 88.4329 56.1576 88.3739C56.8506 88.1314 57.5436 87.8757 58.2432 87.6462C58.663 87.5086 58.8762 87.2398 58.9295 86.8202C59.0428 85.9483 59.1761 85.0764 59.276 84.1979C59.6292 81.2412 59.7625 78.2714 59.7691 75.2951C59.7691 75.1771 59.7891 75.0591 59.8024 74.9083C60.2822 74.8624 60.7553 74.8165 61.2217 74.7706C61.6082 74.7313 61.9947 74.705 62.3745 74.6657C62.9476 74.6067 63.2141 74.2855 63.1608 73.7217C63.0875 72.9809 62.9942 72.2466 62.9143 71.5058C62.7543 70.0438 62.6011 68.5819 62.4478 67.1199C62.4345 66.9823 62.4478 66.8446 62.4478 66.6479C62.6144 66.7135 62.7543 66.7659 62.8876 66.8315C64.007 67.3494 65.1665 67.7362 66.4125 67.8411C68.165 67.9788 69.7642 67.6379 71.1435 66.5037C71.1835 66.4709 71.2302 66.4513 71.3035 66.4054H71.2968Z" fill="#F8D58E"/>
<path d="M35.2812 47.5442C34.1817 47.4328 32.8024 47.3017 31.4231 47.1509C31.2098 47.1247 30.9833 47.0263 30.8034 46.9083C29.8972 46.3117 28.9176 45.9184 27.8582 45.7021C27.7049 45.6693 27.5383 45.6365 27.425 45.5513C25.9791 44.4696 25.1528 43.0666 25.2128 41.2441C25.2394 40.4115 25.4727 39.6051 25.7725 38.825C26.6921 36.4518 28.0847 34.3998 30.1037 32.7936C31.9495 31.3251 34.0484 30.6368 36.4273 30.8334C38.0065 30.9645 39.4325 31.5152 40.7118 32.4265C41.6914 33.1214 42.5243 33.9606 43.2306 34.9177C44.4433 36.5501 45.3829 38.3202 45.8093 40.3197C46.2425 42.3586 45.5828 44.0369 43.9702 45.3546C43.8303 45.466 43.6371 45.5447 43.4572 45.5709C42.1778 45.7217 40.9917 46.1282 39.9455 46.869C39.5524 47.1443 39.1459 47.282 38.6862 47.3148C37.6533 47.3869 36.6205 47.4525 35.2945 47.5377L35.2812 47.5442Z" fill="white"/>
<path d="M42.4443 89.8359C46.3957 90.1899 50.2471 89.908 54.0653 88.9705C54.1119 89.0558 54.1719 89.1213 54.1919 89.2C54.8715 91.5404 55.2447 93.9267 55.2447 96.3589C55.2447 97.2112 55.1314 98.0503 54.8249 98.8567C54.665 99.2763 54.4717 99.6828 54.0853 100.043C54.0453 99.8991 54.0186 99.7876 53.9786 99.6893C53.7521 99.1321 53.5389 98.5617 53.2723 98.0241C53.1324 97.7357 52.8525 97.6767 52.5993 97.7816C52.3528 97.8799 52.2128 98.1093 52.2728 98.365C52.3061 98.5158 52.3928 98.6535 52.4661 98.7912C52.7659 99.3484 52.9591 99.9384 52.9858 100.568C52.9858 100.633 52.9725 100.699 52.9658 100.823C52.6393 100.896 52.3061 100.974 51.9596 101.053C51.8664 100.686 51.8264 100.351 51.7064 100.056C51.5132 99.5779 51.2933 99.1058 51.0268 98.66C50.8335 98.3323 50.527 98.2864 50.2605 98.4503C49.9673 98.6338 49.9273 98.9092 50.1139 99.2632C50.3071 99.6303 50.487 100.004 50.6536 100.384C50.7202 100.535 50.7203 100.705 50.7669 100.981C50.3138 100.817 49.9473 100.712 49.6008 100.561C48.4147 100.03 47.4285 99.2173 46.5356 98.306C44.3767 96.1033 43.0573 93.4678 42.5043 90.4653C42.471 90.2817 42.4643 90.0981 42.4377 89.8556L42.4443 89.8359Z" fill="#F8D48E"/>
<path d="M17.7165 99.0206C17.3034 98.7387 17.0901 98.3847 16.8902 98.0176C16.3971 97.0997 16.2106 96.0902 16.1173 95.074C15.9374 93.0679 16.0306 91.0618 16.3238 89.0689C16.3305 89.0033 16.3638 88.9377 16.4038 88.8001C20.1686 90.0129 24.0134 90.3669 27.9714 89.8687C27.9514 90.0719 27.9514 90.2096 27.9248 90.3407C27.2118 93.5662 25.6726 96.3196 23.0938 98.4699C22.5141 98.9485 21.8744 99.3353 21.1015 99.5647C21.0815 99.0206 21.2281 98.5552 21.4347 98.0962C21.5013 97.952 21.5812 97.8209 21.6279 97.6701C21.7079 97.421 21.5946 97.1784 21.368 97.0539C21.1415 96.9293 20.9216 96.9621 20.7417 97.1391C20.6417 97.2309 20.5751 97.362 20.5084 97.48C20.2219 98.0438 20.042 98.6338 19.9954 99.2632C19.982 99.414 19.9687 99.5647 19.9421 99.7876C19.5756 99.7549 19.2357 99.7155 18.8892 99.6828C18.7626 98.9878 18.8892 98.3716 19.1091 97.7685C19.1624 97.6242 19.2357 97.48 19.289 97.3358C19.3957 97.0211 19.289 96.772 19.0158 96.6408C18.7426 96.5163 18.4361 96.5818 18.3162 96.8965C18.103 97.421 17.9564 97.9782 17.7964 98.5224C17.7565 98.66 17.7498 98.8108 17.7165 99.0075V99.0206Z" fill="#F8D48E"/>
<path d="M21.2481 53.9886C19.9954 54.6311 18.756 55.2605 17.5232 55.8898C16.9302 55.2473 14.3115 50.6255 14.0983 49.8322C16.3771 50.9074 18.7293 51.6547 21.1415 52.2317C21.1748 52.8217 21.2081 53.3658 21.2481 53.9886Z" fill="#FDFCFD"/>
<path d="M35.8875 59.3382C34.4749 58.2892 33.0956 57.26 31.6696 56.2045C32.3759 55.7128 33.0289 55.2539 33.7153 54.7688C34.2017 55.0834 34.7414 55.2867 35.3345 55.2867C35.9342 55.2867 36.4739 55.1097 36.987 54.7622C37.8399 55.3391 38.6862 55.916 39.5791 56.5192C38.3397 57.4632 37.1403 58.381 35.8809 59.3382H35.8875Z" fill="#FDFCFD"/>
<path d="M57.7834 49.5044C57.1238 51.1958 56.3442 52.802 55.4979 54.4148C53.7321 53.6936 52.0063 53.0052 50.2138 52.1727C52.9058 51.5105 55.3913 50.6714 57.7834 49.5044Z" fill="#FCFBFB"/>
<path d="M24.14 11.3364H31.2232V13.3556C31.0899 13.3687 30.9833 13.3818 30.8833 13.3818C28.771 13.3818 26.6654 13.3818 24.5531 13.3818C24.4665 13.3818 24.3799 13.3687 24.2932 13.3621C24.4798 13.0475 24.4931 12.7328 24.3732 12.3788C24.2599 12.0444 24.2133 11.6839 24.14 11.3364Z" fill="#E8961B"/>
<path d="M46.1825 13.3818H39.8722V11.3429C42.1645 11.3429 44.4433 11.3429 46.7289 11.3429C46.6023 11.8412 46.4823 12.3394 46.3491 12.8377C46.3024 13.0212 46.2358 13.1982 46.1825 13.3818Z" fill="#E89619"/>
<path d="M15.8108 17.1252C15.8774 15.755 16.084 14.5029 16.5837 13.2704C17.5899 13.6375 18.5361 14.0636 19.4156 14.634C19.6422 14.7848 19.6622 14.929 19.4556 15.0863C18.3628 15.9255 17.2234 16.6925 15.8108 17.1186V17.1252Z" fill="#E66D6D"/>
<path d="M54.1252 13.3031C54.6117 14.5356 54.8582 15.7681 54.8649 17.1449C54.5917 17.0465 54.3784 17.0006 54.1852 16.8957C53.4656 16.5024 52.7459 16.1156 52.0463 15.6895C51.4865 15.3486 51.4799 15.2764 51.4599 14.5553C52.2662 14.0374 53.1524 13.644 54.1186 13.3031H54.1252Z" fill="#E66D6D"/>
<path d="M37.9399 48.5079C37.4201 49.1111 36.9603 49.6487 36.4806 50.1994C35.7409 49.983 35.0013 49.9175 34.2483 50.2321C33.7353 49.6487 33.2289 49.0717 32.7358 48.5079H37.9465H37.9399Z" fill="#F3CF8A"/>
<path d="M22.121 33.9606C21.0882 33.9606 20.3019 33.1673 20.3085 32.1446C20.3085 31.1416 21.1415 30.3417 22.1543 30.3483C23.1605 30.3549 24.0001 31.2006 23.9867 32.1839C23.9667 33.187 23.1471 33.9737 22.121 33.9671V33.9606Z" fill="#611B19"/>
<path d="M48.2881 33.9737C47.2553 33.954 46.4823 33.1673 46.4957 32.138C46.509 31.135 47.3419 30.3417 48.3614 30.368C49.3809 30.3942 50.1938 31.2268 50.1672 32.2167C50.1405 33.2198 49.3076 33.9933 48.2814 33.9802L48.2881 33.9737Z" fill="#611B19"/>
<path d="M47.7684 64.891C47.8394 65.4985 47.564 65.8197 46.9421 65.8547C46.4557 65.8809 45.9693 65.9071 45.4962 65.9333C45.3362 65.5203 45.183 62.2817 45.2896 61.6589C45.8093 61.6327 46.3424 61.6065 46.8888 61.5803C46.9421 61.8425 46.9887 62.0457 47.0354 62.2817C47.1687 62.2949 47.3019 62.3145 47.4352 62.3145C48.2615 62.2817 49.0877 62.249 49.9073 62.2162C50.2005 62.2031 50.3515 62.0436 50.3604 61.7376C50.3604 61.6721 50.3804 61.5999 50.4004 61.4819C50.9268 61.377 51.4599 61.3967 52.0596 61.3836C52.2262 62.7931 52.1795 64.1829 52.2995 65.6318C51.4599 65.6711 50.7003 65.7104 49.9007 65.7563C49.6608 65.0549 49.8673 64.3468 49.6874 63.6781H47.7884C47.775 63.9928 47.7617 64.2616 47.7417 64.5304C47.875 64.6484 47.855 64.773 47.7484 64.9041L47.7684 64.891Z" fill="#FDFEFC"/>
<path d="M48.568 59.5349C48.1482 59.9872 47.7484 60.3806 47.3952 60.8001C47.1154 61.1279 46.8155 61.3049 46.3624 61.2984C45.7694 61.2853 45.1763 61.3508 44.5966 61.377C44.5699 61.318 44.5566 61.2984 44.5566 61.2853C44.5566 61.2722 44.5566 61.2459 44.5566 61.2394C44.6166 61.1541 44.6766 61.0689 44.7499 60.9968C45.9426 59.725 47.1287 58.4466 48.3214 57.1813C48.3547 57.1485 48.4147 57.1354 48.528 57.0895C49.9273 58.3548 51.3399 59.6266 52.8392 60.9837C52.5993 61.023 52.486 61.0492 52.3728 61.0558C51.8464 61.082 51.32 61.0951 50.7935 61.1345C50.4937 61.1541 50.2538 61.0755 50.0339 60.8657C49.5808 60.4396 49.101 60.0265 48.568 59.548V59.5349Z" fill="#FDFDFB"/>
<path d="M47.7684 64.891C47.7684 64.7664 47.7684 64.6418 47.7617 64.5173C47.835 64.537 47.915 64.5763 47.9883 64.5632C48.1482 64.5435 48.2948 64.5501 48.2748 64.7402C48.2548 64.9237 48.1015 64.9041 47.9549 64.8516C47.9083 64.832 47.835 64.8779 47.7684 64.891Z" fill="#FCFBFB"/>
<path d="M34.3216 9.66466H36.254V11.0152H37.6267V12.9229H36.274V14.28H34.3416V12.9557H32.9223V11.0348H34.2883C34.3017 10.5497 34.315 10.1105 34.3283 9.66466H34.3216Z" fill="#6FB137"/>
<path d="M34.6282 35.6454C34.315 35.357 33.9951 35.1144 33.7286 34.8194C33.502 34.5637 33.2822 34.2752 33.1489 33.9671C32.9623 33.5213 33.3088 33.1476 33.7819 33.2722C34.0418 33.3378 34.3017 33.4885 34.5082 33.659C35.2678 34.2884 35.2479 34.2818 35.9875 33.6721C36.1941 33.5017 36.4606 33.3771 36.7138 33.2722C36.9204 33.187 37.1336 33.2525 37.2869 33.423C37.4401 33.5934 37.4468 33.7967 37.3602 34.0065C37.1469 34.4981 36.7804 34.8653 36.3873 35.2127C36.234 35.3504 36.0675 35.475 35.9142 35.5995C36.1541 36.3207 36.6805 36.7861 37.3468 36.8058C38.0598 36.8255 38.5929 36.4977 38.9327 35.8814C38.986 35.7896 39.0127 35.6847 39.066 35.5995C39.2126 35.3701 39.4658 35.2914 39.7057 35.3701C39.9789 35.4684 40.1255 35.6913 40.0655 35.9863C40.0322 36.1371 39.9655 36.2813 39.8922 36.419C39.0527 38.0186 36.927 38.3792 35.601 37.1532C35.5011 37.0615 35.4078 36.95 35.2945 36.8255C35.1546 36.9566 35.0346 37.068 34.9147 37.1795C33.3555 38.5628 31.2498 37.7498 30.5835 36.2879C30.5302 36.1633 30.4769 36.0256 30.4702 35.8945C30.4502 35.6454 30.5835 35.4684 30.8234 35.3766C31.0699 35.2848 31.2765 35.357 31.4364 35.5471C31.523 35.652 31.5563 35.7962 31.6296 35.9142C31.9895 36.5108 32.5225 36.8517 33.2355 36.7927C33.9552 36.7337 34.3949 36.2944 34.6415 35.652L34.6282 35.6454Z" fill="#631F1F"/>
<path d="M72.0231 67.2511C72.0231 67.2511 68.1783 62.7341 66.6391 60.9247L61.5749 58.381L62.6277 68.7851L69.431 69.0801L72.0298 67.2511H72.0231Z" fill="#F8D58E"/>
<path d="M63.5606 54.7557H6.96843C6.07049 54.7557 5.34257 55.4718 5.34257 56.3553V70.4306C5.34257 71.3141 6.07049 72.0303 6.96843 72.0303H63.5606C64.4585 72.0303 65.1865 71.3141 65.1865 70.4306V56.3553C65.1865 55.4718 64.4585 54.7557 63.5606 54.7557Z" fill="white"/>
<path d="M63.5606 55.739C63.9071 55.739 64.187 56.0144 64.187 56.3553V70.4306C64.187 70.7715 63.9071 71.0469 63.5606 71.0469H6.96843C6.62194 71.0469 6.34208 70.7715 6.34208 70.4306V56.3553C6.34208 56.0144 6.62194 55.739 6.96843 55.739H63.5606ZM63.5606 53.7723H6.96843C5.51581 53.7723 4.34306 54.9261 4.34306 56.3553V70.4306C4.34306 71.8598 5.51581 73.0136 6.96843 73.0136H63.5606C65.0132 73.0136 66.186 71.8598 66.186 70.4306V56.3553C66.186 54.9261 65.0132 53.7723 63.5606 53.7723Z" fill="#621C1A"/>
<path d="M49.5608 51.9891C49.5475 51.8121 49.5342 51.6351 49.5208 51.4515C49.4942 51.0057 49.4609 50.5403 49.3809 50.0551C48.9145 47.1312 47.0954 45.5775 44.1302 45.5578C42.8375 45.5382 41.5514 45.9053 40.3187 46.6395C38.7795 47.5639 37.6333 48.8423 36.6205 50.0945C36.5872 50.1338 36.5406 50.1994 36.4872 50.278C36.1541 50.1141 35.8076 50.0289 35.4611 50.0092C35.028 49.9896 34.6082 50.0813 34.2084 50.278C34.1617 50.2059 34.1084 50.1338 34.0551 50.0682C33.3221 49.1963 32.4892 48.2064 31.4231 47.3803C29.8438 46.1544 28.098 45.5578 26.2456 45.6168C23.8335 45.6889 22.0543 47.0788 21.4813 49.3405C21.308 50.0223 21.2214 50.691 21.2148 51.327C21.2081 52.1858 21.2148 53.2019 21.348 54.2181C21.5679 55.9357 22.6474 57.1813 24.3865 57.7254C25.0329 57.9287 25.7059 58.0336 26.3855 58.0336C27.1052 58.0336 27.8448 57.9156 28.5845 57.6861C30.4036 57.1158 31.8495 56.0799 33.2555 55.0703L33.7486 54.7229C34.215 55.09 34.7614 55.2801 35.3411 55.2867H35.3678C35.9608 55.2867 36.5406 55.0834 37.0137 54.7098C37.1136 54.8081 37.2202 54.8933 37.3402 54.9654C37.64 55.1621 37.9399 55.3588 38.2397 55.562L38.273 55.5882C38.8927 56.0078 39.5391 56.4405 40.2321 56.8339C42.0912 57.8762 43.8436 58.2171 45.5828 57.8697C48.4014 57.3124 49.2143 55.4571 49.4009 53.9952C49.4542 53.5756 49.4875 53.1495 49.5142 52.7758L49.5608 52.1071V51.9891Z" fill="#621C1A"/>
<path d="M48.0282 52.1136C47.9816 52.6971 47.9549 53.2478 47.8816 53.7985C47.6817 55.3391 46.7689 56.0865 45.2829 56.3815C43.7304 56.6896 42.3111 56.2504 40.9917 55.5096C40.0188 54.9654 39.1126 54.2967 38.1731 53.6936C37.9865 53.569 37.9065 53.4314 37.9665 53.2216C38.1398 52.625 38.0198 52.0546 37.7799 51.504C37.7 51.3269 37.7 51.1827 37.8266 51.0254C38.7795 49.8453 39.7923 48.7177 41.1183 47.9179C42.0379 47.3672 43.0507 47.046 44.1168 47.0525C46.1958 47.0657 47.5085 48.0097 47.8683 50.278C47.9683 50.8877 47.9816 51.5171 48.0282 52.1071V52.1136Z" fill="#E79314"/>
<path d="M32.8024 53.5166C31.3031 54.5852 29.8705 55.6866 28.118 56.2373C27.0386 56.5782 25.9391 56.6175 24.853 56.2766C23.7269 55.9226 23.0205 55.1687 22.8739 54.0214C22.7607 53.1364 22.7473 52.2317 22.754 51.3335C22.754 50.7894 22.8406 50.2321 22.9739 49.6946C23.3804 48.0753 24.5998 47.164 26.2923 47.1116C27.8848 47.0657 29.2441 47.6032 30.4769 48.5538C31.3964 49.2684 32.1427 50.1404 32.8824 51.0188C32.989 51.1499 33.0489 51.2745 32.9623 51.445C32.6291 52.094 32.6025 52.7692 32.8024 53.51V53.5166Z" fill="#E79314"/>
<path d="M34.2417 52.625C34.2483 52.0153 34.7947 51.4908 35.3945 51.5171C36.0075 51.5433 36.5006 52.0809 36.4806 52.6971C36.4606 53.2871 35.9475 53.7788 35.3545 53.7723C34.7414 53.7657 34.235 53.2478 34.2483 52.6185L34.2417 52.625Z" fill="#6CAB2F"/>
<path d="M13.0188 57.1682C13.1521 56.2242 13.0788 53.3199 8.22781 49.9896C7.94129 49.7929 7.63477 49.6421 7.30827 49.5307C6.0822 49.1176 4.64957 49.3209 3.38353 50.101C1.58442 51.2024 0.378342 53.2347 0.0651625 55.68C-0.327977 58.7809 1.07133 61.1083 3.89661 62.0654C4.64957 62.3211 5.4825 62.4719 6.38206 62.5178C8.24114 62.6161 10.0936 61.9933 11.333 60.8591C12.3791 59.902 12.9588 58.6301 13.0188 57.1682Z" fill="#621C1A"/>
<path d="M7.78137 57.5419C7.90131 57.2796 8.21449 57.1485 8.48102 57.2731C9.32727 57.6337 10.2935 58.1975 11.0797 58.6892C11.2063 58.44 11.2996 58.1647 11.3663 57.8631C10.6999 57.3845 9.93364 56.8797 9.2673 56.5323C9.00743 56.4012 8.90748 56.0799 9.04075 55.8243C9.17402 55.5686 9.50052 55.4702 9.76039 55.6014C10.3135 55.8898 10.9198 56.2701 11.4862 56.6568C11.4596 55.8374 10.9731 53.7526 7.26162 51.209C5.50249 50.0027 2.12415 51.7269 1.59108 55.8833C1.06467 60.0397 4.41636 60.8985 6.45535 61.0034C7.76804 61.0689 9.42722 60.6559 10.4734 59.548C9.72708 59.0825 8.82086 58.558 8.0479 58.2302C7.78137 58.1122 7.65476 57.8041 7.7747 57.5419H7.78137Z" fill="#F7D38E"/>
<path d="M58.0233 57.1682C57.8901 56.2242 57.9634 53.3199 62.8143 49.9896C63.1008 49.7929 63.4073 49.6421 63.7338 49.5307C64.9599 49.1176 66.3925 49.3209 67.6586 50.101C69.4577 51.2024 70.6638 53.2347 70.977 55.68C71.3701 58.7809 69.9708 61.1083 67.1455 62.0654C66.3925 62.3211 65.5596 62.4719 64.6601 62.5178C62.801 62.6161 60.9486 61.9933 59.7092 60.8591C58.663 59.902 58.0833 58.6301 58.0233 57.1682Z" fill="#621C1A"/>
<path d="M63.2674 57.5419C63.1475 57.2796 62.8343 57.1485 62.5678 57.2731C61.7215 57.6337 60.7553 58.1975 59.969 58.6892C59.8424 58.44 59.7491 58.1647 59.6825 57.8631C60.3488 57.3845 61.1151 56.8797 61.7815 56.5323C62.0413 56.4012 62.1413 56.0799 62.008 55.8243C61.8748 55.5686 61.5483 55.4702 61.2884 55.6014C60.7353 55.8898 60.129 56.2701 59.5626 56.6568C59.5892 55.8374 60.0756 53.7526 63.7872 51.209C65.5463 50.0027 68.9246 51.7269 69.4577 55.8833C69.9841 60.0397 66.6324 60.8985 64.5934 61.0034C63.2807 61.0689 61.6216 60.6559 60.5754 59.548C61.3217 59.0825 62.2279 58.558 63.0009 58.2302C63.2674 58.1122 63.394 57.8041 63.2741 57.5419H63.2674Z" fill="#F7D38E"/>
<path d="M21.428 60.6428C22.7873 60.6428 23.527 61.2853 23.527 62.4981C23.527 63.7109 22.7473 64.4386 21.4013 64.4386H19.9421V66.2218C19.9421 66.5234 19.7355 66.7004 19.3557 66.7004C18.9759 66.7004 18.7426 66.5234 18.7426 66.2218V61.6589C18.7426 60.9247 19.0492 60.6428 19.7688 60.6428H21.428ZM21.3547 63.4028C21.9544 63.4028 22.2809 63.0881 22.2809 62.5178C22.2809 61.9474 21.9477 61.6721 21.3547 61.6721H20.1553C20.0153 61.6721 19.9421 61.7769 19.9421 61.9146V63.4094H21.3547V63.4028Z" fill="#621C1A"/>
<path d="M27.6116 66.3529L27.1718 65.1401H24.8396L24.4065 66.3529C24.3266 66.602 24.1267 66.6938 23.9001 66.6938C23.8268 66.6938 23.7535 66.6807 23.6802 66.6676C23.407 66.5955 23.2071 66.4054 23.2071 66.1562C23.2071 66.0972 23.2204 66.0382 23.2471 65.9727L25.1195 61.1738C25.2861 60.7542 25.6059 60.5838 26.0124 60.5838C26.4189 60.5838 26.7387 60.7608 26.9053 61.1738L28.7844 65.9989C28.8044 66.0645 28.8243 66.1235 28.8243 66.1825C28.8243 66.4971 28.4978 66.7004 28.1247 66.7004C27.8848 66.7004 27.6982 66.5955 27.6183 66.3464L27.6116 66.3529ZM26.812 64.0912L26.3056 62.6685C26.1856 62.3473 26.0857 61.9933 25.9991 61.6327C25.9124 61.9998 25.8192 62.3276 25.6992 62.662L25.1795 64.0977H26.8053L26.812 64.0912Z" fill="#621C1A"/>
<path d="M29.0043 63.6322C29.0043 61.9343 29.8705 60.5117 31.8229 60.5117C33.2555 60.5117 33.8885 61.3377 34.1151 61.8163C34.1551 61.895 34.1751 61.9671 34.1751 62.0457C34.1751 62.2817 33.9752 62.4653 33.7486 62.5309C33.642 62.5702 33.542 62.5833 33.4421 62.5833C33.2355 62.5833 33.0623 62.5046 32.9557 62.2817C32.7757 61.9277 32.4826 61.5934 31.8162 61.5934C30.7767 61.5934 30.2703 62.4194 30.2703 63.6388C30.2703 65.0155 30.89 65.7039 31.8762 65.7039C32.6958 65.7039 33.2022 65.1598 33.2022 64.6681V64.5828C33.2022 64.4714 33.1755 64.4058 33.0556 64.4058H32.2693C31.9695 64.4058 31.8162 64.1895 31.8162 63.8945C31.8162 63.5995 31.9695 63.3635 32.2693 63.3635H33.3754C34.0818 63.3635 34.2883 63.5798 34.2883 64.2682V66.2808C34.2883 66.5758 34.1151 66.7594 33.7553 66.7594C33.3954 66.7594 33.2355 66.5758 33.2355 66.4185V66.3529C33.2355 66.3529 33.2355 66.2808 33.2422 66.2415C33.1822 66.3136 33.0956 66.4054 33.0023 66.4578C32.6958 66.661 32.2693 66.7922 31.8162 66.7922C29.9904 66.7922 29.0043 65.5203 29.0043 63.6454V63.6322Z" fill="#621C1A"/>
<path d="M39.1659 60.6428C39.4658 60.6428 39.6124 60.8722 39.6124 61.1673C39.6124 61.4623 39.4658 61.6983 39.1659 61.6983H36.6738C36.5272 61.6983 36.4539 61.7835 36.4539 61.954V63.0226H38.7928C39.0926 63.0226 39.2392 63.2389 39.2392 63.5339C39.2392 63.8289 39.086 64.0584 38.7928 64.0584H36.4539V65.3433C36.4539 65.4875 36.5605 65.5597 36.7071 65.5597H39.2659C39.5591 65.5597 39.7123 65.8022 39.7123 66.0907C39.7123 66.3791 39.5591 66.6348 39.2659 66.6348H36.294C35.5677 66.6348 35.2678 66.3332 35.2678 65.6187V61.6458C35.2678 60.9247 35.5677 60.6297 36.294 60.6297H39.1726L39.1659 60.6428Z" fill="#621C1A"/>
<path d="M44.4034 66.2284V61.7573H42.8974C42.6042 61.7573 42.4576 61.4819 42.4576 61.1804C42.4576 60.8788 42.6042 60.6362 42.8974 60.6362H47.1353C47.4352 60.6362 47.5751 60.8854 47.5751 61.1804C47.5751 61.4754 47.4285 61.7573 47.1353 61.7573H45.6427V66.2284C45.6427 66.5234 45.4095 66.6938 45.0231 66.6938C44.6366 66.6938 44.4034 66.5168 44.4034 66.2284Z" fill="#621C1A"/>
<path d="M47.9883 63.6322C47.9883 61.7376 49.0744 60.5117 50.8202 60.5117C52.566 60.5117 53.6321 61.7442 53.6321 63.6257C53.6321 65.5072 52.5527 66.7856 50.8269 66.7856C49.101 66.7856 47.9883 65.5597 47.9883 63.6322ZM52.3661 63.5864C52.3661 62.367 51.7864 61.5803 50.8135 61.5803C49.8407 61.5803 49.2543 62.3604 49.2543 63.6257C49.2543 64.891 49.8473 65.6973 50.8135 65.6973C51.7797 65.6973 52.3661 64.9172 52.3661 63.5864Z" fill="#621C1A"/>
<path d="M57.1637 60.6428C58.5231 60.6428 59.2627 61.2853 59.2627 62.4981C59.2627 63.7109 58.4831 64.4386 57.1371 64.4386H55.6778V66.2218C55.6778 66.5234 55.4712 66.7004 55.0914 66.7004C54.7116 66.7004 54.4784 66.5234 54.4784 66.2218V61.6589C54.4784 60.9247 54.7849 60.6428 55.5046 60.6428H57.1637ZM57.0904 63.4028C57.6902 63.4028 58.0167 63.0881 58.0167 62.5178C58.0167 61.9474 57.6835 61.6721 57.0904 61.6721H55.891C55.7511 61.6721 55.6778 61.7769 55.6778 61.9146V63.4094H57.0904V63.4028Z" fill="#621C1A"/>
<path d="M16.8902 63.6388L14.0383 60.846C13.9317 60.7411 13.7851 60.6821 13.6318 60.6821C13.4852 60.6625 13.332 60.7411 13.2187 60.8526L10.3934 63.6454C10.1669 63.8683 10.1669 64.2288 10.3934 64.4517C10.5067 64.5632 10.6533 64.6156 10.7999 64.6156C10.9465 64.6156 11.0997 64.5566 11.213 64.4452L13.0588 62.6226V66.2087C13.0588 66.5234 13.3186 66.779 13.6385 66.779C13.9583 66.779 14.2182 66.5234 14.2182 66.2087V62.6423L16.064 64.4517C16.2905 64.6746 16.657 64.6746 16.8836 64.4517C17.1101 64.2288 17.1101 63.8683 16.8836 63.6454L16.8902 63.6388Z" fill="#621C1A"/>
</svg>
