<svg width="72" height="91" viewBox="0 0 72 91" fill="none" xmlns="http://www.w3.org/2000/svg">
<path d="M67.314 16.9759L71.0562 17.1115C71.4118 17.1115 71.7166 17.1963 71.869 17.4674C72.0553 17.8064 71.9875 18.1285 71.7336 18.4335C69.6 21.0098 67.1277 23.2132 64.5031 25.264C64.266 25.4505 64.012 25.5861 63.7411 25.5183C63.5379 25.4674 63.2331 25.3318 63.1654 25.0098C62.234 19.942 59.9819 15.264 56.6461 11.3657C56.3582 11.0268 56.5106 10.5352 56.8493 10.3318C57.5435 9.90812 58.1701 9.48439 58.7458 8.92507C59.5416 8.14541 60.2867 7.3488 60.981 6.46744C61.218 6.16235 61.5398 6.04371 61.8954 6.16235C62.9452 6.48439 61.8446 8.16235 62.6743 10.2979C63.0976 11.3657 64.012 11.9759 65.1465 11.8234C67.314 11.5183 69.6846 9.36574 70.4128 10.4505C70.5652 10.6708 70.599 10.9929 70.4128 11.2979L67.0769 16.5691C67.0769 16.5691 67.0261 16.7725 67.0261 16.8234C67.0261 16.8912 67.1616 16.9929 67.3309 17.0098L67.314 16.9759Z" fill="#601818"/>
<path d="M65.7731 15.8742C65.4344 16.4166 65.4005 17.0437 65.7223 17.62C65.9255 17.9759 66.4165 18.3827 66.9923 18.4166L69.6677 18.5861C68.0252 20.3996 66.2811 21.9759 64.3845 23.4844C63.3178 18.9081 61.3196 14.7895 58.3902 11.1454C59.3385 10.4674 60.0835 9.75558 60.8794 8.92507C61.0826 11.3996 62.5388 13.5352 65.1465 13.3149C66.0948 13.2302 66.9415 12.8912 67.8728 12.4844L65.79 15.8742H65.7731Z" fill="#FFCF03"/>
<path d="M45.8257 80.0776C45.013 83.9081 41.8464 89.1285 37.7655 89.9251C35.6997 90.3318 33.7693 89.3997 32.8041 87.5522C31.6357 85.3488 31.6696 82.1793 31.8051 79.7217C31.5511 79.6539 31.314 79.6878 31.06 79.6878C30.6705 79.6878 30.3657 79.5013 30.2303 79.1285L27.4532 71.603L24.5068 78.4335C24.3206 78.8742 24.0158 79.0776 23.4739 79.0946C23.6771 81.7725 23.7618 85.1963 22.5257 87.5691C21.6621 89.1963 20.0195 90.1285 18.1738 89.9759C16.616 89.8573 15.2613 89.1285 14.0929 88.0607C11.5021 85.6878 9.89348 82.5183 9.31775 79.0268H7.2519C6.93017 78.9929 6.64231 78.8064 6.55764 78.4674C5.59245 73.959 5.18605 69.4166 5.37231 64.7725C4.49179 64.1285 3.69593 63.4844 2.90007 62.7386C2.663 62.5183 2.57834 62.2132 2.67993 61.8912C3.61126 59.3149 4.42406 56.7725 5.10138 54.0607C3.23873 52.1793 2.44287 49.4844 2.54447 46.8573C2.5614 45.8742 2.663 44.942 2.7646 43.959C2.79847 43.6539 3.0694 43.5183 3.30646 43.3657C3.45886 42.1454 3.50966 40.8403 3.54353 39.5861C2.409 38.2302 1.59621 36.7725 1.02048 35.1115C-1.3671 28.0437 0.512484 19.9759 5.84644 14.6878C6.25284 11.1454 6.87937 7.67083 7.87843 4.2471C8.21709 3.09456 8.57269 2.02676 9.19922 1.04371C9.89348 -0.0749333 11.1973 -0.329171 12.2472 0.45049C13.3309 1.19625 14.2114 2.11151 15.1597 3.04371C16.7684 4.63693 18.3093 6.2132 19.8333 7.89117C26.3695 6.97591 32.838 6.95897 39.3234 7.89117C41.3215 5.72168 43.3535 3.60303 45.521 1.58608C46.0289 1.11151 46.52 0.687779 47.0957 0.365745C48.1287 -0.312221 49.314 0.0437108 49.9575 1.06066C51.6677 3.77252 52.9377 11.3488 53.3102 14.7047C58.3902 19.9251 60.456 27.3488 58.3733 34.3657C57.7467 36.4844 56.7307 38.3488 55.2745 39.9759C55.3591 41.1285 55.3083 42.2302 55.5285 43.3488C55.6131 43.5522 56.0195 43.6539 56.0534 43.9929L56.2566 46.3488C58.1193 45.2302 59.7618 43.4674 60.1682 41.298C60.2359 40.9081 60.473 40.6369 60.8116 40.603C61.9292 40.4844 61.7599 42.1454 61.8615 42.9929C62.5388 42.3827 62.6743 41.0268 63.5548 41.2471C63.9443 41.3488 64.1983 41.6708 64.1305 42.0776L63.9443 43.281C63.9104 43.5183 64.1983 43.5013 64.3168 43.6539C67.5341 47.5691 69.4306 52.3996 69.6 57.5013C69.7862 63.603 67.4833 69.5861 62.5388 73.281C58.5595 76.2641 53.5473 77.5861 48.6028 76.942L47.7561 79.62C47.5021 80.4166 46.3845 79.9081 45.8427 80.1115L45.8257 80.0776Z" fill="#601818"/>
<path d="M61.9631 45.1963C62.0647 44.9929 62.1832 45.1963 62.0816 45.3827C62.0816 45.7047 62.234 46.0268 62.4711 46.1454C63.1823 46.4674 63.4024 45.8234 63.8257 45.4335C68.1776 51.1963 69.4814 59.1624 66.552 65.8742C65.2143 68.9081 63.0638 71.3827 60.202 73.0776C56.8154 75.0946 52.87 75.9929 48.9415 75.4844C49.7035 72.4166 50.1099 69.4335 50.2792 66.3827C51.4984 65.7386 52.5652 65.0776 53.632 64.298C53.869 64.1454 53.9876 63.9251 53.9876 63.62L53.2086 54.5522C55.139 52.9251 56.0365 50.62 56.2566 48.1285C57.6621 47.3488 58.8643 46.4505 59.9142 45.2302C59.9819 45.5861 60.0666 45.8742 60.3375 46.0098C60.6084 46.1454 60.9132 46.1285 61.1672 45.9251L61.9631 45.2302V45.1963Z" fill="#FFDA8F"/>
<path d="M62.0816 45.3827C62.0816 45.3827 62.0478 45.1624 61.9631 45.1963C62.0139 45.1454 61.997 44.9929 62.1494 44.9759C62.1832 45.1454 62.2171 45.3149 62.0816 45.3827Z" fill="#AF7953"/>
<path d="M16.108 42.9251C13.8897 45.7386 7.37043 46.0437 4.67805 44.1624C4.98285 41.4335 4.98285 38.8064 4.91512 36.0946C4.88125 35.2471 5.18605 34.4335 5.82951 33.8742C5.96498 34.4166 6.86244 36.3149 7.5059 35.8573C8.20016 35.3657 6.64231 34.8403 6.64231 33.4335C7.03177 33.1963 7.48897 33.1454 7.98003 33.1285C8.13243 33.5861 9.11455 35.4674 9.67335 34.8064C10.1136 34.298 9.02989 33.9081 8.96216 33.1793C13.2971 33.9759 15.346 39.1115 16.1249 42.9081L16.108 42.9251Z" fill="#FFDA8F"/>
<path d="M8.35256 54.3996C4.64419 53.2302 3.54353 48.9929 4.06846 45.5013C7.4551 47.4166 13.2463 47.1624 16.3281 44.7047C17.0054 47.1793 17.3102 49.3488 16.0572 51.6878C14.584 54.4166 11.0957 55.264 8.35256 54.3996Z" fill="white"/>
<path d="M52.9716 33.8912C53.6658 34.4166 53.9368 35.3149 53.9029 36.2132C53.8182 38.8742 53.8352 41.4844 54.123 44.1793C53.632 44.5352 53.1748 44.7217 52.616 44.8912C50.1098 45.603 47.4175 45.5352 44.996 44.5522C44.0816 44.1793 43.3027 43.6708 42.6931 42.8912C43.5059 39.0098 45.5548 33.9759 49.8559 33.1963C49.7373 33.9251 48.6028 34.3827 49.1785 34.8573C49.7542 35.3318 50.6517 33.6708 50.7872 33.1454C51.2444 33.0946 51.6846 33.1963 52.1418 33.3827C52.1757 34.8403 50.7025 35.2302 51.2274 35.7895C51.8032 36.3996 52.8022 34.5522 52.9546 33.8742L52.9716 33.8912Z" fill="#FFDA8F"/>
<path d="M54.7495 45.5013C55.3253 49.2471 53.9706 53.7725 49.7542 54.5861C47.1973 55.0776 44.234 54.2471 42.8624 51.8912C41.4908 49.4335 41.7618 47.3318 42.4899 44.7047C45.5379 47.1624 51.346 47.4335 54.7495 45.5183V45.5013Z" fill="white"/>
<path d="M30.4673 43.8064C29.7053 43.5691 29.0619 43.5013 28.3168 43.8234L26.759 42.0098C28.4692 42.1963 30.1117 42.264 31.8897 42.0607L30.4673 43.8064Z" fill="#FFD98F"/>
<path d="M29.0619 45.1285C29.6715 44.942 30.2472 45.3149 30.3996 45.8742C30.552 46.4335 30.2472 47.0268 29.6207 47.1963C29.1296 47.3318 28.5539 47.0607 28.3507 46.5352C28.1475 46.0098 28.4015 45.3318 29.0449 45.1285H29.0619Z" fill="#6EB72B"/>
<path d="M41.6771 41.0607C40.7119 39.942 39.4758 39.3488 37.8333 39.298C38.9509 37.7725 39.425 36.0437 39.0694 34.1624C38.4259 30.7895 36.3432 26.8403 33.2782 25.0776C30.8737 23.7047 27.9951 23.7895 25.6752 25.281C22.7627 27.1454 20.7138 30.8573 20.0703 34.1793C19.7655 36.0776 20.1719 37.8573 21.4081 39.3827C19.6978 39.281 18.2246 39.8064 17.124 41.0437C16.5144 39.0607 15.837 37.3149 14.7364 35.7047C13.6357 34.0776 12.1795 32.8064 10.3337 32.1285C7.13337 30.9759 3.83139 32.5691 3.59433 35.1115L3.44193 36.9081C2.34127 34.9759 1.76554 32.8912 1.56234 30.6708C1.02048 24.9081 3.10327 19.3318 7.26883 15.3827C7.6583 11.62 8.31869 8.00981 9.36855 4.45049C9.63948 3.53524 9.94428 2.70473 10.4184 1.90812C10.6047 1.55219 10.9603 1.41659 11.3159 1.63693C12.9753 2.67083 17.4965 7.51829 19.0205 9.19625C19.2067 9.38269 19.4099 9.48439 19.6809 9.43354C26.2848 8.45049 32.9565 8.45049 39.5605 9.43354C39.8145 9.46744 40.0007 9.3488 40.1531 9.19625C41.6602 7.53524 46.2321 2.63693 47.8747 1.61998C48.2133 1.39964 48.552 1.53524 48.7552 1.87422C50.3469 4.51829 51.6 12.0437 51.9048 15.3318C52.87 16.3488 53.7166 17.3318 54.5125 18.5013C57.5266 22.942 58.4749 28.4505 57.0694 33.6369C56.6969 35.0268 56.1381 36.281 55.3591 37.4505L55.2745 35.3657C55.2237 33.8912 54.2416 32.7386 52.8869 32.1624C49.5511 30.7217 45.8257 32.9251 44.0139 35.8064C42.964 37.3827 42.3206 39.0776 41.694 41.0437L41.6771 41.0607Z" fill="#FFDA8F"/>
<path d="M47.7392 26.5861C48.0948 28.3996 46.9095 30.2132 46.4015 29.7895C46.3168 29.7217 46.2491 29.5183 46.3676 29.3827C47.8577 27.8064 46.6893 26.3318 47.4175 26.3149C47.5529 26.3149 47.7053 26.3827 47.7392 26.5861Z" fill="#621B1A"/>
<path d="M11.5021 26.6878C11.0957 28.7895 12.7213 29.3318 12.2303 29.7895C11.7392 30.2471 10.52 28.4674 10.8925 26.5691C10.9264 26.3657 11.1127 26.2641 11.2651 26.298C11.4344 26.3318 11.5529 26.5013 11.5021 26.6878Z" fill="#621A19"/>
<path d="M46.3168 26.3657C47.2989 26.2641 46.2491 29.5013 45.4702 28.9081C45.3686 28.8403 45.3347 28.603 45.4702 28.4674C46.4692 27.3488 45.775 26.4335 46.3168 26.3657Z" fill="#621B1A"/>
<path d="M12.5689 26.7556C12.5181 28.298 13.5003 28.4166 13.2124 28.8573C12.6028 29.7556 11.2651 26.281 12.3149 26.3657C12.5012 26.3657 12.5689 26.5352 12.5689 26.7556Z" fill="#621B1A"/>
<path d="M44.0816 17.9251C42.8455 19.8064 39.7975 20.1963 39.1202 18.8234C38.8831 18.3488 38.9509 17.7895 39.2726 17.3318C40.5595 15.5183 43.489 15.1624 44.1832 16.4844C44.4034 16.9081 44.3864 17.4335 44.0816 17.9251Z" fill="#601818"/>
<path d="M43.4212 16.8573C43.8276 17.5352 42.1343 19.0268 40.3733 18.7556C40.1362 18.7217 39.933 18.603 39.8822 18.4674C39.7975 18.2641 39.8145 17.9759 39.9838 17.7725C41.0167 16.4505 43.0656 16.281 43.4212 16.8742V16.8573Z" fill="white"/>
<path d="M48.2811 13.0776C46.3845 12.7725 44.505 11.3827 43.0995 10.2132C42.8116 9.97591 42.7608 9.65388 42.981 9.33185C44.1832 7.55219 45.7919 6.14541 47.7223 5.2132C48.0101 5.12846 48.2811 5.2132 48.3996 5.50134C49.314 7.77252 49.4833 10.2302 48.9415 12.6369C48.8737 12.942 48.6367 13.1454 48.2811 13.0946V13.0776Z" fill="#601818"/>
<path d="M47.9932 11.9759C46.4692 11.5013 45.2331 10.62 44.0308 9.63693C44.996 8.29795 46.1983 7.2132 47.6207 6.43354C48.1964 8.23015 48.3657 10.0607 47.9932 11.9759Z" fill="#F77272"/>
<path d="M15.9556 10.1285C14.6009 11.3318 12.5012 12.8234 10.6724 13.0776C10.3845 13.1115 10.1644 12.9759 10.0628 12.7217C9.50402 10.2979 9.67335 7.78947 10.5877 5.46744C10.7401 5.2132 11.0111 5.07761 11.2989 5.2132C13.2463 6.16235 14.8718 7.60303 16.0741 9.41659C16.2265 9.63693 16.1757 9.94202 15.9725 10.1115L15.9556 10.1285Z" fill="#601818"/>
<path d="M14.9226 9.61998C13.7204 10.6539 12.4504 11.5013 10.9603 11.9759C10.6047 10.1115 10.7401 8.26405 11.3328 6.45049C12.7383 7.2132 13.8897 8.2471 14.9226 9.61998Z" fill="#F77272"/>
<path d="M19.2237 18.942C18.5294 20.3827 15.4306 19.7556 14.33 17.7217C14.076 17.264 14.059 16.7386 14.33 16.2641C15.0581 15.0098 18.0045 15.5691 19.1559 17.5352C19.4099 17.9759 19.4438 18.4844 19.2406 18.9251L19.2237 18.942Z" fill="#601818"/>
<path d="M18.4617 18.5522C18.2077 19.1963 16.0233 18.9251 15.075 17.3488C14.9565 17.1624 14.9396 16.9251 15.0242 16.7386C15.2952 16.1115 17.4796 16.3827 18.4278 17.959C18.5294 18.1285 18.5463 18.3827 18.4786 18.5522H18.4617Z" fill="#FFFEFE"/>
<path d="M41.1522 23.0098C43.1164 22.7556 44.759 24.1285 45.013 25.959C45.2669 27.7895 43.9462 29.5691 42.0835 29.8234C40.2209 30.0776 38.5106 28.7895 38.2227 26.959C37.9349 25.1285 39.171 23.281 41.1691 23.0098H41.1522Z" fill="#601818"/>
<path d="M40.949 24.1115C42.3206 23.7386 43.5736 24.5183 43.9292 25.8064C44.2848 27.0946 43.5228 28.3488 42.2698 28.7217C41.0167 29.0946 39.7129 28.3827 39.3234 27.0946C38.9509 25.8912 39.6113 24.4844 40.9659 24.1115H40.949Z" fill="white"/>
<path d="M16.362 23.0098C18.3262 22.7217 20.0026 24.0946 20.2566 25.9081C20.5275 27.8064 19.2237 29.5352 17.361 29.8064C15.4984 30.0776 13.7712 28.8064 13.4664 26.9759C13.1616 25.1454 14.3808 23.2979 16.362 22.9929V23.0098Z" fill="#601818"/>
<path d="M16.1588 24.1285C17.5304 23.7386 18.8173 24.5183 19.1729 25.7895C19.5285 27.0607 18.7834 28.3488 17.5642 28.7047C16.345 29.0607 14.9734 28.3827 14.567 27.1115C14.1945 25.9081 14.821 24.5013 16.1588 24.1115V24.1285Z" fill="white"/>
<path d="M33.346 40.8573C30.6367 41.2979 27.8088 41.4674 25.1842 40.62C24.5238 40.4166 23.8464 39.9929 23.2707 39.6539C21.4081 38.5352 20.6461 36.3488 21.0525 34.2471C21.6621 31.1115 23.711 27.4505 26.5727 25.8742C28.5369 24.7725 30.8568 24.7895 32.8041 25.9251C35.615 27.5522 37.5623 31.2979 38.1211 34.3827C38.4767 36.3657 37.7486 38.281 36.1738 39.4844C35.124 39.7556 34.2434 40.1115 33.346 40.8573Z" fill="white"/>
<path d="M32.0252 31.4335C32.1099 33.3657 32.4316 37.8234 29.9255 38.1963C28.2491 38.4505 27.3008 36.5522 26.9622 35.0776C26.6912 33.8912 26.7759 32.7047 26.8944 31.4844C25.8954 31.2979 25.0826 30.6708 24.7778 29.7386C24.6762 29.4166 24.8624 29.1285 25.1164 29.0607C25.4043 28.9929 25.6414 29.1285 25.7768 29.4505C26.0478 30.1454 26.7928 30.5691 27.521 30.4505C28.0628 30.3657 28.9941 29.5691 28.6724 28.942C28.52 28.62 26.7082 27.3488 27.3855 26.7217C27.9951 26.1624 28.9095 27.3996 29.2481 27.4505C29.6207 27.5183 30.6028 26.1285 31.1955 26.7217C31.8559 27.3827 30.1117 28.62 29.9255 28.9251C29.5868 29.5013 30.4673 30.3149 30.9753 30.4505C31.7373 30.6369 32.567 30.1963 32.821 29.4505C32.9226 29.1454 33.2105 29.0268 33.4814 29.1115C33.7185 29.1793 33.9048 29.4505 33.8032 29.7556C33.5322 30.603 32.8549 31.1793 32.0083 31.4674L32.0252 31.4335Z" fill="#601818"/>
<path d="M31.0092 31.4505C31.1277 32.6539 31.3987 36.9759 29.7731 37.2301C29.4683 37.281 29.1296 37.1285 28.8756 36.8573C27.6395 35.5013 27.6395 33.1624 27.9274 31.3996C28.4523 31.1963 28.8587 30.9081 29.2989 30.4844C29.8069 30.9929 30.3149 31.3319 31.0261 31.4335L31.0092 31.4505Z" fill="#F77272"/>
<path d="M28.2321 69.3149C28.0797 68.942 27.8257 68.7895 27.521 68.7895C27.2162 68.7895 26.9791 68.942 26.8267 69.2641L23.2538 77.5861H7.87843C7.11644 73.603 6.72697 69.7556 6.8455 65.7556C12.0101 68.8912 17.9876 69.942 23.8634 68.9081L28.3676 63.8234L32.3977 68.8064C37.901 69.959 43.5567 69.3997 48.7552 67.0946C48.5012 71.0268 47.7392 74.8234 46.5369 78.5522L31.4664 78.1963L28.2321 69.298V69.3149Z" fill="#F29800"/>
<path d="M19.3083 88.3488C19.1221 88.5691 18.5802 88.5183 18.3093 88.4844C18.3093 87.8234 18.0045 85.5013 17.0393 85.8403C16.1926 86.1285 17.4457 87.3488 17.2086 88.281C16.1757 87.9251 15.3798 87.298 14.6178 86.5352C12.6028 84.4844 11.3159 81.8742 10.8248 79.0268H21.9838C22.187 81.3149 22.4579 86.1793 20.4598 87.8403C20.3582 87.2641 20.155 85.1454 19.2914 85.4844C18.377 85.8403 19.7147 87.0098 19.3253 88.3488H19.3083Z" fill="#FFDA8F"/>
<path d="M37.0543 88.4844C36.6818 88.5691 36.3432 88.5352 35.9876 88.3997C35.6828 87.0098 36.9019 85.8742 36.1061 85.5183C35.1917 85.1115 34.9885 87.2471 34.8869 87.8573C34.0402 87.0946 33.7354 86.1115 33.4814 85.0776C33.1766 83.3149 33.1766 81.5522 33.2952 79.7386L44.3187 80.0098C43.6414 82.7895 42.219 85.2471 40.1531 87.1115C39.5097 87.6369 38.8831 88.0946 38.1211 88.3149C37.9857 87.2132 39.0355 86.3488 38.4259 85.9251C37.4777 85.281 37.0205 87.7386 37.0713 88.4844H37.0543Z" fill="#FFDA8F"/>
<path d="M40.441 48.959C38.8831 50.3657 36.5125 49.9081 34.7684 48.959C33.7524 48.3996 32.7025 47.7047 31.8051 46.9759C31.9744 46.3149 31.8897 45.5013 31.568 44.8403C33.1258 42.603 35.4118 40.4505 38.409 40.8403C39.3573 40.959 40.1362 41.4674 40.5934 42.1454C41.1691 43.0098 41.2707 43.8742 40.9828 44.8403C40.5934 46.1963 40.4918 47.5691 40.4241 48.9759L40.441 48.959Z" fill="#F29800"/>
<path d="M26.9622 46.9929C25.2011 48.264 23.1522 49.8912 20.8662 49.8912C19.9179 49.8912 19.0205 49.6708 18.3093 49.0437C18.394 47.7895 18.2246 46.62 17.9537 45.3827C17.8182 44.7386 17.5642 44.0437 17.6658 43.3827C17.869 41.942 19.0543 40.9929 20.4598 40.8573C23.457 40.5522 25.5567 42.6708 27.1992 44.8403C26.7928 45.5522 26.742 46.2471 26.9622 47.0098V46.9929Z" fill="#F29800"/>
<path d="M33.0412 49.6708L29.282 52.603L25.5906 49.7895L27.8257 48.1963C28.774 48.8403 29.9424 48.9081 30.9245 48.1963L33.0581 49.6708H33.0412Z" fill="white"/>
<path d="M42.456 53.7556C43.235 54.5522 44.1494 55.0946 45.0976 55.5013C45.1315 55.9759 45.1823 56.4505 45.1484 57.0098C44.4034 57.1115 43.6583 57.1285 42.8794 57.1115L42.7439 55.1115C42.1174 55.0776 41.5247 55.1115 40.9151 55.1793L40.949 57.1793C40.2039 57.298 39.4758 57.281 38.663 57.2979L38.4767 53.2641C39.0186 53.1285 39.5266 53.1454 40.0854 53.1624L40.2378 53.8403L42.473 53.7556H42.456Z" fill="white"/>
<path d="M39.2387 51.1793L39.3403 51.3827L38.2397 52.6878C39.5266 52.7895 40.2039 52.6878 40.9321 51.62L41.1522 51.7047C41.5924 52.4166 41.8972 53.2132 42.456 53.7725C42.4391 53.8573 42.4052 53.9759 42.3544 53.9759C42.1174 54.0098 40.3733 54.0946 40.2717 54.0437C40.0685 53.9081 39.933 53.6708 39.8483 53.3657C39.4419 53.3318 39.0525 53.3657 38.663 53.4335L38.8323 57.0268C39.4589 57.1115 40.0854 57.1115 40.7289 57.0098C40.6781 56.3488 40.695 55.6878 40.7966 55.0437C41.0337 54.8912 42.2698 54.8234 42.5915 54.8912C42.7947 54.942 42.8963 54.9759 42.9471 55.1793L43.0995 56.9081C43.743 56.8912 44.4034 56.8742 45.0299 56.8742C44.9452 56.4844 44.8098 55.7895 45.0976 55.5013C47.282 56.3488 49.6357 56.3149 51.8032 55.4166L52.4974 63.298C46.8925 67.281 39.9499 68.7556 33.2105 67.4844L28.9772 62.2132C28.6724 61.8742 28.1983 61.8742 27.8765 62.1793L23.1522 67.5352C16.3112 68.62 9.36855 66.5861 4.27166 61.959C5.11832 59.6539 5.79564 57.4166 6.43911 55.0607C9.28389 56.62 12.7721 56.4335 15.4306 54.5861C16.7345 53.603 17.5642 52.2641 18.0384 50.6369C20.0873 51.6878 22.1531 51.4844 24.202 50.5522L28.8925 54.0946C29.1973 54.2979 29.536 54.298 29.8239 54.0776L34.5144 50.4505C36.0553 51.2302 37.6639 51.4844 39.2895 51.1793H39.2387Z" fill="#6EB82B"/>
<path d="M41.1522 51.6878C40.7627 51.9759 40.5257 52.5352 40.0515 52.7725C39.3573 52.959 38.5953 52.8573 37.7825 52.9081L39.2387 51.1793C39.7975 51.0776 40.2717 50.8064 40.7627 50.5861C41.0167 50.8912 40.9659 51.3996 41.1522 51.6878Z" fill="#FEFEFE"/>
<path d="M41.0675 56.0607C41.1522 55.942 41.2707 55.9929 41.3385 56.0607C41.3723 56.1115 41.3893 56.2132 41.3385 56.281C41.3046 56.3149 41.2369 56.3318 41.1861 56.3318C41.1014 56.3149 40.9998 56.2132 41.0845 56.0776L41.0675 56.0607Z" fill="#EFF7E7"/>
</svg>
