<svg width="312" height="72" viewBox="0 0 312 72" fill="none" xmlns="http://www.w3.org/2000/svg">
<path d="M162 50C162 45.5817 165.582 42 170 42H304C308.418 42 312 45.5817 312 50V64C312 68.4183 308.418 72 304 72H170C165.582 72 162 68.4183 162 64V50Z" fill="#F77272"/>
<path d="M184.824 59.2795H179.176V59.7814H184.824V59.2795Z" fill="white"/>
<path d="M184.824 57.2451H179.176V57.747H184.824V57.2451Z" fill="white"/>
<path d="M184.824 55.2097H179.176V55.7118H184.824V55.2097Z" fill="white"/>
<path d="M184.824 53.1753H182.162V53.6771H184.824V53.1753Z" fill="white"/>
<path d="M185.849 50.2141H181.178C180.843 50.2141 180.521 50.3381 180.284 50.5584L177.37 53.2681C177.133 53.4887 177 53.7879 177 54.0998V60.9189C177 61.5093 177.517 61.9898 178.151 61.9898H185.849C186.484 61.9898 187 61.5093 187 60.9189V51.2845C187 50.6943 186.484 50.2141 185.849 50.2141H185.849ZM180.77 50.9581V53.365C180.77 53.6251 180.661 53.7265 180.381 53.7265H177.793L180.77 50.9581H180.77ZM186.353 60.9187C186.353 61.1772 186.126 61.3872 185.849 61.3872H178.151C177.873 61.3872 177.647 61.177 177.647 60.9187V54.2619H180.728C181.068 54.2619 181.345 54.0041 181.345 53.6872V50.8162H185.849C186.127 50.8162 186.353 51.0262 186.353 51.2845V60.9187H186.353Z" fill="white"/>
<path d="M249.306 51.4161H250.93V63.2461H249.306V51.4161ZM247.416 53.9361H252.316V55.5041H247.416V53.9361ZM249.446 54.6781L250.426 55.0981C250.286 55.6021 250.123 56.1248 249.936 56.6661C249.759 57.2074 249.558 57.7441 249.334 58.2761C249.119 58.7988 248.881 59.2934 248.62 59.7601C248.368 60.2268 248.107 60.6328 247.836 60.9781C247.761 60.7354 247.645 60.4648 247.486 60.1661C247.337 59.8581 247.192 59.5968 247.052 59.3821C247.304 59.1021 247.547 58.7754 247.78 58.4021C248.013 58.0194 248.237 57.6134 248.452 57.1841C248.667 56.7548 248.858 56.3254 249.026 55.8961C249.194 55.4668 249.334 55.0608 249.446 54.6781ZM251.476 50.2541L252.596 51.5421C252.129 51.7194 251.616 51.8781 251.056 52.0181C250.505 52.1488 249.941 52.2608 249.362 52.3541C248.793 52.4381 248.242 52.5128 247.71 52.5781C247.673 52.4008 247.607 52.1861 247.514 51.9341C247.421 51.6728 247.327 51.4581 247.234 51.2901C247.747 51.2154 248.261 51.1268 248.774 51.0241C249.287 50.9121 249.777 50.7908 250.244 50.6601C250.711 50.5294 251.121 50.3941 251.476 50.2541ZM250.804 55.8401C250.888 55.9054 251.014 56.0268 251.182 56.2041C251.359 56.3721 251.546 56.5588 251.742 56.7641C251.947 56.9694 252.129 57.1608 252.288 57.3381C252.447 57.5061 252.559 57.6274 252.624 57.7021L251.672 59.0321C251.588 58.8548 251.476 58.6541 251.336 58.4301C251.205 58.2061 251.061 57.9728 250.902 57.7301C250.753 57.4874 250.603 57.2588 250.454 57.0441C250.305 56.8201 250.174 56.6381 250.062 56.4981L250.804 55.8401ZM255.41 50.1001H257.09V54.5801H255.41V50.1001ZM252.666 50.7581H260.002V51.7661H252.666V50.7581ZM252.918 52.2421H259.68V53.2221H252.918V52.2421ZM252.232 53.6981H260.296V54.7481H252.232V53.6981ZM254.612 57.7861V58.3881H258.028V57.7861H254.612ZM254.612 59.3541V59.9561H258.028V59.3541H254.612ZM254.612 56.2461V56.8341H258.028V56.2461H254.612ZM253.114 55.2101H259.61V60.9921H253.114V55.2101ZM256.712 61.6221L257.832 60.8241C258.14 60.9921 258.457 61.1788 258.784 61.3841C259.12 61.5894 259.437 61.7901 259.736 61.9861C260.035 62.1728 260.291 62.3361 260.506 62.4761L259.036 63.2741C258.868 63.1341 258.653 62.9661 258.392 62.7701C258.131 62.5834 257.855 62.3874 257.566 62.1821C257.277 61.9768 256.992 61.7901 256.712 61.6221ZM254.668 60.7541L255.97 61.6081C255.69 61.8321 255.359 62.0514 254.976 62.2661C254.593 62.4901 254.192 62.6908 253.772 62.8681C253.361 63.0454 252.965 63.1948 252.582 63.3161C252.461 63.1668 252.297 62.9894 252.092 62.7841C251.896 62.5881 251.714 62.4154 251.546 62.2661C251.929 62.1634 252.316 62.0281 252.708 61.8601C253.1 61.6828 253.469 61.5008 253.814 61.3141C254.159 61.1181 254.444 60.9314 254.668 60.7541Z" fill="white"/>
<path d="M234.074 54.2301V55.0981H239.94V54.2301H234.074ZM234.074 56.4701V57.3521H239.94V56.4701H234.074ZM234.074 52.0041V52.8721H239.94V52.0041H234.074ZM232.45 50.5481H241.648V58.8081H232.45V50.5481ZM237.644 57.6881H239.366V61.0341C239.366 61.2581 239.399 61.4028 239.464 61.4681C239.539 61.5241 239.707 61.5521 239.968 61.5521C240.024 61.5521 240.113 61.5521 240.234 61.5521C240.365 61.5521 240.509 61.5521 240.668 61.5521C240.827 61.5521 240.976 61.5521 241.116 61.5521C241.256 61.5521 241.363 61.5521 241.438 61.5521C241.597 61.5521 241.718 61.5101 241.802 61.4261C241.886 61.3421 241.947 61.1648 241.984 60.8941C242.021 60.6234 242.049 60.2128 242.068 59.6621C242.189 59.7554 242.339 59.8488 242.516 59.9421C242.703 60.0354 242.894 60.1148 243.09 60.1801C243.295 60.2454 243.468 60.3014 243.608 60.3481C243.552 61.0854 243.454 61.6548 243.314 62.0561C243.174 62.4668 242.969 62.7514 242.698 62.9101C242.427 63.0688 242.059 63.1481 241.592 63.1481C241.517 63.1481 241.415 63.1481 241.284 63.1481C241.163 63.1481 241.027 63.1481 240.878 63.1481C240.729 63.1481 240.575 63.1481 240.416 63.1481C240.267 63.1481 240.131 63.1481 240.01 63.1481C239.889 63.1481 239.795 63.1481 239.73 63.1481C239.179 63.1481 238.75 63.0828 238.442 62.9521C238.143 62.8214 237.933 62.6021 237.812 62.2941C237.7 61.9861 237.644 61.5708 237.644 61.0481V57.6881ZM234.228 58.2621H236.02C235.964 58.8968 235.861 59.4801 235.712 60.0121C235.572 60.5348 235.339 61.0061 235.012 61.4261C234.695 61.8461 234.242 62.2101 233.654 62.5181C233.066 62.8354 232.301 63.1014 231.358 63.3161C231.311 63.1574 231.232 62.9848 231.12 62.7981C231.017 62.6208 230.901 62.4388 230.77 62.2521C230.649 62.0748 230.527 61.9301 230.406 61.8181C231.218 61.6688 231.867 61.4868 232.352 61.2721C232.837 61.0481 233.206 60.7914 233.458 60.5021C233.719 60.2128 233.901 59.8861 234.004 59.5221C234.107 59.1488 234.181 58.7288 234.228 58.2621Z" fill="white"/>
<path d="M219.304 50.6321C219.295 50.7067 219.281 50.8234 219.262 50.9821C219.243 51.1314 219.225 51.2854 219.206 51.4441C219.197 51.5934 219.187 51.7287 219.178 51.8501C219.159 52.1207 219.141 52.4194 219.122 52.7461C219.113 53.0634 219.103 53.3947 219.094 53.7401C219.085 54.0761 219.075 54.4167 219.066 54.7621C219.066 55.1074 219.066 55.4434 219.066 55.7701C219.066 56.1527 219.071 56.5774 219.08 57.0441C219.089 57.5014 219.099 57.9587 219.108 58.4161C219.127 58.8641 219.136 59.2747 219.136 59.6481C219.145 60.0214 219.15 60.3107 219.15 60.5161C219.15 61.0947 219.085 61.5427 218.954 61.8601C218.833 62.1774 218.655 62.3967 218.422 62.5181C218.189 62.6487 217.918 62.7141 217.61 62.7141C217.274 62.7141 216.915 62.6441 216.532 62.5041C216.149 62.3734 215.79 62.1867 215.454 61.9441C215.127 61.7014 214.857 61.4214 214.642 61.1041C214.437 60.7774 214.334 60.4274 214.334 60.0541C214.334 59.6061 214.502 59.1627 214.838 58.7241C215.183 58.2761 215.636 57.8654 216.196 57.4921C216.765 57.1187 217.377 56.8201 218.03 56.5961C218.655 56.3627 219.299 56.1947 219.962 56.0921C220.625 55.9801 221.222 55.9241 221.754 55.9241C222.473 55.9241 223.121 56.0454 223.7 56.2881C224.279 56.5214 224.741 56.8667 225.086 57.3241C225.431 57.7814 225.604 58.3321 225.604 58.9761C225.604 59.5174 225.501 60.0167 225.296 60.4741C225.091 60.9314 224.759 61.3281 224.302 61.6641C223.854 61.9907 223.257 62.2474 222.51 62.4341C222.193 62.4994 221.875 62.5461 221.558 62.5741C221.25 62.6114 220.956 62.6394 220.676 62.6581L220.032 60.8521C220.349 60.8521 220.653 60.8474 220.942 60.8381C221.241 60.8194 221.511 60.7914 221.754 60.7541C222.137 60.6794 222.482 60.5674 222.79 60.4181C223.098 60.2687 223.341 60.0727 223.518 59.8301C223.695 59.5874 223.784 59.2981 223.784 58.9621C223.784 58.6447 223.695 58.3741 223.518 58.1501C223.35 57.9261 223.112 57.7534 222.804 57.6321C222.496 57.5107 222.137 57.4501 221.726 57.4501C221.138 57.4501 220.541 57.5107 219.934 57.6321C219.337 57.7534 218.763 57.9214 218.212 58.1361C217.801 58.2947 217.433 58.4814 217.106 58.6961C216.779 58.9014 216.523 59.1161 216.336 59.3401C216.149 59.5641 216.056 59.7787 216.056 59.9841C216.056 60.0961 216.089 60.2034 216.154 60.3061C216.229 60.3994 216.322 60.4834 216.434 60.5581C216.546 60.6327 216.658 60.6934 216.77 60.7401C216.891 60.7774 216.994 60.7961 217.078 60.7961C217.209 60.7961 217.316 60.7587 217.4 60.6841C217.484 60.6001 217.526 60.4414 217.526 60.2081C217.526 59.9561 217.517 59.5967 217.498 59.1301C217.489 58.6541 217.475 58.1267 217.456 57.5481C217.447 56.9694 217.442 56.3954 217.442 55.8261C217.442 55.4341 217.442 55.0374 217.442 54.6361C217.451 54.2347 217.456 53.8521 217.456 53.4881C217.456 53.1241 217.456 52.8021 217.456 52.5221C217.465 52.2421 217.47 52.0227 217.47 51.8641C217.47 51.7614 217.465 51.6307 217.456 51.4721C217.447 51.3134 217.433 51.1547 217.414 50.9961C217.405 50.8281 217.391 50.7067 217.372 50.6321H219.304ZM223.294 52.1441C223.649 52.3121 224.045 52.5174 224.484 52.7601C224.932 53.0027 225.357 53.2454 225.758 53.4881C226.169 53.7214 226.495 53.9314 226.738 54.1181L225.898 55.5461C225.721 55.3967 225.487 55.2287 225.198 55.0421C224.918 54.8554 224.61 54.6641 224.274 54.4681C223.947 54.2721 223.63 54.0901 223.322 53.9221C223.014 53.7447 222.748 53.6047 222.524 53.5021L223.294 52.1441ZM214.712 52.9141C215.123 52.9607 215.482 52.9934 215.79 53.0121C216.107 53.0214 216.392 53.0261 216.644 53.0261C217.008 53.0261 217.409 53.0121 217.848 52.9841C218.287 52.9467 218.735 52.9001 219.192 52.8441C219.649 52.7787 220.093 52.7041 220.522 52.6201C220.961 52.5361 221.357 52.4427 221.712 52.3401L221.754 54.0761C221.362 54.1694 220.937 54.2534 220.48 54.3281C220.023 54.3934 219.561 54.4541 219.094 54.5101C218.637 54.5661 218.198 54.6081 217.778 54.6361C217.367 54.6641 217.008 54.6781 216.7 54.6781C216.233 54.6781 215.851 54.6734 215.552 54.6641C215.253 54.6547 214.983 54.6361 214.74 54.6081L214.712 52.9141Z" fill="white"/>
<path d="M162 8C162 3.58172 165.582 0 170 0H304C308.418 0 312 3.58172 312 8V22C312 26.4183 308.418 30 304 30H170C165.582 30 162 26.4183 162 22V8Z" fill="#F29800"/>
<path d="M255.508 12.0341L256.544 10.9281C256.945 11.1521 257.384 11.4088 257.86 11.6981C258.345 11.9874 258.807 12.2814 259.246 12.5801C259.694 12.8694 260.058 13.1308 260.338 13.3641L259.218 14.6381C258.966 14.3861 258.625 14.1061 258.196 13.7981C257.767 13.4901 257.314 13.1821 256.838 12.8741C256.362 12.5661 255.919 12.2861 255.508 12.0341ZM256.474 14.0501H257.314V16.1781C257.314 16.3648 257.342 16.5794 257.398 16.8221C257.454 17.0648 257.547 17.3261 257.678 17.6061C257.818 17.8768 258.009 18.1474 258.252 18.4181C258.495 18.6794 258.798 18.9361 259.162 19.1881C259.526 19.4308 259.96 19.6501 260.464 19.8461C260.324 20.0421 260.156 20.2801 259.96 20.5601C259.764 20.8401 259.61 21.0781 259.498 21.2741C259.059 21.1061 258.663 20.8914 258.308 20.6301C257.963 20.3688 257.664 20.0934 257.412 19.8041C257.16 19.5054 256.955 19.2161 256.796 18.9361C256.637 18.6468 256.525 18.3948 256.46 18.1801C256.385 18.3948 256.259 18.6421 256.082 18.9221C255.914 19.2021 255.69 19.4914 255.41 19.7901C255.13 20.0794 254.799 20.3501 254.416 20.6021C254.043 20.8634 253.613 21.0874 253.128 21.2741C253.063 21.1434 252.974 20.9894 252.862 20.8121C252.759 20.6441 252.647 20.4761 252.526 20.3081C252.405 20.1494 252.293 20.0141 252.19 19.9021C252.731 19.7154 253.193 19.4961 253.576 19.2441C253.968 18.9921 254.295 18.7308 254.556 18.4601C254.817 18.1801 255.023 17.9048 255.172 17.6341C255.331 17.3541 255.438 17.0881 255.494 16.8361C255.559 16.5841 255.592 16.3648 255.592 16.1781V14.0501H256.474ZM255.718 8.1001H257.37C257.333 8.9401 257.258 9.70543 257.146 10.3961C257.043 11.0868 256.857 11.7074 256.586 12.2581C256.325 12.7994 255.937 13.2754 255.424 13.6861C254.92 14.0968 254.243 14.4514 253.394 14.7501C253.319 14.5448 253.189 14.3114 253.002 14.0501C252.815 13.7794 252.633 13.5694 252.456 13.4201C253.193 13.1961 253.772 12.9254 254.192 12.6081C254.612 12.2814 254.925 11.9034 255.13 11.4741C255.345 11.0354 255.489 10.5408 255.564 9.9901C255.639 9.4301 255.69 8.8001 255.718 8.1001ZM253.66 8.9401L255.032 9.2061C254.967 9.6821 254.841 10.1581 254.654 10.6341C254.467 11.1101 254.22 11.5068 253.912 11.8241L252.61 11.2501C252.862 10.9981 253.081 10.6574 253.268 10.2281C253.455 9.79876 253.585 9.36943 253.66 8.9401ZM253.492 15.0161L254.962 15.3101C254.869 15.8514 254.71 16.3834 254.486 16.9061C254.271 17.4194 253.991 17.8488 253.646 18.1941L252.274 17.4941C252.573 17.2328 252.825 16.8734 253.03 16.4161C253.245 15.9588 253.399 15.4921 253.492 15.0161ZM258.602 8.8421L260.212 9.3461C259.979 9.7661 259.741 10.1814 259.498 10.5921C259.265 10.9934 259.05 11.3388 258.854 11.6281L257.594 11.1521C257.715 10.9468 257.841 10.7088 257.972 10.4381C258.103 10.1674 258.224 9.8921 258.336 9.6121C258.448 9.3321 258.537 9.07543 258.602 8.8421ZM258.686 14.9181L260.338 15.4361C260.086 15.8654 259.829 16.2994 259.568 16.7381C259.316 17.1768 259.078 17.5454 258.854 17.8441L257.552 17.3681C257.692 17.1441 257.832 16.8921 257.972 16.6121C258.112 16.3228 258.243 16.0288 258.364 15.7301C258.495 15.4314 258.602 15.1608 258.686 14.9181ZM247.878 12.3981H252.106V13.6721H247.878V12.3981ZM247.934 8.5481H252.078V9.8081H247.934V8.5481ZM247.878 14.3161H252.106V15.5761H247.878V14.3161ZM247.22 10.4241H252.568V11.7541H247.22V10.4241ZM248.606 16.2481H252.134V20.5181H248.606V19.1881H250.692V17.5781H248.606V16.2481ZM247.85 16.2481H249.264V21.0641H247.85V16.2481Z" fill="white"/>
<path d="M237.308 12.1741H242.32V13.7001H237.308V12.1741ZM237.308 15.4921H242.32V17.0041H237.308V15.4921ZM237.308 18.7961H242.32V20.3221H237.308V18.7961ZM236.51 8.8561H243.104V21.0501H241.424V10.4521H238.12V21.1341H236.51V8.8561ZM230.63 10.9981H236.006V12.5801H230.63V10.9981ZM232.646 8.1001H234.256V21.2461H232.646V8.1001ZM232.562 12.0761L233.556 12.4261C233.444 12.9954 233.304 13.5834 233.136 14.1901C232.968 14.7874 232.777 15.3754 232.562 15.9541C232.347 16.5234 232.114 17.0601 231.862 17.5641C231.61 18.0588 231.344 18.4834 231.064 18.8381C230.989 18.6048 230.873 18.3388 230.714 18.0401C230.555 17.7321 230.406 17.4754 230.266 17.2701C230.518 16.9621 230.761 16.6028 230.994 16.1921C231.227 15.7814 231.442 15.3474 231.638 14.8901C231.843 14.4234 232.025 13.9521 232.184 13.4761C232.343 12.9908 232.469 12.5241 232.562 12.0761ZM234.144 13.3081C234.247 13.4014 234.396 13.5648 234.592 13.7981C234.788 14.0221 234.993 14.2694 235.208 14.5401C235.432 14.8108 235.637 15.0628 235.824 15.2961C236.02 15.5201 236.155 15.6788 236.23 15.7721L235.264 17.1301C235.161 16.9248 235.031 16.6821 234.872 16.4021C234.713 16.1221 234.541 15.8374 234.354 15.5481C234.167 15.2588 233.985 14.9834 233.808 14.7221C233.64 14.4608 233.495 14.2414 233.374 14.0641L234.144 13.3081Z" fill="white"/>
<path d="M215.944 9.96189C216.457 10.0272 217.036 10.0739 217.68 10.1019C218.324 10.1299 219.015 10.1439 219.752 10.1439C220.219 10.1439 220.695 10.1346 221.18 10.1159C221.665 10.0972 222.137 10.0739 222.594 10.0459C223.051 10.0086 223.457 9.97589 223.812 9.94789V11.8099C223.485 11.8286 223.089 11.8519 222.622 11.8799C222.165 11.9079 221.684 11.9312 221.18 11.9499C220.685 11.9686 220.214 11.9779 219.766 11.9779C219.038 11.9779 218.361 11.9639 217.736 11.9359C217.111 11.8986 216.513 11.8612 215.944 11.8239V9.96189ZM217.12 15.8979C217.055 16.1406 216.999 16.3786 216.952 16.6119C216.905 16.8452 216.882 17.0786 216.882 17.3119C216.882 17.7692 217.106 18.1426 217.554 18.4319C218.011 18.7119 218.744 18.8519 219.752 18.8519C220.387 18.8519 220.998 18.8286 221.586 18.7819C222.183 18.7352 222.743 18.6746 223.266 18.5999C223.789 18.5159 224.255 18.4179 224.666 18.3059L224.68 20.2659C224.279 20.3592 223.821 20.4432 223.308 20.5179C222.804 20.5926 222.258 20.6486 221.67 20.6859C221.091 20.7326 220.475 20.7559 219.822 20.7559C218.749 20.7559 217.857 20.6346 217.148 20.3919C216.439 20.1586 215.902 19.8226 215.538 19.3839C215.183 18.9359 215.006 18.3899 215.006 17.7459C215.006 17.3446 215.039 16.9759 215.104 16.6399C215.169 16.2946 215.225 15.9912 215.272 15.7299L217.12 15.8979ZM224.176 8.51989C224.297 8.68789 224.423 8.88856 224.554 9.12189C224.694 9.35523 224.829 9.58856 224.96 9.82189C225.091 10.0552 225.203 10.2606 225.296 10.4379L224.162 10.9279C224.022 10.6386 223.849 10.3072 223.644 9.93389C223.448 9.56056 223.257 9.23856 223.07 8.96789L224.176 8.51989ZM225.842 7.88989C225.963 8.06723 226.094 8.27256 226.234 8.50589C226.374 8.73923 226.509 8.97256 226.64 9.20589C226.78 9.42989 226.892 9.62589 226.976 9.79389L225.856 10.2699C225.707 9.98056 225.529 9.65389 225.324 9.28989C225.119 8.91656 224.918 8.59923 224.722 8.33789L225.842 7.88989Z" fill="white"/>
<path d="M178.333 18.9685L178.633 18.313C178.727 18.1072 178.64 17.8657 178.435 17.7631C177.648 17.3692 177.002 16.8337 176.558 16.2163C176.113 15.598 175.868 14.9028 175.867 14.1618C175.867 13.5802 176.019 13.0278 176.298 12.5173C176.716 11.7522 177.428 11.0832 178.341 10.6066C179.253 10.1297 180.364 9.84697 181.564 9.84727C182.847 9.84727 184.025 10.1709 184.968 10.7095C185.783 11.1739 186.419 11.7958 186.809 12.5008C186.915 12.6917 187.151 12.7729 187.356 12.6895C187.592 12.5937 187.694 12.3198 187.573 12.1003C187.098 11.2389 186.34 10.511 185.406 9.97734C184.322 9.35998 182.996 9 181.564 9C179.778 9.00061 178.154 9.55752 176.96 10.479C176.363 10.94 175.874 11.4939 175.533 12.1174C175.192 12.7405 175 13.4348 175 14.1618C174.999 15.0894 175.313 15.9611 175.848 16.7039C176.245 17.255 176.763 17.7368 177.371 18.1328C177.546 18.2473 177.612 18.4693 177.525 18.6577L176.891 20.0438C176.754 20.3428 177.001 20.674 177.334 20.638C178.71 20.4884 180.052 20.1877 181.21 19.8655C181.443 19.8008 181.577 19.563 181.508 19.3361C181.439 19.1144 181.202 18.9868 180.974 19.05C180.303 19.2363 179.571 19.414 178.811 19.5572C178.466 19.6222 178.189 19.2812 178.333 18.9682V18.9685Z" fill="white"/>
<path d="M190.609 15.556C190.233 14.8706 189.618 14.3054 188.862 13.9106C188.106 13.5159 187.204 13.2896 186.238 13.2893C184.951 13.2899 183.776 13.6908 182.909 14.3604C182.476 14.6956 182.118 15.0993 181.868 15.556C181.618 16.0125 181.476 16.5236 181.477 17.0579C181.476 17.8759 181.808 18.6322 182.349 19.2358C182.417 19.3109 182.487 19.3839 182.561 19.4544C182.609 19.5011 182.661 19.5451 182.713 19.5897C182.739 19.6122 182.763 19.6364 182.79 19.6584C182.86 19.7164 182.932 19.7713 183.006 19.8254C183.016 19.8327 183.026 19.8406 183.035 19.8477C183.456 20.1499 183.943 20.3902 184.474 20.5575C184.477 20.5588 184.481 20.5597 184.484 20.5609C185.374 20.898 187.246 21.5391 189.21 21.7538C189.543 21.7898 189.791 21.4585 189.654 21.1596L189.141 20.04C189.244 19.9771 189.342 19.9099 189.439 19.8406C189.473 19.8159 189.508 19.7909 189.542 19.7652C189.621 19.7048 189.698 19.6434 189.771 19.5787C189.828 19.5292 189.881 19.4776 189.935 19.4263C189.986 19.3756 190.04 19.3265 190.089 19.2736C190.192 19.1619 190.29 19.0465 190.378 18.9244C190.77 18.3815 191.001 17.74 191 17.0579C191 16.5233 190.859 16.0125 190.609 15.5557V15.556ZM189.668 18.4371C189.368 18.8544 188.929 19.2199 188.389 19.4898L188.023 19.673L188.199 20.058C188.345 20.3759 188.057 20.7212 187.709 20.6449C187.61 20.6232 187.512 20.6006 187.416 20.5777C187.408 20.5762 187.401 20.574 187.393 20.5725C187.312 20.5533 187.231 20.5331 187.151 20.513C187.136 20.5093 187.121 20.5056 187.107 20.502C187.03 20.4824 186.955 20.4629 186.88 20.4427C186.864 20.4385 186.849 20.4342 186.833 20.4299C186.758 20.4098 186.683 20.3893 186.611 20.3688C186.603 20.3667 186.595 20.3646 186.587 20.3618C186.358 20.2971 186.14 20.2314 185.935 20.1667C185.919 20.1615 185.901 20.156 185.884 20.1508C185.835 20.1353 185.787 20.1194 185.74 20.1038C185.709 20.0937 185.677 20.0837 185.648 20.0739C185.607 20.0605 185.568 20.047 185.529 20.0339C185.492 20.0214 185.456 20.0095 185.421 19.9973C185.389 19.986 185.356 19.975 185.325 19.964C185.286 19.9502 185.247 19.9368 185.21 19.9234C185.184 19.9142 185.158 19.9047 185.132 19.8962C185.09 19.8809 185.05 19.8663 185.011 19.8519C184.992 19.8452 184.973 19.8385 184.956 19.8318C184.9 19.811 184.846 19.7909 184.797 19.7722L184.784 19.7674L184.77 19.7631C184.039 19.5387 183.425 19.1521 183.002 18.6789C182.578 18.2041 182.344 17.6518 182.343 17.0585C182.343 16.6692 182.444 16.3001 182.632 15.956C182.914 15.4409 183.397 14.9845 184.022 14.6581C184.647 14.3317 185.411 14.1366 186.238 14.1369C187.34 14.1363 188.331 14.484 189.029 15.0254C189.379 15.2956 189.656 15.6128 189.843 15.9563C190.031 16.3001 190.132 16.6695 190.132 17.0588C190.132 17.5547 189.968 18.0197 189.668 18.4377L189.668 18.4371Z" fill="white"/>
<path d="M184.735 16.7852C184.495 16.7852 184.299 16.976 184.299 17.2117C184.299 17.4474 184.495 17.6379 184.735 17.6379C184.976 17.6379 185.172 17.4471 185.172 17.2117C185.172 16.9763 184.976 16.7852 184.735 16.7852Z" fill="white"/>
<path d="M186.418 16.7852C186.178 16.7852 185.982 16.976 185.982 17.2117C185.982 17.4474 186.177 17.6379 186.418 17.6379C186.659 17.6379 186.855 17.4471 186.855 17.2117C186.855 16.9763 186.66 16.7852 186.418 16.7852Z" fill="white"/>
<path d="M188.102 16.7852C187.861 16.7852 187.666 16.976 187.666 17.2117C187.666 17.4474 187.861 17.6379 188.102 17.6379C188.343 17.6379 188.538 17.4471 188.538 17.2117C188.538 16.9763 188.343 16.7852 188.102 16.7852Z" fill="white"/>
<path d="M0 50C0 45.5817 3.58172 42 8 42H142C146.418 42 150 45.5817 150 50V64C150 68.4183 146.418 72 142 72H8C3.58172 72 0 68.4183 0 64V50Z" fill="#72BFCC"/>
<path d="M94.3439 61.5381H107.084V63.0081H94.3439V61.5381ZM97.4659 58.0521H103.906V59.2001H97.4659V58.0521ZM97.4659 59.7741H103.906V60.9361H97.4659V59.7741ZM96.6679 56.1201H104.774V62.3501H103.038V57.4921H98.3059V62.4061H96.6679V56.1201ZM94.4419 51.6681H106.986V53.1241H94.4419V51.6681ZM99.8179 50.1001H101.484V55.7421H99.8179V50.1001ZM99.0339 52.1441L100.406 52.6621C100.107 53.1288 99.7619 53.5768 99.3699 54.0061C98.9779 54.4354 98.5486 54.8368 98.0819 55.2101C97.6246 55.5741 97.1439 55.9054 96.6399 56.2041C96.1359 56.4934 95.6179 56.7408 95.0859 56.9461C94.9646 56.7501 94.8012 56.5261 94.5959 56.2741C94.3999 56.0128 94.2132 55.8028 94.0359 55.6441C94.5399 55.4761 95.0346 55.2708 95.5199 55.0281C96.0052 54.7854 96.4672 54.5101 96.9059 54.2021C97.3539 53.8941 97.7552 53.5674 98.1099 53.2221C98.4739 52.8768 98.7819 52.5174 99.0339 52.1441ZM102.17 52.1581C102.431 52.5221 102.749 52.8768 103.122 53.2221C103.495 53.5581 103.906 53.8754 104.354 54.1741C104.811 54.4634 105.292 54.7248 105.796 54.9581C106.3 55.1914 106.813 55.3828 107.336 55.5321C107.215 55.6348 107.084 55.7701 106.944 55.9381C106.804 56.0968 106.673 56.2601 106.552 56.4281C106.44 56.5961 106.337 56.7501 106.244 56.8901C105.703 56.6941 105.175 56.4514 104.662 56.1621C104.149 55.8728 103.659 55.5461 103.192 55.1821C102.725 54.8088 102.291 54.4121 101.89 53.9921C101.498 53.5721 101.148 53.1334 100.84 52.6761L102.17 52.1581Z" fill="white"/>
<path d="M84.5021 53.1101H88.0161V54.3281H84.5021V53.1101ZM84.4461 55.2661H88.1141V56.4981H84.4461V55.2661ZM85.5941 52.1861H86.8961V55.9941H85.5941V52.1861ZM83.3401 50.6181H89.1361V52.0321H83.3401V50.6181ZM85.1881 57.2261H87.9881V60.9361H85.1881V59.7461H86.7841V58.4161H85.1881V57.2261ZM84.5301 57.2261H85.7201V61.4401H84.5301V57.2261ZM88.5201 50.6181H90.0741V61.3841C90.0741 61.7854 90.0321 62.1074 89.9481 62.3501C89.8734 62.6021 89.7147 62.7981 89.4721 62.9381C89.2387 63.0688 88.9447 63.1528 88.5901 63.1901C88.2354 63.2274 87.8061 63.2461 87.3021 63.2461C87.2834 63.0968 87.2507 62.9194 87.2041 62.7141C87.1574 62.5181 87.1014 62.3221 87.0361 62.1261C86.9801 61.9301 86.9147 61.7574 86.8401 61.6081C87.1294 61.6174 87.4141 61.6221 87.6941 61.6221C87.9834 61.6221 88.1794 61.6221 88.2821 61.6221C88.3754 61.6221 88.4361 61.6034 88.4641 61.5661C88.5014 61.5288 88.5201 61.4588 88.5201 61.3561V50.6181ZM82.5141 50.6181H84.0401V55.8681C84.0401 56.4188 84.0261 57.0208 83.9981 57.6741C83.9701 58.3274 83.9094 58.9901 83.8161 59.6621C83.7321 60.3341 83.6061 60.9874 83.4381 61.6221C83.2701 62.2568 83.0507 62.8214 82.7801 63.3161C82.6961 63.2228 82.5701 63.1154 82.4021 62.9941C82.2434 62.8821 82.0754 62.7701 81.8981 62.6581C81.7301 62.5461 81.5901 62.4668 81.4781 62.4201C81.8047 61.8041 82.0381 61.1181 82.1781 60.3621C82.3274 59.5968 82.4207 58.8221 82.4581 58.0381C82.4954 57.2541 82.5141 56.5308 82.5141 55.8681V50.6181ZM77.8941 54.3981H81.6181V55.6721H77.8941V54.3981ZM77.9921 50.5481H81.5901V51.8081H77.9921V50.5481ZM77.8941 56.3161H81.6181V57.5761H77.8941V56.3161ZM77.3201 52.4241H81.9821V53.7541H77.3201V52.4241ZM78.6641 58.2481H81.6041V62.4901H78.6641V61.1741H80.2601V59.5641H78.6641V58.2481ZM77.8521 58.2481H79.1681V63.0641H77.8521V58.2481Z" fill="white"/>
<path d="M68.752 50.1001H70.32V59.9841H68.752V50.1001ZM64.608 55.7421L71.86 52.6481L72.462 54.0901L65.224 57.2261L64.608 55.7421ZM65.994 51.4581H67.59V60.5301C67.59 60.8008 67.6087 61.0061 67.646 61.1461C67.6927 61.2768 67.786 61.3654 67.926 61.4121C68.0754 61.4588 68.29 61.4821 68.57 61.4821C68.654 61.4821 68.7847 61.4821 68.962 61.4821C69.1487 61.4821 69.354 61.4821 69.578 61.4821C69.8114 61.4821 70.04 61.4821 70.264 61.4821C70.4974 61.4821 70.7027 61.4821 70.88 61.4821C71.0667 61.4821 71.2067 61.4821 71.3 61.4821C71.552 61.4821 71.7434 61.4354 71.874 61.3421C72.0047 61.2488 72.1027 61.0761 72.168 60.8241C72.2334 60.5721 72.2847 60.2034 72.322 59.7181C72.4994 59.8488 72.728 59.9748 73.008 60.0961C73.2974 60.2081 73.5587 60.2874 73.792 60.3341C73.7174 60.9968 73.6007 61.5194 73.442 61.9021C73.2834 62.2848 73.0454 62.5601 72.728 62.7281C72.4107 62.8961 71.9814 62.9801 71.44 62.9801C71.3467 62.9801 71.1974 62.9801 70.992 62.9801C70.7867 62.9801 70.558 62.9801 70.306 62.9801C70.054 62.9801 69.802 62.9801 69.55 62.9801C69.298 62.9801 69.0694 62.9801 68.864 62.9801C68.668 62.9801 68.528 62.9801 68.444 62.9801C67.8094 62.9801 67.31 62.9101 66.946 62.7701C66.5914 62.6301 66.344 62.3828 66.204 62.0281C66.064 61.6734 65.994 61.1741 65.994 60.5301V51.4581ZM71.538 52.8301H71.426L71.72 52.6201L72.028 52.4241L73.19 52.8441L73.134 53.1241C73.134 53.7868 73.1294 54.3934 73.12 54.9441C73.12 55.4854 73.1154 55.9661 73.106 56.3861C73.106 56.7968 73.0967 57.1421 73.078 57.4221C73.0687 57.7021 73.0547 57.9121 73.036 58.0521C73.0174 58.3788 72.9474 58.6354 72.826 58.8221C72.7047 58.9994 72.5367 59.1348 72.322 59.2281C72.1167 59.3214 71.874 59.3774 71.594 59.3961C71.3234 59.4148 71.076 59.4241 70.852 59.4241C70.8334 59.2094 70.7914 58.9668 70.726 58.6961C70.6607 58.4161 70.586 58.1874 70.502 58.0101C70.6234 58.0194 70.7494 58.0288 70.88 58.0381C71.0107 58.0381 71.1087 58.0381 71.174 58.0381C71.258 58.0381 71.3234 58.0194 71.37 57.9821C71.426 57.9448 71.4634 57.8608 71.482 57.7301C71.4914 57.6648 71.5007 57.5154 71.51 57.2821C71.5194 57.0488 71.524 56.7361 71.524 56.3441C71.524 55.9428 71.524 55.4528 71.524 54.8741C71.5334 54.2861 71.538 53.6048 71.538 52.8301ZM60.576 53.3481H65.21V54.9441H60.576V53.3481ZM62.214 50.2961H63.782V59.5781H62.214V50.2961ZM60.394 59.5921C60.7767 59.4521 61.2247 59.2841 61.738 59.0881C62.2514 58.8828 62.7927 58.6588 63.362 58.4161C63.9407 58.1734 64.5147 57.9354 65.084 57.7021L65.462 59.1861C64.7154 59.5594 63.9547 59.9281 63.18 60.2921C62.4147 60.6561 61.71 60.9828 61.066 61.2721L60.394 59.5921Z" fill="white"/>
<path d="M43.8741 50.842H48.8021V52.396H43.8741V50.842ZM44.0001 54.846H48.6621V56.386H44.0001V54.846ZM43.5381 59.704C43.9954 59.592 44.5134 59.466 45.0921 59.326C45.6801 59.1767 46.2961 59.0133 46.9401 58.836C47.5841 58.6587 48.2281 58.4813 48.8721 58.304L49.0821 59.788C48.2048 60.0493 47.3134 60.3153 46.4081 60.586C45.5028 60.8473 44.6908 61.0807 43.9721 61.286L43.5381 59.704ZM50.9161 54.146V55.014H54.5841V54.146H50.9161ZM50.9161 56.288V57.156H54.5841V56.288H50.9161ZM50.9161 52.004V52.872H54.5841V52.004H50.9161ZM49.3481 50.646H56.2361V58.542H49.3481V50.646ZM52.8901 57.912H54.4861V61.286C54.4861 61.4913 54.5001 61.622 54.5281 61.678C54.5654 61.7247 54.6448 61.748 54.7661 61.748C54.7941 61.748 54.8454 61.748 54.9201 61.748C55.0041 61.748 55.0881 61.748 55.1721 61.748C55.2561 61.748 55.3121 61.748 55.3401 61.748C55.4241 61.748 55.4848 61.7107 55.5221 61.636C55.5688 61.5613 55.6014 61.4073 55.6201 61.174C55.6481 60.9313 55.6668 60.5813 55.6761 60.124C55.7881 60.208 55.9234 60.292 56.0821 60.376C56.2501 60.4507 56.4228 60.5207 56.6001 60.586C56.7868 60.642 56.9501 60.6933 57.0901 60.74C57.0434 61.3747 56.9594 61.8693 56.8381 62.224C56.7261 62.5787 56.5628 62.826 56.3481 62.966C56.1428 63.1153 55.8721 63.19 55.5361 63.19C55.4708 63.19 55.3868 63.19 55.2841 63.19C55.1908 63.19 55.0928 63.19 54.9901 63.19C54.8874 63.19 54.7894 63.19 54.6961 63.19C54.6028 63.19 54.5234 63.19 54.4581 63.19C54.0288 63.19 53.7021 63.1293 53.4781 63.008C53.2541 62.8867 53.1001 62.686 53.0161 62.406C52.9321 62.1353 52.8901 61.7667 52.8901 61.3V57.912ZM50.3981 58.318H52.0501C51.9941 58.9247 51.9008 59.4847 51.7701 59.998C51.6488 60.502 51.4481 60.964 51.1681 61.384C50.8881 61.804 50.5008 62.1773 50.0061 62.504C49.5208 62.8307 48.8954 63.1107 48.1301 63.344C48.0741 63.204 47.9948 63.0453 47.8921 62.868C47.7894 62.7 47.6774 62.532 47.5561 62.364C47.4348 62.2053 47.3181 62.07 47.2061 61.958C47.8594 61.7993 48.3914 61.6033 48.8021 61.37C49.2128 61.1273 49.5254 60.8567 49.7401 60.558C49.9548 60.25 50.1088 59.914 50.2021 59.55C50.2954 59.1767 50.3608 58.766 50.3981 58.318ZM45.5821 51.458H47.1921V59.676L45.5821 59.928V51.458Z" fill="white"/>
<path d="M16.7086 52.373C15.7918 52.373 15.0459 53.1054 15.0459 54.0057C15.0459 54.1307 15.1492 54.2321 15.2764 54.2321C15.4036 54.2321 15.507 54.1307 15.507 54.0057C15.507 53.3551 16.046 52.8259 16.7086 52.8259C16.836 52.8259 16.9391 52.7245 16.9391 52.5995C16.9391 52.4745 16.8358 52.373 16.7086 52.373Z" fill="white"/>
<path d="M20.77 56.5706C21.1868 55.9289 21.4283 55.1676 21.4283 54.3519C21.4283 52.0702 19.5381 50.2141 17.2142 50.2141C16.3831 50.2141 15.608 50.4513 14.9544 50.8605C14.4337 51.1864 13.9906 51.6216 13.6587 52.1328C13.2419 52.7743 13 53.5361 13 54.3519C13 56.6335 14.8906 58.4898 17.2142 58.4898C18.0452 58.4898 18.8208 58.2524 19.4743 57.843C19.9949 57.517 20.4381 57.0819 20.77 56.5706ZM18.5808 56.9655C18.1711 57.173 17.7062 57.2902 17.2142 57.2902C15.5642 57.2902 14.2214 55.9717 14.2214 54.3517C14.2214 53.8687 14.3408 53.4123 14.552 53.01C14.8382 52.4649 15.2928 52.0188 15.848 51.7382C16.2577 51.5307 16.7222 51.4135 17.2139 51.4135C18.8642 51.4135 20.2067 52.7315 20.2067 54.3519C20.2067 54.8347 20.0873 55.2907 19.8761 55.6932C19.5903 56.2384 19.1359 56.6847 18.5808 56.9657V56.9655Z" fill="white"/>
<path d="M23.732 59.4726L21.2991 57.0898C20.9528 57.5863 20.5092 58.0217 20.0034 58.3622L22.4363 60.7449C22.6153 60.9205 22.8499 61.0084 23.0841 61.0084C23.3182 61.0084 23.5531 60.9205 23.732 60.7449C24.0895 60.3934 24.0895 59.824 23.732 59.4726Z" fill="white"/>
<path d="M0 8C0 3.58172 3.58172 0 8 0H142C146.418 0 150 3.58172 150 8V22C150 26.4183 146.418 30 142 30H8C3.58172 30 0 26.4183 0 22V8Z" fill="#6B8A2E"/>
<path d="M104.41 9.01001C104.401 9.08468 104.391 9.19668 104.382 9.34601C104.373 9.48601 104.363 9.63534 104.354 9.79401C104.345 9.95268 104.335 10.0973 104.326 10.228C104.326 10.536 104.321 10.8347 104.312 11.124C104.312 11.4133 104.307 11.6887 104.298 11.95C104.298 12.202 104.293 12.4493 104.284 12.692C104.275 13.1027 104.261 13.532 104.242 13.98C104.223 14.428 104.2 14.8433 104.172 15.226C104.144 15.6087 104.107 15.9213 104.06 16.164C103.985 16.528 103.855 16.7753 103.668 16.906C103.481 17.0273 103.206 17.088 102.842 17.088C102.683 17.088 102.464 17.0787 102.184 17.06C101.913 17.032 101.643 16.9993 101.372 16.962C101.111 16.9247 100.896 16.8967 100.728 16.878L100.77 15.324C100.985 15.3707 101.218 15.4127 101.47 15.45C101.731 15.4873 101.927 15.506 102.058 15.506C102.198 15.506 102.301 15.4873 102.366 15.45C102.441 15.4033 102.483 15.3147 102.492 15.184C102.52 15.0067 102.539 14.7827 102.548 14.512C102.567 14.2413 102.581 13.9473 102.59 13.63C102.609 13.3033 102.623 12.986 102.632 12.678C102.632 12.426 102.632 12.174 102.632 11.922C102.632 11.6607 102.632 11.3947 102.632 11.124C102.632 10.844 102.632 10.5687 102.632 10.298C102.632 10.1767 102.623 10.0367 102.604 9.87801C102.595 9.71001 102.585 9.54668 102.576 9.38801C102.567 9.22934 102.553 9.10334 102.534 9.01001H104.41ZM98.908 9.43001C98.8707 9.66334 98.8474 9.89201 98.838 10.116C98.8287 10.3307 98.824 10.5873 98.824 10.886C98.824 11.138 98.8194 11.474 98.81 11.894C98.81 12.314 98.8053 12.7713 98.796 13.266C98.796 13.7513 98.7914 14.2413 98.782 14.736C98.782 15.2213 98.782 15.6647 98.782 16.066C98.782 16.4673 98.7867 16.7847 98.796 17.018C98.8053 17.3633 98.8287 17.648 98.866 17.872C98.9127 18.0867 99.006 18.2547 99.146 18.376C99.286 18.4973 99.5053 18.5813 99.804 18.628C100.112 18.6747 100.527 18.698 101.05 18.698C101.507 18.698 101.993 18.684 102.506 18.656C103.019 18.6187 103.514 18.572 103.99 18.516C104.466 18.46 104.881 18.404 105.236 18.348L105.166 20.252C104.858 20.2893 104.475 20.322 104.018 20.35C103.561 20.3873 103.085 20.4153 102.59 20.434C102.095 20.462 101.624 20.476 101.176 20.476C100.271 20.476 99.5473 20.4247 99.006 20.322C98.4647 20.2193 98.054 20.0467 97.774 19.804C97.494 19.5613 97.3073 19.2347 97.214 18.824C97.1207 18.4133 97.0647 17.9047 97.046 17.298C97.046 17.0927 97.0414 16.8173 97.032 16.472C97.032 16.1267 97.032 15.744 97.032 15.324C97.032 14.8947 97.032 14.456 97.032 14.008C97.032 13.56 97.032 13.1353 97.032 12.734C97.0414 12.3233 97.046 11.964 97.046 11.656C97.046 11.348 97.046 11.124 97.046 10.984C97.046 10.6947 97.0367 10.424 97.018 10.172C96.9994 9.92001 96.9714 9.67268 96.934 9.43001H98.908ZM94.218 12.594C94.4234 12.594 94.68 12.5847 94.988 12.566C95.296 12.5473 95.6274 12.524 95.982 12.496C96.262 12.468 96.6773 12.4307 97.228 12.384C97.7787 12.328 98.404 12.2673 99.104 12.202C99.804 12.1367 100.532 12.0713 101.288 12.006C102.053 11.9313 102.786 11.866 103.486 11.81C104.186 11.754 104.807 11.7073 105.348 11.67C105.544 11.6513 105.763 11.6373 106.006 11.628C106.258 11.6093 106.487 11.5907 106.692 11.572V13.294C106.617 13.2847 106.496 13.28 106.328 13.28C106.16 13.28 105.983 13.2847 105.796 13.294C105.619 13.294 105.469 13.2987 105.348 13.308C104.984 13.3173 104.541 13.3407 104.018 13.378C103.495 13.406 102.935 13.448 102.338 13.504C101.741 13.5507 101.129 13.6067 100.504 13.672C99.888 13.728 99.2954 13.7887 98.726 13.854C98.1567 13.9193 97.6433 13.9753 97.186 14.022C96.7287 14.0687 96.3647 14.106 96.094 14.134C95.9447 14.1527 95.7627 14.1807 95.548 14.218C95.3333 14.246 95.1187 14.2787 94.904 14.316C94.6987 14.344 94.5354 14.3673 94.414 14.386L94.218 12.594Z" fill="white"/>
<path d="M80.4139 12.6219H87.4279V14.1059H80.4139V12.6219ZM80.2319 19.2719H87.4699V20.7559H80.2319V19.2719ZM79.4899 15.5059H88.4219V21.2739H86.6859V16.9759H81.1419V21.2739H79.4899V15.5059ZM83.8579 9.76593C83.4753 10.3166 82.9899 10.8766 82.4019 11.4459C81.8233 12.0153 81.1746 12.5613 80.4559 13.0839C79.7466 13.6066 79.0093 14.0779 78.2439 14.4979C78.1693 14.3673 78.0713 14.2179 77.9499 14.0499C77.8379 13.8819 77.7119 13.7186 77.5719 13.5599C77.4413 13.3919 77.3106 13.2519 77.1799 13.1399C77.9919 12.7386 78.7666 12.2579 79.5039 11.6979C80.2506 11.1379 80.9179 10.5453 81.5059 9.91993C82.0939 9.2946 82.5606 8.69726 82.9059 8.12793H84.6559C85.0293 8.65993 85.4493 9.1686 85.9159 9.65393C86.3826 10.1393 86.8726 10.5919 87.3859 11.0119C87.9086 11.4319 88.4499 11.8053 89.0099 12.1319C89.5699 12.4586 90.1253 12.7339 90.6759 12.9579C90.4706 13.1726 90.2746 13.4153 90.0879 13.6859C89.9013 13.9473 89.7333 14.2086 89.5839 14.4699C89.0426 14.1899 88.4966 13.8679 87.9459 13.5039C87.3953 13.1306 86.8633 12.7386 86.3499 12.3279C85.8459 11.9079 85.3793 11.4833 84.9499 11.0539C84.5206 10.6153 84.1566 10.1859 83.8579 9.76593Z" fill="white"/>
<path d="M65.056 14.848H69.788V19.272H65.056V17.9H68.206V16.234H65.056V14.848ZM64.328 14.848H65.882V20.07H64.328V14.848ZM62.046 10.676H65.546V11.81H62.046V10.676ZM68.542 10.676H72.07V11.81H68.542V10.676ZM71.37 8.646H73.078V19.244C73.078 19.7107 73.022 20.0747 72.91 20.336C72.798 20.5973 72.5973 20.798 72.308 20.938C72.0093 21.078 71.636 21.1667 71.188 21.204C70.74 21.2413 70.1893 21.26 69.536 21.26C69.5266 21.092 69.4893 20.9053 69.424 20.7C69.3586 20.4947 69.2886 20.2847 69.214 20.07C69.1393 19.8647 69.0553 19.6873 68.962 19.538C69.242 19.5567 69.522 19.5707 69.802 19.58C70.082 19.58 70.3293 19.58 70.544 19.58C70.768 19.5707 70.9266 19.566 71.02 19.566C71.1506 19.566 71.2393 19.5427 71.286 19.496C71.342 19.44 71.37 19.3467 71.37 19.216V8.646ZM62.172 8.646H66.61V13.882H62.172V12.608H65.028V9.92H62.172V8.646ZM72.28 8.646V9.92H69.144V12.636H72.28V13.896H67.548V8.646H72.28ZM61.22 8.646H62.886V21.26H61.22V8.646Z" fill="white"/>
<path d="M49.4041 8.63208C49.3947 8.70675 49.3807 8.82341 49.3621 8.98208C49.3434 9.13141 49.3247 9.28541 49.3061 9.44408C49.2967 9.59341 49.2874 9.72875 49.2781 9.85008C49.2594 10.1207 49.2407 10.4194 49.2221 10.7461C49.2127 11.0634 49.2034 11.3947 49.1941 11.7401C49.1847 12.0761 49.1754 12.4167 49.1661 12.7621C49.1661 13.1074 49.1661 13.4434 49.1661 13.7701C49.1661 14.1527 49.1707 14.5774 49.1801 15.0441C49.1894 15.5014 49.1987 15.9587 49.2081 16.4161C49.2267 16.8641 49.2361 17.2747 49.2361 17.6481C49.2454 18.0214 49.2501 18.3107 49.2501 18.5161C49.2501 19.0947 49.1847 19.5427 49.0541 19.8601C48.9327 20.1774 48.7554 20.3967 48.5221 20.5181C48.2887 20.6487 48.0181 20.7141 47.7101 20.7141C47.3741 20.7141 47.0147 20.6441 46.6321 20.5041C46.2494 20.3734 45.8901 20.1867 45.5541 19.9441C45.2274 19.7014 44.9567 19.4214 44.7421 19.1041C44.5367 18.7774 44.4341 18.4274 44.4341 18.0541C44.4341 17.6061 44.6021 17.1627 44.9381 16.7241C45.2834 16.2761 45.7361 15.8654 46.2961 15.4921C46.8654 15.1187 47.4767 14.8201 48.1301 14.5961C48.7554 14.3627 49.3994 14.1947 50.0621 14.0921C50.7247 13.9801 51.3221 13.9241 51.8541 13.9241C52.5727 13.9241 53.2214 14.0454 53.8001 14.2881C54.3787 14.5214 54.8407 14.8667 55.1861 15.3241C55.5314 15.7814 55.7041 16.3321 55.7041 16.9761C55.7041 17.5174 55.6014 18.0167 55.3961 18.4741C55.1908 18.9314 54.8594 19.3281 54.4021 19.6641C53.9541 19.9907 53.3567 20.2474 52.6101 20.4341C52.2927 20.4994 51.9754 20.5461 51.6581 20.5741C51.3501 20.6114 51.0561 20.6394 50.7761 20.6581L50.1321 18.8521C50.4494 18.8521 50.7527 18.8474 51.0421 18.8381C51.3407 18.8194 51.6114 18.7914 51.8541 18.7541C52.2367 18.6794 52.5821 18.5674 52.8901 18.4181C53.1981 18.2687 53.4408 18.0727 53.6181 17.8301C53.7954 17.5874 53.8841 17.2981 53.8841 16.9621C53.8841 16.6447 53.7954 16.3741 53.6181 16.1501C53.4501 15.9261 53.2121 15.7534 52.9041 15.6321C52.5961 15.5107 52.2367 15.4501 51.8261 15.4501C51.2381 15.4501 50.6407 15.5107 50.0341 15.6321C49.4367 15.7534 48.8627 15.9214 48.3121 16.1361C47.9014 16.2947 47.5327 16.4814 47.2061 16.6961C46.8794 16.9014 46.6227 17.1161 46.4361 17.3401C46.2494 17.5641 46.1561 17.7787 46.1561 17.9841C46.1561 18.0961 46.1887 18.2034 46.2541 18.3061C46.3287 18.3994 46.4221 18.4834 46.5341 18.5581C46.6461 18.6327 46.7581 18.6934 46.8701 18.7401C46.9914 18.7774 47.0941 18.7961 47.1781 18.7961C47.3087 18.7961 47.4161 18.7587 47.5001 18.6841C47.5841 18.6001 47.6261 18.4414 47.6261 18.2081C47.6261 17.9561 47.6167 17.5967 47.5981 17.1301C47.5887 16.6541 47.5747 16.1267 47.5561 15.5481C47.5467 14.9694 47.5421 14.3954 47.5421 13.8261C47.5421 13.4341 47.5421 13.0374 47.5421 12.6361C47.5514 12.2347 47.5561 11.8521 47.5561 11.4881C47.5561 11.1241 47.5561 10.8021 47.5561 10.5221C47.5654 10.2421 47.5701 10.0227 47.5701 9.86408C47.5701 9.76141 47.5654 9.63075 47.5561 9.47208C47.5467 9.31341 47.5327 9.15475 47.5141 8.99608C47.5047 8.82808 47.4907 8.70675 47.4721 8.63208H49.4041ZM53.3941 10.1441C53.7487 10.3121 54.1454 10.5174 54.5841 10.7601C55.0321 11.0027 55.4567 11.2454 55.8581 11.4881C56.2687 11.7214 56.5954 11.9314 56.8381 12.1181L55.9981 13.5461C55.8208 13.3967 55.5874 13.2287 55.2981 13.0421C55.0181 12.8554 54.7101 12.6641 54.3741 12.4681C54.0474 12.2721 53.7301 12.0901 53.4221 11.9221C53.1141 11.7447 52.8481 11.6047 52.6241 11.5021L53.3941 10.1441ZM44.8121 10.9141C45.2227 10.9607 45.5821 10.9934 45.8901 11.0121C46.2074 11.0214 46.4921 11.0261 46.7441 11.0261C47.1081 11.0261 47.5094 11.0121 47.9481 10.9841C48.3867 10.9467 48.8347 10.9001 49.2921 10.8441C49.7494 10.7787 50.1927 10.7041 50.6221 10.6201C51.0607 10.5361 51.4574 10.4427 51.8121 10.3401L51.8541 12.0761C51.4621 12.1694 51.0374 12.2534 50.5801 12.3281C50.1227 12.3934 49.6607 12.4541 49.1941 12.5101C48.7367 12.5661 48.2981 12.6081 47.8781 12.6361C47.4674 12.6641 47.1081 12.6781 46.8001 12.6781C46.3334 12.6781 45.9507 12.6734 45.6521 12.6641C45.3534 12.6547 45.0827 12.6361 44.8401 12.6081L44.8121 10.9141Z" fill="white"/>
<path d="M13.439 18.2803C13.3118 18.2803 13.1927 18.2473 13.0911 18.1892L16.0892 15.6079L16.3692 15.8485C16.6035 16.0495 16.8964 16.1514 17.1868 16.1514C17.4772 16.1514 17.7719 16.0495 18.006 15.8485L18.2857 15.6079L20.5655 17.5716C20.759 17.3876 20.9112 17.2299 21.0305 17.0953L18.7942 15.1702L21.6372 12.7197V13.6754L22.3734 13.0285V12.3853C22.3734 12.2916 22.3642 12.1986 22.3468 12.1088C22.2999 11.876 22.1956 11.6632 22.0496 11.4872C22.019 11.4488 21.9866 11.4146 21.952 11.3802C21.6935 11.1236 21.3309 10.9636 20.9346 10.9636H13.439C13.0428 10.9636 12.6814 11.1236 12.4217 11.3802C12.3868 11.4146 12.3547 11.4488 12.324 11.4872C12.1781 11.6632 12.0737 11.8762 12.0281 12.1088C12.0095 12.1986 12 12.2913 12 12.3853V17.5864C12 17.7859 12.0428 17.9776 12.1193 18.1508C12.19 18.3162 12.2946 18.4658 12.4217 18.5913C12.4538 18.623 12.4859 18.6523 12.5208 18.6813C12.7696 18.8851 13.0911 19.0081 13.439 19.0081H15.5692L16.3971 18.2808H13.439V18.2803ZM12.9424 11.8944C13.0709 11.7675 13.2435 11.6907 13.439 11.6907H20.9349C21.1304 11.6907 21.3045 11.7675 21.4315 11.8944C21.4542 11.9171 21.4756 11.9422 21.4945 11.9673L17.5656 15.35C17.4573 15.4438 17.3236 15.4903 17.1868 15.4903C17.0501 15.4903 16.9179 15.444 16.808 15.35L12.8809 11.9658C12.8983 11.9407 12.9198 11.9171 12.9424 11.8944ZM12.7362 17.5862V12.7182L15.5794 15.1687L12.7377 17.6164C12.7362 17.6071 12.7362 17.5967 12.7362 17.5862Z" fill="white"/>
<path d="M22.9814 13.4521C22.8808 13.3975 22.7568 13.4105 22.6711 13.4861C22.559 13.5845 22.4069 13.7184 22.3588 13.7607L21.1474 14.8251C21.0575 14.9041 21.2109 15.2919 21.3593 15.4781C21.5596 15.7293 22.0223 15.9188 22.0223 15.9188C22.1618 16.0908 22.0764 16.2655 21.9735 16.6188C21.8472 17.0531 21.3307 17.5979 20.855 18.0413C20.3539 18.4564 19.746 18.8997 19.2947 18.9728C18.9276 19.0324 18.742 19.0958 18.5854 18.9391C18.5854 18.9391 18.4489 18.4632 18.2195 18.2374C18.0494 18.0701 17.6776 17.8742 17.5876 17.9534L16.3762 19.0179C16.3282 19.0602 16.176 19.1938 16.0639 19.2924C15.9783 19.3677 15.9506 19.4881 15.9937 19.5931C16.0896 19.8264 16.2881 20.2038 16.4599 20.3948C16.9329 20.9201 18.1473 20.8541 19.0887 20.4868C19.8217 20.2006 20.8353 19.6374 21.6485 18.9229C22.513 18.1633 23.1461 17.2792 23.5194 16.5935C23.9986 15.7126 24.2066 14.5289 23.7333 14.0035C23.5615 13.8126 23.2053 13.5739 22.9819 13.4526L22.9814 13.4521Z" fill="white"/>
</svg>
