<svg width="344" height="25" viewBox="0 0 344 25" fill="none" xmlns="http://www.w3.org/2000/svg">
<path d="M125.948 0.50505H5.05245C2.5411 0.50505 0.505245 2.54012 0.505245 5.0505V19.9495C0.505245 22.4599 2.5411 24.4949 5.05245 24.4949H125.948C128.459 24.4949 130.495 22.4599 130.495 19.9495V5.0505C130.495 2.54012 128.459 0.50505 125.948 0.50505Z" fill="white"/>
<path d="M125.948 1.0101C128.171 1.0101 129.99 2.82828 129.99 5.05051V19.9495C129.99 22.1717 128.171 23.9899 125.948 23.9899H5.05245C2.82937 23.9899 1.01049 22.1717 1.01049 19.9495V5.05051C1.01049 2.82828 2.82937 1.0101 5.05245 1.0101H125.948ZM125.948 0H5.05245C2.2635 0 0 2.26263 0 5.05051V19.9495C0 22.7374 2.2635 25 5.05245 25H125.948C128.736 25 131 22.7374 131 19.9495V5.05051C131 2.26263 128.736 0 125.948 0Z" fill="#6B8A2E"/>
<path d="M18.9669 8.55533L19.7955 9.36341C19.9067 9.48462 19.9168 9.64623 19.8056 9.76745C19.6945 9.89876 19.6035 10.0099 19.5429 10.1109V10.1311C18.7345 11.3028 17.3299 12.9897 16.0062 14.2523C15.8647 14.3937 15.8647 14.5654 16.0062 14.7169C16.4811 15.1513 16.9358 15.626 17.3097 16.02C17.4411 16.1513 17.431 16.3331 17.2895 16.4543L16.178 17.4139C16.0365 17.5351 15.8647 17.525 15.7434 17.3735C15.1776 16.7068 14.2782 15.7573 13.5709 15.1109C12.9747 14.5553 12.0653 13.8078 11.3579 13.2927C11.1659 13.1513 11.1558 12.9493 11.3377 12.8078L12.2876 11.9695C12.3886 11.8887 12.5301 11.8685 12.6513 11.9594C13.0757 12.2523 13.6012 12.6361 14.1368 13.0705C14.258 13.1715 14.4197 13.1513 14.541 13.0604C15.3291 12.323 16.1173 11.424 16.6226 10.7472C16.8146 10.4846 16.7236 10.3028 16.3902 10.3028H11.3882C11.0649 10.3028 10.6405 10.3432 10.3272 10.3735C10.1049 10.3836 9.97354 10.2624 9.97354 10.0604V8.80785C9.97354 8.58563 10.115 8.46442 10.3373 8.50482C10.6809 8.54522 11.1255 8.57553 11.3882 8.57553H17.5825C18.0069 8.57553 18.3909 8.53512 18.6739 8.46442C18.785 8.44421 18.9063 8.46442 18.9871 8.54522L18.9669 8.55533Z" fill="#6B8A2E"/>
<path d="M22.1399 15.4343C23.6455 15.1818 24.9491 14.6969 25.9696 14.101C27.8188 13.0303 29.2638 11.4949 30.0924 10.0202C30.2743 9.71715 30.4764 9.70705 30.6583 10.0202L31.3657 11.3131C31.4162 11.3939 31.4162 11.5151 31.3657 11.606C30.436 13.1919 28.8394 14.7272 26.9801 15.8182C25.8484 16.4747 24.4438 17.0606 23.0493 17.303C22.9281 17.3232 22.8068 17.2828 22.7462 17.1717L21.9176 15.899C21.7761 15.6565 21.8569 15.4747 22.1399 15.4242V15.4343ZM23.4434 8.12119C24.1811 8.65654 25.333 9.57573 26.0101 10.2525C26.1414 10.3737 26.1313 10.5454 26.0101 10.6666L25.0198 11.6868C24.8783 11.8182 24.7065 11.8182 24.5752 11.6868C23.9689 11.0707 22.9281 10.1717 22.1904 9.60604C22.0186 9.48483 22.0085 9.30301 22.1399 9.14139L23.0493 8.17169C23.1605 8.05048 23.3121 8.04038 23.4535 8.12119H23.4434Z" fill="#6B8A2E"/>
<path d="M34.4476 10.3132C35.1651 10.697 36.0644 11.2526 36.6505 11.6667C36.792 11.7677 36.8324 11.9293 36.7313 12.0808L36.0442 13.1313C35.9432 13.293 35.7815 13.3233 35.6198 13.2324C35.0034 12.8081 34.1647 12.2627 33.4877 11.8788C33.3159 11.7778 33.2654 11.6162 33.3765 11.4445L34.0536 10.4142C34.1344 10.2829 34.2961 10.2324 34.4375 10.3132H34.4476ZM34.0637 15.596C35.2257 15.3637 36.4282 15.0303 37.5802 14.394C39.3788 13.4142 40.9148 11.9798 41.8545 10.495C42.0364 10.2122 42.2385 10.2122 42.4002 10.5051L43.1176 11.7778C43.1682 11.8788 43.1682 12 43.0974 12.0909C41.996 13.6465 40.3994 15.0303 38.5401 16.0909C37.4387 16.697 35.9027 17.2627 34.8923 17.4748C34.771 17.495 34.6497 17.4344 34.579 17.3334L33.8616 16.0505C33.7302 15.8182 33.811 15.6465 34.0637 15.6061V15.596ZM36.2362 7.6667C36.9436 8.05054 37.8328 8.62629 38.4391 9.02023C38.6008 9.12124 38.621 9.28286 38.5199 9.44448L37.8126 10.4748C37.7115 10.6364 37.5498 10.6566 37.3882 10.5556C36.7819 10.1515 35.9331 9.63639 35.256 9.23235C35.0843 9.13134 35.0539 8.96973 35.155 8.80811L35.8219 7.75761C35.923 7.62629 36.0745 7.57579 36.2261 7.6566L36.2362 7.6667Z" fill="#6B8A2E"/>
<path d="M52.7072 17.4749C52.7072 17.6568 52.5859 17.778 52.4041 17.778H51.1915C51.05 17.778 50.9591 17.6972 50.9591 17.5557C50.9591 17.4143 50.8782 17.3234 50.7367 17.3234H46.7453L46.0582 17.3436C45.8662 17.3436 45.7348 17.2224 45.7348 17.0305V16.0002C45.7348 15.7982 45.8662 15.677 46.0784 15.6871C46.2805 15.6972 46.523 15.7073 46.7655 15.7073H50.6559C50.8378 15.7073 50.9591 15.586 50.9591 15.4042V14.778C50.9591 14.5962 50.8378 14.4749 50.6559 14.4749H47.5638C47.2404 14.4749 46.8261 14.4749 46.4927 14.485C46.3007 14.485 46.1693 14.3638 46.1693 14.1719V13.1921C46.1693 13.0002 46.3007 12.879 46.4927 12.879C46.816 12.8891 47.2202 12.8992 47.5638 12.8992H50.6559C50.8378 12.8992 50.9591 12.778 50.9591 12.5962V12.1113C50.9591 11.9295 50.8378 11.8083 50.6559 11.8083H47.4223C47.0485 11.8083 46.5331 11.8184 46.1693 11.8285C45.9773 11.8386 45.8561 11.7174 45.8561 11.5254V10.5153C45.8561 10.3133 45.9874 10.1921 46.1996 10.2022C46.5634 10.2123 47.0586 10.2224 47.4223 10.2224H51.727C51.8988 10.2224 52.1615 10.2224 52.3838 10.2123C52.5758 10.2123 52.6971 10.3436 52.6971 10.5355V16.8891C52.6971 17.0103 52.6971 17.2426 52.7072 17.4547V17.4749Z" fill="#6B8A2E"/>
<path d="M55.9408 15.4343C57.4464 15.1818 58.7499 14.6969 59.7705 14.101C61.6197 13.0303 63.0647 11.4949 63.8933 10.0202C64.0752 9.71715 64.2773 9.70705 64.4592 10.0202L65.1665 11.3131C65.217 11.3939 65.217 11.5151 65.1665 11.606C64.2369 13.1919 62.6403 14.7272 60.781 15.8182C59.6493 16.4747 58.2447 17.0606 56.8502 17.303C56.7289 17.3232 56.6077 17.2828 56.547 17.1717L55.7184 15.899C55.577 15.6565 55.6578 15.4747 55.9408 15.4242V15.4343ZM57.2443 8.12119C57.9819 8.65654 59.1339 9.57573 59.8109 10.2525C59.9423 10.3737 59.9322 10.5454 59.8109 10.6666L58.8206 11.6868C58.6792 11.8182 58.5074 11.8182 58.376 11.6868C57.7697 11.0707 56.7289 10.1717 55.9913 9.60604C55.8195 9.48483 55.8094 9.30301 55.9408 9.14139L56.8502 8.17169C56.9613 8.05048 57.1129 8.04038 57.2544 8.12119H57.2443Z" fill="#6B8A2E"/>
<path d="M68.0061 7.85874H69.4006C69.5926 7.85874 69.7138 7.99006 69.7037 8.18198C69.6936 8.34359 69.6835 8.52541 69.6835 8.76783V12.6769C69.6835 12.8688 69.6936 13.1618 69.7037 13.4143C69.7138 13.6062 69.5926 13.7375 69.4006 13.7375H67.9657C67.7838 13.7375 67.6625 13.6062 67.6726 13.4244C67.6827 13.182 67.713 12.889 67.713 12.6567V8.75773C67.713 8.61632 67.713 8.4042 67.7029 8.19208C67.6827 7.99006 67.804 7.84864 68.0061 7.84864V7.85874ZM73.3011 7.74763H74.6854C74.8774 7.74763 74.9987 7.87895 74.9886 8.07086C74.9785 8.33349 74.9684 8.62642 74.9684 8.99006V11.4951C74.9684 13.8082 74.4328 14.9598 73.5537 15.8789C72.8463 16.6163 71.7651 17.1719 70.9365 17.4648C70.8253 17.5153 70.694 17.4749 70.6131 17.384L69.7542 16.2931C69.5824 16.0709 69.6431 15.8789 69.9159 15.8082C70.7546 15.5456 71.5428 15.1921 72.1188 14.5961C72.8868 13.7678 73.0484 12.9598 73.0484 11.3739V8.99006C73.0484 8.63652 73.0383 8.34359 72.9979 8.08097C72.9878 7.87895 73.099 7.73753 73.3112 7.73753L73.3011 7.74763Z" fill="#6B8A2E"/>
<path d="M85.447 8.28292C85.5279 8.26271 85.6188 8.27281 85.6795 8.32332L86.6697 8.98999C86.8011 9.07079 86.8516 9.23241 86.791 9.39403C86.7203 9.61625 86.6495 9.87888 86.599 10.0607C86.3059 11.1516 85.8815 12.9395 84.8913 14.2728C83.9919 15.495 82.4762 16.687 80.5967 17.3839C80.4754 17.4344 80.3542 17.394 80.2733 17.3031L79.2426 16.1314C79.0607 15.9092 79.1214 15.7173 79.3841 15.6365C80.9402 15.1314 82.3549 14.1819 83.1734 13.1819C83.8302 12.394 84.194 11.3839 84.3759 10.5253C84.4163 10.3233 84.2951 10.1718 84.0829 10.1718H79.3639C78.9597 10.1718 78.5252 10.192 78.2018 10.2122C78.0098 10.2223 77.8785 10.1011 77.8785 9.90918V8.61625C77.8785 8.39403 78.0098 8.29302 78.222 8.30312C78.606 8.34352 79.091 8.37383 79.374 8.37383H84.4972C84.7296 8.37383 85.0833 8.36372 85.4167 8.30312H85.4369L85.447 8.28292Z" fill="#6B8A2E"/>
<path d="M95.3498 11.1921H96.2593C96.4513 11.1921 96.7241 11.182 96.9363 11.1517C97.1384 11.1416 97.29 11.2628 97.29 11.4749V12.4648C97.29 12.6567 97.1687 12.778 96.9767 12.7679C96.7443 12.7578 96.5119 12.7578 96.33 12.7578H95.4307C95.2387 12.7578 95.1174 12.879 95.1275 13.0709C95.1477 14.2931 95.1882 15.5759 95.1983 16.6971C95.2084 17.3638 94.7031 17.8386 93.9352 17.8386C93.4097 17.8386 92.8438 17.8285 92.3487 17.7982C92.187 17.7982 92.0658 17.6769 92.0556 17.5153L91.995 16.5658C91.9849 16.3436 92.1163 16.2123 92.3386 16.2426C92.6922 16.2628 93.0459 16.2931 93.248 16.2931C93.4703 16.2931 93.5512 16.182 93.5512 15.9295V14.98C93.5512 14.4951 93.3289 14.4244 92.9954 14.7578C92.2072 15.5355 91.1462 16.3537 90.1761 16.8891C90.0549 16.9497 89.9134 16.9295 89.8123 16.8184L89.0242 15.9093C88.8625 15.7275 88.9029 15.5456 89.1353 15.4345C90.3277 14.8386 91.4594 14.0002 92.2274 13.2123C92.4901 12.9295 92.3992 12.7376 92.0253 12.7376H90.5702C90.3176 12.7376 89.9841 12.7477 89.7012 12.7578C89.5092 12.7679 89.3778 12.6466 89.3778 12.4547V11.4244C89.3778 11.2224 89.5092 11.1012 89.7113 11.1214C89.9942 11.1416 90.3075 11.1618 90.5197 11.1618H93.1874C93.3592 11.1618 93.4703 11.0507 93.4501 10.879V10.5961C93.4299 10.3941 93.4097 10.1315 93.3794 9.87896C93.3592 9.67694 93.4804 9.52543 93.6926 9.52543H94.7739C94.976 9.52543 95.0972 9.66684 95.0871 9.87896C95.0669 10.1214 95.0669 10.3739 95.0669 10.5961V10.879C95.077 11.0507 95.1882 11.1618 95.3599 11.1618L95.3498 11.1921Z" fill="#6B8A2E"/>
<path d="M99.9679 13.1513V11.5957C99.9679 11.4038 100.099 11.2826 100.291 11.2927C100.786 11.3129 101.504 11.3533 101.948 11.3533H108.072C108.436 11.3533 108.84 11.3129 109.153 11.2927C109.345 11.2826 109.477 11.4038 109.477 11.5957V13.1513C109.477 13.3432 109.355 13.4644 109.163 13.4543C108.84 13.4341 108.395 13.4038 108.072 13.4038H101.948C101.423 13.4038 100.766 13.424 100.281 13.4543C100.099 13.4543 99.9679 13.3331 99.9679 13.1513Z" fill="#6B8A2E"/>
<path d="M120.915 16.6667L119.591 17.2525C119.41 17.3333 119.238 17.2626 119.177 17.0808L118.864 16.3232C118.813 16.202 118.692 16.1313 118.551 16.1414C116.621 16.3738 113.539 16.6869 112.185 16.8283L111.326 16.9394C111.154 16.9596 111.012 16.8586 110.982 16.6869L110.76 15.2929C110.719 15.0909 110.841 14.9394 111.053 14.9394C111.407 14.9394 111.791 14.9394 112.073 14.9293H112.154L112.175 14.9192C112.215 14.9192 112.255 14.8788 112.286 14.8485V14.8283C112.942 13.101 113.812 10.2828 114.155 9.09093C114.286 8.62628 114.357 8.28285 114.408 7.94951C114.448 7.76769 114.579 7.65658 114.771 7.69699L116.287 8.01012C116.52 8.06062 116.6 8.21214 116.52 8.43436C116.388 8.74749 116.267 9.11113 116.136 9.48487C115.772 10.5152 115.044 12.7677 114.499 14.3333C114.398 14.596 114.539 14.7576 114.812 14.7374C115.762 14.6364 116.742 14.5354 117.591 14.4344C117.843 14.4142 117.944 14.2323 117.823 14C117.591 13.5354 117.358 13.1111 117.136 12.7677C117.015 12.5657 117.065 12.3839 117.277 12.2929L118.44 11.8182C118.571 11.7576 118.733 11.8081 118.803 11.9394C119.551 13.1515 120.511 15.0303 121.057 16.303C121.127 16.4647 121.067 16.6162 120.915 16.6869V16.6667Z" fill="#6B8A2E"/>
<path d="M338.885 0.50505H228.115C225.573 0.50505 223.512 2.54012 223.512 5.0505V19.9495C223.512 22.4599 225.573 24.4949 228.115 24.4949H338.885C341.427 24.4949 343.488 22.4599 343.488 19.9495V5.0505C343.488 2.54012 341.427 0.50505 338.885 0.50505Z" fill="white"/>
<path d="M338.885 1.0101C341.135 1.0101 342.977 2.82828 342.977 5.05051V19.9495C342.977 22.1717 341.135 23.9899 338.885 23.9899H228.115C225.865 23.9899 224.023 22.1717 224.023 19.9495V5.05051C224.023 2.82828 225.865 1.0101 228.115 1.0101H338.885ZM338.885 0H228.115C225.292 0 223 2.26263 223 5.05051V19.9495C223 22.7374 225.292 25 228.115 25H338.885C341.708 25 344 22.7374 344 19.9495V5.05051C344 2.26263 341.708 0 338.885 0Z" fill="#6B8A2E"/>
<path d="M242.367 12.0503L242.602 13.2119C242.654 13.4139 242.541 13.5654 242.336 13.5856C242.029 13.626 241.661 13.6866 241.354 13.727C240.884 13.7978 240.137 13.919 239.277 14.0705C239.093 14.0907 238.991 14.2422 239.032 14.424C239.165 15.1513 239.277 15.7472 239.328 16.1008V16.121C239.39 16.3735 239.461 16.6765 239.554 16.9796C239.594 17.1614 239.492 17.323 239.298 17.3432L237.917 17.5654C237.722 17.5856 237.589 17.4947 237.559 17.3028C237.538 16.9594 237.507 16.6563 237.477 16.4038C237.426 16.0806 237.313 15.4745 237.19 14.7169C237.17 14.5351 237.016 14.4341 236.832 14.4644L234.581 14.8483C234.223 14.9089 233.896 14.9695 233.65 15.0301C233.466 15.0705 233.323 14.9695 233.282 14.7877L233.026 13.6058C232.975 13.4038 233.098 13.2523 233.323 13.2321C233.62 13.2119 233.988 13.1614 234.254 13.121C234.704 13.0604 235.574 12.919 236.535 12.7674C236.72 12.7472 236.822 12.5957 236.791 12.4139L236.648 11.5755C236.628 11.3937 236.474 11.2927 236.29 11.323L234.5 11.6159C234.193 11.6765 233.937 11.7371 233.691 11.8079H233.671C233.487 11.8483 233.343 11.7573 233.303 11.5654L233.057 10.3331C233.016 10.1311 233.129 9.97957 233.343 9.96947C233.63 9.95937 233.886 9.92907 234.141 9.89876C234.489 9.84826 235.185 9.76745 236.003 9.63614C236.188 9.61593 236.29 9.46442 236.259 9.2826L236.136 8.62603C236.096 8.42402 236.055 8.222 236.003 8.06038C235.942 7.83816 236.044 7.68664 236.259 7.65634L237.579 7.47452C237.773 7.43412 237.906 7.54523 237.927 7.73715C237.947 7.93917 237.968 8.18159 237.998 8.36341L238.111 9.00987C238.131 9.19169 238.285 9.2927 238.469 9.2624C239.165 9.14119 239.779 9.04018 240.086 8.97957C240.372 8.92907 240.699 8.85836 240.996 8.78765C241.19 8.73715 241.354 8.83816 241.385 9.03008L241.61 10.1917C241.651 10.3836 241.538 10.5351 241.323 10.5553L240.454 10.6765L238.745 10.9291C238.561 10.9493 238.459 11.1008 238.49 11.2826L238.633 12.121C238.653 12.3028 238.807 12.4038 238.991 12.3735L241.027 12.02C241.354 11.9493 241.702 11.8786 241.999 11.7978C242.193 11.7472 242.347 11.8483 242.377 12.0402L242.367 12.0503Z" fill="#6B8A2E"/>
<path d="M246.613 10.7072C246.899 11.3133 247.268 12.2224 247.493 12.8385C247.554 13.0103 247.482 13.1517 247.309 13.2123L246.163 13.6365C245.979 13.6971 245.815 13.6264 245.753 13.4446C245.559 12.8587 245.211 11.9598 244.945 11.3941C244.863 11.1921 244.925 11.0204 245.129 10.9496L246.234 10.5658C246.398 10.5052 246.541 10.5658 246.603 10.7072H246.613ZM251.923 10.283L253.242 10.6971C253.427 10.7577 253.498 10.9193 253.437 11.1012C253.334 11.384 253.273 11.5961 253.212 11.8082C252.905 12.9092 252.414 14.081 251.657 15.081C250.613 16.4143 249.242 17.3941 247.892 17.9395C247.779 17.9901 247.646 17.9497 247.564 17.8688L246.592 16.889C246.367 16.6567 246.429 16.4648 246.736 16.3638C247.892 15.9598 249.273 15.1618 250.122 14.1214C250.818 13.2527 251.35 11.8789 251.513 10.5557C251.534 10.3234 251.698 10.2123 251.923 10.2931V10.283ZM249.314 10.1012C249.539 10.6365 249.887 11.5557 250.091 12.1113C250.153 12.283 250.081 12.4244 249.907 12.485L248.802 12.8587C248.618 12.9193 248.454 12.8486 248.393 12.6567C248.219 12.1113 247.922 11.283 247.667 10.7072C247.585 10.5153 247.656 10.3436 247.851 10.283L248.945 9.92945C249.089 9.87894 249.252 9.93955 249.314 10.1012Z" fill="#6B8A2E"/>
<path d="M261.979 11.2122H263.954C264.128 11.2122 264.486 11.192 264.772 11.1718C264.967 11.1617 265.09 11.2728 265.09 11.4647V12.6061C265.09 12.798 264.957 12.9192 264.762 12.9091C264.506 12.899 264.23 12.8889 263.985 12.8889H261.877C261.713 12.8889 261.591 13.0001 261.57 13.1516C261.314 14.8283 260.516 16.3738 258.798 17.4647C258.695 17.5354 258.562 17.5253 258.47 17.4647L257.284 16.6768C257.017 16.495 257.028 16.293 257.324 16.1314C258.614 15.4243 259.35 14.4445 259.667 13.2324C259.718 13.0304 259.596 12.8788 259.371 12.8788H256.977C256.741 12.8788 256.445 12.8889 256.189 12.899C255.994 12.9091 255.861 12.7879 255.861 12.596V11.4647C255.861 11.2728 255.994 11.1516 256.189 11.1617C256.445 11.1819 256.7 11.2021 256.956 11.2021H259.493C259.678 11.2021 259.8 11.0809 259.8 10.899V10.1617C259.8 9.96976 259.667 9.84854 259.473 9.85864C258.634 9.92935 257.816 9.95965 257.181 9.97986C257.048 9.97986 256.925 9.89905 256.884 9.74753L256.618 8.76773C256.547 8.53541 256.67 8.38389 256.915 8.38389C257.856 8.38389 259.299 8.36369 260.424 8.19198C261.499 8.03036 262.389 7.82834 263.003 7.57581C263.146 7.52531 263.299 7.56571 263.381 7.68693L264.107 8.64652C264.281 8.87885 264.21 9.06066 263.934 9.13137L263.34 9.27278C262.87 9.38389 262.419 9.4748 261.928 9.56571C261.765 9.60612 261.673 9.70713 261.673 9.86874V10.9091C261.673 11.091 261.795 11.2122 261.979 11.2122Z" fill="#6B8A2E"/>
<path d="M267.279 15.4343C268.803 15.1818 270.123 14.6969 271.157 14.101C273.029 13.0303 274.492 11.4949 275.331 10.0202C275.515 9.71715 275.719 9.70705 275.904 10.0202L276.62 11.3131C276.671 11.3939 276.671 11.5151 276.62 11.606C275.679 13.1919 274.072 14.7272 272.18 15.8182C271.034 16.4747 269.612 17.0606 268.2 17.303C268.077 17.3232 267.954 17.2828 267.893 17.1717L267.054 15.899C266.911 15.6565 266.993 15.4747 267.279 15.4242V15.4343ZM268.599 8.12119C269.346 8.65654 270.512 9.57573 271.197 10.2525C271.33 10.3737 271.32 10.5454 271.197 10.6666L270.195 11.6868C270.052 11.8182 269.878 11.8182 269.745 11.6868C269.131 11.0707 268.077 10.1717 267.33 9.60604C267.156 9.48483 267.146 9.30301 267.279 9.14139L268.2 8.17169C268.312 8.05048 268.466 8.04038 268.609 8.12119H268.599Z" fill="#6B8A2E"/>
<path d="M279.495 7.85874H280.907C281.101 7.85874 281.224 7.99006 281.214 8.18198C281.203 8.34359 281.193 8.52541 281.193 8.76783V12.6769C281.193 12.8688 281.203 13.1618 281.214 13.4143C281.224 13.6062 281.101 13.7375 280.907 13.7375H279.454C279.27 13.7375 279.147 13.6062 279.157 13.4244C279.167 13.182 279.198 12.889 279.198 12.6567V8.75773C279.198 8.61632 279.198 8.4042 279.188 8.19208C279.167 7.99006 279.29 7.84864 279.495 7.84864V7.85874ZM284.856 7.74763H286.257C286.452 7.74763 286.574 7.87895 286.564 8.07086C286.554 8.33349 286.544 8.62642 286.544 8.99006V11.4951C286.544 13.8082 286.002 14.9598 285.111 15.8789C284.395 16.6163 283.29 17.1719 282.462 17.4648C282.349 17.5153 282.216 17.4749 282.134 17.384L281.265 16.2931C281.091 16.0709 281.152 15.8789 281.428 15.8082C282.278 15.5456 283.076 15.1921 283.659 14.5961C284.436 13.7678 284.6 12.9598 284.6 11.3739V8.99006C284.6 8.63652 284.59 8.34359 284.549 8.08097C284.539 7.87895 284.651 7.73753 284.866 7.73753L284.856 7.74763Z" fill="#6B8A2E"/>
<path d="M297.153 8.28292C297.235 8.26271 297.327 8.27281 297.388 8.32332L298.391 8.98999C298.524 9.07079 298.575 9.23241 298.514 9.39403C298.442 9.61625 298.371 9.87888 298.319 10.0607C298.023 11.1516 297.593 12.9395 296.59 14.2728C295.68 15.495 294.145 16.687 292.242 17.3839C292.12 17.4344 291.997 17.394 291.915 17.3031L290.871 16.1314C290.687 15.9092 290.749 15.7173 291.015 15.6365C292.59 15.1314 294.023 14.1819 294.851 13.1819C295.516 12.394 295.885 11.3839 296.069 10.5253C296.11 10.3233 295.987 10.1718 295.772 10.1718H290.994C290.585 10.1718 290.145 10.192 289.818 10.2122C289.623 10.2223 289.49 10.1011 289.49 9.90918V8.61625C289.49 8.39403 289.623 8.29302 289.838 8.30312C290.227 8.34352 290.718 8.37383 291.004 8.37383H296.191C296.427 8.37383 296.785 8.36372 297.122 8.30312H297.143L297.153 8.28292Z" fill="#6B8A2E"/>
<path d="M307.179 11.1921H308.1C308.295 11.1921 308.571 11.182 308.786 11.1517C308.99 11.1416 309.144 11.2628 309.144 11.4749V12.4648C309.144 12.6567 309.021 12.778 308.827 12.7679C308.591 12.7578 308.356 12.7578 308.172 12.7578H307.261C307.067 12.7578 306.944 12.879 306.954 13.0709C306.975 14.2931 307.016 15.5759 307.026 16.6971C307.036 17.3638 306.525 17.8386 305.747 17.8386C305.215 17.8386 304.642 17.8285 304.141 17.7982C303.977 17.7982 303.854 17.6769 303.844 17.5153L303.783 16.5658C303.773 16.3436 303.906 16.2123 304.131 16.2426C304.489 16.2628 304.847 16.2931 305.051 16.2931C305.276 16.2931 305.358 16.182 305.358 15.9295V14.98C305.358 14.4951 305.133 14.4244 304.796 14.7578C303.998 15.5355 302.923 16.3537 301.941 16.8891C301.818 16.9497 301.675 16.9295 301.573 16.8184L300.775 15.9093C300.611 15.7275 300.652 15.5456 300.887 15.4345C302.095 14.8386 303.24 14.0002 304.018 13.2123C304.284 12.9295 304.192 12.7376 303.813 12.7376H302.34C302.084 12.7376 301.747 12.7477 301.46 12.7578C301.266 12.7679 301.133 12.6466 301.133 12.4547V11.4244C301.133 11.2224 301.266 11.1012 301.471 11.1214C301.757 11.1416 302.074 11.1618 302.289 11.1618H304.99C305.164 11.1618 305.276 11.0507 305.256 10.879V10.5961C305.236 10.3941 305.215 10.1315 305.184 9.87896C305.164 9.67694 305.287 9.52543 305.502 9.52543H306.596C306.801 9.52543 306.924 9.66684 306.913 9.87896C306.893 10.1214 306.893 10.3739 306.893 10.5961V10.879C306.903 11.0507 307.016 11.1618 307.19 11.1618L307.179 11.1921Z" fill="#6B8A2E"/>
<path d="M311.855 13.1513V11.5957C311.855 11.4038 311.988 11.2826 312.182 11.2927C312.684 11.3129 313.41 11.3533 313.86 11.3533H320.06C320.428 11.3533 320.837 11.3129 321.155 11.2927C321.349 11.2826 321.482 11.4038 321.482 11.5957V13.1513C321.482 13.3432 321.359 13.4644 321.165 13.4543C320.837 13.4341 320.398 13.4038 320.06 13.4038H313.86C313.328 13.4038 312.653 13.424 312.162 13.4543C311.978 13.4543 311.845 13.3331 311.845 13.1513H311.855Z" fill="#6B8A2E"/>
<path d="M333.063 16.6667L331.723 17.2525C331.539 17.3334 331.365 17.2626 331.304 17.0808L330.986 16.3232C330.935 16.202 330.812 16.1313 330.669 16.1414C328.715 16.3738 325.595 16.6869 324.224 16.8283L323.354 16.9394C323.18 16.9596 323.037 16.8586 323.006 16.6869L322.781 15.2929C322.74 15.0909 322.863 14.9394 323.078 14.9394C323.436 14.9394 323.825 14.9394 324.111 14.9293H324.193L324.214 14.9192C324.255 14.9192 324.295 14.8788 324.326 14.8485V14.8283C324.991 13.101 325.871 10.2828 326.219 9.09093C326.352 8.62628 326.423 8.28285 326.475 7.94951C326.516 7.76769 326.648 7.65658 326.843 7.69699L328.378 8.01012C328.613 8.06062 328.695 8.21214 328.613 8.43436C328.48 8.74749 328.357 9.11113 328.224 9.48487C327.856 10.5152 327.119 12.7677 326.567 14.3334C326.464 14.596 326.608 14.7576 326.884 14.7374C327.846 14.6364 328.838 14.5354 329.697 14.4344C329.953 14.4142 330.055 14.2323 329.933 14C329.697 13.5354 329.462 13.1111 329.237 12.7677C329.114 12.5657 329.165 12.3839 329.38 12.2929L330.557 11.8182C330.69 11.7576 330.853 11.8081 330.925 11.9394C331.682 13.1515 332.654 15.0303 333.206 16.303C333.278 16.4647 333.217 16.6162 333.063 16.6869V16.6667Z" fill="#6B8A2E"/>
<path d="M210.862 0.50505H143.138C140.584 0.50505 138.514 2.54012 138.514 5.0505V19.9495C138.514 22.4599 140.584 24.4949 143.138 24.4949H210.862C213.416 24.4949 215.486 22.4599 215.486 19.9495V5.0505C215.486 2.54012 213.416 0.50505 210.862 0.50505Z" fill="white"/>
<path d="M210.862 1.0101C213.123 1.0101 214.972 2.82828 214.972 5.05051V19.9495C214.972 22.1717 213.123 23.9899 210.862 23.9899H143.138C140.877 23.9899 139.028 22.1717 139.028 19.9495V5.05051C139.028 2.82828 140.877 1.0101 143.138 1.0101H210.862ZM210.862 0H143.138C140.302 0 138 2.26263 138 5.05051V19.9495C138 22.7374 140.302 25 143.138 25H210.862C213.698 25 216 22.7374 216 19.9495V5.05051C216 2.26263 213.698 0 210.862 0Z" fill="#6B8A2E"/>
<path d="M152.211 11.6766H149.858C149.673 11.6766 149.549 11.7978 149.549 11.9796V17.5857C149.549 17.7675 149.426 17.8887 149.241 17.8887H148.173C147.988 17.8887 147.864 17.7675 147.864 17.5857V7.67657C147.864 7.49475 147.988 7.37354 148.173 7.37354H152.211C152.396 7.37354 152.519 7.49475 152.519 7.67657V11.3735C152.519 11.5554 152.396 11.6766 152.211 11.6766ZM150.741 8.55536H149.734C149.621 8.55536 149.549 8.62606 149.549 8.73718V8.75738C149.549 8.86849 149.621 8.9392 149.734 8.9392H150.741C150.854 8.9392 150.926 8.86849 150.926 8.75738V8.73718C150.926 8.62606 150.854 8.55536 150.741 8.55536ZM149.734 10.4948H150.741C150.854 10.4948 150.926 10.424 150.926 10.3129V10.2321C150.926 10.121 150.854 10.0503 150.741 10.0503H149.734C149.621 10.0503 149.549 10.121 149.549 10.2321V10.3129C149.549 10.424 149.621 10.4948 149.734 10.4948ZM157.944 7.67657V15.9897C157.944 16.8382 157.78 17.3129 157.266 17.5857C156.783 17.8281 156.156 17.8786 155.283 17.8887C155.119 17.8887 154.995 17.7776 154.965 17.6261C154.923 17.4442 154.862 17.2422 154.8 17.0301C154.759 16.9089 154.656 16.8281 154.512 16.8281H152.375C152.2 16.8281 152.077 16.9493 152.077 17.121C152.077 17.2927 151.954 17.4139 151.779 17.4139H150.854C150.669 17.4139 150.546 17.2927 150.546 17.1109V12.5958C150.546 12.4139 150.669 12.2927 150.854 12.2927H154.852C155.036 12.2927 155.16 12.4139 155.16 12.5958V15.9291C155.16 16.1109 155.283 16.2321 155.468 16.2321H155.941C156.146 16.2321 156.228 16.1715 156.228 15.9796V12.0301C156.228 11.8483 156.105 11.7271 155.92 11.7271H153.475C153.29 11.7271 153.166 11.6059 153.166 11.424V7.69677C153.166 7.51495 153.29 7.39374 153.475 7.39374H157.626C157.811 7.39374 157.934 7.51495 157.934 7.69677L157.944 7.67657ZM153.392 13.4746H152.272C152.159 13.4746 152.087 13.5453 152.087 13.6564V13.7776C152.087 13.8887 152.159 13.9594 152.272 13.9594H153.392C153.505 13.9594 153.577 13.8887 153.577 13.7776V13.6564C153.577 13.5453 153.505 13.4746 153.392 13.4746ZM152.272 15.6059H153.392C153.505 15.6059 153.577 15.5352 153.577 15.424V15.3028C153.577 15.1917 153.505 15.121 153.392 15.121H152.272C152.159 15.121 152.087 15.1917 152.087 15.3028V15.424C152.087 15.5352 152.159 15.6059 152.272 15.6059ZM156.043 8.55536H154.975C154.862 8.55536 154.79 8.62606 154.79 8.73718V8.75738C154.79 8.86849 154.862 8.9392 154.975 8.9392H156.043C156.156 8.9392 156.228 8.86849 156.228 8.75738V8.73718C156.228 8.62606 156.156 8.55536 156.043 8.55536ZM154.975 10.5352H156.043C156.156 10.5352 156.228 10.4644 156.228 10.3533V10.2321C156.228 10.121 156.156 10.0503 156.043 10.0503H154.975C154.862 10.0503 154.79 10.121 154.79 10.2321V10.3533C154.79 10.4644 154.862 10.5352 154.975 10.5352Z" fill="#6B8A2E"/>
<path d="M169.556 8.34342L170.316 8.53533C170.48 8.57574 170.563 8.70705 170.552 8.84846C170.347 11.202 169.864 13.0808 169.093 14.5656C169.042 14.6666 169.052 14.798 169.134 14.8788C169.556 15.4141 170.039 15.8586 170.593 16.2222C170.83 16.3636 170.84 16.5656 170.655 16.7576C170.419 17 170.172 17.303 169.987 17.5656C169.874 17.7273 169.699 17.7677 169.545 17.6666C169.052 17.3434 168.61 16.9596 168.21 16.5252C168.066 16.3636 167.86 16.3636 167.716 16.5252C167.305 16.9697 166.843 17.3535 166.339 17.6868C166.175 17.798 166.021 17.7576 165.908 17.606C165.805 17.4646 165.702 17.3131 165.589 17.1616C165.363 16.8788 165.199 16.9596 165.199 17.303V17.5959C165.199 17.7778 165.076 17.899 164.891 17.899H163.863C163.678 17.899 163.555 17.7778 163.555 17.5959V16.5656C163.555 16.3434 163.411 16.2222 163.195 16.2626C162.147 16.4343 161.089 16.5858 160.184 16.7374C160.01 16.7576 159.866 16.6666 159.825 16.4949L159.63 15.4242C159.589 15.2424 159.702 15.101 159.897 15.0707L160.339 15.0303C160.503 15.0101 160.606 14.8889 160.606 14.7273V9.39392C160.606 9.2121 160.482 9.09089 160.297 9.09089H160.164C159.979 9.09089 159.856 8.96968 159.856 8.78786V7.85857C159.856 7.67675 159.979 7.55554 160.164 7.55554H165.558C165.743 7.55554 165.867 7.67675 165.867 7.85857V8.06059C165.867 8.2424 165.99 8.36362 166.175 8.36362H169.175L169.381 8.32321H169.545L169.556 8.34342ZM163.37 9.10099H162.424C162.311 9.10099 162.24 9.1717 162.24 9.28281V9.77776C162.24 9.88887 162.311 9.95958 162.424 9.95958H163.37C163.483 9.95958 163.555 9.88887 163.555 9.77776V9.28281C163.555 9.1717 163.483 9.10099 163.37 9.10099ZM162.24 11.6262V12.1717C162.24 12.2828 162.311 12.3535 162.424 12.3535H163.37C163.483 12.3535 163.555 12.2828 163.555 12.1717V11.6262C163.555 11.5151 163.483 11.4444 163.37 11.4444H162.424C162.311 11.4444 162.24 11.5151 162.24 11.6262ZM162.445 14.7879L163.39 14.6565C163.493 14.6464 163.555 14.5757 163.555 14.4747V14.0303C163.555 13.9192 163.483 13.8485 163.37 13.8485H162.424C162.311 13.8485 162.24 13.9192 162.24 14.0303V14.6161C162.24 14.7374 162.322 14.8081 162.445 14.798V14.7879ZM165.189 9.27271V16.0606C165.189 16.2424 165.302 16.3131 165.456 16.202C166 15.8384 166.463 15.3737 166.884 14.8283C166.935 14.7677 166.935 14.6969 166.905 14.6363C166.278 13.4343 165.836 12.0707 165.476 10.5151C165.456 10.404 165.517 10.3232 165.62 10.2929L166.874 10.0505C166.987 10.0303 167.069 10.0909 167.1 10.1919C167.264 11 167.48 11.7778 167.768 12.4949C167.87 12.7475 168.004 12.7475 168.086 12.4949C168.343 11.7879 168.538 11.0202 168.682 10.1919C168.703 10.0707 168.631 9.98988 168.497 9.98988H165.713C165.6 9.98988 165.528 9.91917 165.528 9.80806V9.26261C165.528 9.1616 165.456 9.09089 165.353 9.09089C165.25 9.09089 165.178 9.1616 165.178 9.26261L165.189 9.27271Z" fill="#6B8A2E"/>
<path d="M173.655 7.43421L174.868 7.48471C175.104 7.49481 175.217 7.64633 175.156 7.85845C175.114 8.04027 175.073 8.24229 175.022 8.45441C174.899 9.02006 175.073 9.10087 175.525 8.73724C176.07 8.31299 176.728 7.99986 177.55 7.99986C179.204 7.99986 180.54 9.56552 180.54 12.1413C180.54 15.3231 178.618 16.9393 175.546 17.5554C175.433 17.5756 175.299 17.515 175.238 17.4241L174.539 16.3837C174.395 16.1514 174.467 15.9696 174.745 15.909C177.098 15.4847 178.618 14.6766 178.618 12.1413C178.618 10.4241 178.022 9.60592 177.211 9.60592C175.895 9.60592 174.755 11.616 174.755 13.111C174.755 13.2928 174.765 13.5453 174.796 13.8888C174.816 14.0807 174.714 14.212 174.508 14.2322L173.378 14.3029C173.203 14.313 173.08 14.2221 173.059 14.0504C173.008 13.616 172.946 13.01 172.946 12.3736C172.946 11.3231 173.07 10.0605 173.255 8.73724C173.306 8.414 173.327 8.05037 173.337 7.74734C173.337 7.55542 173.46 7.4342 173.655 7.44431V7.43421Z" fill="#6B8A2E"/>
<path d="M191.165 13.0908H191.185L191.935 13.5757C192.069 13.6767 192.12 13.8282 192.017 13.9797C191.658 14.5454 191.226 15.0504 190.723 15.4746C190.404 15.7373 190.456 15.9494 190.846 16.0201C191.586 16.1413 192.387 16.2221 193.271 16.2726C193.661 16.2827 193.764 16.4949 193.538 16.8181C193.343 17.1009 193.158 17.414 193.024 17.6767C192.973 17.7979 192.85 17.8686 192.726 17.8585C190.949 17.7272 189.521 17.4443 188.318 16.9494C188.257 16.9292 188.174 16.909 188.092 16.9494H188.072C186.756 17.4241 185.246 17.7272 183.664 17.8989C183.52 17.909 183.396 17.8282 183.335 17.6969C183.232 17.4544 183.098 17.1716 182.955 16.9191C182.77 16.606 182.872 16.414 183.222 16.3837C184.208 16.3029 185.133 16.1817 185.986 15.9999C186.304 15.9393 186.356 15.7474 186.109 15.505H186.099C186.037 15.4443 185.965 15.3635 185.904 15.3029C185.791 15.1817 185.647 15.1615 185.513 15.2322C185.143 15.4241 184.753 15.606 184.331 15.7878C184.167 15.8484 184.023 15.7878 183.941 15.6565C183.807 15.4645 183.633 15.2423 183.458 15.0504C183.211 14.7878 183.253 14.5656 183.602 14.4443C184.588 14.0908 185.349 13.6565 185.914 13.1716C186.047 13.0605 186.047 12.8888 185.924 12.7676C185.78 12.6262 185.616 12.4746 185.451 12.3433C185.246 12.1716 185.246 11.9797 185.462 11.808C186.304 11.1615 186.53 10.4039 186.592 9.70697C186.602 9.52515 186.479 9.40394 186.294 9.40394H183.335C183.15 9.40394 183.027 9.28273 183.027 9.10091V8.18172C183.027 7.9999 183.15 7.87869 183.335 7.87869H187.065C187.25 7.87869 187.373 7.75748 187.373 7.57566V7.27263C187.373 7.09081 187.496 6.9696 187.681 6.9696H188.812C188.996 6.9696 189.12 7.09081 189.12 7.27263V7.57566C189.12 7.75748 189.243 7.87869 189.428 7.87869H193.209C193.394 7.87869 193.518 7.9999 193.518 8.18172V9.10091C193.518 9.28273 193.394 9.40394 193.209 9.40394H190.877C190.692 9.40394 190.569 9.52515 190.569 9.70697V11.2221C190.569 11.8989 190.466 12.3029 190.003 12.5353C189.592 12.7575 189.099 12.7676 188.503 12.7676C188.421 12.7676 188.339 12.808 188.298 12.8686C188.287 12.8686 188.287 12.8787 188.277 12.8888L188.236 12.9292C188.154 13.0302 188.185 13.1009 188.308 13.1009H190.733L190.918 13.0605C190.99 13.0504 191.082 13.0605 191.144 13.111L191.165 13.0908ZM184.66 9.73728L185.606 9.9797C185.832 10.0403 185.914 10.212 185.791 10.4039C185.369 11.1413 184.794 11.8585 184.167 12.3635C184.044 12.4645 183.879 12.4443 183.756 12.3433C183.581 12.1716 183.366 11.9898 183.16 11.8383C182.934 11.6666 182.934 11.4746 183.15 11.2928C183.622 10.909 184.023 10.3938 184.28 9.90899C184.352 9.76758 184.486 9.68677 184.65 9.73728H184.66ZM189.161 14.3736H187.548C187.28 14.3736 187.229 14.4949 187.435 14.6666C187.681 14.8585 187.948 15.0302 188.246 15.1918C188.298 15.2322 188.37 15.2322 188.421 15.2019C188.729 15.0403 189.017 14.8585 189.274 14.6666C189.5 14.505 189.438 14.3736 189.161 14.3736ZM188.76 9.39384H188.38C188.267 9.39384 188.195 9.46455 188.195 9.57566C188.174 10.3736 188.031 11.2928 187.465 12.111C187.363 12.2524 187.404 12.3736 187.589 12.414L188.082 12.5151C188.246 12.5353 188.329 12.4544 188.287 12.2928C188.226 12.0504 188.144 11.7979 188.041 11.5757C187.969 11.4039 188.041 11.2928 188.226 11.313H188.781C188.904 11.313 188.945 11.2928 188.945 11.1716V9.58576C188.945 9.47465 188.873 9.40394 188.76 9.40394V9.39384ZM191.103 10.1817L191.874 9.74738C191.997 9.67667 192.141 9.69687 192.243 9.79788C192.747 10.3231 193.312 10.9696 193.672 11.505C193.754 11.6464 193.723 11.8181 193.559 11.909L192.696 12.414C192.521 12.5151 192.336 12.4645 192.243 12.2928C191.945 11.7979 191.463 11.1817 191.01 10.6464C190.867 10.4746 190.897 10.2928 191.093 10.1817H191.103Z" fill="#6B8A2E"/>
<path d="M201.635 14.3537C201.502 14.3537 201.389 14.4345 201.337 14.5557C201.234 14.8486 201.101 15.1112 200.947 15.384C200.782 15.6163 200.844 15.8082 201.132 15.8688C202.406 16.1213 203.916 16.1314 205.663 16.091C206.054 16.091 206.156 16.2829 205.982 16.6264C205.848 16.889 205.735 17.192 205.663 17.485C205.622 17.6264 205.499 17.7375 205.345 17.7375C203.053 17.6971 201.029 17.5759 199.395 16.9597H199.375C199.303 16.9395 199.2 16.9395 199.118 16.9799C198.419 17.3436 197.525 17.6365 196.436 17.8486C196.302 17.889 196.169 17.8082 196.086 17.687C195.953 17.4446 195.758 17.1415 195.542 16.8789C195.316 16.586 195.398 16.384 195.768 16.3234C196.241 16.2526 196.652 16.1617 197.022 16.0607C197.32 15.99 197.35 15.7779 197.135 15.5658C197.001 15.4244 196.847 15.2627 196.713 15.1011C196.569 14.9193 196.631 14.7375 196.837 14.6567L197.063 14.5759C197.391 14.4446 197.381 14.3537 197.022 14.3537H196.724C196.539 14.3537 196.415 14.2324 196.415 14.0506V9.72739C196.415 9.54557 196.539 9.42436 196.724 9.42436H199.56C199.724 9.42436 199.816 9.32335 199.816 9.17183C199.816 9.02032 199.714 8.91931 199.56 8.91931H195.737C195.552 8.91931 195.429 8.7981 195.429 8.61628V7.74759C195.429 7.56577 195.552 7.44456 195.737 7.44456H205.509C205.694 7.44456 205.817 7.56577 205.817 7.74759V8.61628C205.817 8.7981 205.694 8.91931 205.509 8.91931H201.871C201.707 8.91931 201.615 9.02032 201.615 9.17183C201.615 9.32335 201.717 9.42436 201.871 9.42436H204.759C204.944 9.42436 205.067 9.54557 205.067 9.72739V14.0506C205.067 14.2324 204.944 14.3537 204.759 14.3537H201.635ZM198.008 10.9294V11.0708C198.008 11.1819 198.08 11.2526 198.193 11.2526H199.621C199.734 11.2526 199.806 11.1819 199.806 11.0708V10.9294C199.806 10.8183 199.734 10.7476 199.621 10.7476H198.193C198.08 10.7476 198.008 10.8183 198.008 10.9294ZM198.008 12.6769V12.8183C198.008 12.9294 198.08 13.0001 198.193 13.0001H199.693C199.755 13.0001 199.806 12.9496 199.806 12.889V12.6365C199.806 12.5557 199.745 12.4951 199.662 12.4951H198.193C198.08 12.4951 198.008 12.5658 198.008 12.6769ZM199.22 14.3537H198.522C198.255 14.3537 198.203 14.4749 198.398 14.6567C198.542 14.7779 198.707 14.8991 198.871 15.0001C198.943 15.0506 199.036 15.0506 199.097 14.9799C199.21 14.8688 199.303 14.7476 199.395 14.6163C199.498 14.4749 199.416 14.3638 199.231 14.3638L199.22 14.3537ZM203.176 10.7476H201.789C201.676 10.7476 201.604 10.8183 201.604 10.9294V11.0708C201.604 11.1819 201.676 11.2526 201.789 11.2526H203.176C203.289 11.2526 203.361 11.1819 203.361 11.0708V10.9294C203.361 10.8183 203.289 10.7476 203.176 10.7476ZM203.361 12.6769C203.361 12.5658 203.289 12.4951 203.176 12.4951H201.758C201.656 12.4951 201.594 12.5557 201.594 12.6567V12.9092C201.594 12.9698 201.635 13.0102 201.697 13.0102H203.176C203.289 13.0102 203.361 12.9395 203.361 12.8284V12.6769Z" fill="#6B8A2E"/>
</svg>
