<svg width="220" height="25" viewBox="0 0 220 25" fill="none" xmlns="http://www.w3.org/2000/svg">
<path d="M52.9818 0.50505H5.01817C2.52386 0.50505 0.501817 2.54012 0.501817 5.0505V19.9495C0.501817 22.4599 2.52386 24.4949 5.01817 24.4949H52.9818C55.4761 24.4949 57.4982 22.4599 57.4982 19.9495V5.0505C57.4982 2.54012 55.4761 0.50505 52.9818 0.50505Z" fill="white"/>
<path d="M52.9818 1.0101C55.1898 1.0101 56.9964 2.82828 56.9964 5.0505V19.9495C56.9964 22.1717 55.1898 23.9899 52.9818 23.9899H5.01817C2.81017 23.9899 1.00363 22.1717 1.00363 19.9495V5.0505C1.00363 2.82828 2.81017 1.0101 5.01817 1.0101H52.9818ZM52.9818 0H5.01817C2.24814 0 0 2.26263 0 5.0505V19.9495C0 22.7374 2.24814 25 5.01817 25H52.9818C55.7519 25 58 22.7374 58 19.9495V5.0505C58 2.26263 55.7519 0 52.9818 0Z" fill="#6B8A2E"/>
<path d="M9.50441 11.3939H19.5709C19.7515 11.3939 19.872 11.5152 19.872 11.697V12.9192C19.872 13.101 19.7515 13.2222 19.5709 13.2222H9.50441C9.32376 13.2222 9.20332 13.101 9.20332 12.9192V11.697C9.20332 11.5152 9.32376 11.3939 9.50441 11.3939Z" fill="#6B8A2E"/>
<path d="M24.9804 14.4242C24.9804 14.5859 25.0808 14.6768 25.2314 14.6768H26.6264C26.8071 14.6768 26.9275 14.798 26.9275 14.9798V15.8283C26.9275 16.0101 26.8071 16.1313 26.6264 16.1313H25.2815C25.1009 16.1313 24.9804 16.2525 24.9804 16.4343V17.5758C24.9804 17.7576 24.86 17.8788 24.6794 17.8788H23.7359C23.5553 17.8788 23.4349 17.7576 23.4349 17.5758V16.4343C23.4349 16.2525 23.3144 16.1313 23.1338 16.1313H21.819C21.6383 16.1313 21.5179 16.0101 21.5179 15.8283V14.9798C21.5179 14.798 21.6383 14.6768 21.819 14.6768H23.1839C23.3445 14.6768 23.4349 14.5758 23.4349 14.4242C23.4349 14.2727 23.3345 14.1717 23.1839 14.1717H22.1C21.9194 14.1717 21.7989 14.0505 21.7989 13.8687V10.202C21.7989 10.0202 21.9194 9.89899 22.1 9.89899H23.1839C23.3445 9.89899 23.4349 9.79798 23.4349 9.64646C23.4349 9.49495 23.3345 9.39394 23.1839 9.39394H21.9595C21.7789 9.39394 21.6584 9.27273 21.6584 9.09091V8.26263C21.6584 8.08081 21.7789 7.9596 21.9595 7.9596H23.1438C23.3244 7.9596 23.4449 7.83838 23.4449 7.65657V7.25252C23.4449 7.07071 23.5653 6.94949 23.746 6.94949H24.6994C24.8801 6.94949 25.0005 7.07071 25.0005 7.25252V7.65657C25.0005 7.83838 25.121 7.9596 25.3016 7.9596H26.4257C26.6063 7.9596 26.7268 8.08081 26.7268 8.26263V9.09091C26.7268 9.27273 26.6063 9.39394 26.4257 9.39394H25.2615C25.1009 9.39394 25.0106 9.49495 25.0106 9.64646C25.0106 9.79798 25.1109 9.89899 25.2615 9.89899H26.4056C26.5863 9.89899 26.7067 10.0202 26.7067 10.202V13.8687C26.7067 14.0505 26.5863 14.1717 26.4056 14.1717H25.2514C25.0908 14.1717 25.0005 14.2727 25.0005 14.4242H24.9804ZM23.0535 11.2121V11.3232C23.0535 11.4343 23.1237 11.5051 23.2341 11.5051H23.4349C23.5452 11.5051 23.6155 11.4343 23.6155 11.3232V11.2121C23.6155 11.101 23.5452 11.0303 23.4349 11.0303H23.2341C23.1237 11.0303 23.0535 11.101 23.0535 11.2121ZM23.0535 12.7374V12.8485C23.0535 12.9596 23.1237 13.0303 23.2341 13.0303H23.4349C23.5452 13.0303 23.6155 12.9596 23.6155 12.8485V12.7374C23.6155 12.6263 23.5452 12.5556 23.4349 12.5556H23.2341C23.1237 12.5556 23.0535 12.6263 23.0535 12.7374ZM25.3919 11.3232V11.2121C25.3919 11.101 25.3217 11.0303 25.2113 11.0303H24.9804C24.87 11.0303 24.7998 11.101 24.7998 11.2121V11.3232C24.7998 11.4343 24.87 11.5051 24.9804 11.5051H25.2113C25.3217 11.5051 25.3919 11.4343 25.3919 11.3232ZM25.3919 12.8485V12.7374C25.3919 12.6263 25.3217 12.5556 25.2113 12.5556H24.9804C24.87 12.5556 24.7998 12.6263 24.7998 12.7374V12.8485C24.7998 12.9596 24.87 13.0303 24.9804 13.0303H25.2113C25.3217 13.0303 25.3919 12.9596 25.3919 12.8485ZM32.3973 11.8384V12.7879C32.3973 12.9697 32.2769 13.0909 32.0962 13.0909H30.7513C30.5707 13.0909 30.4503 13.2121 30.4503 13.3939V17.5859C30.4503 17.7677 30.3298 17.8889 30.1492 17.8889H29.1054C28.9247 17.8889 28.8043 17.7677 28.8043 17.5859V13.3939C28.8043 13.2121 28.6839 13.0909 28.5032 13.0909H27.1282C26.9476 13.0909 26.8271 12.9697 26.8271 12.7879V11.8384C26.8271 11.6566 26.9476 11.5354 27.1282 11.5354H28.5032C28.6839 11.5354 28.8043 11.4141 28.8043 11.2323V9.39394C28.8043 9.21212 28.6839 9.09091 28.5032 9.09091H27.3591C27.1784 9.09091 27.058 8.9697 27.058 8.78788V7.83838C27.058 7.65657 27.1784 7.53535 27.3591 7.53535H31.8654C32.046 7.53535 32.1665 7.65657 32.1665 7.83838V8.78788C32.1665 8.9697 32.046 9.09091 31.8654 9.09091H30.7614C30.5807 9.09091 30.4603 9.21212 30.4603 9.39394V11.2323C30.4603 11.4141 30.5807 11.5354 30.7614 11.5354H32.1062C32.2869 11.5354 32.4073 11.6566 32.4073 11.8384H32.3973Z" fill="#6B8A2E"/>
<path d="M42.8752 11.2929L43.6781 12C43.8588 12.1414 43.8488 12.3333 43.6681 12.4646C43.2265 12.7778 42.7448 13.0909 42.2931 13.3535C42.1225 13.4545 42.0924 13.6162 42.1928 13.7778C42.6544 14.4646 43.2265 15.0404 43.9291 15.4444C44.1699 15.5859 44.19 15.7879 44.0093 15.9899C43.7785 16.2525 43.5276 16.5758 43.3369 16.8586C43.2365 17.0202 43.076 17.0606 42.9154 16.9697C41.2192 15.8384 40.2758 14 39.6536 11.6768C39.5833 11.3939 39.3926 11.3333 39.1618 11.5051L39.0514 11.5758C38.8607 11.7172 38.8507 11.9192 39.0112 12.0808C40.8278 13.9596 40.6472 16.5657 39.5532 17.3737C39.0915 17.7778 38.7001 17.9091 38.0478 17.9091C37.827 17.9192 37.5861 17.9091 37.3452 17.899C37.1846 17.899 37.0843 17.7778 37.0542 17.6162C37.014 17.3535 36.9438 17.0202 36.8334 16.7273C36.7731 16.5556 36.6025 16.5051 36.4319 16.5859C35.8799 16.8687 35.3078 17.0909 34.7859 17.2929C34.6254 17.3434 34.4849 17.2828 34.4146 17.1313C34.2942 16.899 34.1336 16.6364 33.973 16.3939C33.8024 16.1414 33.8626 15.9495 34.1537 15.8687C35.629 15.4444 37.2449 14.697 38.2786 13.9091C38.3388 13.8586 38.3488 13.7879 38.3288 13.7273C38.2886 13.6566 38.2284 13.6465 38.1682 13.6768H38.1481C37.285 14.2323 36.1308 14.7879 35.1673 15.1515C35.0067 15.2121 34.8662 15.1515 34.796 15.0202C34.6755 14.8283 34.5451 14.596 34.4146 14.404C34.234 14.1515 34.2942 13.9394 34.5953 13.8586C35.5989 13.596 36.7129 13.1414 37.4355 12.697H37.4556C37.4556 12.697 37.5058 12.6263 37.4657 12.5859L37.4456 12.5657C37.4456 12.5657 37.3452 12.5253 37.3051 12.5556C36.5323 12.8788 35.7394 13.1616 34.9566 13.3838C34.8161 13.4242 34.6655 13.3636 34.5953 13.2222C34.4849 13.0202 34.3443 12.7778 34.1938 12.5556C34.0131 12.2929 34.0834 12.0909 34.3945 12.0303C35.1171 11.8687 35.8398 11.6667 36.4921 11.4242C36.8133 11.303 36.7932 11.202 36.452 11.202H36.191C36.0104 11.202 35.8899 11.0808 35.8899 10.899V10.101C35.8899 9.91919 36.0104 9.79798 36.191 9.79798H41.6207C41.8013 9.79798 41.9218 9.91919 41.9218 10.101V10.899C41.9218 11.0808 41.8013 11.202 41.6207 11.202H41.3999C41.1691 11.202 41.0486 11.3434 41.1189 11.5758C41.139 11.6465 41.1691 11.7172 41.1992 11.798V11.8182C41.2795 12.0202 41.4601 12.0808 41.6408 11.9394C41.9318 11.7172 42.2028 11.4949 42.4336 11.2828C42.5541 11.1717 42.7247 11.1717 42.8451 11.2828L42.8752 11.2929ZM35.629 9.61616V10.2727C35.629 10.4545 35.5086 10.5758 35.3279 10.5758H34.3142C34.1336 10.5758 34.0131 10.4545 34.0131 10.2727V8.12121C34.0131 7.93939 34.1336 7.81818 34.3142 7.81818H37.7567C37.9374 7.81818 38.0578 7.69697 38.0578 7.51515V7.28283C38.0578 7.10101 38.1782 6.9798 38.3589 6.9798H39.4629C39.6435 6.9798 39.764 7.10101 39.764 7.28283V7.51515C39.764 7.69697 39.8844 7.81818 40.0651 7.81818H43.5677C43.7484 7.81818 43.8688 7.93939 43.8688 8.12121V10.2727C43.8688 10.4545 43.7484 10.5758 43.5677 10.5758H42.4738C42.2931 10.5758 42.1727 10.4545 42.1727 10.2727V9.61616C42.1727 9.43434 42.0523 9.31313 41.8716 9.31313H35.9301C35.7494 9.31313 35.629 9.43434 35.629 9.61616ZM38.399 16.0808C38.5094 16 38.5897 15.8485 38.6399 15.6667C38.7001 15.4646 38.5797 15.3838 38.389 15.505C38.0478 15.7374 37.7065 15.9394 37.3151 16.1515C37.1244 16.2525 37.1345 16.3333 37.3653 16.3434H37.7366C37.9976 16.3434 38.2083 16.303 38.379 16.101C38.389 16.101 38.399 16.0909 38.399 16.0808Z" fill="#6B8A2E"/>
<path d="M214.952 0.50505H70.0475C67.5386 0.50505 65.5048 2.54012 65.5048 5.0505V19.9495C65.5048 22.4599 67.5386 24.4949 70.0475 24.4949H214.952C217.461 24.4949 219.495 22.4599 219.495 19.9495V5.0505C219.495 2.54012 217.461 0.50505 214.952 0.50505Z" fill="white"/>
<path d="M214.952 1.0101C217.173 1.0101 218.99 2.82828 218.99 5.0505V19.9495C218.99 22.1717 217.173 23.9899 214.952 23.9899H70.0475C67.8266 23.9899 66.0095 22.1717 66.0095 19.9495V5.0505C66.0095 2.82828 67.8266 1.0101 70.0475 1.0101H214.952ZM214.952 0H70.0475C67.2613 0 65 2.26263 65 5.0505V19.9495C65 22.7374 67.2613 25 70.0475 25H214.952C217.739 25 220 22.7374 220 19.9495V5.0505C220 2.26263 217.739 0 214.952 0Z" fill="#6B8A2E"/>
<path d="M77.9823 11.9596C77.9823 11.9596 77.9621 12.0101 77.9621 12.0404L77.9823 12.0808C77.9823 12.0808 78.0025 12.1313 78.0227 12.1414C78.4366 12.5657 79.1331 13.3636 79.4764 13.7475C79.5571 13.8485 79.5773 13.9899 79.4865 14.1111L78.9615 14.8889C78.7899 15.1414 78.588 15.1313 78.4265 14.8788C78.4265 14.8788 78.4231 14.8721 78.4164 14.8586C78.3962 14.798 78.3558 14.7576 78.3154 14.697C78.0933 14.3434 77.9419 14.3838 77.9419 14.8081V17.5657C77.9419 17.7475 77.8208 17.8687 77.6391 17.8687H76.569C76.3873 17.8687 76.2661 17.7475 76.2661 17.5657V15.7172C76.2661 14.9091 76.0743 14.8788 75.6705 15.5758C75.5292 15.8283 75.3778 16.0606 75.2263 16.2828C75.0446 16.5253 74.8427 16.4848 74.7014 16.2121C74.5399 15.899 74.3581 15.596 74.2168 15.3131L74.1966 15.2929C74.126 15.1818 74.1361 15.0404 74.237 14.9293C74.8326 14.2424 75.3374 13.2929 75.7109 12.3535C75.8118 12.1111 75.6907 11.9495 75.4282 11.9495H74.6004C74.4187 11.9495 74.2976 11.8283 74.2976 11.6465V10.7172C74.2976 10.5354 74.4187 10.4141 74.6004 10.4141H75.9532C76.1349 10.4141 76.256 10.2929 76.256 10.1111V9.52525C76.256 9.30303 76.1147 9.18182 75.9027 9.22222C75.5998 9.26263 75.3071 9.30303 75.0345 9.34343C74.8629 9.35353 74.7317 9.26263 74.6913 9.10101C74.6307 8.89899 74.55 8.66667 74.4591 8.45455C74.3783 8.22222 74.4591 8.0404 74.7115 8.0101C75.9936 7.80808 77.2857 7.48485 78.2549 7.14141C78.376 7.09091 78.5173 7.13131 78.6082 7.22222L79.2644 8.0303C79.4259 8.23232 79.3653 8.43434 79.123 8.50505C78.8101 8.60606 78.4769 8.68687 78.1539 8.76768C78.0227 8.80808 77.9217 8.92929 77.9217 9.06061V10.101C77.9217 10.2828 78.0429 10.404 78.2246 10.404H79.123C79.3047 10.404 79.4259 10.5253 79.4259 10.7071V11.6364C79.4259 11.8182 79.3047 11.9394 79.123 11.9394H78.0429C78.0429 11.9394 77.9823 11.9495 77.9621 11.9596H77.9823ZM84.2009 8.0404C84.3826 8.0404 84.5037 8.16162 84.5037 8.34343V16.9192C84.5037 17.101 84.3826 17.2222 84.2009 17.2222H83.0702C82.8885 17.2222 82.7674 17.101 82.7674 16.9192V16.7172C82.7674 16.5354 82.6462 16.4141 82.4645 16.4141H81.6266C81.4449 16.4141 81.3238 16.5354 81.3238 16.7172V17.0101C81.3238 17.1919 81.2026 17.3131 81.0209 17.3131H79.9912C79.8095 17.3131 79.6884 17.1919 79.6884 17.0101V8.34343C79.6884 8.16162 79.8095 8.0404 79.9912 8.0404H84.2009ZM81.5156 14.8081H82.5957C82.7068 14.8081 82.7774 14.7374 82.7774 14.6263V9.81818C82.7774 9.70707 82.7068 9.63636 82.5957 9.63636H81.5156C81.4045 9.63636 81.3338 9.70707 81.3338 9.81818V14.6263C81.3338 14.7374 81.4045 14.8081 81.5156 14.8081Z" fill="#6B8A2E"/>
<path d="M92.7615 16.1212H96.5169C96.6986 16.1212 96.8197 16.2424 96.8197 16.4242V17.2828C96.8197 17.4646 96.6986 17.5859 96.5169 17.5859H86.8559C86.6742 17.5859 86.553 17.4646 86.553 17.2828V16.4242C86.553 16.2424 86.6742 16.1212 86.8559 16.1212H90.4598C90.6314 16.1212 90.7526 16 90.7526 15.8283C90.7526 15.6566 90.6314 15.5354 90.4598 15.5354H87.8553C87.6736 15.5354 87.5524 15.4141 87.5524 15.2323V14.4242C87.5524 14.2424 87.6736 14.1212 87.8553 14.1212H90.4497C90.6314 14.1212 90.7526 14 90.7526 13.8182V13.6768C90.7526 13.4848 90.6314 13.3636 90.4396 13.3737C89.4503 13.3939 88.5115 13.4242 87.7139 13.4343C87.5322 13.4444 87.4111 13.3232 87.401 13.1414L87.3808 12.2727C87.3707 12.0808 87.4919 11.9596 87.6837 11.9596C88.0269 11.9596 88.3903 11.9495 88.784 11.9495C88.9052 11.9495 89.0162 11.8788 89.0465 11.7778V11.7576L89.1273 11.5758C89.2282 11.3535 89.1172 11.202 88.8749 11.202H88.1682C87.9865 11.202 87.8654 11.0808 87.8654 10.899V10.5253C87.8654 10.3434 87.7442 10.2222 87.5625 10.2222H86.8256C86.6439 10.2222 86.5227 10.101 86.5227 9.91919V7.9596C86.5227 7.77778 86.6439 7.65657 86.8256 7.65657H90.4497C90.6314 7.65657 90.7526 7.53535 90.7526 7.35354V7.29293C90.7526 7.11111 90.8737 6.9899 91.0554 6.9899H92.1659C92.3476 6.9899 92.4687 7.11111 92.4687 7.29293V7.35354C92.4687 7.53535 92.5899 7.65657 92.7716 7.65657H96.4967C96.6784 7.65657 96.7995 7.77778 96.7995 7.9596V9.91919C96.7995 10.101 96.6784 10.2222 96.4967 10.2222H95.7496C95.5679 10.2222 95.4468 10.3434 95.4468 10.5253V10.899C95.4468 11.0808 95.3256 11.202 95.1439 11.202H94.942C94.6392 11.202 94.5887 11.3333 94.8209 11.5253C95.3055 11.9293 95.7698 12.3636 96.103 12.7273C96.2342 12.8687 96.214 13.0505 96.0525 13.1616L95.255 13.697C95.0935 13.798 94.942 13.7677 94.8209 13.6263C94.7603 13.5455 94.6796 13.4545 94.619 13.3636L94.5988 13.3434C94.5382 13.2929 94.4575 13.2626 94.3767 13.2626L92.7716 13.3232C92.6 13.3333 92.4788 13.4545 92.4788 13.6263V13.8485C92.4788 14.0303 92.6 14.1515 92.7817 14.1515H95.6487C95.8304 14.1515 95.9515 14.2727 95.9515 14.4545V15.2626C95.9515 15.4444 95.8304 15.5657 95.6487 15.5657H92.7716C92.6 15.5657 92.4788 15.6869 92.4788 15.8586C92.4788 16.0303 92.6 16.1515 92.7716 16.1515L92.7615 16.1212ZM94.9017 9.14141H88.3398C88.2288 9.14141 88.1581 9.21212 88.1581 9.32323V9.58586C88.1581 9.69697 88.2288 9.76768 88.3398 9.76768H94.9017C95.0127 9.76768 95.0834 9.69697 95.0834 9.58586V9.32323C95.0834 9.21212 95.0127 9.14141 94.9017 9.14141ZM92.8927 11.1919H91.2573C91.1968 11.1919 91.1261 11.2323 91.0958 11.2929L90.8939 11.6465C90.7829 11.8182 90.8535 11.9293 91.0352 11.9293L92.8019 11.8889C92.9432 11.8889 92.9735 11.8283 92.8624 11.7273C92.7413 11.6263 92.7514 11.505 92.8725 11.4343L92.9432 11.3737C93.1148 11.2626 93.0845 11.1919 92.8826 11.1919H92.8927Z" fill="#6B8A2E"/>
<path d="M101.716 7.50505L103.069 7.64646C103.27 7.66667 103.382 7.81818 103.331 8.0101L103.159 8.77778C103.139 8.95959 103.099 9.14141 103.048 9.32323C102.998 9.55555 103.119 9.68687 103.351 9.67677C103.493 9.66667 103.634 9.66667 103.735 9.66667C105.037 9.66667 105.905 10.2828 105.905 11.9899C105.905 13.3232 105.764 15.1515 105.279 16.1717C104.896 16.9798 104.23 17.2727 103.291 17.2727C102.927 17.2727 102.483 17.2222 102.12 17.1515C101.999 17.1313 101.898 17.0303 101.877 16.9091L101.686 15.7576C101.645 15.4747 101.797 15.3434 102.069 15.404C102.422 15.4646 102.806 15.5253 102.998 15.5253C103.351 15.5253 103.614 15.404 103.775 15.0909C104.058 14.5354 104.199 13.2222 104.199 12.1717C104.199 11.3434 103.846 11.2424 103.129 11.2424C103.058 11.2424 102.947 11.2424 102.826 11.2525C102.695 11.2626 102.584 11.3535 102.544 11.4848C102.099 13.1717 101.322 15.596 100.464 17.1313C100.383 17.2626 100.232 17.3131 100.091 17.2525L98.8791 16.7677C98.657 16.6869 98.6166 16.505 98.7479 16.2929C99.6362 14.9697 100.272 13.2121 100.676 11.8182C100.737 11.6162 100.626 11.4949 100.434 11.5253H100.414C100.282 11.5354 100.151 11.5657 100.06 11.5758C99.7776 11.596 99.3435 11.6566 98.9902 11.7172C98.7883 11.7576 98.6368 11.6465 98.6267 11.4343L98.5258 10.2727C98.5157 10.0707 98.6469 9.92929 98.8488 9.92929C99.1719 9.93939 99.4949 9.92929 99.818 9.91919C100.101 9.90909 100.474 9.87879 100.898 9.84848C101.029 9.84848 101.14 9.73737 101.161 9.60606C101.272 8.94949 101.342 8.35353 101.342 7.81818C101.352 7.61616 101.474 7.47475 101.696 7.50505H101.716ZM106.037 9.19192L107.117 8.75758C107.248 8.69697 107.409 8.74747 107.48 8.86869C108.096 9.88889 108.863 11.6667 109.227 12.7475C109.277 12.9091 109.216 13.0505 109.065 13.1111L107.894 13.6667C107.692 13.7677 107.521 13.6768 107.46 13.4444C107.167 12.2727 106.572 10.6869 105.905 9.67677C105.774 9.47475 105.825 9.29293 106.037 9.19192Z" fill="#6B8A2E"/>
<path d="M113.567 10.1616C113.487 10.5859 113.386 11.1313 113.315 11.6061C113.265 11.9798 113.446 12.0909 113.79 11.9192C114.627 11.4949 115.496 11.303 116.394 11.303C118.534 11.303 119.695 12.6364 119.695 14.0303C119.695 16.1212 118.191 17.8081 113.325 17.4343C113.204 17.4343 113.093 17.3333 113.063 17.2323L112.719 16.0808C112.639 15.798 112.78 15.6465 113.063 15.6768C116.081 16.0404 117.747 15.3131 117.747 13.9899C117.747 13.3434 117.131 12.8586 116.222 12.8586C115.062 12.8586 113.951 13.2929 113.275 14.1111C113.113 14.2929 113.012 14.4343 112.911 14.596C112.841 14.7273 112.709 14.798 112.548 14.7677L111.508 14.505C111.336 14.4545 111.256 14.3232 111.276 14.1515C111.468 13.0404 111.69 11.303 111.771 9.90909C111.781 9.71717 111.912 9.59596 112.114 9.62626L113.305 9.78788C113.507 9.80808 113.608 9.9697 113.567 10.1616ZM113.022 8.78788L113.305 7.73737C113.355 7.55555 113.507 7.47475 113.689 7.51515C114.789 7.80808 116.657 8.13131 117.696 8.26263C117.898 8.30303 117.999 8.44444 117.949 8.63636L117.686 9.73737C117.646 9.89899 117.515 9.9899 117.363 9.9697C116.212 9.78788 114.244 9.38384 113.244 9.14141C113.073 9.10101 112.992 8.94949 113.022 8.77778V8.78788Z" fill="#6B8A2E"/>
<path d="M123.925 11.4444L123.34 12.303C123.218 12.4848 123.047 12.4949 122.875 12.3737C122.461 12.0808 121.866 11.7475 121.32 11.4848C121.119 11.3838 121.068 11.202 121.199 11.0202L121.724 10.2525C121.805 10.1313 121.946 10.0909 122.078 10.1414C122.673 10.3737 123.39 10.7273 123.844 11.0303C123.986 11.1313 124.016 11.2929 123.915 11.4343L123.925 11.4444ZM131.93 14.2929V15.2828C131.93 15.4646 131.809 15.5859 131.628 15.5859H129.386C129.205 15.5859 129.084 15.7071 129.084 15.8889V17.596C129.084 17.7778 128.962 17.899 128.781 17.899H127.64C127.458 17.899 127.337 17.7778 127.337 17.596V15.8889C127.337 15.7071 127.216 15.5859 127.034 15.5859H124.924C124.743 15.5859 124.622 15.4646 124.622 15.2828V15C124.622 14.6465 124.521 14.6263 124.369 14.9394C123.945 15.7879 123.471 16.6364 123.016 17.4545C122.916 17.6263 122.734 17.6566 122.572 17.5354L121.644 16.8182C121.512 16.7172 121.472 16.5556 121.573 16.404C122.098 15.6162 122.764 14.5152 123.329 13.404C123.44 13.202 123.632 13.1515 123.804 13.303L124.642 14.0303V13.9697H127.055C127.236 13.9697 127.357 13.8485 127.357 13.6667V13.3434C127.357 13.1616 127.236 13.0404 127.055 13.0404H125.571C125.389 13.0404 125.268 12.9192 125.268 12.7374V11.7879C125.268 11.6061 125.389 11.4848 125.571 11.4848H127.055C127.236 11.4848 127.357 11.3636 127.357 11.1818V10.8889C127.357 10.7071 127.236 10.5859 127.055 10.5859H125.167C124.985 10.5859 124.864 10.4646 124.864 10.2828V9.32323C124.864 9.14141 124.985 9.0202 125.167 9.0202H125.571C125.833 9.0202 125.954 8.84848 125.833 8.60606C125.722 8.36364 125.591 8.12121 125.449 7.87879C125.328 7.68687 125.389 7.50505 125.591 7.41414L126.54 7.0404C126.671 6.9899 126.822 7.0303 126.893 7.14141C127.216 7.58586 127.519 8.12121 127.701 8.57576C127.761 8.71717 127.691 8.85859 127.539 8.90909C127.398 8.9798 127.408 9.0202 127.559 9.0202H129.053C129.235 9.0202 129.235 8.9798 129.094 8.91919H129.074C128.912 8.86869 128.872 8.73737 128.942 8.57576C129.164 8.16162 129.376 7.65657 129.538 7.20202C129.588 7.0303 129.74 6.94949 129.911 7L131.103 7.34343C131.305 7.40404 131.385 7.57576 131.284 7.76768C131.143 8.0505 130.981 8.31313 130.85 8.55556C130.679 8.83838 130.79 9.0202 131.113 9.0202H131.466C131.648 9.0202 131.769 9.14141 131.769 9.32323V10.2828C131.769 10.4646 131.648 10.5859 131.466 10.5859H129.417C129.235 10.5859 129.114 10.7071 129.114 10.8889V11.1818C129.114 11.3636 129.235 11.4848 129.417 11.4848H130.992C131.173 11.4848 131.294 11.6061 131.294 11.7879V12.7374C131.294 12.9192 131.173 13.0404 130.992 13.0404H129.417C129.235 13.0404 129.114 13.1616 129.114 13.3434V13.6667C129.114 13.8485 129.235 13.9697 129.417 13.9697H131.658C131.84 13.9697 131.961 14.0909 131.961 14.2727L131.93 14.2929ZM124.662 8.36364L124.046 9.22222C123.925 9.39394 123.743 9.40404 123.572 9.27273C123.168 8.9697 122.592 8.62626 122.057 8.36364C121.856 8.26263 121.805 8.08081 121.946 7.89899L122.492 7.16162C122.572 7.0505 122.714 7 122.835 7.0505C123.43 7.28283 124.137 7.63636 124.601 7.9697C124.733 8.07071 124.763 8.22222 124.662 8.35354V8.36364Z" fill="#6B8A2E"/>
<path d="M139.683 16.1212H143.439C143.621 16.1212 143.742 16.2424 143.742 16.4242V17.2828C143.742 17.4646 143.621 17.5859 143.439 17.5859H133.778C133.596 17.5859 133.475 17.4646 133.475 17.2828V16.4242C133.475 16.2424 133.596 16.1212 133.778 16.1212H137.382C137.553 16.1212 137.675 16 137.675 15.8283C137.675 15.6566 137.553 15.5354 137.382 15.5354H134.777C134.596 15.5354 134.474 15.4141 134.474 15.2323V14.4242C134.474 14.2424 134.596 14.1212 134.777 14.1212H137.372C137.553 14.1212 137.675 14 137.675 13.8182V13.6768C137.675 13.4848 137.553 13.3636 137.362 13.3737C136.372 13.3939 135.433 13.4242 134.636 13.4343C134.454 13.4444 134.333 13.3232 134.323 13.1414L134.303 12.2727C134.293 12.0808 134.414 11.9596 134.606 11.9596C134.949 11.9596 135.312 11.9495 135.706 11.9495C135.827 11.9495 135.938 11.8788 135.968 11.7778V11.7576L136.049 11.5758C136.15 11.3535 136.039 11.202 135.797 11.202H135.09C134.908 11.202 134.787 11.0808 134.787 10.899V10.5253C134.787 10.3434 134.666 10.2222 134.485 10.2222H133.748C133.566 10.2222 133.445 10.101 133.445 9.91919V7.9596C133.445 7.77778 133.566 7.65657 133.748 7.65657H137.372C137.553 7.65657 137.675 7.53535 137.675 7.35354V7.29293C137.675 7.11111 137.796 6.9899 137.977 6.9899H139.088C139.27 6.9899 139.391 7.11111 139.391 7.29293V7.35354C139.391 7.53535 139.512 7.65657 139.694 7.65657H143.419C143.6 7.65657 143.722 7.77778 143.722 7.9596V9.91919C143.722 10.101 143.6 10.2222 143.419 10.2222H142.672C142.49 10.2222 142.369 10.3434 142.369 10.5253V10.899C142.369 11.0808 142.248 11.202 142.066 11.202H141.864C141.561 11.202 141.511 11.3333 141.743 11.5253C142.227 11.9293 142.692 12.3636 143.025 12.7273C143.156 12.8687 143.136 13.0505 142.974 13.1616L142.177 13.697C142.015 13.798 141.864 13.7677 141.743 13.6263C141.682 13.5455 141.602 13.4545 141.541 13.3636L141.521 13.3434C141.46 13.2929 141.379 13.2626 141.299 13.2626L139.694 13.3232C139.522 13.3333 139.401 13.4545 139.401 13.6263V13.8485C139.401 14.0303 139.522 14.1515 139.704 14.1515H142.571C142.752 14.1515 142.874 14.2727 142.874 14.4545V15.2626C142.874 15.4444 142.752 15.5657 142.571 15.5657H139.694C139.522 15.5657 139.401 15.6869 139.401 15.8586C139.401 16.0303 139.522 16.1515 139.694 16.1515L139.683 16.1212ZM141.824 9.14141H135.262C135.151 9.14141 135.08 9.21212 135.08 9.32323V9.58586C135.08 9.69697 135.151 9.76768 135.262 9.76768H141.824C141.935 9.76768 142.005 9.69697 142.005 9.58586V9.32323C142.005 9.21212 141.935 9.14141 141.824 9.14141ZM139.815 11.1919H138.179C138.119 11.1919 138.048 11.2323 138.018 11.2929L137.816 11.6465C137.705 11.8182 137.775 11.9293 137.957 11.9293L139.724 11.8889C139.865 11.8889 139.895 11.8283 139.784 11.7273C139.663 11.6263 139.673 11.505 139.795 11.4343L139.865 11.3737C140.037 11.2626 140.007 11.1919 139.805 11.1919H139.815Z" fill="#6B8A2E"/>
<path d="M145.256 13C145.508 12.798 145.751 12.5657 146.033 12.2929C146.568 11.7677 147.477 10.6768 148.254 9.78788C148.941 8.9798 149.91 8.84848 150.768 9.73737C151.424 10.3939 152.161 11.3939 152.868 12.1616C153.494 12.8485 154.513 13.9192 155.533 14.7778C155.674 14.899 155.694 15.0707 155.573 15.2121L154.503 16.4646C154.382 16.6263 154.2 16.6263 154.069 16.4848C153.322 15.7374 152.545 14.8788 151.899 14.0808C151.303 13.3434 150.435 12.202 149.91 11.6465C149.587 11.3232 149.375 11.3333 149.082 11.6869C148.658 12.1818 147.901 13.2121 147.477 13.8283C147.285 14.1111 147.073 14.4242 146.891 14.6869C146.77 14.8788 146.578 14.9091 146.417 14.7374L145.205 13.4646C145.044 13.303 145.074 13.1212 145.256 12.9899V13Z" fill="#6B8A2E"/>
<path d="M157.885 7.85859H159.278C159.47 7.85859 159.591 7.9899 159.581 8.18182C159.571 8.34343 159.561 8.52525 159.561 8.76768V12.6768C159.561 12.8687 159.571 13.1616 159.581 13.4141C159.591 13.6061 159.47 13.7374 159.278 13.7374H157.845C157.663 13.7374 157.542 13.6061 157.552 13.4242C157.562 13.1818 157.592 12.8889 157.592 12.6566V8.75758C157.592 8.61616 157.592 8.40404 157.582 8.19192C157.562 7.9899 157.683 7.84848 157.885 7.84848V7.85859ZM163.175 7.74747H164.558C164.75 7.74747 164.871 7.87879 164.861 8.07071C164.851 8.33333 164.84 8.62626 164.84 8.9899V11.4949C164.84 13.8081 164.305 14.9596 163.427 15.8788C162.72 16.6162 161.64 17.1717 160.812 17.4646C160.701 17.5152 160.57 17.4747 160.489 17.3838L159.631 16.2929C159.46 16.0707 159.52 15.8788 159.793 15.8081C160.631 15.5455 161.418 15.1919 161.994 14.596C162.761 13.7677 162.922 12.9596 162.922 11.3737V8.9899C162.922 8.63636 162.912 8.34343 162.872 8.08081C162.862 7.87879 162.973 7.73737 163.185 7.73737L163.175 7.74747Z" fill="#6B8A2E"/>
<path d="M175.319 8.28283C175.4 8.26263 175.491 8.27273 175.551 8.32323L176.541 8.9899C176.672 9.07071 176.722 9.23232 176.662 9.39394C176.591 9.61616 176.52 9.87879 176.47 10.0606C176.177 11.1515 175.753 12.9394 174.764 14.2727C173.865 15.4949 172.351 16.6869 170.473 17.3838C170.352 17.4343 170.231 17.3939 170.15 17.303L169.121 16.1313C168.939 15.9091 169 15.7172 169.262 15.6364C170.817 15.1313 172.23 14.1818 173.048 13.1818C173.704 12.3939 174.067 11.3838 174.249 10.5253C174.289 10.3232 174.168 10.1717 173.956 10.1717H169.242C168.838 10.1717 168.404 10.1919 168.081 10.2121C167.889 10.2222 167.758 10.101 167.758 9.90909V8.61616C167.758 8.39394 167.889 8.29293 168.101 8.30303C168.485 8.34343 168.969 8.37374 169.252 8.37374H174.37C174.602 8.37374 174.956 8.36364 175.289 8.30303H175.309L175.319 8.28283Z" fill="#6B8A2E"/>
<path d="M185.202 11.1919H186.111C186.303 11.1919 186.575 11.1818 186.787 11.1515C186.989 11.1414 187.14 11.2626 187.14 11.4747V12.4646C187.14 12.6566 187.019 12.7778 186.828 12.7677C186.595 12.7576 186.363 12.7576 186.181 12.7576H185.283C185.091 12.7576 184.97 12.8788 184.98 13.0707C185 14.2929 185.041 15.5758 185.051 16.697C185.061 17.3636 184.556 17.8384 183.789 17.8384C183.264 17.8384 182.699 17.8283 182.204 17.798C182.042 17.798 181.921 17.6768 181.911 17.5152L181.851 16.5657C181.841 16.3434 181.972 16.2121 182.194 16.2424C182.547 16.2626 182.901 16.2929 183.102 16.2929C183.325 16.2929 183.405 16.1818 183.405 15.9293V14.9798C183.405 14.4949 183.183 14.4242 182.85 14.7576C182.063 15.5354 181.003 16.3535 180.034 16.8889C179.912 16.9495 179.771 16.9293 179.67 16.8182L178.883 15.9091C178.721 15.7273 178.762 15.5455 178.994 15.4343C180.185 14.8384 181.316 14 182.083 13.2121C182.345 12.9293 182.254 12.7374 181.881 12.7374H180.427C180.175 12.7374 179.842 12.7475 179.559 12.7576C179.367 12.7677 179.236 12.6465 179.236 12.4545V11.4242C179.236 11.2222 179.367 11.101 179.569 11.1212C179.852 11.1414 180.165 11.1616 180.377 11.1616H183.042C183.213 11.1616 183.325 11.0505 183.304 10.8788V10.596C183.284 10.3939 183.264 10.1313 183.234 9.87879C183.213 9.67677 183.335 9.52525 183.547 9.52525H184.627C184.829 9.52525 184.95 9.66667 184.94 9.87879C184.92 10.1212 184.92 10.3737 184.92 10.596V10.8788C184.93 11.0505 185.041 11.1616 185.212 11.1616L185.202 11.1919Z" fill="#6B8A2E"/>
<path d="M189.816 13.1515V11.596C189.816 11.404 189.947 11.2828 190.139 11.2929C190.633 11.3131 191.35 11.3535 191.794 11.3535H197.912C198.275 11.3535 198.679 11.3131 198.992 11.2929C199.184 11.2828 199.315 11.404 199.315 11.596V13.1515C199.315 13.3434 199.194 13.4646 199.002 13.4545C198.679 13.4343 198.235 13.404 197.912 13.404H191.794C191.269 13.404 190.613 13.4242 190.119 13.4545C189.937 13.4545 189.806 13.3333 189.806 13.1515H189.816Z" fill="#6B8A2E"/>
<path d="M210.753 16.6667L209.43 17.2525C209.249 17.3333 209.077 17.2626 209.017 17.0808L208.704 16.3232C208.653 16.202 208.532 16.1313 208.391 16.1414C206.462 16.3737 203.373 16.6869 202.031 16.8283L201.173 16.9394C201.001 16.9596 200.86 16.8586 200.829 16.6869L200.607 15.2929C200.567 15.0909 200.688 14.9394 200.9 14.9394C201.253 14.9394 201.637 14.9394 201.92 14.9293H202L202.021 14.9192C202.061 14.9192 202.101 14.8788 202.132 14.8485V14.8283C202.788 13.101 203.656 10.2828 203.999 9.09091C204.131 8.62626 204.201 8.28283 204.252 7.94949C204.292 7.76768 204.423 7.65657 204.615 7.69697L206.129 8.0101C206.362 8.06061 206.442 8.21212 206.362 8.43434C206.23 8.74747 206.109 9.11111 205.978 9.48485C205.614 10.5152 204.888 12.7677 204.342 14.3333C204.242 14.596 204.383 14.7576 204.655 14.7374C205.604 14.6364 206.584 14.5354 207.432 14.4343C207.684 14.4141 207.785 14.2323 207.664 14C207.432 13.5354 207.199 13.1111 206.977 12.7677C206.856 12.5657 206.907 12.3838 207.119 12.2929L208.28 11.8182C208.411 11.7576 208.572 11.8081 208.643 11.9394C209.39 13.1515 210.349 15.0303 210.894 16.303C210.965 16.4646 210.904 16.6162 210.753 16.6869V16.6667Z" fill="#6B8A2E"/>
</svg>
