<svg width="42" height="42" viewBox="0 0 42 42" fill="none" xmlns="http://www.w3.org/2000/svg">
<path d="M36 0H6C2.68629 0 0 2.68629 0 6V36C0 39.3137 2.68629 42 6 42H36C39.3137 42 42 39.3137 42 36V6C42 2.68629 39.3137 0 36 0Z" fill="#6BB72E"/>
<path d="M14.0201 7.93C12.5001 8.91 12.2001 11.97 12.7701 14.47C13.2201 16.41 14.1701 19.02 15.7801 21.48C17.2901 23.79 19.4001 25.86 21.0101 27.06C23.0701 28.6 26.0201 29.58 27.5401 28.6C28.3101 28.1 29.4601 26.75 29.5101 26.51C29.5101 26.51 28.8401 25.48 28.6901 25.26L26.4401 21.82C26.2701 21.56 25.2201 21.8 24.6901 22.1C23.9701 22.5 23.3101 23.59 23.3101 23.59C22.8201 23.87 22.4001 23.59 21.5401 23.2C20.4801 22.72 19.2901 21.21 18.3401 19.85C17.4701 18.44 16.5801 16.74 16.5601 15.58C16.5501 14.64 16.4601 14.15 16.9201 13.82C16.9201 13.82 18.1901 13.66 18.8501 13.18C19.3401 12.82 19.9901 11.96 19.8201 11.71L17.5701 8.27C17.4201 8.04 16.7501 7.02 16.7501 7.02C16.5101 6.97 14.7901 7.45 14.0201 7.95V7.93Z" fill="white"/>
<path d="M6.23999 31.84C5.62999 31.84 5.13999 32.05 4.78999 32.46C4.43999 32.87 4.25999 33.43 4.25999 34.15C4.25999 34.87 4.41999 35.42 4.74999 35.84C5.07999 36.25 5.56999 36.46 6.22999 36.46C6.46999 36.46 6.70999 36.44 6.92999 36.4C7.14999 36.36 7.37999 36.3 7.58999 36.24V36.86C7.37999 36.94 7.15999 37 6.92999 37.04C6.70999 37.08 6.43999 37.1 6.11999 37.1C5.53999 37.1 5.04999 36.98 4.65999 36.74C4.26999 36.5 3.97999 36.16 3.77999 35.72C3.58999 35.28 3.48999 34.76 3.48999 34.16C3.48999 33.56 3.58999 33.08 3.79999 32.64C4.00999 32.2 4.31999 31.85 4.73999 31.61C5.14999 31.36 5.64999 31.23 6.23999 31.23C6.82999 31.23 7.36999 31.34 7.81999 31.57L7.52999 32.18C7.34999 32.1 7.15999 32.03 6.93999 31.96C6.72999 31.9 6.48999 31.86 6.23999 31.86V31.84ZM13.68 34.14C13.68 34.73 13.58 35.25 13.38 35.69C13.18 36.13 12.89 36.47 12.49 36.71C12.1 36.96 11.62 37.08 11.05 37.08C10.48 37.08 9.96999 36.96 9.56999 36.71C9.17999 36.46 8.88999 36.12 8.69999 35.68C8.50999 35.24 8.40999 34.72 8.40999 34.13C8.40999 33.54 8.50999 33.04 8.69999 32.6C8.88999 32.16 9.17999 31.81 9.56999 31.57C9.95999 31.32 10.46 31.2 11.06 31.2C11.66 31.2 12.11 31.32 12.5 31.57C12.89 31.81 13.18 32.15 13.38 32.59C13.58 33.03 13.68 33.54 13.68 34.13V34.14ZM9.15999 34.14C9.15999 34.86 9.30999 35.43 9.61999 35.84C9.91999 36.25 10.4 36.46 11.04 36.46C11.68 36.46 12.16 36.25 12.46 35.84C12.76 35.42 12.92 34.86 12.92 34.14C12.92 33.42 12.77 32.86 12.47 32.45C12.17 32.04 11.7 31.83 11.05 31.83C10.4 31.83 9.91999 32.04 9.61999 32.45C9.31999 32.86 9.15999 33.42 9.15999 34.14ZM19.47 37H18.63L15.57 32.26H15.54C15.55 32.45 15.56 32.68 15.58 32.96C15.6 33.24 15.6 33.52 15.6 33.82V37.01H14.94V31.3H15.77L18.82 36.03H18.85C18.85 35.94 18.84 35.82 18.83 35.65C18.83 35.48 18.82 35.3 18.81 35.1C18.81 34.9 18.81 34.71 18.81 34.53V31.31H19.48V37.02L19.47 37ZM22.83 37H22.11V31.92H20.33V31.29H24.61V31.92H22.83V37ZM28.49 37L27.8 35.23H25.54L24.86 37H24.13L26.36 31.26H27.01L29.23 37H28.49ZM27.58 34.59L26.94 32.86C26.94 32.86 26.9 32.74 26.86 32.63C26.82 32.52 26.79 32.4 26.75 32.29C26.72 32.17 26.69 32.07 26.67 32.01C26.63 32.18 26.58 32.34 26.53 32.5C26.49 32.65 26.45 32.78 26.42 32.87L25.77 34.6H27.58V34.59ZM32.3 31.84C31.69 31.84 31.2 32.05 30.85 32.46C30.5 32.87 30.32 33.43 30.32 34.15C30.32 34.87 30.48 35.42 30.81 35.84C31.14 36.25 31.63 36.46 32.29 36.46C32.54 36.46 32.77 36.44 32.99 36.4C33.21 36.36 33.44 36.3 33.65 36.24V36.86C33.44 36.94 33.22 37 32.99 37.04C32.77 37.08 32.5 37.1 32.18 37.1C31.6 37.1 31.11 36.98 30.72 36.74C30.33 36.5 30.04 36.16 29.84 35.72C29.65 35.28 29.55 34.76 29.55 34.16C29.55 33.56 29.65 33.08 29.86 32.64C30.07 32.2 30.39 31.85 30.8 31.61C31.21 31.36 31.71 31.23 32.3 31.23C32.89 31.23 33.43 31.34 33.88 31.57L33.59 32.18C33.41 32.1 33.22 32.03 33 31.96C32.79 31.9 32.55 31.86 32.3 31.86V31.84ZM36.72 37H36V31.92H34.22V31.29H38.5V31.92H36.72V37Z" fill="white"/>
</svg>
