<svg width="296" height="153" viewBox="0 0 296 153" fill="none" xmlns="http://www.w3.org/2000/svg">
<path d="M13 51H155V69H13V51Z" fill="#FFF796"/>
<path d="M72 90H148V108H72V90Z" fill="#FFF796"/>
<path d="M121.82 5.74002L124.46 6.58002C123.77 8.31002 122.94 9.96002 121.96 11.52C120.98 13.09 119.89 14.51 118.68 15.78C117.47 17.05 116.17 18.14 114.78 19.03C114.62 18.79 114.41 18.52 114.16 18.23C113.9 17.93 113.65 17.64 113.4 17.34C113.15 17.04 112.91 16.81 112.67 16.63C113.66 16.09 114.61 15.42 115.53 14.64C116.44 13.86 117.29 12.98 118.09 12.02C118.89 11.06 119.59 10.05 120.23 8.98002C120.86 7.92002 121.39 6.83002 121.83 5.73002L121.82 5.74002ZM113.64 4.68002H134.86V7.61002H113.64V4.68002ZM118.56 15.55H129.72V18.48H118.56V15.55ZM122.69 0.0200195H125.74V22.56H122.69V0.0200195ZM126.62 5.81002C127.2 7.22002 127.95 8.60002 128.89 9.95002C129.83 11.3 130.89 12.53 132.09 13.63C133.29 14.73 134.55 15.64 135.88 16.34C135.64 16.53 135.38 16.78 135.1 17.08C134.82 17.38 134.55 17.7 134.3 18.03C134.04 18.36 133.83 18.66 133.65 18.93C132.26 18.07 130.96 17.01 129.75 15.75C128.54 14.49 127.46 13.09 126.5 11.54C125.54 9.99002 124.71 8.36002 124 6.67002L126.62 5.81002Z" fill="#6B8A2E"/>
<path d="M140.69 1.97L143.31 0.96C143.74 1.5 144.15 2.1 144.53 2.75C144.91 3.4 145.26 4.04 145.56 4.67C145.86 5.3 146.1 5.87 146.28 6.39L143.5 7.57C143.36 7.06 143.14 6.47 142.84 5.82C142.54 5.16 142.21 4.5 141.84 3.83C141.47 3.16 141.09 2.54 140.69 1.98V1.97ZM140.71 18.7H157.94V21.56H140.71V18.7ZM141.24 8.33H159.43V22.54H156.36V11.24H141.24V8.34V8.33ZM142.08 13.44H157.46V16.2H142.08V13.44ZM148.56 0H151.73V9.84H148.56V0ZM156.63 0.72L159.85 1.68C159.5 2.38 159.13 3.1 158.75 3.83C158.37 4.56 157.99 5.25 157.61 5.91C157.23 6.57 156.87 7.15 156.52 7.66L153.98 6.75C154.3 6.21 154.63 5.59 154.96 4.9C155.29 4.21 155.61 3.5 155.91 2.78C156.21 2.06 156.45 1.37 156.64 0.73L156.63 0.72Z" fill="#6B8A2E"/>
<path d="M171.1 2.01998C171.04 2.17998 170.96 2.39998 170.88 2.68998C170.8 2.97998 170.72 3.25998 170.65 3.52998C170.58 3.79998 170.53 4.00998 170.49 4.14998C170.44 4.48998 170.37 4.91998 170.26 5.45998C170.16 5.99998 170.05 6.59998 169.95 7.25998C169.85 7.91998 169.75 8.59998 169.65 9.28998C169.55 9.97998 169.48 10.64 169.42 11.28C169.36 11.92 169.34 12.48 169.34 12.96C169.34 13.18 169.34 13.44 169.35 13.73C169.35 14.02 169.39 14.28 169.43 14.52C169.54 14.25 169.66 13.98 169.79 13.7C169.92 13.43 170.05 13.15 170.17 12.87C170.29 12.59 170.41 12.32 170.51 12.07L172 13.25C171.78 13.91 171.55 14.61 171.32 15.36C171.09 16.11 170.88 16.82 170.7 17.48C170.52 18.14 170.38 18.69 170.28 19.12C170.25 19.3 170.22 19.5 170.2 19.72C170.18 19.94 170.16 20.12 170.16 20.25C170.16 20.38 170.16 20.53 170.17 20.72C170.18 20.91 170.19 21.08 170.21 21.24L167.43 21.43C167.19 20.6 166.97 19.49 166.78 18.11C166.59 16.73 166.49 15.22 166.49 13.59C166.49 12.69 166.53 11.78 166.61 10.85C166.69 9.91998 166.79 9.02998 166.9 8.16998C167.01 7.30998 167.12 6.52998 167.22 5.82998C167.32 5.12998 167.42 4.53998 167.5 4.07998C167.53 3.73998 167.58 3.35998 167.63 2.93998C167.68 2.51998 167.72 2.10998 167.74 1.72998L171.1 2.01998ZM176.71 13.87C176.61 14.27 176.54 14.63 176.49 14.94C176.44 15.25 176.42 15.57 176.42 15.89C176.42 16.15 176.48 16.38 176.61 16.6C176.74 16.82 176.93 17 177.2 17.15C177.47 17.3 177.81 17.41 178.23 17.49C178.65 17.56 179.17 17.6 179.78 17.6C180.85 17.6 181.86 17.55 182.8 17.44C183.74 17.34 184.74 17.18 185.8 16.97L185.85 20.21C185.08 20.35 184.2 20.47 183.2 20.55C182.2 20.63 181.02 20.67 179.66 20.67C177.6 20.67 176.06 20.32 175.05 19.63C174.04 18.93 173.54 17.97 173.54 16.74C173.54 16.28 173.58 15.79 173.65 15.29C173.72 14.79 173.82 14.23 173.95 13.62L176.71 13.88V13.87ZM174.79 3.61998C175.53 3.71998 176.35 3.77998 177.27 3.81998C178.19 3.85998 179.13 3.87998 180.08 3.86998C181.03 3.86998 181.95 3.82998 182.83 3.76998C183.71 3.70998 184.47 3.64998 185.11 3.58998V6.68998C184.37 6.74998 183.57 6.80998 182.69 6.84998C181.81 6.88998 180.9 6.90998 179.98 6.90998C179.06 6.90998 178.14 6.88998 177.26 6.84998C176.37 6.80998 175.55 6.75998 174.8 6.68998V3.61998H174.79Z" fill="#6B8A2E"/>
<path d="M17.4199 38.26H44.7199V45.08H41.0399V41.5H20.9399V45.08H17.4199V38.26ZM19.2199 35.1L22.5199 33.69C23.0699 34.31 23.6199 35 24.1699 35.75C24.7199 36.5 25.1299 37.19 25.3999 37.78L21.8799 39.32C21.6499 38.74 21.2699 38.06 20.7599 37.26C20.2499 36.46 19.7399 35.74 19.2199 35.1ZM19.8899 52.92H42.4199V63.35H38.6099V56.21H23.5699V63.38H19.8899V52.92ZM21.9699 59.03H40.2399V62.33H21.9699V59.03ZM22.5799 43.1H39.4099V50.97H22.5799V43.1ZM26.1299 45.88V48.15H35.6699V45.88H26.1299ZM27.2199 34.3L30.5799 33.15C31.0499 33.79 31.5199 34.52 31.9999 35.33C32.4799 36.14 32.8199 36.85 33.0099 37.44L29.4899 38.72C29.2999 38.14 28.9799 37.43 28.5499 36.59C28.1099 35.75 27.6699 34.99 27.2199 34.3ZM28.6199 49.78L32.9699 50.04C32.6499 50.89 32.3099 51.71 31.9499 52.5C31.5899 53.29 31.2599 53.96 30.9599 54.52L27.5999 54.07C27.8099 53.41 28.0199 52.68 28.2099 51.89C28.3999 51.1 28.5399 50.4 28.6299 49.78H28.6199ZM38.8999 33.4L43.0299 34.65C42.3499 35.57 41.6599 36.46 40.9799 37.34C40.2999 38.22 39.6699 38.95 39.0899 39.55L35.9499 38.4C36.2899 37.93 36.6499 37.41 37.0199 36.83C37.3899 36.25 37.7399 35.67 38.0799 35.07C38.4199 34.47 38.6799 33.92 38.8999 33.41V33.4Z" fill="#487000"/>
<path d="M63.55 54.23L66.59 55.61C65.59 56.72 64.38 57.75 62.96 58.7C61.54 59.65 60.02 60.48 58.4 61.2C56.78 61.91 55.15 62.5 53.5 62.94C53.33 62.62 53.1 62.26 52.81 61.87C52.52 61.47 52.22 61.09 51.91 60.7C51.6 60.31 51.31 60 51.03 59.74C52.63 59.4 54.22 58.96 55.81 58.43C57.4 57.9 58.87 57.27 60.21 56.54C61.55 55.82 62.66 55.05 63.54 54.24L63.55 54.23ZM52 52.82H80.54V55.99H52V52.82ZM52.1 38.49H80.45V41.63H52.1V38.49ZM53.41 44.22H79.2V47.23H53.41V44.22ZM54.37 34.52L57.67 33.4C58.14 34.06 58.61 34.82 59.08 35.69C59.55 36.55 59.89 37.3 60.1 37.91L56.64 39.19C56.47 38.55 56.16 37.79 55.71 36.92C55.26 36.05 54.81 35.25 54.37 34.52ZM54.98 48.63H77.73V51.41H54.98V48.63ZM58.43 41.69L62.17 41.08C62.45 41.53 62.72 42.04 62.99 42.6C63.26 43.17 63.45 43.66 63.58 44.09L59.68 44.76C59.57 44.36 59.4 43.85 59.17 43.26C58.93 42.66 58.69 42.14 58.43 41.69ZM61.47 33.21H65.05V39.99H61.47V33.21ZM64.26 45.72H68.07V63.32H64.26V45.72ZM68.83 54.14C69.49 54.78 70.28 55.38 71.2 55.95C72.12 56.52 73.12 57.03 74.22 57.49C75.32 57.95 76.48 58.35 77.71 58.69C78.94 59.03 80.18 59.3 81.44 59.49C81.14 59.79 80.83 60.14 80.5 60.53C80.17 60.92 79.86 61.34 79.57 61.78C79.28 62.22 79.04 62.62 78.85 62.98C77.57 62.66 76.32 62.25 75.09 61.75C73.86 61.25 72.7 60.68 71.59 60.04C70.48 59.4 69.43 58.69 68.45 57.9C67.47 57.11 66.6 56.27 65.86 55.37L68.84 54.15L68.83 54.14ZM67.42 33.21H71.04V39.77H67.42V33.21ZM70.56 40.34L74.62 41.3C74.17 42.05 73.74 42.77 73.34 43.46C72.93 44.15 72.57 44.75 72.25 45.24L68.99 44.34C69.27 43.74 69.55 43.08 69.85 42.34C70.15 41.6 70.38 40.94 70.55 40.34H70.56ZM74.78 33.5L78.78 34.46C78.29 35.34 77.79 36.18 77.28 37C76.77 37.82 76.3 38.52 75.87 39.1L72.73 38.14C72.99 37.71 73.24 37.23 73.5 36.68C73.76 36.13 74 35.58 74.22 35.02C74.44 34.46 74.63 33.95 74.78 33.5Z" fill="#487000"/>
<path d="M87.23 49.5C88.21 49.31 89.31 49.07 90.54 48.78C91.77 48.49 93.06 48.18 94.43 47.85C95.8 47.52 97.15 47.18 98.49 46.84L98.97 50.33C97.14 50.84 95.27 51.35 93.39 51.85C91.5 52.35 89.78 52.79 88.22 53.18L87.23 49.5ZM87.64 39.35H98.71V42.9H87.64V39.35ZM91.61 33.24H95.35V59C95.35 59.92 95.25 60.64 95.06 61.16C94.87 61.68 94.49 62.08 93.94 62.36C93.41 62.64 92.74 62.82 91.94 62.92C91.14 63.02 90.17 63.06 89.04 63.06C88.98 62.57 88.84 61.99 88.64 61.32C88.44 60.65 88.22 60.07 87.98 59.58C88.6 59.6 89.2 59.61 89.79 59.61H90.99C91.22 59.61 91.38 59.56 91.47 59.47C91.56 59.38 91.6 59.22 91.6 59.01V33.25L91.61 33.24ZM97.5 58.65H117.28V62.23H97.5V58.65ZM99.71 35.29H115.33V55.51H99.71V35.29ZM103.39 38.87V43.57H111.45V38.87H103.39ZM103.39 47.13V51.96H111.45V47.13H103.39Z" fill="#487000"/>
<path d="M124.85 35.86L128.34 34.52C128.92 35.25 129.46 36.04 129.97 36.9C130.48 37.76 130.94 38.62 131.35 39.46C131.76 40.3 132.08 41.07 132.31 41.75L128.6 43.32C128.41 42.64 128.11 41.86 127.72 40.98C127.33 40.11 126.88 39.22 126.39 38.32C125.9 37.42 125.39 36.6 124.85 35.86ZM124.88 58.17H147.86V61.98H124.88V58.17ZM125.58 44.34H149.84V63.28H145.74V48.21H125.58V44.34ZM126.7 51.16H147.21V54.84H126.7V51.16ZM135.34 33.24H139.56V46.36H135.34V33.24ZM146.1 34.2L150.39 35.48C149.92 36.42 149.43 37.37 148.92 38.34C148.41 39.31 147.9 40.23 147.4 41.11C146.9 41.99 146.41 42.76 145.94 43.45L142.55 42.23C142.98 41.5 143.41 40.68 143.86 39.77C144.31 38.85 144.73 37.91 145.12 36.94C145.51 35.97 145.84 35.06 146.1 34.2Z" fill="#487000"/>
<path d="M157.69 46.57C158.12 46.6 158.55 46.61 158.97 46.61C159.39 46.61 159.82 46.59 160.25 46.57C160.65 46.55 161.13 46.53 161.69 46.49C162.25 46.45 162.85 46.41 163.48 46.36C164.11 46.31 164.75 46.26 165.39 46.2C166.03 46.14 166.62 46.1 167.17 46.07C167.72 46.04 168.16 46.02 168.51 46.02C169.37 46.02 170.13 46.16 170.77 46.44C171.41 46.72 171.92 47.2 172.29 47.87C172.67 48.54 172.85 49.45 172.85 50.61C172.85 51.55 172.81 52.58 172.73 53.68C172.65 54.78 172.51 55.84 172.31 56.85C172.11 57.86 171.83 58.71 171.48 59.42C171.1 60.25 170.57 60.83 169.91 61.15C169.25 61.47 168.46 61.63 167.55 61.63C167.1 61.63 166.61 61.59 166.09 61.52C165.56 61.45 165.09 61.37 164.67 61.29L164.17 58.12C164.47 58.2 164.81 58.28 165.19 58.36C165.57 58.44 165.93 58.5 166.27 58.55C166.61 58.6 166.89 58.62 167.1 58.62C167.5 58.62 167.85 58.54 168.16 58.39C168.46 58.24 168.71 57.97 168.9 57.59C169.12 57.13 169.31 56.53 169.45 55.79C169.59 55.05 169.7 54.26 169.77 53.4C169.84 52.54 169.88 51.72 169.88 50.94C169.88 50.3 169.79 49.83 169.6 49.52C169.41 49.21 169.15 49.01 168.81 48.91C168.47 48.81 168.05 48.75 167.55 48.75C167.18 48.75 166.69 48.78 166.06 48.83C165.43 48.88 164.77 48.95 164.06 49.02C163.35 49.09 162.69 49.17 162.08 49.25C161.47 49.33 161 49.39 160.66 49.42C160.31 49.48 159.86 49.55 159.33 49.62C158.79 49.69 158.34 49.76 157.97 49.82L157.68 46.56L157.69 46.57ZM167.44 41.65C167.38 41.95 167.3 42.29 167.22 42.65C167.14 43.01 167.07 43.34 167 43.65C166.94 44 166.86 44.4 166.76 44.84C166.66 45.28 166.57 45.72 166.48 46.16C166.39 46.6 166.3 47.03 166.2 47.44C166.04 48.13 165.84 48.93 165.6 49.84C165.36 50.75 165.08 51.73 164.76 52.78C164.44 53.83 164.08 54.88 163.68 55.94C163.28 57 162.86 58.02 162.41 59.02C161.96 60.02 161.48 60.92 160.97 61.72L157.85 60.47C158.41 59.72 158.93 58.87 159.42 57.94C159.91 57.01 160.35 56.04 160.75 55.06C161.15 54.08 161.51 53.1 161.82 52.13C162.13 51.16 162.4 50.26 162.64 49.43C162.87 48.6 163.05 47.89 163.18 47.29C163.4 46.2 163.58 45.15 163.71 44.15C163.84 43.14 163.89 42.19 163.85 41.29L167.43 41.65H167.44ZM175.69 44.07C176.07 44.6 176.47 45.24 176.88 46C177.29 46.76 177.69 47.56 178.09 48.41C178.49 49.26 178.85 50.07 179.17 50.86C179.49 51.64 179.74 52.32 179.91 52.9L176.86 54.29C176.72 53.62 176.5 52.87 176.22 52.06C175.94 51.25 175.62 50.42 175.25 49.58C174.88 48.74 174.49 47.94 174.09 47.19C173.69 46.44 173.26 45.81 172.83 45.29L175.69 44.07ZM175.26 40.74C175.47 41.03 175.69 41.37 175.92 41.77C176.15 42.17 176.38 42.57 176.6 42.97C176.82 43.37 177.02 43.72 177.18 44.03L175.24 44.87C175.08 44.53 174.9 44.17 174.69 43.77C174.48 43.37 174.27 42.97 174.04 42.57C173.82 42.17 173.59 41.83 173.37 41.54L175.27 40.75L175.26 40.74ZM178.12 39.66C178.33 39.96 178.55 40.32 178.79 40.72C179.03 41.12 179.27 41.52 179.5 41.92C179.73 42.32 179.91 42.66 180.04 42.93L178.14 43.75C177.88 43.25 177.58 42.69 177.23 42.06C176.88 41.43 176.53 40.89 176.2 40.44L178.12 39.67V39.66Z" fill="#6B8A2E"/>
<path d="M189.42 40.14L192.2 41.03C191.69 42.39 191.08 43.76 190.38 45.13C189.67 46.51 188.91 47.81 188.08 49.03C187.25 50.25 186.39 51.32 185.51 52.23C185.41 51.99 185.27 51.68 185.09 51.29C184.91 50.91 184.71 50.51 184.5 50.11C184.29 49.71 184.1 49.39 183.92 49.15C184.66 48.41 185.36 47.57 186.04 46.61C186.72 45.65 187.35 44.62 187.94 43.51C188.53 42.4 189.02 41.28 189.42 40.13V40.14ZM187 46.78L189.9 43.88V62.55H187V46.78ZM195.78 40.28L198.54 41C198.09 42.3 197.57 43.58 196.97 44.86C196.37 46.14 195.72 47.34 195.01 48.45C194.31 49.56 193.59 50.54 192.85 51.39C192.71 51.2 192.5 50.97 192.23 50.72C191.96 50.46 191.68 50.21 191.4 49.96C191.12 49.71 190.87 49.52 190.64 49.37C191.36 48.65 192.04 47.8 192.67 46.83C193.3 45.85 193.89 44.8 194.42 43.67C194.96 42.54 195.41 41.41 195.78 40.27V40.28ZM195.23 43.98H206.73V46.72H193.87L195.24 43.98H195.23ZM196.91 44.89H199.89V62.58H196.91V44.89ZM198.35 54.56H206.44V57.25H198.35V54.56ZM198.37 49.23H206.12V51.87H198.37V49.23Z" fill="#6B8A2E"/>
<path d="M212.82 43.64H215.84V50.72C215.84 51.62 215.81 52.6 215.74 53.66C215.68 54.72 215.56 55.81 215.38 56.92C215.2 58.03 214.94 59.1 214.6 60.12C214.26 61.14 213.81 62.06 213.27 62.88C213.11 62.67 212.87 62.44 212.56 62.18C212.25 61.92 211.94 61.67 211.62 61.42C211.31 61.17 211.04 61 210.82 60.9C211.43 59.94 211.87 58.86 212.15 57.67C212.43 56.48 212.61 55.27 212.69 54.06C212.77 52.84 212.81 51.72 212.81 50.68V43.62L212.82 43.64ZM214.59 49.09H220.13V51.71H214.59V49.09ZM214.74 43.64H233.27V46.47H214.74V43.64ZM219.03 49.09H221.81V50.15C221.78 51.85 221.74 53.23 221.69 54.31C221.64 55.39 221.57 56.23 221.46 56.83C221.36 57.43 221.22 57.85 221.04 58.09C220.8 58.39 220.55 58.61 220.28 58.74C220.02 58.87 219.71 58.96 219.36 59.03C219.04 59.09 218.64 59.13 218.15 59.14C217.66 59.14 217.13 59.14 216.55 59.13C216.53 58.71 216.45 58.25 216.31 57.74C216.17 57.23 215.99 56.8 215.78 56.44C216.21 56.47 216.62 56.5 216.99 56.51C217.37 56.53 217.65 56.53 217.84 56.53C218 56.53 218.14 56.51 218.26 56.47C218.38 56.43 218.48 56.35 218.56 56.24C218.67 56.1 218.76 55.8 218.81 55.34C218.87 54.88 218.91 54.19 218.94 53.25C218.97 52.31 219 51.07 219.01 49.52V49.09H219.03ZM229.07 47.74L232 48.44C230.99 51.56 229.62 54.32 227.87 56.71C226.12 59.1 224.06 61.03 221.68 62.51C221.55 62.3 221.36 62.05 221.1 61.75C220.84 61.45 220.58 61.16 220.31 60.86C220.04 60.56 219.8 60.32 219.59 60.13C221.89 58.88 223.85 57.2 225.45 55.08C227.05 52.96 228.26 50.52 229.07 47.75V47.74ZM222.56 40.06H225.58C225.55 42.03 225.6 43.96 225.75 45.84C225.89 47.73 226.11 49.49 226.39 51.13C226.67 52.77 227 54.22 227.39 55.47C227.77 56.73 228.2 57.71 228.66 58.41C229.12 59.11 229.6 59.47 230.08 59.47C230.35 59.47 230.56 59.14 230.72 58.49C230.87 57.83 230.98 56.75 231.04 55.25C231.38 55.57 231.77 55.88 232.23 56.19C232.69 56.49 233.11 56.72 233.49 56.86C233.35 58.35 233.13 59.5 232.84 60.3C232.55 61.11 232.17 61.66 231.69 61.97C231.21 62.27 230.59 62.43 229.84 62.43C228.98 62.43 228.2 62.13 227.5 61.54C226.8 60.95 226.19 60.12 225.65 59.07C225.11 58.02 224.65 56.77 224.27 55.35C223.89 53.93 223.57 52.38 223.32 50.72C223.07 49.06 222.89 47.32 222.77 45.52C222.65 43.72 222.58 41.9 222.57 40.06H222.56ZM226.23 41.55L227.98 39.82C228.43 40.04 228.9 40.31 229.4 40.61C229.9 40.91 230.37 41.22 230.83 41.52C231.29 41.82 231.66 42.12 231.95 42.41L230.1 44.33C229.83 44.06 229.48 43.75 229.04 43.42C228.61 43.08 228.14 42.75 227.65 42.42C227.15 42.09 226.68 41.8 226.23 41.54V41.55Z" fill="#6B8A2E"/>
<path d="M238.88 44.07C239.58 44.07 240.38 44.07 241.28 44.05C242.18 44.03 243.11 44.02 244.09 44C245.07 43.98 246.03 43.97 246.97 43.95C247.91 43.93 248.8 43.92 249.63 43.91C250.46 43.91 251.18 43.9 251.79 43.9C252.4 43.9 253.06 43.9 253.78 43.89C254.5 43.89 255.21 43.88 255.92 43.88H259.21L259.19 46.71C258.44 46.68 257.45 46.65 256.21 46.63C254.98 46.61 253.47 46.59 251.7 46.59C250.61 46.59 249.51 46.6 248.39 46.63C247.27 46.65 246.16 46.68 245.05 46.71C243.95 46.74 242.88 46.78 241.86 46.82C240.84 46.86 239.87 46.91 238.96 46.98L238.89 44.08L238.88 44.07ZM251.86 51.18C251.86 52.49 251.7 53.58 251.39 54.44C251.08 55.3 250.61 55.96 249.99 56.4C249.37 56.84 248.59 57.06 247.66 57.06C247.21 57.06 246.74 56.96 246.26 56.77C245.77 56.58 245.32 56.3 244.9 55.93C244.48 55.56 244.15 55.11 243.9 54.56C243.65 54.01 243.53 53.38 243.53 52.64C243.53 51.73 243.75 50.94 244.18 50.28C244.61 49.62 245.19 49.1 245.92 48.72C246.65 48.34 247.45 48.16 248.33 48.16C249.39 48.16 250.27 48.4 250.98 48.87C251.69 49.34 252.23 49.98 252.59 50.78C252.95 51.58 253.13 52.48 253.13 53.49C253.13 54.27 253 55.09 252.75 55.94C252.49 56.79 252.07 57.62 251.49 58.42C250.91 59.23 250.12 59.96 249.14 60.62C248.16 61.28 246.93 61.81 245.46 62.23L242.89 59.69C243.91 59.48 244.87 59.21 245.75 58.87C246.63 58.53 247.4 58.11 248.07 57.6C248.74 57.09 249.25 56.46 249.63 55.7C250.01 54.94 250.19 54.04 250.19 52.99C250.19 52.22 250 51.65 249.63 51.26C249.25 50.88 248.8 50.68 248.27 50.68C247.97 50.68 247.67 50.75 247.38 50.9C247.09 51.05 246.86 51.26 246.68 51.55C246.5 51.84 246.42 52.19 246.42 52.61C246.42 53.15 246.61 53.59 246.98 53.92C247.36 54.25 247.78 54.41 248.26 54.41C248.64 54.41 248.98 54.29 249.28 54.05C249.58 53.81 249.77 53.41 249.87 52.85C249.97 52.29 249.89 51.54 249.63 50.59L251.86 51.19V51.18ZM252.43 41.1C252.41 41.23 252.39 41.43 252.37 41.71C252.35 41.99 252.33 42.27 252.31 42.55C252.29 42.83 252.28 43.03 252.26 43.16C252.24 43.48 252.24 43.91 252.24 44.44V46.23C252.24 46.89 252.24 47.55 252.25 48.21C252.25 48.87 252.27 49.5 252.27 50.08C252.27 50.66 252.28 51.15 252.28 51.53L249.28 50.52V47.65C249.28 47.05 249.28 46.45 249.27 45.86C249.27 45.27 249.25 44.73 249.23 44.25C249.21 43.77 249.2 43.41 249.18 43.17C249.15 42.67 249.11 42.24 249.06 41.86C249.01 41.48 248.97 41.22 248.94 41.08H252.42L252.43 41.1Z" fill="#6B8A2E"/>
<path d="M266.65 42.15C266.99 42.2 267.35 42.23 267.73 42.25C268.11 42.27 268.48 42.27 268.83 42.27C269.09 42.27 269.47 42.27 269.98 42.26C270.49 42.26 271.07 42.24 271.72 42.22C272.37 42.2 273.01 42.19 273.65 42.17C274.29 42.15 274.87 42.13 275.39 42.11C275.91 42.09 276.31 42.07 276.6 42.05C277.1 42 277.49 41.96 277.78 41.92C278.07 41.88 278.28 41.84 278.43 41.79L279.99 43.93C279.72 44.11 279.44 44.28 279.15 44.46C278.86 44.64 278.58 44.83 278.31 45.04C277.99 45.26 277.61 45.56 277.16 45.92C276.71 46.28 276.24 46.66 275.73 47.06C275.22 47.46 274.74 47.85 274.27 48.24C273.8 48.62 273.37 48.97 272.99 49.27C273.39 49.17 273.77 49.11 274.14 49.07C274.51 49.03 274.88 49.01 275.27 49.01C276.63 49.01 277.85 49.27 278.93 49.8C280.01 50.33 280.87 51.04 281.5 51.95C282.13 52.85 282.45 53.89 282.45 55.06C282.45 56.32 282.13 57.47 281.49 58.49C280.85 59.51 279.89 60.33 278.6 60.94C277.31 61.55 275.7 61.85 273.76 61.85C272.66 61.85 271.66 61.69 270.77 61.37C269.88 61.05 269.18 60.59 268.67 60C268.16 59.41 267.9 58.71 267.9 57.91C267.9 57.25 268.08 56.64 268.44 56.07C268.8 55.5 269.3 55.04 269.95 54.69C270.6 54.34 271.35 54.16 272.19 54.16C273.29 54.16 274.23 54.38 274.99 54.82C275.75 55.26 276.33 55.85 276.74 56.58C277.15 57.32 277.36 58.12 277.38 59L274.57 59.38C274.55 58.5 274.33 57.79 273.91 57.26C273.49 56.72 272.92 56.46 272.22 56.46C271.77 56.46 271.41 56.58 271.14 56.81C270.87 57.04 270.73 57.31 270.73 57.61C270.73 58.06 270.95 58.42 271.4 58.69C271.85 58.96 272.43 59.1 273.15 59.1C274.51 59.1 275.65 58.94 276.56 58.61C277.47 58.28 278.16 57.81 278.61 57.19C279.06 56.57 279.29 55.84 279.29 54.99C279.29 54.27 279.07 53.64 278.63 53.09C278.19 52.55 277.59 52.12 276.84 51.82C276.09 51.52 275.24 51.36 274.3 51.36C273.36 51.36 272.52 51.48 271.76 51.71C270.99 51.94 270.27 52.27 269.59 52.69C268.91 53.11 268.25 53.63 267.6 54.23C266.95 54.83 266.31 55.5 265.67 56.23L263.49 53.97C263.92 53.62 264.41 53.22 264.95 52.78C265.49 52.34 266.05 51.88 266.62 51.4C267.19 50.92 267.72 50.47 268.23 50.04C268.73 49.62 269.16 49.26 269.51 48.97C269.85 48.7 270.24 48.38 270.69 48.01C271.14 47.64 271.6 47.26 272.08 46.87C272.56 46.48 273.02 46.1 273.45 45.74C273.88 45.38 274.24 45.07 274.53 44.82C274.29 44.82 273.98 44.82 273.59 44.84C273.21 44.86 272.79 44.87 272.33 44.89L270.96 44.94C270.5 44.96 270.08 44.98 269.69 45C269.3 45.02 268.97 45.04 268.72 45.06C268.4 45.08 268.06 45.1 267.71 45.13C267.36 45.16 267.04 45.2 266.75 45.25L266.65 42.13V42.15Z" fill="#6B8A2E"/>
<path d="M85.3799 92.9H89.4799C89.3499 94.35 89.1199 95.68 88.7899 96.88C88.4599 98.09 87.9299 99.17 87.1899 100.13C86.4499 101.09 85.4099 101.93 84.0699 102.64C82.7299 103.35 80.9799 103.96 78.8199 104.45C78.7099 104.09 78.5399 103.7 78.2899 103.28C78.0399 102.86 77.7799 102.45 77.4899 102.03C77.1999 101.61 76.9199 101.28 76.6399 101.02C78.4999 100.68 79.9799 100.26 81.0899 99.76C82.1999 99.26 83.0499 98.68 83.6299 98.02C84.2199 97.36 84.6299 96.61 84.8599 95.76C85.0899 94.92 85.2599 93.96 85.3699 92.9H85.3799ZM81.3199 75.26H102.34V94.14H81.3199V75.26ZM85.0299 78.59V80.57H98.4399V78.59H85.0299ZM85.0299 83.68V85.66H98.4399V83.68H85.0299ZM85.0299 88.8V90.82H98.4399V88.8H85.0299ZM93.1899 91.58H97.1299V99.23C97.1299 99.74 97.2099 100.07 97.3699 100.21C97.5299 100.35 97.9099 100.42 98.5099 100.42H101.87C102.23 100.42 102.51 100.32 102.7 100.13C102.89 99.94 103.03 99.53 103.12 98.91C103.2 98.29 103.27 97.35 103.31 96.09C103.59 96.3 103.93 96.52 104.35 96.73C104.77 96.94 105.2 97.13 105.66 97.27C106.12 97.42 106.51 97.55 106.83 97.65C106.7 99.34 106.48 100.64 106.16 101.57C105.84 102.5 105.37 103.14 104.75 103.51C104.13 103.87 103.29 104.05 102.22 104.05H97.9599C96.6999 104.05 95.7199 103.9 95.0299 103.6C94.3399 103.3 93.8599 102.8 93.5899 102.1C93.3199 101.4 93.1899 100.45 93.1899 99.25V91.57V91.58Z" fill="#487000"/>
<path d="M117.89 84.7L120.13 85.66C119.81 86.81 119.44 88.01 119.03 89.24C118.62 90.47 118.15 91.7 117.65 92.9C117.15 94.11 116.61 95.24 116.02 96.31C115.43 97.38 114.83 98.31 114.21 99.09C114.04 98.54 113.78 97.91 113.43 97.22C113.08 96.53 112.74 95.93 112.42 95.44C113 94.8 113.55 94.05 114.08 93.18C114.61 92.32 115.12 91.39 115.62 90.41C116.11 89.43 116.55 88.45 116.93 87.47C117.31 86.49 117.63 85.56 117.89 84.69V84.7ZM122.53 74.59L125.09 77.53C124.02 77.94 122.85 78.29 121.59 78.6C120.32 78.91 119.03 79.17 117.72 79.37C116.41 79.57 115.14 79.75 113.93 79.9C113.84 79.5 113.69 79 113.48 78.41C113.27 77.82 113.05 77.34 112.84 76.95C114.01 76.78 115.19 76.57 116.36 76.33C117.53 76.08 118.65 75.81 119.72 75.51C120.79 75.21 121.72 74.9 122.54 74.58L122.53 74.59ZM113.25 83.01H124.45V86.59H113.25V83.01ZM117.57 77.25H121.28V104.29H117.57V77.25ZM120.99 87.36C121.18 87.51 121.47 87.78 121.87 88.18C122.26 88.58 122.69 89.01 123.15 89.48C123.61 89.95 124.02 90.38 124.38 90.78C124.74 91.18 125 91.46 125.15 91.63L122.97 94.67C122.78 94.27 122.53 93.81 122.22 93.29C121.91 92.77 121.58 92.25 121.23 91.69C120.88 91.14 120.53 90.61 120.19 90.11C119.85 89.61 119.55 89.2 119.29 88.88L120.99 87.38V87.36ZM129.82 98.59L132.8 100.54C132.16 101.05 131.4 101.56 130.53 102.06C129.65 102.56 128.74 103.01 127.79 103.42C126.84 103.82 125.93 104.17 125.05 104.44C124.77 104.1 124.4 103.7 123.95 103.24C123.49 102.78 123.07 102.38 122.69 102.04C123.57 101.81 124.45 101.49 125.35 101.1C126.25 100.71 127.09 100.29 127.88 99.85C128.67 99.41 129.32 98.99 129.83 98.59H129.82ZM124.26 82.46H142.69V84.86H124.26V82.46ZM125.25 75.74H142.02V78.04H125.25V75.74ZM125.82 79.14H141.28V81.38H125.82V79.14ZM126.27 85.92H141.12V99.14H126.27V85.92ZM129.7 88.29V89.63H137.51V88.29H129.7ZM129.7 91.81V93.19H137.51V91.81H129.7ZM129.7 95.39V96.77H137.51V95.39H129.7ZM131.52 74.24H135.36V84.48H131.52V74.24ZM134.5 100.58L137.06 98.76C137.76 99.14 138.49 99.57 139.25 100.04C140.01 100.51 140.73 100.96 141.41 101.4C142.09 101.84 142.68 102.22 143.17 102.54L139.81 104.36C139.43 104.04 138.93 103.66 138.34 103.22C137.74 102.78 137.11 102.33 136.45 101.86C135.79 101.39 135.14 100.96 134.5 100.58Z" fill="#487000"/>
<path d="M158.74 82.55C158.64 82.89 158.54 83.28 158.44 83.74C158.34 84.2 158.26 84.56 158.21 84.83C158.1 85.37 157.96 86.04 157.79 86.82C157.62 87.6 157.44 88.43 157.25 89.3C157.06 90.17 156.86 91.02 156.65 91.83C156.43 92.66 156.17 93.57 155.87 94.57C155.57 95.56 155.25 96.56 154.91 97.57C154.57 98.58 154.22 99.55 153.87 100.47C153.52 101.4 153.17 102.22 152.84 102.94L149.48 101.81C149.85 101.2 150.23 100.46 150.62 99.58C151.01 98.7 151.4 97.76 151.78 96.76C152.16 95.76 152.52 94.76 152.84 93.76C153.16 92.76 153.43 91.84 153.66 91.01C153.8 90.43 153.95 89.85 154.09 89.26C154.23 88.67 154.37 88.09 154.49 87.53C154.61 86.97 154.71 86.45 154.8 85.96C154.89 85.47 154.96 85.05 155 84.7C155.05 84.25 155.08 83.8 155.1 83.36C155.12 82.91 155.1 82.54 155.08 82.26L158.75 82.55H158.74ZM152.62 86.15C153.6 86.15 154.61 86.1 155.67 86.01C156.73 85.92 157.79 85.77 158.86 85.59C159.93 85.41 161 85.19 162.05 84.95V87.95C161.06 88.19 160 88.39 158.88 88.55C157.76 88.71 156.66 88.83 155.57 88.92C154.48 89.01 153.48 89.05 152.57 89.05C151.99 89.05 151.47 89.04 151.01 89.01C150.55 88.99 150.1 88.97 149.67 88.95L149.6 85.95C150.22 86.01 150.76 86.06 151.21 86.09C151.66 86.12 152.13 86.14 152.63 86.14L152.62 86.15ZM161.45 95.85C161.35 96.19 161.27 96.54 161.21 96.91C161.15 97.28 161.11 97.59 161.11 97.85C161.11 98.12 161.17 98.37 161.28 98.59C161.39 98.81 161.57 99.01 161.81 99.18C162.05 99.35 162.38 99.48 162.81 99.56C163.23 99.65 163.77 99.69 164.41 99.69C165.21 99.69 166.03 99.65 166.86 99.57C167.69 99.49 168.54 99.37 169.4 99.21L169.28 102.26C168.61 102.36 167.86 102.44 167.05 102.51C166.24 102.58 165.35 102.62 164.39 102.62C162.37 102.62 160.83 102.28 159.77 101.61C158.71 100.94 158.17 100 158.17 98.8C158.17 98.24 158.21 97.68 158.3 97.12C158.39 96.56 158.48 96.05 158.58 95.58L161.46 95.84L161.45 95.85ZM160.15 89.82C160.82 89.74 161.57 89.68 162.38 89.64C163.2 89.6 163.99 89.58 164.76 89.58C165.45 89.58 166.15 89.6 166.86 89.63C167.57 89.66 168.28 89.72 168.98 89.8L168.91 92.68C168.32 92.6 167.67 92.53 166.95 92.46C166.23 92.39 165.51 92.36 164.78 92.36C163.95 92.36 163.16 92.38 162.4 92.42C161.65 92.46 160.9 92.53 160.14 92.62V89.81L160.15 89.82ZM166.42 83.25C166.63 83.54 166.85 83.88 167.08 84.28C167.31 84.68 167.54 85.08 167.76 85.48C167.98 85.88 168.17 86.23 168.31 86.54L166.39 87.38C166.23 87.04 166.05 86.68 165.84 86.28C165.63 85.88 165.42 85.48 165.19 85.08C164.97 84.68 164.74 84.34 164.52 84.05L166.42 83.26V83.25ZM169.25 82.17C169.47 82.46 169.71 82.81 169.95 83.21C170.19 83.62 170.43 84.02 170.66 84.41C170.89 84.8 171.07 85.14 171.2 85.43L169.3 86.25C169.04 85.74 168.74 85.17 168.39 84.55C168.04 83.93 167.69 83.39 167.36 82.94L169.26 82.17H169.25Z" fill="#6B8A2E"/>
<path d="M181.03 82.77C180.93 83.06 180.83 83.39 180.72 83.77C180.61 84.15 180.52 84.46 180.46 84.72C180.32 85.38 180.16 86.16 180 87.08C179.84 88 179.7 88.96 179.59 89.95C179.48 90.94 179.42 91.91 179.42 92.87C179.42 93.83 179.5 94.67 179.66 95.4C179.82 95.03 180 94.59 180.21 94.07C180.42 93.55 180.62 93.07 180.81 92.62L182.3 93.58C182.08 94.27 181.86 94.98 181.64 95.7C181.42 96.43 181.24 97.12 181.08 97.76C180.92 98.4 180.78 98.96 180.67 99.43C180.62 99.61 180.59 99.81 180.56 100.04C180.54 100.27 180.52 100.46 180.52 100.6C180.52 100.71 180.52 100.86 180.53 101.06C180.53 101.25 180.55 101.43 180.57 101.59L177.91 101.85C177.73 101.37 177.54 100.71 177.32 99.87C177.1 99.03 176.92 98.1 176.77 97.09C176.62 96.07 176.54 95.07 176.54 94.08C176.54 92.77 176.58 91.5 176.67 90.29C176.76 89.07 176.87 87.97 176.99 86.97C177.11 85.97 177.22 85.15 177.3 84.51C177.36 84.17 177.4 83.82 177.42 83.44C177.44 83.06 177.45 82.72 177.47 82.42L181.02 82.78L181.03 82.77ZM183.5 87.04C183.88 87.09 184.28 87.13 184.68 87.17C185.08 87.21 185.48 87.24 185.89 87.27C186.3 87.29 186.71 87.31 187.13 87.31C188.17 87.31 189.26 87.29 190.39 87.24C191.53 87.19 192.62 87.12 193.68 87.01C194.74 86.91 195.66 86.78 196.44 86.64L196.42 89.76C195.67 89.84 194.78 89.92 193.76 89.99C192.74 90.06 191.66 90.12 190.53 90.16C189.4 90.2 188.29 90.22 187.21 90.22C186.87 90.22 186.49 90.22 186.06 90.2C185.63 90.18 185.2 90.17 184.76 90.15C184.33 90.13 183.91 90.12 183.51 90.1V87.05L183.5 87.04ZM192.96 82.36C192.93 82.62 192.9 82.88 192.89 83.16C192.87 83.44 192.86 83.72 192.84 83.99C192.82 84.21 192.82 84.55 192.83 85.01C192.84 85.47 192.84 85.98 192.84 86.55V88.28C192.84 88.86 192.84 89.4 192.85 89.9C192.85 90.4 192.86 90.78 192.86 91.05C192.86 92.47 192.81 93.77 192.7 94.93C192.6 96.09 192.37 97.16 192.03 98.13C191.69 99.11 191.17 100.01 190.47 100.84C189.77 101.67 188.83 102.47 187.63 103.24L184.87 101.06C185.32 100.87 185.81 100.59 186.36 100.23C186.9 99.87 187.34 99.51 187.66 99.14C188.12 98.66 188.5 98.16 188.79 97.63C189.08 97.1 189.31 96.52 189.47 95.88C189.64 95.24 189.75 94.53 189.81 93.74C189.87 92.96 189.89 92.05 189.89 91.03V89.4C189.89 88.74 189.89 88.06 189.87 87.36C189.85 86.66 189.84 86 189.82 85.4C189.8 84.8 189.78 84.34 189.75 84.02C189.73 83.72 189.7 83.41 189.64 83.11C189.58 82.81 189.53 82.56 189.48 82.37H192.96V82.36Z" fill="#6B8A2E"/>
<path d="M202.2 84.98C202.68 84.96 203.14 84.94 203.57 84.92C204 84.9 204.33 84.88 204.55 84.86C205.05 84.83 205.66 84.78 206.39 84.7C207.12 84.63 207.93 84.55 208.84 84.47C209.74 84.39 210.71 84.31 211.73 84.23C212.75 84.15 213.82 84.06 214.92 83.97C215.75 83.89 216.58 83.82 217.4 83.77C218.22 83.71 219.01 83.67 219.75 83.63C220.49 83.59 221.15 83.56 221.71 83.55L221.73 86.62C221.3 86.62 220.8 86.62 220.24 86.64C219.68 86.66 219.12 86.68 218.57 86.72C218.02 86.76 217.53 86.84 217.09 86.95C216.37 87.14 215.7 87.47 215.07 87.92C214.45 88.38 213.91 88.91 213.45 89.53C212.99 90.15 212.64 90.81 212.38 91.52C212.12 92.23 212 92.95 212 93.67C212 94.45 212.14 95.15 212.42 95.75C212.7 96.35 213.08 96.86 213.57 97.29C214.06 97.72 214.63 98.07 215.29 98.35C215.95 98.63 216.65 98.84 217.41 98.99C218.17 99.14 218.96 99.23 219.77 99.28L218.64 102.57C217.63 102.51 216.65 102.35 215.7 102.09C214.75 101.83 213.86 101.48 213.02 101.03C212.18 100.58 211.46 100.03 210.85 99.39C210.23 98.74 209.75 98 209.39 97.16C209.03 96.32 208.85 95.38 208.85 94.34C208.85 93.19 209.03 92.13 209.4 91.16C209.77 90.19 210.23 89.34 210.78 88.62C211.33 87.9 211.88 87.33 212.42 86.93C211.97 86.99 211.43 87.06 210.8 87.12C210.17 87.18 209.49 87.26 208.76 87.35C208.03 87.44 207.29 87.53 206.54 87.63C205.79 87.73 205.06 87.83 204.37 87.95C203.67 88.07 203.05 88.19 202.49 88.3L202.18 85.01L202.2 84.98ZM218.31 88.96C218.52 89.25 218.74 89.59 218.97 89.98C219.2 90.37 219.43 90.76 219.65 91.16C219.87 91.55 220.07 91.91 220.23 92.23L218.41 93.05C218.11 92.38 217.81 91.79 217.53 91.27C217.25 90.76 216.92 90.24 216.53 89.71L218.31 88.97V88.96ZM220.99 87.86C221.2 88.15 221.43 88.48 221.67 88.86C221.91 89.24 222.16 89.62 222.4 90.01C222.64 90.4 222.84 90.75 223 91.05L221.2 91.91C220.88 91.27 220.57 90.7 220.28 90.21C219.98 89.71 219.64 89.2 219.24 88.67L220.99 87.85V87.86Z" fill="#6B8A2E"/>
<path d="M0 123.95H21.43V126.66H0V123.95ZM0.5 117.16H21.02V122.85H17.92V119.83H3.43V122.85H0.5V117.16ZM14.3 125.9L17.54 126.31C17.03 128.17 16.32 129.74 15.42 131.03C14.52 132.32 13.43 133.39 12.16 134.26C10.89 135.12 9.42 135.82 7.76 136.34C6.1 136.86 4.23 137.27 2.17 137.58C2.09 137.34 1.95 137.06 1.76 136.73C1.57 136.4 1.36 136.08 1.15 135.76C0.93 135.44 0.73 135.18 0.54 134.97C3.16 134.71 5.42 134.27 7.32 133.63C9.22 132.99 10.75 132.05 11.92 130.82C13.09 129.59 13.89 127.96 14.32 125.92L14.3 125.9ZM8.23 120.4L11.28 121.02C10.82 122 10.32 123.01 9.8 124.06C9.28 125.11 8.76 126.15 8.23 127.19C7.7 128.23 7.19 129.22 6.68 130.15C6.18 131.09 5.71 131.93 5.28 132.68L2.23 131.86C2.69 131.12 3.19 130.29 3.71 129.35C4.23 128.41 4.76 127.43 5.29 126.4C5.83 125.37 6.35 124.34 6.85 123.3C7.35 122.27 7.81 121.3 8.23 120.38V120.4ZM4.03 131.37L6.12 129.35C7.29 129.67 8.53 130.05 9.85 130.5C11.17 130.95 12.48 131.43 13.79 131.95C15.09 132.47 16.33 133 17.49 133.55C18.65 134.09 19.65 134.63 20.48 135.16L18.18 137.51C17.43 137 16.5 136.46 15.4 135.89C14.3 135.32 13.1 134.76 11.8 134.21C10.5 133.66 9.19 133.13 7.86 132.64C6.53 132.14 5.26 131.72 4.04 131.37H4.03ZM9.1 114.98H12.17V119.37H9.1V114.98Z" fill="#6B8A2E"/>
<path d="M27.8001 123.59L30.6101 124.17C30.5001 125.27 30.3501 126.4 30.1501 127.55C29.9601 128.7 29.6901 129.79 29.3601 130.83C29.0201 131.86 28.5801 132.77 28.0401 133.55L25.3501 131.99C25.8301 131.3 26.2301 130.51 26.5501 129.61C26.8701 128.71 27.1301 127.75 27.3401 126.73C27.5501 125.71 27.7001 124.66 27.8001 123.59ZM32.1201 121.89H35.1201V133.34C35.1201 133.93 35.2001 134.3 35.3501 134.46C35.5001 134.61 35.8701 134.69 36.4401 134.69H39.7301C40.1101 134.69 40.4101 134.57 40.6101 134.34C40.8101 134.11 40.9601 133.66 41.0501 133.01C41.1401 132.36 41.2201 131.4 41.2701 130.15C41.6101 130.41 42.0401 130.65 42.5701 130.88C43.1001 131.11 43.5601 131.28 43.9601 131.4C43.8601 132.89 43.6901 134.07 43.4301 134.94C43.1701 135.81 42.7701 136.43 42.2301 136.79C41.6901 137.15 40.9301 137.33 39.9501 137.33H36.0601C35.0401 137.33 34.2401 137.21 33.6701 136.96C33.1001 136.71 32.7001 136.3 32.4701 135.72C32.2401 135.14 32.1201 134.35 32.1201 133.34V121.89ZM32.2001 117.33L34.0701 115.1C35.0301 115.44 36.0101 115.84 37.0001 116.32C37.9901 116.8 38.9401 117.3 39.8301 117.81C40.7301 118.32 41.4901 118.82 42.1301 119.3L40.2301 121.82C39.6101 121.31 38.8501 120.78 37.9601 120.22C37.0701 119.67 36.1301 119.14 35.1301 118.62C34.1301 118.1 33.1501 117.68 32.1901 117.32L32.2001 117.33ZM41.6001 123.95L44.2401 122.65C44.9301 123.53 45.5701 124.48 46.1601 125.51C46.7501 126.53 47.2601 127.55 47.6801 128.56C48.1001 129.57 48.4101 130.49 48.6001 131.32L45.7001 132.76C45.5401 131.94 45.2601 131.02 44.8601 129.99C44.4601 128.96 43.9801 127.91 43.4201 126.86C42.8601 125.8 42.2501 124.84 41.6001 123.96V123.95Z" fill="#6B8A2E"/>
<path d="M59.1901 116.37C59.1301 116.87 59.0701 117.4 59.0101 117.98C58.9501 118.56 58.9101 119.08 58.8801 119.56C58.8601 120.22 58.8401 121.01 58.8001 121.95C58.7601 122.89 58.7301 123.87 58.7001 124.89C58.6801 125.91 58.6501 126.92 58.6301 127.91C58.6101 128.9 58.5901 129.77 58.5901 130.5C58.5901 131.3 58.7401 131.94 59.0301 132.41C59.3301 132.88 59.7201 133.22 60.2201 133.42C60.7201 133.62 61.2801 133.72 61.9001 133.72C62.8901 133.72 63.8001 133.59 64.6101 133.32C65.4301 133.06 66.1701 132.7 66.8401 132.25C67.5101 131.8 68.1201 131.28 68.6501 130.69C69.1901 130.1 69.6701 129.47 70.1001 128.82L72.2801 131.46C71.9001 132.04 71.3901 132.64 70.7701 133.28C70.1501 133.92 69.4101 134.52 68.5501 135.08C67.6901 135.64 66.7101 136.1 65.5901 136.45C64.4701 136.8 63.2301 136.98 61.8701 136.98C60.5101 136.98 59.4201 136.78 58.4501 136.37C57.4801 135.96 56.7301 135.33 56.1901 134.47C55.6501 133.61 55.3901 132.51 55.3901 131.15C55.3901 130.49 55.3901 129.75 55.4101 128.91C55.4301 128.07 55.4501 127.19 55.4801 126.28C55.5101 125.37 55.5401 124.48 55.5501 123.6C55.5701 122.73 55.5801 121.94 55.6001 121.24C55.6201 120.54 55.6201 119.98 55.6201 119.56C55.6201 118.98 55.6001 118.42 55.5501 117.87C55.5001 117.32 55.4201 116.8 55.3101 116.32L59.1701 116.37H59.1901Z" fill="#6B8A2E"/>
<path d="M74.53 118.89C75.01 118.87 75.47 118.85 75.9 118.83C76.33 118.81 76.67 118.79 76.91 118.77C77.41 118.72 78.01 118.67 78.73 118.6C79.45 118.54 80.26 118.46 81.17 118.38C82.08 118.3 83.04 118.22 84.06 118.13C85.08 118.04 86.15 117.95 87.25 117.85C88.08 117.79 88.91 117.73 89.75 117.67C90.58 117.61 91.37 117.57 92.11 117.53C92.85 117.49 93.5 117.46 94.04 117.45L94.06 120.52C93.63 120.52 93.13 120.52 92.57 120.54C92.01 120.56 91.45 120.58 90.9 120.62C90.35 120.66 89.86 120.73 89.42 120.82C88.7 121.01 88.03 121.34 87.42 121.79C86.8 122.25 86.26 122.79 85.8 123.41C85.34 124.03 84.98 124.7 84.73 125.41C84.48 126.12 84.36 126.84 84.36 127.56C84.36 128.34 84.5 129.04 84.77 129.64C85.04 130.24 85.42 130.75 85.91 131.18C86.4 131.61 86.97 131.96 87.63 132.24C88.29 132.52 88.99 132.73 89.75 132.88C90.51 133.03 91.3 133.12 92.11 133.17L90.98 136.46C89.97 136.4 88.99 136.24 88.04 135.98C87.09 135.72 86.2 135.37 85.38 134.92C84.56 134.47 83.83 133.92 83.21 133.28C82.59 132.64 82.1 131.89 81.75 131.05C81.4 130.21 81.22 129.27 81.22 128.23C81.22 127.06 81.4 126 81.77 125.04C82.14 124.08 82.59 123.24 83.14 122.51C83.68 121.78 84.23 121.22 84.77 120.82C84.32 120.87 83.78 120.93 83.15 121C82.52 121.07 81.84 121.15 81.11 121.24C80.38 121.33 79.64 121.42 78.89 121.52C78.14 121.62 77.41 121.72 76.72 121.84C76.02 121.96 75.4 122.08 74.84 122.19L74.53 118.9V118.89Z" fill="#6B8A2E"/>
<path d="M105.3 132.06C105.76 132.86 106.42 133.45 107.27 133.82C108.12 134.2 109.15 134.41 110.37 134.46C111.09 134.49 111.96 134.51 112.97 134.52C113.99 134.52 115.05 134.52 116.16 134.51C117.27 134.49 118.36 134.47 119.42 134.43C120.48 134.39 121.44 134.33 122.29 134.25C122.18 134.46 122.06 134.73 121.94 135.08C121.82 135.43 121.71 135.77 121.6 136.12C121.5 136.47 121.42 136.78 121.37 137.06C120.63 137.11 119.79 137.14 118.83 137.16C117.87 137.18 116.88 137.19 115.85 137.2C114.83 137.2 113.83 137.2 112.87 137.2C111.91 137.2 111.06 137.17 110.33 137.14C108.89 137.08 107.67 136.84 106.66 136.44C105.65 136.04 104.79 135.38 104.07 134.45C103.61 134.93 103.11 135.41 102.59 135.88C102.07 136.35 101.51 136.84 100.9 137.36L99.53 134.5C100.04 134.16 100.58 133.79 101.15 133.37C101.72 132.95 102.27 132.52 102.79 132.07H105.29L105.3 132.06ZM105.3 124.36V133.22H102.54V127.03H99.83V124.37H105.3V124.36ZM99.93 117.26L102.11 115.63C102.57 115.98 103.05 116.38 103.55 116.83C104.05 117.28 104.5 117.73 104.92 118.17C105.34 118.61 105.67 119.04 105.93 119.44L103.55 121.26C103.33 120.86 103.02 120.42 102.63 119.95C102.24 119.48 101.8 119.01 101.32 118.53C100.84 118.06 100.38 117.63 99.93 117.25V117.26ZM109.72 115.1L112.6 115.92C112.14 117.06 111.58 118.16 110.93 119.24C110.28 120.32 109.58 121.33 108.83 122.26C108.08 123.19 107.3 124.01 106.5 124.7C106.36 124.51 106.16 124.27 105.9 123.98C105.64 123.69 105.38 123.4 105.11 123.12C104.84 122.83 104.6 122.61 104.39 122.45C105.51 121.59 106.54 120.51 107.49 119.21C108.43 117.91 109.18 116.55 109.72 115.11V115.1ZM110.58 118.46H121.24V120.88H110.58V131.54H107.8V120.64L110.01 118.46H110.59H110.58ZM107.8 130.26H121.65V132.66H107.8V130.26ZM109.41 122.42H120.59V124.72H109.41V122.42ZM109.41 126.28H120.5V128.61H109.41V126.28ZM115.12 115.29L118.29 115.87C117.89 116.7 117.48 117.52 117.07 118.33C116.65 119.14 116.27 119.82 115.92 120.38L113.52 119.78C113.73 119.35 113.93 118.88 114.13 118.36C114.33 117.85 114.52 117.32 114.69 116.79C114.87 116.25 115.01 115.75 115.12 115.29ZM113.73 119.49H116.47V131.35H113.73V119.49Z" fill="#6B8A2E"/>
<path d="M142.34 116.58C142.29 116.79 142.23 117.04 142.16 117.35C142.09 117.65 142.02 117.96 141.96 118.26C141.9 118.56 141.84 118.81 141.79 119C141.53 120.07 141.25 121.16 140.93 122.28C140.61 123.39 140.25 124.49 139.85 125.58C139.45 126.67 139.01 127.68 138.52 128.63C138.03 129.57 137.49 130.41 136.9 131.15C136.18 132.08 135.5 132.84 134.87 133.43C134.24 134.02 133.61 134.46 132.99 134.74C132.37 135.02 131.69 135.16 130.95 135.16C130.29 135.16 129.67 134.98 129.09 134.62C128.51 134.26 128.03 133.72 127.67 133.01C127.31 132.3 127.13 131.42 127.13 130.38C127.13 129.34 127.33 128.24 127.72 127.18C128.11 126.12 128.66 125.13 129.35 124.22C130.05 123.31 130.87 122.55 131.81 121.94C133.09 121.11 134.35 120.52 135.58 120.19C136.81 119.85 138.07 119.69 139.35 119.69C141.01 119.69 142.49 120.04 143.77 120.73C145.05 121.43 146.05 122.4 146.77 123.65C147.49 124.9 147.85 126.36 147.85 128.04C147.85 129.72 147.48 131.17 146.73 132.4C145.98 133.63 144.97 134.6 143.67 135.33C142.37 136.06 140.89 136.55 139.23 136.81L137.38 134.03C138.71 133.92 139.84 133.68 140.78 133.31C141.72 132.94 142.48 132.48 143.06 131.92C143.64 131.36 144.07 130.74 144.34 130.05C144.61 129.36 144.75 128.64 144.75 127.89C144.75 126.8 144.51 125.85 144.04 125.02C143.57 124.2 142.91 123.55 142.06 123.08C141.21 122.61 140.21 122.37 139.06 122.37C137.8 122.37 136.67 122.57 135.68 122.98C134.69 123.39 133.78 123.9 132.94 124.5C132.32 124.95 131.78 125.49 131.33 126.12C130.88 126.75 130.54 127.42 130.3 128.12C130.06 128.82 129.94 129.5 129.94 130.16C129.94 130.74 130.06 131.2 130.31 131.55C130.56 131.9 130.89 132.08 131.31 132.08C131.61 132.08 131.93 131.99 132.25 131.8C132.57 131.62 132.89 131.37 133.21 131.06C133.53 130.75 133.85 130.38 134.17 129.97C134.49 129.55 134.81 129.11 135.13 128.65C135.58 127.96 136 127.19 136.4 126.35C136.8 125.5 137.16 124.61 137.49 123.69C137.82 122.76 138.09 121.86 138.32 120.99C138.54 120.12 138.72 119.31 138.85 118.58C138.93 118.23 138.98 117.83 139.01 117.38C139.03 116.93 139.05 116.57 139.05 116.3L142.36 116.61L142.34 116.58ZM132.22 117.38C132.3 117.78 132.38 118.17 132.47 118.56C132.56 118.94 132.65 119.32 132.75 119.69C132.93 120.35 133.13 121.05 133.37 121.81C133.61 122.57 133.87 123.33 134.15 124.08C134.43 124.83 134.71 125.52 135 126.16C135.29 126.79 135.58 127.33 135.86 127.78C136.28 128.42 136.75 129.09 137.28 129.78C137.81 130.48 138.35 131.1 138.91 131.64L136.49 133.56C136.01 133.03 135.58 132.52 135.21 132.04C134.83 131.55 134.45 131 134.05 130.4C133.7 129.86 133.34 129.22 132.98 128.5C132.62 127.78 132.27 127 131.92 126.15C131.58 125.3 131.25 124.43 130.94 123.53C130.63 122.63 130.33 121.75 130.04 120.87C129.91 120.44 129.77 120.02 129.62 119.62C129.47 119.22 129.29 118.8 129.08 118.37L132.22 117.39V117.38Z" fill="#6B8A2E"/>
<path d="M158.94 120.9C158.86 121.22 158.78 121.63 158.69 122.14C158.6 122.65 158.52 123.17 158.44 123.71C158.36 124.25 158.28 124.77 158.21 125.27C158.14 125.77 158.08 126.18 158.03 126.52C159.12 125.74 160.26 125.16 161.45 124.79C162.64 124.42 163.86 124.24 165.11 124.24C166.52 124.24 167.72 124.5 168.71 125.01C169.7 125.52 170.46 126.19 170.98 127.03C171.5 127.86 171.76 128.77 171.76 129.74C171.76 130.83 171.53 131.84 171.06 132.76C170.6 133.69 169.84 134.48 168.78 135.14C167.72 135.8 166.34 136.26 164.63 136.53C162.92 136.8 160.81 136.83 158.32 136.63L157.41 133.49C159.81 133.81 161.83 133.85 163.46 133.62C165.09 133.39 166.33 132.92 167.17 132.23C168.01 131.53 168.43 130.68 168.43 129.67C168.43 129.14 168.28 128.67 167.97 128.27C167.66 127.87 167.24 127.54 166.7 127.31C166.16 127.08 165.54 126.96 164.85 126.96C163.51 126.96 162.25 127.2 161.07 127.69C159.89 128.18 158.93 128.88 158.18 129.79C157.97 130.05 157.8 130.28 157.66 130.5C157.52 130.72 157.4 130.94 157.29 131.18L154.53 130.48C154.63 130.02 154.72 129.47 154.82 128.84C154.92 128.21 155.01 127.53 155.11 126.8C155.21 126.07 155.29 125.34 155.37 124.6C155.45 123.86 155.52 123.14 155.59 122.42C155.65 121.7 155.7 121.04 155.73 120.45L158.95 120.91L158.94 120.9ZM158.8 116.08C159.38 116.26 160.1 116.44 160.96 116.63C161.82 116.82 162.73 117.01 163.67 117.19C164.61 117.37 165.51 117.53 166.35 117.66C167.19 117.79 167.87 117.88 168.4 117.95L167.68 120.88C167.2 120.82 166.62 120.72 165.94 120.6C165.26 120.48 164.54 120.35 163.78 120.2C163.02 120.06 162.27 119.91 161.54 119.76C160.8 119.61 160.13 119.46 159.52 119.32C158.91 119.18 158.42 119.06 158.03 118.96L158.8 116.08Z" fill="#6B8A2E"/>
<path d="M183.61 122.7C183.35 122.73 183.03 122.77 182.63 122.82C182.23 122.87 181.8 122.92 181.35 122.99C180.89 123.05 180.43 123.12 179.97 123.18C179.51 123.24 179.07 123.3 178.67 123.35L178.36 120.28C178.71 120.3 179.04 120.3 179.36 120.29C179.67 120.29 180.04 120.27 180.45 120.25C180.83 120.22 181.29 120.17 181.83 120.12C182.37 120.06 182.91 120 183.46 119.92C184.01 119.84 184.53 119.75 185.01 119.66C185.49 119.57 185.87 119.47 186.14 119.37L187.1 120.59C186.96 120.78 186.79 121.02 186.61 121.31C186.43 121.6 186.24 121.89 186.05 122.19C185.86 122.49 185.69 122.75 185.55 122.97L184.13 127.48C183.87 127.85 183.56 128.31 183.18 128.87C182.8 129.43 182.41 130.02 181.99 130.65C181.57 131.28 181.17 131.87 180.77 132.45C180.37 133.03 180.01 133.53 179.69 133.96L177.79 131.34C178.09 130.96 178.44 130.51 178.83 130.01C179.22 129.51 179.63 128.97 180.07 128.4C180.5 127.83 180.93 127.26 181.34 126.7C181.76 126.13 182.14 125.6 182.5 125.09C182.86 124.59 183.16 124.15 183.4 123.78L183.45 123.16L183.62 122.7H183.61ZM183.32 118.1V117.03C183.32 116.67 183.29 116.31 183.22 115.94L186.72 116.06C186.62 116.43 186.52 116.96 186.42 117.66C186.32 118.36 186.21 119.15 186.11 120.05C186.01 120.95 185.91 121.89 185.82 122.87C185.73 123.85 185.66 124.83 185.6 125.81C185.54 126.79 185.52 127.7 185.52 128.55C185.52 129.21 185.52 129.87 185.53 130.54C185.54 131.21 185.55 131.9 185.57 132.6C185.59 133.3 185.62 134.03 185.67 134.78C185.69 134.99 185.71 135.28 185.74 135.66C185.77 136.04 185.8 136.36 185.84 136.63H182.53C182.56 136.34 182.58 136.02 182.59 135.67C182.59 135.32 182.6 135.05 182.6 134.85C182.62 134.07 182.63 133.34 182.65 132.67C182.67 132 182.68 131.29 182.69 130.53C182.69 129.78 182.72 128.91 182.75 127.91C182.77 127.54 182.79 127.07 182.82 126.51C182.85 125.94 182.89 125.32 182.93 124.64C182.97 123.96 183.01 123.27 183.06 122.56C183.11 121.86 183.15 121.2 183.19 120.58C183.23 119.96 183.26 119.44 183.29 119C183.31 118.56 183.33 118.26 183.33 118.1H183.32ZM200.19 134.15C199.63 134.66 198.98 135.09 198.25 135.42C197.51 135.76 196.66 135.92 195.68 135.92C194.78 135.92 194.06 135.61 193.51 134.98C192.96 134.35 192.68 133.46 192.68 132.29C192.68 131.65 192.72 130.96 192.81 130.21C192.9 129.47 193 128.72 193.11 127.97C193.22 127.22 193.32 126.5 193.41 125.82C193.5 125.14 193.54 124.53 193.54 123.98C193.54 123.39 193.4 122.94 193.11 122.65C192.82 122.36 192.42 122.21 191.91 122.21C191.35 122.21 190.73 122.41 190.04 122.8C189.35 123.19 188.65 123.69 187.93 124.3C187.21 124.91 186.53 125.56 185.88 126.24C185.23 126.92 184.67 127.58 184.19 128.21L184.17 124.51C184.46 124.19 184.84 123.81 185.31 123.38C185.78 122.95 186.32 122.5 186.92 122.04C187.52 121.58 188.15 121.14 188.82 120.73C189.48 120.32 190.16 119.99 190.84 119.73C191.52 119.47 192.18 119.35 192.82 119.35C193.68 119.35 194.39 119.51 194.94 119.82C195.49 120.13 195.9 120.56 196.18 121.09C196.45 121.63 196.59 122.23 196.59 122.9C196.59 123.52 196.55 124.2 196.47 124.93C196.39 125.66 196.29 126.4 196.18 127.15C196.07 127.9 195.98 128.65 195.9 129.38C195.82 130.11 195.79 130.79 195.79 131.4C195.79 131.72 195.87 131.98 196.03 132.18C196.19 132.38 196.41 132.48 196.7 132.48C197.15 132.48 197.64 132.33 198.19 132.04C198.73 131.74 199.28 131.32 199.82 130.76L200.2 134.14L200.19 134.15Z" fill="#6B8A2E"/>
<path d="M216.9 115.98C216.87 116.22 216.84 116.49 216.82 116.78C216.8 117.08 216.78 117.38 216.76 117.68C216.74 118 216.73 118.43 216.71 118.96C216.69 119.5 216.69 120.08 216.69 120.72V124.32C216.69 124.99 216.71 125.74 216.74 126.56C216.77 127.38 216.82 128.22 216.87 129.06C216.93 129.9 216.97 130.68 217.01 131.41C217.05 132.14 217.07 132.74 217.07 133.22C217.07 133.89 216.89 134.5 216.54 135.06C216.19 135.61 215.66 136.05 214.97 136.37C214.27 136.69 213.4 136.85 212.34 136.85C210.42 136.85 208.96 136.5 207.97 135.79C206.98 135.09 206.48 134.1 206.48 132.84C206.48 132.02 206.72 131.31 207.19 130.69C207.66 130.07 208.34 129.59 209.23 129.24C210.12 128.89 211.18 128.71 212.41 128.71C213.72 128.71 214.95 128.85 216.09 129.13C217.23 129.41 218.28 129.77 219.22 130.22C220.16 130.67 221 131.14 221.74 131.64C222.48 132.14 223.1 132.58 223.61 132.98L221.88 135.67C221.3 135.13 220.66 134.59 219.95 134.06C219.24 133.53 218.46 133.05 217.62 132.62C216.78 132.19 215.89 131.84 214.96 131.58C214.02 131.32 213.04 131.18 212 131.18C211.17 131.18 210.52 131.32 210.07 131.61C209.62 131.9 209.39 132.25 209.39 132.67C209.39 132.97 209.49 133.24 209.68 133.46C209.87 133.68 210.15 133.85 210.52 133.96C210.89 134.07 211.35 134.13 211.91 134.13C212.34 134.13 212.71 134.08 213.03 133.99C213.34 133.89 213.59 133.72 213.76 133.46C213.94 133.2 214.02 132.84 214.02 132.38C214.02 132.03 214.01 131.52 213.98 130.87C213.96 130.21 213.93 129.49 213.9 128.7C213.87 127.91 213.84 127.13 213.8 126.36C213.77 125.59 213.75 124.91 213.75 124.32C213.75 123.73 213.75 123.14 213.76 122.51C213.76 121.88 213.77 121.25 213.77 120.63C213.77 120.01 213.77 119.43 213.78 118.91C213.79 118.39 213.79 117.96 213.79 117.63C213.79 117.41 213.78 117.13 213.75 116.8C213.73 116.47 213.69 116.2 213.64 115.97H216.88L216.9 115.98ZM206.82 123.42C207.2 123.48 207.66 123.55 208.19 123.61C208.72 123.67 209.26 123.72 209.81 123.75C210.36 123.78 210.89 123.81 211.38 123.83C211.87 123.85 212.28 123.87 212.6 123.87C214.09 123.87 215.44 123.84 216.64 123.77C217.85 123.71 218.98 123.63 220.04 123.53C221.1 123.43 222.11 123.32 223.09 123.19L223.07 126.02C222.24 126.12 221.43 126.2 220.66 126.26C219.89 126.32 219.09 126.38 218.28 126.43C217.47 126.48 216.6 126.51 215.68 126.53C214.75 126.55 213.71 126.55 212.56 126.55C212.1 126.55 211.52 126.54 210.83 126.51C210.14 126.48 209.44 126.45 208.73 126.4C208.02 126.35 207.39 126.3 206.85 126.23L206.83 123.4L206.82 123.42ZM206.94 118.24C207.37 118.3 207.85 118.37 208.38 118.43C208.91 118.49 209.45 118.55 210 118.61C210.55 118.67 211.08 118.71 211.57 118.73C212.06 118.75 212.5 118.77 212.87 118.77C214.5 118.77 216.13 118.72 217.75 118.61C219.37 118.5 221.06 118.31 222.8 118.02L222.78 120.78C221.96 120.89 221.02 121 219.95 121.09C218.88 121.19 217.74 121.26 216.53 121.32C215.32 121.38 214.11 121.4 212.89 121.4C212.39 121.4 211.78 121.38 211.05 121.34C210.32 121.3 209.6 121.24 208.88 121.17C208.16 121.1 207.54 121.03 207.01 120.97L206.94 118.23V118.24Z" fill="#6B8A2E"/>
<path d="M229.78 119.03C230.48 119.03 231.28 119.03 232.18 119.01C233.08 118.99 234.01 118.98 234.99 118.96C235.97 118.94 236.93 118.93 237.87 118.91C238.81 118.89 239.7 118.88 240.53 118.87C241.36 118.87 242.08 118.86 242.69 118.86C243.3 118.86 243.96 118.86 244.68 118.85C245.4 118.85 246.11 118.84 246.82 118.84H250.11L250.09 121.67C249.34 121.64 248.35 121.61 247.11 121.59C245.88 121.57 244.37 121.55 242.6 121.55C241.51 121.55 240.41 121.56 239.29 121.59C238.17 121.61 237.06 121.64 235.95 121.67C234.85 121.7 233.78 121.74 232.76 121.78C231.74 121.82 230.77 121.87 229.86 121.94L229.79 119.04L229.78 119.03ZM242.76 126.14C242.76 127.45 242.6 128.54 242.29 129.4C241.98 130.26 241.51 130.92 240.89 131.36C240.27 131.8 239.49 132.02 238.56 132.02C238.11 132.02 237.64 131.92 237.16 131.73C236.67 131.54 236.22 131.26 235.8 130.89C235.38 130.52 235.05 130.07 234.8 129.52C234.55 128.97 234.43 128.34 234.43 127.6C234.43 126.69 234.65 125.9 235.08 125.24C235.51 124.58 236.09 124.06 236.82 123.68C237.55 123.3 238.35 123.12 239.23 123.12C240.29 123.12 241.17 123.36 241.88 123.83C242.59 124.3 243.13 124.94 243.49 125.74C243.85 126.54 244.03 127.44 244.03 128.45C244.03 129.23 243.9 130.05 243.65 130.9C243.39 131.75 242.97 132.58 242.39 133.38C241.81 134.19 241.02 134.92 240.04 135.58C239.06 136.24 237.83 136.77 236.36 137.19L233.79 134.65C234.81 134.44 235.77 134.17 236.65 133.83C237.53 133.49 238.3 133.07 238.97 132.56C239.64 132.05 240.15 131.42 240.53 130.66C240.91 129.9 241.09 129 241.09 127.95C241.09 127.18 240.9 126.61 240.53 126.22C240.15 125.84 239.7 125.64 239.17 125.64C238.87 125.64 238.57 125.71 238.28 125.86C237.99 126.01 237.76 126.22 237.58 126.51C237.4 126.8 237.32 127.15 237.32 127.57C237.32 128.11 237.51 128.55 237.88 128.88C238.26 129.21 238.68 129.37 239.16 129.37C239.54 129.37 239.88 129.25 240.18 129.01C240.48 128.77 240.67 128.37 240.77 127.81C240.87 127.25 240.79 126.5 240.53 125.55L242.76 126.15V126.14ZM243.34 116.06C243.32 116.19 243.3 116.39 243.28 116.67C243.26 116.95 243.24 117.23 243.22 117.51C243.2 117.79 243.19 117.99 243.17 118.12C243.15 118.44 243.15 118.87 243.15 119.4V121.19C243.15 121.85 243.15 122.51 243.16 123.17C243.16 123.83 243.18 124.46 243.18 125.04C243.18 125.62 243.19 126.11 243.19 126.49L240.19 125.48V122.61C240.19 122.01 240.19 121.41 240.18 120.82C240.18 120.23 240.16 119.69 240.14 119.21C240.12 118.73 240.11 118.37 240.09 118.13C240.06 117.63 240.02 117.2 239.97 116.82C239.92 116.44 239.88 116.18 239.85 116.04H243.33L243.34 116.06Z" fill="#6B8A2E"/>
<path d="M255.62 121.36C256.05 121.39 256.48 121.4 256.89 121.4C257.31 121.4 257.74 121.38 258.19 121.36C258.57 121.34 259.05 121.32 259.62 121.28C260.19 121.24 260.79 121.2 261.42 121.15C262.05 121.1 262.69 121.05 263.33 120.99C263.97 120.93 264.56 120.89 265.11 120.86C265.66 120.83 266.1 120.81 266.45 120.81C267.3 120.81 268.05 120.95 268.69 121.23C269.34 121.51 269.85 121.99 270.23 122.66C270.61 123.33 270.79 124.24 270.79 125.4C270.79 126.34 270.75 127.37 270.66 128.47C270.57 129.57 270.43 130.63 270.24 131.64C270.05 132.65 269.78 133.5 269.42 134.21C269.04 135.04 268.51 135.62 267.85 135.94C267.19 136.26 266.4 136.42 265.49 136.42C265.03 136.42 264.53 136.38 264.01 136.31C263.49 136.24 263.02 136.16 262.61 136.08L262.08 132.91C262.4 132.99 262.75 133.07 263.12 133.15C263.5 133.23 263.86 133.29 264.2 133.34C264.54 133.39 264.82 133.41 265.03 133.41C265.43 133.41 265.78 133.33 266.09 133.18C266.39 133.03 266.64 132.76 266.83 132.38C267.05 131.92 267.23 131.32 267.37 130.58C267.51 129.84 267.61 129.05 267.68 128.19C267.75 127.33 267.79 126.51 267.79 125.73C267.79 125.09 267.7 124.62 267.53 124.31C267.35 124.01 267.09 123.8 266.75 123.7C266.41 123.6 265.98 123.54 265.47 123.54C265.12 123.54 264.63 123.57 263.99 123.62C263.35 123.67 262.69 123.74 261.99 123.81C261.29 123.88 260.63 123.96 260.01 124.04C259.39 124.12 258.92 124.18 258.58 124.21C258.24 124.27 257.81 124.34 257.27 124.41C256.73 124.48 256.28 124.55 255.91 124.61L255.62 121.35V121.36ZM265.37 116.44C265.29 116.74 265.21 117.08 265.14 117.44C265.07 117.8 265 118.13 264.94 118.44C264.88 118.79 264.8 119.19 264.7 119.63C264.6 120.07 264.51 120.51 264.42 120.95C264.33 121.39 264.24 121.82 264.14 122.23C263.98 122.92 263.78 123.72 263.54 124.63C263.3 125.54 263.02 126.52 262.7 127.57C262.38 128.62 262.02 129.67 261.62 130.73C261.22 131.79 260.8 132.81 260.35 133.81C259.9 134.81 259.42 135.71 258.91 136.51L255.79 135.26C256.35 134.51 256.87 133.66 257.36 132.73C257.85 131.8 258.29 130.83 258.69 129.84C259.09 128.85 259.45 127.87 259.76 126.91C260.07 125.95 260.34 125.05 260.56 124.22C260.78 123.39 260.96 122.68 261.09 122.08C261.31 120.99 261.49 119.94 261.62 118.94C261.75 117.93 261.8 116.98 261.79 116.08L265.37 116.44ZM273.62 118.7C274 119.21 274.4 119.86 274.81 120.63C275.22 121.4 275.62 122.23 276.01 123.09C276.4 123.95 276.76 124.79 277.09 125.59C277.42 126.39 277.67 127.07 277.85 127.63L274.8 129.05C274.64 128.38 274.42 127.63 274.14 126.81C273.86 125.99 273.54 125.15 273.18 124.29C272.82 123.43 272.44 122.62 272.03 121.85C271.62 121.08 271.2 120.44 270.77 119.93L273.63 118.71L273.62 118.7Z" fill="#6B8A2E"/>
<path d="M287.74 129.23C287.66 128.59 287.71 128.03 287.9 127.55C288.08 127.07 288.35 126.64 288.69 126.25C289.03 125.87 289.42 125.51 289.84 125.19C290.26 124.87 290.66 124.56 291.04 124.25C291.42 123.95 291.72 123.63 291.96 123.31C292.2 122.99 292.32 122.64 292.32 122.25C292.32 121.77 292.2 121.36 291.96 121.03C291.72 120.69 291.37 120.44 290.92 120.26C290.46 120.08 289.92 120 289.28 120C288.54 120 287.87 120.16 287.26 120.48C286.65 120.8 286.05 121.27 285.46 121.9L283.49 120.08C284.26 119.2 285.17 118.49 286.21 117.96C287.26 117.42 288.41 117.16 289.68 117.16C290.85 117.16 291.88 117.34 292.79 117.69C293.69 118.04 294.41 118.57 294.93 119.29C295.45 120 295.71 120.89 295.71 121.97C295.71 122.56 295.59 123.08 295.34 123.52C295.09 123.96 294.77 124.35 294.38 124.7C293.99 125.04 293.58 125.37 293.14 125.68C292.71 125.99 292.31 126.32 291.94 126.65C291.57 126.98 291.28 127.36 291.08 127.78C290.87 128.2 290.79 128.68 290.84 129.24H287.74V129.23ZM289.3 135.62C288.69 135.62 288.19 135.42 287.79 135.02C287.39 134.62 287.19 134.12 287.19 133.51C287.19 132.9 287.39 132.37 287.79 131.97C288.19 131.57 288.69 131.37 289.3 131.37C289.91 131.37 290.41 131.57 290.81 131.97C291.21 132.37 291.41 132.88 291.41 133.51C291.41 134.14 291.21 134.62 290.81 135.02C290.41 135.42 289.91 135.62 289.3 135.62Z" fill="#6B8A2E"/>
<mask id="mask0_100_342" style="mask-type:luminance" maskUnits="userSpaceOnUse" x="1" y="133" width="150" height="20">
<path d="M150.13 133.36H1.06006V152.05H150.13V133.36Z" fill="white"/>
</mask>
<g mask="url(#mask0_100_342)">
<path d="M491.65 141.21C493.781 141.21 494.869 141.742 495.905 142.251C496.884 142.732 497.812 143.19 499.72 143.19V144.19C497.589 144.19 496.501 143.657 495.465 143.148C494.486 142.667 493.559 142.21 491.65 142.21C489.741 142.21 488.812 142.667 487.832 143.148C486.795 143.657 485.706 144.19 483.58 144.19C481.454 144.19 480.366 143.657 479.33 143.148C478.351 142.667 477.424 142.21 475.52 142.21C473.617 142.21 472.69 142.667 471.711 143.148C470.675 143.657 469.586 144.19 467.46 144.19C465.334 144.19 464.245 143.657 463.21 143.148C462.231 142.667 461.304 142.21 459.4 142.21C457.497 142.21 456.57 142.667 455.591 143.148C454.555 143.657 453.466 144.19 451.34 144.19C449.214 144.19 448.125 143.657 447.09 143.148C446.11 142.667 445.184 142.21 443.28 142.21C441.376 142.21 440.45 142.667 439.47 143.148C438.435 143.657 437.346 144.19 435.22 144.19C433.094 144.19 432.005 143.657 430.969 143.148C429.99 142.667 429.063 142.21 427.16 142.21C425.256 142.21 424.33 142.667 423.35 143.148C422.315 143.657 421.226 144.19 419.1 144.19C416.974 144.19 415.885 143.657 414.849 143.148C413.87 142.667 412.943 142.21 411.04 142.21C409.136 142.21 408.209 142.667 407.23 143.148C406.195 143.657 405.106 144.19 402.98 144.19C400.854 144.19 399.765 143.657 398.729 143.148C397.75 142.667 396.823 142.21 394.92 142.21C393.016 142.21 392.089 142.667 391.11 143.148C390.074 143.657 388.986 144.19 386.86 144.19C384.734 144.19 383.645 143.657 382.609 143.148C381.63 142.667 380.703 142.21 378.8 142.21C376.896 142.21 375.97 142.667 374.991 143.148C373.955 143.657 372.866 144.19 370.74 144.19C368.614 144.19 367.526 143.657 366.49 143.148C365.511 142.667 364.584 142.21 362.68 142.21C360.777 142.21 359.85 142.667 358.871 143.148C357.835 143.657 356.746 144.19 354.62 144.19C352.494 144.19 351.403 143.657 350.366 143.148C349.385 142.667 348.458 142.21 346.56 142.21C344.662 142.21 343.738 142.667 342.76 143.148C341.725 143.657 340.637 144.19 338.51 144.19C336.384 144.19 335.293 143.657 334.256 143.148C333.275 142.667 332.348 142.21 330.45 142.21C328.552 142.21 327.627 142.667 326.649 143.148C325.614 143.657 324.526 144.19 322.4 144.19C320.274 144.19 319.183 143.657 318.146 143.148C317.165 142.667 316.238 142.21 314.34 142.21C312.442 142.21 311.515 142.667 310.536 143.148C309.5 143.657 308.411 144.19 306.29 144.19C304.168 144.19 303.082 143.657 302.048 143.148C301.07 142.668 300.143 142.21 298.24 142.21C296.336 142.21 295.41 142.667 294.43 143.148C293.395 143.657 292.306 144.19 290.18 144.19C288.054 144.19 286.965 143.657 285.929 143.148C284.95 142.667 284.023 142.21 282.12 142.21C280.216 142.21 279.289 142.667 278.31 143.148C277.275 143.657 276.186 144.19 274.06 144.19C271.934 144.19 270.845 143.657 269.809 143.148C268.83 142.667 267.903 142.21 266 142.21C264.096 142.21 263.169 142.667 262.19 143.148C261.154 143.657 260.066 144.19 257.94 144.19C255.814 144.19 254.725 143.657 253.689 143.148C252.71 142.667 251.783 142.21 249.88 142.21C247.976 142.21 247.049 142.667 246.07 143.148C245.034 143.657 243.946 144.19 241.82 144.19C239.694 144.19 238.605 143.657 237.569 143.148C236.59 142.667 235.664 142.21 233.76 142.21C231.857 142.21 230.93 142.667 229.951 143.148C228.915 143.657 227.826 144.19 225.7 144.19C223.574 144.19 222.483 143.657 221.446 143.148C220.465 142.667 219.539 142.21 217.64 142.21C215.742 142.21 214.818 142.667 213.84 143.148C212.805 143.657 211.716 144.19 209.59 144.19C207.464 144.19 206.375 143.657 205.34 143.148C204.36 142.667 203.434 142.21 201.53 142.21C199.626 142.21 198.697 142.667 197.717 143.148C196.68 143.657 195.592 144.19 193.47 144.19C191.349 144.19 190.263 143.657 189.228 143.148C188.251 142.667 187.323 142.21 185.42 142.21C183.516 142.21 182.589 142.667 181.61 143.148C180.574 143.657 179.486 144.19 177.36 144.19C175.234 144.19 174.143 143.657 173.106 143.148C172.125 142.667 171.198 142.21 169.3 142.21C167.402 142.21 166.475 142.667 165.496 143.148C164.46 143.657 163.371 144.19 161.25 144.19C159.129 144.19 158.043 143.657 157.009 143.148C156.031 142.667 155.104 142.21 153.2 142.21C151.296 142.21 150.367 142.667 149.386 143.148C148.35 143.657 147.262 144.19 145.14 144.19C143.019 144.19 141.93 143.657 140.894 143.148C139.915 142.667 138.988 142.21 137.09 142.21C135.192 142.21 134.265 142.667 133.286 143.148C132.25 143.657 131.161 144.19 129.04 144.19C126.918 144.19 125.832 143.657 124.798 143.148C123.82 142.668 122.893 142.21 120.99 142.21C119.086 142.21 118.157 142.667 117.177 143.148C116.14 143.657 115.052 144.19 112.93 144.19C110.809 144.19 109.72 143.657 108.684 143.148C107.705 142.667 106.778 142.21 104.88 142.21C102.982 142.21 102.055 142.667 101.076 143.148C100.04 143.657 98.9513 144.19 96.8298 144.19C94.7083 144.19 93.622 143.657 92.5876 143.148C91.6101 142.668 90.6834 142.21 88.78 142.21C86.8763 142.21 85.9469 142.667 84.9666 143.148C83.93 143.657 82.8416 144.19 80.7205 144.19C78.599 144.19 77.5099 143.657 76.4744 143.148C75.495 142.667 74.5681 142.21 72.6697 142.21C70.7717 142.21 69.8451 142.667 68.866 143.148C67.8304 143.657 66.7413 144.19 64.6199 144.19C62.4986 144.19 61.4103 143.657 60.3748 143.148C59.3954 142.667 58.4686 142.21 56.5701 142.21C54.6716 142.21 53.7448 142.667 52.7654 143.148C51.7298 143.657 50.6415 144.19 48.5203 144.19C46.3987 144.19 45.3124 143.657 44.2781 143.148C43.3004 142.668 42.3738 142.21 40.4705 142.21C38.567 142.21 37.6372 142.667 36.657 143.148C35.6203 143.657 34.5314 144.19 32.4099 144.19C30.2886 144.19 29.2003 143.657 28.1648 143.148C27.1854 142.667 26.2585 142.21 24.3601 142.21C22.4616 142.21 21.5348 142.667 20.5554 143.148C19.5199 143.657 18.4315 144.19 16.3103 144.19C14.1888 144.19 13.0998 143.657 12.0642 143.148C11.085 142.667 10.1585 142.21 8.2605 142.21C6.36221 142.21 5.43509 142.667 4.45581 143.148C3.42023 143.657 2.33118 144.19 0.209717 144.19C-1.9115 144.19 -2.99728 143.657 -4.03149 143.148C-5.00925 142.667 -5.93643 142.21 -7.84009 142.21C-9.74377 142.21 -10.6732 142.667 -11.6536 143.148C-12.6902 143.657 -13.7784 144.19 -15.8997 144.19C-18.0211 144.19 -19.1102 143.657 -20.1458 143.148C-21.1251 142.667 -22.0521 142.21 -23.9504 142.21C-25.8484 142.21 -26.775 142.667 -27.7542 143.148C-28.7898 143.657 -29.8788 144.19 -32.0002 144.19C-34.1216 144.19 -35.2098 143.657 -36.2454 143.148C-37.2248 142.667 -38.1515 142.21 -40.05 142.21C-41.9485 142.21 -42.8753 142.667 -43.8547 143.148C-44.8903 143.657 -45.9785 144.19 -48.0999 144.19C-50.2213 144.19 -51.3103 143.657 -52.3459 143.148C-53.3251 142.667 -54.2517 142.21 -56.1497 142.21C-58.048 142.21 -58.975 142.667 -59.9543 143.148C-60.9899 143.657 -62.079 144.19 -64.2004 144.19C-66.3216 144.19 -67.41 143.657 -68.4456 143.148C-69.4249 142.667 -70.3518 142.21 -72.2502 142.21C-74.1486 142.21 -75.0756 142.667 -76.0549 143.148C-77.0905 143.657 -78.1787 144.19 -80.3 144.19C-82.4216 144.19 -83.5079 143.657 -84.5422 143.148C-85.5198 142.668 -86.4465 142.21 -88.3499 142.21C-90.2534 142.21 -91.1781 142.667 -92.1545 143.148C-93.1879 143.657 -94.2736 144.19 -96.3997 144.19C-98.5261 144.19 -99.6123 143.657 -100.646 143.148C-101.622 142.667 -102.547 142.21 -104.45 142.21C-106.354 142.21 -107.28 142.668 -108.258 143.148C-109.292 143.657 -110.379 144.19 -112.5 144.19C-114.622 144.19 -115.71 143.657 -116.745 143.148C-117.725 142.667 -118.652 142.21 -120.55 142.21C-122.448 142.21 -123.373 142.667 -124.351 143.148C-125.386 143.657 -126.474 144.19 -128.6 144.19C-130.726 144.19 -131.817 143.657 -132.854 143.148C-133.835 142.667 -134.762 142.21 -136.66 142.21C-138.558 142.21 -139.485 142.667 -140.464 143.148C-141.5 143.657 -142.589 144.19 -144.71 144.19C-146.832 144.19 -147.918 143.657 -148.952 143.148C-149.93 142.668 -150.857 142.21 -152.76 142.21C-154.663 142.21 -155.587 142.668 -156.564 143.148C-157.597 143.657 -158.683 144.19 -160.81 144.19C-162.936 144.19 -164.022 143.657 -165.056 143.148C-166.032 142.668 -166.956 142.21 -168.86 142.21C-170.763 142.21 -171.688 142.667 -172.664 143.148C-173.698 143.657 -174.784 144.19 -176.91 144.19C-179.036 144.19 -180.122 143.657 -181.156 143.148C-182.132 142.667 -183.057 142.21 -184.96 142.21C-186.864 142.21 -187.79 142.668 -188.768 143.148C-189.802 143.657 -190.888 144.19 -193.01 144.19C-195.131 144.19 -196.22 143.657 -197.255 143.148C-198.235 142.667 -199.161 142.21 -201.06 142.21C-202.958 142.21 -203.885 142.667 -204.865 143.148C-205.9 143.657 -206.988 144.19 -209.11 144.19C-211.231 144.19 -212.32 143.657 -213.356 143.148C-214.335 142.667 -215.262 142.21 -217.16 142.21C-219.058 142.21 -219.985 142.667 -220.964 143.148C-222 143.657 -223.089 144.19 -225.21 144.19C-227.332 144.19 -228.418 143.657 -229.452 143.148C-230.43 142.668 -231.357 142.21 -233.26 142.21C-235.163 142.21 -236.09 142.668 -237.068 143.148C-238.102 143.657 -239.188 144.19 -241.31 144.19C-243.431 144.19 -244.52 143.657 -245.556 143.148C-246.535 142.667 -247.462 142.21 -249.36 142.21C-251.258 142.21 -252.185 142.667 -253.164 143.148C-254.2 143.657 -255.289 144.19 -257.41 144.19C-259.532 144.19 -260.62 143.657 -261.656 143.148C-262.635 142.667 -263.562 142.21 -265.46 142.21C-267.359 142.21 -268.286 142.667 -269.265 143.148C-270.3 143.657 -271.389 144.19 -273.51 144.19C-275.631 144.19 -276.72 143.657 -277.755 143.148C-278.734 142.667 -279.661 142.21 -281.56 142.21C-283.458 142.21 -284.385 142.667 -285.365 143.148C-286.4 143.657 -287.488 144.19 -289.61 144.19C-291.731 144.19 -292.82 143.657 -293.856 143.148C-294.835 142.667 -295.762 142.21 -297.66 142.21C-299.558 142.21 -300.485 142.667 -301.464 143.148C-302.5 143.657 -303.589 144.19 -305.71 144.19C-307.832 144.19 -308.918 143.657 -309.952 143.148C-310.93 142.668 -311.857 142.21 -313.76 142.21V141.21C-311.634 141.21 -310.546 141.742 -309.511 142.251C-308.533 142.732 -307.608 143.19 -305.71 143.19C-303.812 143.19 -302.885 142.732 -301.906 142.251C-300.87 141.742 -299.782 141.21 -297.66 141.21C-295.539 141.21 -294.45 141.742 -293.414 142.251C-292.435 142.732 -291.508 143.19 -289.61 143.19C-287.712 143.19 -286.785 142.732 -285.806 142.251C-284.77 141.742 -283.681 141.21 -281.56 141.21C-279.439 141.21 -278.35 141.742 -277.315 142.251C-276.335 142.732 -275.409 143.19 -273.51 143.19C-271.611 143.19 -270.685 142.732 -269.705 142.251C-268.67 141.742 -267.581 141.21 -265.46 141.21C-263.339 141.21 -262.25 141.742 -261.214 142.251C-260.235 142.732 -259.309 143.19 -257.41 143.19C-255.512 143.19 -254.585 142.732 -253.606 142.251C-252.57 141.742 -251.481 141.21 -249.36 141.21C-247.238 141.21 -246.15 141.742 -245.115 142.251C-244.135 142.732 -243.208 143.19 -241.31 143.19C-239.412 143.19 -238.487 142.732 -237.509 142.251C-236.474 141.742 -235.386 141.21 -233.26 141.21C-231.134 141.21 -230.046 141.742 -229.011 142.251C-228.033 142.732 -227.108 143.19 -225.21 143.19C-223.312 143.19 -222.385 142.732 -221.406 142.251C-220.37 141.742 -219.282 141.21 -217.16 141.21C-215.039 141.21 -213.95 141.742 -212.914 142.251C-211.935 142.732 -211.008 143.19 -209.11 143.19C-207.212 143.19 -206.285 142.732 -205.306 142.251C-204.27 141.742 -203.181 141.21 -201.06 141.21C-198.939 141.21 -197.85 141.742 -196.815 142.251C-195.835 142.732 -194.909 143.19 -193.01 143.19C-191.112 143.19 -190.187 142.732 -189.209 142.251C-188.175 141.742 -187.086 141.21 -184.96 141.21C-182.834 141.21 -181.748 141.742 -180.714 142.251C-179.738 142.732 -178.814 143.19 -176.91 143.19C-175.007 143.19 -174.082 142.732 -173.106 142.251C-172.072 141.742 -170.986 141.21 -168.86 141.21C-166.734 141.21 -165.648 141.742 -164.615 142.251C-163.638 142.732 -162.713 143.19 -160.81 143.19C-158.906 143.19 -157.983 142.732 -157.006 142.251C-155.973 141.742 -154.886 141.21 -152.76 141.21C-150.634 141.21 -149.546 141.742 -148.511 142.251C-147.533 142.732 -146.608 143.19 -144.71 143.19C-142.812 143.19 -141.885 142.732 -140.906 142.251C-139.87 141.742 -138.782 141.21 -136.66 141.21C-134.539 141.21 -133.45 141.742 -132.413 142.251C-131.433 142.732 -130.504 143.19 -128.6 143.19C-126.696 143.19 -125.77 142.732 -124.792 142.251C-123.758 141.742 -122.672 141.21 -120.55 141.21C-118.429 141.21 -117.34 141.742 -116.305 142.251C-115.326 142.732 -114.399 143.19 -112.5 143.19C-110.602 143.19 -109.678 142.732 -108.699 142.251C-107.665 141.742 -106.576 141.21 -104.45 141.21C-102.324 141.21 -101.238 141.742 -100.204 142.251C-99.2279 142.732 -98.3032 143.19 -96.3997 143.19C-94.4964 143.19 -93.5724 142.732 -92.5959 142.251C-91.5625 141.742 -90.4762 141.21 -88.3499 141.21C-86.2238 141.21 -85.1355 141.742 -84.1008 142.251C-83.1227 142.732 -82.1984 143.19 -80.3 143.19C-78.4015 143.19 -77.4748 142.732 -76.4954 142.251C-75.4599 141.742 -74.3714 141.21 -72.2502 141.21C-70.1288 141.21 -69.0397 141.742 -68.0042 142.251C-67.0249 142.732 -66.0985 143.19 -64.2004 143.19C-62.302 143.19 -61.3751 142.732 -60.3958 142.251C-59.3602 141.742 -58.2711 141.21 -56.1497 141.21C-54.0285 141.21 -52.9401 141.742 -51.9045 142.251C-50.9251 142.732 -49.9984 143.19 -48.0999 143.19C-46.2014 143.19 -45.2746 142.732 -44.2952 142.251C-43.2597 141.742 -42.1712 141.21 -40.05 141.21C-37.9289 141.21 -36.8404 141.742 -35.8049 142.251C-34.8256 142.732 -33.8986 143.19 -32.0002 143.19C-30.1017 143.19 -29.175 142.732 -28.1956 142.251C-27.16 141.742 -26.0716 141.21 -23.9504 141.21C-21.829 141.21 -20.7399 141.742 -19.7043 142.251C-18.7249 142.732 -17.7982 143.19 -15.8997 143.19C-14.0013 143.19 -13.0748 142.732 -12.094 142.251C-11.057 141.742 -9.96619 141.21 -7.84009 141.21C-5.71375 141.21 -4.62485 141.742 -3.59009 142.251C-2.61206 142.732 -1.68832 143.19 0.209717 143.19C2.10825 143.19 3.03497 142.732 4.0144 142.251C5.04999 141.742 6.13904 141.21 8.2605 141.21C10.3816 141.21 11.4701 141.742 12.5056 142.251C13.485 142.732 14.4118 143.19 16.3103 143.19C18.2086 143.19 19.1357 142.732 20.115 142.251C21.1505 141.742 22.239 141.21 24.3601 141.21C26.4813 141.21 27.5697 141.742 28.6052 142.251C29.5846 142.732 30.5114 143.19 32.4099 143.19C34.3083 143.19 35.2348 142.732 36.2156 142.251C37.2526 141.742 38.3443 141.21 40.4705 141.21C42.5964 141.21 43.6848 141.742 44.7195 142.251C45.6976 142.732 46.6219 143.19 48.5203 143.19C50.4186 143.19 51.3456 142.732 52.325 142.251C53.3604 141.742 54.4489 141.21 56.5701 141.21C58.6913 141.21 59.7797 141.742 60.8152 142.251C61.7946 142.732 62.7214 143.19 64.6199 143.19C66.5184 143.19 67.4452 142.732 68.4246 142.251C69.4601 141.742 70.5485 141.21 72.6697 141.21C74.7911 141.21 75.8802 141.742 76.9158 142.251C77.8951 142.732 78.822 143.19 80.7205 143.19C82.6187 143.19 83.5453 142.732 84.5261 142.251C85.5631 141.742 86.6539 141.21 88.78 141.21C90.906 141.21 91.9944 141.742 93.0291 142.251C94.0072 142.732 94.9316 143.19 96.8298 143.19C98.7284 143.19 99.6551 142.732 100.635 142.251C101.67 141.742 102.758 141.21 104.88 141.21C107.001 141.21 108.09 141.742 109.126 142.251C110.105 142.732 111.032 143.19 112.93 143.19C114.829 143.19 115.755 142.732 116.736 142.251C117.773 141.742 118.864 141.21 120.99 141.21C123.116 141.21 124.204 141.742 125.239 142.251C126.217 142.732 127.142 143.19 129.04 143.19C130.938 143.19 131.865 142.732 132.844 142.251C133.88 141.742 134.968 141.21 137.09 141.21C139.211 141.21 140.3 141.742 141.336 142.251C142.315 142.732 143.242 143.19 145.14 143.19C147.039 143.19 147.965 142.732 148.946 142.251C149.983 141.742 151.074 141.21 153.2 141.21C155.326 141.21 156.415 141.742 157.45 142.251C158.428 142.732 159.352 143.19 161.25 143.19C163.148 143.19 164.075 142.732 165.054 142.251C166.09 141.742 167.178 141.21 169.3 141.21C171.421 141.21 172.51 141.742 173.547 142.251C174.527 142.732 175.456 143.19 177.36 143.19C179.264 143.19 180.191 142.732 181.17 142.251C182.205 141.742 183.294 141.21 185.42 141.21C187.546 141.21 188.635 141.742 189.67 142.251C190.648 142.732 191.572 143.19 193.47 143.19C195.369 143.19 196.295 142.732 197.276 142.251C198.313 141.742 199.404 141.21 201.53 141.21C203.656 141.21 204.744 141.742 205.78 142.251C206.759 142.732 207.686 143.19 209.59 143.19C211.493 143.19 212.42 142.732 213.398 142.251C214.432 141.742 215.519 141.21 217.64 141.21C219.762 141.21 220.85 141.742 221.886 142.251C222.867 142.732 223.796 143.19 225.7 143.19C227.604 143.19 228.53 142.732 229.51 142.251C230.545 141.742 231.634 141.21 233.76 141.21C235.886 141.21 236.975 141.742 238.01 142.251C238.99 142.732 239.916 143.19 241.82 143.19C243.724 143.19 244.65 142.732 245.63 142.251C246.665 141.742 247.754 141.21 249.88 141.21C252.006 141.21 253.095 141.742 254.131 142.251C255.11 142.732 256.036 143.19 257.94 143.19C259.844 143.19 260.771 142.732 261.75 142.251C262.785 141.742 263.874 141.21 266 141.21C268.126 141.21 269.215 141.742 270.251 142.251C271.23 142.732 272.157 143.19 274.06 143.19C275.964 143.19 276.891 142.732 277.87 142.251C278.906 141.742 279.994 141.21 282.12 141.21C284.246 141.21 285.335 141.742 286.371 142.251C287.35 142.732 288.277 143.19 290.18 143.19C292.084 143.19 293.011 142.732 293.99 142.251C295.026 141.742 296.114 141.21 298.24 141.21C300.366 141.21 301.454 141.742 302.489 142.251C303.467 142.732 304.392 143.19 306.29 143.19C308.188 143.19 309.115 142.732 310.094 142.251C311.13 141.742 312.218 141.21 314.34 141.21C316.461 141.21 317.55 141.742 318.587 142.251C319.567 142.732 320.496 143.19 322.4 143.19C324.304 143.19 325.23 142.732 326.208 142.251C327.242 141.742 328.328 141.21 330.45 141.21C332.571 141.21 333.66 141.742 334.697 142.251C335.677 142.732 336.607 143.19 338.51 143.19C340.414 143.19 341.34 142.732 342.318 142.251C343.352 141.742 344.439 141.21 346.56 141.21C348.681 141.21 349.77 141.742 350.806 142.251C351.787 142.732 352.716 143.19 354.62 143.19C356.524 143.19 357.45 142.732 358.429 142.251C359.465 141.742 360.554 141.21 362.68 141.21C364.806 141.21 365.895 141.742 366.93 142.251C367.91 142.732 368.836 143.19 370.74 143.19C372.644 143.19 373.57 142.732 374.55 142.251C375.585 141.742 376.674 141.21 378.8 141.21C380.926 141.21 382.015 141.742 383.051 142.251C384.03 142.732 384.956 143.19 386.86 143.19C388.764 143.19 389.69 142.732 390.67 142.251C391.705 141.742 392.794 141.21 394.92 141.21C397.046 141.21 398.135 141.742 399.171 142.251C400.15 142.732 401.077 143.19 402.98 143.19C404.884 143.19 405.811 142.732 406.79 142.251C407.825 141.742 408.914 141.21 411.04 141.21C413.166 141.21 414.255 141.742 415.291 142.251C416.27 142.732 417.197 143.19 419.1 143.19C421.004 143.19 421.931 142.732 422.91 142.251C423.946 141.742 425.034 141.21 427.16 141.21C429.286 141.21 430.375 141.742 431.411 142.251C432.39 142.732 433.317 143.19 435.22 143.19C437.124 143.19 438.051 142.732 439.03 142.251C440.066 141.742 441.154 141.21 443.28 141.21C445.406 141.21 446.494 141.742 447.53 142.251C448.509 142.732 449.436 143.19 451.34 143.19C453.243 143.19 454.17 142.732 455.149 142.251C456.185 141.742 457.274 141.21 459.4 141.21C461.526 141.21 462.615 141.742 463.65 142.251C464.629 142.732 465.556 143.19 467.46 143.19C469.363 143.19 470.29 142.732 471.269 142.251C472.305 141.742 473.394 141.21 475.52 141.21C477.646 141.21 478.735 141.742 479.77 142.251C480.749 142.732 481.676 143.19 483.58 143.19C485.484 143.19 486.411 142.732 487.391 142.251C488.429 141.742 489.519 141.21 491.65 141.21Z" fill="#EB6100"/>
</g>
</svg>
